%TF.GenerationSoftware,KiCad,Pcbnew,(5.1.8-0-10_14)*%
%TF.CreationDate,2022-04-27T14:32:14-05:00*%
%TF.ProjectId,SAQ_KiCad_one,5341515f-4b69-4436-9164-5f6f6e652e6b,rev?*%
%TF.SameCoordinates,Original*%
%TF.FileFunction,Copper,L1,Top*%
%TF.FilePolarity,Positive*%
%FSLAX46Y46*%
G04 Gerber Fmt 4.6, Leading zero omitted, Abs format (unit mm)*
G04 Created by KiCad (PCBNEW (5.1.8-0-10_14)) date 2022-04-27 14:32:14*
%MOMM*%
%LPD*%
G01*
G04 APERTURE LIST*
%TA.AperFunction,SMDPad,CuDef*%
%ADD10C,0.100000*%
%TD*%
%TA.AperFunction,ComponentPad*%
%ADD11O,1.400000X1.400000*%
%TD*%
%TA.AperFunction,ComponentPad*%
%ADD12C,1.400000*%
%TD*%
%TA.AperFunction,ComponentPad*%
%ADD13O,0.850000X0.850000*%
%TD*%
%TA.AperFunction,ComponentPad*%
%ADD14R,0.850000X0.850000*%
%TD*%
%TA.AperFunction,ComponentPad*%
%ADD15R,1.500000X1.050000*%
%TD*%
%TA.AperFunction,ComponentPad*%
%ADD16O,1.500000X1.050000*%
%TD*%
%TA.AperFunction,ComponentPad*%
%ADD17R,2.500000X2.500000*%
%TD*%
%TA.AperFunction,ComponentPad*%
%ADD18C,4.000000*%
%TD*%
%TA.AperFunction,SMDPad,CuDef*%
%ADD19R,1.600000X1.300000*%
%TD*%
%TA.AperFunction,SMDPad,CuDef*%
%ADD20R,1.600000X2.000000*%
%TD*%
%TA.AperFunction,ComponentPad*%
%ADD21C,2.250000*%
%TD*%
%TA.AperFunction,ComponentPad*%
%ADD22C,2.050000*%
%TD*%
%TA.AperFunction,ComponentPad*%
%ADD23C,2.500000*%
%TD*%
%TA.AperFunction,ComponentPad*%
%ADD24O,3.500000X2.200000*%
%TD*%
%TA.AperFunction,ComponentPad*%
%ADD25O,2.500000X1.500000*%
%TD*%
%TA.AperFunction,ComponentPad*%
%ADD26R,2.500000X1.500000*%
%TD*%
%TA.AperFunction,SMDPad,CuDef*%
%ADD27R,1.300000X1.600000*%
%TD*%
%TA.AperFunction,SMDPad,CuDef*%
%ADD28R,2.000000X1.600000*%
%TD*%
%TA.AperFunction,SMDPad,CuDef*%
%ADD29R,0.900000X0.800000*%
%TD*%
%TA.AperFunction,ViaPad*%
%ADD30C,0.800000*%
%TD*%
%TA.AperFunction,Conductor*%
%ADD31C,0.250000*%
%TD*%
%TA.AperFunction,Conductor*%
%ADD32C,0.350000*%
%TD*%
G04 APERTURE END LIST*
%TA.AperFunction,SMDPad,CuDef*%
D10*
%TO.P,JP3,1*%
%TO.N,Net-(R7-Pad1)*%
G36*
X144909400Y-32373000D02*
G01*
X144409400Y-32373000D01*
X144409400Y-32372398D01*
X144384866Y-32372398D01*
X144336035Y-32367588D01*
X144287910Y-32358016D01*
X144240955Y-32343772D01*
X144195622Y-32324995D01*
X144152349Y-32301864D01*
X144111550Y-32274604D01*
X144073621Y-32243476D01*
X144038924Y-32208779D01*
X144007796Y-32170850D01*
X143980536Y-32130051D01*
X143957405Y-32086778D01*
X143938628Y-32041445D01*
X143924384Y-31994490D01*
X143914812Y-31946365D01*
X143910002Y-31897534D01*
X143910002Y-31873000D01*
X143909400Y-31873000D01*
X143909400Y-31373000D01*
X143910002Y-31373000D01*
X143910002Y-31348466D01*
X143914812Y-31299635D01*
X143924384Y-31251510D01*
X143938628Y-31204555D01*
X143957405Y-31159222D01*
X143980536Y-31115949D01*
X144007796Y-31075150D01*
X144038924Y-31037221D01*
X144073621Y-31002524D01*
X144111550Y-30971396D01*
X144152349Y-30944136D01*
X144195622Y-30921005D01*
X144240955Y-30902228D01*
X144287910Y-30887984D01*
X144336035Y-30878412D01*
X144384866Y-30873602D01*
X144409400Y-30873602D01*
X144409400Y-30873000D01*
X144909400Y-30873000D01*
X144909400Y-32373000D01*
G37*
%TD.AperFunction*%
%TA.AperFunction,SMDPad,CuDef*%
%TO.P,JP3,2*%
G36*
X145709400Y-30873602D02*
G01*
X145733934Y-30873602D01*
X145782765Y-30878412D01*
X145830890Y-30887984D01*
X145877845Y-30902228D01*
X145923178Y-30921005D01*
X145966451Y-30944136D01*
X146007250Y-30971396D01*
X146045179Y-31002524D01*
X146079876Y-31037221D01*
X146111004Y-31075150D01*
X146138264Y-31115949D01*
X146161395Y-31159222D01*
X146180172Y-31204555D01*
X146194416Y-31251510D01*
X146203988Y-31299635D01*
X146208798Y-31348466D01*
X146208798Y-31373000D01*
X146209400Y-31373000D01*
X146209400Y-31873000D01*
X146208798Y-31873000D01*
X146208798Y-31897534D01*
X146203988Y-31946365D01*
X146194416Y-31994490D01*
X146180172Y-32041445D01*
X146161395Y-32086778D01*
X146138264Y-32130051D01*
X146111004Y-32170850D01*
X146079876Y-32208779D01*
X146045179Y-32243476D01*
X146007250Y-32274604D01*
X145966451Y-32301864D01*
X145923178Y-32324995D01*
X145877845Y-32343772D01*
X145830890Y-32358016D01*
X145782765Y-32367588D01*
X145733934Y-32372398D01*
X145709400Y-32372398D01*
X145709400Y-32373000D01*
X145209400Y-32373000D01*
X145209400Y-30873000D01*
X145709400Y-30873000D01*
X145709400Y-30873602D01*
G37*
%TD.AperFunction*%
%TD*%
D11*
%TO.P,JP1,2*%
%TO.N,Net-(JP2-Pad2)*%
X130937000Y-32893000D03*
D12*
%TO.P,JP1,1*%
%TO.N,Net-(JP2-Pad1)*%
X128397000Y-32893000D03*
%TD*%
D13*
%TO.P,LATCH,2*%
%TO.N,GND*%
X162417000Y-27051000D03*
D14*
%TO.P,LATCH,1*%
%TO.N,Net-(R23-Pad1)*%
X161417000Y-27051000D03*
%TD*%
D13*
%TO.P,RESET,2*%
%TO.N,GND*%
X155114500Y-37655500D03*
D14*
%TO.P,RESET,1*%
%TO.N,Net-(R22-Pad1)*%
X154114500Y-37655500D03*
%TD*%
D13*
%TO.P,INT/4,2*%
%TO.N,GND*%
X168322500Y-38989000D03*
D14*
%TO.P,INT/4,1*%
%TO.N,Net-(R21-Pad1)*%
X167322500Y-38989000D03*
%TD*%
D13*
%TO.P,INT-OUT,2*%
%TO.N,GND*%
X148198000Y-40299000D03*
D14*
%TO.P,INT-OUT,1*%
%TO.N,Net-(R20-Pad1)*%
X147198000Y-40299000D03*
%TD*%
D13*
%TO.P,INPUT,2*%
%TO.N,GND*%
X129714500Y-26924000D03*
D14*
%TO.P,INPUT,1*%
%TO.N,Net-(R19-Pad1)*%
X128714500Y-26924000D03*
%TD*%
%TO.P,R23,2*%
%TO.N,Net-(C12-Pad1)*%
%TA.AperFunction,SMDPad,CuDef*%
G36*
G01*
X157842000Y-26600999D02*
X157842000Y-27501001D01*
G75*
G02*
X157592001Y-27751000I-249999J0D01*
G01*
X156891999Y-27751000D01*
G75*
G02*
X156642000Y-27501001I0J249999D01*
G01*
X156642000Y-26600999D01*
G75*
G02*
X156891999Y-26351000I249999J0D01*
G01*
X157592001Y-26351000D01*
G75*
G02*
X157842000Y-26600999I0J-249999D01*
G01*
G37*
%TD.AperFunction*%
%TO.P,R23,1*%
%TO.N,Net-(R23-Pad1)*%
%TA.AperFunction,SMDPad,CuDef*%
G36*
G01*
X159842000Y-26600999D02*
X159842000Y-27501001D01*
G75*
G02*
X159592001Y-27751000I-249999J0D01*
G01*
X158891999Y-27751000D01*
G75*
G02*
X158642000Y-27501001I0J249999D01*
G01*
X158642000Y-26600999D01*
G75*
G02*
X158891999Y-26351000I249999J0D01*
G01*
X159592001Y-26351000D01*
G75*
G02*
X159842000Y-26600999I0J-249999D01*
G01*
G37*
%TD.AperFunction*%
%TD*%
%TO.P,R22,2*%
%TO.N,Net-(R22-Pad2)*%
%TA.AperFunction,SMDPad,CuDef*%
G36*
G01*
X150793500Y-37205499D02*
X150793500Y-38105501D01*
G75*
G02*
X150543501Y-38355500I-249999J0D01*
G01*
X149843499Y-38355500D01*
G75*
G02*
X149593500Y-38105501I0J249999D01*
G01*
X149593500Y-37205499D01*
G75*
G02*
X149843499Y-36955500I249999J0D01*
G01*
X150543501Y-36955500D01*
G75*
G02*
X150793500Y-37205499I0J-249999D01*
G01*
G37*
%TD.AperFunction*%
%TO.P,R22,1*%
%TO.N,Net-(R22-Pad1)*%
%TA.AperFunction,SMDPad,CuDef*%
G36*
G01*
X152793500Y-37205499D02*
X152793500Y-38105501D01*
G75*
G02*
X152543501Y-38355500I-249999J0D01*
G01*
X151843499Y-38355500D01*
G75*
G02*
X151593500Y-38105501I0J249999D01*
G01*
X151593500Y-37205499D01*
G75*
G02*
X151843499Y-36955500I249999J0D01*
G01*
X152543501Y-36955500D01*
G75*
G02*
X152793500Y-37205499I0J-249999D01*
G01*
G37*
%TD.AperFunction*%
%TD*%
%TO.P,R21,2*%
%TO.N,Net-(R14-Pad2)*%
%TA.AperFunction,SMDPad,CuDef*%
G36*
G01*
X164001500Y-38538999D02*
X164001500Y-39439001D01*
G75*
G02*
X163751501Y-39689000I-249999J0D01*
G01*
X163051499Y-39689000D01*
G75*
G02*
X162801500Y-39439001I0J249999D01*
G01*
X162801500Y-38538999D01*
G75*
G02*
X163051499Y-38289000I249999J0D01*
G01*
X163751501Y-38289000D01*
G75*
G02*
X164001500Y-38538999I0J-249999D01*
G01*
G37*
%TD.AperFunction*%
%TO.P,R21,1*%
%TO.N,Net-(R21-Pad1)*%
%TA.AperFunction,SMDPad,CuDef*%
G36*
G01*
X166001500Y-38538999D02*
X166001500Y-39439001D01*
G75*
G02*
X165751501Y-39689000I-249999J0D01*
G01*
X165051499Y-39689000D01*
G75*
G02*
X164801500Y-39439001I0J249999D01*
G01*
X164801500Y-38538999D01*
G75*
G02*
X165051499Y-38289000I249999J0D01*
G01*
X165751501Y-38289000D01*
G75*
G02*
X166001500Y-38538999I0J-249999D01*
G01*
G37*
%TD.AperFunction*%
%TD*%
%TO.P,R20,2*%
%TO.N,Net-(R20-Pad2)*%
%TA.AperFunction,SMDPad,CuDef*%
G36*
G01*
X143824500Y-39872499D02*
X143824500Y-40772501D01*
G75*
G02*
X143574501Y-41022500I-249999J0D01*
G01*
X142874499Y-41022500D01*
G75*
G02*
X142624500Y-40772501I0J249999D01*
G01*
X142624500Y-39872499D01*
G75*
G02*
X142874499Y-39622500I249999J0D01*
G01*
X143574501Y-39622500D01*
G75*
G02*
X143824500Y-39872499I0J-249999D01*
G01*
G37*
%TD.AperFunction*%
%TO.P,R20,1*%
%TO.N,Net-(R20-Pad1)*%
%TA.AperFunction,SMDPad,CuDef*%
G36*
G01*
X145824500Y-39872499D02*
X145824500Y-40772501D01*
G75*
G02*
X145574501Y-41022500I-249999J0D01*
G01*
X144874499Y-41022500D01*
G75*
G02*
X144624500Y-40772501I0J249999D01*
G01*
X144624500Y-39872499D01*
G75*
G02*
X144874499Y-39622500I249999J0D01*
G01*
X145574501Y-39622500D01*
G75*
G02*
X145824500Y-39872499I0J-249999D01*
G01*
G37*
%TD.AperFunction*%
%TD*%
%TO.P,R19,2*%
%TO.N,Net-(JP2-Pad1)*%
%TA.AperFunction,SMDPad,CuDef*%
G36*
G01*
X127946999Y-29991000D02*
X128847001Y-29991000D01*
G75*
G02*
X129097000Y-30240999I0J-249999D01*
G01*
X129097000Y-30941001D01*
G75*
G02*
X128847001Y-31191000I-249999J0D01*
G01*
X127946999Y-31191000D01*
G75*
G02*
X127697000Y-30941001I0J249999D01*
G01*
X127697000Y-30240999D01*
G75*
G02*
X127946999Y-29991000I249999J0D01*
G01*
G37*
%TD.AperFunction*%
%TO.P,R19,1*%
%TO.N,Net-(R19-Pad1)*%
%TA.AperFunction,SMDPad,CuDef*%
G36*
G01*
X127946999Y-27991000D02*
X128847001Y-27991000D01*
G75*
G02*
X129097000Y-28240999I0J-249999D01*
G01*
X129097000Y-28941001D01*
G75*
G02*
X128847001Y-29191000I-249999J0D01*
G01*
X127946999Y-29191000D01*
G75*
G02*
X127697000Y-28941001I0J249999D01*
G01*
X127697000Y-28240999D01*
G75*
G02*
X127946999Y-27991000I249999J0D01*
G01*
G37*
%TD.AperFunction*%
%TD*%
%TO.P,R18,2*%
%TO.N,GND*%
%TA.AperFunction,SMDPad,CuDef*%
G36*
G01*
X167897000Y-35311501D02*
X167897000Y-34411499D01*
G75*
G02*
X168146999Y-34161500I249999J0D01*
G01*
X168847001Y-34161500D01*
G75*
G02*
X169097000Y-34411499I0J-249999D01*
G01*
X169097000Y-35311501D01*
G75*
G02*
X168847001Y-35561500I-249999J0D01*
G01*
X168146999Y-35561500D01*
G75*
G02*
X167897000Y-35311501I0J249999D01*
G01*
G37*
%TD.AperFunction*%
%TO.P,R18,1*%
%TO.N,Net-(R15-Pad2)*%
%TA.AperFunction,SMDPad,CuDef*%
G36*
G01*
X165897000Y-35311501D02*
X165897000Y-34411499D01*
G75*
G02*
X166146999Y-34161500I249999J0D01*
G01*
X166847001Y-34161500D01*
G75*
G02*
X167097000Y-34411499I0J-249999D01*
G01*
X167097000Y-35311501D01*
G75*
G02*
X166847001Y-35561500I-249999J0D01*
G01*
X166146999Y-35561500D01*
G75*
G02*
X165897000Y-35311501I0J249999D01*
G01*
G37*
%TD.AperFunction*%
%TD*%
D11*
%TO.P,R1,2*%
%TO.N,Net-(J1-Pad1)*%
X116776500Y-45021500D03*
D12*
%TO.P,R1,1*%
%TO.N,Net-(R1-Pad1)*%
X116776500Y-37401500D03*
%TD*%
%TO.P,U6,8*%
%TO.N,Net-(R22-Pad2)*%
%TA.AperFunction,SMDPad,CuDef*%
G36*
G01*
X156678500Y-34521000D02*
X156678500Y-34821000D01*
G75*
G02*
X156528500Y-34971000I-150000J0D01*
G01*
X154878500Y-34971000D01*
G75*
G02*
X154728500Y-34821000I0J150000D01*
G01*
X154728500Y-34521000D01*
G75*
G02*
X154878500Y-34371000I150000J0D01*
G01*
X156528500Y-34371000D01*
G75*
G02*
X156678500Y-34521000I0J-150000D01*
G01*
G37*
%TD.AperFunction*%
%TO.P,U6,7*%
%TO.N,Net-(C12-Pad2)*%
%TA.AperFunction,SMDPad,CuDef*%
G36*
G01*
X156678500Y-33251000D02*
X156678500Y-33551000D01*
G75*
G02*
X156528500Y-33701000I-150000J0D01*
G01*
X154878500Y-33701000D01*
G75*
G02*
X154728500Y-33551000I0J150000D01*
G01*
X154728500Y-33251000D01*
G75*
G02*
X154878500Y-33101000I150000J0D01*
G01*
X156528500Y-33101000D01*
G75*
G02*
X156678500Y-33251000I0J-150000D01*
G01*
G37*
%TD.AperFunction*%
%TO.P,U6,6*%
%TO.N,GND*%
%TA.AperFunction,SMDPad,CuDef*%
G36*
G01*
X156678500Y-31981000D02*
X156678500Y-32281000D01*
G75*
G02*
X156528500Y-32431000I-150000J0D01*
G01*
X154878500Y-32431000D01*
G75*
G02*
X154728500Y-32281000I0J150000D01*
G01*
X154728500Y-31981000D01*
G75*
G02*
X154878500Y-31831000I150000J0D01*
G01*
X156528500Y-31831000D01*
G75*
G02*
X156678500Y-31981000I0J-150000D01*
G01*
G37*
%TD.AperFunction*%
%TO.P,U6,5*%
%TO.N,Net-(C12-Pad1)*%
%TA.AperFunction,SMDPad,CuDef*%
G36*
G01*
X156678500Y-30711000D02*
X156678500Y-31011000D01*
G75*
G02*
X156528500Y-31161000I-150000J0D01*
G01*
X154878500Y-31161000D01*
G75*
G02*
X154728500Y-31011000I0J150000D01*
G01*
X154728500Y-30711000D01*
G75*
G02*
X154878500Y-30561000I150000J0D01*
G01*
X156528500Y-30561000D01*
G75*
G02*
X156678500Y-30711000I0J-150000D01*
G01*
G37*
%TD.AperFunction*%
%TO.P,U6,4*%
%TO.N,GND*%
%TA.AperFunction,SMDPad,CuDef*%
G36*
G01*
X161628500Y-30711000D02*
X161628500Y-31011000D01*
G75*
G02*
X161478500Y-31161000I-150000J0D01*
G01*
X159828500Y-31161000D01*
G75*
G02*
X159678500Y-31011000I0J150000D01*
G01*
X159678500Y-30711000D01*
G75*
G02*
X159828500Y-30561000I150000J0D01*
G01*
X161478500Y-30561000D01*
G75*
G02*
X161628500Y-30711000I0J-150000D01*
G01*
G37*
%TD.AperFunction*%
%TO.P,U6,3*%
%TO.N,VDD*%
%TA.AperFunction,SMDPad,CuDef*%
G36*
G01*
X161628500Y-31981000D02*
X161628500Y-32281000D01*
G75*
G02*
X161478500Y-32431000I-150000J0D01*
G01*
X159828500Y-32431000D01*
G75*
G02*
X159678500Y-32281000I0J150000D01*
G01*
X159678500Y-31981000D01*
G75*
G02*
X159828500Y-31831000I150000J0D01*
G01*
X161478500Y-31831000D01*
G75*
G02*
X161628500Y-31981000I0J-150000D01*
G01*
G37*
%TD.AperFunction*%
%TO.P,U6,2*%
%TO.N,Net-(R15-Pad2)*%
%TA.AperFunction,SMDPad,CuDef*%
G36*
G01*
X161628500Y-33251000D02*
X161628500Y-33551000D01*
G75*
G02*
X161478500Y-33701000I-150000J0D01*
G01*
X159828500Y-33701000D01*
G75*
G02*
X159678500Y-33551000I0J150000D01*
G01*
X159678500Y-33251000D01*
G75*
G02*
X159828500Y-33101000I150000J0D01*
G01*
X161478500Y-33101000D01*
G75*
G02*
X161628500Y-33251000I0J-150000D01*
G01*
G37*
%TD.AperFunction*%
%TO.P,U6,1*%
%TO.N,+9V*%
%TA.AperFunction,SMDPad,CuDef*%
G36*
G01*
X161628500Y-34521000D02*
X161628500Y-34821000D01*
G75*
G02*
X161478500Y-34971000I-150000J0D01*
G01*
X159828500Y-34971000D01*
G75*
G02*
X159678500Y-34821000I0J150000D01*
G01*
X159678500Y-34521000D01*
G75*
G02*
X159828500Y-34371000I150000J0D01*
G01*
X161478500Y-34371000D01*
G75*
G02*
X161628500Y-34521000I0J-150000D01*
G01*
G37*
%TD.AperFunction*%
%TD*%
%TO.P,U5,8*%
%TO.N,+15V*%
%TA.AperFunction,SMDPad,CuDef*%
G36*
G01*
X159551500Y-44473000D02*
X159551500Y-44173000D01*
G75*
G02*
X159701500Y-44023000I150000J0D01*
G01*
X161351500Y-44023000D01*
G75*
G02*
X161501500Y-44173000I0J-150000D01*
G01*
X161501500Y-44473000D01*
G75*
G02*
X161351500Y-44623000I-150000J0D01*
G01*
X159701500Y-44623000D01*
G75*
G02*
X159551500Y-44473000I0J150000D01*
G01*
G37*
%TD.AperFunction*%
%TO.P,U5,7*%
%TO.N,Net-(R14-Pad2)*%
%TA.AperFunction,SMDPad,CuDef*%
G36*
G01*
X159551500Y-45743000D02*
X159551500Y-45443000D01*
G75*
G02*
X159701500Y-45293000I150000J0D01*
G01*
X161351500Y-45293000D01*
G75*
G02*
X161501500Y-45443000I0J-150000D01*
G01*
X161501500Y-45743000D01*
G75*
G02*
X161351500Y-45893000I-150000J0D01*
G01*
X159701500Y-45893000D01*
G75*
G02*
X159551500Y-45743000I0J150000D01*
G01*
G37*
%TD.AperFunction*%
%TO.P,U5,6*%
%TO.N,Net-(R13-Pad2)*%
%TA.AperFunction,SMDPad,CuDef*%
G36*
G01*
X159551500Y-47013000D02*
X159551500Y-46713000D01*
G75*
G02*
X159701500Y-46563000I150000J0D01*
G01*
X161351500Y-46563000D01*
G75*
G02*
X161501500Y-46713000I0J-150000D01*
G01*
X161501500Y-47013000D01*
G75*
G02*
X161351500Y-47163000I-150000J0D01*
G01*
X159701500Y-47163000D01*
G75*
G02*
X159551500Y-47013000I0J150000D01*
G01*
G37*
%TD.AperFunction*%
%TO.P,U5,5*%
%TO.N,GND*%
%TA.AperFunction,SMDPad,CuDef*%
G36*
G01*
X159551500Y-48283000D02*
X159551500Y-47983000D01*
G75*
G02*
X159701500Y-47833000I150000J0D01*
G01*
X161351500Y-47833000D01*
G75*
G02*
X161501500Y-47983000I0J-150000D01*
G01*
X161501500Y-48283000D01*
G75*
G02*
X161351500Y-48433000I-150000J0D01*
G01*
X159701500Y-48433000D01*
G75*
G02*
X159551500Y-48283000I0J150000D01*
G01*
G37*
%TD.AperFunction*%
%TO.P,U5,4*%
%TO.N,-15V*%
%TA.AperFunction,SMDPad,CuDef*%
G36*
G01*
X154601500Y-48283000D02*
X154601500Y-47983000D01*
G75*
G02*
X154751500Y-47833000I150000J0D01*
G01*
X156401500Y-47833000D01*
G75*
G02*
X156551500Y-47983000I0J-150000D01*
G01*
X156551500Y-48283000D01*
G75*
G02*
X156401500Y-48433000I-150000J0D01*
G01*
X154751500Y-48433000D01*
G75*
G02*
X154601500Y-48283000I0J150000D01*
G01*
G37*
%TD.AperFunction*%
%TO.P,U5,3*%
%TO.N,GND*%
%TA.AperFunction,SMDPad,CuDef*%
G36*
G01*
X154601500Y-47013000D02*
X154601500Y-46713000D01*
G75*
G02*
X154751500Y-46563000I150000J0D01*
G01*
X156401500Y-46563000D01*
G75*
G02*
X156551500Y-46713000I0J-150000D01*
G01*
X156551500Y-47013000D01*
G75*
G02*
X156401500Y-47163000I-150000J0D01*
G01*
X154751500Y-47163000D01*
G75*
G02*
X154601500Y-47013000I0J150000D01*
G01*
G37*
%TD.AperFunction*%
%TO.P,U5,2*%
%TO.N,Net-(R10-Pad2)*%
%TA.AperFunction,SMDPad,CuDef*%
G36*
G01*
X154601500Y-45743000D02*
X154601500Y-45443000D01*
G75*
G02*
X154751500Y-45293000I150000J0D01*
G01*
X156401500Y-45293000D01*
G75*
G02*
X156551500Y-45443000I0J-150000D01*
G01*
X156551500Y-45743000D01*
G75*
G02*
X156401500Y-45893000I-150000J0D01*
G01*
X154751500Y-45893000D01*
G75*
G02*
X154601500Y-45743000I0J150000D01*
G01*
G37*
%TD.AperFunction*%
%TO.P,U5,1*%
%TO.N,Net-(R11-Pad2)*%
%TA.AperFunction,SMDPad,CuDef*%
G36*
G01*
X154601500Y-44473000D02*
X154601500Y-44173000D01*
G75*
G02*
X154751500Y-44023000I150000J0D01*
G01*
X156401500Y-44023000D01*
G75*
G02*
X156551500Y-44173000I0J-150000D01*
G01*
X156551500Y-44473000D01*
G75*
G02*
X156401500Y-44623000I-150000J0D01*
G01*
X154751500Y-44623000D01*
G75*
G02*
X154601500Y-44473000I0J150000D01*
G01*
G37*
%TD.AperFunction*%
%TD*%
D15*
%TO.P,U4,1*%
%TO.N,+9V*%
X117792500Y-51943000D03*
D16*
%TO.P,U4,3*%
%TO.N,Net-(J3-Pad1)*%
X117792500Y-54483000D03*
%TO.P,U4,2*%
%TO.N,GND*%
X117792500Y-53213000D03*
%TD*%
D15*
%TO.P,U2,1*%
%TO.N,GND*%
X117792500Y-64579500D03*
D16*
%TO.P,U2,3*%
%TO.N,-15V*%
X117792500Y-67119500D03*
%TO.P,U2,2*%
%TO.N,Net-(J3-Pad3)*%
X117792500Y-65849500D03*
%TD*%
D15*
%TO.P,U1,1*%
%TO.N,+15V*%
X117792500Y-58483500D03*
D16*
%TO.P,U1,3*%
%TO.N,Net-(J3-Pad1)*%
X117792500Y-61023500D03*
%TO.P,U1,2*%
%TO.N,GND*%
X117792500Y-59753500D03*
%TD*%
D17*
%TO.P,VDD,1*%
%TO.N,VDD*%
X129349500Y-55372000D03*
%TD*%
%TO.P,+9,1*%
%TO.N,+9V*%
X137922000Y-55372000D03*
%TD*%
D18*
%TO.P,GND,1*%
%TO.N,GND*%
X108839000Y-19494500D03*
%TD*%
D17*
%TO.P,+5,1*%
%TO.N,+5V*%
X160337500Y-55943500D03*
%TD*%
%TO.P,-15,1*%
%TO.N,-15V*%
X167132000Y-55897001D03*
%TD*%
%TO.P,+15,1*%
%TO.N,+15V*%
X145732500Y-55435500D03*
%TD*%
D19*
%TO.P,RV2,3*%
%TO.N,Net-(C12-Pad1)*%
X151447500Y-22288500D03*
D20*
%TO.P,RV2,2*%
%TO.N,GND*%
X154347500Y-21038500D03*
D19*
%TO.P,RV2,1*%
X151447500Y-19788500D03*
%TD*%
%TO.P,R14,2*%
%TO.N,Net-(R14-Pad2)*%
%TA.AperFunction,SMDPad,CuDef*%
G36*
G01*
X164026001Y-46082000D02*
X163125999Y-46082000D01*
G75*
G02*
X162876000Y-45832001I0J249999D01*
G01*
X162876000Y-45131999D01*
G75*
G02*
X163125999Y-44882000I249999J0D01*
G01*
X164026001Y-44882000D01*
G75*
G02*
X164276000Y-45131999I0J-249999D01*
G01*
X164276000Y-45832001D01*
G75*
G02*
X164026001Y-46082000I-249999J0D01*
G01*
G37*
%TD.AperFunction*%
%TO.P,R14,1*%
%TO.N,Net-(R13-Pad2)*%
%TA.AperFunction,SMDPad,CuDef*%
G36*
G01*
X164026001Y-48082000D02*
X163125999Y-48082000D01*
G75*
G02*
X162876000Y-47832001I0J249999D01*
G01*
X162876000Y-47131999D01*
G75*
G02*
X163125999Y-46882000I249999J0D01*
G01*
X164026001Y-46882000D01*
G75*
G02*
X164276000Y-47131999I0J-249999D01*
G01*
X164276000Y-47832001D01*
G75*
G02*
X164026001Y-48082000I-249999J0D01*
G01*
G37*
%TD.AperFunction*%
%TD*%
%TO.P,R12,2*%
%TO.N,Net-(R12-Pad2)*%
%TA.AperFunction,SMDPad,CuDef*%
G36*
G01*
X157993501Y-40605000D02*
X157093499Y-40605000D01*
G75*
G02*
X156843500Y-40355001I0J249999D01*
G01*
X156843500Y-39654999D01*
G75*
G02*
X157093499Y-39405000I249999J0D01*
G01*
X157993501Y-39405000D01*
G75*
G02*
X158243500Y-39654999I0J-249999D01*
G01*
X158243500Y-40355001D01*
G75*
G02*
X157993501Y-40605000I-249999J0D01*
G01*
G37*
%TD.AperFunction*%
%TO.P,R12,1*%
%TO.N,Net-(R11-Pad2)*%
%TA.AperFunction,SMDPad,CuDef*%
G36*
G01*
X157993501Y-42605000D02*
X157093499Y-42605000D01*
G75*
G02*
X156843500Y-42355001I0J249999D01*
G01*
X156843500Y-41654999D01*
G75*
G02*
X157093499Y-41405000I249999J0D01*
G01*
X157993501Y-41405000D01*
G75*
G02*
X158243500Y-41654999I0J-249999D01*
G01*
X158243500Y-42355001D01*
G75*
G02*
X157993501Y-42605000I-249999J0D01*
G01*
G37*
%TD.AperFunction*%
%TD*%
D21*
%TO.P,OUT,2*%
%TO.N,GND*%
X163385500Y-22479000D03*
X163385500Y-17399000D03*
X168465500Y-17399000D03*
X168465500Y-22479000D03*
D22*
%TO.P,OUT,1*%
%TO.N,Net-(J4-Pad1)*%
X165925500Y-19939000D03*
%TD*%
D23*
%TO.P,POWER,3*%
%TO.N,Net-(J3-Pad3)*%
X108902500Y-65943500D03*
%TO.P,POWER,2*%
%TO.N,GND*%
X108902500Y-60943500D03*
D17*
%TO.P,POWER,1*%
%TO.N,Net-(J3-Pad1)*%
X108902500Y-55943500D03*
%TD*%
D21*
%TO.P,I-IN,2*%
%TO.N,GND*%
X107886500Y-29019500D03*
X112966500Y-29019500D03*
X112966500Y-34099500D03*
X107886500Y-34099500D03*
D22*
%TO.P,I-IN,1*%
%TO.N,Net-(J2-Pad1)*%
X110426500Y-31559500D03*
%TD*%
D21*
%TO.P,V-IN,2*%
%TO.N,GND*%
X113030000Y-47307500D03*
X107950000Y-47307500D03*
X107950000Y-42227500D03*
X113030000Y-42227500D03*
D22*
%TO.P,V-IN,1*%
%TO.N,Net-(J1-Pad1)*%
X110490000Y-44767500D03*
%TD*%
%TO.P,C12,2*%
%TO.N,Net-(C12-Pad2)*%
%TA.AperFunction,SMDPad,CuDef*%
G36*
G01*
X148642500Y-25194497D02*
X148642500Y-26494503D01*
G75*
G02*
X148392503Y-26744500I-249997J0D01*
G01*
X147567497Y-26744500D01*
G75*
G02*
X147317500Y-26494503I0J249997D01*
G01*
X147317500Y-25194497D01*
G75*
G02*
X147567497Y-24944500I249997J0D01*
G01*
X148392503Y-24944500D01*
G75*
G02*
X148642500Y-25194497I0J-249997D01*
G01*
G37*
%TD.AperFunction*%
%TO.P,C12,1*%
%TO.N,Net-(C12-Pad1)*%
%TA.AperFunction,SMDPad,CuDef*%
G36*
G01*
X151767500Y-25194497D02*
X151767500Y-26494503D01*
G75*
G02*
X151517503Y-26744500I-249997J0D01*
G01*
X150692497Y-26744500D01*
G75*
G02*
X150442500Y-26494503I0J249997D01*
G01*
X150442500Y-25194497D01*
G75*
G02*
X150692497Y-24944500I249997J0D01*
G01*
X151517503Y-24944500D01*
G75*
G02*
X151767500Y-25194497I0J-249997D01*
G01*
G37*
%TD.AperFunction*%
%TD*%
%TO.P,C6,2*%
%TO.N,GND*%
%TA.AperFunction,SMDPad,CuDef*%
G36*
G01*
X140667503Y-61291500D02*
X139367497Y-61291500D01*
G75*
G02*
X139117500Y-61041503I0J249997D01*
G01*
X139117500Y-60216497D01*
G75*
G02*
X139367497Y-59966500I249997J0D01*
G01*
X140667503Y-59966500D01*
G75*
G02*
X140917500Y-60216497I0J-249997D01*
G01*
X140917500Y-61041503D01*
G75*
G02*
X140667503Y-61291500I-249997J0D01*
G01*
G37*
%TD.AperFunction*%
%TO.P,C6,1*%
%TO.N,+9V*%
%TA.AperFunction,SMDPad,CuDef*%
G36*
G01*
X140667503Y-64416500D02*
X139367497Y-64416500D01*
G75*
G02*
X139117500Y-64166503I0J249997D01*
G01*
X139117500Y-63341497D01*
G75*
G02*
X139367497Y-63091500I249997J0D01*
G01*
X140667503Y-63091500D01*
G75*
G02*
X140917500Y-63341497I0J-249997D01*
G01*
X140917500Y-64166503D01*
G75*
G02*
X140667503Y-64416500I-249997J0D01*
G01*
G37*
%TD.AperFunction*%
%TD*%
%TO.P,C4,2*%
%TO.N,-15V*%
%TA.AperFunction,SMDPad,CuDef*%
G36*
G01*
X161114503Y-61520500D02*
X159814497Y-61520500D01*
G75*
G02*
X159564500Y-61270503I0J249997D01*
G01*
X159564500Y-60445497D01*
G75*
G02*
X159814497Y-60195500I249997J0D01*
G01*
X161114503Y-60195500D01*
G75*
G02*
X161364500Y-60445497I0J-249997D01*
G01*
X161364500Y-61270503D01*
G75*
G02*
X161114503Y-61520500I-249997J0D01*
G01*
G37*
%TD.AperFunction*%
%TO.P,C4,1*%
%TO.N,GND*%
%TA.AperFunction,SMDPad,CuDef*%
G36*
G01*
X161114503Y-64645500D02*
X159814497Y-64645500D01*
G75*
G02*
X159564500Y-64395503I0J249997D01*
G01*
X159564500Y-63570497D01*
G75*
G02*
X159814497Y-63320500I249997J0D01*
G01*
X161114503Y-63320500D01*
G75*
G02*
X161364500Y-63570497I0J-249997D01*
G01*
X161364500Y-64395503D01*
G75*
G02*
X161114503Y-64645500I-249997J0D01*
G01*
G37*
%TD.AperFunction*%
%TD*%
%TO.P,C3,2*%
%TO.N,GND*%
%TA.AperFunction,SMDPad,CuDef*%
G36*
G01*
X150891003Y-61330000D02*
X149590997Y-61330000D01*
G75*
G02*
X149341000Y-61080003I0J249997D01*
G01*
X149341000Y-60254997D01*
G75*
G02*
X149590997Y-60005000I249997J0D01*
G01*
X150891003Y-60005000D01*
G75*
G02*
X151141000Y-60254997I0J-249997D01*
G01*
X151141000Y-61080003D01*
G75*
G02*
X150891003Y-61330000I-249997J0D01*
G01*
G37*
%TD.AperFunction*%
%TO.P,C3,1*%
%TO.N,+15V*%
%TA.AperFunction,SMDPad,CuDef*%
G36*
G01*
X150891003Y-64455000D02*
X149590997Y-64455000D01*
G75*
G02*
X149341000Y-64205003I0J249997D01*
G01*
X149341000Y-63379997D01*
G75*
G02*
X149590997Y-63130000I249997J0D01*
G01*
X150891003Y-63130000D01*
G75*
G02*
X151141000Y-63379997I0J-249997D01*
G01*
X151141000Y-64205003D01*
G75*
G02*
X150891003Y-64455000I-249997J0D01*
G01*
G37*
%TD.AperFunction*%
%TD*%
%TA.AperFunction,SMDPad,CuDef*%
D10*
%TO.P,JP2,2*%
%TO.N,+5V*%
G36*
X145732500Y-34366102D02*
G01*
X145757034Y-34366102D01*
X145805865Y-34370912D01*
X145853990Y-34380484D01*
X145900945Y-34394728D01*
X145946278Y-34413505D01*
X145989551Y-34436636D01*
X146030350Y-34463896D01*
X146068279Y-34495024D01*
X146102976Y-34529721D01*
X146134104Y-34567650D01*
X146161364Y-34608449D01*
X146184495Y-34651722D01*
X146203272Y-34697055D01*
X146217516Y-34744010D01*
X146227088Y-34792135D01*
X146231898Y-34840966D01*
X146231898Y-34865500D01*
X146232500Y-34865500D01*
X146232500Y-35365500D01*
X146231898Y-35365500D01*
X146231898Y-35390034D01*
X146227088Y-35438865D01*
X146217516Y-35486990D01*
X146203272Y-35533945D01*
X146184495Y-35579278D01*
X146161364Y-35622551D01*
X146134104Y-35663350D01*
X146102976Y-35701279D01*
X146068279Y-35735976D01*
X146030350Y-35767104D01*
X145989551Y-35794364D01*
X145946278Y-35817495D01*
X145900945Y-35836272D01*
X145853990Y-35850516D01*
X145805865Y-35860088D01*
X145757034Y-35864898D01*
X145732500Y-35864898D01*
X145732500Y-35865500D01*
X145232500Y-35865500D01*
X145232500Y-34365500D01*
X145732500Y-34365500D01*
X145732500Y-34366102D01*
G37*
%TD.AperFunction*%
%TA.AperFunction,SMDPad,CuDef*%
%TO.P,JP2,1*%
%TO.N,Net-(JP1-Pad1)*%
G36*
X144932500Y-35865500D02*
G01*
X144432500Y-35865500D01*
X144432500Y-35864898D01*
X144407966Y-35864898D01*
X144359135Y-35860088D01*
X144311010Y-35850516D01*
X144264055Y-35836272D01*
X144218722Y-35817495D01*
X144175449Y-35794364D01*
X144134650Y-35767104D01*
X144096721Y-35735976D01*
X144062024Y-35701279D01*
X144030896Y-35663350D01*
X144003636Y-35622551D01*
X143980505Y-35579278D01*
X143961728Y-35533945D01*
X143947484Y-35486990D01*
X143937912Y-35438865D01*
X143933102Y-35390034D01*
X143933102Y-35365500D01*
X143932500Y-35365500D01*
X143932500Y-34865500D01*
X143933102Y-34865500D01*
X143933102Y-34840966D01*
X143937912Y-34792135D01*
X143947484Y-34744010D01*
X143961728Y-34697055D01*
X143980505Y-34651722D01*
X144003636Y-34608449D01*
X144030896Y-34567650D01*
X144062024Y-34529721D01*
X144096721Y-34495024D01*
X144134650Y-34463896D01*
X144175449Y-34436636D01*
X144218722Y-34413505D01*
X144264055Y-34394728D01*
X144311010Y-34380484D01*
X144359135Y-34370912D01*
X144407966Y-34366102D01*
X144432500Y-34366102D01*
X144432500Y-34365500D01*
X144932500Y-34365500D01*
X144932500Y-35865500D01*
G37*
%TD.AperFunction*%
%TD*%
%TO.P,R11,2*%
%TO.N,Net-(R11-Pad2)*%
%TA.AperFunction,SMDPad,CuDef*%
G36*
G01*
X152786501Y-44034000D02*
X151886499Y-44034000D01*
G75*
G02*
X151636500Y-43784001I0J249999D01*
G01*
X151636500Y-43083999D01*
G75*
G02*
X151886499Y-42834000I249999J0D01*
G01*
X152786501Y-42834000D01*
G75*
G02*
X153036500Y-43083999I0J-249999D01*
G01*
X153036500Y-43784001D01*
G75*
G02*
X152786501Y-44034000I-249999J0D01*
G01*
G37*
%TD.AperFunction*%
%TO.P,R11,1*%
%TO.N,Net-(R10-Pad2)*%
%TA.AperFunction,SMDPad,CuDef*%
G36*
G01*
X152786501Y-46034000D02*
X151886499Y-46034000D01*
G75*
G02*
X151636500Y-45784001I0J249999D01*
G01*
X151636500Y-45083999D01*
G75*
G02*
X151886499Y-44834000I249999J0D01*
G01*
X152786501Y-44834000D01*
G75*
G02*
X153036500Y-45083999I0J-249999D01*
G01*
X153036500Y-45784001D01*
G75*
G02*
X152786501Y-46034000I-249999J0D01*
G01*
G37*
%TD.AperFunction*%
%TD*%
%TO.P,U3,14*%
%TO.N,+15V*%
%TA.AperFunction,SMDPad,CuDef*%
G36*
G01*
X138215500Y-31074500D02*
X138215500Y-30774500D01*
G75*
G02*
X138365500Y-30624500I150000J0D01*
G01*
X140015500Y-30624500D01*
G75*
G02*
X140165500Y-30774500I0J-150000D01*
G01*
X140165500Y-31074500D01*
G75*
G02*
X140015500Y-31224500I-150000J0D01*
G01*
X138365500Y-31224500D01*
G75*
G02*
X138215500Y-31074500I0J150000D01*
G01*
G37*
%TD.AperFunction*%
%TO.P,U3,13*%
%TO.N,GND*%
%TA.AperFunction,SMDPad,CuDef*%
G36*
G01*
X138215500Y-32344500D02*
X138215500Y-32044500D01*
G75*
G02*
X138365500Y-31894500I150000J0D01*
G01*
X140015500Y-31894500D01*
G75*
G02*
X140165500Y-32044500I0J-150000D01*
G01*
X140165500Y-32344500D01*
G75*
G02*
X140015500Y-32494500I-150000J0D01*
G01*
X138365500Y-32494500D01*
G75*
G02*
X138215500Y-32344500I0J150000D01*
G01*
G37*
%TD.AperFunction*%
%TO.P,U3,12*%
%TO.N,Net-(R7-Pad1)*%
%TA.AperFunction,SMDPad,CuDef*%
G36*
G01*
X138215500Y-33614500D02*
X138215500Y-33314500D01*
G75*
G02*
X138365500Y-33164500I150000J0D01*
G01*
X140015500Y-33164500D01*
G75*
G02*
X140165500Y-33314500I0J-150000D01*
G01*
X140165500Y-33614500D01*
G75*
G02*
X140015500Y-33764500I-150000J0D01*
G01*
X138365500Y-33764500D01*
G75*
G02*
X138215500Y-33614500I0J150000D01*
G01*
G37*
%TD.AperFunction*%
%TO.P,U3,11*%
%TO.N,Net-(JP1-Pad1)*%
%TA.AperFunction,SMDPad,CuDef*%
G36*
G01*
X138215500Y-34884500D02*
X138215500Y-34584500D01*
G75*
G02*
X138365500Y-34434500I150000J0D01*
G01*
X140015500Y-34434500D01*
G75*
G02*
X140165500Y-34584500I0J-150000D01*
G01*
X140165500Y-34884500D01*
G75*
G02*
X140015500Y-35034500I-150000J0D01*
G01*
X138365500Y-35034500D01*
G75*
G02*
X138215500Y-34884500I0J150000D01*
G01*
G37*
%TD.AperFunction*%
%TO.P,U3,10*%
%TO.N,Net-(R20-Pad2)*%
%TA.AperFunction,SMDPad,CuDef*%
G36*
G01*
X138215500Y-36154500D02*
X138215500Y-35854500D01*
G75*
G02*
X138365500Y-35704500I150000J0D01*
G01*
X140015500Y-35704500D01*
G75*
G02*
X140165500Y-35854500I0J-150000D01*
G01*
X140165500Y-36154500D01*
G75*
G02*
X140015500Y-36304500I-150000J0D01*
G01*
X138365500Y-36304500D01*
G75*
G02*
X138215500Y-36154500I0J150000D01*
G01*
G37*
%TD.AperFunction*%
%TO.P,U3,9*%
%TO.N,-15V*%
%TA.AperFunction,SMDPad,CuDef*%
G36*
G01*
X138215500Y-37424500D02*
X138215500Y-37124500D01*
G75*
G02*
X138365500Y-36974500I150000J0D01*
G01*
X140015500Y-36974500D01*
G75*
G02*
X140165500Y-37124500I0J-150000D01*
G01*
X140165500Y-37424500D01*
G75*
G02*
X140015500Y-37574500I-150000J0D01*
G01*
X138365500Y-37574500D01*
G75*
G02*
X138215500Y-37424500I0J150000D01*
G01*
G37*
%TD.AperFunction*%
%TO.P,U3,8*%
%TO.N,GND*%
%TA.AperFunction,SMDPad,CuDef*%
G36*
G01*
X138215500Y-38694500D02*
X138215500Y-38394500D01*
G75*
G02*
X138365500Y-38244500I150000J0D01*
G01*
X140015500Y-38244500D01*
G75*
G02*
X140165500Y-38394500I0J-150000D01*
G01*
X140165500Y-38694500D01*
G75*
G02*
X140015500Y-38844500I-150000J0D01*
G01*
X138365500Y-38844500D01*
G75*
G02*
X138215500Y-38694500I0J150000D01*
G01*
G37*
%TD.AperFunction*%
%TO.P,U3,7*%
%TA.AperFunction,SMDPad,CuDef*%
G36*
G01*
X133265500Y-38694500D02*
X133265500Y-38394500D01*
G75*
G02*
X133415500Y-38244500I150000J0D01*
G01*
X135065500Y-38244500D01*
G75*
G02*
X135215500Y-38394500I0J-150000D01*
G01*
X135215500Y-38694500D01*
G75*
G02*
X135065500Y-38844500I-150000J0D01*
G01*
X133415500Y-38844500D01*
G75*
G02*
X133265500Y-38694500I0J150000D01*
G01*
G37*
%TD.AperFunction*%
%TO.P,U3,6*%
%TO.N,Net-(U3-Pad6)*%
%TA.AperFunction,SMDPad,CuDef*%
G36*
G01*
X133265500Y-37424500D02*
X133265500Y-37124500D01*
G75*
G02*
X133415500Y-36974500I150000J0D01*
G01*
X135065500Y-36974500D01*
G75*
G02*
X135215500Y-37124500I0J-150000D01*
G01*
X135215500Y-37424500D01*
G75*
G02*
X135065500Y-37574500I-150000J0D01*
G01*
X133415500Y-37574500D01*
G75*
G02*
X133265500Y-37424500I0J150000D01*
G01*
G37*
%TD.AperFunction*%
%TO.P,U3,5*%
%TO.N,Net-(U3-Pad5)*%
%TA.AperFunction,SMDPad,CuDef*%
G36*
G01*
X133265500Y-36154500D02*
X133265500Y-35854500D01*
G75*
G02*
X133415500Y-35704500I150000J0D01*
G01*
X135065500Y-35704500D01*
G75*
G02*
X135215500Y-35854500I0J-150000D01*
G01*
X135215500Y-36154500D01*
G75*
G02*
X135065500Y-36304500I-150000J0D01*
G01*
X133415500Y-36304500D01*
G75*
G02*
X133265500Y-36154500I0J150000D01*
G01*
G37*
%TD.AperFunction*%
%TO.P,U3,4*%
%TO.N,Net-(U3-Pad4)*%
%TA.AperFunction,SMDPad,CuDef*%
G36*
G01*
X133265500Y-34884500D02*
X133265500Y-34584500D01*
G75*
G02*
X133415500Y-34434500I150000J0D01*
G01*
X135065500Y-34434500D01*
G75*
G02*
X135215500Y-34584500I0J-150000D01*
G01*
X135215500Y-34884500D01*
G75*
G02*
X135065500Y-35034500I-150000J0D01*
G01*
X133415500Y-35034500D01*
G75*
G02*
X133265500Y-34884500I0J150000D01*
G01*
G37*
%TD.AperFunction*%
%TO.P,U3,3*%
%TO.N,Net-(JP2-Pad2)*%
%TA.AperFunction,SMDPad,CuDef*%
G36*
G01*
X133265500Y-33614500D02*
X133265500Y-33314500D01*
G75*
G02*
X133415500Y-33164500I150000J0D01*
G01*
X135065500Y-33164500D01*
G75*
G02*
X135215500Y-33314500I0J-150000D01*
G01*
X135215500Y-33614500D01*
G75*
G02*
X135065500Y-33764500I-150000J0D01*
G01*
X133415500Y-33764500D01*
G75*
G02*
X133265500Y-33614500I0J150000D01*
G01*
G37*
%TD.AperFunction*%
%TO.P,U3,2*%
%TO.N,GND*%
%TA.AperFunction,SMDPad,CuDef*%
G36*
G01*
X133265500Y-32344500D02*
X133265500Y-32044500D01*
G75*
G02*
X133415500Y-31894500I150000J0D01*
G01*
X135065500Y-31894500D01*
G75*
G02*
X135215500Y-32044500I0J-150000D01*
G01*
X135215500Y-32344500D01*
G75*
G02*
X135065500Y-32494500I-150000J0D01*
G01*
X133415500Y-32494500D01*
G75*
G02*
X133265500Y-32344500I0J150000D01*
G01*
G37*
%TD.AperFunction*%
%TO.P,U3,1*%
%TA.AperFunction,SMDPad,CuDef*%
G36*
G01*
X133265500Y-31074500D02*
X133265500Y-30774500D01*
G75*
G02*
X133415500Y-30624500I150000J0D01*
G01*
X135065500Y-30624500D01*
G75*
G02*
X135215500Y-30774500I0J-150000D01*
G01*
X135215500Y-31074500D01*
G75*
G02*
X135065500Y-31224500I-150000J0D01*
G01*
X133415500Y-31224500D01*
G75*
G02*
X133265500Y-31074500I0J150000D01*
G01*
G37*
%TD.AperFunction*%
%TD*%
%TO.P,C7,2*%
%TO.N,GND*%
%TA.AperFunction,SMDPad,CuDef*%
G36*
G01*
X134027000Y-62165000D02*
X132927000Y-62165000D01*
G75*
G02*
X132677000Y-61915000I0J250000D01*
G01*
X132677000Y-59415000D01*
G75*
G02*
X132927000Y-59165000I250000J0D01*
G01*
X134027000Y-59165000D01*
G75*
G02*
X134277000Y-59415000I0J-250000D01*
G01*
X134277000Y-61915000D01*
G75*
G02*
X134027000Y-62165000I-250000J0D01*
G01*
G37*
%TD.AperFunction*%
%TO.P,C7,1*%
%TO.N,VDD*%
%TA.AperFunction,SMDPad,CuDef*%
G36*
G01*
X134027000Y-66565000D02*
X132927000Y-66565000D01*
G75*
G02*
X132677000Y-66315000I0J250000D01*
G01*
X132677000Y-63815000D01*
G75*
G02*
X132927000Y-63565000I250000J0D01*
G01*
X134027000Y-63565000D01*
G75*
G02*
X134277000Y-63815000I0J-250000D01*
G01*
X134277000Y-66315000D01*
G75*
G02*
X134027000Y-66565000I-250000J0D01*
G01*
G37*
%TD.AperFunction*%
%TD*%
D24*
%TO.P,SW1,*%
%TO.N,*%
X121856500Y-31424000D03*
X121856500Y-39624000D03*
D25*
%TO.P,SW1,3*%
%TO.N,Net-(J2-Pad1)*%
X121856500Y-33524000D03*
%TO.P,SW1,2*%
%TO.N,Net-(Q1-Pad2)*%
X121856500Y-35524000D03*
D26*
%TO.P,SW1,1*%
%TO.N,Net-(R1-Pad1)*%
X121856500Y-37524000D03*
%TD*%
D27*
%TO.P,RV1,3*%
%TO.N,VDD*%
X127869000Y-63553000D03*
D28*
%TO.P,RV1,2*%
%TO.N,GND*%
X126619000Y-60653000D03*
D27*
%TO.P,RV1,1*%
X125369000Y-63553000D03*
%TD*%
%TO.P,R17,2*%
%TO.N,Net-(J4-Pad1)*%
%TA.AperFunction,SMDPad,CuDef*%
G36*
G01*
X159785000Y-20389001D02*
X159785000Y-19488999D01*
G75*
G02*
X160034999Y-19239000I249999J0D01*
G01*
X160735001Y-19239000D01*
G75*
G02*
X160985000Y-19488999I0J-249999D01*
G01*
X160985000Y-20389001D01*
G75*
G02*
X160735001Y-20639000I-249999J0D01*
G01*
X160034999Y-20639000D01*
G75*
G02*
X159785000Y-20389001I0J249999D01*
G01*
G37*
%TD.AperFunction*%
%TO.P,R17,1*%
%TO.N,Net-(C12-Pad2)*%
%TA.AperFunction,SMDPad,CuDef*%
G36*
G01*
X157785000Y-20389001D02*
X157785000Y-19488999D01*
G75*
G02*
X158034999Y-19239000I249999J0D01*
G01*
X158735001Y-19239000D01*
G75*
G02*
X158985000Y-19488999I0J-249999D01*
G01*
X158985000Y-20389001D01*
G75*
G02*
X158735001Y-20639000I-249999J0D01*
G01*
X158034999Y-20639000D01*
G75*
G02*
X157785000Y-20389001I0J249999D01*
G01*
G37*
%TD.AperFunction*%
%TD*%
%TO.P,R16,2*%
%TO.N,GND*%
%TA.AperFunction,SMDPad,CuDef*%
G36*
G01*
X148214501Y-20412000D02*
X147314499Y-20412000D01*
G75*
G02*
X147064500Y-20162001I0J249999D01*
G01*
X147064500Y-19461999D01*
G75*
G02*
X147314499Y-19212000I249999J0D01*
G01*
X148214501Y-19212000D01*
G75*
G02*
X148464500Y-19461999I0J-249999D01*
G01*
X148464500Y-20162001D01*
G75*
G02*
X148214501Y-20412000I-249999J0D01*
G01*
G37*
%TD.AperFunction*%
%TO.P,R16,1*%
%TO.N,Net-(C12-Pad1)*%
%TA.AperFunction,SMDPad,CuDef*%
G36*
G01*
X148214501Y-22412000D02*
X147314499Y-22412000D01*
G75*
G02*
X147064500Y-22162001I0J249999D01*
G01*
X147064500Y-21461999D01*
G75*
G02*
X147314499Y-21212000I249999J0D01*
G01*
X148214501Y-21212000D01*
G75*
G02*
X148464500Y-21461999I0J-249999D01*
G01*
X148464500Y-22162001D01*
G75*
G02*
X148214501Y-22412000I-249999J0D01*
G01*
G37*
%TD.AperFunction*%
%TD*%
%TO.P,R15,2*%
%TO.N,Net-(R15-Pad2)*%
%TA.AperFunction,SMDPad,CuDef*%
G36*
G01*
X164153001Y-35414000D02*
X163252999Y-35414000D01*
G75*
G02*
X163003000Y-35164001I0J249999D01*
G01*
X163003000Y-34463999D01*
G75*
G02*
X163252999Y-34214000I249999J0D01*
G01*
X164153001Y-34214000D01*
G75*
G02*
X164403000Y-34463999I0J-249999D01*
G01*
X164403000Y-35164001D01*
G75*
G02*
X164153001Y-35414000I-249999J0D01*
G01*
G37*
%TD.AperFunction*%
%TO.P,R15,1*%
%TO.N,Net-(R14-Pad2)*%
%TA.AperFunction,SMDPad,CuDef*%
G36*
G01*
X164153001Y-37414000D02*
X163252999Y-37414000D01*
G75*
G02*
X163003000Y-37164001I0J249999D01*
G01*
X163003000Y-36463999D01*
G75*
G02*
X163252999Y-36214000I249999J0D01*
G01*
X164153001Y-36214000D01*
G75*
G02*
X164403000Y-36463999I0J-249999D01*
G01*
X164403000Y-37164001D01*
G75*
G02*
X164153001Y-37414000I-249999J0D01*
G01*
G37*
%TD.AperFunction*%
%TD*%
%TO.P,R13,2*%
%TO.N,Net-(R13-Pad2)*%
%TA.AperFunction,SMDPad,CuDef*%
G36*
G01*
X159569999Y-41373500D02*
X160470001Y-41373500D01*
G75*
G02*
X160720000Y-41623499I0J-249999D01*
G01*
X160720000Y-42323501D01*
G75*
G02*
X160470001Y-42573500I-249999J0D01*
G01*
X159569999Y-42573500D01*
G75*
G02*
X159320000Y-42323501I0J249999D01*
G01*
X159320000Y-41623499D01*
G75*
G02*
X159569999Y-41373500I249999J0D01*
G01*
G37*
%TD.AperFunction*%
%TO.P,R13,1*%
%TO.N,Net-(R12-Pad2)*%
%TA.AperFunction,SMDPad,CuDef*%
G36*
G01*
X159569999Y-39373500D02*
X160470001Y-39373500D01*
G75*
G02*
X160720000Y-39623499I0J-249999D01*
G01*
X160720000Y-40323501D01*
G75*
G02*
X160470001Y-40573500I-249999J0D01*
G01*
X159569999Y-40573500D01*
G75*
G02*
X159320000Y-40323501I0J249999D01*
G01*
X159320000Y-39623499D01*
G75*
G02*
X159569999Y-39373500I249999J0D01*
G01*
G37*
%TD.AperFunction*%
%TD*%
%TO.P,R10,2*%
%TO.N,Net-(R10-Pad2)*%
%TA.AperFunction,SMDPad,CuDef*%
G36*
G01*
X149371000Y-46344501D02*
X149371000Y-45444499D01*
G75*
G02*
X149620999Y-45194500I249999J0D01*
G01*
X150321001Y-45194500D01*
G75*
G02*
X150571000Y-45444499I0J-249999D01*
G01*
X150571000Y-46344501D01*
G75*
G02*
X150321001Y-46594500I-249999J0D01*
G01*
X149620999Y-46594500D01*
G75*
G02*
X149371000Y-46344501I0J249999D01*
G01*
G37*
%TD.AperFunction*%
%TO.P,R10,1*%
%TO.N,Net-(R10-Pad1)*%
%TA.AperFunction,SMDPad,CuDef*%
G36*
G01*
X147371000Y-46344501D02*
X147371000Y-45444499D01*
G75*
G02*
X147620999Y-45194500I249999J0D01*
G01*
X148321001Y-45194500D01*
G75*
G02*
X148571000Y-45444499I0J-249999D01*
G01*
X148571000Y-46344501D01*
G75*
G02*
X148321001Y-46594500I-249999J0D01*
G01*
X147620999Y-46594500D01*
G75*
G02*
X147371000Y-46344501I0J249999D01*
G01*
G37*
%TD.AperFunction*%
%TD*%
%TO.P,R9,2*%
%TO.N,+9V*%
%TA.AperFunction,SMDPad,CuDef*%
G36*
G01*
X139227000Y-66680501D02*
X139227000Y-65780499D01*
G75*
G02*
X139476999Y-65530500I249999J0D01*
G01*
X140177001Y-65530500D01*
G75*
G02*
X140427000Y-65780499I0J-249999D01*
G01*
X140427000Y-66680501D01*
G75*
G02*
X140177001Y-66930500I-249999J0D01*
G01*
X139476999Y-66930500D01*
G75*
G02*
X139227000Y-66680501I0J249999D01*
G01*
G37*
%TD.AperFunction*%
%TO.P,R9,1*%
%TO.N,VDD*%
%TA.AperFunction,SMDPad,CuDef*%
G36*
G01*
X137227000Y-66680501D02*
X137227000Y-65780499D01*
G75*
G02*
X137476999Y-65530500I249999J0D01*
G01*
X138177001Y-65530500D01*
G75*
G02*
X138427000Y-65780499I0J-249999D01*
G01*
X138427000Y-66680501D01*
G75*
G02*
X138177001Y-66930500I-249999J0D01*
G01*
X137476999Y-66930500D01*
G75*
G02*
X137227000Y-66680501I0J249999D01*
G01*
G37*
%TD.AperFunction*%
%TD*%
%TO.P,R8,2*%
%TO.N,Net-(R10-Pad1)*%
%TA.AperFunction,SMDPad,CuDef*%
G36*
G01*
X149371000Y-43963501D02*
X149371000Y-43063499D01*
G75*
G02*
X149620999Y-42813500I249999J0D01*
G01*
X150321001Y-42813500D01*
G75*
G02*
X150571000Y-43063499I0J-249999D01*
G01*
X150571000Y-43963501D01*
G75*
G02*
X150321001Y-44213500I-249999J0D01*
G01*
X149620999Y-44213500D01*
G75*
G02*
X149371000Y-43963501I0J249999D01*
G01*
G37*
%TD.AperFunction*%
%TO.P,R8,1*%
%TO.N,Net-(R20-Pad2)*%
%TA.AperFunction,SMDPad,CuDef*%
G36*
G01*
X147371000Y-43963501D02*
X147371000Y-43063499D01*
G75*
G02*
X147620999Y-42813500I249999J0D01*
G01*
X148321001Y-42813500D01*
G75*
G02*
X148571000Y-43063499I0J-249999D01*
G01*
X148571000Y-43963501D01*
G75*
G02*
X148321001Y-44213500I-249999J0D01*
G01*
X147620999Y-44213500D01*
G75*
G02*
X147371000Y-43963501I0J249999D01*
G01*
G37*
%TD.AperFunction*%
%TD*%
%TO.P,R7,2*%
%TO.N,Net-(R22-Pad2)*%
%TA.AperFunction,SMDPad,CuDef*%
G36*
G01*
X149387000Y-34740001D02*
X149387000Y-33839999D01*
G75*
G02*
X149636999Y-33590000I249999J0D01*
G01*
X150337001Y-33590000D01*
G75*
G02*
X150587000Y-33839999I0J-249999D01*
G01*
X150587000Y-34740001D01*
G75*
G02*
X150337001Y-34990000I-249999J0D01*
G01*
X149636999Y-34990000D01*
G75*
G02*
X149387000Y-34740001I0J249999D01*
G01*
G37*
%TD.AperFunction*%
%TO.P,R7,1*%
%TO.N,Net-(R7-Pad1)*%
%TA.AperFunction,SMDPad,CuDef*%
G36*
G01*
X147387000Y-34740001D02*
X147387000Y-33839999D01*
G75*
G02*
X147636999Y-33590000I249999J0D01*
G01*
X148337001Y-33590000D01*
G75*
G02*
X148587000Y-33839999I0J-249999D01*
G01*
X148587000Y-34740001D01*
G75*
G02*
X148337001Y-34990000I-249999J0D01*
G01*
X147636999Y-34990000D01*
G75*
G02*
X147387000Y-34740001I0J249999D01*
G01*
G37*
%TD.AperFunction*%
%TD*%
%TO.P,R6,2*%
%TO.N,GND*%
%TA.AperFunction,SMDPad,CuDef*%
G36*
G01*
X155453501Y-55559500D02*
X154553499Y-55559500D01*
G75*
G02*
X154303500Y-55309501I0J249999D01*
G01*
X154303500Y-54609499D01*
G75*
G02*
X154553499Y-54359500I249999J0D01*
G01*
X155453501Y-54359500D01*
G75*
G02*
X155703500Y-54609499I0J-249999D01*
G01*
X155703500Y-55309501D01*
G75*
G02*
X155453501Y-55559500I-249999J0D01*
G01*
G37*
%TD.AperFunction*%
%TO.P,R6,1*%
%TO.N,+5V*%
%TA.AperFunction,SMDPad,CuDef*%
G36*
G01*
X155453501Y-57559500D02*
X154553499Y-57559500D01*
G75*
G02*
X154303500Y-57309501I0J249999D01*
G01*
X154303500Y-56609499D01*
G75*
G02*
X154553499Y-56359500I249999J0D01*
G01*
X155453501Y-56359500D01*
G75*
G02*
X155703500Y-56609499I0J-249999D01*
G01*
X155703500Y-57309501D01*
G75*
G02*
X155453501Y-57559500I-249999J0D01*
G01*
G37*
%TD.AperFunction*%
%TD*%
%TO.P,R5,2*%
%TO.N,+5V*%
%TA.AperFunction,SMDPad,CuDef*%
G36*
G01*
X152013499Y-56327500D02*
X152913501Y-56327500D01*
G75*
G02*
X153163500Y-56577499I0J-249999D01*
G01*
X153163500Y-57277501D01*
G75*
G02*
X152913501Y-57527500I-249999J0D01*
G01*
X152013499Y-57527500D01*
G75*
G02*
X151763500Y-57277501I0J249999D01*
G01*
X151763500Y-56577499D01*
G75*
G02*
X152013499Y-56327500I249999J0D01*
G01*
G37*
%TD.AperFunction*%
%TO.P,R5,1*%
%TO.N,Net-(R4-Pad2)*%
%TA.AperFunction,SMDPad,CuDef*%
G36*
G01*
X152013499Y-54327500D02*
X152913501Y-54327500D01*
G75*
G02*
X153163500Y-54577499I0J-249999D01*
G01*
X153163500Y-55277501D01*
G75*
G02*
X152913501Y-55527500I-249999J0D01*
G01*
X152013499Y-55527500D01*
G75*
G02*
X151763500Y-55277501I0J249999D01*
G01*
X151763500Y-54577499D01*
G75*
G02*
X152013499Y-54327500I249999J0D01*
G01*
G37*
%TD.AperFunction*%
%TD*%
%TO.P,R4,2*%
%TO.N,Net-(R4-Pad2)*%
%TA.AperFunction,SMDPad,CuDef*%
G36*
G01*
X150500501Y-55543500D02*
X149600499Y-55543500D01*
G75*
G02*
X149350500Y-55293501I0J249999D01*
G01*
X149350500Y-54593499D01*
G75*
G02*
X149600499Y-54343500I249999J0D01*
G01*
X150500501Y-54343500D01*
G75*
G02*
X150750500Y-54593499I0J-249999D01*
G01*
X150750500Y-55293501D01*
G75*
G02*
X150500501Y-55543500I-249999J0D01*
G01*
G37*
%TD.AperFunction*%
%TO.P,R4,1*%
%TO.N,+15V*%
%TA.AperFunction,SMDPad,CuDef*%
G36*
G01*
X150500501Y-57543500D02*
X149600499Y-57543500D01*
G75*
G02*
X149350500Y-57293501I0J249999D01*
G01*
X149350500Y-56593499D01*
G75*
G02*
X149600499Y-56343500I249999J0D01*
G01*
X150500501Y-56343500D01*
G75*
G02*
X150750500Y-56593499I0J-249999D01*
G01*
X150750500Y-57293501D01*
G75*
G02*
X150500501Y-57543500I-249999J0D01*
G01*
G37*
%TD.AperFunction*%
%TD*%
%TO.P,R3,2*%
%TO.N,Net-(JP2-Pad1)*%
%TA.AperFunction,SMDPad,CuDef*%
G36*
G01*
X127765000Y-35946501D02*
X127765000Y-35046499D01*
G75*
G02*
X128014999Y-34796500I249999J0D01*
G01*
X128715001Y-34796500D01*
G75*
G02*
X128965000Y-35046499I0J-249999D01*
G01*
X128965000Y-35946501D01*
G75*
G02*
X128715001Y-36196500I-249999J0D01*
G01*
X128014999Y-36196500D01*
G75*
G02*
X127765000Y-35946501I0J249999D01*
G01*
G37*
%TD.AperFunction*%
%TO.P,R3,1*%
%TO.N,Net-(Q1-Pad2)*%
%TA.AperFunction,SMDPad,CuDef*%
G36*
G01*
X125765000Y-35946501D02*
X125765000Y-35046499D01*
G75*
G02*
X126014999Y-34796500I249999J0D01*
G01*
X126715001Y-34796500D01*
G75*
G02*
X126965000Y-35046499I0J-249999D01*
G01*
X126965000Y-35946501D01*
G75*
G02*
X126715001Y-36196500I-249999J0D01*
G01*
X126014999Y-36196500D01*
G75*
G02*
X125765000Y-35946501I0J249999D01*
G01*
G37*
%TD.AperFunction*%
%TD*%
%TO.P,R2,2*%
%TO.N,Net-(Q1-Pad2)*%
%TA.AperFunction,SMDPad,CuDef*%
G36*
G01*
X124084501Y-44859500D02*
X123184499Y-44859500D01*
G75*
G02*
X122934500Y-44609501I0J249999D01*
G01*
X122934500Y-43909499D01*
G75*
G02*
X123184499Y-43659500I249999J0D01*
G01*
X124084501Y-43659500D01*
G75*
G02*
X124334500Y-43909499I0J-249999D01*
G01*
X124334500Y-44609501D01*
G75*
G02*
X124084501Y-44859500I-249999J0D01*
G01*
G37*
%TD.AperFunction*%
%TO.P,R2,1*%
%TO.N,GND*%
%TA.AperFunction,SMDPad,CuDef*%
G36*
G01*
X124084501Y-46859500D02*
X123184499Y-46859500D01*
G75*
G02*
X122934500Y-46609501I0J249999D01*
G01*
X122934500Y-45909499D01*
G75*
G02*
X123184499Y-45659500I249999J0D01*
G01*
X124084501Y-45659500D01*
G75*
G02*
X124334500Y-45909499I0J-249999D01*
G01*
X124334500Y-46609501D01*
G75*
G02*
X124084501Y-46859500I-249999J0D01*
G01*
G37*
%TD.AperFunction*%
%TD*%
D29*
%TO.P,Q2,3*%
%TO.N,Net-(Q1-Pad1)*%
X128977900Y-45559980D03*
%TO.P,Q2,2*%
%TO.N,GND*%
X126977900Y-46509980D03*
%TO.P,Q2,1*%
%TO.N,Net-(Q1-Pad1)*%
X126977900Y-44609980D03*
%TD*%
%TO.P,Q1,3*%
%TO.N,Net-(Q1-Pad1)*%
X128977900Y-40335200D03*
%TO.P,Q1,2*%
%TO.N,Net-(Q1-Pad2)*%
X126977900Y-41285200D03*
%TO.P,Q1,1*%
%TO.N,Net-(Q1-Pad1)*%
X126977900Y-39385200D03*
%TD*%
%TO.P,C5,2*%
%TO.N,GND*%
%TA.AperFunction,SMDPad,CuDef*%
G36*
G01*
X144885500Y-62165000D02*
X143785500Y-62165000D01*
G75*
G02*
X143535500Y-61915000I0J250000D01*
G01*
X143535500Y-59415000D01*
G75*
G02*
X143785500Y-59165000I250000J0D01*
G01*
X144885500Y-59165000D01*
G75*
G02*
X145135500Y-59415000I0J-250000D01*
G01*
X145135500Y-61915000D01*
G75*
G02*
X144885500Y-62165000I-250000J0D01*
G01*
G37*
%TD.AperFunction*%
%TO.P,C5,1*%
%TO.N,+9V*%
%TA.AperFunction,SMDPad,CuDef*%
G36*
G01*
X144885500Y-66565000D02*
X143785500Y-66565000D01*
G75*
G02*
X143535500Y-66315000I0J250000D01*
G01*
X143535500Y-63815000D01*
G75*
G02*
X143785500Y-63565000I250000J0D01*
G01*
X144885500Y-63565000D01*
G75*
G02*
X145135500Y-63815000I0J-250000D01*
G01*
X145135500Y-66315000D01*
G75*
G02*
X144885500Y-66565000I-250000J0D01*
G01*
G37*
%TD.AperFunction*%
%TD*%
%TO.P,C2,2*%
%TO.N,-15V*%
%TA.AperFunction,SMDPad,CuDef*%
G36*
G01*
X165332500Y-62165000D02*
X164232500Y-62165000D01*
G75*
G02*
X163982500Y-61915000I0J250000D01*
G01*
X163982500Y-59415000D01*
G75*
G02*
X164232500Y-59165000I250000J0D01*
G01*
X165332500Y-59165000D01*
G75*
G02*
X165582500Y-59415000I0J-250000D01*
G01*
X165582500Y-61915000D01*
G75*
G02*
X165332500Y-62165000I-250000J0D01*
G01*
G37*
%TD.AperFunction*%
%TO.P,C2,1*%
%TO.N,GND*%
%TA.AperFunction,SMDPad,CuDef*%
G36*
G01*
X165332500Y-66565000D02*
X164232500Y-66565000D01*
G75*
G02*
X163982500Y-66315000I0J250000D01*
G01*
X163982500Y-63815000D01*
G75*
G02*
X164232500Y-63565000I250000J0D01*
G01*
X165332500Y-63565000D01*
G75*
G02*
X165582500Y-63815000I0J-250000D01*
G01*
X165582500Y-66315000D01*
G75*
G02*
X165332500Y-66565000I-250000J0D01*
G01*
G37*
%TD.AperFunction*%
%TD*%
%TO.P,C1,2*%
%TO.N,GND*%
%TA.AperFunction,SMDPad,CuDef*%
G36*
G01*
X155109000Y-62165000D02*
X154009000Y-62165000D01*
G75*
G02*
X153759000Y-61915000I0J250000D01*
G01*
X153759000Y-59415000D01*
G75*
G02*
X154009000Y-59165000I250000J0D01*
G01*
X155109000Y-59165000D01*
G75*
G02*
X155359000Y-59415000I0J-250000D01*
G01*
X155359000Y-61915000D01*
G75*
G02*
X155109000Y-62165000I-250000J0D01*
G01*
G37*
%TD.AperFunction*%
%TO.P,C1,1*%
%TO.N,+15V*%
%TA.AperFunction,SMDPad,CuDef*%
G36*
G01*
X155109000Y-66565000D02*
X154009000Y-66565000D01*
G75*
G02*
X153759000Y-66315000I0J250000D01*
G01*
X153759000Y-63815000D01*
G75*
G02*
X154009000Y-63565000I250000J0D01*
G01*
X155109000Y-63565000D01*
G75*
G02*
X155359000Y-63815000I0J-250000D01*
G01*
X155359000Y-66315000D01*
G75*
G02*
X155109000Y-66565000I-250000J0D01*
G01*
G37*
%TD.AperFunction*%
%TD*%
D30*
%TO.N,GND*%
X168402000Y-35052000D03*
X161163000Y-29464000D03*
X160528000Y-49530000D03*
X125349000Y-63309500D03*
X126555500Y-60642500D03*
X133350000Y-60007500D03*
X155067000Y-54927500D03*
X140081000Y-60388500D03*
X144399000Y-60007500D03*
X150114000Y-60642500D03*
X154622500Y-59626500D03*
X164719000Y-66040000D03*
X139190500Y-40067000D03*
X123634500Y-46259500D03*
X134240500Y-29148000D03*
X154347500Y-21038500D03*
X160464500Y-63983000D03*
%TO.N,VDD*%
X162623500Y-32131000D03*
X137172700Y-51346100D03*
X165887400Y-51231800D03*
%TO.N,+15V*%
X139190500Y-29084500D03*
X161671000Y-43053000D03*
%TO.N,-15V*%
X156273500Y-48133000D03*
X138493500Y-37274500D03*
%TO.N,Net-(JP1-Pad1)*%
X142430500Y-34734500D03*
%TO.N,+9V*%
X159385000Y-36195000D03*
X164414200Y-52781200D03*
%TO.N,Net-(C12-Pad2)*%
X158432500Y-19939000D03*
X147980000Y-25844500D03*
%TO.N,+5V*%
X147383500Y-36004500D03*
%TO.N,Net-(R7-Pad1)*%
X142494000Y-33464500D03*
%TD*%
D31*
%TO.N,GND*%
X134240500Y-30924500D02*
X134874000Y-30924500D01*
X129911999Y-32400999D02*
X129911999Y-33385001D01*
X133265500Y-38544500D02*
X134240500Y-38544500D01*
X132515499Y-37794499D02*
X133265500Y-38544500D01*
X129911999Y-33385001D02*
X130444999Y-33918001D01*
X131388498Y-30924500D02*
X129911999Y-32400999D01*
X132515499Y-33918001D02*
X132515499Y-37794499D01*
X134240500Y-30924500D02*
X131388498Y-30924500D01*
X130444999Y-33918001D02*
X132515499Y-33918001D01*
X135540510Y-38219490D02*
X135540510Y-31210010D01*
X135215500Y-38544500D02*
X135540510Y-38219490D01*
X134240500Y-38544500D02*
X135215500Y-38544500D01*
X134240500Y-32194500D02*
X134240500Y-30924500D01*
X134240500Y-38544500D02*
X139190500Y-38544500D01*
X134240500Y-30924500D02*
X134240500Y-29148000D01*
X139190500Y-38544500D02*
X139190500Y-40067000D01*
X139190500Y-40067000D02*
X139190500Y-40067000D01*
X139190500Y-38544500D02*
X138112500Y-38544500D01*
X135572500Y-31369000D02*
X134937500Y-30734000D01*
X151424000Y-19812000D02*
X151447500Y-19788500D01*
X147764500Y-19812000D02*
X151424000Y-19812000D01*
X153097500Y-19788500D02*
X154347500Y-21038500D01*
X151447500Y-19788500D02*
X153097500Y-19788500D01*
D32*
X110092500Y-59753500D02*
X117792500Y-59753500D01*
X108902500Y-60943500D02*
X110092500Y-59753500D01*
X160528000Y-48134500D02*
X160526500Y-48133000D01*
X160528000Y-49530000D02*
X160528000Y-48134500D01*
X160079022Y-48133000D02*
X160526500Y-48133000D01*
X158809022Y-46863000D02*
X160079022Y-48133000D01*
X155576500Y-46863000D02*
X158809022Y-46863000D01*
X160653500Y-29973500D02*
X161163000Y-29464000D01*
X160653500Y-30861000D02*
X160653500Y-29973500D01*
X160206022Y-30861000D02*
X160653500Y-30861000D01*
X158936022Y-32131000D02*
X160206022Y-30861000D01*
X155703500Y-32131000D02*
X158936022Y-32131000D01*
X123884980Y-46509980D02*
X123634500Y-46259500D01*
X126977900Y-46509980D02*
X123884980Y-46509980D01*
X123634500Y-46259500D02*
X123634500Y-46259500D01*
D31*
X134240500Y-29148000D02*
X134240500Y-29148000D01*
X154347500Y-21038500D02*
X154347500Y-21038500D01*
X138215500Y-32194500D02*
X137858500Y-32551500D01*
X139190500Y-32194500D02*
X138215500Y-32194500D01*
X137858500Y-32551500D02*
X137858500Y-36512500D01*
X139190500Y-32194500D02*
X142494000Y-32194500D01*
X142494000Y-32194500D02*
X142494000Y-32194500D01*
D32*
X142494000Y-32194500D02*
X142494000Y-24193500D01*
X142494000Y-24193500D02*
X139128500Y-20828000D01*
X139128500Y-20828000D02*
X131953000Y-20828000D01*
X131953000Y-20828000D02*
X131953000Y-17018000D01*
X163004500Y-17018000D02*
X163385500Y-17399000D01*
X131953000Y-17018000D02*
X163004500Y-17018000D01*
D31*
X160464500Y-63983000D02*
X160464500Y-63983000D01*
D32*
%TO.N,VDD*%
X134642500Y-66230500D02*
X133477000Y-65065000D01*
X137827000Y-66230500D02*
X134642500Y-66230500D01*
X129381000Y-65065000D02*
X127869000Y-63553000D01*
X133477000Y-65065000D02*
X129381000Y-65065000D01*
X129349500Y-62072500D02*
X127869000Y-63553000D01*
X129349500Y-55372000D02*
X129349500Y-62072500D01*
X162623500Y-32131000D02*
X160653500Y-32131000D01*
D31*
X137172700Y-51346100D02*
X165773100Y-51346100D01*
X165773100Y-51346100D02*
X165887400Y-51231800D01*
D32*
%TO.N,Net-(J1-Pad1)*%
X110744000Y-45021500D02*
X110490000Y-44767500D01*
X116776500Y-45021500D02*
X110744000Y-45021500D01*
%TO.N,Net-(J3-Pad1)*%
X116332000Y-55943500D02*
X117792500Y-54483000D01*
X108902500Y-55943500D02*
X116332000Y-55943500D01*
D31*
%TO.N,Net-(Q1-Pad1)*%
X128027900Y-39385200D02*
X128977900Y-40335200D01*
X126977900Y-39385200D02*
X128027900Y-39385200D01*
X128977900Y-42609980D02*
X126977900Y-44609980D01*
X128977900Y-40335200D02*
X128977900Y-42609980D01*
X128027900Y-44609980D02*
X128977900Y-45559980D01*
X126977900Y-44609980D02*
X128027900Y-44609980D01*
%TO.N,Net-(Q1-Pad2)*%
X126202899Y-35658601D02*
X126365000Y-35496500D01*
X126202899Y-40510199D02*
X126202899Y-35658601D01*
X126977900Y-41285200D02*
X126202899Y-40510199D01*
D32*
X126608800Y-41285200D02*
X123634500Y-44259500D01*
X126977900Y-41285200D02*
X126608800Y-41285200D01*
D31*
X121884000Y-35496500D02*
X121856500Y-35524000D01*
X126365000Y-35496500D02*
X121884000Y-35496500D01*
%TO.N,Net-(R13-Pad2)*%
X159226490Y-45939758D02*
X160149732Y-46863000D01*
X159226490Y-42767010D02*
X159226490Y-45939758D01*
X160149732Y-46863000D02*
X160526500Y-46863000D01*
X160020000Y-41973500D02*
X159226490Y-42767010D01*
X161145500Y-47482000D02*
X160526500Y-46863000D01*
X163576000Y-47482000D02*
X161145500Y-47482000D01*
%TO.N,Net-(R15-Pad2)*%
X162290000Y-33401000D02*
X160653500Y-33401000D01*
X163703000Y-34814000D02*
X162290000Y-33401000D01*
X166449500Y-34814000D02*
X166497000Y-34861500D01*
X163703000Y-34814000D02*
X166449500Y-34814000D01*
%TO.N,+15V*%
X139190500Y-30924500D02*
X139190500Y-29084500D01*
X139190500Y-29084500D02*
X139190500Y-29084500D01*
D32*
X147240500Y-56943500D02*
X145732500Y-55435500D01*
X150050500Y-56943500D02*
X147240500Y-56943500D01*
X145732500Y-59284000D02*
X145732500Y-55435500D01*
X150241000Y-63792500D02*
X145732500Y-59284000D01*
X153286500Y-63792500D02*
X154559000Y-65065000D01*
X150241000Y-63792500D02*
X153286500Y-63792500D01*
X160526500Y-44197500D02*
X161671000Y-43053000D01*
X160526500Y-44323000D02*
X160526500Y-44197500D01*
%TO.N,-15V*%
X167132000Y-58315500D02*
X164782500Y-60665000D01*
X167132000Y-55897001D02*
X167132000Y-58315500D01*
X164589500Y-60858000D02*
X164782500Y-60665000D01*
X160464500Y-60858000D02*
X164589500Y-60858000D01*
X166941500Y-68135500D02*
X166941500Y-62824000D01*
X118681500Y-68135500D02*
X166941500Y-68135500D01*
X117792500Y-67246500D02*
X118681500Y-68135500D01*
X166941500Y-62824000D02*
X164782500Y-60665000D01*
X117792500Y-67119500D02*
X117792500Y-67246500D01*
D31*
X156273500Y-48133000D02*
X145694400Y-48133000D01*
X140165500Y-37274500D02*
X139190500Y-37274500D01*
X140490510Y-37599510D02*
X140165500Y-37274500D01*
X140490510Y-42929110D02*
X140490510Y-37599510D01*
X145694400Y-48133000D02*
X140490510Y-42929110D01*
%TO.N,Net-(JP1-Pad1)*%
X139190500Y-34734500D02*
X142430500Y-34734500D01*
X142430500Y-34734500D02*
X142430500Y-34734500D01*
X144051500Y-34734500D02*
X144432500Y-35115500D01*
X142430500Y-34734500D02*
X144051500Y-34734500D01*
%TO.N,Net-(JP2-Pad2)*%
X133669000Y-32893000D02*
X134240500Y-33464500D01*
X130937000Y-32893000D02*
X133669000Y-32893000D01*
D32*
%TO.N,+9V*%
X134493000Y-51943000D02*
X137922000Y-55372000D01*
X117792500Y-51943000D02*
X134493000Y-51943000D01*
X137922000Y-61658500D02*
X140017500Y-63754000D01*
X137922000Y-55372000D02*
X137922000Y-61658500D01*
X143024500Y-63754000D02*
X144335500Y-65065000D01*
X140017500Y-63754000D02*
X143024500Y-63754000D01*
X140017500Y-66040000D02*
X139827000Y-66230500D01*
X140017500Y-63754000D02*
X140017500Y-66040000D01*
X160653500Y-34926500D02*
X159385000Y-36195000D01*
X160653500Y-34671000D02*
X160653500Y-34926500D01*
D31*
X137922000Y-55372000D02*
X140512800Y-52781200D01*
X140512800Y-52781200D02*
X164414200Y-52781200D01*
X164414200Y-52781200D02*
X164414200Y-52781200D01*
%TO.N,Net-(C12-Pad2)*%
X147980000Y-26652500D02*
X147980000Y-25844500D01*
X154728500Y-33401000D02*
X147980000Y-26652500D01*
X155703500Y-33401000D02*
X154728500Y-33401000D01*
X147980000Y-25844500D02*
X147980000Y-25844500D01*
%TO.N,Net-(C12-Pad1)*%
X155702000Y-30859500D02*
X155703500Y-30861000D01*
X155702000Y-27051000D02*
X155702000Y-30859500D01*
X152311500Y-27051000D02*
X151105000Y-25844500D01*
X155702000Y-27051000D02*
X152311500Y-27051000D01*
X151105000Y-22631000D02*
X151447500Y-22288500D01*
X151105000Y-25844500D02*
X151105000Y-22631000D01*
X150971000Y-21812000D02*
X151447500Y-22288500D01*
X147764500Y-21812000D02*
X150971000Y-21812000D01*
D32*
X157242000Y-27051000D02*
X155702000Y-27051000D01*
%TO.N,Net-(J2-Pad1)*%
X112646502Y-31559500D02*
X110426500Y-31559500D01*
X114611002Y-33524000D02*
X112646502Y-31559500D01*
X121856500Y-33524000D02*
X114611002Y-33524000D01*
%TO.N,Net-(J3-Pad3)*%
X117698500Y-65943500D02*
X117792500Y-65849500D01*
X108902500Y-65943500D02*
X117698500Y-65943500D01*
%TO.N,Net-(J4-Pad1)*%
X165925500Y-19939000D02*
X160385000Y-19939000D01*
%TO.N,+5V*%
X152495500Y-56959500D02*
X152463500Y-56927500D01*
X155003500Y-56959500D02*
X152495500Y-56959500D01*
X159321500Y-56959500D02*
X160337500Y-55943500D01*
X155003500Y-56959500D02*
X159321500Y-56959500D01*
X146494500Y-35115500D02*
X147383500Y-36004500D01*
X145732500Y-35115500D02*
X146494500Y-35115500D01*
%TO.N,Net-(R1-Pad1)*%
X121734000Y-37401500D02*
X121856500Y-37524000D01*
X116776500Y-37401500D02*
X121734000Y-37401500D01*
%TO.N,Net-(R4-Pad2)*%
X152447500Y-54943500D02*
X152463500Y-54927500D01*
X150050500Y-54943500D02*
X152447500Y-54943500D01*
D31*
%TO.N,Net-(R7-Pad1)*%
X139190500Y-33464500D02*
X142494000Y-33464500D01*
X142494000Y-33464500D02*
X142494000Y-33464500D01*
X147161500Y-33464500D02*
X147987000Y-34290000D01*
X147161500Y-33075100D02*
X145709400Y-31623000D01*
X147161500Y-33464500D02*
X147161500Y-33075100D01*
X144335500Y-31623000D02*
X144409400Y-31623000D01*
X142494000Y-33464500D02*
X144335500Y-31623000D01*
%TO.N,Net-(R10-Pad1)*%
X149971000Y-43894500D02*
X147971000Y-45894500D01*
X149971000Y-43513500D02*
X149971000Y-43894500D01*
%TO.N,Net-(R10-Pad2)*%
X151876000Y-45894500D02*
X152336500Y-45434000D01*
X149971000Y-45894500D02*
X151876000Y-45894500D01*
X155417500Y-45434000D02*
X155576500Y-45593000D01*
X152336500Y-45434000D02*
X155417500Y-45434000D01*
%TO.N,Net-(R11-Pad2)*%
X154687500Y-43434000D02*
X155576500Y-44323000D01*
X152336500Y-43434000D02*
X154687500Y-43434000D01*
X157543500Y-42356000D02*
X155576500Y-44323000D01*
X157543500Y-42005000D02*
X157543500Y-42356000D01*
%TO.N,Net-(R12-Pad2)*%
X159988500Y-40005000D02*
X160020000Y-39973500D01*
X157543500Y-40005000D02*
X159988500Y-40005000D01*
%TO.N,Net-(R14-Pad2)*%
X163465000Y-45593000D02*
X163576000Y-45482000D01*
X160526500Y-45593000D02*
X163465000Y-45593000D01*
X163766500Y-36877500D02*
X163703000Y-36814000D01*
D32*
X163703000Y-38687500D02*
X163401500Y-38989000D01*
X163703000Y-36814000D02*
X163703000Y-38687500D01*
X163576000Y-41402000D02*
X163576000Y-39163500D01*
X163576000Y-39163500D02*
X163401500Y-38989000D01*
D31*
X163576000Y-45482000D02*
X163576000Y-41402000D01*
X163576000Y-41402000D02*
X163576000Y-41211500D01*
%TO.N,Net-(JP2-Pad1)*%
X128397000Y-35464500D02*
X128365000Y-35496500D01*
X128397000Y-32893000D02*
X128397000Y-35464500D01*
D32*
X128397000Y-30591000D02*
X128397000Y-32893000D01*
D31*
%TO.N,Net-(R22-Pad2)*%
X150368000Y-34671000D02*
X149987000Y-34290000D01*
X155703500Y-34671000D02*
X150368000Y-34671000D01*
D32*
X149987000Y-37449000D02*
X150193500Y-37655500D01*
X149987000Y-34290000D02*
X149987000Y-37449000D01*
D31*
%TO.N,Net-(R20-Pad2)*%
X139190500Y-36004500D02*
X142367000Y-36004500D01*
X142367000Y-36004500D02*
X142367000Y-36004500D01*
X147955000Y-43497500D02*
X147971000Y-43513500D01*
D32*
X143224500Y-36862000D02*
X142367000Y-36004500D01*
X143224500Y-40322500D02*
X143224500Y-36862000D01*
X146415500Y-43513500D02*
X147971000Y-43513500D01*
X143224500Y-40322500D02*
X146415500Y-43513500D01*
%TO.N,Net-(R19-Pad1)*%
X128714500Y-28273500D02*
X128397000Y-28591000D01*
X128714500Y-26924000D02*
X128714500Y-28273500D01*
%TO.N,Net-(R20-Pad1)*%
X147174500Y-40322500D02*
X147198000Y-40299000D01*
X145224500Y-40322500D02*
X147174500Y-40322500D01*
%TO.N,Net-(R21-Pad1)*%
X167322500Y-38989000D02*
X165401500Y-38989000D01*
%TO.N,Net-(R22-Pad1)*%
X154114500Y-37655500D02*
X152193500Y-37655500D01*
%TO.N,Net-(R23-Pad1)*%
X161417000Y-27051000D02*
X159242000Y-27051000D01*
%TD*%
M02*
