M48
; DRILL file {KiCad (5.1.8-0-10_14)} date Thursday, February 24, 2022 at 11:49:13 AM
; FORMAT={-:-/ absolute / inch / decimal}
; #@! TF.CreationDate,2022-02-24T11:49:13-06:00
; #@! TF.GenerationSoftware,Kicad,Pcbnew,(5.1.8-0-10_14)
FMAT,2
INCH
T1C0.0157
T2C0.0197
T3C0.0295
T4C0.0315
T5C0.0433
T6C0.0512
T7C0.0551
T8C0.0591
T9C0.0669
T10C0.1260
%
G90
G05
T1
X4.5725Y-1.995
X4.6Y-2.4325
X4.6125Y-2.2225
X4.6525Y-1.335
X4.6525Y-1.7625
X4.675Y-2.2225
X4.8248Y-1.3376
X4.9835Y-2.3025
X5.004Y-1.9535
X5.045Y-2.3025
X5.0775Y-1.9625
X5.0975Y-2.3025
X5.1425Y-1.9625
X5.1525Y-2.3025
X5.185Y-2.3025
X5.19Y-1.9625
X5.225Y-2.255
X5.2333Y-2.3008
X5.2375Y-2.3525
X5.24Y-1.1025
X5.245Y-1.9625
X5.295Y-1.9625
X5.335Y-1.1025
X5.37Y-1.9625
X5.395Y-1.3075
X5.62Y-1.2925
X5.62Y-2.4725
X5.6201Y-1.2425
X5.6209Y-2.4309
X5.6228Y-2.2697
X5.6228Y-2.3147
X5.6228Y-2.3597
X5.6228Y-2.4022
X5.625Y-2.58
X5.625Y-2.6275
X5.6375Y-1.3425
X5.65Y-1.945
X5.6525Y-1.7825
X5.6525Y-1.99
X5.68Y-0.775
X5.7275Y-2.19
X5.775Y-0.6175
X5.805Y-1.1925
X5.8059Y-1.6559
X5.8125Y-0.925
X5.8149Y-1.1301
X5.815Y-1.295
X5.835Y-1.1925
X5.855Y-1.655
X5.8725Y-0.62
X5.8775Y-1.025
X5.88Y-0.875
X5.9025Y-0.81
X5.93Y-1.2775
X5.99Y-1.955
X5.99Y-1.995
X5.9925Y-1.71
X6.0525Y-1.57
X6.1325Y-2.0675
X6.1325Y-2.105
X6.1325Y-2.1425
X6.135Y-2.245
X6.135Y-2.3075
X6.17Y-1.1575
X6.22Y-1.1575
X6.2975Y-1.7175
X6.3225Y-1.5775
X6.325Y-1.4275
X6.385Y-2.3225
X6.3875Y-2.1
X6.39Y-1.7775
X6.39Y-2.07
X6.39Y-2.145
X6.39Y-2.25
X6.4937Y-1.8513
X6.5275Y-1.5525
X6.6625Y-1.3775
X6.6625Y-1.4775
X6.6625Y-1.5275
X6.6625Y-1.5775
T2
X5.5025Y-0.7675
X6.0325Y-1.065
X6.1175Y-1.2725
X6.29Y-1.355
X6.47Y-1.6775
X5.5825Y-1.5725
X5.7175Y-1.5725
X5.025Y-1.415
T3
X6.6275Y-2.2475
X6.6275Y-2.2975
X6.6275Y-2.3475
X5.8775Y-2.1625
X5.8775Y-2.2125
X5.8775Y-2.2625
T4
X5.09Y-0.975
X5.09Y-1.0538
X5.09Y-1.1325
X6.615Y-1.8325
X6.615Y-1.9113
X6.615Y-1.99
T5
X4.8075Y-2.6125
X5.2075Y-2.6125
X5.4425Y-1.5625
X5.4425Y-1.9625
X5.4075Y-2.2125
X5.4075Y-2.6125
X4.8425Y-1.5625
X5.2425Y-1.5625
T6
X4.2975Y-1.8938
X4.2975Y-2.0906
X4.2975Y-2.2875
X5.9325Y-2.54
X6.1294Y-2.54
X6.3262Y-2.54
T7
X4.3975Y-1.3606
X4.3975Y-1.5575
T8
X5.09Y-0.8923
X5.09Y-1.2152
X6.615Y-1.7498
X6.615Y-2.0727
X4.63Y-0.8475
X6.435Y-1.045
T9
X4.53Y-0.7475
X4.53Y-0.9475
X4.73Y-0.7475
X4.73Y-0.9475
X6.335Y-0.945
X6.335Y-1.145
X6.535Y-0.945
X6.535Y-1.145
T10
X6.5945Y-0.7283
X6.5945Y-2.5787
X4.2323Y-0.7283
X4.2323Y-2.5787
T0
M30
