%TF.GenerationSoftware,KiCad,Pcbnew,(5.1.8-0-10_14)*%
%TF.CreationDate,2022-02-24T11:49:15-06:00*%
%TF.ProjectId,SAQ_KiCad_one,5341515f-4b69-4436-9164-5f6f6e652e6b,rev?*%
%TF.SameCoordinates,Original*%
%TF.FileFunction,Legend,Bot*%
%TF.FilePolarity,Positive*%
%FSLAX46Y46*%
G04 Gerber Fmt 4.6, Leading zero omitted, Abs format (unit mm)*
G04 Created by KiCad (PCBNEW (5.1.8-0-10_14)) date 2022-02-24 11:49:15*
%MOMM*%
%LPD*%
G01*
G04 APERTURE LIST*
%ADD10C,0.150000*%
%ADD11C,0.120000*%
G04 APERTURE END LIST*
D10*
X125054785Y-30870380D02*
X125054785Y-29870380D01*
X124673833Y-29870380D01*
X124578595Y-29918000D01*
X124530976Y-29965619D01*
X124483357Y-30060857D01*
X124483357Y-30203714D01*
X124530976Y-30298952D01*
X124578595Y-30346571D01*
X124673833Y-30394190D01*
X125054785Y-30394190D01*
X124054785Y-30870380D02*
X124054785Y-30203714D01*
X124054785Y-30394190D02*
X124007166Y-30298952D01*
X123959547Y-30251333D01*
X123864309Y-30203714D01*
X123769071Y-30203714D01*
X123292880Y-30870380D02*
X123388119Y-30822761D01*
X123435738Y-30775142D01*
X123483357Y-30679904D01*
X123483357Y-30394190D01*
X123435738Y-30298952D01*
X123388119Y-30251333D01*
X123292880Y-30203714D01*
X123150023Y-30203714D01*
X123054785Y-30251333D01*
X123007166Y-30298952D01*
X122959547Y-30394190D01*
X122959547Y-30679904D01*
X123007166Y-30775142D01*
X123054785Y-30822761D01*
X123150023Y-30870380D01*
X123292880Y-30870380D01*
X122530976Y-30203714D02*
X122530976Y-31060857D01*
X122578595Y-31156095D01*
X122673833Y-31203714D01*
X122721452Y-31203714D01*
X122530976Y-29870380D02*
X122578595Y-29918000D01*
X122530976Y-29965619D01*
X122483357Y-29918000D01*
X122530976Y-29870380D01*
X122530976Y-29965619D01*
X121673833Y-30822761D02*
X121769071Y-30870380D01*
X121959547Y-30870380D01*
X122054785Y-30822761D01*
X122102404Y-30727523D01*
X122102404Y-30346571D01*
X122054785Y-30251333D01*
X121959547Y-30203714D01*
X121769071Y-30203714D01*
X121673833Y-30251333D01*
X121626214Y-30346571D01*
X121626214Y-30441809D01*
X122102404Y-30537047D01*
X120769071Y-30822761D02*
X120864309Y-30870380D01*
X121054785Y-30870380D01*
X121150023Y-30822761D01*
X121197642Y-30775142D01*
X121245261Y-30679904D01*
X121245261Y-30394190D01*
X121197642Y-30298952D01*
X121150023Y-30251333D01*
X121054785Y-30203714D01*
X120864309Y-30203714D01*
X120769071Y-30251333D01*
X120483357Y-30203714D02*
X120102404Y-30203714D01*
X120340500Y-29870380D02*
X120340500Y-30727523D01*
X120292880Y-30822761D01*
X120197642Y-30870380D01*
X120102404Y-30870380D01*
X119054785Y-30822761D02*
X118911928Y-30870380D01*
X118673833Y-30870380D01*
X118578595Y-30822761D01*
X118530976Y-30775142D01*
X118483357Y-30679904D01*
X118483357Y-30584666D01*
X118530976Y-30489428D01*
X118578595Y-30441809D01*
X118673833Y-30394190D01*
X118864309Y-30346571D01*
X118959547Y-30298952D01*
X119007166Y-30251333D01*
X119054785Y-30156095D01*
X119054785Y-30060857D01*
X119007166Y-29965619D01*
X118959547Y-29918000D01*
X118864309Y-29870380D01*
X118626214Y-29870380D01*
X118483357Y-29918000D01*
X118102404Y-30584666D02*
X117626214Y-30584666D01*
X118197642Y-30870380D02*
X117864309Y-29870380D01*
X117530976Y-30870380D01*
X116530976Y-30965619D02*
X116626214Y-30918000D01*
X116721452Y-30822761D01*
X116864309Y-30679904D01*
X116959547Y-30632285D01*
X117054785Y-30632285D01*
X117007166Y-30870380D02*
X117102404Y-30822761D01*
X117197642Y-30727523D01*
X117245261Y-30537047D01*
X117245261Y-30203714D01*
X117197642Y-30013238D01*
X117102404Y-29918000D01*
X117007166Y-29870380D01*
X116816690Y-29870380D01*
X116721452Y-29918000D01*
X116626214Y-30013238D01*
X116578595Y-30203714D01*
X116578595Y-30537047D01*
X116626214Y-30727523D01*
X116721452Y-30822761D01*
X116816690Y-30870380D01*
X117007166Y-30870380D01*
X123197642Y-32520380D02*
X123197642Y-31520380D01*
X122864309Y-31520380D02*
X122530976Y-32520380D01*
X122197642Y-31520380D01*
X121292880Y-32425142D02*
X121340500Y-32472761D01*
X121483357Y-32520380D01*
X121578595Y-32520380D01*
X121721452Y-32472761D01*
X121816690Y-32377523D01*
X121864309Y-32282285D01*
X121911928Y-32091809D01*
X121911928Y-31948952D01*
X121864309Y-31758476D01*
X121816690Y-31663238D01*
X121721452Y-31568000D01*
X121578595Y-31520380D01*
X121483357Y-31520380D01*
X121340500Y-31568000D01*
X121292880Y-31615619D01*
X120340500Y-32520380D02*
X120911928Y-32520380D01*
X120626214Y-32520380D02*
X120626214Y-31520380D01*
X120721452Y-31663238D01*
X120816690Y-31758476D01*
X120911928Y-31806095D01*
X119721452Y-31520380D02*
X119626214Y-31520380D01*
X119530976Y-31568000D01*
X119483357Y-31615619D01*
X119435738Y-31710857D01*
X119388119Y-31901333D01*
X119388119Y-32139428D01*
X119435738Y-32329904D01*
X119483357Y-32425142D01*
X119530976Y-32472761D01*
X119626214Y-32520380D01*
X119721452Y-32520380D01*
X119816690Y-32472761D01*
X119864309Y-32425142D01*
X119911928Y-32329904D01*
X119959547Y-32139428D01*
X119959547Y-31901333D01*
X119911928Y-31710857D01*
X119864309Y-31615619D01*
X119816690Y-31568000D01*
X119721452Y-31520380D01*
X119007166Y-31615619D02*
X118959547Y-31568000D01*
X118864309Y-31520380D01*
X118626214Y-31520380D01*
X118530976Y-31568000D01*
X118483357Y-31615619D01*
X118435738Y-31710857D01*
X118435738Y-31806095D01*
X118483357Y-31948952D01*
X119054785Y-32520380D01*
X118435738Y-32520380D01*
X125459547Y-33646571D02*
X125792880Y-33646571D01*
X125792880Y-34170380D02*
X125792880Y-33170380D01*
X125316690Y-33170380D01*
X124554785Y-34122761D02*
X124650023Y-34170380D01*
X124840500Y-34170380D01*
X124935738Y-34122761D01*
X124983357Y-34027523D01*
X124983357Y-33646571D01*
X124935738Y-33551333D01*
X124840500Y-33503714D01*
X124650023Y-33503714D01*
X124554785Y-33551333D01*
X124507166Y-33646571D01*
X124507166Y-33741809D01*
X124983357Y-33837047D01*
X124078595Y-34170380D02*
X124078595Y-33170380D01*
X124078595Y-33551333D02*
X123983357Y-33503714D01*
X123792880Y-33503714D01*
X123697642Y-33551333D01*
X123650023Y-33598952D01*
X123602404Y-33694190D01*
X123602404Y-33979904D01*
X123650023Y-34075142D01*
X123697642Y-34122761D01*
X123792880Y-34170380D01*
X123983357Y-34170380D01*
X124078595Y-34122761D01*
X121983357Y-33503714D02*
X121983357Y-34170380D01*
X122221452Y-33122761D02*
X122459547Y-33837047D01*
X121840500Y-33837047D01*
X121602404Y-33503714D02*
X121221452Y-33503714D01*
X121459547Y-33170380D02*
X121459547Y-34027523D01*
X121411928Y-34122761D01*
X121316690Y-34170380D01*
X121221452Y-34170380D01*
X120888119Y-34170380D02*
X120888119Y-33170380D01*
X120459547Y-34170380D02*
X120459547Y-33646571D01*
X120507166Y-33551333D01*
X120602404Y-33503714D01*
X120745261Y-33503714D01*
X120840500Y-33551333D01*
X120888119Y-33598952D01*
X119269071Y-33265619D02*
X119221452Y-33218000D01*
X119126214Y-33170380D01*
X118888119Y-33170380D01*
X118792880Y-33218000D01*
X118745261Y-33265619D01*
X118697642Y-33360857D01*
X118697642Y-33456095D01*
X118745261Y-33598952D01*
X119316690Y-34170380D01*
X118697642Y-34170380D01*
X118078595Y-33170380D02*
X117983357Y-33170380D01*
X117888119Y-33218000D01*
X117840500Y-33265619D01*
X117792880Y-33360857D01*
X117745261Y-33551333D01*
X117745261Y-33789428D01*
X117792880Y-33979904D01*
X117840500Y-34075142D01*
X117888119Y-34122761D01*
X117983357Y-34170380D01*
X118078595Y-34170380D01*
X118173833Y-34122761D01*
X118221452Y-34075142D01*
X118269071Y-33979904D01*
X118316690Y-33789428D01*
X118316690Y-33551333D01*
X118269071Y-33360857D01*
X118221452Y-33265619D01*
X118173833Y-33218000D01*
X118078595Y-33170380D01*
X117364309Y-33265619D02*
X117316690Y-33218000D01*
X117221452Y-33170380D01*
X116983357Y-33170380D01*
X116888119Y-33218000D01*
X116840500Y-33265619D01*
X116792880Y-33360857D01*
X116792880Y-33456095D01*
X116840500Y-33598952D01*
X117411928Y-34170380D01*
X116792880Y-34170380D01*
X116411928Y-33265619D02*
X116364309Y-33218000D01*
X116269071Y-33170380D01*
X116030976Y-33170380D01*
X115935738Y-33218000D01*
X115888119Y-33265619D01*
X115840500Y-33360857D01*
X115840500Y-33456095D01*
X115888119Y-33598952D01*
X116459547Y-34170380D01*
X115840500Y-34170380D01*
X126864309Y-35534666D02*
X126388119Y-35534666D01*
X126959547Y-35820380D02*
X126626214Y-34820380D01*
X126292880Y-35820380D01*
X125530976Y-35153714D02*
X125530976Y-35820380D01*
X125959547Y-35153714D02*
X125959547Y-35677523D01*
X125911928Y-35772761D01*
X125816690Y-35820380D01*
X125673833Y-35820380D01*
X125578595Y-35772761D01*
X125530976Y-35725142D01*
X125102404Y-35772761D02*
X125007166Y-35820380D01*
X124816690Y-35820380D01*
X124721452Y-35772761D01*
X124673833Y-35677523D01*
X124673833Y-35629904D01*
X124721452Y-35534666D01*
X124816690Y-35487047D01*
X124959547Y-35487047D01*
X125054785Y-35439428D01*
X125102404Y-35344190D01*
X125102404Y-35296571D01*
X125054785Y-35201333D01*
X124959547Y-35153714D01*
X124816690Y-35153714D01*
X124721452Y-35201333D01*
X124388119Y-35153714D02*
X124007166Y-35153714D01*
X124245261Y-34820380D02*
X124245261Y-35677523D01*
X124197642Y-35772761D01*
X124102404Y-35820380D01*
X124007166Y-35820380D01*
X123673833Y-35820380D02*
X123673833Y-35153714D01*
X123673833Y-34820380D02*
X123721452Y-34868000D01*
X123673833Y-34915619D01*
X123626214Y-34868000D01*
X123673833Y-34820380D01*
X123673833Y-34915619D01*
X123197642Y-35153714D02*
X123197642Y-35820380D01*
X123197642Y-35248952D02*
X123150023Y-35201333D01*
X123054785Y-35153714D01*
X122911928Y-35153714D01*
X122816690Y-35201333D01*
X122769071Y-35296571D01*
X122769071Y-35820380D01*
X121530976Y-35820380D02*
X121530976Y-34820380D01*
X121197642Y-35534666D01*
X120864309Y-34820380D01*
X120864309Y-35820380D01*
X119959547Y-35772761D02*
X120054785Y-35820380D01*
X120245261Y-35820380D01*
X120340500Y-35772761D01*
X120388119Y-35725142D01*
X120435738Y-35629904D01*
X120435738Y-35344190D01*
X120388119Y-35248952D01*
X120340500Y-35201333D01*
X120245261Y-35153714D01*
X120054785Y-35153714D01*
X119959547Y-35201333D01*
X119530976Y-35820380D02*
X119530976Y-34820380D01*
X119292880Y-34820380D01*
X119150023Y-34868000D01*
X119054785Y-34963238D01*
X119007166Y-35058476D01*
X118959547Y-35248952D01*
X118959547Y-35391809D01*
X119007166Y-35582285D01*
X119054785Y-35677523D01*
X119150023Y-35772761D01*
X119292880Y-35820380D01*
X119530976Y-35820380D01*
X118388119Y-35820380D02*
X118483357Y-35772761D01*
X118530976Y-35725142D01*
X118578595Y-35629904D01*
X118578595Y-35344190D01*
X118530976Y-35248952D01*
X118483357Y-35201333D01*
X118388119Y-35153714D01*
X118245261Y-35153714D01*
X118150023Y-35201333D01*
X118102404Y-35248952D01*
X118054785Y-35344190D01*
X118054785Y-35629904D01*
X118102404Y-35725142D01*
X118150023Y-35772761D01*
X118245261Y-35820380D01*
X118388119Y-35820380D01*
X117626214Y-35153714D02*
X117626214Y-35820380D01*
X117626214Y-35248952D02*
X117578595Y-35201333D01*
X117483357Y-35153714D01*
X117340500Y-35153714D01*
X117245261Y-35201333D01*
X117197642Y-35296571D01*
X117197642Y-35820380D01*
X116292880Y-35820380D02*
X116292880Y-35296571D01*
X116340500Y-35201333D01*
X116435738Y-35153714D01*
X116626214Y-35153714D01*
X116721452Y-35201333D01*
X116292880Y-35772761D02*
X116388119Y-35820380D01*
X116626214Y-35820380D01*
X116721452Y-35772761D01*
X116769071Y-35677523D01*
X116769071Y-35582285D01*
X116721452Y-35487047D01*
X116626214Y-35439428D01*
X116388119Y-35439428D01*
X116292880Y-35391809D01*
X115673833Y-35820380D02*
X115769071Y-35772761D01*
X115816690Y-35677523D01*
X115816690Y-34820380D01*
X114864309Y-35820380D02*
X114864309Y-34820380D01*
X114864309Y-35772761D02*
X114959547Y-35820380D01*
X115150023Y-35820380D01*
X115245261Y-35772761D01*
X115292880Y-35725142D01*
X115340500Y-35629904D01*
X115340500Y-35344190D01*
X115292880Y-35248952D01*
X115245261Y-35201333D01*
X115150023Y-35153714D01*
X114959547Y-35153714D01*
X114864309Y-35201333D01*
D11*
%TO.C,U5*%
X164909500Y-40693500D02*
X161459500Y-40693500D01*
X164909500Y-40693500D02*
X166859500Y-40693500D01*
X164909500Y-31823500D02*
X162959500Y-31823500D01*
X164909500Y-31823500D02*
X166859500Y-31823500D01*
%TO.C,C13*%
X139674252Y-33739500D02*
X138251748Y-33739500D01*
X139674252Y-31919500D02*
X138251748Y-31919500D01*
%TO.C,C18*%
X148894748Y-27855500D02*
X150317252Y-27855500D01*
X148894748Y-29675500D02*
X150317252Y-29675500D01*
%TO.C,X1*%
X161747000Y-48255000D02*
X161747000Y-44455000D01*
X164897000Y-48255000D02*
X161747000Y-48255000D01*
%TO.C,R18*%
X168238500Y-28754564D02*
X168238500Y-28300436D01*
X169708500Y-28754564D02*
X169708500Y-28300436D01*
%TO.C,R17*%
X151426936Y-31586500D02*
X151881064Y-31586500D01*
X151426936Y-33056500D02*
X151881064Y-33056500D01*
%TO.C,R15*%
X151410936Y-21490000D02*
X151865064Y-21490000D01*
X151410936Y-22960000D02*
X151865064Y-22960000D01*
%TO.C,C8*%
X154469752Y-36914500D02*
X153047248Y-36914500D01*
X154469752Y-35094500D02*
X153047248Y-35094500D01*
%TO.C,U5*%
D10*
X162496404Y-41044880D02*
X162496404Y-41854404D01*
X162448785Y-41949642D01*
X162401166Y-41997261D01*
X162305928Y-42044880D01*
X162115452Y-42044880D01*
X162020214Y-41997261D01*
X161972595Y-41949642D01*
X161924976Y-41854404D01*
X161924976Y-41044880D01*
X160972595Y-41044880D02*
X161448785Y-41044880D01*
X161496404Y-41521071D01*
X161448785Y-41473452D01*
X161353547Y-41425833D01*
X161115452Y-41425833D01*
X161020214Y-41473452D01*
X160972595Y-41521071D01*
X160924976Y-41616309D01*
X160924976Y-41854404D01*
X160972595Y-41949642D01*
X161020214Y-41997261D01*
X161115452Y-42044880D01*
X161353547Y-42044880D01*
X161448785Y-41997261D01*
X161496404Y-41949642D01*
%TO.C,C13*%
X140240857Y-31336642D02*
X140288476Y-31384261D01*
X140431333Y-31431880D01*
X140526571Y-31431880D01*
X140669428Y-31384261D01*
X140764666Y-31289023D01*
X140812285Y-31193785D01*
X140859904Y-31003309D01*
X140859904Y-30860452D01*
X140812285Y-30669976D01*
X140764666Y-30574738D01*
X140669428Y-30479500D01*
X140526571Y-30431880D01*
X140431333Y-30431880D01*
X140288476Y-30479500D01*
X140240857Y-30527119D01*
X139288476Y-31431880D02*
X139859904Y-31431880D01*
X139574190Y-31431880D02*
X139574190Y-30431880D01*
X139669428Y-30574738D01*
X139764666Y-30669976D01*
X139859904Y-30717595D01*
X138955142Y-30431880D02*
X138336095Y-30431880D01*
X138669428Y-30812833D01*
X138526571Y-30812833D01*
X138431333Y-30860452D01*
X138383714Y-30908071D01*
X138336095Y-31003309D01*
X138336095Y-31241404D01*
X138383714Y-31336642D01*
X138431333Y-31384261D01*
X138526571Y-31431880D01*
X138812285Y-31431880D01*
X138907523Y-31384261D01*
X138955142Y-31336642D01*
%TO.C,C18*%
X151074357Y-27471642D02*
X151121976Y-27519261D01*
X151264833Y-27566880D01*
X151360071Y-27566880D01*
X151502928Y-27519261D01*
X151598166Y-27424023D01*
X151645785Y-27328785D01*
X151693404Y-27138309D01*
X151693404Y-26995452D01*
X151645785Y-26804976D01*
X151598166Y-26709738D01*
X151502928Y-26614500D01*
X151360071Y-26566880D01*
X151264833Y-26566880D01*
X151121976Y-26614500D01*
X151074357Y-26662119D01*
X150121976Y-27566880D02*
X150693404Y-27566880D01*
X150407690Y-27566880D02*
X150407690Y-26566880D01*
X150502928Y-26709738D01*
X150598166Y-26804976D01*
X150693404Y-26852595D01*
X149550547Y-26995452D02*
X149645785Y-26947833D01*
X149693404Y-26900214D01*
X149741023Y-26804976D01*
X149741023Y-26757357D01*
X149693404Y-26662119D01*
X149645785Y-26614500D01*
X149550547Y-26566880D01*
X149360071Y-26566880D01*
X149264833Y-26614500D01*
X149217214Y-26662119D01*
X149169595Y-26757357D01*
X149169595Y-26804976D01*
X149217214Y-26900214D01*
X149264833Y-26947833D01*
X149360071Y-26995452D01*
X149550547Y-26995452D01*
X149645785Y-27043071D01*
X149693404Y-27090690D01*
X149741023Y-27185928D01*
X149741023Y-27376404D01*
X149693404Y-27471642D01*
X149645785Y-27519261D01*
X149550547Y-27566880D01*
X149360071Y-27566880D01*
X149264833Y-27519261D01*
X149217214Y-27471642D01*
X149169595Y-27376404D01*
X149169595Y-27185928D01*
X149217214Y-27090690D01*
X149264833Y-27043071D01*
X149360071Y-26995452D01*
%TO.C,X1*%
X160488380Y-46942476D02*
X161488380Y-47609142D01*
X160488380Y-47609142D02*
X161488380Y-46942476D01*
X161488380Y-48513904D02*
X161488380Y-47942476D01*
X161488380Y-48228190D02*
X160488380Y-48228190D01*
X160631238Y-48132952D01*
X160726476Y-48037714D01*
X160774095Y-47942476D01*
%TO.C,R18*%
X169362357Y-26550880D02*
X169695690Y-26074690D01*
X169933785Y-26550880D02*
X169933785Y-25550880D01*
X169552833Y-25550880D01*
X169457595Y-25598500D01*
X169409976Y-25646119D01*
X169362357Y-25741357D01*
X169362357Y-25884214D01*
X169409976Y-25979452D01*
X169457595Y-26027071D01*
X169552833Y-26074690D01*
X169933785Y-26074690D01*
X168409976Y-26550880D02*
X168981404Y-26550880D01*
X168695690Y-26550880D02*
X168695690Y-25550880D01*
X168790928Y-25693738D01*
X168886166Y-25788976D01*
X168981404Y-25836595D01*
X167838547Y-25979452D02*
X167933785Y-25931833D01*
X167981404Y-25884214D01*
X168029023Y-25788976D01*
X168029023Y-25741357D01*
X167981404Y-25646119D01*
X167933785Y-25598500D01*
X167838547Y-25550880D01*
X167648071Y-25550880D01*
X167552833Y-25598500D01*
X167505214Y-25646119D01*
X167457595Y-25741357D01*
X167457595Y-25788976D01*
X167505214Y-25884214D01*
X167552833Y-25931833D01*
X167648071Y-25979452D01*
X167838547Y-25979452D01*
X167933785Y-26027071D01*
X167981404Y-26074690D01*
X168029023Y-26169928D01*
X168029023Y-26360404D01*
X167981404Y-26455642D01*
X167933785Y-26503261D01*
X167838547Y-26550880D01*
X167648071Y-26550880D01*
X167552833Y-26503261D01*
X167505214Y-26455642D01*
X167457595Y-26360404D01*
X167457595Y-26169928D01*
X167505214Y-26074690D01*
X167552833Y-26027071D01*
X167648071Y-25979452D01*
%TO.C,R17*%
X152661857Y-31440380D02*
X152995190Y-30964190D01*
X153233285Y-31440380D02*
X153233285Y-30440380D01*
X152852333Y-30440380D01*
X152757095Y-30488000D01*
X152709476Y-30535619D01*
X152661857Y-30630857D01*
X152661857Y-30773714D01*
X152709476Y-30868952D01*
X152757095Y-30916571D01*
X152852333Y-30964190D01*
X153233285Y-30964190D01*
X151709476Y-31440380D02*
X152280904Y-31440380D01*
X151995190Y-31440380D02*
X151995190Y-30440380D01*
X152090428Y-30583238D01*
X152185666Y-30678476D01*
X152280904Y-30726095D01*
X151376142Y-30440380D02*
X150709476Y-30440380D01*
X151138047Y-31440380D01*
%TO.C,R15*%
X152661857Y-21137380D02*
X152995190Y-20661190D01*
X153233285Y-21137380D02*
X153233285Y-20137380D01*
X152852333Y-20137380D01*
X152757095Y-20185000D01*
X152709476Y-20232619D01*
X152661857Y-20327857D01*
X152661857Y-20470714D01*
X152709476Y-20565952D01*
X152757095Y-20613571D01*
X152852333Y-20661190D01*
X153233285Y-20661190D01*
X151709476Y-21137380D02*
X152280904Y-21137380D01*
X151995190Y-21137380D02*
X151995190Y-20137380D01*
X152090428Y-20280238D01*
X152185666Y-20375476D01*
X152280904Y-20423095D01*
X150804714Y-20137380D02*
X151280904Y-20137380D01*
X151328523Y-20613571D01*
X151280904Y-20565952D01*
X151185666Y-20518333D01*
X150947571Y-20518333D01*
X150852333Y-20565952D01*
X150804714Y-20613571D01*
X150757095Y-20708809D01*
X150757095Y-20946904D01*
X150804714Y-21042142D01*
X150852333Y-21089761D01*
X150947571Y-21137380D01*
X151185666Y-21137380D01*
X151280904Y-21089761D01*
X151328523Y-21042142D01*
%TO.C,C8*%
X155322166Y-34511642D02*
X155369785Y-34559261D01*
X155512642Y-34606880D01*
X155607880Y-34606880D01*
X155750738Y-34559261D01*
X155845976Y-34464023D01*
X155893595Y-34368785D01*
X155941214Y-34178309D01*
X155941214Y-34035452D01*
X155893595Y-33844976D01*
X155845976Y-33749738D01*
X155750738Y-33654500D01*
X155607880Y-33606880D01*
X155512642Y-33606880D01*
X155369785Y-33654500D01*
X155322166Y-33702119D01*
X154750738Y-34035452D02*
X154845976Y-33987833D01*
X154893595Y-33940214D01*
X154941214Y-33844976D01*
X154941214Y-33797357D01*
X154893595Y-33702119D01*
X154845976Y-33654500D01*
X154750738Y-33606880D01*
X154560261Y-33606880D01*
X154465023Y-33654500D01*
X154417404Y-33702119D01*
X154369785Y-33797357D01*
X154369785Y-33844976D01*
X154417404Y-33940214D01*
X154465023Y-33987833D01*
X154560261Y-34035452D01*
X154750738Y-34035452D01*
X154845976Y-34083071D01*
X154893595Y-34130690D01*
X154941214Y-34225928D01*
X154941214Y-34416404D01*
X154893595Y-34511642D01*
X154845976Y-34559261D01*
X154750738Y-34606880D01*
X154560261Y-34606880D01*
X154465023Y-34559261D01*
X154417404Y-34511642D01*
X154369785Y-34416404D01*
X154369785Y-34225928D01*
X154417404Y-34130690D01*
X154465023Y-34083071D01*
X154560261Y-34035452D01*
%TD*%
M02*
