%TF.GenerationSoftware,KiCad,Pcbnew,(5.1.8-0-10_14)*%
%TF.CreationDate,2022-04-27T14:32:14-05:00*%
%TF.ProjectId,SAQ_KiCad_one,5341515f-4b69-4436-9164-5f6f6e652e6b,rev?*%
%TF.SameCoordinates,Original*%
%TF.FileFunction,Copper,L2,Bot*%
%TF.FilePolarity,Positive*%
%FSLAX46Y46*%
G04 Gerber Fmt 4.6, Leading zero omitted, Abs format (unit mm)*
G04 Created by KiCad (PCBNEW (5.1.8-0-10_14)) date 2022-04-27 14:32:14*
%MOMM*%
%LPD*%
G01*
G04 APERTURE LIST*
%TA.AperFunction,ComponentPad*%
%ADD10O,1.400000X1.400000*%
%TD*%
%TA.AperFunction,ComponentPad*%
%ADD11C,1.400000*%
%TD*%
%TA.AperFunction,ComponentPad*%
%ADD12O,0.850000X0.850000*%
%TD*%
%TA.AperFunction,ComponentPad*%
%ADD13R,0.850000X0.850000*%
%TD*%
%TA.AperFunction,ComponentPad*%
%ADD14R,1.500000X1.050000*%
%TD*%
%TA.AperFunction,ComponentPad*%
%ADD15O,1.500000X1.050000*%
%TD*%
%TA.AperFunction,ComponentPad*%
%ADD16R,2.500000X2.500000*%
%TD*%
%TA.AperFunction,ComponentPad*%
%ADD17C,4.000000*%
%TD*%
%TA.AperFunction,ComponentPad*%
%ADD18C,2.250000*%
%TD*%
%TA.AperFunction,ComponentPad*%
%ADD19C,2.050000*%
%TD*%
%TA.AperFunction,ComponentPad*%
%ADD20C,2.500000*%
%TD*%
%TA.AperFunction,ComponentPad*%
%ADD21O,3.500000X2.200000*%
%TD*%
%TA.AperFunction,ComponentPad*%
%ADD22O,2.500000X1.500000*%
%TD*%
%TA.AperFunction,ComponentPad*%
%ADD23R,2.500000X1.500000*%
%TD*%
%TA.AperFunction,ViaPad*%
%ADD24C,0.800000*%
%TD*%
%TA.AperFunction,Conductor*%
%ADD25C,0.350000*%
%TD*%
%TA.AperFunction,Conductor*%
%ADD26C,0.250000*%
%TD*%
%TA.AperFunction,Conductor*%
%ADD27C,0.254000*%
%TD*%
%TA.AperFunction,Conductor*%
%ADD28C,0.100000*%
%TD*%
G04 APERTURE END LIST*
D10*
%TO.P,JP1,2*%
%TO.N,Net-(JP2-Pad2)*%
X130937000Y-32893000D03*
D11*
%TO.P,JP1,1*%
%TO.N,Net-(JP2-Pad1)*%
X128397000Y-32893000D03*
%TD*%
D12*
%TO.P,LATCH,2*%
%TO.N,GND*%
X162417000Y-27051000D03*
D13*
%TO.P,LATCH,1*%
%TO.N,Net-(R23-Pad1)*%
X161417000Y-27051000D03*
%TD*%
D12*
%TO.P,RESET,2*%
%TO.N,GND*%
X155114500Y-37655500D03*
D13*
%TO.P,RESET,1*%
%TO.N,Net-(R22-Pad1)*%
X154114500Y-37655500D03*
%TD*%
D12*
%TO.P,INT/4,2*%
%TO.N,GND*%
X168322500Y-38989000D03*
D13*
%TO.P,INT/4,1*%
%TO.N,Net-(R21-Pad1)*%
X167322500Y-38989000D03*
%TD*%
D12*
%TO.P,INT-OUT,2*%
%TO.N,GND*%
X148198000Y-40299000D03*
D13*
%TO.P,INT-OUT,1*%
%TO.N,Net-(R20-Pad1)*%
X147198000Y-40299000D03*
%TD*%
D12*
%TO.P,INPUT,2*%
%TO.N,GND*%
X129714500Y-26924000D03*
D13*
%TO.P,INPUT,1*%
%TO.N,Net-(R19-Pad1)*%
X128714500Y-26924000D03*
%TD*%
D10*
%TO.P,R1,2*%
%TO.N,Net-(J1-Pad1)*%
X116776500Y-45021500D03*
D11*
%TO.P,R1,1*%
%TO.N,Net-(R1-Pad1)*%
X116776500Y-37401500D03*
%TD*%
D14*
%TO.P,U4,1*%
%TO.N,+9V*%
X117792500Y-51943000D03*
D15*
%TO.P,U4,3*%
%TO.N,Net-(J3-Pad1)*%
X117792500Y-54483000D03*
%TO.P,U4,2*%
%TO.N,GND*%
X117792500Y-53213000D03*
%TD*%
D14*
%TO.P,U2,1*%
%TO.N,GND*%
X117792500Y-64579500D03*
D15*
%TO.P,U2,3*%
%TO.N,-15V*%
X117792500Y-67119500D03*
%TO.P,U2,2*%
%TO.N,Net-(J3-Pad3)*%
X117792500Y-65849500D03*
%TD*%
D14*
%TO.P,U1,1*%
%TO.N,+15V*%
X117792500Y-58483500D03*
D15*
%TO.P,U1,3*%
%TO.N,Net-(J3-Pad1)*%
X117792500Y-61023500D03*
%TO.P,U1,2*%
%TO.N,GND*%
X117792500Y-59753500D03*
%TD*%
D16*
%TO.P,VDD,1*%
%TO.N,VDD*%
X129349500Y-55372000D03*
%TD*%
%TO.P,+9,1*%
%TO.N,+9V*%
X137922000Y-55372000D03*
%TD*%
D17*
%TO.P,GND,1*%
%TO.N,GND*%
X108839000Y-19494500D03*
%TD*%
D16*
%TO.P,+5,1*%
%TO.N,+5V*%
X160337500Y-55943500D03*
%TD*%
%TO.P,-15,1*%
%TO.N,-15V*%
X167132000Y-55897001D03*
%TD*%
%TO.P,+15,1*%
%TO.N,+15V*%
X145732500Y-55435500D03*
%TD*%
D18*
%TO.P,OUT,2*%
%TO.N,GND*%
X163385500Y-22479000D03*
X163385500Y-17399000D03*
X168465500Y-17399000D03*
X168465500Y-22479000D03*
D19*
%TO.P,OUT,1*%
%TO.N,Net-(J4-Pad1)*%
X165925500Y-19939000D03*
%TD*%
D20*
%TO.P,POWER,3*%
%TO.N,Net-(J3-Pad3)*%
X108902500Y-65943500D03*
%TO.P,POWER,2*%
%TO.N,GND*%
X108902500Y-60943500D03*
D16*
%TO.P,POWER,1*%
%TO.N,Net-(J3-Pad1)*%
X108902500Y-55943500D03*
%TD*%
D18*
%TO.P,I-IN,2*%
%TO.N,GND*%
X107886500Y-29019500D03*
X112966500Y-29019500D03*
X112966500Y-34099500D03*
X107886500Y-34099500D03*
D19*
%TO.P,I-IN,1*%
%TO.N,Net-(J2-Pad1)*%
X110426500Y-31559500D03*
%TD*%
D18*
%TO.P,V-IN,2*%
%TO.N,GND*%
X113030000Y-47307500D03*
X107950000Y-47307500D03*
X107950000Y-42227500D03*
X113030000Y-42227500D03*
D19*
%TO.P,V-IN,1*%
%TO.N,Net-(J1-Pad1)*%
X110490000Y-44767500D03*
%TD*%
%TO.P,C10,2*%
%TO.N,GND*%
%TA.AperFunction,SMDPad,CuDef*%
G36*
G01*
X159018000Y-42783997D02*
X159018000Y-44084003D01*
G75*
G02*
X158768003Y-44334000I-249997J0D01*
G01*
X157942997Y-44334000D01*
G75*
G02*
X157693000Y-44084003I0J249997D01*
G01*
X157693000Y-42783997D01*
G75*
G02*
X157942997Y-42534000I249997J0D01*
G01*
X158768003Y-42534000D01*
G75*
G02*
X159018000Y-42783997I0J-249997D01*
G01*
G37*
%TD.AperFunction*%
%TO.P,C10,1*%
%TO.N,+15V*%
%TA.AperFunction,SMDPad,CuDef*%
G36*
G01*
X162143000Y-42783997D02*
X162143000Y-44084003D01*
G75*
G02*
X161893003Y-44334000I-249997J0D01*
G01*
X161067997Y-44334000D01*
G75*
G02*
X160818000Y-44084003I0J249997D01*
G01*
X160818000Y-42783997D01*
G75*
G02*
X161067997Y-42534000I249997J0D01*
G01*
X161893003Y-42534000D01*
G75*
G02*
X162143000Y-42783997I0J-249997D01*
G01*
G37*
%TD.AperFunction*%
%TD*%
%TO.P,C13,2*%
%TO.N,GND*%
%TA.AperFunction,SMDPad,CuDef*%
G36*
G01*
X156961000Y-35671997D02*
X156961000Y-36972003D01*
G75*
G02*
X156711003Y-37222000I-249997J0D01*
G01*
X155885997Y-37222000D01*
G75*
G02*
X155636000Y-36972003I0J249997D01*
G01*
X155636000Y-35671997D01*
G75*
G02*
X155885997Y-35422000I249997J0D01*
G01*
X156711003Y-35422000D01*
G75*
G02*
X156961000Y-35671997I0J-249997D01*
G01*
G37*
%TD.AperFunction*%
%TO.P,C13,1*%
%TO.N,+9V*%
%TA.AperFunction,SMDPad,CuDef*%
G36*
G01*
X160086000Y-35671997D02*
X160086000Y-36972003D01*
G75*
G02*
X159836003Y-37222000I-249997J0D01*
G01*
X159010997Y-37222000D01*
G75*
G02*
X158761000Y-36972003I0J249997D01*
G01*
X158761000Y-35671997D01*
G75*
G02*
X159010997Y-35422000I249997J0D01*
G01*
X159836003Y-35422000D01*
G75*
G02*
X160086000Y-35671997I0J-249997D01*
G01*
G37*
%TD.AperFunction*%
%TD*%
%TO.P,C11,2*%
%TO.N,GND*%
%TA.AperFunction,SMDPad,CuDef*%
G36*
G01*
X159777000Y-50434003D02*
X159777000Y-49133997D01*
G75*
G02*
X160026997Y-48884000I249997J0D01*
G01*
X160852003Y-48884000D01*
G75*
G02*
X161102000Y-49133997I0J-249997D01*
G01*
X161102000Y-50434003D01*
G75*
G02*
X160852003Y-50684000I-249997J0D01*
G01*
X160026997Y-50684000D01*
G75*
G02*
X159777000Y-50434003I0J249997D01*
G01*
G37*
%TD.AperFunction*%
%TO.P,C11,1*%
%TO.N,-15V*%
%TA.AperFunction,SMDPad,CuDef*%
G36*
G01*
X156652000Y-50434003D02*
X156652000Y-49133997D01*
G75*
G02*
X156901997Y-48884000I249997J0D01*
G01*
X157727003Y-48884000D01*
G75*
G02*
X157977000Y-49133997I0J-249997D01*
G01*
X157977000Y-50434003D01*
G75*
G02*
X157727003Y-50684000I-249997J0D01*
G01*
X156901997Y-50684000D01*
G75*
G02*
X156652000Y-50434003I0J249997D01*
G01*
G37*
%TD.AperFunction*%
%TD*%
D21*
%TO.P,SW1,*%
%TO.N,*%
X121856500Y-31424000D03*
X121856500Y-39624000D03*
D22*
%TO.P,SW1,3*%
%TO.N,Net-(J2-Pad1)*%
X121856500Y-33524000D03*
%TO.P,SW1,2*%
%TO.N,Net-(Q1-Pad2)*%
X121856500Y-35524000D03*
D23*
%TO.P,SW1,1*%
%TO.N,Net-(R1-Pad1)*%
X121856500Y-37524000D03*
%TD*%
%TO.P,C9,2*%
%TO.N,GND*%
%TA.AperFunction,SMDPad,CuDef*%
G36*
G01*
X138414997Y-39825500D02*
X139715003Y-39825500D01*
G75*
G02*
X139965000Y-40075497I0J-249997D01*
G01*
X139965000Y-40900503D01*
G75*
G02*
X139715003Y-41150500I-249997J0D01*
G01*
X138414997Y-41150500D01*
G75*
G02*
X138165000Y-40900503I0J249997D01*
G01*
X138165000Y-40075497D01*
G75*
G02*
X138414997Y-39825500I249997J0D01*
G01*
G37*
%TD.AperFunction*%
%TO.P,C9,1*%
%TO.N,-15V*%
%TA.AperFunction,SMDPad,CuDef*%
G36*
G01*
X138414997Y-36700500D02*
X139715003Y-36700500D01*
G75*
G02*
X139965000Y-36950497I0J-249997D01*
G01*
X139965000Y-37775503D01*
G75*
G02*
X139715003Y-38025500I-249997J0D01*
G01*
X138414997Y-38025500D01*
G75*
G02*
X138165000Y-37775503I0J249997D01*
G01*
X138165000Y-36950497D01*
G75*
G02*
X138414997Y-36700500I249997J0D01*
G01*
G37*
%TD.AperFunction*%
%TD*%
%TO.P,C8,2*%
%TO.N,GND*%
%TA.AperFunction,SMDPad,CuDef*%
G36*
G01*
X135879000Y-27162997D02*
X135879000Y-28463003D01*
G75*
G02*
X135629003Y-28713000I-249997J0D01*
G01*
X134803997Y-28713000D01*
G75*
G02*
X134554000Y-28463003I0J249997D01*
G01*
X134554000Y-27162997D01*
G75*
G02*
X134803997Y-26913000I249997J0D01*
G01*
X135629003Y-26913000D01*
G75*
G02*
X135879000Y-27162997I0J-249997D01*
G01*
G37*
%TD.AperFunction*%
%TO.P,C8,1*%
%TO.N,+15V*%
%TA.AperFunction,SMDPad,CuDef*%
G36*
G01*
X139004000Y-27162997D02*
X139004000Y-28463003D01*
G75*
G02*
X138754003Y-28713000I-249997J0D01*
G01*
X137928997Y-28713000D01*
G75*
G02*
X137679000Y-28463003I0J249997D01*
G01*
X137679000Y-27162997D01*
G75*
G02*
X137928997Y-26913000I249997J0D01*
G01*
X138754003Y-26913000D01*
G75*
G02*
X139004000Y-27162997I0J-249997D01*
G01*
G37*
%TD.AperFunction*%
%TD*%
D24*
%TO.N,GND*%
X168402000Y-35052000D03*
X161163000Y-29464000D03*
X160528000Y-49530000D03*
X125349000Y-63309500D03*
X126555500Y-60642500D03*
X133350000Y-60007500D03*
X155067000Y-54927500D03*
X140081000Y-60388500D03*
X144399000Y-60007500D03*
X150114000Y-60642500D03*
X154622500Y-59626500D03*
X164719000Y-66040000D03*
X139190500Y-40067000D03*
X123634500Y-46259500D03*
X134240500Y-29148000D03*
X154347500Y-21038500D03*
X160464500Y-63983000D03*
%TO.N,VDD*%
X162623500Y-32131000D03*
X137172700Y-51346100D03*
X165887400Y-51231800D03*
%TO.N,+15V*%
X139190500Y-29084500D03*
X161671000Y-43053000D03*
%TO.N,-15V*%
X156273500Y-48133000D03*
X138493500Y-37274500D03*
%TO.N,Net-(JP1-Pad1)*%
X142430500Y-34734500D03*
%TO.N,+9V*%
X159385000Y-36195000D03*
X164414200Y-52781200D03*
%TO.N,Net-(C12-Pad2)*%
X158432500Y-19939000D03*
X147980000Y-25844500D03*
%TO.N,+5V*%
X147383500Y-36004500D03*
%TO.N,Net-(R7-Pad1)*%
X142494000Y-33464500D03*
%TD*%
D25*
%TO.N,GND*%
X134240500Y-28789000D02*
X135216500Y-27813000D01*
X134240500Y-29148000D02*
X134240500Y-28789000D01*
D26*
%TO.N,VDD*%
X129349500Y-55372000D02*
X133146800Y-55372000D01*
X133146800Y-55372000D02*
X137172700Y-51346100D01*
X137172700Y-51346100D02*
X137261600Y-51257200D01*
X162623500Y-37223700D02*
X162623500Y-32131000D01*
X162534600Y-37312600D02*
X162623500Y-37223700D01*
X165887400Y-40665400D02*
X165430200Y-40208200D01*
X165887400Y-51231800D02*
X165887400Y-40665400D01*
X165430200Y-40208200D02*
X162534600Y-37312600D01*
D25*
%TO.N,Net-(J3-Pad1)*%
X113982500Y-61023500D02*
X117792500Y-61023500D01*
X108902500Y-55943500D02*
X113982500Y-61023500D01*
%TO.N,+15V*%
X142684500Y-58483500D02*
X145732500Y-55435500D01*
X117792500Y-58483500D02*
X142684500Y-58483500D01*
X139190500Y-28662000D02*
X138341500Y-27813000D01*
X139190500Y-29084500D02*
X139190500Y-28662000D01*
D26*
X145732500Y-55435500D02*
X145732500Y-30899100D01*
X143917900Y-29084500D02*
X139190500Y-29084500D01*
X145732500Y-30899100D02*
X143917900Y-29084500D01*
X159334200Y-40716200D02*
X154609800Y-40716200D01*
X161671000Y-43053000D02*
X159334200Y-40716200D01*
X154609800Y-39776400D02*
X145732500Y-30899100D01*
X154609800Y-40716200D02*
X154609800Y-39776400D01*
D25*
%TO.N,-15V*%
X157314500Y-49174000D02*
X156273500Y-48133000D01*
X157314500Y-49784000D02*
X157314500Y-49174000D01*
D26*
X163427501Y-55897001D02*
X157314500Y-49784000D01*
X167132000Y-55897001D02*
X163427501Y-55897001D01*
%TO.N,+9V*%
X164414200Y-41312700D02*
X159423500Y-36322000D01*
X164414200Y-52781200D02*
X164414200Y-41312700D01*
D25*
%TO.N,Net-(C12-Pad2)*%
X152985500Y-19939000D02*
X158432500Y-19939000D01*
X147980000Y-24944500D02*
X152985500Y-19939000D01*
X147980000Y-25844500D02*
X147980000Y-24944500D01*
D26*
%TO.N,+5V*%
X153085800Y-49352200D02*
X153085800Y-41706800D01*
X159677100Y-55943500D02*
X153085800Y-49352200D01*
X153085800Y-41706800D02*
X147383500Y-36004500D01*
X160337500Y-55943500D02*
X159677100Y-55943500D01*
%TD*%
D27*
%TO.N,GND*%
X162984120Y-15676634D02*
X162655815Y-15788034D01*
X162451421Y-15897286D01*
X162340574Y-16174469D01*
X163385500Y-17219395D01*
X164430426Y-16174469D01*
X164319579Y-15897286D01*
X164008660Y-15743911D01*
X163695654Y-15660000D01*
X168190588Y-15660000D01*
X168064120Y-15676634D01*
X167735815Y-15788034D01*
X167531421Y-15897286D01*
X167420574Y-16174469D01*
X168465500Y-17219395D01*
X169510426Y-16174469D01*
X169399579Y-15897286D01*
X169088660Y-15743911D01*
X168775654Y-15660000D01*
X170340000Y-15660000D01*
X170340001Y-68340000D01*
X104660000Y-68340000D01*
X104660000Y-65757844D01*
X107017500Y-65757844D01*
X107017500Y-66129156D01*
X107089939Y-66493334D01*
X107232034Y-66836382D01*
X107438325Y-67145118D01*
X107700882Y-67407675D01*
X108009618Y-67613966D01*
X108352666Y-67756061D01*
X108716844Y-67828500D01*
X109088156Y-67828500D01*
X109452334Y-67756061D01*
X109795382Y-67613966D01*
X110104118Y-67407675D01*
X110366675Y-67145118D01*
X110572966Y-66836382D01*
X110715061Y-66493334D01*
X110787500Y-66129156D01*
X110787500Y-65849500D01*
X116401888Y-65849500D01*
X116424285Y-66076900D01*
X116490615Y-66295560D01*
X116591605Y-66484500D01*
X116490615Y-66673440D01*
X116424285Y-66892100D01*
X116401888Y-67119500D01*
X116424285Y-67346900D01*
X116490615Y-67565560D01*
X116598329Y-67767079D01*
X116743288Y-67943712D01*
X116919921Y-68088671D01*
X117121440Y-68196385D01*
X117340100Y-68262715D01*
X117510521Y-68279500D01*
X118074479Y-68279500D01*
X118244900Y-68262715D01*
X118463560Y-68196385D01*
X118665079Y-68088671D01*
X118841712Y-67943712D01*
X118986671Y-67767079D01*
X119094385Y-67565560D01*
X119160715Y-67346900D01*
X119183112Y-67119500D01*
X119160715Y-66892100D01*
X119094385Y-66673440D01*
X118993395Y-66484500D01*
X119094385Y-66295560D01*
X119160715Y-66076900D01*
X119183112Y-65849500D01*
X119160715Y-65622100D01*
X119097407Y-65413402D01*
X119132002Y-65348680D01*
X119168312Y-65228982D01*
X119180572Y-65104500D01*
X119177500Y-64865250D01*
X119018750Y-64706500D01*
X118245609Y-64706500D01*
X118244900Y-64706285D01*
X118074479Y-64689500D01*
X117510521Y-64689500D01*
X117340100Y-64706285D01*
X117339391Y-64706500D01*
X116566250Y-64706500D01*
X116407500Y-64865250D01*
X116404428Y-65104500D01*
X116416688Y-65228982D01*
X116452998Y-65348680D01*
X116487593Y-65413402D01*
X116424285Y-65622100D01*
X116401888Y-65849500D01*
X110787500Y-65849500D01*
X110787500Y-65757844D01*
X110715061Y-65393666D01*
X110572966Y-65050618D01*
X110366675Y-64741882D01*
X110104118Y-64479325D01*
X109795382Y-64273034D01*
X109452334Y-64130939D01*
X109088156Y-64058500D01*
X108716844Y-64058500D01*
X108352666Y-64130939D01*
X108009618Y-64273034D01*
X107700882Y-64479325D01*
X107438325Y-64741882D01*
X107232034Y-65050618D01*
X107089939Y-65393666D01*
X107017500Y-65757844D01*
X104660000Y-65757844D01*
X104660000Y-64054500D01*
X116404428Y-64054500D01*
X116407500Y-64293750D01*
X116566250Y-64452500D01*
X117665500Y-64452500D01*
X117665500Y-63578250D01*
X117919500Y-63578250D01*
X117919500Y-64452500D01*
X119018750Y-64452500D01*
X119177500Y-64293750D01*
X119180572Y-64054500D01*
X119168312Y-63930018D01*
X119132002Y-63810320D01*
X119073037Y-63700006D01*
X118993685Y-63603315D01*
X118896994Y-63523963D01*
X118786680Y-63464998D01*
X118666982Y-63428688D01*
X118542500Y-63416428D01*
X118078250Y-63419500D01*
X117919500Y-63578250D01*
X117665500Y-63578250D01*
X117506750Y-63419500D01*
X117042500Y-63416428D01*
X116918018Y-63428688D01*
X116798320Y-63464998D01*
X116688006Y-63523963D01*
X116591315Y-63603315D01*
X116511963Y-63700006D01*
X116452998Y-63810320D01*
X116416688Y-63930018D01*
X116404428Y-64054500D01*
X104660000Y-64054500D01*
X104660000Y-62257105D01*
X107768500Y-62257105D01*
X107894414Y-62547077D01*
X108226626Y-62712933D01*
X108584812Y-62810790D01*
X108955206Y-62836889D01*
X109323575Y-62790225D01*
X109675762Y-62672594D01*
X109910586Y-62547077D01*
X110036500Y-62257105D01*
X108902500Y-61123105D01*
X107768500Y-62257105D01*
X104660000Y-62257105D01*
X104660000Y-60996206D01*
X107009111Y-60996206D01*
X107055775Y-61364575D01*
X107173406Y-61716762D01*
X107298923Y-61951586D01*
X107588895Y-62077500D01*
X108722895Y-60943500D01*
X109082105Y-60943500D01*
X110216105Y-62077500D01*
X110506077Y-61951586D01*
X110671933Y-61619374D01*
X110769790Y-61261188D01*
X110795889Y-60890794D01*
X110749225Y-60522425D01*
X110631594Y-60170238D01*
X110506077Y-59935414D01*
X110216105Y-59809500D01*
X109082105Y-60943500D01*
X108722895Y-60943500D01*
X107588895Y-59809500D01*
X107298923Y-59935414D01*
X107133067Y-60267626D01*
X107035210Y-60625812D01*
X107009111Y-60996206D01*
X104660000Y-60996206D01*
X104660000Y-59629895D01*
X107768500Y-59629895D01*
X108902500Y-60763895D01*
X110036500Y-59629895D01*
X109910586Y-59339923D01*
X109578374Y-59174067D01*
X109220188Y-59076210D01*
X108849794Y-59050111D01*
X108481425Y-59096775D01*
X108129238Y-59214406D01*
X107894414Y-59339923D01*
X107768500Y-59629895D01*
X104660000Y-59629895D01*
X104660000Y-54693500D01*
X107014428Y-54693500D01*
X107014428Y-57193500D01*
X107026688Y-57317982D01*
X107062998Y-57437680D01*
X107121963Y-57547994D01*
X107201315Y-57644685D01*
X107298006Y-57724037D01*
X107408320Y-57783002D01*
X107528018Y-57819312D01*
X107652500Y-57831572D01*
X109645060Y-57831572D01*
X113381605Y-61568118D01*
X113406972Y-61599028D01*
X113437880Y-61624393D01*
X113530310Y-61700249D01*
X113605524Y-61740451D01*
X113671027Y-61775463D01*
X113823712Y-61821780D01*
X113942709Y-61833500D01*
X113942712Y-61833500D01*
X113982500Y-61837419D01*
X114022288Y-61833500D01*
X116731625Y-61833500D01*
X116743288Y-61847712D01*
X116919921Y-61992671D01*
X117121440Y-62100385D01*
X117340100Y-62166715D01*
X117510521Y-62183500D01*
X118074479Y-62183500D01*
X118244900Y-62166715D01*
X118463560Y-62100385D01*
X118665079Y-61992671D01*
X118841712Y-61847712D01*
X118986671Y-61671079D01*
X119094385Y-61469560D01*
X119160715Y-61250900D01*
X119183112Y-61023500D01*
X119160715Y-60796100D01*
X119094385Y-60577440D01*
X118993571Y-60388831D01*
X119034775Y-60330382D01*
X119127772Y-60120837D01*
X119136464Y-60059310D01*
X119010663Y-59880500D01*
X118245609Y-59880500D01*
X118244900Y-59880285D01*
X118074479Y-59863500D01*
X117510521Y-59863500D01*
X117340100Y-59880285D01*
X117339391Y-59880500D01*
X116574337Y-59880500D01*
X116448536Y-60059310D01*
X116457228Y-60120837D01*
X116498352Y-60213500D01*
X114318013Y-60213500D01*
X112063013Y-57958500D01*
X116404428Y-57958500D01*
X116404428Y-59008500D01*
X116416688Y-59132982D01*
X116452998Y-59252680D01*
X116487676Y-59317557D01*
X116457228Y-59386163D01*
X116448536Y-59447690D01*
X116574337Y-59626500D01*
X116892265Y-59626500D01*
X116918018Y-59634312D01*
X117042500Y-59646572D01*
X118542500Y-59646572D01*
X118666982Y-59634312D01*
X118692735Y-59626500D01*
X119010663Y-59626500D01*
X119136464Y-59447690D01*
X119127772Y-59386163D01*
X119097324Y-59317557D01*
X119110183Y-59293500D01*
X142644712Y-59293500D01*
X142684500Y-59297419D01*
X142724288Y-59293500D01*
X142724291Y-59293500D01*
X142843288Y-59281780D01*
X142995973Y-59235463D01*
X143136689Y-59160249D01*
X143260028Y-59059028D01*
X143285400Y-59028112D01*
X144989941Y-57323572D01*
X146982500Y-57323572D01*
X147106982Y-57311312D01*
X147226680Y-57275002D01*
X147336994Y-57216037D01*
X147433685Y-57136685D01*
X147513037Y-57039994D01*
X147572002Y-56929680D01*
X147608312Y-56809982D01*
X147620572Y-56685500D01*
X147620572Y-54185500D01*
X147608312Y-54061018D01*
X147572002Y-53941320D01*
X147513037Y-53831006D01*
X147433685Y-53734315D01*
X147336994Y-53654963D01*
X147226680Y-53595998D01*
X147106982Y-53559688D01*
X146982500Y-53547428D01*
X146492500Y-53547428D01*
X146492500Y-41294088D01*
X146528820Y-41313502D01*
X146648518Y-41349812D01*
X146773000Y-41362072D01*
X147623000Y-41362072D01*
X147747482Y-41349812D01*
X147867180Y-41313502D01*
X147875917Y-41308832D01*
X147907938Y-41318540D01*
X148071000Y-41191257D01*
X148071000Y-41177799D01*
X148074185Y-41175185D01*
X148153537Y-41078494D01*
X148212502Y-40968180D01*
X148248812Y-40848482D01*
X148261072Y-40724000D01*
X148261072Y-40426000D01*
X148325000Y-40426000D01*
X148325000Y-41191257D01*
X148488062Y-41318540D01*
X148523250Y-41307872D01*
X148713822Y-41225034D01*
X148884571Y-41106609D01*
X149028936Y-40957148D01*
X149141368Y-40782394D01*
X149217547Y-40589064D01*
X149091621Y-40426000D01*
X148325000Y-40426000D01*
X148261072Y-40426000D01*
X148261072Y-39874000D01*
X148248812Y-39749518D01*
X148212502Y-39629820D01*
X148153537Y-39519506D01*
X148074185Y-39422815D01*
X148071000Y-39420201D01*
X148071000Y-39406743D01*
X148325000Y-39406743D01*
X148325000Y-40172000D01*
X149091621Y-40172000D01*
X149217547Y-40008936D01*
X149141368Y-39815606D01*
X149028936Y-39640852D01*
X148884571Y-39491391D01*
X148713822Y-39372966D01*
X148523250Y-39290128D01*
X148488062Y-39279460D01*
X148325000Y-39406743D01*
X148071000Y-39406743D01*
X147907938Y-39279460D01*
X147875917Y-39289168D01*
X147867180Y-39284498D01*
X147747482Y-39248188D01*
X147623000Y-39235928D01*
X146773000Y-39235928D01*
X146648518Y-39248188D01*
X146528820Y-39284498D01*
X146492500Y-39303912D01*
X146492500Y-36533975D01*
X146579563Y-36664274D01*
X146723726Y-36808437D01*
X146893244Y-36921705D01*
X147081602Y-36999726D01*
X147281561Y-37039500D01*
X147343699Y-37039500D01*
X152325801Y-42021603D01*
X152325800Y-49314878D01*
X152322124Y-49352200D01*
X152325800Y-49389522D01*
X152325800Y-49389532D01*
X152336797Y-49501185D01*
X152374716Y-49626188D01*
X152380254Y-49644446D01*
X152450826Y-49776476D01*
X152489656Y-49823790D01*
X152545799Y-49892201D01*
X152574803Y-49916004D01*
X158449428Y-55790630D01*
X158449428Y-57193500D01*
X158461688Y-57317982D01*
X158497998Y-57437680D01*
X158556963Y-57547994D01*
X158636315Y-57644685D01*
X158733006Y-57724037D01*
X158843320Y-57783002D01*
X158963018Y-57819312D01*
X159087500Y-57831572D01*
X161587500Y-57831572D01*
X161711982Y-57819312D01*
X161831680Y-57783002D01*
X161941994Y-57724037D01*
X162038685Y-57644685D01*
X162118037Y-57547994D01*
X162177002Y-57437680D01*
X162213312Y-57317982D01*
X162225572Y-57193500D01*
X162225572Y-55769874D01*
X162863702Y-56408004D01*
X162887500Y-56437002D01*
X162916498Y-56460800D01*
X163003224Y-56531975D01*
X163090217Y-56578474D01*
X163135254Y-56602547D01*
X163278515Y-56646004D01*
X163390168Y-56657001D01*
X163390178Y-56657001D01*
X163427501Y-56660677D01*
X163464824Y-56657001D01*
X165243928Y-56657001D01*
X165243928Y-57147001D01*
X165256188Y-57271483D01*
X165292498Y-57391181D01*
X165351463Y-57501495D01*
X165430815Y-57598186D01*
X165527506Y-57677538D01*
X165637820Y-57736503D01*
X165757518Y-57772813D01*
X165882000Y-57785073D01*
X168382000Y-57785073D01*
X168506482Y-57772813D01*
X168626180Y-57736503D01*
X168736494Y-57677538D01*
X168833185Y-57598186D01*
X168912537Y-57501495D01*
X168971502Y-57391181D01*
X169007812Y-57271483D01*
X169020072Y-57147001D01*
X169020072Y-54647001D01*
X169007812Y-54522519D01*
X168971502Y-54402821D01*
X168912537Y-54292507D01*
X168833185Y-54195816D01*
X168736494Y-54116464D01*
X168626180Y-54057499D01*
X168506482Y-54021189D01*
X168382000Y-54008929D01*
X165882000Y-54008929D01*
X165757518Y-54021189D01*
X165637820Y-54057499D01*
X165527506Y-54116464D01*
X165430815Y-54195816D01*
X165351463Y-54292507D01*
X165292498Y-54402821D01*
X165256188Y-54522519D01*
X165243928Y-54647001D01*
X165243928Y-55137001D01*
X163742303Y-55137001D01*
X159926157Y-51320856D01*
X160153750Y-51319000D01*
X160312500Y-51160250D01*
X160312500Y-49911000D01*
X160566500Y-49911000D01*
X160566500Y-51160250D01*
X160725250Y-51319000D01*
X161102000Y-51322072D01*
X161226482Y-51309812D01*
X161346180Y-51273502D01*
X161456494Y-51214537D01*
X161553185Y-51135185D01*
X161632537Y-51038494D01*
X161691502Y-50928180D01*
X161727812Y-50808482D01*
X161740072Y-50684000D01*
X161737000Y-50069750D01*
X161578250Y-49911000D01*
X160566500Y-49911000D01*
X160312500Y-49911000D01*
X159300750Y-49911000D01*
X159142000Y-50069750D01*
X159139676Y-50534375D01*
X158615072Y-50009771D01*
X158615072Y-49133997D01*
X158598008Y-48960743D01*
X158574729Y-48884000D01*
X159138928Y-48884000D01*
X159142000Y-49498250D01*
X159300750Y-49657000D01*
X160312500Y-49657000D01*
X160312500Y-48407750D01*
X160566500Y-48407750D01*
X160566500Y-49657000D01*
X161578250Y-49657000D01*
X161737000Y-49498250D01*
X161740072Y-48884000D01*
X161727812Y-48759518D01*
X161691502Y-48639820D01*
X161632537Y-48529506D01*
X161553185Y-48432815D01*
X161456494Y-48353463D01*
X161346180Y-48294498D01*
X161226482Y-48258188D01*
X161102000Y-48245928D01*
X160725250Y-48249000D01*
X160566500Y-48407750D01*
X160312500Y-48407750D01*
X160153750Y-48249000D01*
X159777000Y-48245928D01*
X159652518Y-48258188D01*
X159532820Y-48294498D01*
X159422506Y-48353463D01*
X159325815Y-48432815D01*
X159246463Y-48529506D01*
X159187498Y-48639820D01*
X159151188Y-48759518D01*
X159138928Y-48884000D01*
X158574729Y-48884000D01*
X158547472Y-48794148D01*
X158465405Y-48640612D01*
X158354963Y-48506037D01*
X158220388Y-48395595D01*
X158066852Y-48313528D01*
X157900257Y-48262992D01*
X157727003Y-48245928D01*
X157531941Y-48245928D01*
X157306371Y-48020359D01*
X157268726Y-47831102D01*
X157190705Y-47642744D01*
X157077437Y-47473226D01*
X156933274Y-47329063D01*
X156763756Y-47215795D01*
X156575398Y-47137774D01*
X156375439Y-47098000D01*
X156171561Y-47098000D01*
X155971602Y-47137774D01*
X155783244Y-47215795D01*
X155613726Y-47329063D01*
X155469563Y-47473226D01*
X155356295Y-47642744D01*
X155278274Y-47831102D01*
X155238500Y-48031061D01*
X155238500Y-48234939D01*
X155278274Y-48434898D01*
X155356295Y-48623256D01*
X155469563Y-48792774D01*
X155613726Y-48936937D01*
X155783244Y-49050205D01*
X155971602Y-49128226D01*
X156013928Y-49136645D01*
X156013928Y-50434003D01*
X156030992Y-50607257D01*
X156081528Y-50773852D01*
X156163595Y-50927388D01*
X156274037Y-51061963D01*
X156408612Y-51172405D01*
X156562148Y-51254472D01*
X156728743Y-51305008D01*
X156901997Y-51322072D01*
X157727003Y-51322072D01*
X157773219Y-51317520D01*
X160511126Y-54055428D01*
X159087500Y-54055428D01*
X158963018Y-54067688D01*
X158896322Y-54087920D01*
X153845800Y-49037399D01*
X153845800Y-44334000D01*
X157054928Y-44334000D01*
X157067188Y-44458482D01*
X157103498Y-44578180D01*
X157162463Y-44688494D01*
X157241815Y-44785185D01*
X157338506Y-44864537D01*
X157448820Y-44923502D01*
X157568518Y-44959812D01*
X157693000Y-44972072D01*
X158069750Y-44969000D01*
X158228500Y-44810250D01*
X158228500Y-43561000D01*
X158482500Y-43561000D01*
X158482500Y-44810250D01*
X158641250Y-44969000D01*
X159018000Y-44972072D01*
X159142482Y-44959812D01*
X159262180Y-44923502D01*
X159372494Y-44864537D01*
X159469185Y-44785185D01*
X159548537Y-44688494D01*
X159607502Y-44578180D01*
X159643812Y-44458482D01*
X159656072Y-44334000D01*
X159653000Y-43719750D01*
X159494250Y-43561000D01*
X158482500Y-43561000D01*
X158228500Y-43561000D01*
X157216750Y-43561000D01*
X157058000Y-43719750D01*
X157054928Y-44334000D01*
X153845800Y-44334000D01*
X153845800Y-42534000D01*
X157054928Y-42534000D01*
X157058000Y-43148250D01*
X157216750Y-43307000D01*
X158228500Y-43307000D01*
X158228500Y-42057750D01*
X158482500Y-42057750D01*
X158482500Y-43307000D01*
X159494250Y-43307000D01*
X159653000Y-43148250D01*
X159656072Y-42534000D01*
X159643812Y-42409518D01*
X159607502Y-42289820D01*
X159548537Y-42179506D01*
X159469185Y-42082815D01*
X159372494Y-42003463D01*
X159262180Y-41944498D01*
X159142482Y-41908188D01*
X159018000Y-41895928D01*
X158641250Y-41899000D01*
X158482500Y-42057750D01*
X158228500Y-42057750D01*
X158069750Y-41899000D01*
X157693000Y-41895928D01*
X157568518Y-41908188D01*
X157448820Y-41944498D01*
X157338506Y-42003463D01*
X157241815Y-42082815D01*
X157162463Y-42179506D01*
X157103498Y-42289820D01*
X157067188Y-42409518D01*
X157054928Y-42534000D01*
X153845800Y-42534000D01*
X153845800Y-41744122D01*
X153849476Y-41706800D01*
X153845800Y-41669477D01*
X153845800Y-41669467D01*
X153834803Y-41557814D01*
X153791346Y-41414553D01*
X153780724Y-41394680D01*
X153720774Y-41282523D01*
X153649599Y-41195797D01*
X153625801Y-41166799D01*
X153596803Y-41143001D01*
X148418500Y-35964699D01*
X148418500Y-35902561D01*
X148378726Y-35702602D01*
X148300705Y-35514244D01*
X148187437Y-35344726D01*
X148043274Y-35200563D01*
X147873756Y-35087295D01*
X147685398Y-35009274D01*
X147485439Y-34969500D01*
X147281561Y-34969500D01*
X147081602Y-35009274D01*
X146893244Y-35087295D01*
X146723726Y-35200563D01*
X146579563Y-35344726D01*
X146492500Y-35475025D01*
X146492500Y-32733901D01*
X153849801Y-40091203D01*
X153849800Y-40678866D01*
X153846123Y-40716200D01*
X153860797Y-40865186D01*
X153904254Y-41008447D01*
X153974826Y-41140476D01*
X154037609Y-41216977D01*
X154069799Y-41256201D01*
X154185524Y-41351174D01*
X154317553Y-41421746D01*
X154460814Y-41465203D01*
X154609800Y-41479877D01*
X154647133Y-41476200D01*
X159019399Y-41476200D01*
X160193132Y-42649934D01*
X160179928Y-42783997D01*
X160179928Y-44084003D01*
X160196992Y-44257257D01*
X160247528Y-44423852D01*
X160329595Y-44577388D01*
X160440037Y-44711963D01*
X160574612Y-44822405D01*
X160728148Y-44904472D01*
X160894743Y-44955008D01*
X161067997Y-44972072D01*
X161893003Y-44972072D01*
X162066257Y-44955008D01*
X162232852Y-44904472D01*
X162386388Y-44822405D01*
X162520963Y-44711963D01*
X162631405Y-44577388D01*
X162713472Y-44423852D01*
X162764008Y-44257257D01*
X162781072Y-44084003D01*
X162781072Y-42783997D01*
X162764008Y-42610743D01*
X162713472Y-42444148D01*
X162631405Y-42290612D01*
X162520963Y-42156037D01*
X162386388Y-42045595D01*
X162232852Y-41963528D01*
X162066257Y-41912992D01*
X161893003Y-41895928D01*
X161588730Y-41895928D01*
X159898004Y-40205203D01*
X159874201Y-40176199D01*
X159758476Y-40081226D01*
X159626447Y-40010654D01*
X159483186Y-39967197D01*
X159371533Y-39956200D01*
X159371522Y-39956200D01*
X159334200Y-39952524D01*
X159296878Y-39956200D01*
X155369800Y-39956200D01*
X155369800Y-39813722D01*
X155373476Y-39776399D01*
X155369800Y-39739076D01*
X155369800Y-39739067D01*
X155358803Y-39627414D01*
X155315346Y-39484153D01*
X155297725Y-39451186D01*
X155244774Y-39352123D01*
X155173599Y-39265397D01*
X155149801Y-39236399D01*
X155120803Y-39212601D01*
X154618949Y-38710747D01*
X154663982Y-38706312D01*
X154783680Y-38670002D01*
X154792417Y-38665332D01*
X154824438Y-38675040D01*
X154987500Y-38547757D01*
X154987500Y-38534299D01*
X154990685Y-38531685D01*
X155070037Y-38434994D01*
X155129002Y-38324680D01*
X155165312Y-38204982D01*
X155177572Y-38080500D01*
X155177572Y-37664359D01*
X155184815Y-37673185D01*
X155281506Y-37752537D01*
X155337562Y-37782500D01*
X155241500Y-37782500D01*
X155241500Y-38547757D01*
X155404562Y-38675040D01*
X155439750Y-38664372D01*
X155630322Y-38581534D01*
X155801071Y-38463109D01*
X155945436Y-38313648D01*
X156057868Y-38138894D01*
X156134047Y-37945564D01*
X156042601Y-37827149D01*
X156171500Y-37698250D01*
X156171500Y-36449000D01*
X156425500Y-36449000D01*
X156425500Y-37698250D01*
X156584250Y-37857000D01*
X156961000Y-37860072D01*
X157085482Y-37847812D01*
X157205180Y-37811502D01*
X157315494Y-37752537D01*
X157412185Y-37673185D01*
X157491537Y-37576494D01*
X157550502Y-37466180D01*
X157586812Y-37346482D01*
X157599072Y-37222000D01*
X157596000Y-36607750D01*
X157437250Y-36449000D01*
X156425500Y-36449000D01*
X156171500Y-36449000D01*
X155159750Y-36449000D01*
X155013250Y-36595500D01*
X154987498Y-36595500D01*
X154987498Y-36763241D01*
X154824438Y-36635960D01*
X154792417Y-36645668D01*
X154783680Y-36640998D01*
X154663982Y-36604688D01*
X154539500Y-36592428D01*
X153689500Y-36592428D01*
X153565018Y-36604688D01*
X153445320Y-36640998D01*
X153335006Y-36699963D01*
X153238315Y-36779315D01*
X153158963Y-36876006D01*
X153099998Y-36986320D01*
X153063688Y-37106018D01*
X153059253Y-37151051D01*
X151330202Y-35422000D01*
X154997928Y-35422000D01*
X155001000Y-36036250D01*
X155159750Y-36195000D01*
X156171500Y-36195000D01*
X156171500Y-34945750D01*
X156425500Y-34945750D01*
X156425500Y-36195000D01*
X157437250Y-36195000D01*
X157596000Y-36036250D01*
X157597821Y-35671997D01*
X158122928Y-35671997D01*
X158122928Y-36972003D01*
X158139992Y-37145257D01*
X158190528Y-37311852D01*
X158272595Y-37465388D01*
X158383037Y-37599963D01*
X158517612Y-37710405D01*
X158671148Y-37792472D01*
X158837743Y-37843008D01*
X159010997Y-37860072D01*
X159836003Y-37860072D01*
X159882219Y-37855520D01*
X163654201Y-41627503D01*
X163654200Y-52077489D01*
X163610263Y-52121426D01*
X163496995Y-52290944D01*
X163418974Y-52479302D01*
X163379200Y-52679261D01*
X163379200Y-52883139D01*
X163418974Y-53083098D01*
X163496995Y-53271456D01*
X163610263Y-53440974D01*
X163754426Y-53585137D01*
X163923944Y-53698405D01*
X164112302Y-53776426D01*
X164312261Y-53816200D01*
X164516139Y-53816200D01*
X164716098Y-53776426D01*
X164904456Y-53698405D01*
X165073974Y-53585137D01*
X165218137Y-53440974D01*
X165331405Y-53271456D01*
X165409426Y-53083098D01*
X165449200Y-52883139D01*
X165449200Y-52679261D01*
X165409426Y-52479302D01*
X165331405Y-52290944D01*
X165218137Y-52121426D01*
X165174200Y-52077489D01*
X165174200Y-51982311D01*
X165227626Y-52035737D01*
X165397144Y-52149005D01*
X165585502Y-52227026D01*
X165785461Y-52266800D01*
X165989339Y-52266800D01*
X166189298Y-52227026D01*
X166377656Y-52149005D01*
X166547174Y-52035737D01*
X166691337Y-51891574D01*
X166804605Y-51722056D01*
X166882626Y-51533698D01*
X166922400Y-51333739D01*
X166922400Y-51129861D01*
X166882626Y-50929902D01*
X166804605Y-50741544D01*
X166691337Y-50572026D01*
X166647400Y-50528089D01*
X166647400Y-40702722D01*
X166651076Y-40665399D01*
X166647400Y-40628076D01*
X166647400Y-40628067D01*
X166636403Y-40516414D01*
X166592946Y-40373153D01*
X166522374Y-40241124D01*
X166427401Y-40125399D01*
X166398402Y-40101600D01*
X165994003Y-39697202D01*
X165993999Y-39697197D01*
X164860802Y-38564000D01*
X166259428Y-38564000D01*
X166259428Y-39414000D01*
X166271688Y-39538482D01*
X166307998Y-39658180D01*
X166366963Y-39768494D01*
X166446315Y-39865185D01*
X166543006Y-39944537D01*
X166653320Y-40003502D01*
X166773018Y-40039812D01*
X166897500Y-40052072D01*
X167747500Y-40052072D01*
X167871982Y-40039812D01*
X167991680Y-40003502D01*
X168000417Y-39998832D01*
X168032438Y-40008540D01*
X168195500Y-39881257D01*
X168195500Y-39867799D01*
X168198685Y-39865185D01*
X168278037Y-39768494D01*
X168337002Y-39658180D01*
X168373312Y-39538482D01*
X168385572Y-39414000D01*
X168385572Y-39116000D01*
X168449500Y-39116000D01*
X168449500Y-39881257D01*
X168612562Y-40008540D01*
X168647750Y-39997872D01*
X168838322Y-39915034D01*
X169009071Y-39796609D01*
X169153436Y-39647148D01*
X169265868Y-39472394D01*
X169342047Y-39279064D01*
X169216121Y-39116000D01*
X168449500Y-39116000D01*
X168385572Y-39116000D01*
X168385572Y-38564000D01*
X168373312Y-38439518D01*
X168337002Y-38319820D01*
X168278037Y-38209506D01*
X168198685Y-38112815D01*
X168195500Y-38110201D01*
X168195500Y-38096743D01*
X168449500Y-38096743D01*
X168449500Y-38862000D01*
X169216121Y-38862000D01*
X169342047Y-38698936D01*
X169265868Y-38505606D01*
X169153436Y-38330852D01*
X169009071Y-38181391D01*
X168838322Y-38062966D01*
X168647750Y-37980128D01*
X168612562Y-37969460D01*
X168449500Y-38096743D01*
X168195500Y-38096743D01*
X168032438Y-37969460D01*
X168000417Y-37979168D01*
X167991680Y-37974498D01*
X167871982Y-37938188D01*
X167747500Y-37925928D01*
X166897500Y-37925928D01*
X166773018Y-37938188D01*
X166653320Y-37974498D01*
X166543006Y-38033463D01*
X166446315Y-38112815D01*
X166366963Y-38209506D01*
X166307998Y-38319820D01*
X166271688Y-38439518D01*
X166259428Y-38564000D01*
X164860802Y-38564000D01*
X163383500Y-37086699D01*
X163383500Y-32834711D01*
X163427437Y-32790774D01*
X163540705Y-32621256D01*
X163618726Y-32432898D01*
X163658500Y-32232939D01*
X163658500Y-32029061D01*
X163618726Y-31829102D01*
X163540705Y-31640744D01*
X163427437Y-31471226D01*
X163283274Y-31327063D01*
X163113756Y-31213795D01*
X162925398Y-31135774D01*
X162725439Y-31096000D01*
X162521561Y-31096000D01*
X162321602Y-31135774D01*
X162133244Y-31213795D01*
X161963726Y-31327063D01*
X161819563Y-31471226D01*
X161706295Y-31640744D01*
X161628274Y-31829102D01*
X161588500Y-32029061D01*
X161588500Y-32232939D01*
X161628274Y-32432898D01*
X161706295Y-32621256D01*
X161819563Y-32790774D01*
X161863501Y-32834712D01*
X161863500Y-36955910D01*
X161829054Y-37020354D01*
X161785598Y-37163615D01*
X161770924Y-37312600D01*
X161785598Y-37461585D01*
X161829054Y-37604846D01*
X161884065Y-37707764D01*
X160724072Y-36547771D01*
X160724072Y-35671997D01*
X160707008Y-35498743D01*
X160656472Y-35332148D01*
X160574405Y-35178612D01*
X160463963Y-35044037D01*
X160329388Y-34933595D01*
X160175852Y-34851528D01*
X160009257Y-34800992D01*
X159836003Y-34783928D01*
X159010997Y-34783928D01*
X158837743Y-34800992D01*
X158671148Y-34851528D01*
X158517612Y-34933595D01*
X158383037Y-35044037D01*
X158272595Y-35178612D01*
X158190528Y-35332148D01*
X158139992Y-35498743D01*
X158122928Y-35671997D01*
X157597821Y-35671997D01*
X157599072Y-35422000D01*
X157586812Y-35297518D01*
X157550502Y-35177820D01*
X157491537Y-35067506D01*
X157412185Y-34970815D01*
X157315494Y-34891463D01*
X157205180Y-34832498D01*
X157085482Y-34796188D01*
X156961000Y-34783928D01*
X156584250Y-34787000D01*
X156425500Y-34945750D01*
X156171500Y-34945750D01*
X156012750Y-34787000D01*
X155636000Y-34783928D01*
X155511518Y-34796188D01*
X155391820Y-34832498D01*
X155281506Y-34891463D01*
X155184815Y-34970815D01*
X155105463Y-35067506D01*
X155046498Y-35177820D01*
X155010188Y-35297518D01*
X154997928Y-35422000D01*
X151330202Y-35422000D01*
X146296304Y-30388103D01*
X146296299Y-30388097D01*
X146272501Y-30359099D01*
X146243503Y-30335301D01*
X144481704Y-28573503D01*
X144457901Y-28544499D01*
X144342176Y-28449526D01*
X144210147Y-28378954D01*
X144066886Y-28335497D01*
X143955233Y-28324500D01*
X143955222Y-28324500D01*
X143917900Y-28320824D01*
X143880578Y-28324500D01*
X139928551Y-28324500D01*
X139896849Y-28265189D01*
X139867249Y-28209810D01*
X139797214Y-28124473D01*
X139766028Y-28086472D01*
X139735118Y-28061105D01*
X139642072Y-27968059D01*
X139642072Y-27162997D01*
X139625008Y-26989743D01*
X139574472Y-26823148D01*
X139492405Y-26669612D01*
X139381963Y-26535037D01*
X139247388Y-26424595D01*
X139093852Y-26342528D01*
X138927257Y-26291992D01*
X138754003Y-26274928D01*
X137928997Y-26274928D01*
X137755743Y-26291992D01*
X137589148Y-26342528D01*
X137435612Y-26424595D01*
X137301037Y-26535037D01*
X137190595Y-26669612D01*
X137108528Y-26823148D01*
X137057992Y-26989743D01*
X137040928Y-27162997D01*
X137040928Y-28463003D01*
X137057992Y-28636257D01*
X137108528Y-28802852D01*
X137190595Y-28956388D01*
X137301037Y-29090963D01*
X137435612Y-29201405D01*
X137589148Y-29283472D01*
X137755743Y-29334008D01*
X137928997Y-29351072D01*
X138188247Y-29351072D01*
X138195274Y-29386398D01*
X138273295Y-29574756D01*
X138386563Y-29744274D01*
X138530726Y-29888437D01*
X138700244Y-30001705D01*
X138888602Y-30079726D01*
X139088561Y-30119500D01*
X139292439Y-30119500D01*
X139492398Y-30079726D01*
X139680756Y-30001705D01*
X139850274Y-29888437D01*
X139894211Y-29844500D01*
X143603099Y-29844500D01*
X144972501Y-31213903D01*
X144972500Y-53547428D01*
X144482500Y-53547428D01*
X144358018Y-53559688D01*
X144238320Y-53595998D01*
X144128006Y-53654963D01*
X144031315Y-53734315D01*
X143951963Y-53831006D01*
X143892998Y-53941320D01*
X143856688Y-54061018D01*
X143844428Y-54185500D01*
X143844428Y-56178059D01*
X142348988Y-57673500D01*
X119110183Y-57673500D01*
X119073037Y-57604006D01*
X118993685Y-57507315D01*
X118896994Y-57427963D01*
X118786680Y-57368998D01*
X118666982Y-57332688D01*
X118542500Y-57320428D01*
X117042500Y-57320428D01*
X116918018Y-57332688D01*
X116798320Y-57368998D01*
X116688006Y-57427963D01*
X116591315Y-57507315D01*
X116511963Y-57604006D01*
X116452998Y-57714320D01*
X116416688Y-57834018D01*
X116404428Y-57958500D01*
X112063013Y-57958500D01*
X110790572Y-56686060D01*
X110790572Y-54693500D01*
X110778312Y-54569018D01*
X110752219Y-54483000D01*
X116401888Y-54483000D01*
X116424285Y-54710400D01*
X116490615Y-54929060D01*
X116598329Y-55130579D01*
X116743288Y-55307212D01*
X116919921Y-55452171D01*
X117121440Y-55559885D01*
X117340100Y-55626215D01*
X117510521Y-55643000D01*
X118074479Y-55643000D01*
X118244900Y-55626215D01*
X118463560Y-55559885D01*
X118665079Y-55452171D01*
X118841712Y-55307212D01*
X118986671Y-55130579D01*
X119094385Y-54929060D01*
X119160715Y-54710400D01*
X119183112Y-54483000D01*
X119160715Y-54255600D01*
X119120188Y-54122000D01*
X127461428Y-54122000D01*
X127461428Y-56622000D01*
X127473688Y-56746482D01*
X127509998Y-56866180D01*
X127568963Y-56976494D01*
X127648315Y-57073185D01*
X127745006Y-57152537D01*
X127855320Y-57211502D01*
X127975018Y-57247812D01*
X128099500Y-57260072D01*
X130599500Y-57260072D01*
X130723982Y-57247812D01*
X130843680Y-57211502D01*
X130953994Y-57152537D01*
X131050685Y-57073185D01*
X131130037Y-56976494D01*
X131189002Y-56866180D01*
X131225312Y-56746482D01*
X131237572Y-56622000D01*
X131237572Y-56132000D01*
X133109478Y-56132000D01*
X133146800Y-56135676D01*
X133184122Y-56132000D01*
X133184133Y-56132000D01*
X133295786Y-56121003D01*
X133439047Y-56077546D01*
X133571076Y-56006974D01*
X133686801Y-55912001D01*
X133710604Y-55882997D01*
X135471602Y-54122000D01*
X136033928Y-54122000D01*
X136033928Y-56622000D01*
X136046188Y-56746482D01*
X136082498Y-56866180D01*
X136141463Y-56976494D01*
X136220815Y-57073185D01*
X136317506Y-57152537D01*
X136427820Y-57211502D01*
X136547518Y-57247812D01*
X136672000Y-57260072D01*
X139172000Y-57260072D01*
X139296482Y-57247812D01*
X139416180Y-57211502D01*
X139526494Y-57152537D01*
X139623185Y-57073185D01*
X139702537Y-56976494D01*
X139761502Y-56866180D01*
X139797812Y-56746482D01*
X139810072Y-56622000D01*
X139810072Y-54122000D01*
X139797812Y-53997518D01*
X139761502Y-53877820D01*
X139702537Y-53767506D01*
X139623185Y-53670815D01*
X139526494Y-53591463D01*
X139416180Y-53532498D01*
X139296482Y-53496188D01*
X139172000Y-53483928D01*
X136672000Y-53483928D01*
X136547518Y-53496188D01*
X136427820Y-53532498D01*
X136317506Y-53591463D01*
X136220815Y-53670815D01*
X136141463Y-53767506D01*
X136082498Y-53877820D01*
X136046188Y-53997518D01*
X136033928Y-54122000D01*
X135471602Y-54122000D01*
X137212503Y-52381100D01*
X137274639Y-52381100D01*
X137474598Y-52341326D01*
X137662956Y-52263305D01*
X137832474Y-52150037D01*
X137976637Y-52005874D01*
X138089905Y-51836356D01*
X138167926Y-51647998D01*
X138207700Y-51448039D01*
X138207700Y-51244161D01*
X138167926Y-51044202D01*
X138089905Y-50855844D01*
X137976637Y-50686326D01*
X137832474Y-50542163D01*
X137662956Y-50428895D01*
X137474598Y-50350874D01*
X137274639Y-50311100D01*
X137070761Y-50311100D01*
X136870802Y-50350874D01*
X136682444Y-50428895D01*
X136512926Y-50542163D01*
X136368763Y-50686326D01*
X136255495Y-50855844D01*
X136177474Y-51044202D01*
X136137700Y-51244161D01*
X136137700Y-51306297D01*
X132831999Y-54612000D01*
X131237572Y-54612000D01*
X131237572Y-54122000D01*
X131225312Y-53997518D01*
X131189002Y-53877820D01*
X131130037Y-53767506D01*
X131050685Y-53670815D01*
X130953994Y-53591463D01*
X130843680Y-53532498D01*
X130723982Y-53496188D01*
X130599500Y-53483928D01*
X128099500Y-53483928D01*
X127975018Y-53496188D01*
X127855320Y-53532498D01*
X127745006Y-53591463D01*
X127648315Y-53670815D01*
X127568963Y-53767506D01*
X127509998Y-53877820D01*
X127473688Y-53997518D01*
X127461428Y-54122000D01*
X119120188Y-54122000D01*
X119094385Y-54036940D01*
X118993571Y-53848331D01*
X119034775Y-53789882D01*
X119127772Y-53580337D01*
X119136464Y-53518810D01*
X119010663Y-53340000D01*
X118245609Y-53340000D01*
X118244900Y-53339785D01*
X118074479Y-53323000D01*
X117510521Y-53323000D01*
X117340100Y-53339785D01*
X117339391Y-53340000D01*
X116574337Y-53340000D01*
X116448536Y-53518810D01*
X116457228Y-53580337D01*
X116550225Y-53789882D01*
X116591429Y-53848331D01*
X116490615Y-54036940D01*
X116424285Y-54255600D01*
X116401888Y-54483000D01*
X110752219Y-54483000D01*
X110742002Y-54449320D01*
X110683037Y-54339006D01*
X110603685Y-54242315D01*
X110506994Y-54162963D01*
X110396680Y-54103998D01*
X110276982Y-54067688D01*
X110152500Y-54055428D01*
X107652500Y-54055428D01*
X107528018Y-54067688D01*
X107408320Y-54103998D01*
X107298006Y-54162963D01*
X107201315Y-54242315D01*
X107121963Y-54339006D01*
X107062998Y-54449320D01*
X107026688Y-54569018D01*
X107014428Y-54693500D01*
X104660000Y-54693500D01*
X104660000Y-51418000D01*
X116404428Y-51418000D01*
X116404428Y-52468000D01*
X116416688Y-52592482D01*
X116452998Y-52712180D01*
X116487676Y-52777057D01*
X116457228Y-52845663D01*
X116448536Y-52907190D01*
X116574337Y-53086000D01*
X116892265Y-53086000D01*
X116918018Y-53093812D01*
X117042500Y-53106072D01*
X118542500Y-53106072D01*
X118666982Y-53093812D01*
X118692735Y-53086000D01*
X119010663Y-53086000D01*
X119136464Y-52907190D01*
X119127772Y-52845663D01*
X119097324Y-52777057D01*
X119132002Y-52712180D01*
X119168312Y-52592482D01*
X119180572Y-52468000D01*
X119180572Y-51418000D01*
X119168312Y-51293518D01*
X119132002Y-51173820D01*
X119073037Y-51063506D01*
X118993685Y-50966815D01*
X118896994Y-50887463D01*
X118786680Y-50828498D01*
X118666982Y-50792188D01*
X118542500Y-50779928D01*
X117042500Y-50779928D01*
X116918018Y-50792188D01*
X116798320Y-50828498D01*
X116688006Y-50887463D01*
X116591315Y-50966815D01*
X116511963Y-51063506D01*
X116452998Y-51173820D01*
X116416688Y-51293518D01*
X116404428Y-51418000D01*
X104660000Y-51418000D01*
X104660000Y-48532031D01*
X106905074Y-48532031D01*
X107015921Y-48809214D01*
X107326840Y-48962589D01*
X107661705Y-49052360D01*
X108007650Y-49075076D01*
X108351380Y-49029866D01*
X108679685Y-48918466D01*
X108884079Y-48809214D01*
X108994926Y-48532031D01*
X111985074Y-48532031D01*
X112095921Y-48809214D01*
X112406840Y-48962589D01*
X112741705Y-49052360D01*
X113087650Y-49075076D01*
X113431380Y-49029866D01*
X113759685Y-48918466D01*
X113964079Y-48809214D01*
X114074926Y-48532031D01*
X113030000Y-47487105D01*
X111985074Y-48532031D01*
X108994926Y-48532031D01*
X107950000Y-47487105D01*
X106905074Y-48532031D01*
X104660000Y-48532031D01*
X104660000Y-47365150D01*
X106182424Y-47365150D01*
X106227634Y-47708880D01*
X106339034Y-48037185D01*
X106448286Y-48241579D01*
X106725469Y-48352426D01*
X107770395Y-47307500D01*
X108129605Y-47307500D01*
X109174531Y-48352426D01*
X109451714Y-48241579D01*
X109605089Y-47930660D01*
X109694860Y-47595795D01*
X109710004Y-47365150D01*
X111262424Y-47365150D01*
X111307634Y-47708880D01*
X111419034Y-48037185D01*
X111528286Y-48241579D01*
X111805469Y-48352426D01*
X112850395Y-47307500D01*
X113209605Y-47307500D01*
X114254531Y-48352426D01*
X114531714Y-48241579D01*
X114685089Y-47930660D01*
X114774860Y-47595795D01*
X114797576Y-47249850D01*
X114752366Y-46906120D01*
X114640966Y-46577815D01*
X114531714Y-46373421D01*
X114254531Y-46262574D01*
X113209605Y-47307500D01*
X112850395Y-47307500D01*
X111805469Y-46262574D01*
X111528286Y-46373421D01*
X111374911Y-46684340D01*
X111285140Y-47019205D01*
X111262424Y-47365150D01*
X109710004Y-47365150D01*
X109717576Y-47249850D01*
X109672366Y-46906120D01*
X109560966Y-46577815D01*
X109451714Y-46373421D01*
X109174531Y-46262574D01*
X108129605Y-47307500D01*
X107770395Y-47307500D01*
X106725469Y-46262574D01*
X106448286Y-46373421D01*
X106294911Y-46684340D01*
X106205140Y-47019205D01*
X106182424Y-47365150D01*
X104660000Y-47365150D01*
X104660000Y-46082969D01*
X106905074Y-46082969D01*
X107950000Y-47127895D01*
X108994926Y-46082969D01*
X108884079Y-45805786D01*
X108573160Y-45652411D01*
X108238295Y-45562640D01*
X107892350Y-45539924D01*
X107548620Y-45585134D01*
X107220315Y-45696534D01*
X107015921Y-45805786D01*
X106905074Y-46082969D01*
X104660000Y-46082969D01*
X104660000Y-44604004D01*
X108830000Y-44604004D01*
X108830000Y-44930996D01*
X108893793Y-45251704D01*
X109018927Y-45553805D01*
X109200594Y-45825688D01*
X109431812Y-46056906D01*
X109703695Y-46238573D01*
X110005796Y-46363707D01*
X110326504Y-46427500D01*
X110653496Y-46427500D01*
X110974204Y-46363707D01*
X111276305Y-46238573D01*
X111509182Y-46082969D01*
X111985074Y-46082969D01*
X113030000Y-47127895D01*
X114074926Y-46082969D01*
X113964079Y-45805786D01*
X113653160Y-45652411D01*
X113318295Y-45562640D01*
X112972350Y-45539924D01*
X112628620Y-45585134D01*
X112300315Y-45696534D01*
X112095921Y-45805786D01*
X111985074Y-46082969D01*
X111509182Y-46082969D01*
X111548188Y-46056906D01*
X111779406Y-45825688D01*
X111961073Y-45553805D01*
X112086207Y-45251704D01*
X112150000Y-44930996D01*
X112150000Y-44890014D01*
X115441500Y-44890014D01*
X115441500Y-45152986D01*
X115492804Y-45410905D01*
X115593439Y-45653859D01*
X115739538Y-45872513D01*
X115925487Y-46058462D01*
X116144141Y-46204561D01*
X116387095Y-46305196D01*
X116645014Y-46356500D01*
X116907986Y-46356500D01*
X117165905Y-46305196D01*
X117408859Y-46204561D01*
X117627513Y-46058462D01*
X117813462Y-45872513D01*
X117959561Y-45653859D01*
X118060196Y-45410905D01*
X118111500Y-45152986D01*
X118111500Y-44890014D01*
X118060196Y-44632095D01*
X117959561Y-44389141D01*
X117813462Y-44170487D01*
X117627513Y-43984538D01*
X117408859Y-43838439D01*
X117165905Y-43737804D01*
X116907986Y-43686500D01*
X116645014Y-43686500D01*
X116387095Y-43737804D01*
X116144141Y-43838439D01*
X115925487Y-43984538D01*
X115739538Y-44170487D01*
X115593439Y-44389141D01*
X115492804Y-44632095D01*
X115441500Y-44890014D01*
X112150000Y-44890014D01*
X112150000Y-44604004D01*
X112086207Y-44283296D01*
X111961073Y-43981195D01*
X111779406Y-43709312D01*
X111548188Y-43478094D01*
X111509183Y-43452031D01*
X111985074Y-43452031D01*
X112095921Y-43729214D01*
X112406840Y-43882589D01*
X112741705Y-43972360D01*
X113087650Y-43995076D01*
X113431380Y-43949866D01*
X113759685Y-43838466D01*
X113964079Y-43729214D01*
X114074926Y-43452031D01*
X113030000Y-42407105D01*
X111985074Y-43452031D01*
X111509183Y-43452031D01*
X111276305Y-43296427D01*
X110974204Y-43171293D01*
X110653496Y-43107500D01*
X110326504Y-43107500D01*
X110005796Y-43171293D01*
X109703695Y-43296427D01*
X109431812Y-43478094D01*
X109200594Y-43709312D01*
X109018927Y-43981195D01*
X108893793Y-44283296D01*
X108830000Y-44604004D01*
X104660000Y-44604004D01*
X104660000Y-43452031D01*
X106905074Y-43452031D01*
X107015921Y-43729214D01*
X107326840Y-43882589D01*
X107661705Y-43972360D01*
X108007650Y-43995076D01*
X108351380Y-43949866D01*
X108679685Y-43838466D01*
X108884079Y-43729214D01*
X108994926Y-43452031D01*
X107950000Y-42407105D01*
X106905074Y-43452031D01*
X104660000Y-43452031D01*
X104660000Y-42285150D01*
X106182424Y-42285150D01*
X106227634Y-42628880D01*
X106339034Y-42957185D01*
X106448286Y-43161579D01*
X106725469Y-43272426D01*
X107770395Y-42227500D01*
X108129605Y-42227500D01*
X109174531Y-43272426D01*
X109451714Y-43161579D01*
X109605089Y-42850660D01*
X109694860Y-42515795D01*
X109710004Y-42285150D01*
X111262424Y-42285150D01*
X111307634Y-42628880D01*
X111419034Y-42957185D01*
X111528286Y-43161579D01*
X111805469Y-43272426D01*
X112850395Y-42227500D01*
X113209605Y-42227500D01*
X114254531Y-43272426D01*
X114531714Y-43161579D01*
X114685089Y-42850660D01*
X114774860Y-42515795D01*
X114797576Y-42169850D01*
X114752366Y-41826120D01*
X114640966Y-41497815D01*
X114531714Y-41293421D01*
X114254531Y-41182574D01*
X113209605Y-42227500D01*
X112850395Y-42227500D01*
X111805469Y-41182574D01*
X111528286Y-41293421D01*
X111374911Y-41604340D01*
X111285140Y-41939205D01*
X111262424Y-42285150D01*
X109710004Y-42285150D01*
X109717576Y-42169850D01*
X109672366Y-41826120D01*
X109560966Y-41497815D01*
X109451714Y-41293421D01*
X109174531Y-41182574D01*
X108129605Y-42227500D01*
X107770395Y-42227500D01*
X106725469Y-41182574D01*
X106448286Y-41293421D01*
X106294911Y-41604340D01*
X106205140Y-41939205D01*
X106182424Y-42285150D01*
X104660000Y-42285150D01*
X104660000Y-41002969D01*
X106905074Y-41002969D01*
X107950000Y-42047895D01*
X108994926Y-41002969D01*
X111985074Y-41002969D01*
X113030000Y-42047895D01*
X114074926Y-41002969D01*
X113964079Y-40725786D01*
X113653160Y-40572411D01*
X113318295Y-40482640D01*
X112972350Y-40459924D01*
X112628620Y-40505134D01*
X112300315Y-40616534D01*
X112095921Y-40725786D01*
X111985074Y-41002969D01*
X108994926Y-41002969D01*
X108884079Y-40725786D01*
X108573160Y-40572411D01*
X108238295Y-40482640D01*
X107892350Y-40459924D01*
X107548620Y-40505134D01*
X107220315Y-40616534D01*
X107015921Y-40725786D01*
X106905074Y-41002969D01*
X104660000Y-41002969D01*
X104660000Y-37270014D01*
X115441500Y-37270014D01*
X115441500Y-37532986D01*
X115492804Y-37790905D01*
X115593439Y-38033859D01*
X115739538Y-38252513D01*
X115925487Y-38438462D01*
X116144141Y-38584561D01*
X116387095Y-38685196D01*
X116645014Y-38736500D01*
X116907986Y-38736500D01*
X117165905Y-38685196D01*
X117408859Y-38584561D01*
X117627513Y-38438462D01*
X117813462Y-38252513D01*
X117959561Y-38033859D01*
X118060196Y-37790905D01*
X118111500Y-37532986D01*
X118111500Y-37270014D01*
X118060196Y-37012095D01*
X117959561Y-36769141D01*
X117813462Y-36550487D01*
X117627513Y-36364538D01*
X117408859Y-36218439D01*
X117165905Y-36117804D01*
X116907986Y-36066500D01*
X116645014Y-36066500D01*
X116387095Y-36117804D01*
X116144141Y-36218439D01*
X115925487Y-36364538D01*
X115739538Y-36550487D01*
X115593439Y-36769141D01*
X115492804Y-37012095D01*
X115441500Y-37270014D01*
X104660000Y-37270014D01*
X104660000Y-35324031D01*
X106841574Y-35324031D01*
X106952421Y-35601214D01*
X107263340Y-35754589D01*
X107598205Y-35844360D01*
X107944150Y-35867076D01*
X108287880Y-35821866D01*
X108616185Y-35710466D01*
X108820579Y-35601214D01*
X108931426Y-35324031D01*
X111921574Y-35324031D01*
X112032421Y-35601214D01*
X112343340Y-35754589D01*
X112678205Y-35844360D01*
X113024150Y-35867076D01*
X113367880Y-35821866D01*
X113696185Y-35710466D01*
X113900579Y-35601214D01*
X114011426Y-35324031D01*
X112966500Y-34279105D01*
X111921574Y-35324031D01*
X108931426Y-35324031D01*
X107886500Y-34279105D01*
X106841574Y-35324031D01*
X104660000Y-35324031D01*
X104660000Y-34157150D01*
X106118924Y-34157150D01*
X106164134Y-34500880D01*
X106275534Y-34829185D01*
X106384786Y-35033579D01*
X106661969Y-35144426D01*
X107706895Y-34099500D01*
X108066105Y-34099500D01*
X109111031Y-35144426D01*
X109388214Y-35033579D01*
X109541589Y-34722660D01*
X109631360Y-34387795D01*
X109646504Y-34157150D01*
X111198924Y-34157150D01*
X111244134Y-34500880D01*
X111355534Y-34829185D01*
X111464786Y-35033579D01*
X111741969Y-35144426D01*
X112786895Y-34099500D01*
X113146105Y-34099500D01*
X114191031Y-35144426D01*
X114468214Y-35033579D01*
X114621589Y-34722660D01*
X114711360Y-34387795D01*
X114734076Y-34041850D01*
X114688866Y-33698120D01*
X114577466Y-33369815D01*
X114468214Y-33165421D01*
X114191031Y-33054574D01*
X113146105Y-34099500D01*
X112786895Y-34099500D01*
X111741969Y-33054574D01*
X111464786Y-33165421D01*
X111311411Y-33476340D01*
X111221640Y-33811205D01*
X111198924Y-34157150D01*
X109646504Y-34157150D01*
X109654076Y-34041850D01*
X109608866Y-33698120D01*
X109497466Y-33369815D01*
X109388214Y-33165421D01*
X109111031Y-33054574D01*
X108066105Y-34099500D01*
X107706895Y-34099500D01*
X106661969Y-33054574D01*
X106384786Y-33165421D01*
X106231411Y-33476340D01*
X106141640Y-33811205D01*
X106118924Y-34157150D01*
X104660000Y-34157150D01*
X104660000Y-32874969D01*
X106841574Y-32874969D01*
X107886500Y-33919895D01*
X108931426Y-32874969D01*
X108820579Y-32597786D01*
X108509660Y-32444411D01*
X108174795Y-32354640D01*
X107828850Y-32331924D01*
X107485120Y-32377134D01*
X107156815Y-32488534D01*
X106952421Y-32597786D01*
X106841574Y-32874969D01*
X104660000Y-32874969D01*
X104660000Y-31396004D01*
X108766500Y-31396004D01*
X108766500Y-31722996D01*
X108830293Y-32043704D01*
X108955427Y-32345805D01*
X109137094Y-32617688D01*
X109368312Y-32848906D01*
X109640195Y-33030573D01*
X109942296Y-33155707D01*
X110263004Y-33219500D01*
X110589996Y-33219500D01*
X110910704Y-33155707D01*
X111212805Y-33030573D01*
X111445682Y-32874969D01*
X111921574Y-32874969D01*
X112966500Y-33919895D01*
X114011426Y-32874969D01*
X113900579Y-32597786D01*
X113589660Y-32444411D01*
X113254795Y-32354640D01*
X112908850Y-32331924D01*
X112565120Y-32377134D01*
X112236815Y-32488534D01*
X112032421Y-32597786D01*
X111921574Y-32874969D01*
X111445682Y-32874969D01*
X111484688Y-32848906D01*
X111715906Y-32617688D01*
X111897573Y-32345805D01*
X112022707Y-32043704D01*
X112086500Y-31722996D01*
X112086500Y-31424000D01*
X119463106Y-31424000D01*
X119496605Y-31764119D01*
X119595814Y-32091168D01*
X119756921Y-32392578D01*
X119973734Y-32656766D01*
X120165494Y-32814139D01*
X120070736Y-32991419D01*
X119991540Y-33252493D01*
X119964799Y-33524000D01*
X119991540Y-33795507D01*
X120070736Y-34056581D01*
X120199343Y-34297188D01*
X120372419Y-34508081D01*
X120391816Y-34524000D01*
X120372419Y-34539919D01*
X120199343Y-34750812D01*
X120070736Y-34991419D01*
X119991540Y-35252493D01*
X119964799Y-35524000D01*
X119991540Y-35795507D01*
X120070736Y-36056581D01*
X120195440Y-36289886D01*
X120155315Y-36322815D01*
X120075963Y-36419506D01*
X120016998Y-36529820D01*
X119980688Y-36649518D01*
X119968428Y-36774000D01*
X119968428Y-38274000D01*
X119979508Y-38386496D01*
X119973734Y-38391234D01*
X119756921Y-38655422D01*
X119595814Y-38956832D01*
X119496605Y-39283881D01*
X119463106Y-39624000D01*
X119496605Y-39964119D01*
X119595814Y-40291168D01*
X119756921Y-40592578D01*
X119973734Y-40856766D01*
X120237922Y-41073579D01*
X120539332Y-41234686D01*
X120866381Y-41333895D01*
X121121275Y-41359000D01*
X122591725Y-41359000D01*
X122846619Y-41333895D01*
X123173668Y-41234686D01*
X123475078Y-41073579D01*
X123739266Y-40856766D01*
X123956079Y-40592578D01*
X124117186Y-40291168D01*
X124216395Y-39964119D01*
X124249894Y-39624000D01*
X124216395Y-39283881D01*
X124117186Y-38956832D01*
X123956079Y-38655422D01*
X123739266Y-38391234D01*
X123733492Y-38386496D01*
X123744572Y-38274000D01*
X123744572Y-36774000D01*
X123732312Y-36649518D01*
X123696002Y-36529820D01*
X123637037Y-36419506D01*
X123557685Y-36322815D01*
X123517560Y-36289886D01*
X123642264Y-36056581D01*
X123721460Y-35795507D01*
X123748201Y-35524000D01*
X123721460Y-35252493D01*
X123642264Y-34991419D01*
X123513657Y-34750812D01*
X123340581Y-34539919D01*
X123321184Y-34524000D01*
X123340581Y-34508081D01*
X123513657Y-34297188D01*
X123642264Y-34056581D01*
X123721460Y-33795507D01*
X123748201Y-33524000D01*
X123721460Y-33252493D01*
X123642264Y-32991419D01*
X123547506Y-32814139D01*
X123611629Y-32761514D01*
X127062000Y-32761514D01*
X127062000Y-33024486D01*
X127113304Y-33282405D01*
X127213939Y-33525359D01*
X127360038Y-33744013D01*
X127545987Y-33929962D01*
X127764641Y-34076061D01*
X128007595Y-34176696D01*
X128265514Y-34228000D01*
X128528486Y-34228000D01*
X128786405Y-34176696D01*
X129029359Y-34076061D01*
X129248013Y-33929962D01*
X129433962Y-33744013D01*
X129580061Y-33525359D01*
X129667000Y-33315470D01*
X129753939Y-33525359D01*
X129900038Y-33744013D01*
X130085987Y-33929962D01*
X130304641Y-34076061D01*
X130547595Y-34176696D01*
X130598532Y-34186828D01*
X130593314Y-34191145D01*
X130551161Y-34233594D01*
X130508429Y-34275439D01*
X130502555Y-34282540D01*
X130440879Y-34358161D01*
X130407788Y-34407966D01*
X130373974Y-34457350D01*
X130369592Y-34465456D01*
X130323780Y-34551617D01*
X130300991Y-34606909D01*
X130277422Y-34661898D01*
X130274697Y-34670701D01*
X130246492Y-34764119D01*
X130234867Y-34822826D01*
X130222435Y-34881316D01*
X130221473Y-34890470D01*
X130221472Y-34890476D01*
X130221472Y-34890481D01*
X130211950Y-34987598D01*
X130208800Y-35019582D01*
X130208801Y-39084419D01*
X130211998Y-39116880D01*
X130211998Y-39123383D01*
X130212962Y-39132547D01*
X130217713Y-39174904D01*
X130218351Y-39181383D01*
X130218492Y-39181846D01*
X130223839Y-39229522D01*
X130236269Y-39288002D01*
X130247895Y-39346717D01*
X130250620Y-39355520D01*
X130280126Y-39448535D01*
X130303682Y-39503495D01*
X130326486Y-39558822D01*
X130330869Y-39566928D01*
X130377880Y-39652440D01*
X130411657Y-39701771D01*
X130444781Y-39751626D01*
X130450651Y-39758719D01*
X130450653Y-39758723D01*
X130450656Y-39758726D01*
X130513381Y-39833478D01*
X130556110Y-39875321D01*
X130598267Y-39917774D01*
X130605409Y-39923598D01*
X130605412Y-39923601D01*
X130605416Y-39923604D01*
X130681459Y-39984744D01*
X130731495Y-40017487D01*
X130781107Y-40050951D01*
X130789243Y-40055277D01*
X130875723Y-40100487D01*
X130931174Y-40122890D01*
X130986327Y-40146075D01*
X130995149Y-40148738D01*
X131088760Y-40176290D01*
X131147495Y-40187495D01*
X131206122Y-40199529D01*
X131215293Y-40200428D01*
X131312476Y-40209272D01*
X131372292Y-40208854D01*
X131432108Y-40209272D01*
X131441279Y-40208373D01*
X131538327Y-40198173D01*
X131596952Y-40186139D01*
X131655684Y-40174936D01*
X131664506Y-40172272D01*
X131757725Y-40143416D01*
X131769066Y-40138649D01*
X131760928Y-40228075D01*
X131761346Y-40287891D01*
X131760928Y-40347708D01*
X131761827Y-40356879D01*
X131772027Y-40453927D01*
X131784061Y-40512552D01*
X131795264Y-40571284D01*
X131797928Y-40580106D01*
X131826784Y-40673325D01*
X131849967Y-40728475D01*
X131872375Y-40783937D01*
X131876702Y-40792073D01*
X131923114Y-40877911D01*
X131956562Y-40927498D01*
X131989319Y-40977556D01*
X131995143Y-40984697D01*
X132057345Y-41059886D01*
X132099794Y-41102039D01*
X132141639Y-41144771D01*
X132148740Y-41150645D01*
X132224360Y-41212321D01*
X132274225Y-41245452D01*
X132323550Y-41279225D01*
X132331645Y-41283602D01*
X132331648Y-41283604D01*
X132331651Y-41283605D01*
X132331656Y-41283608D01*
X132417817Y-41329420D01*
X132473109Y-41352209D01*
X132528098Y-41375778D01*
X132536901Y-41378503D01*
X132630319Y-41406708D01*
X132689026Y-41418333D01*
X132747516Y-41430765D01*
X132756670Y-41431727D01*
X132756676Y-41431728D01*
X132756681Y-41431728D01*
X132853798Y-41441250D01*
X132885781Y-41444400D01*
X136950619Y-41444400D01*
X136983090Y-41441202D01*
X136989583Y-41441202D01*
X136998747Y-41440238D01*
X137041031Y-41435495D01*
X137047583Y-41434850D01*
X137048052Y-41434708D01*
X137095722Y-41429361D01*
X137154202Y-41416931D01*
X137212917Y-41405305D01*
X137221720Y-41402580D01*
X137314735Y-41373074D01*
X137369695Y-41349518D01*
X137425022Y-41326714D01*
X137433128Y-41322331D01*
X137518640Y-41275320D01*
X137537921Y-41262118D01*
X137539188Y-41274982D01*
X137575498Y-41394680D01*
X137634463Y-41504994D01*
X137713815Y-41601685D01*
X137810506Y-41681037D01*
X137920820Y-41740002D01*
X138040518Y-41776312D01*
X138165000Y-41788572D01*
X138779250Y-41785500D01*
X138938000Y-41626750D01*
X138938000Y-40615000D01*
X139192000Y-40615000D01*
X139192000Y-41626750D01*
X139350750Y-41785500D01*
X139965000Y-41788572D01*
X140089482Y-41776312D01*
X140209180Y-41740002D01*
X140319494Y-41681037D01*
X140416185Y-41601685D01*
X140495537Y-41504994D01*
X140554502Y-41394680D01*
X140590812Y-41274982D01*
X140603072Y-41150500D01*
X140600000Y-40773750D01*
X140441250Y-40615000D01*
X139192000Y-40615000D01*
X138938000Y-40615000D01*
X138918000Y-40615000D01*
X138918000Y-40361000D01*
X138938000Y-40361000D01*
X138938000Y-39349250D01*
X139192000Y-39349250D01*
X139192000Y-40361000D01*
X140441250Y-40361000D01*
X140600000Y-40202250D01*
X140603072Y-39825500D01*
X140590812Y-39701018D01*
X140554502Y-39581320D01*
X140495537Y-39471006D01*
X140416185Y-39374315D01*
X140319494Y-39294963D01*
X140209180Y-39235998D01*
X140089482Y-39199688D01*
X139965000Y-39187428D01*
X139350750Y-39190500D01*
X139192000Y-39349250D01*
X138938000Y-39349250D01*
X138779250Y-39190500D01*
X138165000Y-39187428D01*
X138040518Y-39199688D01*
X137920820Y-39235998D01*
X137810506Y-39294963D01*
X137713815Y-39374315D01*
X137681775Y-39413356D01*
X137612039Y-39356479D01*
X137562234Y-39323388D01*
X137512850Y-39289574D01*
X137504744Y-39285192D01*
X137418583Y-39239380D01*
X137363291Y-39216591D01*
X137308302Y-39193022D01*
X137299499Y-39190297D01*
X137206081Y-39162092D01*
X137147374Y-39150467D01*
X137088884Y-39138035D01*
X137079730Y-39137073D01*
X137079724Y-39137072D01*
X137079719Y-39137072D01*
X136982602Y-39127550D01*
X136950619Y-39124400D01*
X132885781Y-39124400D01*
X132853310Y-39127598D01*
X132846817Y-39127598D01*
X132837653Y-39128562D01*
X132795369Y-39133305D01*
X132788817Y-39133950D01*
X132788348Y-39134092D01*
X132740678Y-39139439D01*
X132682184Y-39151872D01*
X132623484Y-39163495D01*
X132614681Y-39166220D01*
X132521665Y-39195726D01*
X132517706Y-39197423D01*
X132525650Y-39116402D01*
X132528800Y-39084419D01*
X132528800Y-35019581D01*
X132525602Y-34987110D01*
X132525602Y-34980617D01*
X132524638Y-34971453D01*
X132519895Y-34929169D01*
X132519250Y-34922617D01*
X132519108Y-34922148D01*
X132513761Y-34874478D01*
X132501328Y-34815984D01*
X132489705Y-34757284D01*
X132486980Y-34748481D01*
X132457474Y-34655465D01*
X132433918Y-34600505D01*
X132411114Y-34545178D01*
X132406731Y-34537072D01*
X132359720Y-34451559D01*
X132325928Y-34402208D01*
X132292818Y-34352374D01*
X132286944Y-34345274D01*
X132224219Y-34270522D01*
X132181506Y-34228695D01*
X132139333Y-34186226D01*
X132132191Y-34180402D01*
X132056141Y-34119256D01*
X132006139Y-34086535D01*
X131956494Y-34053049D01*
X131948357Y-34048723D01*
X131861878Y-34003513D01*
X131806393Y-33981096D01*
X131751273Y-33957925D01*
X131747753Y-33956863D01*
X131788013Y-33929962D01*
X131973962Y-33744013D01*
X132120061Y-33525359D01*
X132220696Y-33282405D01*
X132272000Y-33024486D01*
X132272000Y-32761514D01*
X132220696Y-32503595D01*
X132120061Y-32260641D01*
X131973962Y-32041987D01*
X131788013Y-31856038D01*
X131569359Y-31709939D01*
X131326405Y-31609304D01*
X131068486Y-31558000D01*
X130805514Y-31558000D01*
X130547595Y-31609304D01*
X130304641Y-31709939D01*
X130085987Y-31856038D01*
X129900038Y-32041987D01*
X129753939Y-32260641D01*
X129667000Y-32470530D01*
X129580061Y-32260641D01*
X129433962Y-32041987D01*
X129248013Y-31856038D01*
X129029359Y-31709939D01*
X128786405Y-31609304D01*
X128528486Y-31558000D01*
X128265514Y-31558000D01*
X128007595Y-31609304D01*
X127764641Y-31709939D01*
X127545987Y-31856038D01*
X127360038Y-32041987D01*
X127213939Y-32260641D01*
X127113304Y-32503595D01*
X127062000Y-32761514D01*
X123611629Y-32761514D01*
X123739266Y-32656766D01*
X123956079Y-32392578D01*
X124117186Y-32091168D01*
X124216395Y-31764119D01*
X124249894Y-31424000D01*
X124216395Y-31083881D01*
X124117186Y-30756832D01*
X123956079Y-30455422D01*
X123887110Y-30371382D01*
X135619000Y-30371382D01*
X135619001Y-37436219D01*
X135622198Y-37468680D01*
X135622198Y-37475183D01*
X135623162Y-37484347D01*
X135627913Y-37526704D01*
X135628551Y-37533183D01*
X135628692Y-37533646D01*
X135634039Y-37581322D01*
X135646469Y-37639802D01*
X135658095Y-37698517D01*
X135660820Y-37707320D01*
X135690326Y-37800335D01*
X135713882Y-37855295D01*
X135736686Y-37910622D01*
X135741069Y-37918728D01*
X135788080Y-38004240D01*
X135821857Y-38053571D01*
X135854981Y-38103426D01*
X135860851Y-38110519D01*
X135860853Y-38110523D01*
X135860856Y-38110526D01*
X135923581Y-38185278D01*
X135966310Y-38227121D01*
X136008467Y-38269574D01*
X136015609Y-38275398D01*
X136015612Y-38275401D01*
X136015616Y-38275404D01*
X136091659Y-38336544D01*
X136141695Y-38369287D01*
X136191307Y-38402751D01*
X136199443Y-38407077D01*
X136285923Y-38452287D01*
X136341374Y-38474690D01*
X136396527Y-38497875D01*
X136405349Y-38500538D01*
X136498960Y-38528090D01*
X136557695Y-38539295D01*
X136616322Y-38551329D01*
X136625493Y-38552228D01*
X136722676Y-38561072D01*
X136782492Y-38560654D01*
X136842308Y-38561072D01*
X136851479Y-38560173D01*
X136948527Y-38549973D01*
X137007152Y-38537939D01*
X137065884Y-38526736D01*
X137074706Y-38524072D01*
X137167925Y-38495216D01*
X137223075Y-38472033D01*
X137278537Y-38449625D01*
X137286666Y-38445302D01*
X137286670Y-38445300D01*
X137286673Y-38445298D01*
X137372511Y-38398886D01*
X137422098Y-38365438D01*
X137472156Y-38332681D01*
X137479297Y-38326857D01*
X137554486Y-38264655D01*
X137596639Y-38222206D01*
X137632745Y-38186850D01*
X137676595Y-38268888D01*
X137787037Y-38403463D01*
X137921612Y-38513905D01*
X138075148Y-38595972D01*
X138241743Y-38646508D01*
X138414997Y-38663572D01*
X139715003Y-38663572D01*
X139888257Y-38646508D01*
X140054852Y-38595972D01*
X140208388Y-38513905D01*
X140342963Y-38403463D01*
X140453405Y-38268888D01*
X140535472Y-38115352D01*
X140586008Y-37948757D01*
X140603072Y-37775503D01*
X140603072Y-36950497D01*
X140586008Y-36777243D01*
X140535472Y-36610648D01*
X140453405Y-36457112D01*
X140342963Y-36322537D01*
X140208388Y-36212095D01*
X140054852Y-36130028D01*
X139888257Y-36079492D01*
X139715003Y-36062428D01*
X138414997Y-36062428D01*
X138241743Y-36079492D01*
X138075148Y-36130028D01*
X137939000Y-36202801D01*
X137939000Y-34632561D01*
X141395500Y-34632561D01*
X141395500Y-34836439D01*
X141435274Y-35036398D01*
X141513295Y-35224756D01*
X141626563Y-35394274D01*
X141770726Y-35538437D01*
X141940244Y-35651705D01*
X142128602Y-35729726D01*
X142328561Y-35769500D01*
X142532439Y-35769500D01*
X142732398Y-35729726D01*
X142920756Y-35651705D01*
X143090274Y-35538437D01*
X143234437Y-35394274D01*
X143347705Y-35224756D01*
X143425726Y-35036398D01*
X143465500Y-34836439D01*
X143465500Y-34632561D01*
X143425726Y-34432602D01*
X143347705Y-34244244D01*
X143279718Y-34142493D01*
X143297937Y-34124274D01*
X143411205Y-33954756D01*
X143489226Y-33766398D01*
X143529000Y-33566439D01*
X143529000Y-33362561D01*
X143489226Y-33162602D01*
X143411205Y-32974244D01*
X143297937Y-32804726D01*
X143153774Y-32660563D01*
X142984256Y-32547295D01*
X142795898Y-32469274D01*
X142595939Y-32429500D01*
X142392061Y-32429500D01*
X142192102Y-32469274D01*
X142003744Y-32547295D01*
X141834226Y-32660563D01*
X141690063Y-32804726D01*
X141576795Y-32974244D01*
X141498774Y-33162602D01*
X141459000Y-33362561D01*
X141459000Y-33566439D01*
X141498774Y-33766398D01*
X141576795Y-33954756D01*
X141644782Y-34056507D01*
X141626563Y-34074726D01*
X141513295Y-34244244D01*
X141435274Y-34432602D01*
X141395500Y-34632561D01*
X137939000Y-34632561D01*
X137939000Y-30371381D01*
X137935802Y-30338910D01*
X137935802Y-30332417D01*
X137934838Y-30323253D01*
X137930095Y-30280969D01*
X137929450Y-30274417D01*
X137929308Y-30273948D01*
X137923961Y-30226278D01*
X137911528Y-30167784D01*
X137899905Y-30109084D01*
X137897180Y-30100281D01*
X137867674Y-30007265D01*
X137844118Y-29952305D01*
X137821314Y-29896978D01*
X137816931Y-29888872D01*
X137769920Y-29803359D01*
X137736128Y-29754008D01*
X137703018Y-29704174D01*
X137697144Y-29697074D01*
X137634419Y-29622322D01*
X137591706Y-29580495D01*
X137549533Y-29538026D01*
X137542391Y-29532202D01*
X137466341Y-29471056D01*
X137416339Y-29438335D01*
X137366694Y-29404849D01*
X137358557Y-29400523D01*
X137272078Y-29355313D01*
X137216593Y-29332896D01*
X137161473Y-29309725D01*
X137152651Y-29307062D01*
X137059039Y-29279510D01*
X137000318Y-29268308D01*
X136941678Y-29256271D01*
X136932507Y-29255372D01*
X136835325Y-29246528D01*
X136775509Y-29246946D01*
X136715693Y-29246528D01*
X136706522Y-29247427D01*
X136609473Y-29257627D01*
X136550854Y-29269660D01*
X136492116Y-29280864D01*
X136483294Y-29283528D01*
X136390075Y-29312384D01*
X136334937Y-29335562D01*
X136279463Y-29357975D01*
X136271334Y-29362298D01*
X136271330Y-29362300D01*
X136271327Y-29362302D01*
X136185489Y-29408715D01*
X136135913Y-29442155D01*
X136085844Y-29474919D01*
X136078703Y-29480743D01*
X136003514Y-29542945D01*
X135961361Y-29585394D01*
X135918629Y-29627239D01*
X135912755Y-29634340D01*
X135851079Y-29709961D01*
X135817988Y-29759766D01*
X135784174Y-29809150D01*
X135779792Y-29817256D01*
X135733980Y-29903417D01*
X135711191Y-29958709D01*
X135687622Y-30013698D01*
X135684897Y-30022501D01*
X135656692Y-30115919D01*
X135645067Y-30174626D01*
X135632635Y-30233116D01*
X135631673Y-30242270D01*
X135631672Y-30242276D01*
X135631672Y-30242281D01*
X135622150Y-30339398D01*
X135619000Y-30371382D01*
X123887110Y-30371382D01*
X123739266Y-30191234D01*
X123475078Y-29974421D01*
X123173668Y-29813314D01*
X122846619Y-29714105D01*
X122591725Y-29689000D01*
X121121275Y-29689000D01*
X120866381Y-29714105D01*
X120539332Y-29813314D01*
X120237922Y-29974421D01*
X119973734Y-30191234D01*
X119756921Y-30455422D01*
X119595814Y-30756832D01*
X119496605Y-31083881D01*
X119463106Y-31424000D01*
X112086500Y-31424000D01*
X112086500Y-31396004D01*
X112022707Y-31075296D01*
X111897573Y-30773195D01*
X111715906Y-30501312D01*
X111484688Y-30270094D01*
X111445683Y-30244031D01*
X111921574Y-30244031D01*
X112032421Y-30521214D01*
X112343340Y-30674589D01*
X112678205Y-30764360D01*
X113024150Y-30787076D01*
X113367880Y-30741866D01*
X113696185Y-30630466D01*
X113900579Y-30521214D01*
X114011426Y-30244031D01*
X112966500Y-29199105D01*
X111921574Y-30244031D01*
X111445683Y-30244031D01*
X111212805Y-30088427D01*
X110910704Y-29963293D01*
X110589996Y-29899500D01*
X110263004Y-29899500D01*
X109942296Y-29963293D01*
X109640195Y-30088427D01*
X109368312Y-30270094D01*
X109137094Y-30501312D01*
X108955427Y-30773195D01*
X108830293Y-31075296D01*
X108766500Y-31396004D01*
X104660000Y-31396004D01*
X104660000Y-30244031D01*
X106841574Y-30244031D01*
X106952421Y-30521214D01*
X107263340Y-30674589D01*
X107598205Y-30764360D01*
X107944150Y-30787076D01*
X108287880Y-30741866D01*
X108616185Y-30630466D01*
X108820579Y-30521214D01*
X108931426Y-30244031D01*
X107886500Y-29199105D01*
X106841574Y-30244031D01*
X104660000Y-30244031D01*
X104660000Y-29077150D01*
X106118924Y-29077150D01*
X106164134Y-29420880D01*
X106275534Y-29749185D01*
X106384786Y-29953579D01*
X106661969Y-30064426D01*
X107706895Y-29019500D01*
X108066105Y-29019500D01*
X109111031Y-30064426D01*
X109388214Y-29953579D01*
X109541589Y-29642660D01*
X109631360Y-29307795D01*
X109646504Y-29077150D01*
X111198924Y-29077150D01*
X111244134Y-29420880D01*
X111355534Y-29749185D01*
X111464786Y-29953579D01*
X111741969Y-30064426D01*
X112786895Y-29019500D01*
X113146105Y-29019500D01*
X114191031Y-30064426D01*
X114468214Y-29953579D01*
X114621589Y-29642660D01*
X114711360Y-29307795D01*
X114734076Y-28961850D01*
X114701346Y-28713000D01*
X133915928Y-28713000D01*
X133928188Y-28837482D01*
X133964498Y-28957180D01*
X134023463Y-29067494D01*
X134102815Y-29164185D01*
X134199506Y-29243537D01*
X134309820Y-29302502D01*
X134429518Y-29338812D01*
X134554000Y-29351072D01*
X134930750Y-29348000D01*
X135089500Y-29189250D01*
X135089500Y-27940000D01*
X135343500Y-27940000D01*
X135343500Y-29189250D01*
X135502250Y-29348000D01*
X135879000Y-29351072D01*
X136003482Y-29338812D01*
X136123180Y-29302502D01*
X136233494Y-29243537D01*
X136330185Y-29164185D01*
X136409537Y-29067494D01*
X136468502Y-28957180D01*
X136504812Y-28837482D01*
X136517072Y-28713000D01*
X136514000Y-28098750D01*
X136355250Y-27940000D01*
X135343500Y-27940000D01*
X135089500Y-27940000D01*
X134077750Y-27940000D01*
X133919000Y-28098750D01*
X133915928Y-28713000D01*
X114701346Y-28713000D01*
X114688866Y-28618120D01*
X114577466Y-28289815D01*
X114468214Y-28085421D01*
X114191031Y-27974574D01*
X113146105Y-29019500D01*
X112786895Y-29019500D01*
X111741969Y-27974574D01*
X111464786Y-28085421D01*
X111311411Y-28396340D01*
X111221640Y-28731205D01*
X111198924Y-29077150D01*
X109646504Y-29077150D01*
X109654076Y-28961850D01*
X109608866Y-28618120D01*
X109497466Y-28289815D01*
X109388214Y-28085421D01*
X109111031Y-27974574D01*
X108066105Y-29019500D01*
X107706895Y-29019500D01*
X106661969Y-27974574D01*
X106384786Y-28085421D01*
X106231411Y-28396340D01*
X106141640Y-28731205D01*
X106118924Y-29077150D01*
X104660000Y-29077150D01*
X104660000Y-27794969D01*
X106841574Y-27794969D01*
X107886500Y-28839895D01*
X108931426Y-27794969D01*
X111921574Y-27794969D01*
X112966500Y-28839895D01*
X114011426Y-27794969D01*
X113900579Y-27517786D01*
X113589660Y-27364411D01*
X113254795Y-27274640D01*
X112908850Y-27251924D01*
X112565120Y-27297134D01*
X112236815Y-27408534D01*
X112032421Y-27517786D01*
X111921574Y-27794969D01*
X108931426Y-27794969D01*
X108820579Y-27517786D01*
X108509660Y-27364411D01*
X108174795Y-27274640D01*
X107828850Y-27251924D01*
X107485120Y-27297134D01*
X107156815Y-27408534D01*
X106952421Y-27517786D01*
X106841574Y-27794969D01*
X104660000Y-27794969D01*
X104660000Y-26499000D01*
X127651428Y-26499000D01*
X127651428Y-27349000D01*
X127663688Y-27473482D01*
X127699998Y-27593180D01*
X127758963Y-27703494D01*
X127838315Y-27800185D01*
X127935006Y-27879537D01*
X128045320Y-27938502D01*
X128165018Y-27974812D01*
X128289500Y-27987072D01*
X129139500Y-27987072D01*
X129263982Y-27974812D01*
X129383680Y-27938502D01*
X129392417Y-27933832D01*
X129424438Y-27943540D01*
X129587500Y-27816257D01*
X129587500Y-27802799D01*
X129590685Y-27800185D01*
X129670037Y-27703494D01*
X129729002Y-27593180D01*
X129765312Y-27473482D01*
X129777572Y-27349000D01*
X129777572Y-27051000D01*
X129841500Y-27051000D01*
X129841500Y-27816257D01*
X130004562Y-27943540D01*
X130039750Y-27932872D01*
X130230322Y-27850034D01*
X130401071Y-27731609D01*
X130545436Y-27582148D01*
X130657868Y-27407394D01*
X130734047Y-27214064D01*
X130608121Y-27051000D01*
X129841500Y-27051000D01*
X129777572Y-27051000D01*
X129777572Y-26913000D01*
X133915928Y-26913000D01*
X133919000Y-27527250D01*
X134077750Y-27686000D01*
X135089500Y-27686000D01*
X135089500Y-26436750D01*
X135343500Y-26436750D01*
X135343500Y-27686000D01*
X136355250Y-27686000D01*
X136514000Y-27527250D01*
X136517072Y-26913000D01*
X136504812Y-26788518D01*
X136468502Y-26668820D01*
X136409537Y-26558506D01*
X136330185Y-26461815D01*
X136233494Y-26382463D01*
X136123180Y-26323498D01*
X136003482Y-26287188D01*
X135879000Y-26274928D01*
X135502250Y-26278000D01*
X135343500Y-26436750D01*
X135089500Y-26436750D01*
X134930750Y-26278000D01*
X134554000Y-26274928D01*
X134429518Y-26287188D01*
X134309820Y-26323498D01*
X134199506Y-26382463D01*
X134102815Y-26461815D01*
X134023463Y-26558506D01*
X133964498Y-26668820D01*
X133928188Y-26788518D01*
X133915928Y-26913000D01*
X129777572Y-26913000D01*
X129777572Y-26499000D01*
X129765312Y-26374518D01*
X129729002Y-26254820D01*
X129670037Y-26144506D01*
X129590685Y-26047815D01*
X129587500Y-26045201D01*
X129587500Y-26031743D01*
X129841500Y-26031743D01*
X129841500Y-26797000D01*
X130608121Y-26797000D01*
X130734047Y-26633936D01*
X130657868Y-26440606D01*
X130545436Y-26265852D01*
X130401071Y-26116391D01*
X130230322Y-25997966D01*
X130039750Y-25915128D01*
X130004562Y-25904460D01*
X129841500Y-26031743D01*
X129587500Y-26031743D01*
X129424438Y-25904460D01*
X129392417Y-25914168D01*
X129383680Y-25909498D01*
X129263982Y-25873188D01*
X129139500Y-25860928D01*
X128289500Y-25860928D01*
X128165018Y-25873188D01*
X128045320Y-25909498D01*
X127935006Y-25968463D01*
X127838315Y-26047815D01*
X127758963Y-26144506D01*
X127699998Y-26254820D01*
X127663688Y-26374518D01*
X127651428Y-26499000D01*
X104660000Y-26499000D01*
X104660000Y-25742561D01*
X146945000Y-25742561D01*
X146945000Y-25946439D01*
X146984774Y-26146398D01*
X147062795Y-26334756D01*
X147176063Y-26504274D01*
X147320226Y-26648437D01*
X147489744Y-26761705D01*
X147678102Y-26839726D01*
X147878061Y-26879500D01*
X148081939Y-26879500D01*
X148281898Y-26839726D01*
X148470256Y-26761705D01*
X148639774Y-26648437D01*
X148662211Y-26626000D01*
X160353928Y-26626000D01*
X160353928Y-27476000D01*
X160366188Y-27600482D01*
X160402498Y-27720180D01*
X160461463Y-27830494D01*
X160540815Y-27927185D01*
X160637506Y-28006537D01*
X160747820Y-28065502D01*
X160867518Y-28101812D01*
X160992000Y-28114072D01*
X161842000Y-28114072D01*
X161966482Y-28101812D01*
X162086180Y-28065502D01*
X162094917Y-28060832D01*
X162126938Y-28070540D01*
X162290000Y-27943257D01*
X162290000Y-27929799D01*
X162293185Y-27927185D01*
X162372537Y-27830494D01*
X162431502Y-27720180D01*
X162467812Y-27600482D01*
X162480072Y-27476000D01*
X162480072Y-27178000D01*
X162544000Y-27178000D01*
X162544000Y-27943257D01*
X162707062Y-28070540D01*
X162742250Y-28059872D01*
X162932822Y-27977034D01*
X163103571Y-27858609D01*
X163247936Y-27709148D01*
X163360368Y-27534394D01*
X163436547Y-27341064D01*
X163310621Y-27178000D01*
X162544000Y-27178000D01*
X162480072Y-27178000D01*
X162480072Y-26626000D01*
X162467812Y-26501518D01*
X162431502Y-26381820D01*
X162372537Y-26271506D01*
X162293185Y-26174815D01*
X162290000Y-26172201D01*
X162290000Y-26158743D01*
X162544000Y-26158743D01*
X162544000Y-26924000D01*
X163310621Y-26924000D01*
X163436547Y-26760936D01*
X163360368Y-26567606D01*
X163247936Y-26392852D01*
X163103571Y-26243391D01*
X162932822Y-26124966D01*
X162742250Y-26042128D01*
X162707062Y-26031460D01*
X162544000Y-26158743D01*
X162290000Y-26158743D01*
X162126938Y-26031460D01*
X162094917Y-26041168D01*
X162086180Y-26036498D01*
X161966482Y-26000188D01*
X161842000Y-25987928D01*
X160992000Y-25987928D01*
X160867518Y-26000188D01*
X160747820Y-26036498D01*
X160637506Y-26095463D01*
X160540815Y-26174815D01*
X160461463Y-26271506D01*
X160402498Y-26381820D01*
X160366188Y-26501518D01*
X160353928Y-26626000D01*
X148662211Y-26626000D01*
X148783937Y-26504274D01*
X148897205Y-26334756D01*
X148975226Y-26146398D01*
X149015000Y-25946439D01*
X149015000Y-25742561D01*
X148975226Y-25542602D01*
X148897205Y-25354244D01*
X148824532Y-25245480D01*
X150366481Y-23703531D01*
X162340574Y-23703531D01*
X162451421Y-23980714D01*
X162762340Y-24134089D01*
X163097205Y-24223860D01*
X163443150Y-24246576D01*
X163786880Y-24201366D01*
X164115185Y-24089966D01*
X164319579Y-23980714D01*
X164430426Y-23703531D01*
X167420574Y-23703531D01*
X167531421Y-23980714D01*
X167842340Y-24134089D01*
X168177205Y-24223860D01*
X168523150Y-24246576D01*
X168866880Y-24201366D01*
X169195185Y-24089966D01*
X169399579Y-23980714D01*
X169510426Y-23703531D01*
X168465500Y-22658605D01*
X167420574Y-23703531D01*
X164430426Y-23703531D01*
X163385500Y-22658605D01*
X162340574Y-23703531D01*
X150366481Y-23703531D01*
X151533362Y-22536650D01*
X161617924Y-22536650D01*
X161663134Y-22880380D01*
X161774534Y-23208685D01*
X161883786Y-23413079D01*
X162160969Y-23523926D01*
X163205895Y-22479000D01*
X163565105Y-22479000D01*
X164610031Y-23523926D01*
X164887214Y-23413079D01*
X165040589Y-23102160D01*
X165130360Y-22767295D01*
X165145504Y-22536650D01*
X166697924Y-22536650D01*
X166743134Y-22880380D01*
X166854534Y-23208685D01*
X166963786Y-23413079D01*
X167240969Y-23523926D01*
X168285895Y-22479000D01*
X168645105Y-22479000D01*
X169690031Y-23523926D01*
X169967214Y-23413079D01*
X170120589Y-23102160D01*
X170210360Y-22767295D01*
X170233076Y-22421350D01*
X170187866Y-22077620D01*
X170076466Y-21749315D01*
X169967214Y-21544921D01*
X169690031Y-21434074D01*
X168645105Y-22479000D01*
X168285895Y-22479000D01*
X167240969Y-21434074D01*
X166963786Y-21544921D01*
X166810411Y-21855840D01*
X166720640Y-22190705D01*
X166697924Y-22536650D01*
X165145504Y-22536650D01*
X165153076Y-22421350D01*
X165107866Y-22077620D01*
X164996466Y-21749315D01*
X164887214Y-21544921D01*
X164610031Y-21434074D01*
X163565105Y-22479000D01*
X163205895Y-22479000D01*
X162160969Y-21434074D01*
X161883786Y-21544921D01*
X161730411Y-21855840D01*
X161640640Y-22190705D01*
X161617924Y-22536650D01*
X151533362Y-22536650D01*
X152815543Y-21254469D01*
X162340574Y-21254469D01*
X163385500Y-22299395D01*
X164430426Y-21254469D01*
X164319579Y-20977286D01*
X164008660Y-20823911D01*
X163673795Y-20734140D01*
X163327850Y-20711424D01*
X162984120Y-20756634D01*
X162655815Y-20868034D01*
X162451421Y-20977286D01*
X162340574Y-21254469D01*
X152815543Y-21254469D01*
X153321012Y-20749000D01*
X157781800Y-20749000D01*
X157942244Y-20856205D01*
X158130602Y-20934226D01*
X158330561Y-20974000D01*
X158534439Y-20974000D01*
X158734398Y-20934226D01*
X158922756Y-20856205D01*
X159092274Y-20742937D01*
X159236437Y-20598774D01*
X159349705Y-20429256D01*
X159427726Y-20240898D01*
X159467500Y-20040939D01*
X159467500Y-19837061D01*
X159455256Y-19775504D01*
X164265500Y-19775504D01*
X164265500Y-20102496D01*
X164329293Y-20423204D01*
X164454427Y-20725305D01*
X164636094Y-20997188D01*
X164867312Y-21228406D01*
X165139195Y-21410073D01*
X165441296Y-21535207D01*
X165762004Y-21599000D01*
X166088996Y-21599000D01*
X166409704Y-21535207D01*
X166711805Y-21410073D01*
X166944682Y-21254469D01*
X167420574Y-21254469D01*
X168465500Y-22299395D01*
X169510426Y-21254469D01*
X169399579Y-20977286D01*
X169088660Y-20823911D01*
X168753795Y-20734140D01*
X168407850Y-20711424D01*
X168064120Y-20756634D01*
X167735815Y-20868034D01*
X167531421Y-20977286D01*
X167420574Y-21254469D01*
X166944682Y-21254469D01*
X166983688Y-21228406D01*
X167214906Y-20997188D01*
X167396573Y-20725305D01*
X167521707Y-20423204D01*
X167585500Y-20102496D01*
X167585500Y-19775504D01*
X167521707Y-19454796D01*
X167396573Y-19152695D01*
X167214906Y-18880812D01*
X166983688Y-18649594D01*
X166944683Y-18623531D01*
X167420574Y-18623531D01*
X167531421Y-18900714D01*
X167842340Y-19054089D01*
X168177205Y-19143860D01*
X168523150Y-19166576D01*
X168866880Y-19121366D01*
X169195185Y-19009966D01*
X169399579Y-18900714D01*
X169510426Y-18623531D01*
X168465500Y-17578605D01*
X167420574Y-18623531D01*
X166944683Y-18623531D01*
X166711805Y-18467927D01*
X166409704Y-18342793D01*
X166088996Y-18279000D01*
X165762004Y-18279000D01*
X165441296Y-18342793D01*
X165139195Y-18467927D01*
X164867312Y-18649594D01*
X164636094Y-18880812D01*
X164454427Y-19152695D01*
X164329293Y-19454796D01*
X164265500Y-19775504D01*
X159455256Y-19775504D01*
X159427726Y-19637102D01*
X159349705Y-19448744D01*
X159236437Y-19279226D01*
X159092274Y-19135063D01*
X158922756Y-19021795D01*
X158734398Y-18943774D01*
X158534439Y-18904000D01*
X158330561Y-18904000D01*
X158130602Y-18943774D01*
X157942244Y-19021795D01*
X157781800Y-19129000D01*
X153025288Y-19129000D01*
X152985500Y-19125081D01*
X152945712Y-19129000D01*
X152945709Y-19129000D01*
X152826712Y-19140720D01*
X152674027Y-19187037D01*
X152608524Y-19222049D01*
X152533310Y-19262251D01*
X152498593Y-19290743D01*
X152409972Y-19363472D01*
X152384600Y-19394388D01*
X147435383Y-24343605D01*
X147404473Y-24368972D01*
X147379108Y-24399880D01*
X147303251Y-24492311D01*
X147228038Y-24633027D01*
X147181721Y-24785713D01*
X147166081Y-24944500D01*
X147170000Y-24984288D01*
X147170000Y-25193800D01*
X147062795Y-25354244D01*
X146984774Y-25542602D01*
X146945000Y-25742561D01*
X104660000Y-25742561D01*
X104660000Y-21341999D01*
X107171106Y-21341999D01*
X107387228Y-21708758D01*
X107847105Y-21949438D01*
X108345098Y-22095775D01*
X108862071Y-22142148D01*
X109378159Y-22086773D01*
X109873526Y-21931779D01*
X110290772Y-21708758D01*
X110506894Y-21341999D01*
X108839000Y-19674105D01*
X107171106Y-21341999D01*
X104660000Y-21341999D01*
X104660000Y-19517571D01*
X106191352Y-19517571D01*
X106246727Y-20033659D01*
X106401721Y-20529026D01*
X106624742Y-20946272D01*
X106991501Y-21162394D01*
X108659395Y-19494500D01*
X109018605Y-19494500D01*
X110686499Y-21162394D01*
X111053258Y-20946272D01*
X111293938Y-20486395D01*
X111440275Y-19988402D01*
X111486648Y-19471429D01*
X111431273Y-18955341D01*
X111327454Y-18623531D01*
X162340574Y-18623531D01*
X162451421Y-18900714D01*
X162762340Y-19054089D01*
X163097205Y-19143860D01*
X163443150Y-19166576D01*
X163786880Y-19121366D01*
X164115185Y-19009966D01*
X164319579Y-18900714D01*
X164430426Y-18623531D01*
X163385500Y-17578605D01*
X162340574Y-18623531D01*
X111327454Y-18623531D01*
X111276279Y-18459974D01*
X111053258Y-18042728D01*
X110686499Y-17826606D01*
X109018605Y-19494500D01*
X108659395Y-19494500D01*
X106991501Y-17826606D01*
X106624742Y-18042728D01*
X106384062Y-18502605D01*
X106237725Y-19000598D01*
X106191352Y-19517571D01*
X104660000Y-19517571D01*
X104660000Y-17647001D01*
X107171106Y-17647001D01*
X108839000Y-19314895D01*
X110506894Y-17647001D01*
X110394725Y-17456650D01*
X161617924Y-17456650D01*
X161663134Y-17800380D01*
X161774534Y-18128685D01*
X161883786Y-18333079D01*
X162160969Y-18443926D01*
X163205895Y-17399000D01*
X163565105Y-17399000D01*
X164610031Y-18443926D01*
X164887214Y-18333079D01*
X165040589Y-18022160D01*
X165130360Y-17687295D01*
X165145504Y-17456650D01*
X166697924Y-17456650D01*
X166743134Y-17800380D01*
X166854534Y-18128685D01*
X166963786Y-18333079D01*
X167240969Y-18443926D01*
X168285895Y-17399000D01*
X168645105Y-17399000D01*
X169690031Y-18443926D01*
X169967214Y-18333079D01*
X170120589Y-18022160D01*
X170210360Y-17687295D01*
X170233076Y-17341350D01*
X170187866Y-16997620D01*
X170076466Y-16669315D01*
X169967214Y-16464921D01*
X169690031Y-16354074D01*
X168645105Y-17399000D01*
X168285895Y-17399000D01*
X167240969Y-16354074D01*
X166963786Y-16464921D01*
X166810411Y-16775840D01*
X166720640Y-17110705D01*
X166697924Y-17456650D01*
X165145504Y-17456650D01*
X165153076Y-17341350D01*
X165107866Y-16997620D01*
X164996466Y-16669315D01*
X164887214Y-16464921D01*
X164610031Y-16354074D01*
X163565105Y-17399000D01*
X163205895Y-17399000D01*
X162160969Y-16354074D01*
X161883786Y-16464921D01*
X161730411Y-16775840D01*
X161640640Y-17110705D01*
X161617924Y-17456650D01*
X110394725Y-17456650D01*
X110290772Y-17280242D01*
X109830895Y-17039562D01*
X109332902Y-16893225D01*
X108815929Y-16846852D01*
X108299841Y-16902227D01*
X107804474Y-17057221D01*
X107387228Y-17280242D01*
X107171106Y-17647001D01*
X104660000Y-17647001D01*
X104660000Y-15660000D01*
X163110588Y-15660000D01*
X162984120Y-15676634D01*
%TA.AperFunction,Conductor*%
D28*
G36*
X162984120Y-15676634D02*
G01*
X162655815Y-15788034D01*
X162451421Y-15897286D01*
X162340574Y-16174469D01*
X163385500Y-17219395D01*
X164430426Y-16174469D01*
X164319579Y-15897286D01*
X164008660Y-15743911D01*
X163695654Y-15660000D01*
X168190588Y-15660000D01*
X168064120Y-15676634D01*
X167735815Y-15788034D01*
X167531421Y-15897286D01*
X167420574Y-16174469D01*
X168465500Y-17219395D01*
X169510426Y-16174469D01*
X169399579Y-15897286D01*
X169088660Y-15743911D01*
X168775654Y-15660000D01*
X170340000Y-15660000D01*
X170340001Y-68340000D01*
X104660000Y-68340000D01*
X104660000Y-65757844D01*
X107017500Y-65757844D01*
X107017500Y-66129156D01*
X107089939Y-66493334D01*
X107232034Y-66836382D01*
X107438325Y-67145118D01*
X107700882Y-67407675D01*
X108009618Y-67613966D01*
X108352666Y-67756061D01*
X108716844Y-67828500D01*
X109088156Y-67828500D01*
X109452334Y-67756061D01*
X109795382Y-67613966D01*
X110104118Y-67407675D01*
X110366675Y-67145118D01*
X110572966Y-66836382D01*
X110715061Y-66493334D01*
X110787500Y-66129156D01*
X110787500Y-65849500D01*
X116401888Y-65849500D01*
X116424285Y-66076900D01*
X116490615Y-66295560D01*
X116591605Y-66484500D01*
X116490615Y-66673440D01*
X116424285Y-66892100D01*
X116401888Y-67119500D01*
X116424285Y-67346900D01*
X116490615Y-67565560D01*
X116598329Y-67767079D01*
X116743288Y-67943712D01*
X116919921Y-68088671D01*
X117121440Y-68196385D01*
X117340100Y-68262715D01*
X117510521Y-68279500D01*
X118074479Y-68279500D01*
X118244900Y-68262715D01*
X118463560Y-68196385D01*
X118665079Y-68088671D01*
X118841712Y-67943712D01*
X118986671Y-67767079D01*
X119094385Y-67565560D01*
X119160715Y-67346900D01*
X119183112Y-67119500D01*
X119160715Y-66892100D01*
X119094385Y-66673440D01*
X118993395Y-66484500D01*
X119094385Y-66295560D01*
X119160715Y-66076900D01*
X119183112Y-65849500D01*
X119160715Y-65622100D01*
X119097407Y-65413402D01*
X119132002Y-65348680D01*
X119168312Y-65228982D01*
X119180572Y-65104500D01*
X119177500Y-64865250D01*
X119018750Y-64706500D01*
X118245609Y-64706500D01*
X118244900Y-64706285D01*
X118074479Y-64689500D01*
X117510521Y-64689500D01*
X117340100Y-64706285D01*
X117339391Y-64706500D01*
X116566250Y-64706500D01*
X116407500Y-64865250D01*
X116404428Y-65104500D01*
X116416688Y-65228982D01*
X116452998Y-65348680D01*
X116487593Y-65413402D01*
X116424285Y-65622100D01*
X116401888Y-65849500D01*
X110787500Y-65849500D01*
X110787500Y-65757844D01*
X110715061Y-65393666D01*
X110572966Y-65050618D01*
X110366675Y-64741882D01*
X110104118Y-64479325D01*
X109795382Y-64273034D01*
X109452334Y-64130939D01*
X109088156Y-64058500D01*
X108716844Y-64058500D01*
X108352666Y-64130939D01*
X108009618Y-64273034D01*
X107700882Y-64479325D01*
X107438325Y-64741882D01*
X107232034Y-65050618D01*
X107089939Y-65393666D01*
X107017500Y-65757844D01*
X104660000Y-65757844D01*
X104660000Y-64054500D01*
X116404428Y-64054500D01*
X116407500Y-64293750D01*
X116566250Y-64452500D01*
X117665500Y-64452500D01*
X117665500Y-63578250D01*
X117919500Y-63578250D01*
X117919500Y-64452500D01*
X119018750Y-64452500D01*
X119177500Y-64293750D01*
X119180572Y-64054500D01*
X119168312Y-63930018D01*
X119132002Y-63810320D01*
X119073037Y-63700006D01*
X118993685Y-63603315D01*
X118896994Y-63523963D01*
X118786680Y-63464998D01*
X118666982Y-63428688D01*
X118542500Y-63416428D01*
X118078250Y-63419500D01*
X117919500Y-63578250D01*
X117665500Y-63578250D01*
X117506750Y-63419500D01*
X117042500Y-63416428D01*
X116918018Y-63428688D01*
X116798320Y-63464998D01*
X116688006Y-63523963D01*
X116591315Y-63603315D01*
X116511963Y-63700006D01*
X116452998Y-63810320D01*
X116416688Y-63930018D01*
X116404428Y-64054500D01*
X104660000Y-64054500D01*
X104660000Y-62257105D01*
X107768500Y-62257105D01*
X107894414Y-62547077D01*
X108226626Y-62712933D01*
X108584812Y-62810790D01*
X108955206Y-62836889D01*
X109323575Y-62790225D01*
X109675762Y-62672594D01*
X109910586Y-62547077D01*
X110036500Y-62257105D01*
X108902500Y-61123105D01*
X107768500Y-62257105D01*
X104660000Y-62257105D01*
X104660000Y-60996206D01*
X107009111Y-60996206D01*
X107055775Y-61364575D01*
X107173406Y-61716762D01*
X107298923Y-61951586D01*
X107588895Y-62077500D01*
X108722895Y-60943500D01*
X109082105Y-60943500D01*
X110216105Y-62077500D01*
X110506077Y-61951586D01*
X110671933Y-61619374D01*
X110769790Y-61261188D01*
X110795889Y-60890794D01*
X110749225Y-60522425D01*
X110631594Y-60170238D01*
X110506077Y-59935414D01*
X110216105Y-59809500D01*
X109082105Y-60943500D01*
X108722895Y-60943500D01*
X107588895Y-59809500D01*
X107298923Y-59935414D01*
X107133067Y-60267626D01*
X107035210Y-60625812D01*
X107009111Y-60996206D01*
X104660000Y-60996206D01*
X104660000Y-59629895D01*
X107768500Y-59629895D01*
X108902500Y-60763895D01*
X110036500Y-59629895D01*
X109910586Y-59339923D01*
X109578374Y-59174067D01*
X109220188Y-59076210D01*
X108849794Y-59050111D01*
X108481425Y-59096775D01*
X108129238Y-59214406D01*
X107894414Y-59339923D01*
X107768500Y-59629895D01*
X104660000Y-59629895D01*
X104660000Y-54693500D01*
X107014428Y-54693500D01*
X107014428Y-57193500D01*
X107026688Y-57317982D01*
X107062998Y-57437680D01*
X107121963Y-57547994D01*
X107201315Y-57644685D01*
X107298006Y-57724037D01*
X107408320Y-57783002D01*
X107528018Y-57819312D01*
X107652500Y-57831572D01*
X109645060Y-57831572D01*
X113381605Y-61568118D01*
X113406972Y-61599028D01*
X113437880Y-61624393D01*
X113530310Y-61700249D01*
X113605524Y-61740451D01*
X113671027Y-61775463D01*
X113823712Y-61821780D01*
X113942709Y-61833500D01*
X113942712Y-61833500D01*
X113982500Y-61837419D01*
X114022288Y-61833500D01*
X116731625Y-61833500D01*
X116743288Y-61847712D01*
X116919921Y-61992671D01*
X117121440Y-62100385D01*
X117340100Y-62166715D01*
X117510521Y-62183500D01*
X118074479Y-62183500D01*
X118244900Y-62166715D01*
X118463560Y-62100385D01*
X118665079Y-61992671D01*
X118841712Y-61847712D01*
X118986671Y-61671079D01*
X119094385Y-61469560D01*
X119160715Y-61250900D01*
X119183112Y-61023500D01*
X119160715Y-60796100D01*
X119094385Y-60577440D01*
X118993571Y-60388831D01*
X119034775Y-60330382D01*
X119127772Y-60120837D01*
X119136464Y-60059310D01*
X119010663Y-59880500D01*
X118245609Y-59880500D01*
X118244900Y-59880285D01*
X118074479Y-59863500D01*
X117510521Y-59863500D01*
X117340100Y-59880285D01*
X117339391Y-59880500D01*
X116574337Y-59880500D01*
X116448536Y-60059310D01*
X116457228Y-60120837D01*
X116498352Y-60213500D01*
X114318013Y-60213500D01*
X112063013Y-57958500D01*
X116404428Y-57958500D01*
X116404428Y-59008500D01*
X116416688Y-59132982D01*
X116452998Y-59252680D01*
X116487676Y-59317557D01*
X116457228Y-59386163D01*
X116448536Y-59447690D01*
X116574337Y-59626500D01*
X116892265Y-59626500D01*
X116918018Y-59634312D01*
X117042500Y-59646572D01*
X118542500Y-59646572D01*
X118666982Y-59634312D01*
X118692735Y-59626500D01*
X119010663Y-59626500D01*
X119136464Y-59447690D01*
X119127772Y-59386163D01*
X119097324Y-59317557D01*
X119110183Y-59293500D01*
X142644712Y-59293500D01*
X142684500Y-59297419D01*
X142724288Y-59293500D01*
X142724291Y-59293500D01*
X142843288Y-59281780D01*
X142995973Y-59235463D01*
X143136689Y-59160249D01*
X143260028Y-59059028D01*
X143285400Y-59028112D01*
X144989941Y-57323572D01*
X146982500Y-57323572D01*
X147106982Y-57311312D01*
X147226680Y-57275002D01*
X147336994Y-57216037D01*
X147433685Y-57136685D01*
X147513037Y-57039994D01*
X147572002Y-56929680D01*
X147608312Y-56809982D01*
X147620572Y-56685500D01*
X147620572Y-54185500D01*
X147608312Y-54061018D01*
X147572002Y-53941320D01*
X147513037Y-53831006D01*
X147433685Y-53734315D01*
X147336994Y-53654963D01*
X147226680Y-53595998D01*
X147106982Y-53559688D01*
X146982500Y-53547428D01*
X146492500Y-53547428D01*
X146492500Y-41294088D01*
X146528820Y-41313502D01*
X146648518Y-41349812D01*
X146773000Y-41362072D01*
X147623000Y-41362072D01*
X147747482Y-41349812D01*
X147867180Y-41313502D01*
X147875917Y-41308832D01*
X147907938Y-41318540D01*
X148071000Y-41191257D01*
X148071000Y-41177799D01*
X148074185Y-41175185D01*
X148153537Y-41078494D01*
X148212502Y-40968180D01*
X148248812Y-40848482D01*
X148261072Y-40724000D01*
X148261072Y-40426000D01*
X148325000Y-40426000D01*
X148325000Y-41191257D01*
X148488062Y-41318540D01*
X148523250Y-41307872D01*
X148713822Y-41225034D01*
X148884571Y-41106609D01*
X149028936Y-40957148D01*
X149141368Y-40782394D01*
X149217547Y-40589064D01*
X149091621Y-40426000D01*
X148325000Y-40426000D01*
X148261072Y-40426000D01*
X148261072Y-39874000D01*
X148248812Y-39749518D01*
X148212502Y-39629820D01*
X148153537Y-39519506D01*
X148074185Y-39422815D01*
X148071000Y-39420201D01*
X148071000Y-39406743D01*
X148325000Y-39406743D01*
X148325000Y-40172000D01*
X149091621Y-40172000D01*
X149217547Y-40008936D01*
X149141368Y-39815606D01*
X149028936Y-39640852D01*
X148884571Y-39491391D01*
X148713822Y-39372966D01*
X148523250Y-39290128D01*
X148488062Y-39279460D01*
X148325000Y-39406743D01*
X148071000Y-39406743D01*
X147907938Y-39279460D01*
X147875917Y-39289168D01*
X147867180Y-39284498D01*
X147747482Y-39248188D01*
X147623000Y-39235928D01*
X146773000Y-39235928D01*
X146648518Y-39248188D01*
X146528820Y-39284498D01*
X146492500Y-39303912D01*
X146492500Y-36533975D01*
X146579563Y-36664274D01*
X146723726Y-36808437D01*
X146893244Y-36921705D01*
X147081602Y-36999726D01*
X147281561Y-37039500D01*
X147343699Y-37039500D01*
X152325801Y-42021603D01*
X152325800Y-49314878D01*
X152322124Y-49352200D01*
X152325800Y-49389522D01*
X152325800Y-49389532D01*
X152336797Y-49501185D01*
X152374716Y-49626188D01*
X152380254Y-49644446D01*
X152450826Y-49776476D01*
X152489656Y-49823790D01*
X152545799Y-49892201D01*
X152574803Y-49916004D01*
X158449428Y-55790630D01*
X158449428Y-57193500D01*
X158461688Y-57317982D01*
X158497998Y-57437680D01*
X158556963Y-57547994D01*
X158636315Y-57644685D01*
X158733006Y-57724037D01*
X158843320Y-57783002D01*
X158963018Y-57819312D01*
X159087500Y-57831572D01*
X161587500Y-57831572D01*
X161711982Y-57819312D01*
X161831680Y-57783002D01*
X161941994Y-57724037D01*
X162038685Y-57644685D01*
X162118037Y-57547994D01*
X162177002Y-57437680D01*
X162213312Y-57317982D01*
X162225572Y-57193500D01*
X162225572Y-55769874D01*
X162863702Y-56408004D01*
X162887500Y-56437002D01*
X162916498Y-56460800D01*
X163003224Y-56531975D01*
X163090217Y-56578474D01*
X163135254Y-56602547D01*
X163278515Y-56646004D01*
X163390168Y-56657001D01*
X163390178Y-56657001D01*
X163427501Y-56660677D01*
X163464824Y-56657001D01*
X165243928Y-56657001D01*
X165243928Y-57147001D01*
X165256188Y-57271483D01*
X165292498Y-57391181D01*
X165351463Y-57501495D01*
X165430815Y-57598186D01*
X165527506Y-57677538D01*
X165637820Y-57736503D01*
X165757518Y-57772813D01*
X165882000Y-57785073D01*
X168382000Y-57785073D01*
X168506482Y-57772813D01*
X168626180Y-57736503D01*
X168736494Y-57677538D01*
X168833185Y-57598186D01*
X168912537Y-57501495D01*
X168971502Y-57391181D01*
X169007812Y-57271483D01*
X169020072Y-57147001D01*
X169020072Y-54647001D01*
X169007812Y-54522519D01*
X168971502Y-54402821D01*
X168912537Y-54292507D01*
X168833185Y-54195816D01*
X168736494Y-54116464D01*
X168626180Y-54057499D01*
X168506482Y-54021189D01*
X168382000Y-54008929D01*
X165882000Y-54008929D01*
X165757518Y-54021189D01*
X165637820Y-54057499D01*
X165527506Y-54116464D01*
X165430815Y-54195816D01*
X165351463Y-54292507D01*
X165292498Y-54402821D01*
X165256188Y-54522519D01*
X165243928Y-54647001D01*
X165243928Y-55137001D01*
X163742303Y-55137001D01*
X159926157Y-51320856D01*
X160153750Y-51319000D01*
X160312500Y-51160250D01*
X160312500Y-49911000D01*
X160566500Y-49911000D01*
X160566500Y-51160250D01*
X160725250Y-51319000D01*
X161102000Y-51322072D01*
X161226482Y-51309812D01*
X161346180Y-51273502D01*
X161456494Y-51214537D01*
X161553185Y-51135185D01*
X161632537Y-51038494D01*
X161691502Y-50928180D01*
X161727812Y-50808482D01*
X161740072Y-50684000D01*
X161737000Y-50069750D01*
X161578250Y-49911000D01*
X160566500Y-49911000D01*
X160312500Y-49911000D01*
X159300750Y-49911000D01*
X159142000Y-50069750D01*
X159139676Y-50534375D01*
X158615072Y-50009771D01*
X158615072Y-49133997D01*
X158598008Y-48960743D01*
X158574729Y-48884000D01*
X159138928Y-48884000D01*
X159142000Y-49498250D01*
X159300750Y-49657000D01*
X160312500Y-49657000D01*
X160312500Y-48407750D01*
X160566500Y-48407750D01*
X160566500Y-49657000D01*
X161578250Y-49657000D01*
X161737000Y-49498250D01*
X161740072Y-48884000D01*
X161727812Y-48759518D01*
X161691502Y-48639820D01*
X161632537Y-48529506D01*
X161553185Y-48432815D01*
X161456494Y-48353463D01*
X161346180Y-48294498D01*
X161226482Y-48258188D01*
X161102000Y-48245928D01*
X160725250Y-48249000D01*
X160566500Y-48407750D01*
X160312500Y-48407750D01*
X160153750Y-48249000D01*
X159777000Y-48245928D01*
X159652518Y-48258188D01*
X159532820Y-48294498D01*
X159422506Y-48353463D01*
X159325815Y-48432815D01*
X159246463Y-48529506D01*
X159187498Y-48639820D01*
X159151188Y-48759518D01*
X159138928Y-48884000D01*
X158574729Y-48884000D01*
X158547472Y-48794148D01*
X158465405Y-48640612D01*
X158354963Y-48506037D01*
X158220388Y-48395595D01*
X158066852Y-48313528D01*
X157900257Y-48262992D01*
X157727003Y-48245928D01*
X157531941Y-48245928D01*
X157306371Y-48020359D01*
X157268726Y-47831102D01*
X157190705Y-47642744D01*
X157077437Y-47473226D01*
X156933274Y-47329063D01*
X156763756Y-47215795D01*
X156575398Y-47137774D01*
X156375439Y-47098000D01*
X156171561Y-47098000D01*
X155971602Y-47137774D01*
X155783244Y-47215795D01*
X155613726Y-47329063D01*
X155469563Y-47473226D01*
X155356295Y-47642744D01*
X155278274Y-47831102D01*
X155238500Y-48031061D01*
X155238500Y-48234939D01*
X155278274Y-48434898D01*
X155356295Y-48623256D01*
X155469563Y-48792774D01*
X155613726Y-48936937D01*
X155783244Y-49050205D01*
X155971602Y-49128226D01*
X156013928Y-49136645D01*
X156013928Y-50434003D01*
X156030992Y-50607257D01*
X156081528Y-50773852D01*
X156163595Y-50927388D01*
X156274037Y-51061963D01*
X156408612Y-51172405D01*
X156562148Y-51254472D01*
X156728743Y-51305008D01*
X156901997Y-51322072D01*
X157727003Y-51322072D01*
X157773219Y-51317520D01*
X160511126Y-54055428D01*
X159087500Y-54055428D01*
X158963018Y-54067688D01*
X158896322Y-54087920D01*
X153845800Y-49037399D01*
X153845800Y-44334000D01*
X157054928Y-44334000D01*
X157067188Y-44458482D01*
X157103498Y-44578180D01*
X157162463Y-44688494D01*
X157241815Y-44785185D01*
X157338506Y-44864537D01*
X157448820Y-44923502D01*
X157568518Y-44959812D01*
X157693000Y-44972072D01*
X158069750Y-44969000D01*
X158228500Y-44810250D01*
X158228500Y-43561000D01*
X158482500Y-43561000D01*
X158482500Y-44810250D01*
X158641250Y-44969000D01*
X159018000Y-44972072D01*
X159142482Y-44959812D01*
X159262180Y-44923502D01*
X159372494Y-44864537D01*
X159469185Y-44785185D01*
X159548537Y-44688494D01*
X159607502Y-44578180D01*
X159643812Y-44458482D01*
X159656072Y-44334000D01*
X159653000Y-43719750D01*
X159494250Y-43561000D01*
X158482500Y-43561000D01*
X158228500Y-43561000D01*
X157216750Y-43561000D01*
X157058000Y-43719750D01*
X157054928Y-44334000D01*
X153845800Y-44334000D01*
X153845800Y-42534000D01*
X157054928Y-42534000D01*
X157058000Y-43148250D01*
X157216750Y-43307000D01*
X158228500Y-43307000D01*
X158228500Y-42057750D01*
X158482500Y-42057750D01*
X158482500Y-43307000D01*
X159494250Y-43307000D01*
X159653000Y-43148250D01*
X159656072Y-42534000D01*
X159643812Y-42409518D01*
X159607502Y-42289820D01*
X159548537Y-42179506D01*
X159469185Y-42082815D01*
X159372494Y-42003463D01*
X159262180Y-41944498D01*
X159142482Y-41908188D01*
X159018000Y-41895928D01*
X158641250Y-41899000D01*
X158482500Y-42057750D01*
X158228500Y-42057750D01*
X158069750Y-41899000D01*
X157693000Y-41895928D01*
X157568518Y-41908188D01*
X157448820Y-41944498D01*
X157338506Y-42003463D01*
X157241815Y-42082815D01*
X157162463Y-42179506D01*
X157103498Y-42289820D01*
X157067188Y-42409518D01*
X157054928Y-42534000D01*
X153845800Y-42534000D01*
X153845800Y-41744122D01*
X153849476Y-41706800D01*
X153845800Y-41669477D01*
X153845800Y-41669467D01*
X153834803Y-41557814D01*
X153791346Y-41414553D01*
X153780724Y-41394680D01*
X153720774Y-41282523D01*
X153649599Y-41195797D01*
X153625801Y-41166799D01*
X153596803Y-41143001D01*
X148418500Y-35964699D01*
X148418500Y-35902561D01*
X148378726Y-35702602D01*
X148300705Y-35514244D01*
X148187437Y-35344726D01*
X148043274Y-35200563D01*
X147873756Y-35087295D01*
X147685398Y-35009274D01*
X147485439Y-34969500D01*
X147281561Y-34969500D01*
X147081602Y-35009274D01*
X146893244Y-35087295D01*
X146723726Y-35200563D01*
X146579563Y-35344726D01*
X146492500Y-35475025D01*
X146492500Y-32733901D01*
X153849801Y-40091203D01*
X153849800Y-40678866D01*
X153846123Y-40716200D01*
X153860797Y-40865186D01*
X153904254Y-41008447D01*
X153974826Y-41140476D01*
X154037609Y-41216977D01*
X154069799Y-41256201D01*
X154185524Y-41351174D01*
X154317553Y-41421746D01*
X154460814Y-41465203D01*
X154609800Y-41479877D01*
X154647133Y-41476200D01*
X159019399Y-41476200D01*
X160193132Y-42649934D01*
X160179928Y-42783997D01*
X160179928Y-44084003D01*
X160196992Y-44257257D01*
X160247528Y-44423852D01*
X160329595Y-44577388D01*
X160440037Y-44711963D01*
X160574612Y-44822405D01*
X160728148Y-44904472D01*
X160894743Y-44955008D01*
X161067997Y-44972072D01*
X161893003Y-44972072D01*
X162066257Y-44955008D01*
X162232852Y-44904472D01*
X162386388Y-44822405D01*
X162520963Y-44711963D01*
X162631405Y-44577388D01*
X162713472Y-44423852D01*
X162764008Y-44257257D01*
X162781072Y-44084003D01*
X162781072Y-42783997D01*
X162764008Y-42610743D01*
X162713472Y-42444148D01*
X162631405Y-42290612D01*
X162520963Y-42156037D01*
X162386388Y-42045595D01*
X162232852Y-41963528D01*
X162066257Y-41912992D01*
X161893003Y-41895928D01*
X161588730Y-41895928D01*
X159898004Y-40205203D01*
X159874201Y-40176199D01*
X159758476Y-40081226D01*
X159626447Y-40010654D01*
X159483186Y-39967197D01*
X159371533Y-39956200D01*
X159371522Y-39956200D01*
X159334200Y-39952524D01*
X159296878Y-39956200D01*
X155369800Y-39956200D01*
X155369800Y-39813722D01*
X155373476Y-39776399D01*
X155369800Y-39739076D01*
X155369800Y-39739067D01*
X155358803Y-39627414D01*
X155315346Y-39484153D01*
X155297725Y-39451186D01*
X155244774Y-39352123D01*
X155173599Y-39265397D01*
X155149801Y-39236399D01*
X155120803Y-39212601D01*
X154618949Y-38710747D01*
X154663982Y-38706312D01*
X154783680Y-38670002D01*
X154792417Y-38665332D01*
X154824438Y-38675040D01*
X154987500Y-38547757D01*
X154987500Y-38534299D01*
X154990685Y-38531685D01*
X155070037Y-38434994D01*
X155129002Y-38324680D01*
X155165312Y-38204982D01*
X155177572Y-38080500D01*
X155177572Y-37664359D01*
X155184815Y-37673185D01*
X155281506Y-37752537D01*
X155337562Y-37782500D01*
X155241500Y-37782500D01*
X155241500Y-38547757D01*
X155404562Y-38675040D01*
X155439750Y-38664372D01*
X155630322Y-38581534D01*
X155801071Y-38463109D01*
X155945436Y-38313648D01*
X156057868Y-38138894D01*
X156134047Y-37945564D01*
X156042601Y-37827149D01*
X156171500Y-37698250D01*
X156171500Y-36449000D01*
X156425500Y-36449000D01*
X156425500Y-37698250D01*
X156584250Y-37857000D01*
X156961000Y-37860072D01*
X157085482Y-37847812D01*
X157205180Y-37811502D01*
X157315494Y-37752537D01*
X157412185Y-37673185D01*
X157491537Y-37576494D01*
X157550502Y-37466180D01*
X157586812Y-37346482D01*
X157599072Y-37222000D01*
X157596000Y-36607750D01*
X157437250Y-36449000D01*
X156425500Y-36449000D01*
X156171500Y-36449000D01*
X155159750Y-36449000D01*
X155013250Y-36595500D01*
X154987498Y-36595500D01*
X154987498Y-36763241D01*
X154824438Y-36635960D01*
X154792417Y-36645668D01*
X154783680Y-36640998D01*
X154663982Y-36604688D01*
X154539500Y-36592428D01*
X153689500Y-36592428D01*
X153565018Y-36604688D01*
X153445320Y-36640998D01*
X153335006Y-36699963D01*
X153238315Y-36779315D01*
X153158963Y-36876006D01*
X153099998Y-36986320D01*
X153063688Y-37106018D01*
X153059253Y-37151051D01*
X151330202Y-35422000D01*
X154997928Y-35422000D01*
X155001000Y-36036250D01*
X155159750Y-36195000D01*
X156171500Y-36195000D01*
X156171500Y-34945750D01*
X156425500Y-34945750D01*
X156425500Y-36195000D01*
X157437250Y-36195000D01*
X157596000Y-36036250D01*
X157597821Y-35671997D01*
X158122928Y-35671997D01*
X158122928Y-36972003D01*
X158139992Y-37145257D01*
X158190528Y-37311852D01*
X158272595Y-37465388D01*
X158383037Y-37599963D01*
X158517612Y-37710405D01*
X158671148Y-37792472D01*
X158837743Y-37843008D01*
X159010997Y-37860072D01*
X159836003Y-37860072D01*
X159882219Y-37855520D01*
X163654201Y-41627503D01*
X163654200Y-52077489D01*
X163610263Y-52121426D01*
X163496995Y-52290944D01*
X163418974Y-52479302D01*
X163379200Y-52679261D01*
X163379200Y-52883139D01*
X163418974Y-53083098D01*
X163496995Y-53271456D01*
X163610263Y-53440974D01*
X163754426Y-53585137D01*
X163923944Y-53698405D01*
X164112302Y-53776426D01*
X164312261Y-53816200D01*
X164516139Y-53816200D01*
X164716098Y-53776426D01*
X164904456Y-53698405D01*
X165073974Y-53585137D01*
X165218137Y-53440974D01*
X165331405Y-53271456D01*
X165409426Y-53083098D01*
X165449200Y-52883139D01*
X165449200Y-52679261D01*
X165409426Y-52479302D01*
X165331405Y-52290944D01*
X165218137Y-52121426D01*
X165174200Y-52077489D01*
X165174200Y-51982311D01*
X165227626Y-52035737D01*
X165397144Y-52149005D01*
X165585502Y-52227026D01*
X165785461Y-52266800D01*
X165989339Y-52266800D01*
X166189298Y-52227026D01*
X166377656Y-52149005D01*
X166547174Y-52035737D01*
X166691337Y-51891574D01*
X166804605Y-51722056D01*
X166882626Y-51533698D01*
X166922400Y-51333739D01*
X166922400Y-51129861D01*
X166882626Y-50929902D01*
X166804605Y-50741544D01*
X166691337Y-50572026D01*
X166647400Y-50528089D01*
X166647400Y-40702722D01*
X166651076Y-40665399D01*
X166647400Y-40628076D01*
X166647400Y-40628067D01*
X166636403Y-40516414D01*
X166592946Y-40373153D01*
X166522374Y-40241124D01*
X166427401Y-40125399D01*
X166398402Y-40101600D01*
X165994003Y-39697202D01*
X165993999Y-39697197D01*
X164860802Y-38564000D01*
X166259428Y-38564000D01*
X166259428Y-39414000D01*
X166271688Y-39538482D01*
X166307998Y-39658180D01*
X166366963Y-39768494D01*
X166446315Y-39865185D01*
X166543006Y-39944537D01*
X166653320Y-40003502D01*
X166773018Y-40039812D01*
X166897500Y-40052072D01*
X167747500Y-40052072D01*
X167871982Y-40039812D01*
X167991680Y-40003502D01*
X168000417Y-39998832D01*
X168032438Y-40008540D01*
X168195500Y-39881257D01*
X168195500Y-39867799D01*
X168198685Y-39865185D01*
X168278037Y-39768494D01*
X168337002Y-39658180D01*
X168373312Y-39538482D01*
X168385572Y-39414000D01*
X168385572Y-39116000D01*
X168449500Y-39116000D01*
X168449500Y-39881257D01*
X168612562Y-40008540D01*
X168647750Y-39997872D01*
X168838322Y-39915034D01*
X169009071Y-39796609D01*
X169153436Y-39647148D01*
X169265868Y-39472394D01*
X169342047Y-39279064D01*
X169216121Y-39116000D01*
X168449500Y-39116000D01*
X168385572Y-39116000D01*
X168385572Y-38564000D01*
X168373312Y-38439518D01*
X168337002Y-38319820D01*
X168278037Y-38209506D01*
X168198685Y-38112815D01*
X168195500Y-38110201D01*
X168195500Y-38096743D01*
X168449500Y-38096743D01*
X168449500Y-38862000D01*
X169216121Y-38862000D01*
X169342047Y-38698936D01*
X169265868Y-38505606D01*
X169153436Y-38330852D01*
X169009071Y-38181391D01*
X168838322Y-38062966D01*
X168647750Y-37980128D01*
X168612562Y-37969460D01*
X168449500Y-38096743D01*
X168195500Y-38096743D01*
X168032438Y-37969460D01*
X168000417Y-37979168D01*
X167991680Y-37974498D01*
X167871982Y-37938188D01*
X167747500Y-37925928D01*
X166897500Y-37925928D01*
X166773018Y-37938188D01*
X166653320Y-37974498D01*
X166543006Y-38033463D01*
X166446315Y-38112815D01*
X166366963Y-38209506D01*
X166307998Y-38319820D01*
X166271688Y-38439518D01*
X166259428Y-38564000D01*
X164860802Y-38564000D01*
X163383500Y-37086699D01*
X163383500Y-32834711D01*
X163427437Y-32790774D01*
X163540705Y-32621256D01*
X163618726Y-32432898D01*
X163658500Y-32232939D01*
X163658500Y-32029061D01*
X163618726Y-31829102D01*
X163540705Y-31640744D01*
X163427437Y-31471226D01*
X163283274Y-31327063D01*
X163113756Y-31213795D01*
X162925398Y-31135774D01*
X162725439Y-31096000D01*
X162521561Y-31096000D01*
X162321602Y-31135774D01*
X162133244Y-31213795D01*
X161963726Y-31327063D01*
X161819563Y-31471226D01*
X161706295Y-31640744D01*
X161628274Y-31829102D01*
X161588500Y-32029061D01*
X161588500Y-32232939D01*
X161628274Y-32432898D01*
X161706295Y-32621256D01*
X161819563Y-32790774D01*
X161863501Y-32834712D01*
X161863500Y-36955910D01*
X161829054Y-37020354D01*
X161785598Y-37163615D01*
X161770924Y-37312600D01*
X161785598Y-37461585D01*
X161829054Y-37604846D01*
X161884065Y-37707764D01*
X160724072Y-36547771D01*
X160724072Y-35671997D01*
X160707008Y-35498743D01*
X160656472Y-35332148D01*
X160574405Y-35178612D01*
X160463963Y-35044037D01*
X160329388Y-34933595D01*
X160175852Y-34851528D01*
X160009257Y-34800992D01*
X159836003Y-34783928D01*
X159010997Y-34783928D01*
X158837743Y-34800992D01*
X158671148Y-34851528D01*
X158517612Y-34933595D01*
X158383037Y-35044037D01*
X158272595Y-35178612D01*
X158190528Y-35332148D01*
X158139992Y-35498743D01*
X158122928Y-35671997D01*
X157597821Y-35671997D01*
X157599072Y-35422000D01*
X157586812Y-35297518D01*
X157550502Y-35177820D01*
X157491537Y-35067506D01*
X157412185Y-34970815D01*
X157315494Y-34891463D01*
X157205180Y-34832498D01*
X157085482Y-34796188D01*
X156961000Y-34783928D01*
X156584250Y-34787000D01*
X156425500Y-34945750D01*
X156171500Y-34945750D01*
X156012750Y-34787000D01*
X155636000Y-34783928D01*
X155511518Y-34796188D01*
X155391820Y-34832498D01*
X155281506Y-34891463D01*
X155184815Y-34970815D01*
X155105463Y-35067506D01*
X155046498Y-35177820D01*
X155010188Y-35297518D01*
X154997928Y-35422000D01*
X151330202Y-35422000D01*
X146296304Y-30388103D01*
X146296299Y-30388097D01*
X146272501Y-30359099D01*
X146243503Y-30335301D01*
X144481704Y-28573503D01*
X144457901Y-28544499D01*
X144342176Y-28449526D01*
X144210147Y-28378954D01*
X144066886Y-28335497D01*
X143955233Y-28324500D01*
X143955222Y-28324500D01*
X143917900Y-28320824D01*
X143880578Y-28324500D01*
X139928551Y-28324500D01*
X139896849Y-28265189D01*
X139867249Y-28209810D01*
X139797214Y-28124473D01*
X139766028Y-28086472D01*
X139735118Y-28061105D01*
X139642072Y-27968059D01*
X139642072Y-27162997D01*
X139625008Y-26989743D01*
X139574472Y-26823148D01*
X139492405Y-26669612D01*
X139381963Y-26535037D01*
X139247388Y-26424595D01*
X139093852Y-26342528D01*
X138927257Y-26291992D01*
X138754003Y-26274928D01*
X137928997Y-26274928D01*
X137755743Y-26291992D01*
X137589148Y-26342528D01*
X137435612Y-26424595D01*
X137301037Y-26535037D01*
X137190595Y-26669612D01*
X137108528Y-26823148D01*
X137057992Y-26989743D01*
X137040928Y-27162997D01*
X137040928Y-28463003D01*
X137057992Y-28636257D01*
X137108528Y-28802852D01*
X137190595Y-28956388D01*
X137301037Y-29090963D01*
X137435612Y-29201405D01*
X137589148Y-29283472D01*
X137755743Y-29334008D01*
X137928997Y-29351072D01*
X138188247Y-29351072D01*
X138195274Y-29386398D01*
X138273295Y-29574756D01*
X138386563Y-29744274D01*
X138530726Y-29888437D01*
X138700244Y-30001705D01*
X138888602Y-30079726D01*
X139088561Y-30119500D01*
X139292439Y-30119500D01*
X139492398Y-30079726D01*
X139680756Y-30001705D01*
X139850274Y-29888437D01*
X139894211Y-29844500D01*
X143603099Y-29844500D01*
X144972501Y-31213903D01*
X144972500Y-53547428D01*
X144482500Y-53547428D01*
X144358018Y-53559688D01*
X144238320Y-53595998D01*
X144128006Y-53654963D01*
X144031315Y-53734315D01*
X143951963Y-53831006D01*
X143892998Y-53941320D01*
X143856688Y-54061018D01*
X143844428Y-54185500D01*
X143844428Y-56178059D01*
X142348988Y-57673500D01*
X119110183Y-57673500D01*
X119073037Y-57604006D01*
X118993685Y-57507315D01*
X118896994Y-57427963D01*
X118786680Y-57368998D01*
X118666982Y-57332688D01*
X118542500Y-57320428D01*
X117042500Y-57320428D01*
X116918018Y-57332688D01*
X116798320Y-57368998D01*
X116688006Y-57427963D01*
X116591315Y-57507315D01*
X116511963Y-57604006D01*
X116452998Y-57714320D01*
X116416688Y-57834018D01*
X116404428Y-57958500D01*
X112063013Y-57958500D01*
X110790572Y-56686060D01*
X110790572Y-54693500D01*
X110778312Y-54569018D01*
X110752219Y-54483000D01*
X116401888Y-54483000D01*
X116424285Y-54710400D01*
X116490615Y-54929060D01*
X116598329Y-55130579D01*
X116743288Y-55307212D01*
X116919921Y-55452171D01*
X117121440Y-55559885D01*
X117340100Y-55626215D01*
X117510521Y-55643000D01*
X118074479Y-55643000D01*
X118244900Y-55626215D01*
X118463560Y-55559885D01*
X118665079Y-55452171D01*
X118841712Y-55307212D01*
X118986671Y-55130579D01*
X119094385Y-54929060D01*
X119160715Y-54710400D01*
X119183112Y-54483000D01*
X119160715Y-54255600D01*
X119120188Y-54122000D01*
X127461428Y-54122000D01*
X127461428Y-56622000D01*
X127473688Y-56746482D01*
X127509998Y-56866180D01*
X127568963Y-56976494D01*
X127648315Y-57073185D01*
X127745006Y-57152537D01*
X127855320Y-57211502D01*
X127975018Y-57247812D01*
X128099500Y-57260072D01*
X130599500Y-57260072D01*
X130723982Y-57247812D01*
X130843680Y-57211502D01*
X130953994Y-57152537D01*
X131050685Y-57073185D01*
X131130037Y-56976494D01*
X131189002Y-56866180D01*
X131225312Y-56746482D01*
X131237572Y-56622000D01*
X131237572Y-56132000D01*
X133109478Y-56132000D01*
X133146800Y-56135676D01*
X133184122Y-56132000D01*
X133184133Y-56132000D01*
X133295786Y-56121003D01*
X133439047Y-56077546D01*
X133571076Y-56006974D01*
X133686801Y-55912001D01*
X133710604Y-55882997D01*
X135471602Y-54122000D01*
X136033928Y-54122000D01*
X136033928Y-56622000D01*
X136046188Y-56746482D01*
X136082498Y-56866180D01*
X136141463Y-56976494D01*
X136220815Y-57073185D01*
X136317506Y-57152537D01*
X136427820Y-57211502D01*
X136547518Y-57247812D01*
X136672000Y-57260072D01*
X139172000Y-57260072D01*
X139296482Y-57247812D01*
X139416180Y-57211502D01*
X139526494Y-57152537D01*
X139623185Y-57073185D01*
X139702537Y-56976494D01*
X139761502Y-56866180D01*
X139797812Y-56746482D01*
X139810072Y-56622000D01*
X139810072Y-54122000D01*
X139797812Y-53997518D01*
X139761502Y-53877820D01*
X139702537Y-53767506D01*
X139623185Y-53670815D01*
X139526494Y-53591463D01*
X139416180Y-53532498D01*
X139296482Y-53496188D01*
X139172000Y-53483928D01*
X136672000Y-53483928D01*
X136547518Y-53496188D01*
X136427820Y-53532498D01*
X136317506Y-53591463D01*
X136220815Y-53670815D01*
X136141463Y-53767506D01*
X136082498Y-53877820D01*
X136046188Y-53997518D01*
X136033928Y-54122000D01*
X135471602Y-54122000D01*
X137212503Y-52381100D01*
X137274639Y-52381100D01*
X137474598Y-52341326D01*
X137662956Y-52263305D01*
X137832474Y-52150037D01*
X137976637Y-52005874D01*
X138089905Y-51836356D01*
X138167926Y-51647998D01*
X138207700Y-51448039D01*
X138207700Y-51244161D01*
X138167926Y-51044202D01*
X138089905Y-50855844D01*
X137976637Y-50686326D01*
X137832474Y-50542163D01*
X137662956Y-50428895D01*
X137474598Y-50350874D01*
X137274639Y-50311100D01*
X137070761Y-50311100D01*
X136870802Y-50350874D01*
X136682444Y-50428895D01*
X136512926Y-50542163D01*
X136368763Y-50686326D01*
X136255495Y-50855844D01*
X136177474Y-51044202D01*
X136137700Y-51244161D01*
X136137700Y-51306297D01*
X132831999Y-54612000D01*
X131237572Y-54612000D01*
X131237572Y-54122000D01*
X131225312Y-53997518D01*
X131189002Y-53877820D01*
X131130037Y-53767506D01*
X131050685Y-53670815D01*
X130953994Y-53591463D01*
X130843680Y-53532498D01*
X130723982Y-53496188D01*
X130599500Y-53483928D01*
X128099500Y-53483928D01*
X127975018Y-53496188D01*
X127855320Y-53532498D01*
X127745006Y-53591463D01*
X127648315Y-53670815D01*
X127568963Y-53767506D01*
X127509998Y-53877820D01*
X127473688Y-53997518D01*
X127461428Y-54122000D01*
X119120188Y-54122000D01*
X119094385Y-54036940D01*
X118993571Y-53848331D01*
X119034775Y-53789882D01*
X119127772Y-53580337D01*
X119136464Y-53518810D01*
X119010663Y-53340000D01*
X118245609Y-53340000D01*
X118244900Y-53339785D01*
X118074479Y-53323000D01*
X117510521Y-53323000D01*
X117340100Y-53339785D01*
X117339391Y-53340000D01*
X116574337Y-53340000D01*
X116448536Y-53518810D01*
X116457228Y-53580337D01*
X116550225Y-53789882D01*
X116591429Y-53848331D01*
X116490615Y-54036940D01*
X116424285Y-54255600D01*
X116401888Y-54483000D01*
X110752219Y-54483000D01*
X110742002Y-54449320D01*
X110683037Y-54339006D01*
X110603685Y-54242315D01*
X110506994Y-54162963D01*
X110396680Y-54103998D01*
X110276982Y-54067688D01*
X110152500Y-54055428D01*
X107652500Y-54055428D01*
X107528018Y-54067688D01*
X107408320Y-54103998D01*
X107298006Y-54162963D01*
X107201315Y-54242315D01*
X107121963Y-54339006D01*
X107062998Y-54449320D01*
X107026688Y-54569018D01*
X107014428Y-54693500D01*
X104660000Y-54693500D01*
X104660000Y-51418000D01*
X116404428Y-51418000D01*
X116404428Y-52468000D01*
X116416688Y-52592482D01*
X116452998Y-52712180D01*
X116487676Y-52777057D01*
X116457228Y-52845663D01*
X116448536Y-52907190D01*
X116574337Y-53086000D01*
X116892265Y-53086000D01*
X116918018Y-53093812D01*
X117042500Y-53106072D01*
X118542500Y-53106072D01*
X118666982Y-53093812D01*
X118692735Y-53086000D01*
X119010663Y-53086000D01*
X119136464Y-52907190D01*
X119127772Y-52845663D01*
X119097324Y-52777057D01*
X119132002Y-52712180D01*
X119168312Y-52592482D01*
X119180572Y-52468000D01*
X119180572Y-51418000D01*
X119168312Y-51293518D01*
X119132002Y-51173820D01*
X119073037Y-51063506D01*
X118993685Y-50966815D01*
X118896994Y-50887463D01*
X118786680Y-50828498D01*
X118666982Y-50792188D01*
X118542500Y-50779928D01*
X117042500Y-50779928D01*
X116918018Y-50792188D01*
X116798320Y-50828498D01*
X116688006Y-50887463D01*
X116591315Y-50966815D01*
X116511963Y-51063506D01*
X116452998Y-51173820D01*
X116416688Y-51293518D01*
X116404428Y-51418000D01*
X104660000Y-51418000D01*
X104660000Y-48532031D01*
X106905074Y-48532031D01*
X107015921Y-48809214D01*
X107326840Y-48962589D01*
X107661705Y-49052360D01*
X108007650Y-49075076D01*
X108351380Y-49029866D01*
X108679685Y-48918466D01*
X108884079Y-48809214D01*
X108994926Y-48532031D01*
X111985074Y-48532031D01*
X112095921Y-48809214D01*
X112406840Y-48962589D01*
X112741705Y-49052360D01*
X113087650Y-49075076D01*
X113431380Y-49029866D01*
X113759685Y-48918466D01*
X113964079Y-48809214D01*
X114074926Y-48532031D01*
X113030000Y-47487105D01*
X111985074Y-48532031D01*
X108994926Y-48532031D01*
X107950000Y-47487105D01*
X106905074Y-48532031D01*
X104660000Y-48532031D01*
X104660000Y-47365150D01*
X106182424Y-47365150D01*
X106227634Y-47708880D01*
X106339034Y-48037185D01*
X106448286Y-48241579D01*
X106725469Y-48352426D01*
X107770395Y-47307500D01*
X108129605Y-47307500D01*
X109174531Y-48352426D01*
X109451714Y-48241579D01*
X109605089Y-47930660D01*
X109694860Y-47595795D01*
X109710004Y-47365150D01*
X111262424Y-47365150D01*
X111307634Y-47708880D01*
X111419034Y-48037185D01*
X111528286Y-48241579D01*
X111805469Y-48352426D01*
X112850395Y-47307500D01*
X113209605Y-47307500D01*
X114254531Y-48352426D01*
X114531714Y-48241579D01*
X114685089Y-47930660D01*
X114774860Y-47595795D01*
X114797576Y-47249850D01*
X114752366Y-46906120D01*
X114640966Y-46577815D01*
X114531714Y-46373421D01*
X114254531Y-46262574D01*
X113209605Y-47307500D01*
X112850395Y-47307500D01*
X111805469Y-46262574D01*
X111528286Y-46373421D01*
X111374911Y-46684340D01*
X111285140Y-47019205D01*
X111262424Y-47365150D01*
X109710004Y-47365150D01*
X109717576Y-47249850D01*
X109672366Y-46906120D01*
X109560966Y-46577815D01*
X109451714Y-46373421D01*
X109174531Y-46262574D01*
X108129605Y-47307500D01*
X107770395Y-47307500D01*
X106725469Y-46262574D01*
X106448286Y-46373421D01*
X106294911Y-46684340D01*
X106205140Y-47019205D01*
X106182424Y-47365150D01*
X104660000Y-47365150D01*
X104660000Y-46082969D01*
X106905074Y-46082969D01*
X107950000Y-47127895D01*
X108994926Y-46082969D01*
X108884079Y-45805786D01*
X108573160Y-45652411D01*
X108238295Y-45562640D01*
X107892350Y-45539924D01*
X107548620Y-45585134D01*
X107220315Y-45696534D01*
X107015921Y-45805786D01*
X106905074Y-46082969D01*
X104660000Y-46082969D01*
X104660000Y-44604004D01*
X108830000Y-44604004D01*
X108830000Y-44930996D01*
X108893793Y-45251704D01*
X109018927Y-45553805D01*
X109200594Y-45825688D01*
X109431812Y-46056906D01*
X109703695Y-46238573D01*
X110005796Y-46363707D01*
X110326504Y-46427500D01*
X110653496Y-46427500D01*
X110974204Y-46363707D01*
X111276305Y-46238573D01*
X111509182Y-46082969D01*
X111985074Y-46082969D01*
X113030000Y-47127895D01*
X114074926Y-46082969D01*
X113964079Y-45805786D01*
X113653160Y-45652411D01*
X113318295Y-45562640D01*
X112972350Y-45539924D01*
X112628620Y-45585134D01*
X112300315Y-45696534D01*
X112095921Y-45805786D01*
X111985074Y-46082969D01*
X111509182Y-46082969D01*
X111548188Y-46056906D01*
X111779406Y-45825688D01*
X111961073Y-45553805D01*
X112086207Y-45251704D01*
X112150000Y-44930996D01*
X112150000Y-44890014D01*
X115441500Y-44890014D01*
X115441500Y-45152986D01*
X115492804Y-45410905D01*
X115593439Y-45653859D01*
X115739538Y-45872513D01*
X115925487Y-46058462D01*
X116144141Y-46204561D01*
X116387095Y-46305196D01*
X116645014Y-46356500D01*
X116907986Y-46356500D01*
X117165905Y-46305196D01*
X117408859Y-46204561D01*
X117627513Y-46058462D01*
X117813462Y-45872513D01*
X117959561Y-45653859D01*
X118060196Y-45410905D01*
X118111500Y-45152986D01*
X118111500Y-44890014D01*
X118060196Y-44632095D01*
X117959561Y-44389141D01*
X117813462Y-44170487D01*
X117627513Y-43984538D01*
X117408859Y-43838439D01*
X117165905Y-43737804D01*
X116907986Y-43686500D01*
X116645014Y-43686500D01*
X116387095Y-43737804D01*
X116144141Y-43838439D01*
X115925487Y-43984538D01*
X115739538Y-44170487D01*
X115593439Y-44389141D01*
X115492804Y-44632095D01*
X115441500Y-44890014D01*
X112150000Y-44890014D01*
X112150000Y-44604004D01*
X112086207Y-44283296D01*
X111961073Y-43981195D01*
X111779406Y-43709312D01*
X111548188Y-43478094D01*
X111509183Y-43452031D01*
X111985074Y-43452031D01*
X112095921Y-43729214D01*
X112406840Y-43882589D01*
X112741705Y-43972360D01*
X113087650Y-43995076D01*
X113431380Y-43949866D01*
X113759685Y-43838466D01*
X113964079Y-43729214D01*
X114074926Y-43452031D01*
X113030000Y-42407105D01*
X111985074Y-43452031D01*
X111509183Y-43452031D01*
X111276305Y-43296427D01*
X110974204Y-43171293D01*
X110653496Y-43107500D01*
X110326504Y-43107500D01*
X110005796Y-43171293D01*
X109703695Y-43296427D01*
X109431812Y-43478094D01*
X109200594Y-43709312D01*
X109018927Y-43981195D01*
X108893793Y-44283296D01*
X108830000Y-44604004D01*
X104660000Y-44604004D01*
X104660000Y-43452031D01*
X106905074Y-43452031D01*
X107015921Y-43729214D01*
X107326840Y-43882589D01*
X107661705Y-43972360D01*
X108007650Y-43995076D01*
X108351380Y-43949866D01*
X108679685Y-43838466D01*
X108884079Y-43729214D01*
X108994926Y-43452031D01*
X107950000Y-42407105D01*
X106905074Y-43452031D01*
X104660000Y-43452031D01*
X104660000Y-42285150D01*
X106182424Y-42285150D01*
X106227634Y-42628880D01*
X106339034Y-42957185D01*
X106448286Y-43161579D01*
X106725469Y-43272426D01*
X107770395Y-42227500D01*
X108129605Y-42227500D01*
X109174531Y-43272426D01*
X109451714Y-43161579D01*
X109605089Y-42850660D01*
X109694860Y-42515795D01*
X109710004Y-42285150D01*
X111262424Y-42285150D01*
X111307634Y-42628880D01*
X111419034Y-42957185D01*
X111528286Y-43161579D01*
X111805469Y-43272426D01*
X112850395Y-42227500D01*
X113209605Y-42227500D01*
X114254531Y-43272426D01*
X114531714Y-43161579D01*
X114685089Y-42850660D01*
X114774860Y-42515795D01*
X114797576Y-42169850D01*
X114752366Y-41826120D01*
X114640966Y-41497815D01*
X114531714Y-41293421D01*
X114254531Y-41182574D01*
X113209605Y-42227500D01*
X112850395Y-42227500D01*
X111805469Y-41182574D01*
X111528286Y-41293421D01*
X111374911Y-41604340D01*
X111285140Y-41939205D01*
X111262424Y-42285150D01*
X109710004Y-42285150D01*
X109717576Y-42169850D01*
X109672366Y-41826120D01*
X109560966Y-41497815D01*
X109451714Y-41293421D01*
X109174531Y-41182574D01*
X108129605Y-42227500D01*
X107770395Y-42227500D01*
X106725469Y-41182574D01*
X106448286Y-41293421D01*
X106294911Y-41604340D01*
X106205140Y-41939205D01*
X106182424Y-42285150D01*
X104660000Y-42285150D01*
X104660000Y-41002969D01*
X106905074Y-41002969D01*
X107950000Y-42047895D01*
X108994926Y-41002969D01*
X111985074Y-41002969D01*
X113030000Y-42047895D01*
X114074926Y-41002969D01*
X113964079Y-40725786D01*
X113653160Y-40572411D01*
X113318295Y-40482640D01*
X112972350Y-40459924D01*
X112628620Y-40505134D01*
X112300315Y-40616534D01*
X112095921Y-40725786D01*
X111985074Y-41002969D01*
X108994926Y-41002969D01*
X108884079Y-40725786D01*
X108573160Y-40572411D01*
X108238295Y-40482640D01*
X107892350Y-40459924D01*
X107548620Y-40505134D01*
X107220315Y-40616534D01*
X107015921Y-40725786D01*
X106905074Y-41002969D01*
X104660000Y-41002969D01*
X104660000Y-37270014D01*
X115441500Y-37270014D01*
X115441500Y-37532986D01*
X115492804Y-37790905D01*
X115593439Y-38033859D01*
X115739538Y-38252513D01*
X115925487Y-38438462D01*
X116144141Y-38584561D01*
X116387095Y-38685196D01*
X116645014Y-38736500D01*
X116907986Y-38736500D01*
X117165905Y-38685196D01*
X117408859Y-38584561D01*
X117627513Y-38438462D01*
X117813462Y-38252513D01*
X117959561Y-38033859D01*
X118060196Y-37790905D01*
X118111500Y-37532986D01*
X118111500Y-37270014D01*
X118060196Y-37012095D01*
X117959561Y-36769141D01*
X117813462Y-36550487D01*
X117627513Y-36364538D01*
X117408859Y-36218439D01*
X117165905Y-36117804D01*
X116907986Y-36066500D01*
X116645014Y-36066500D01*
X116387095Y-36117804D01*
X116144141Y-36218439D01*
X115925487Y-36364538D01*
X115739538Y-36550487D01*
X115593439Y-36769141D01*
X115492804Y-37012095D01*
X115441500Y-37270014D01*
X104660000Y-37270014D01*
X104660000Y-35324031D01*
X106841574Y-35324031D01*
X106952421Y-35601214D01*
X107263340Y-35754589D01*
X107598205Y-35844360D01*
X107944150Y-35867076D01*
X108287880Y-35821866D01*
X108616185Y-35710466D01*
X108820579Y-35601214D01*
X108931426Y-35324031D01*
X111921574Y-35324031D01*
X112032421Y-35601214D01*
X112343340Y-35754589D01*
X112678205Y-35844360D01*
X113024150Y-35867076D01*
X113367880Y-35821866D01*
X113696185Y-35710466D01*
X113900579Y-35601214D01*
X114011426Y-35324031D01*
X112966500Y-34279105D01*
X111921574Y-35324031D01*
X108931426Y-35324031D01*
X107886500Y-34279105D01*
X106841574Y-35324031D01*
X104660000Y-35324031D01*
X104660000Y-34157150D01*
X106118924Y-34157150D01*
X106164134Y-34500880D01*
X106275534Y-34829185D01*
X106384786Y-35033579D01*
X106661969Y-35144426D01*
X107706895Y-34099500D01*
X108066105Y-34099500D01*
X109111031Y-35144426D01*
X109388214Y-35033579D01*
X109541589Y-34722660D01*
X109631360Y-34387795D01*
X109646504Y-34157150D01*
X111198924Y-34157150D01*
X111244134Y-34500880D01*
X111355534Y-34829185D01*
X111464786Y-35033579D01*
X111741969Y-35144426D01*
X112786895Y-34099500D01*
X113146105Y-34099500D01*
X114191031Y-35144426D01*
X114468214Y-35033579D01*
X114621589Y-34722660D01*
X114711360Y-34387795D01*
X114734076Y-34041850D01*
X114688866Y-33698120D01*
X114577466Y-33369815D01*
X114468214Y-33165421D01*
X114191031Y-33054574D01*
X113146105Y-34099500D01*
X112786895Y-34099500D01*
X111741969Y-33054574D01*
X111464786Y-33165421D01*
X111311411Y-33476340D01*
X111221640Y-33811205D01*
X111198924Y-34157150D01*
X109646504Y-34157150D01*
X109654076Y-34041850D01*
X109608866Y-33698120D01*
X109497466Y-33369815D01*
X109388214Y-33165421D01*
X109111031Y-33054574D01*
X108066105Y-34099500D01*
X107706895Y-34099500D01*
X106661969Y-33054574D01*
X106384786Y-33165421D01*
X106231411Y-33476340D01*
X106141640Y-33811205D01*
X106118924Y-34157150D01*
X104660000Y-34157150D01*
X104660000Y-32874969D01*
X106841574Y-32874969D01*
X107886500Y-33919895D01*
X108931426Y-32874969D01*
X108820579Y-32597786D01*
X108509660Y-32444411D01*
X108174795Y-32354640D01*
X107828850Y-32331924D01*
X107485120Y-32377134D01*
X107156815Y-32488534D01*
X106952421Y-32597786D01*
X106841574Y-32874969D01*
X104660000Y-32874969D01*
X104660000Y-31396004D01*
X108766500Y-31396004D01*
X108766500Y-31722996D01*
X108830293Y-32043704D01*
X108955427Y-32345805D01*
X109137094Y-32617688D01*
X109368312Y-32848906D01*
X109640195Y-33030573D01*
X109942296Y-33155707D01*
X110263004Y-33219500D01*
X110589996Y-33219500D01*
X110910704Y-33155707D01*
X111212805Y-33030573D01*
X111445682Y-32874969D01*
X111921574Y-32874969D01*
X112966500Y-33919895D01*
X114011426Y-32874969D01*
X113900579Y-32597786D01*
X113589660Y-32444411D01*
X113254795Y-32354640D01*
X112908850Y-32331924D01*
X112565120Y-32377134D01*
X112236815Y-32488534D01*
X112032421Y-32597786D01*
X111921574Y-32874969D01*
X111445682Y-32874969D01*
X111484688Y-32848906D01*
X111715906Y-32617688D01*
X111897573Y-32345805D01*
X112022707Y-32043704D01*
X112086500Y-31722996D01*
X112086500Y-31424000D01*
X119463106Y-31424000D01*
X119496605Y-31764119D01*
X119595814Y-32091168D01*
X119756921Y-32392578D01*
X119973734Y-32656766D01*
X120165494Y-32814139D01*
X120070736Y-32991419D01*
X119991540Y-33252493D01*
X119964799Y-33524000D01*
X119991540Y-33795507D01*
X120070736Y-34056581D01*
X120199343Y-34297188D01*
X120372419Y-34508081D01*
X120391816Y-34524000D01*
X120372419Y-34539919D01*
X120199343Y-34750812D01*
X120070736Y-34991419D01*
X119991540Y-35252493D01*
X119964799Y-35524000D01*
X119991540Y-35795507D01*
X120070736Y-36056581D01*
X120195440Y-36289886D01*
X120155315Y-36322815D01*
X120075963Y-36419506D01*
X120016998Y-36529820D01*
X119980688Y-36649518D01*
X119968428Y-36774000D01*
X119968428Y-38274000D01*
X119979508Y-38386496D01*
X119973734Y-38391234D01*
X119756921Y-38655422D01*
X119595814Y-38956832D01*
X119496605Y-39283881D01*
X119463106Y-39624000D01*
X119496605Y-39964119D01*
X119595814Y-40291168D01*
X119756921Y-40592578D01*
X119973734Y-40856766D01*
X120237922Y-41073579D01*
X120539332Y-41234686D01*
X120866381Y-41333895D01*
X121121275Y-41359000D01*
X122591725Y-41359000D01*
X122846619Y-41333895D01*
X123173668Y-41234686D01*
X123475078Y-41073579D01*
X123739266Y-40856766D01*
X123956079Y-40592578D01*
X124117186Y-40291168D01*
X124216395Y-39964119D01*
X124249894Y-39624000D01*
X124216395Y-39283881D01*
X124117186Y-38956832D01*
X123956079Y-38655422D01*
X123739266Y-38391234D01*
X123733492Y-38386496D01*
X123744572Y-38274000D01*
X123744572Y-36774000D01*
X123732312Y-36649518D01*
X123696002Y-36529820D01*
X123637037Y-36419506D01*
X123557685Y-36322815D01*
X123517560Y-36289886D01*
X123642264Y-36056581D01*
X123721460Y-35795507D01*
X123748201Y-35524000D01*
X123721460Y-35252493D01*
X123642264Y-34991419D01*
X123513657Y-34750812D01*
X123340581Y-34539919D01*
X123321184Y-34524000D01*
X123340581Y-34508081D01*
X123513657Y-34297188D01*
X123642264Y-34056581D01*
X123721460Y-33795507D01*
X123748201Y-33524000D01*
X123721460Y-33252493D01*
X123642264Y-32991419D01*
X123547506Y-32814139D01*
X123611629Y-32761514D01*
X127062000Y-32761514D01*
X127062000Y-33024486D01*
X127113304Y-33282405D01*
X127213939Y-33525359D01*
X127360038Y-33744013D01*
X127545987Y-33929962D01*
X127764641Y-34076061D01*
X128007595Y-34176696D01*
X128265514Y-34228000D01*
X128528486Y-34228000D01*
X128786405Y-34176696D01*
X129029359Y-34076061D01*
X129248013Y-33929962D01*
X129433962Y-33744013D01*
X129580061Y-33525359D01*
X129667000Y-33315470D01*
X129753939Y-33525359D01*
X129900038Y-33744013D01*
X130085987Y-33929962D01*
X130304641Y-34076061D01*
X130547595Y-34176696D01*
X130598532Y-34186828D01*
X130593314Y-34191145D01*
X130551161Y-34233594D01*
X130508429Y-34275439D01*
X130502555Y-34282540D01*
X130440879Y-34358161D01*
X130407788Y-34407966D01*
X130373974Y-34457350D01*
X130369592Y-34465456D01*
X130323780Y-34551617D01*
X130300991Y-34606909D01*
X130277422Y-34661898D01*
X130274697Y-34670701D01*
X130246492Y-34764119D01*
X130234867Y-34822826D01*
X130222435Y-34881316D01*
X130221473Y-34890470D01*
X130221472Y-34890476D01*
X130221472Y-34890481D01*
X130211950Y-34987598D01*
X130208800Y-35019582D01*
X130208801Y-39084419D01*
X130211998Y-39116880D01*
X130211998Y-39123383D01*
X130212962Y-39132547D01*
X130217713Y-39174904D01*
X130218351Y-39181383D01*
X130218492Y-39181846D01*
X130223839Y-39229522D01*
X130236269Y-39288002D01*
X130247895Y-39346717D01*
X130250620Y-39355520D01*
X130280126Y-39448535D01*
X130303682Y-39503495D01*
X130326486Y-39558822D01*
X130330869Y-39566928D01*
X130377880Y-39652440D01*
X130411657Y-39701771D01*
X130444781Y-39751626D01*
X130450651Y-39758719D01*
X130450653Y-39758723D01*
X130450656Y-39758726D01*
X130513381Y-39833478D01*
X130556110Y-39875321D01*
X130598267Y-39917774D01*
X130605409Y-39923598D01*
X130605412Y-39923601D01*
X130605416Y-39923604D01*
X130681459Y-39984744D01*
X130731495Y-40017487D01*
X130781107Y-40050951D01*
X130789243Y-40055277D01*
X130875723Y-40100487D01*
X130931174Y-40122890D01*
X130986327Y-40146075D01*
X130995149Y-40148738D01*
X131088760Y-40176290D01*
X131147495Y-40187495D01*
X131206122Y-40199529D01*
X131215293Y-40200428D01*
X131312476Y-40209272D01*
X131372292Y-40208854D01*
X131432108Y-40209272D01*
X131441279Y-40208373D01*
X131538327Y-40198173D01*
X131596952Y-40186139D01*
X131655684Y-40174936D01*
X131664506Y-40172272D01*
X131757725Y-40143416D01*
X131769066Y-40138649D01*
X131760928Y-40228075D01*
X131761346Y-40287891D01*
X131760928Y-40347708D01*
X131761827Y-40356879D01*
X131772027Y-40453927D01*
X131784061Y-40512552D01*
X131795264Y-40571284D01*
X131797928Y-40580106D01*
X131826784Y-40673325D01*
X131849967Y-40728475D01*
X131872375Y-40783937D01*
X131876702Y-40792073D01*
X131923114Y-40877911D01*
X131956562Y-40927498D01*
X131989319Y-40977556D01*
X131995143Y-40984697D01*
X132057345Y-41059886D01*
X132099794Y-41102039D01*
X132141639Y-41144771D01*
X132148740Y-41150645D01*
X132224360Y-41212321D01*
X132274225Y-41245452D01*
X132323550Y-41279225D01*
X132331645Y-41283602D01*
X132331648Y-41283604D01*
X132331651Y-41283605D01*
X132331656Y-41283608D01*
X132417817Y-41329420D01*
X132473109Y-41352209D01*
X132528098Y-41375778D01*
X132536901Y-41378503D01*
X132630319Y-41406708D01*
X132689026Y-41418333D01*
X132747516Y-41430765D01*
X132756670Y-41431727D01*
X132756676Y-41431728D01*
X132756681Y-41431728D01*
X132853798Y-41441250D01*
X132885781Y-41444400D01*
X136950619Y-41444400D01*
X136983090Y-41441202D01*
X136989583Y-41441202D01*
X136998747Y-41440238D01*
X137041031Y-41435495D01*
X137047583Y-41434850D01*
X137048052Y-41434708D01*
X137095722Y-41429361D01*
X137154202Y-41416931D01*
X137212917Y-41405305D01*
X137221720Y-41402580D01*
X137314735Y-41373074D01*
X137369695Y-41349518D01*
X137425022Y-41326714D01*
X137433128Y-41322331D01*
X137518640Y-41275320D01*
X137537921Y-41262118D01*
X137539188Y-41274982D01*
X137575498Y-41394680D01*
X137634463Y-41504994D01*
X137713815Y-41601685D01*
X137810506Y-41681037D01*
X137920820Y-41740002D01*
X138040518Y-41776312D01*
X138165000Y-41788572D01*
X138779250Y-41785500D01*
X138938000Y-41626750D01*
X138938000Y-40615000D01*
X139192000Y-40615000D01*
X139192000Y-41626750D01*
X139350750Y-41785500D01*
X139965000Y-41788572D01*
X140089482Y-41776312D01*
X140209180Y-41740002D01*
X140319494Y-41681037D01*
X140416185Y-41601685D01*
X140495537Y-41504994D01*
X140554502Y-41394680D01*
X140590812Y-41274982D01*
X140603072Y-41150500D01*
X140600000Y-40773750D01*
X140441250Y-40615000D01*
X139192000Y-40615000D01*
X138938000Y-40615000D01*
X138918000Y-40615000D01*
X138918000Y-40361000D01*
X138938000Y-40361000D01*
X138938000Y-39349250D01*
X139192000Y-39349250D01*
X139192000Y-40361000D01*
X140441250Y-40361000D01*
X140600000Y-40202250D01*
X140603072Y-39825500D01*
X140590812Y-39701018D01*
X140554502Y-39581320D01*
X140495537Y-39471006D01*
X140416185Y-39374315D01*
X140319494Y-39294963D01*
X140209180Y-39235998D01*
X140089482Y-39199688D01*
X139965000Y-39187428D01*
X139350750Y-39190500D01*
X139192000Y-39349250D01*
X138938000Y-39349250D01*
X138779250Y-39190500D01*
X138165000Y-39187428D01*
X138040518Y-39199688D01*
X137920820Y-39235998D01*
X137810506Y-39294963D01*
X137713815Y-39374315D01*
X137681775Y-39413356D01*
X137612039Y-39356479D01*
X137562234Y-39323388D01*
X137512850Y-39289574D01*
X137504744Y-39285192D01*
X137418583Y-39239380D01*
X137363291Y-39216591D01*
X137308302Y-39193022D01*
X137299499Y-39190297D01*
X137206081Y-39162092D01*
X137147374Y-39150467D01*
X137088884Y-39138035D01*
X137079730Y-39137073D01*
X137079724Y-39137072D01*
X137079719Y-39137072D01*
X136982602Y-39127550D01*
X136950619Y-39124400D01*
X132885781Y-39124400D01*
X132853310Y-39127598D01*
X132846817Y-39127598D01*
X132837653Y-39128562D01*
X132795369Y-39133305D01*
X132788817Y-39133950D01*
X132788348Y-39134092D01*
X132740678Y-39139439D01*
X132682184Y-39151872D01*
X132623484Y-39163495D01*
X132614681Y-39166220D01*
X132521665Y-39195726D01*
X132517706Y-39197423D01*
X132525650Y-39116402D01*
X132528800Y-39084419D01*
X132528800Y-35019581D01*
X132525602Y-34987110D01*
X132525602Y-34980617D01*
X132524638Y-34971453D01*
X132519895Y-34929169D01*
X132519250Y-34922617D01*
X132519108Y-34922148D01*
X132513761Y-34874478D01*
X132501328Y-34815984D01*
X132489705Y-34757284D01*
X132486980Y-34748481D01*
X132457474Y-34655465D01*
X132433918Y-34600505D01*
X132411114Y-34545178D01*
X132406731Y-34537072D01*
X132359720Y-34451559D01*
X132325928Y-34402208D01*
X132292818Y-34352374D01*
X132286944Y-34345274D01*
X132224219Y-34270522D01*
X132181506Y-34228695D01*
X132139333Y-34186226D01*
X132132191Y-34180402D01*
X132056141Y-34119256D01*
X132006139Y-34086535D01*
X131956494Y-34053049D01*
X131948357Y-34048723D01*
X131861878Y-34003513D01*
X131806393Y-33981096D01*
X131751273Y-33957925D01*
X131747753Y-33956863D01*
X131788013Y-33929962D01*
X131973962Y-33744013D01*
X132120061Y-33525359D01*
X132220696Y-33282405D01*
X132272000Y-33024486D01*
X132272000Y-32761514D01*
X132220696Y-32503595D01*
X132120061Y-32260641D01*
X131973962Y-32041987D01*
X131788013Y-31856038D01*
X131569359Y-31709939D01*
X131326405Y-31609304D01*
X131068486Y-31558000D01*
X130805514Y-31558000D01*
X130547595Y-31609304D01*
X130304641Y-31709939D01*
X130085987Y-31856038D01*
X129900038Y-32041987D01*
X129753939Y-32260641D01*
X129667000Y-32470530D01*
X129580061Y-32260641D01*
X129433962Y-32041987D01*
X129248013Y-31856038D01*
X129029359Y-31709939D01*
X128786405Y-31609304D01*
X128528486Y-31558000D01*
X128265514Y-31558000D01*
X128007595Y-31609304D01*
X127764641Y-31709939D01*
X127545987Y-31856038D01*
X127360038Y-32041987D01*
X127213939Y-32260641D01*
X127113304Y-32503595D01*
X127062000Y-32761514D01*
X123611629Y-32761514D01*
X123739266Y-32656766D01*
X123956079Y-32392578D01*
X124117186Y-32091168D01*
X124216395Y-31764119D01*
X124249894Y-31424000D01*
X124216395Y-31083881D01*
X124117186Y-30756832D01*
X123956079Y-30455422D01*
X123887110Y-30371382D01*
X135619000Y-30371382D01*
X135619001Y-37436219D01*
X135622198Y-37468680D01*
X135622198Y-37475183D01*
X135623162Y-37484347D01*
X135627913Y-37526704D01*
X135628551Y-37533183D01*
X135628692Y-37533646D01*
X135634039Y-37581322D01*
X135646469Y-37639802D01*
X135658095Y-37698517D01*
X135660820Y-37707320D01*
X135690326Y-37800335D01*
X135713882Y-37855295D01*
X135736686Y-37910622D01*
X135741069Y-37918728D01*
X135788080Y-38004240D01*
X135821857Y-38053571D01*
X135854981Y-38103426D01*
X135860851Y-38110519D01*
X135860853Y-38110523D01*
X135860856Y-38110526D01*
X135923581Y-38185278D01*
X135966310Y-38227121D01*
X136008467Y-38269574D01*
X136015609Y-38275398D01*
X136015612Y-38275401D01*
X136015616Y-38275404D01*
X136091659Y-38336544D01*
X136141695Y-38369287D01*
X136191307Y-38402751D01*
X136199443Y-38407077D01*
X136285923Y-38452287D01*
X136341374Y-38474690D01*
X136396527Y-38497875D01*
X136405349Y-38500538D01*
X136498960Y-38528090D01*
X136557695Y-38539295D01*
X136616322Y-38551329D01*
X136625493Y-38552228D01*
X136722676Y-38561072D01*
X136782492Y-38560654D01*
X136842308Y-38561072D01*
X136851479Y-38560173D01*
X136948527Y-38549973D01*
X137007152Y-38537939D01*
X137065884Y-38526736D01*
X137074706Y-38524072D01*
X137167925Y-38495216D01*
X137223075Y-38472033D01*
X137278537Y-38449625D01*
X137286666Y-38445302D01*
X137286670Y-38445300D01*
X137286673Y-38445298D01*
X137372511Y-38398886D01*
X137422098Y-38365438D01*
X137472156Y-38332681D01*
X137479297Y-38326857D01*
X137554486Y-38264655D01*
X137596639Y-38222206D01*
X137632745Y-38186850D01*
X137676595Y-38268888D01*
X137787037Y-38403463D01*
X137921612Y-38513905D01*
X138075148Y-38595972D01*
X138241743Y-38646508D01*
X138414997Y-38663572D01*
X139715003Y-38663572D01*
X139888257Y-38646508D01*
X140054852Y-38595972D01*
X140208388Y-38513905D01*
X140342963Y-38403463D01*
X140453405Y-38268888D01*
X140535472Y-38115352D01*
X140586008Y-37948757D01*
X140603072Y-37775503D01*
X140603072Y-36950497D01*
X140586008Y-36777243D01*
X140535472Y-36610648D01*
X140453405Y-36457112D01*
X140342963Y-36322537D01*
X140208388Y-36212095D01*
X140054852Y-36130028D01*
X139888257Y-36079492D01*
X139715003Y-36062428D01*
X138414997Y-36062428D01*
X138241743Y-36079492D01*
X138075148Y-36130028D01*
X137939000Y-36202801D01*
X137939000Y-34632561D01*
X141395500Y-34632561D01*
X141395500Y-34836439D01*
X141435274Y-35036398D01*
X141513295Y-35224756D01*
X141626563Y-35394274D01*
X141770726Y-35538437D01*
X141940244Y-35651705D01*
X142128602Y-35729726D01*
X142328561Y-35769500D01*
X142532439Y-35769500D01*
X142732398Y-35729726D01*
X142920756Y-35651705D01*
X143090274Y-35538437D01*
X143234437Y-35394274D01*
X143347705Y-35224756D01*
X143425726Y-35036398D01*
X143465500Y-34836439D01*
X143465500Y-34632561D01*
X143425726Y-34432602D01*
X143347705Y-34244244D01*
X143279718Y-34142493D01*
X143297937Y-34124274D01*
X143411205Y-33954756D01*
X143489226Y-33766398D01*
X143529000Y-33566439D01*
X143529000Y-33362561D01*
X143489226Y-33162602D01*
X143411205Y-32974244D01*
X143297937Y-32804726D01*
X143153774Y-32660563D01*
X142984256Y-32547295D01*
X142795898Y-32469274D01*
X142595939Y-32429500D01*
X142392061Y-32429500D01*
X142192102Y-32469274D01*
X142003744Y-32547295D01*
X141834226Y-32660563D01*
X141690063Y-32804726D01*
X141576795Y-32974244D01*
X141498774Y-33162602D01*
X141459000Y-33362561D01*
X141459000Y-33566439D01*
X141498774Y-33766398D01*
X141576795Y-33954756D01*
X141644782Y-34056507D01*
X141626563Y-34074726D01*
X141513295Y-34244244D01*
X141435274Y-34432602D01*
X141395500Y-34632561D01*
X137939000Y-34632561D01*
X137939000Y-30371381D01*
X137935802Y-30338910D01*
X137935802Y-30332417D01*
X137934838Y-30323253D01*
X137930095Y-30280969D01*
X137929450Y-30274417D01*
X137929308Y-30273948D01*
X137923961Y-30226278D01*
X137911528Y-30167784D01*
X137899905Y-30109084D01*
X137897180Y-30100281D01*
X137867674Y-30007265D01*
X137844118Y-29952305D01*
X137821314Y-29896978D01*
X137816931Y-29888872D01*
X137769920Y-29803359D01*
X137736128Y-29754008D01*
X137703018Y-29704174D01*
X137697144Y-29697074D01*
X137634419Y-29622322D01*
X137591706Y-29580495D01*
X137549533Y-29538026D01*
X137542391Y-29532202D01*
X137466341Y-29471056D01*
X137416339Y-29438335D01*
X137366694Y-29404849D01*
X137358557Y-29400523D01*
X137272078Y-29355313D01*
X137216593Y-29332896D01*
X137161473Y-29309725D01*
X137152651Y-29307062D01*
X137059039Y-29279510D01*
X137000318Y-29268308D01*
X136941678Y-29256271D01*
X136932507Y-29255372D01*
X136835325Y-29246528D01*
X136775509Y-29246946D01*
X136715693Y-29246528D01*
X136706522Y-29247427D01*
X136609473Y-29257627D01*
X136550854Y-29269660D01*
X136492116Y-29280864D01*
X136483294Y-29283528D01*
X136390075Y-29312384D01*
X136334937Y-29335562D01*
X136279463Y-29357975D01*
X136271334Y-29362298D01*
X136271330Y-29362300D01*
X136271327Y-29362302D01*
X136185489Y-29408715D01*
X136135913Y-29442155D01*
X136085844Y-29474919D01*
X136078703Y-29480743D01*
X136003514Y-29542945D01*
X135961361Y-29585394D01*
X135918629Y-29627239D01*
X135912755Y-29634340D01*
X135851079Y-29709961D01*
X135817988Y-29759766D01*
X135784174Y-29809150D01*
X135779792Y-29817256D01*
X135733980Y-29903417D01*
X135711191Y-29958709D01*
X135687622Y-30013698D01*
X135684897Y-30022501D01*
X135656692Y-30115919D01*
X135645067Y-30174626D01*
X135632635Y-30233116D01*
X135631673Y-30242270D01*
X135631672Y-30242276D01*
X135631672Y-30242281D01*
X135622150Y-30339398D01*
X135619000Y-30371382D01*
X123887110Y-30371382D01*
X123739266Y-30191234D01*
X123475078Y-29974421D01*
X123173668Y-29813314D01*
X122846619Y-29714105D01*
X122591725Y-29689000D01*
X121121275Y-29689000D01*
X120866381Y-29714105D01*
X120539332Y-29813314D01*
X120237922Y-29974421D01*
X119973734Y-30191234D01*
X119756921Y-30455422D01*
X119595814Y-30756832D01*
X119496605Y-31083881D01*
X119463106Y-31424000D01*
X112086500Y-31424000D01*
X112086500Y-31396004D01*
X112022707Y-31075296D01*
X111897573Y-30773195D01*
X111715906Y-30501312D01*
X111484688Y-30270094D01*
X111445683Y-30244031D01*
X111921574Y-30244031D01*
X112032421Y-30521214D01*
X112343340Y-30674589D01*
X112678205Y-30764360D01*
X113024150Y-30787076D01*
X113367880Y-30741866D01*
X113696185Y-30630466D01*
X113900579Y-30521214D01*
X114011426Y-30244031D01*
X112966500Y-29199105D01*
X111921574Y-30244031D01*
X111445683Y-30244031D01*
X111212805Y-30088427D01*
X110910704Y-29963293D01*
X110589996Y-29899500D01*
X110263004Y-29899500D01*
X109942296Y-29963293D01*
X109640195Y-30088427D01*
X109368312Y-30270094D01*
X109137094Y-30501312D01*
X108955427Y-30773195D01*
X108830293Y-31075296D01*
X108766500Y-31396004D01*
X104660000Y-31396004D01*
X104660000Y-30244031D01*
X106841574Y-30244031D01*
X106952421Y-30521214D01*
X107263340Y-30674589D01*
X107598205Y-30764360D01*
X107944150Y-30787076D01*
X108287880Y-30741866D01*
X108616185Y-30630466D01*
X108820579Y-30521214D01*
X108931426Y-30244031D01*
X107886500Y-29199105D01*
X106841574Y-30244031D01*
X104660000Y-30244031D01*
X104660000Y-29077150D01*
X106118924Y-29077150D01*
X106164134Y-29420880D01*
X106275534Y-29749185D01*
X106384786Y-29953579D01*
X106661969Y-30064426D01*
X107706895Y-29019500D01*
X108066105Y-29019500D01*
X109111031Y-30064426D01*
X109388214Y-29953579D01*
X109541589Y-29642660D01*
X109631360Y-29307795D01*
X109646504Y-29077150D01*
X111198924Y-29077150D01*
X111244134Y-29420880D01*
X111355534Y-29749185D01*
X111464786Y-29953579D01*
X111741969Y-30064426D01*
X112786895Y-29019500D01*
X113146105Y-29019500D01*
X114191031Y-30064426D01*
X114468214Y-29953579D01*
X114621589Y-29642660D01*
X114711360Y-29307795D01*
X114734076Y-28961850D01*
X114701346Y-28713000D01*
X133915928Y-28713000D01*
X133928188Y-28837482D01*
X133964498Y-28957180D01*
X134023463Y-29067494D01*
X134102815Y-29164185D01*
X134199506Y-29243537D01*
X134309820Y-29302502D01*
X134429518Y-29338812D01*
X134554000Y-29351072D01*
X134930750Y-29348000D01*
X135089500Y-29189250D01*
X135089500Y-27940000D01*
X135343500Y-27940000D01*
X135343500Y-29189250D01*
X135502250Y-29348000D01*
X135879000Y-29351072D01*
X136003482Y-29338812D01*
X136123180Y-29302502D01*
X136233494Y-29243537D01*
X136330185Y-29164185D01*
X136409537Y-29067494D01*
X136468502Y-28957180D01*
X136504812Y-28837482D01*
X136517072Y-28713000D01*
X136514000Y-28098750D01*
X136355250Y-27940000D01*
X135343500Y-27940000D01*
X135089500Y-27940000D01*
X134077750Y-27940000D01*
X133919000Y-28098750D01*
X133915928Y-28713000D01*
X114701346Y-28713000D01*
X114688866Y-28618120D01*
X114577466Y-28289815D01*
X114468214Y-28085421D01*
X114191031Y-27974574D01*
X113146105Y-29019500D01*
X112786895Y-29019500D01*
X111741969Y-27974574D01*
X111464786Y-28085421D01*
X111311411Y-28396340D01*
X111221640Y-28731205D01*
X111198924Y-29077150D01*
X109646504Y-29077150D01*
X109654076Y-28961850D01*
X109608866Y-28618120D01*
X109497466Y-28289815D01*
X109388214Y-28085421D01*
X109111031Y-27974574D01*
X108066105Y-29019500D01*
X107706895Y-29019500D01*
X106661969Y-27974574D01*
X106384786Y-28085421D01*
X106231411Y-28396340D01*
X106141640Y-28731205D01*
X106118924Y-29077150D01*
X104660000Y-29077150D01*
X104660000Y-27794969D01*
X106841574Y-27794969D01*
X107886500Y-28839895D01*
X108931426Y-27794969D01*
X111921574Y-27794969D01*
X112966500Y-28839895D01*
X114011426Y-27794969D01*
X113900579Y-27517786D01*
X113589660Y-27364411D01*
X113254795Y-27274640D01*
X112908850Y-27251924D01*
X112565120Y-27297134D01*
X112236815Y-27408534D01*
X112032421Y-27517786D01*
X111921574Y-27794969D01*
X108931426Y-27794969D01*
X108820579Y-27517786D01*
X108509660Y-27364411D01*
X108174795Y-27274640D01*
X107828850Y-27251924D01*
X107485120Y-27297134D01*
X107156815Y-27408534D01*
X106952421Y-27517786D01*
X106841574Y-27794969D01*
X104660000Y-27794969D01*
X104660000Y-26499000D01*
X127651428Y-26499000D01*
X127651428Y-27349000D01*
X127663688Y-27473482D01*
X127699998Y-27593180D01*
X127758963Y-27703494D01*
X127838315Y-27800185D01*
X127935006Y-27879537D01*
X128045320Y-27938502D01*
X128165018Y-27974812D01*
X128289500Y-27987072D01*
X129139500Y-27987072D01*
X129263982Y-27974812D01*
X129383680Y-27938502D01*
X129392417Y-27933832D01*
X129424438Y-27943540D01*
X129587500Y-27816257D01*
X129587500Y-27802799D01*
X129590685Y-27800185D01*
X129670037Y-27703494D01*
X129729002Y-27593180D01*
X129765312Y-27473482D01*
X129777572Y-27349000D01*
X129777572Y-27051000D01*
X129841500Y-27051000D01*
X129841500Y-27816257D01*
X130004562Y-27943540D01*
X130039750Y-27932872D01*
X130230322Y-27850034D01*
X130401071Y-27731609D01*
X130545436Y-27582148D01*
X130657868Y-27407394D01*
X130734047Y-27214064D01*
X130608121Y-27051000D01*
X129841500Y-27051000D01*
X129777572Y-27051000D01*
X129777572Y-26913000D01*
X133915928Y-26913000D01*
X133919000Y-27527250D01*
X134077750Y-27686000D01*
X135089500Y-27686000D01*
X135089500Y-26436750D01*
X135343500Y-26436750D01*
X135343500Y-27686000D01*
X136355250Y-27686000D01*
X136514000Y-27527250D01*
X136517072Y-26913000D01*
X136504812Y-26788518D01*
X136468502Y-26668820D01*
X136409537Y-26558506D01*
X136330185Y-26461815D01*
X136233494Y-26382463D01*
X136123180Y-26323498D01*
X136003482Y-26287188D01*
X135879000Y-26274928D01*
X135502250Y-26278000D01*
X135343500Y-26436750D01*
X135089500Y-26436750D01*
X134930750Y-26278000D01*
X134554000Y-26274928D01*
X134429518Y-26287188D01*
X134309820Y-26323498D01*
X134199506Y-26382463D01*
X134102815Y-26461815D01*
X134023463Y-26558506D01*
X133964498Y-26668820D01*
X133928188Y-26788518D01*
X133915928Y-26913000D01*
X129777572Y-26913000D01*
X129777572Y-26499000D01*
X129765312Y-26374518D01*
X129729002Y-26254820D01*
X129670037Y-26144506D01*
X129590685Y-26047815D01*
X129587500Y-26045201D01*
X129587500Y-26031743D01*
X129841500Y-26031743D01*
X129841500Y-26797000D01*
X130608121Y-26797000D01*
X130734047Y-26633936D01*
X130657868Y-26440606D01*
X130545436Y-26265852D01*
X130401071Y-26116391D01*
X130230322Y-25997966D01*
X130039750Y-25915128D01*
X130004562Y-25904460D01*
X129841500Y-26031743D01*
X129587500Y-26031743D01*
X129424438Y-25904460D01*
X129392417Y-25914168D01*
X129383680Y-25909498D01*
X129263982Y-25873188D01*
X129139500Y-25860928D01*
X128289500Y-25860928D01*
X128165018Y-25873188D01*
X128045320Y-25909498D01*
X127935006Y-25968463D01*
X127838315Y-26047815D01*
X127758963Y-26144506D01*
X127699998Y-26254820D01*
X127663688Y-26374518D01*
X127651428Y-26499000D01*
X104660000Y-26499000D01*
X104660000Y-25742561D01*
X146945000Y-25742561D01*
X146945000Y-25946439D01*
X146984774Y-26146398D01*
X147062795Y-26334756D01*
X147176063Y-26504274D01*
X147320226Y-26648437D01*
X147489744Y-26761705D01*
X147678102Y-26839726D01*
X147878061Y-26879500D01*
X148081939Y-26879500D01*
X148281898Y-26839726D01*
X148470256Y-26761705D01*
X148639774Y-26648437D01*
X148662211Y-26626000D01*
X160353928Y-26626000D01*
X160353928Y-27476000D01*
X160366188Y-27600482D01*
X160402498Y-27720180D01*
X160461463Y-27830494D01*
X160540815Y-27927185D01*
X160637506Y-28006537D01*
X160747820Y-28065502D01*
X160867518Y-28101812D01*
X160992000Y-28114072D01*
X161842000Y-28114072D01*
X161966482Y-28101812D01*
X162086180Y-28065502D01*
X162094917Y-28060832D01*
X162126938Y-28070540D01*
X162290000Y-27943257D01*
X162290000Y-27929799D01*
X162293185Y-27927185D01*
X162372537Y-27830494D01*
X162431502Y-27720180D01*
X162467812Y-27600482D01*
X162480072Y-27476000D01*
X162480072Y-27178000D01*
X162544000Y-27178000D01*
X162544000Y-27943257D01*
X162707062Y-28070540D01*
X162742250Y-28059872D01*
X162932822Y-27977034D01*
X163103571Y-27858609D01*
X163247936Y-27709148D01*
X163360368Y-27534394D01*
X163436547Y-27341064D01*
X163310621Y-27178000D01*
X162544000Y-27178000D01*
X162480072Y-27178000D01*
X162480072Y-26626000D01*
X162467812Y-26501518D01*
X162431502Y-26381820D01*
X162372537Y-26271506D01*
X162293185Y-26174815D01*
X162290000Y-26172201D01*
X162290000Y-26158743D01*
X162544000Y-26158743D01*
X162544000Y-26924000D01*
X163310621Y-26924000D01*
X163436547Y-26760936D01*
X163360368Y-26567606D01*
X163247936Y-26392852D01*
X163103571Y-26243391D01*
X162932822Y-26124966D01*
X162742250Y-26042128D01*
X162707062Y-26031460D01*
X162544000Y-26158743D01*
X162290000Y-26158743D01*
X162126938Y-26031460D01*
X162094917Y-26041168D01*
X162086180Y-26036498D01*
X161966482Y-26000188D01*
X161842000Y-25987928D01*
X160992000Y-25987928D01*
X160867518Y-26000188D01*
X160747820Y-26036498D01*
X160637506Y-26095463D01*
X160540815Y-26174815D01*
X160461463Y-26271506D01*
X160402498Y-26381820D01*
X160366188Y-26501518D01*
X160353928Y-26626000D01*
X148662211Y-26626000D01*
X148783937Y-26504274D01*
X148897205Y-26334756D01*
X148975226Y-26146398D01*
X149015000Y-25946439D01*
X149015000Y-25742561D01*
X148975226Y-25542602D01*
X148897205Y-25354244D01*
X148824532Y-25245480D01*
X150366481Y-23703531D01*
X162340574Y-23703531D01*
X162451421Y-23980714D01*
X162762340Y-24134089D01*
X163097205Y-24223860D01*
X163443150Y-24246576D01*
X163786880Y-24201366D01*
X164115185Y-24089966D01*
X164319579Y-23980714D01*
X164430426Y-23703531D01*
X167420574Y-23703531D01*
X167531421Y-23980714D01*
X167842340Y-24134089D01*
X168177205Y-24223860D01*
X168523150Y-24246576D01*
X168866880Y-24201366D01*
X169195185Y-24089966D01*
X169399579Y-23980714D01*
X169510426Y-23703531D01*
X168465500Y-22658605D01*
X167420574Y-23703531D01*
X164430426Y-23703531D01*
X163385500Y-22658605D01*
X162340574Y-23703531D01*
X150366481Y-23703531D01*
X151533362Y-22536650D01*
X161617924Y-22536650D01*
X161663134Y-22880380D01*
X161774534Y-23208685D01*
X161883786Y-23413079D01*
X162160969Y-23523926D01*
X163205895Y-22479000D01*
X163565105Y-22479000D01*
X164610031Y-23523926D01*
X164887214Y-23413079D01*
X165040589Y-23102160D01*
X165130360Y-22767295D01*
X165145504Y-22536650D01*
X166697924Y-22536650D01*
X166743134Y-22880380D01*
X166854534Y-23208685D01*
X166963786Y-23413079D01*
X167240969Y-23523926D01*
X168285895Y-22479000D01*
X168645105Y-22479000D01*
X169690031Y-23523926D01*
X169967214Y-23413079D01*
X170120589Y-23102160D01*
X170210360Y-22767295D01*
X170233076Y-22421350D01*
X170187866Y-22077620D01*
X170076466Y-21749315D01*
X169967214Y-21544921D01*
X169690031Y-21434074D01*
X168645105Y-22479000D01*
X168285895Y-22479000D01*
X167240969Y-21434074D01*
X166963786Y-21544921D01*
X166810411Y-21855840D01*
X166720640Y-22190705D01*
X166697924Y-22536650D01*
X165145504Y-22536650D01*
X165153076Y-22421350D01*
X165107866Y-22077620D01*
X164996466Y-21749315D01*
X164887214Y-21544921D01*
X164610031Y-21434074D01*
X163565105Y-22479000D01*
X163205895Y-22479000D01*
X162160969Y-21434074D01*
X161883786Y-21544921D01*
X161730411Y-21855840D01*
X161640640Y-22190705D01*
X161617924Y-22536650D01*
X151533362Y-22536650D01*
X152815543Y-21254469D01*
X162340574Y-21254469D01*
X163385500Y-22299395D01*
X164430426Y-21254469D01*
X164319579Y-20977286D01*
X164008660Y-20823911D01*
X163673795Y-20734140D01*
X163327850Y-20711424D01*
X162984120Y-20756634D01*
X162655815Y-20868034D01*
X162451421Y-20977286D01*
X162340574Y-21254469D01*
X152815543Y-21254469D01*
X153321012Y-20749000D01*
X157781800Y-20749000D01*
X157942244Y-20856205D01*
X158130602Y-20934226D01*
X158330561Y-20974000D01*
X158534439Y-20974000D01*
X158734398Y-20934226D01*
X158922756Y-20856205D01*
X159092274Y-20742937D01*
X159236437Y-20598774D01*
X159349705Y-20429256D01*
X159427726Y-20240898D01*
X159467500Y-20040939D01*
X159467500Y-19837061D01*
X159455256Y-19775504D01*
X164265500Y-19775504D01*
X164265500Y-20102496D01*
X164329293Y-20423204D01*
X164454427Y-20725305D01*
X164636094Y-20997188D01*
X164867312Y-21228406D01*
X165139195Y-21410073D01*
X165441296Y-21535207D01*
X165762004Y-21599000D01*
X166088996Y-21599000D01*
X166409704Y-21535207D01*
X166711805Y-21410073D01*
X166944682Y-21254469D01*
X167420574Y-21254469D01*
X168465500Y-22299395D01*
X169510426Y-21254469D01*
X169399579Y-20977286D01*
X169088660Y-20823911D01*
X168753795Y-20734140D01*
X168407850Y-20711424D01*
X168064120Y-20756634D01*
X167735815Y-20868034D01*
X167531421Y-20977286D01*
X167420574Y-21254469D01*
X166944682Y-21254469D01*
X166983688Y-21228406D01*
X167214906Y-20997188D01*
X167396573Y-20725305D01*
X167521707Y-20423204D01*
X167585500Y-20102496D01*
X167585500Y-19775504D01*
X167521707Y-19454796D01*
X167396573Y-19152695D01*
X167214906Y-18880812D01*
X166983688Y-18649594D01*
X166944683Y-18623531D01*
X167420574Y-18623531D01*
X167531421Y-18900714D01*
X167842340Y-19054089D01*
X168177205Y-19143860D01*
X168523150Y-19166576D01*
X168866880Y-19121366D01*
X169195185Y-19009966D01*
X169399579Y-18900714D01*
X169510426Y-18623531D01*
X168465500Y-17578605D01*
X167420574Y-18623531D01*
X166944683Y-18623531D01*
X166711805Y-18467927D01*
X166409704Y-18342793D01*
X166088996Y-18279000D01*
X165762004Y-18279000D01*
X165441296Y-18342793D01*
X165139195Y-18467927D01*
X164867312Y-18649594D01*
X164636094Y-18880812D01*
X164454427Y-19152695D01*
X164329293Y-19454796D01*
X164265500Y-19775504D01*
X159455256Y-19775504D01*
X159427726Y-19637102D01*
X159349705Y-19448744D01*
X159236437Y-19279226D01*
X159092274Y-19135063D01*
X158922756Y-19021795D01*
X158734398Y-18943774D01*
X158534439Y-18904000D01*
X158330561Y-18904000D01*
X158130602Y-18943774D01*
X157942244Y-19021795D01*
X157781800Y-19129000D01*
X153025288Y-19129000D01*
X152985500Y-19125081D01*
X152945712Y-19129000D01*
X152945709Y-19129000D01*
X152826712Y-19140720D01*
X152674027Y-19187037D01*
X152608524Y-19222049D01*
X152533310Y-19262251D01*
X152498593Y-19290743D01*
X152409972Y-19363472D01*
X152384600Y-19394388D01*
X147435383Y-24343605D01*
X147404473Y-24368972D01*
X147379108Y-24399880D01*
X147303251Y-24492311D01*
X147228038Y-24633027D01*
X147181721Y-24785713D01*
X147166081Y-24944500D01*
X147170000Y-24984288D01*
X147170000Y-25193800D01*
X147062795Y-25354244D01*
X146984774Y-25542602D01*
X146945000Y-25742561D01*
X104660000Y-25742561D01*
X104660000Y-21341999D01*
X107171106Y-21341999D01*
X107387228Y-21708758D01*
X107847105Y-21949438D01*
X108345098Y-22095775D01*
X108862071Y-22142148D01*
X109378159Y-22086773D01*
X109873526Y-21931779D01*
X110290772Y-21708758D01*
X110506894Y-21341999D01*
X108839000Y-19674105D01*
X107171106Y-21341999D01*
X104660000Y-21341999D01*
X104660000Y-19517571D01*
X106191352Y-19517571D01*
X106246727Y-20033659D01*
X106401721Y-20529026D01*
X106624742Y-20946272D01*
X106991501Y-21162394D01*
X108659395Y-19494500D01*
X109018605Y-19494500D01*
X110686499Y-21162394D01*
X111053258Y-20946272D01*
X111293938Y-20486395D01*
X111440275Y-19988402D01*
X111486648Y-19471429D01*
X111431273Y-18955341D01*
X111327454Y-18623531D01*
X162340574Y-18623531D01*
X162451421Y-18900714D01*
X162762340Y-19054089D01*
X163097205Y-19143860D01*
X163443150Y-19166576D01*
X163786880Y-19121366D01*
X164115185Y-19009966D01*
X164319579Y-18900714D01*
X164430426Y-18623531D01*
X163385500Y-17578605D01*
X162340574Y-18623531D01*
X111327454Y-18623531D01*
X111276279Y-18459974D01*
X111053258Y-18042728D01*
X110686499Y-17826606D01*
X109018605Y-19494500D01*
X108659395Y-19494500D01*
X106991501Y-17826606D01*
X106624742Y-18042728D01*
X106384062Y-18502605D01*
X106237725Y-19000598D01*
X106191352Y-19517571D01*
X104660000Y-19517571D01*
X104660000Y-17647001D01*
X107171106Y-17647001D01*
X108839000Y-19314895D01*
X110506894Y-17647001D01*
X110394725Y-17456650D01*
X161617924Y-17456650D01*
X161663134Y-17800380D01*
X161774534Y-18128685D01*
X161883786Y-18333079D01*
X162160969Y-18443926D01*
X163205895Y-17399000D01*
X163565105Y-17399000D01*
X164610031Y-18443926D01*
X164887214Y-18333079D01*
X165040589Y-18022160D01*
X165130360Y-17687295D01*
X165145504Y-17456650D01*
X166697924Y-17456650D01*
X166743134Y-17800380D01*
X166854534Y-18128685D01*
X166963786Y-18333079D01*
X167240969Y-18443926D01*
X168285895Y-17399000D01*
X168645105Y-17399000D01*
X169690031Y-18443926D01*
X169967214Y-18333079D01*
X170120589Y-18022160D01*
X170210360Y-17687295D01*
X170233076Y-17341350D01*
X170187866Y-16997620D01*
X170076466Y-16669315D01*
X169967214Y-16464921D01*
X169690031Y-16354074D01*
X168645105Y-17399000D01*
X168285895Y-17399000D01*
X167240969Y-16354074D01*
X166963786Y-16464921D01*
X166810411Y-16775840D01*
X166720640Y-17110705D01*
X166697924Y-17456650D01*
X165145504Y-17456650D01*
X165153076Y-17341350D01*
X165107866Y-16997620D01*
X164996466Y-16669315D01*
X164887214Y-16464921D01*
X164610031Y-16354074D01*
X163565105Y-17399000D01*
X163205895Y-17399000D01*
X162160969Y-16354074D01*
X161883786Y-16464921D01*
X161730411Y-16775840D01*
X161640640Y-17110705D01*
X161617924Y-17456650D01*
X110394725Y-17456650D01*
X110290772Y-17280242D01*
X109830895Y-17039562D01*
X109332902Y-16893225D01*
X108815929Y-16846852D01*
X108299841Y-16902227D01*
X107804474Y-17057221D01*
X107387228Y-17280242D01*
X107171106Y-17647001D01*
X104660000Y-17647001D01*
X104660000Y-15660000D01*
X163110588Y-15660000D01*
X162984120Y-15676634D01*
G37*
%TD.AperFunction*%
%TD*%
M02*
