M48
; DRILL file {KiCad (5.1.8-0-10_14)} date Wednesday, April 27, 2022 at 02:32:07 PM
; FORMAT={-:-/ absolute / inch / decimal}
; #@! TF.CreationDate,2022-04-27T14:32:07-05:00
; #@! TF.GenerationSoftware,Kicad,Pcbnew,(5.1.8-0-10_14)
FMAT,2
INCH
T1C0.0157
T2C0.0197
T3C0.0276
T4C0.0295
T5C0.0315
T6C0.0472
T7C0.0512
T8C0.0591
T9C0.0669
T10C0.0787
%
G90
G05
T1
X4.8675Y-1.8212
X4.935Y-2.4925
X4.9825Y-2.3875
X5.25Y-2.3625
X5.2851Y-1.1476
X5.4005Y-2.0215
X5.4525Y-1.4675
X5.4799Y-1.1451
X5.4799Y-1.5774
X5.515Y-2.3775
X5.6075Y-1.3675
X5.61Y-1.3175
X5.685Y-2.3625
X5.8025Y-1.4175
X5.826Y-1.0175
X5.91Y-2.3875
X6.0767Y-0.8283
X6.0875Y-2.3475
X6.105Y-2.1625
X6.1525Y-1.895
X6.2375Y-0.785
X6.275Y-1.425
X6.3175Y-2.519
X6.32Y-1.95
X6.345Y-1.16
X6.365Y-1.695
X6.4025Y-1.265
X6.473Y-2.078
X6.485Y-2.6
X6.531Y-2.017
X6.63Y-1.38
T2
X5.0675Y-1.06
X5.1069Y-1.06
X5.7952Y-1.5866
X5.8346Y-1.5866
X6.5875Y-1.535
X6.6269Y-1.535
X6.355Y-1.065
X6.3944Y-1.065
X6.0675Y-1.4825
X6.1069Y-1.4825
T3
X5.055Y-1.295
X5.155Y-1.295
X4.5975Y-1.4725
X4.5975Y-1.7725
T4
X4.6375Y-2.3025
X4.6375Y-2.3525
X4.6375Y-2.4025
X4.6375Y-2.045
X4.6375Y-2.095
X4.6375Y-2.145
X4.6375Y-2.5425
X4.6375Y-2.5925
X4.6375Y-2.6425
T5
X4.7975Y-1.3198
X4.7975Y-1.3986
X4.7975Y-1.4773
T6
X5.43Y-2.18
X5.0925Y-2.18
X5.7375Y-2.1825
X6.58Y-2.2007
X6.3125Y-2.2025
T7
X4.2875Y-2.2025
X4.2875Y-2.3994
X4.2875Y-2.5962
T8
X4.3475Y-1.2425
X6.5325Y-0.785
X4.35Y-1.7625
X4.7975Y-1.2372
X4.7975Y-1.56
T9
X4.2475Y-1.1425
X4.2475Y-1.3425
X4.4475Y-1.1425
X4.4475Y-1.3425
X6.4325Y-0.685
X6.4325Y-0.885
X6.6325Y-0.685
X6.6325Y-0.885
X4.25Y-1.6625
X4.25Y-1.8625
X4.45Y-1.6625
X4.45Y-1.8625
T10
X4.285Y-0.7675
T0
M30
