%TF.GenerationSoftware,KiCad,Pcbnew,(5.1.8-0-10_14)*%
%TF.CreationDate,2022-02-24T11:49:15-06:00*%
%TF.ProjectId,SAQ_KiCad_one,5341515f-4b69-4436-9164-5f6f6e652e6b,rev?*%
%TF.SameCoordinates,Original*%
%TF.FileFunction,Soldermask,Bot*%
%TF.FilePolarity,Negative*%
%FSLAX46Y46*%
G04 Gerber Fmt 4.6, Leading zero omitted, Abs format (unit mm)*
G04 Created by KiCad (PCBNEW (5.1.8-0-10_14)) date 2022-02-24 11:49:15*
%MOMM*%
%LPD*%
G01*
G04 APERTURE LIST*
%ADD10R,1.500000X1.050000*%
%ADD11O,1.500000X1.050000*%
%ADD12C,2.250000*%
%ADD13C,2.050000*%
%ADD14C,2.500000*%
%ADD15R,2.500000X2.500000*%
%ADD16C,3.200000*%
%ADD17R,1.000000X1.000000*%
%ADD18R,1.100000X1.300000*%
%ADD19O,3.500000X2.200000*%
%ADD20O,2.500000X1.500000*%
%ADD21R,2.500000X1.500000*%
%ADD22C,2.800000*%
%ADD23R,2.800000X2.800000*%
%ADD24O,2.200000X2.200000*%
%ADD25R,2.200000X2.200000*%
G04 APERTURE END LIST*
D10*
%TO.C,U7*%
X168338500Y-59626500D03*
D11*
X168338500Y-57086500D03*
X168338500Y-58356500D03*
%TD*%
%TO.C,U5*%
G36*
G01*
X166409500Y-40218500D02*
X166409500Y-39918500D01*
G75*
G02*
X166559500Y-39768500I150000J0D01*
G01*
X168209500Y-39768500D01*
G75*
G02*
X168359500Y-39918500I0J-150000D01*
G01*
X168359500Y-40218500D01*
G75*
G02*
X168209500Y-40368500I-150000J0D01*
G01*
X166559500Y-40368500D01*
G75*
G02*
X166409500Y-40218500I0J150000D01*
G01*
G37*
G36*
G01*
X166409500Y-38948500D02*
X166409500Y-38648500D01*
G75*
G02*
X166559500Y-38498500I150000J0D01*
G01*
X168209500Y-38498500D01*
G75*
G02*
X168359500Y-38648500I0J-150000D01*
G01*
X168359500Y-38948500D01*
G75*
G02*
X168209500Y-39098500I-150000J0D01*
G01*
X166559500Y-39098500D01*
G75*
G02*
X166409500Y-38948500I0J150000D01*
G01*
G37*
G36*
G01*
X166409500Y-37678500D02*
X166409500Y-37378500D01*
G75*
G02*
X166559500Y-37228500I150000J0D01*
G01*
X168209500Y-37228500D01*
G75*
G02*
X168359500Y-37378500I0J-150000D01*
G01*
X168359500Y-37678500D01*
G75*
G02*
X168209500Y-37828500I-150000J0D01*
G01*
X166559500Y-37828500D01*
G75*
G02*
X166409500Y-37678500I0J150000D01*
G01*
G37*
G36*
G01*
X166409500Y-36408500D02*
X166409500Y-36108500D01*
G75*
G02*
X166559500Y-35958500I150000J0D01*
G01*
X168209500Y-35958500D01*
G75*
G02*
X168359500Y-36108500I0J-150000D01*
G01*
X168359500Y-36408500D01*
G75*
G02*
X168209500Y-36558500I-150000J0D01*
G01*
X166559500Y-36558500D01*
G75*
G02*
X166409500Y-36408500I0J150000D01*
G01*
G37*
G36*
G01*
X166409500Y-35138500D02*
X166409500Y-34838500D01*
G75*
G02*
X166559500Y-34688500I150000J0D01*
G01*
X168209500Y-34688500D01*
G75*
G02*
X168359500Y-34838500I0J-150000D01*
G01*
X168359500Y-35138500D01*
G75*
G02*
X168209500Y-35288500I-150000J0D01*
G01*
X166559500Y-35288500D01*
G75*
G02*
X166409500Y-35138500I0J150000D01*
G01*
G37*
G36*
G01*
X166409500Y-33868500D02*
X166409500Y-33568500D01*
G75*
G02*
X166559500Y-33418500I150000J0D01*
G01*
X168209500Y-33418500D01*
G75*
G02*
X168359500Y-33568500I0J-150000D01*
G01*
X168359500Y-33868500D01*
G75*
G02*
X168209500Y-34018500I-150000J0D01*
G01*
X166559500Y-34018500D01*
G75*
G02*
X166409500Y-33868500I0J150000D01*
G01*
G37*
G36*
G01*
X166409500Y-32598500D02*
X166409500Y-32298500D01*
G75*
G02*
X166559500Y-32148500I150000J0D01*
G01*
X168209500Y-32148500D01*
G75*
G02*
X168359500Y-32298500I0J-150000D01*
G01*
X168359500Y-32598500D01*
G75*
G02*
X168209500Y-32748500I-150000J0D01*
G01*
X166559500Y-32748500D01*
G75*
G02*
X166409500Y-32598500I0J150000D01*
G01*
G37*
G36*
G01*
X161459500Y-32598500D02*
X161459500Y-32298500D01*
G75*
G02*
X161609500Y-32148500I150000J0D01*
G01*
X163259500Y-32148500D01*
G75*
G02*
X163409500Y-32298500I0J-150000D01*
G01*
X163409500Y-32598500D01*
G75*
G02*
X163259500Y-32748500I-150000J0D01*
G01*
X161609500Y-32748500D01*
G75*
G02*
X161459500Y-32598500I0J150000D01*
G01*
G37*
G36*
G01*
X161459500Y-33868500D02*
X161459500Y-33568500D01*
G75*
G02*
X161609500Y-33418500I150000J0D01*
G01*
X163259500Y-33418500D01*
G75*
G02*
X163409500Y-33568500I0J-150000D01*
G01*
X163409500Y-33868500D01*
G75*
G02*
X163259500Y-34018500I-150000J0D01*
G01*
X161609500Y-34018500D01*
G75*
G02*
X161459500Y-33868500I0J150000D01*
G01*
G37*
G36*
G01*
X161459500Y-35138500D02*
X161459500Y-34838500D01*
G75*
G02*
X161609500Y-34688500I150000J0D01*
G01*
X163259500Y-34688500D01*
G75*
G02*
X163409500Y-34838500I0J-150000D01*
G01*
X163409500Y-35138500D01*
G75*
G02*
X163259500Y-35288500I-150000J0D01*
G01*
X161609500Y-35288500D01*
G75*
G02*
X161459500Y-35138500I0J150000D01*
G01*
G37*
G36*
G01*
X161459500Y-36408500D02*
X161459500Y-36108500D01*
G75*
G02*
X161609500Y-35958500I150000J0D01*
G01*
X163259500Y-35958500D01*
G75*
G02*
X163409500Y-36108500I0J-150000D01*
G01*
X163409500Y-36408500D01*
G75*
G02*
X163259500Y-36558500I-150000J0D01*
G01*
X161609500Y-36558500D01*
G75*
G02*
X161459500Y-36408500I0J150000D01*
G01*
G37*
G36*
G01*
X161459500Y-37678500D02*
X161459500Y-37378500D01*
G75*
G02*
X161609500Y-37228500I150000J0D01*
G01*
X163259500Y-37228500D01*
G75*
G02*
X163409500Y-37378500I0J-150000D01*
G01*
X163409500Y-37678500D01*
G75*
G02*
X163259500Y-37828500I-150000J0D01*
G01*
X161609500Y-37828500D01*
G75*
G02*
X161459500Y-37678500I0J150000D01*
G01*
G37*
G36*
G01*
X161459500Y-38948500D02*
X161459500Y-38648500D01*
G75*
G02*
X161609500Y-38498500I150000J0D01*
G01*
X163259500Y-38498500D01*
G75*
G02*
X163409500Y-38648500I0J-150000D01*
G01*
X163409500Y-38948500D01*
G75*
G02*
X163259500Y-39098500I-150000J0D01*
G01*
X161609500Y-39098500D01*
G75*
G02*
X161459500Y-38948500I0J150000D01*
G01*
G37*
G36*
G01*
X161459500Y-40218500D02*
X161459500Y-39918500D01*
G75*
G02*
X161609500Y-39768500I150000J0D01*
G01*
X163259500Y-39768500D01*
G75*
G02*
X163409500Y-39918500I0J-150000D01*
G01*
X163409500Y-40218500D01*
G75*
G02*
X163259500Y-40368500I-150000J0D01*
G01*
X161609500Y-40368500D01*
G75*
G02*
X161459500Y-40218500I0J150000D01*
G01*
G37*
%TD*%
D12*
%TO.C,J6*%
X115062000Y-24066500D03*
X115062000Y-18986500D03*
X120142000Y-18986500D03*
X120142000Y-24066500D03*
D13*
X117602000Y-21526500D03*
%TD*%
D12*
%TO.C,J3*%
X160909000Y-29083000D03*
X160909000Y-24003000D03*
X165989000Y-24003000D03*
X165989000Y-29083000D03*
D13*
X163449000Y-26543000D03*
%TD*%
%TO.C,C13*%
G36*
G01*
X138063000Y-32179497D02*
X138063000Y-33479503D01*
G75*
G02*
X137813003Y-33729500I-249997J0D01*
G01*
X136987997Y-33729500D01*
G75*
G02*
X136738000Y-33479503I0J249997D01*
G01*
X136738000Y-32179497D01*
G75*
G02*
X136987997Y-31929500I249997J0D01*
G01*
X137813003Y-31929500D01*
G75*
G02*
X138063000Y-32179497I0J-249997D01*
G01*
G37*
G36*
G01*
X141188000Y-32179497D02*
X141188000Y-33479503D01*
G75*
G02*
X140938003Y-33729500I-249997J0D01*
G01*
X140112997Y-33729500D01*
G75*
G02*
X139863000Y-33479503I0J249997D01*
G01*
X139863000Y-32179497D01*
G75*
G02*
X140112997Y-31929500I249997J0D01*
G01*
X140938003Y-31929500D01*
G75*
G02*
X141188000Y-32179497I0J-249997D01*
G01*
G37*
%TD*%
D10*
%TO.C,U6*%
X149288500Y-54927500D03*
D11*
X149288500Y-57467500D03*
X149288500Y-56197500D03*
%TD*%
D14*
%TO.C,J5*%
X160685500Y-64516000D03*
X155685500Y-64516000D03*
D15*
X150685500Y-64516000D03*
%TD*%
%TO.C,C18*%
G36*
G01*
X150506000Y-29415503D02*
X150506000Y-28115497D01*
G75*
G02*
X150755997Y-27865500I249997J0D01*
G01*
X151581003Y-27865500D01*
G75*
G02*
X151831000Y-28115497I0J-249997D01*
G01*
X151831000Y-29415503D01*
G75*
G02*
X151581003Y-29665500I-249997J0D01*
G01*
X150755997Y-29665500D01*
G75*
G02*
X150506000Y-29415503I0J249997D01*
G01*
G37*
G36*
G01*
X147381000Y-29415503D02*
X147381000Y-28115497D01*
G75*
G02*
X147630997Y-27865500I249997J0D01*
G01*
X148456003Y-27865500D01*
G75*
G02*
X148706000Y-28115497I0J-249997D01*
G01*
X148706000Y-29415503D01*
G75*
G02*
X148456003Y-29665500I-249997J0D01*
G01*
X147630997Y-29665500D01*
G75*
G02*
X147381000Y-29415503I0J249997D01*
G01*
G37*
%TD*%
D16*
%TO.C,H5*%
X107500000Y-18500000D03*
%TD*%
%TO.C,H4*%
X167500000Y-18500000D03*
%TD*%
%TO.C,H3*%
X167500000Y-65500000D03*
%TD*%
%TO.C,H2*%
X107500000Y-65500000D03*
%TD*%
D17*
%TO.C,TP9*%
X127635000Y-35941000D03*
%TD*%
%TO.C,TP8*%
X145224500Y-39941500D03*
%TD*%
%TO.C,TP6*%
X141795500Y-39941500D03*
%TD*%
%TO.C,TP5*%
X164338000Y-42608500D03*
%TD*%
%TO.C,TP4*%
X159766000Y-34417000D03*
%TD*%
%TO.C,TP3*%
X155384500Y-32321500D03*
%TD*%
%TO.C,TP2*%
X153225500Y-27051000D03*
%TD*%
%TO.C,TP1*%
X139763500Y-19494500D03*
%TD*%
D18*
%TO.C,X1*%
X164147000Y-47405000D03*
X164147000Y-45305000D03*
X162497000Y-45305000D03*
X162497000Y-47405000D03*
%TD*%
D19*
%TO.C,SW2*%
X168021000Y-44446000D03*
X168021000Y-52646000D03*
D20*
X168021000Y-46546000D03*
X168021000Y-48546000D03*
D21*
X168021000Y-50546000D03*
%TD*%
D19*
%TO.C,SW1*%
X129286000Y-22665500D03*
X129286000Y-30865500D03*
D20*
X129286000Y-24765500D03*
X129286000Y-26765500D03*
D21*
X129286000Y-28765500D03*
%TD*%
%TO.C,R18*%
G36*
G01*
X169423501Y-28127500D02*
X168523499Y-28127500D01*
G75*
G02*
X168273500Y-27877501I0J249999D01*
G01*
X168273500Y-27177499D01*
G75*
G02*
X168523499Y-26927500I249999J0D01*
G01*
X169423501Y-26927500D01*
G75*
G02*
X169673500Y-27177499I0J-249999D01*
G01*
X169673500Y-27877501D01*
G75*
G02*
X169423501Y-28127500I-249999J0D01*
G01*
G37*
G36*
G01*
X169423501Y-30127500D02*
X168523499Y-30127500D01*
G75*
G02*
X168273500Y-29877501I0J249999D01*
G01*
X168273500Y-29177499D01*
G75*
G02*
X168523499Y-28927500I249999J0D01*
G01*
X169423501Y-28927500D01*
G75*
G02*
X169673500Y-29177499I0J-249999D01*
G01*
X169673500Y-29877501D01*
G75*
G02*
X169423501Y-30127500I-249999J0D01*
G01*
G37*
%TD*%
%TO.C,R17*%
G36*
G01*
X152054000Y-32771501D02*
X152054000Y-31871499D01*
G75*
G02*
X152303999Y-31621500I249999J0D01*
G01*
X153004001Y-31621500D01*
G75*
G02*
X153254000Y-31871499I0J-249999D01*
G01*
X153254000Y-32771501D01*
G75*
G02*
X153004001Y-33021500I-249999J0D01*
G01*
X152303999Y-33021500D01*
G75*
G02*
X152054000Y-32771501I0J249999D01*
G01*
G37*
G36*
G01*
X150054000Y-32771501D02*
X150054000Y-31871499D01*
G75*
G02*
X150303999Y-31621500I249999J0D01*
G01*
X151004001Y-31621500D01*
G75*
G02*
X151254000Y-31871499I0J-249999D01*
G01*
X151254000Y-32771501D01*
G75*
G02*
X151004001Y-33021500I-249999J0D01*
G01*
X150303999Y-33021500D01*
G75*
G02*
X150054000Y-32771501I0J249999D01*
G01*
G37*
%TD*%
%TO.C,R15*%
G36*
G01*
X152038000Y-22675001D02*
X152038000Y-21774999D01*
G75*
G02*
X152287999Y-21525000I249999J0D01*
G01*
X152988001Y-21525000D01*
G75*
G02*
X153238000Y-21774999I0J-249999D01*
G01*
X153238000Y-22675001D01*
G75*
G02*
X152988001Y-22925000I-249999J0D01*
G01*
X152287999Y-22925000D01*
G75*
G02*
X152038000Y-22675001I0J249999D01*
G01*
G37*
G36*
G01*
X150038000Y-22675001D02*
X150038000Y-21774999D01*
G75*
G02*
X150287999Y-21525000I249999J0D01*
G01*
X150988001Y-21525000D01*
G75*
G02*
X151238000Y-21774999I0J-249999D01*
G01*
X151238000Y-22675001D01*
G75*
G02*
X150988001Y-22925000I-249999J0D01*
G01*
X150287999Y-22925000D01*
G75*
G02*
X150038000Y-22675001I0J249999D01*
G01*
G37*
%TD*%
D14*
%TO.C,J2*%
X109156500Y-58102500D03*
X109156500Y-53102500D03*
D15*
X109156500Y-48102500D03*
%TD*%
D22*
%TO.C,J1*%
X111696500Y-34560500D03*
D23*
X111696500Y-39560500D03*
%TD*%
D24*
%TO.C,D4*%
X132270500Y-66357500D03*
D25*
X122110500Y-66357500D03*
%TD*%
D24*
%TO.C,D3*%
X122999500Y-39687500D03*
D25*
X133159500Y-39687500D03*
%TD*%
D24*
%TO.C,D2*%
X137350500Y-56197500D03*
D25*
X137350500Y-66357500D03*
%TD*%
D24*
%TO.C,D1*%
X138239500Y-39687500D03*
D25*
X138239500Y-49847500D03*
%TD*%
%TO.C,C8*%
G36*
G01*
X152858500Y-35354497D02*
X152858500Y-36654503D01*
G75*
G02*
X152608503Y-36904500I-249997J0D01*
G01*
X151783497Y-36904500D01*
G75*
G02*
X151533500Y-36654503I0J249997D01*
G01*
X151533500Y-35354497D01*
G75*
G02*
X151783497Y-35104500I249997J0D01*
G01*
X152608503Y-35104500D01*
G75*
G02*
X152858500Y-35354497I0J-249997D01*
G01*
G37*
G36*
G01*
X155983500Y-35354497D02*
X155983500Y-36654503D01*
G75*
G02*
X155733503Y-36904500I-249997J0D01*
G01*
X154908497Y-36904500D01*
G75*
G02*
X154658500Y-36654503I0J249997D01*
G01*
X154658500Y-35354497D01*
G75*
G02*
X154908497Y-35104500I249997J0D01*
G01*
X155733503Y-35104500D01*
G75*
G02*
X155983500Y-35354497I0J-249997D01*
G01*
G37*
%TD*%
M02*
