%TF.GenerationSoftware,KiCad,Pcbnew,(5.1.8-0-10_14)*%
%TF.CreationDate,2022-02-24T11:49:15-06:00*%
%TF.ProjectId,SAQ_KiCad_one,5341515f-4b69-4436-9164-5f6f6e652e6b,rev?*%
%TF.SameCoordinates,Original*%
%TF.FileFunction,Legend,Top*%
%TF.FilePolarity,Positive*%
%FSLAX46Y46*%
G04 Gerber Fmt 4.6, Leading zero omitted, Abs format (unit mm)*
G04 Created by KiCad (PCBNEW (5.1.8-0-10_14)) date 2022-02-24 11:49:15*
%MOMM*%
%LPD*%
G01*
G04 APERTURE LIST*
%ADD10C,0.120000*%
%ADD11C,0.150000*%
G04 APERTURE END LIST*
D10*
%TO.C,U7*%
X170188500Y-60156500D02*
X170188500Y-56556500D01*
X170176978Y-56518022D02*
G75*
G03*
X165738500Y-58356500I-1838478J-1838478D01*
G01*
X170176978Y-60194978D02*
G75*
G02*
X165738500Y-58356500I-1838478J1838478D01*
G01*
%TO.C,JP3*%
X139063500Y-21225000D02*
X140463500Y-21225000D01*
X141163500Y-21925000D02*
X141163500Y-22525000D01*
X140463500Y-23225000D02*
X139063500Y-23225000D01*
X138363500Y-22525000D02*
X138363500Y-21925000D01*
X138363500Y-21925000D02*
G75*
G02*
X139063500Y-21225000I700000J0D01*
G01*
X139063500Y-23225000D02*
G75*
G02*
X138363500Y-22525000I0J700000D01*
G01*
X141163500Y-22525000D02*
G75*
G02*
X140463500Y-23225000I-700000J0D01*
G01*
X140463500Y-21225000D02*
G75*
G02*
X141163500Y-21925000I0J-700000D01*
G01*
%TO.C,JP2*%
X139063500Y-23892000D02*
X140463500Y-23892000D01*
X141163500Y-24592000D02*
X141163500Y-25192000D01*
X140463500Y-25892000D02*
X139063500Y-25892000D01*
X138363500Y-25192000D02*
X138363500Y-24592000D01*
X138363500Y-24592000D02*
G75*
G02*
X139063500Y-23892000I700000J0D01*
G01*
X139063500Y-25892000D02*
G75*
G02*
X138363500Y-25192000I0J700000D01*
G01*
X141163500Y-25192000D02*
G75*
G02*
X140463500Y-25892000I-700000J0D01*
G01*
X140463500Y-23892000D02*
G75*
G02*
X141163500Y-24592000I0J-700000D01*
G01*
%TO.C,JP1*%
X139063500Y-26559000D02*
X140463500Y-26559000D01*
X141163500Y-27259000D02*
X141163500Y-27859000D01*
X140463500Y-28559000D02*
X139063500Y-28559000D01*
X138363500Y-27859000D02*
X138363500Y-27259000D01*
X138363500Y-27259000D02*
G75*
G02*
X139063500Y-26559000I700000J0D01*
G01*
X139063500Y-28559000D02*
G75*
G02*
X138363500Y-27859000I0J700000D01*
G01*
X141163500Y-27859000D02*
G75*
G02*
X140463500Y-28559000I-700000J0D01*
G01*
X140463500Y-26559000D02*
G75*
G02*
X141163500Y-27259000I0J-700000D01*
G01*
%TO.C,J6*%
X115802000Y-17846500D02*
X119402000Y-17846500D01*
X115802000Y-25206500D02*
X119402000Y-25206500D01*
X121282000Y-19726500D02*
X121282000Y-23326500D01*
X113922000Y-19726500D02*
X113922000Y-23326500D01*
%TO.C,J3*%
X161649000Y-22863000D02*
X165249000Y-22863000D01*
X161649000Y-30223000D02*
X165249000Y-30223000D01*
X167129000Y-24743000D02*
X167129000Y-28343000D01*
X159769000Y-24743000D02*
X159769000Y-28343000D01*
%TO.C,U4*%
X145226000Y-34754500D02*
X148676000Y-34754500D01*
X145226000Y-34754500D02*
X143276000Y-34754500D01*
X145226000Y-29634500D02*
X147176000Y-29634500D01*
X145226000Y-29634500D02*
X143276000Y-29634500D01*
%TO.C,R11*%
X136244000Y-29246564D02*
X136244000Y-28792436D01*
X134774000Y-29246564D02*
X134774000Y-28792436D01*
%TO.C,U6*%
X147438500Y-54397500D02*
X147438500Y-57997500D01*
X147450022Y-58035978D02*
G75*
G03*
X151888500Y-56197500I1838478J1838478D01*
G01*
X147450022Y-54359022D02*
G75*
G02*
X151888500Y-56197500I1838478J-1838478D01*
G01*
%TO.C,U3*%
X145224500Y-19060000D02*
X141774500Y-19060000D01*
X145224500Y-19060000D02*
X147174500Y-19060000D01*
X145224500Y-27930000D02*
X143274500Y-27930000D01*
X145224500Y-27930000D02*
X147174500Y-27930000D01*
%TO.C,J5*%
X147885500Y-68816000D02*
X149885500Y-68816000D01*
X147885500Y-66576000D02*
X147885500Y-68816000D01*
X159505500Y-65492000D02*
X159411500Y-65585000D01*
X161755500Y-63241000D02*
X161696500Y-63300000D01*
X159675500Y-65732000D02*
X159616500Y-65790000D01*
X161960500Y-63447000D02*
X161866500Y-63540000D01*
X154505500Y-65492000D02*
X154411500Y-65585000D01*
X156755500Y-63241000D02*
X156696500Y-63300000D01*
X154675500Y-65732000D02*
X154616500Y-65790000D01*
X156960500Y-63447000D02*
X156866500Y-63540000D01*
X163245500Y-60456000D02*
X163245500Y-68576000D01*
X148125500Y-60456000D02*
X148125500Y-68576000D01*
X148125500Y-68576000D02*
X163245500Y-68576000D01*
X148125500Y-60456000D02*
X163245500Y-60456000D01*
X148125500Y-62516000D02*
X163245500Y-62516000D01*
X148125500Y-66516000D02*
X163245500Y-66516000D01*
X162365500Y-64516000D02*
G75*
G03*
X162365500Y-64516000I-1680000J0D01*
G01*
X157365500Y-64516000D02*
G75*
G03*
X157365500Y-64516000I-1680000J0D01*
G01*
X150714883Y-66196450D02*
G75*
G02*
X149896500Y-66000000I-29383J1680450D01*
G01*
X149201547Y-65305088D02*
G75*
G02*
X149201500Y-63727000I1483953J789088D01*
G01*
X149896412Y-63032047D02*
G75*
G02*
X151474500Y-63032000I789088J-1483953D01*
G01*
X152169453Y-63726912D02*
G75*
G02*
X152169500Y-65305000I-1483953J-789088D01*
G01*
X151474212Y-65999352D02*
G75*
G02*
X150685500Y-66196000I-788712J1483352D01*
G01*
%TO.C,C17*%
X146761252Y-16616000D02*
X145338748Y-16616000D01*
X146761252Y-18436000D02*
X145338748Y-18436000D01*
%TO.C,C16*%
X160308500Y-59002000D02*
X160933500Y-59002000D01*
X160621000Y-59314500D02*
X160621000Y-58689500D01*
X164001563Y-58449500D02*
X165066000Y-57385063D01*
X160610437Y-58449500D02*
X159546000Y-57385063D01*
X160610437Y-58449500D02*
X161246000Y-58449500D01*
X164001563Y-58449500D02*
X163366000Y-58449500D01*
X165066000Y-57385063D02*
X165066000Y-52929500D01*
X159546000Y-57385063D02*
X159546000Y-52929500D01*
X159546000Y-52929500D02*
X161246000Y-52929500D01*
X165066000Y-52929500D02*
X163366000Y-52929500D01*
%TO.C,C7*%
X157763000Y-52377000D02*
X157138000Y-52377000D01*
X157450500Y-52064500D02*
X157450500Y-52689500D01*
X154069937Y-52929500D02*
X153005500Y-53993937D01*
X157461063Y-52929500D02*
X158525500Y-53993937D01*
X157461063Y-52929500D02*
X156825500Y-52929500D01*
X154069937Y-52929500D02*
X154705500Y-52929500D01*
X153005500Y-53993937D02*
X153005500Y-58449500D01*
X158525500Y-53993937D02*
X158525500Y-58449500D01*
X158525500Y-58449500D02*
X156825500Y-58449500D01*
X153005500Y-58449500D02*
X154705500Y-58449500D01*
%TO.C,C11*%
X168541752Y-38587000D02*
X167119248Y-38587000D01*
X168541752Y-40407000D02*
X167119248Y-40407000D01*
%TO.C,TP9*%
X126935000Y-35241000D02*
X128335000Y-35241000D01*
X128335000Y-35241000D02*
X128335000Y-36641000D01*
X128335000Y-36641000D02*
X126935000Y-36641000D01*
X126935000Y-36641000D02*
X126935000Y-35241000D01*
%TO.C,TP8*%
X144524500Y-39241500D02*
X145924500Y-39241500D01*
X145924500Y-39241500D02*
X145924500Y-40641500D01*
X145924500Y-40641500D02*
X144524500Y-40641500D01*
X144524500Y-40641500D02*
X144524500Y-39241500D01*
%TO.C,TP6*%
X141095500Y-39241500D02*
X142495500Y-39241500D01*
X142495500Y-39241500D02*
X142495500Y-40641500D01*
X142495500Y-40641500D02*
X141095500Y-40641500D01*
X141095500Y-40641500D02*
X141095500Y-39241500D01*
%TO.C,TP5*%
X163638000Y-41908500D02*
X165038000Y-41908500D01*
X165038000Y-41908500D02*
X165038000Y-43308500D01*
X165038000Y-43308500D02*
X163638000Y-43308500D01*
X163638000Y-43308500D02*
X163638000Y-41908500D01*
%TO.C,TP4*%
X159066000Y-33717000D02*
X160466000Y-33717000D01*
X160466000Y-33717000D02*
X160466000Y-35117000D01*
X160466000Y-35117000D02*
X159066000Y-35117000D01*
X159066000Y-35117000D02*
X159066000Y-33717000D01*
%TO.C,TP3*%
X154684500Y-31621500D02*
X156084500Y-31621500D01*
X156084500Y-31621500D02*
X156084500Y-33021500D01*
X156084500Y-33021500D02*
X154684500Y-33021500D01*
X154684500Y-33021500D02*
X154684500Y-31621500D01*
%TO.C,TP2*%
X152525500Y-26351000D02*
X153925500Y-26351000D01*
X153925500Y-26351000D02*
X153925500Y-27751000D01*
X153925500Y-27751000D02*
X152525500Y-27751000D01*
X152525500Y-27751000D02*
X152525500Y-26351000D01*
%TO.C,TP1*%
X139063500Y-18794500D02*
X140463500Y-18794500D01*
X140463500Y-18794500D02*
X140463500Y-20194500D01*
X140463500Y-20194500D02*
X139063500Y-20194500D01*
X139063500Y-20194500D02*
X139063500Y-18794500D01*
%TO.C,U2*%
X125630500Y-55073500D02*
X131640500Y-55073500D01*
X127880500Y-61893500D02*
X131640500Y-61893500D01*
X131640500Y-55073500D02*
X131640500Y-56333500D01*
X131640500Y-61893500D02*
X131640500Y-60633500D01*
%TO.C,U1*%
X125891720Y-43651120D02*
X131901720Y-43651120D01*
X128141720Y-50471120D02*
X131901720Y-50471120D01*
X131901720Y-43651120D02*
X131901720Y-44911120D01*
X131901720Y-50471120D02*
X131901720Y-49211120D01*
%TO.C,SW2*%
X165061000Y-50046000D02*
X165061000Y-51046000D01*
X165561000Y-50546000D02*
X165061000Y-50046000D01*
X165061000Y-51046000D02*
X165561000Y-50546000D01*
X170281000Y-44136000D02*
X169971000Y-44136000D01*
X170281000Y-52956000D02*
X169971000Y-52956000D01*
X166071000Y-52956000D02*
X165761000Y-52956000D01*
X170281000Y-44136000D02*
X170281000Y-52956000D01*
X165761000Y-44136000D02*
X166071000Y-44136000D01*
X165761000Y-52956000D02*
X165761000Y-44136000D01*
%TO.C,SW1*%
X126326000Y-28265500D02*
X126326000Y-29265500D01*
X126826000Y-28765500D02*
X126326000Y-28265500D01*
X126326000Y-29265500D02*
X126826000Y-28765500D01*
X131546000Y-22355500D02*
X131236000Y-22355500D01*
X131546000Y-31175500D02*
X131236000Y-31175500D01*
X127336000Y-31175500D02*
X127026000Y-31175500D01*
X131546000Y-22355500D02*
X131546000Y-31175500D01*
X127026000Y-22355500D02*
X127336000Y-22355500D01*
X127026000Y-31175500D02*
X127026000Y-22355500D01*
%TO.C,RV1*%
X154856500Y-39468500D02*
X154856500Y-43208500D01*
X149816500Y-39468500D02*
X149816500Y-43208500D01*
X153576500Y-43208500D02*
X154856500Y-43208500D01*
X149816500Y-43208500D02*
X151096500Y-43208500D01*
X151976500Y-39468500D02*
X152696500Y-39468500D01*
X149816500Y-39468500D02*
X150196500Y-39468500D01*
X154476500Y-39468500D02*
X154856500Y-39468500D01*
%TO.C,R16*%
X149950500Y-31141936D02*
X149950500Y-31596064D01*
X151420500Y-31141936D02*
X151420500Y-31596064D01*
%TO.C,R13*%
X149950500Y-25807936D02*
X149950500Y-26262064D01*
X151420500Y-25807936D02*
X151420500Y-26262064D01*
%TO.C,R10*%
X132361000Y-28776436D02*
X132361000Y-29230564D01*
X133831000Y-28776436D02*
X133831000Y-29230564D01*
%TO.C,R9*%
X144616500Y-56414936D02*
X144616500Y-56869064D01*
X146086500Y-56414936D02*
X146086500Y-56869064D01*
%TO.C,R8*%
X143554500Y-56869064D02*
X143554500Y-56414936D01*
X142084500Y-56869064D02*
X142084500Y-56414936D01*
%TO.C,R7*%
X147283500Y-40730436D02*
X147283500Y-41184564D01*
X148753500Y-40730436D02*
X148753500Y-41184564D01*
%TO.C,R6*%
X139552500Y-56414936D02*
X139552500Y-56869064D01*
X141022500Y-56414936D02*
X141022500Y-56869064D01*
%TO.C,R5*%
X122153436Y-62520500D02*
X122607564Y-62520500D01*
X122153436Y-61050500D02*
X122607564Y-61050500D01*
%TO.C,R4*%
X122464564Y-49874500D02*
X122010436Y-49874500D01*
X122464564Y-51344500D02*
X122010436Y-51344500D01*
%TO.C,R3*%
X117565436Y-62520500D02*
X118019564Y-62520500D01*
X117565436Y-61050500D02*
X118019564Y-61050500D01*
%TO.C,R2*%
X117384564Y-49858500D02*
X116930436Y-49858500D01*
X117384564Y-51328500D02*
X116930436Y-51328500D01*
%TO.C,R1*%
X115352564Y-28157500D02*
X114898436Y-28157500D01*
X115352564Y-29627500D02*
X114898436Y-29627500D01*
%TO.C,Q6*%
X135193500Y-32646500D02*
X136653500Y-32646500D01*
X135193500Y-35806500D02*
X137353500Y-35806500D01*
X135193500Y-35806500D02*
X135193500Y-34876500D01*
X135193500Y-32646500D02*
X135193500Y-33576500D01*
%TO.C,Q5*%
X131320000Y-32646500D02*
X132780000Y-32646500D01*
X131320000Y-35806500D02*
X133480000Y-35806500D01*
X131320000Y-35806500D02*
X131320000Y-34876500D01*
X131320000Y-32646500D02*
X131320000Y-33576500D01*
%TO.C,Q4*%
X124310680Y-36505000D02*
X122850680Y-36505000D01*
X124310680Y-33345000D02*
X122150680Y-33345000D01*
X124310680Y-33345000D02*
X124310680Y-34275000D01*
X124310680Y-36505000D02*
X124310680Y-35575000D01*
%TO.C,Q3*%
X124310680Y-31247200D02*
X122850680Y-31247200D01*
X124310680Y-28087200D02*
X122150680Y-28087200D01*
X124310680Y-28087200D02*
X124310680Y-29017200D01*
X124310680Y-31247200D02*
X124310680Y-30317200D01*
%TO.C,Q2*%
X119911400Y-36471980D02*
X118451400Y-36471980D01*
X119911400Y-33311980D02*
X117751400Y-33311980D01*
X119911400Y-33311980D02*
X119911400Y-34241980D01*
X119911400Y-36471980D02*
X119911400Y-35541980D01*
%TO.C,Q1*%
X119911400Y-31247200D02*
X118451400Y-31247200D01*
X119911400Y-28087200D02*
X117751400Y-28087200D01*
X119911400Y-28087200D02*
X119911400Y-29017200D01*
X119911400Y-31247200D02*
X119911400Y-30317200D01*
%TO.C,J2*%
X104856500Y-45302500D02*
X104856500Y-47302500D01*
X107096500Y-45302500D02*
X104856500Y-45302500D01*
X108180500Y-56922500D02*
X108087500Y-56828500D01*
X110431500Y-59172500D02*
X110372500Y-59113500D01*
X107940500Y-57092500D02*
X107882500Y-57033500D01*
X110225500Y-59377500D02*
X110132500Y-59283500D01*
X108180500Y-51922500D02*
X108087500Y-51828500D01*
X110431500Y-54172500D02*
X110372500Y-54113500D01*
X107940500Y-52092500D02*
X107882500Y-52033500D01*
X110225500Y-54377500D02*
X110132500Y-54283500D01*
X113216500Y-60662500D02*
X105096500Y-60662500D01*
X113216500Y-45542500D02*
X105096500Y-45542500D01*
X105096500Y-45542500D02*
X105096500Y-60662500D01*
X113216500Y-45542500D02*
X113216500Y-60662500D01*
X111156500Y-45542500D02*
X111156500Y-60662500D01*
X107156500Y-45542500D02*
X107156500Y-60662500D01*
X110836500Y-58102500D02*
G75*
G03*
X110836500Y-58102500I-1680000J0D01*
G01*
X110836500Y-53102500D02*
G75*
G03*
X110836500Y-53102500I-1680000J0D01*
G01*
X107476050Y-48131883D02*
G75*
G02*
X107672500Y-47313500I1680450J29383D01*
G01*
X108367412Y-46618547D02*
G75*
G02*
X109945500Y-46618500I789088J-1483953D01*
G01*
X110640453Y-47313412D02*
G75*
G02*
X110640500Y-48891500I-1483953J-789088D01*
G01*
X109945588Y-49586453D02*
G75*
G02*
X108367500Y-49586500I-789088J1483953D01*
G01*
X107673148Y-48891212D02*
G75*
G02*
X107476500Y-48102500I1483352J788712D01*
G01*
%TO.C,J1*%
X115996500Y-42360500D02*
X115996500Y-40360500D01*
X113756500Y-42360500D02*
X115996500Y-42360500D01*
X112779500Y-35860500D02*
X112829500Y-35910500D01*
X110346500Y-33427500D02*
X110370500Y-33452500D01*
X113021500Y-35668500D02*
X113046500Y-35692500D01*
X110563500Y-33210500D02*
X110613500Y-33259500D01*
X105136500Y-32000500D02*
X115756500Y-32000500D01*
X105136500Y-42120500D02*
X115756500Y-42120500D01*
X115756500Y-42120500D02*
X115756500Y-32000500D01*
X105136500Y-42120500D02*
X105136500Y-32000500D01*
X108696500Y-42120500D02*
X108696500Y-32000500D01*
X109696500Y-42120500D02*
X109696500Y-32000500D01*
X113696500Y-42120500D02*
X113696500Y-32000500D01*
X113476500Y-34560500D02*
G75*
G03*
X113476500Y-34560500I-1780000J0D01*
G01*
X113476889Y-39529686D02*
G75*
G02*
X113335500Y-40256500I-1780389J-30814D01*
G01*
X112392016Y-41199705D02*
G75*
G02*
X111000500Y-41199500I-695516J1639205D01*
G01*
X110057295Y-40256016D02*
G75*
G02*
X110057500Y-38864500I1639205J695516D01*
G01*
X111000984Y-37921295D02*
G75*
G02*
X112392500Y-37921500I695516J-1639205D01*
G01*
X113334999Y-38864999D02*
G75*
G02*
X113476500Y-39560500I-1638499J-695501D01*
G01*
%TO.C,D4*%
X125250500Y-64887500D02*
X125250500Y-67827500D01*
X125490500Y-64887500D02*
X125490500Y-67827500D01*
X125370500Y-64887500D02*
X125370500Y-67827500D01*
X130930500Y-66357500D02*
X129910500Y-66357500D01*
X123450500Y-66357500D02*
X124470500Y-66357500D01*
X129910500Y-64887500D02*
X124470500Y-64887500D01*
X129910500Y-67827500D02*
X129910500Y-64887500D01*
X124470500Y-67827500D02*
X129910500Y-67827500D01*
X124470500Y-64887500D02*
X124470500Y-67827500D01*
%TO.C,D3*%
X130019500Y-41157500D02*
X130019500Y-38217500D01*
X129779500Y-41157500D02*
X129779500Y-38217500D01*
X129899500Y-41157500D02*
X129899500Y-38217500D01*
X124339500Y-39687500D02*
X125359500Y-39687500D01*
X131819500Y-39687500D02*
X130799500Y-39687500D01*
X125359500Y-41157500D02*
X130799500Y-41157500D01*
X125359500Y-38217500D02*
X125359500Y-41157500D01*
X130799500Y-38217500D02*
X125359500Y-38217500D01*
X130799500Y-41157500D02*
X130799500Y-38217500D01*
%TO.C,D2*%
X135880500Y-63217500D02*
X138820500Y-63217500D01*
X135880500Y-62977500D02*
X138820500Y-62977500D01*
X135880500Y-63097500D02*
X138820500Y-63097500D01*
X137350500Y-57537500D02*
X137350500Y-58557500D01*
X137350500Y-65017500D02*
X137350500Y-63997500D01*
X135880500Y-58557500D02*
X135880500Y-63997500D01*
X138820500Y-58557500D02*
X135880500Y-58557500D01*
X138820500Y-63997500D02*
X138820500Y-58557500D01*
X135880500Y-63997500D02*
X138820500Y-63997500D01*
%TO.C,D1*%
X136769500Y-46707500D02*
X139709500Y-46707500D01*
X136769500Y-46467500D02*
X139709500Y-46467500D01*
X136769500Y-46587500D02*
X139709500Y-46587500D01*
X138239500Y-41027500D02*
X138239500Y-42047500D01*
X138239500Y-48507500D02*
X138239500Y-47487500D01*
X136769500Y-42047500D02*
X136769500Y-47487500D01*
X139709500Y-42047500D02*
X136769500Y-42047500D01*
X139709500Y-47487500D02*
X139709500Y-42047500D01*
X136769500Y-47487500D02*
X139709500Y-47487500D01*
%TO.C,C9*%
X163301000Y-48183748D02*
X163301000Y-49606252D01*
X165121000Y-48183748D02*
X165121000Y-49606252D01*
%TO.C,C6*%
X140750500Y-67279500D02*
X141375500Y-67279500D01*
X141063000Y-67592000D02*
X141063000Y-66967000D01*
X144443563Y-66727000D02*
X145508000Y-65662563D01*
X141052437Y-66727000D02*
X139988000Y-65662563D01*
X141052437Y-66727000D02*
X141688000Y-66727000D01*
X144443563Y-66727000D02*
X143808000Y-66727000D01*
X145508000Y-65662563D02*
X145508000Y-61207000D01*
X139988000Y-65662563D02*
X139988000Y-61207000D01*
X139988000Y-61207000D02*
X141688000Y-61207000D01*
X145508000Y-61207000D02*
X143808000Y-61207000D01*
%TO.C,C5*%
X154080000Y-44925000D02*
X153455000Y-44925000D01*
X153767500Y-44612500D02*
X153767500Y-45237500D01*
X150386937Y-45477500D02*
X149322500Y-46541937D01*
X153778063Y-45477500D02*
X154842500Y-46541937D01*
X153778063Y-45477500D02*
X153142500Y-45477500D01*
X150386937Y-45477500D02*
X151022500Y-45477500D01*
X149322500Y-46541937D02*
X149322500Y-50997500D01*
X154842500Y-46541937D02*
X154842500Y-50997500D01*
X154842500Y-50997500D02*
X153142500Y-50997500D01*
X149322500Y-50997500D02*
X151022500Y-50997500D01*
%TO.C,C3*%
X145571000Y-44843000D02*
X144946000Y-44843000D01*
X145258500Y-44530500D02*
X145258500Y-45155500D01*
X141877937Y-45395500D02*
X140813500Y-46459937D01*
X145269063Y-45395500D02*
X146333500Y-46459937D01*
X145269063Y-45395500D02*
X144633500Y-45395500D01*
X141877937Y-45395500D02*
X142513500Y-45395500D01*
X140813500Y-46459937D02*
X140813500Y-50915500D01*
X146333500Y-46459937D02*
X146333500Y-50915500D01*
X146333500Y-50915500D02*
X144633500Y-50915500D01*
X140813500Y-50915500D02*
X142513500Y-50915500D01*
%TO.C,C2*%
X116852000Y-54454000D02*
X116852000Y-55079000D01*
X116539500Y-54766500D02*
X117164500Y-54766500D01*
X117404500Y-58147063D02*
X118468937Y-59211500D01*
X117404500Y-54755937D02*
X118468937Y-53691500D01*
X117404500Y-54755937D02*
X117404500Y-55391500D01*
X117404500Y-58147063D02*
X117404500Y-57511500D01*
X118468937Y-59211500D02*
X122924500Y-59211500D01*
X118468937Y-53691500D02*
X122924500Y-53691500D01*
X122924500Y-53691500D02*
X122924500Y-55391500D01*
X122924500Y-59211500D02*
X122924500Y-57511500D01*
%TO.C,C1*%
X123518000Y-46765000D02*
X123518000Y-46140000D01*
X123830500Y-46452500D02*
X123205500Y-46452500D01*
X122965500Y-43071937D02*
X121901063Y-42007500D01*
X122965500Y-46463063D02*
X121901063Y-47527500D01*
X122965500Y-46463063D02*
X122965500Y-45827500D01*
X122965500Y-43071937D02*
X122965500Y-43707500D01*
X121901063Y-42007500D02*
X117445500Y-42007500D01*
X121901063Y-47527500D02*
X117445500Y-47527500D01*
X117445500Y-47527500D02*
X117445500Y-45827500D01*
X117445500Y-42007500D02*
X117445500Y-43707500D01*
%TO.C,U7*%
D11*
X165608095Y-54316380D02*
X165608095Y-55125904D01*
X165655714Y-55221142D01*
X165703333Y-55268761D01*
X165798571Y-55316380D01*
X165989047Y-55316380D01*
X166084285Y-55268761D01*
X166131904Y-55221142D01*
X166179523Y-55125904D01*
X166179523Y-54316380D01*
X166560476Y-54316380D02*
X167227142Y-54316380D01*
X166798571Y-55316380D01*
%TO.C,JP3*%
X136929880Y-22994833D02*
X137644166Y-22994833D01*
X137787023Y-23042452D01*
X137882261Y-23137690D01*
X137929880Y-23280547D01*
X137929880Y-23375785D01*
X137929880Y-22518642D02*
X136929880Y-22518642D01*
X136929880Y-22137690D01*
X136977500Y-22042452D01*
X137025119Y-21994833D01*
X137120357Y-21947214D01*
X137263214Y-21947214D01*
X137358452Y-21994833D01*
X137406071Y-22042452D01*
X137453690Y-22137690D01*
X137453690Y-22518642D01*
X136929880Y-21613880D02*
X136929880Y-20994833D01*
X137310833Y-21328166D01*
X137310833Y-21185309D01*
X137358452Y-21090071D01*
X137406071Y-21042452D01*
X137501309Y-20994833D01*
X137739404Y-20994833D01*
X137834642Y-21042452D01*
X137882261Y-21090071D01*
X137929880Y-21185309D01*
X137929880Y-21471023D01*
X137882261Y-21566261D01*
X137834642Y-21613880D01*
%TO.C,JP2*%
X136929880Y-25598333D02*
X137644166Y-25598333D01*
X137787023Y-25645952D01*
X137882261Y-25741190D01*
X137929880Y-25884047D01*
X137929880Y-25979285D01*
X137929880Y-25122142D02*
X136929880Y-25122142D01*
X136929880Y-24741190D01*
X136977500Y-24645952D01*
X137025119Y-24598333D01*
X137120357Y-24550714D01*
X137263214Y-24550714D01*
X137358452Y-24598333D01*
X137406071Y-24645952D01*
X137453690Y-24741190D01*
X137453690Y-25122142D01*
X137025119Y-24169761D02*
X136977500Y-24122142D01*
X136929880Y-24026904D01*
X136929880Y-23788809D01*
X136977500Y-23693571D01*
X137025119Y-23645952D01*
X137120357Y-23598333D01*
X137215595Y-23598333D01*
X137358452Y-23645952D01*
X137929880Y-24217380D01*
X137929880Y-23598333D01*
%TO.C,JP1*%
X136929880Y-28392333D02*
X137644166Y-28392333D01*
X137787023Y-28439952D01*
X137882261Y-28535190D01*
X137929880Y-28678047D01*
X137929880Y-28773285D01*
X137929880Y-27916142D02*
X136929880Y-27916142D01*
X136929880Y-27535190D01*
X136977500Y-27439952D01*
X137025119Y-27392333D01*
X137120357Y-27344714D01*
X137263214Y-27344714D01*
X137358452Y-27392333D01*
X137406071Y-27439952D01*
X137453690Y-27535190D01*
X137453690Y-27916142D01*
X137929880Y-26392333D02*
X137929880Y-26963761D01*
X137929880Y-26678047D02*
X136929880Y-26678047D01*
X137072738Y-26773285D01*
X137167976Y-26868523D01*
X137215595Y-26963761D01*
%TO.C,J6*%
X117268666Y-16228880D02*
X117268666Y-16943166D01*
X117221047Y-17086023D01*
X117125809Y-17181261D01*
X116982952Y-17228880D01*
X116887714Y-17228880D01*
X118173428Y-16228880D02*
X117982952Y-16228880D01*
X117887714Y-16276500D01*
X117840095Y-16324119D01*
X117744857Y-16466976D01*
X117697238Y-16657452D01*
X117697238Y-17038404D01*
X117744857Y-17133642D01*
X117792476Y-17181261D01*
X117887714Y-17228880D01*
X118078190Y-17228880D01*
X118173428Y-17181261D01*
X118221047Y-17133642D01*
X118268666Y-17038404D01*
X118268666Y-16800309D01*
X118221047Y-16705071D01*
X118173428Y-16657452D01*
X118078190Y-16609833D01*
X117887714Y-16609833D01*
X117792476Y-16657452D01*
X117744857Y-16705071D01*
X117697238Y-16800309D01*
%TO.C,J3*%
X163115666Y-21245380D02*
X163115666Y-21959666D01*
X163068047Y-22102523D01*
X162972809Y-22197761D01*
X162829952Y-22245380D01*
X162734714Y-22245380D01*
X163496619Y-21245380D02*
X164115666Y-21245380D01*
X163782333Y-21626333D01*
X163925190Y-21626333D01*
X164020428Y-21673952D01*
X164068047Y-21721571D01*
X164115666Y-21816809D01*
X164115666Y-22054904D01*
X164068047Y-22150142D01*
X164020428Y-22197761D01*
X163925190Y-22245380D01*
X163639476Y-22245380D01*
X163544238Y-22197761D01*
X163496619Y-22150142D01*
%TO.C,U4*%
X147763555Y-35251140D02*
X147763555Y-36060664D01*
X147811174Y-36155902D01*
X147858793Y-36203521D01*
X147954031Y-36251140D01*
X148144507Y-36251140D01*
X148239745Y-36203521D01*
X148287364Y-36155902D01*
X148334983Y-36060664D01*
X148334983Y-35251140D01*
X149239745Y-35584474D02*
X149239745Y-36251140D01*
X149001650Y-35203521D02*
X148763555Y-35917807D01*
X149382602Y-35917807D01*
%TO.C,R11*%
X136072642Y-32138880D02*
X135739309Y-31662690D01*
X135501214Y-32138880D02*
X135501214Y-31138880D01*
X135882166Y-31138880D01*
X135977404Y-31186500D01*
X136025023Y-31234119D01*
X136072642Y-31329357D01*
X136072642Y-31472214D01*
X136025023Y-31567452D01*
X135977404Y-31615071D01*
X135882166Y-31662690D01*
X135501214Y-31662690D01*
X137025023Y-32138880D02*
X136453595Y-32138880D01*
X136739309Y-32138880D02*
X136739309Y-31138880D01*
X136644071Y-31281738D01*
X136548833Y-31376976D01*
X136453595Y-31424595D01*
X137977404Y-32138880D02*
X137405976Y-32138880D01*
X137691690Y-32138880D02*
X137691690Y-31138880D01*
X137596452Y-31281738D01*
X137501214Y-31376976D01*
X137405976Y-31424595D01*
%TO.C,U6*%
X147256595Y-52411380D02*
X147256595Y-53220904D01*
X147304214Y-53316142D01*
X147351833Y-53363761D01*
X147447071Y-53411380D01*
X147637547Y-53411380D01*
X147732785Y-53363761D01*
X147780404Y-53316142D01*
X147828023Y-53220904D01*
X147828023Y-52411380D01*
X148732785Y-52411380D02*
X148542309Y-52411380D01*
X148447071Y-52459000D01*
X148399452Y-52506619D01*
X148304214Y-52649476D01*
X148256595Y-52839952D01*
X148256595Y-53220904D01*
X148304214Y-53316142D01*
X148351833Y-53363761D01*
X148447071Y-53411380D01*
X148637547Y-53411380D01*
X148732785Y-53363761D01*
X148780404Y-53316142D01*
X148828023Y-53220904D01*
X148828023Y-52982809D01*
X148780404Y-52887571D01*
X148732785Y-52839952D01*
X148637547Y-52792333D01*
X148447071Y-52792333D01*
X148351833Y-52839952D01*
X148304214Y-52887571D01*
X148256595Y-52982809D01*
%TO.C,U3*%
X141541595Y-17803880D02*
X141541595Y-18613404D01*
X141589214Y-18708642D01*
X141636833Y-18756261D01*
X141732071Y-18803880D01*
X141922547Y-18803880D01*
X142017785Y-18756261D01*
X142065404Y-18708642D01*
X142113023Y-18613404D01*
X142113023Y-17803880D01*
X142493976Y-17803880D02*
X143113023Y-17803880D01*
X142779690Y-18184833D01*
X142922547Y-18184833D01*
X143017785Y-18232452D01*
X143065404Y-18280071D01*
X143113023Y-18375309D01*
X143113023Y-18613404D01*
X143065404Y-18708642D01*
X143017785Y-18756261D01*
X142922547Y-18803880D01*
X142636833Y-18803880D01*
X142541595Y-18756261D01*
X142493976Y-18708642D01*
%TO.C,J5*%
X146034166Y-67206880D02*
X146034166Y-67921166D01*
X145986547Y-68064023D01*
X145891309Y-68159261D01*
X145748452Y-68206880D01*
X145653214Y-68206880D01*
X146986547Y-67206880D02*
X146510357Y-67206880D01*
X146462738Y-67683071D01*
X146510357Y-67635452D01*
X146605595Y-67587833D01*
X146843690Y-67587833D01*
X146938928Y-67635452D01*
X146986547Y-67683071D01*
X147034166Y-67778309D01*
X147034166Y-68016404D01*
X146986547Y-68111642D01*
X146938928Y-68159261D01*
X146843690Y-68206880D01*
X146605595Y-68206880D01*
X146510357Y-68159261D01*
X146462738Y-68111642D01*
%TO.C,C17*%
X149382642Y-17819642D02*
X149335023Y-17867261D01*
X149192166Y-17914880D01*
X149096928Y-17914880D01*
X148954071Y-17867261D01*
X148858833Y-17772023D01*
X148811214Y-17676785D01*
X148763595Y-17486309D01*
X148763595Y-17343452D01*
X148811214Y-17152976D01*
X148858833Y-17057738D01*
X148954071Y-16962500D01*
X149096928Y-16914880D01*
X149192166Y-16914880D01*
X149335023Y-16962500D01*
X149382642Y-17010119D01*
X150335023Y-17914880D02*
X149763595Y-17914880D01*
X150049309Y-17914880D02*
X150049309Y-16914880D01*
X149954071Y-17057738D01*
X149858833Y-17152976D01*
X149763595Y-17200595D01*
X150668357Y-16914880D02*
X151335023Y-16914880D01*
X150906452Y-17914880D01*
%TO.C,C16*%
X158996142Y-52363642D02*
X158948523Y-52411261D01*
X158805666Y-52458880D01*
X158710428Y-52458880D01*
X158567571Y-52411261D01*
X158472333Y-52316023D01*
X158424714Y-52220785D01*
X158377095Y-52030309D01*
X158377095Y-51887452D01*
X158424714Y-51696976D01*
X158472333Y-51601738D01*
X158567571Y-51506500D01*
X158710428Y-51458880D01*
X158805666Y-51458880D01*
X158948523Y-51506500D01*
X158996142Y-51554119D01*
X159948523Y-52458880D02*
X159377095Y-52458880D01*
X159662809Y-52458880D02*
X159662809Y-51458880D01*
X159567571Y-51601738D01*
X159472333Y-51696976D01*
X159377095Y-51744595D01*
X160805666Y-51458880D02*
X160615190Y-51458880D01*
X160519952Y-51506500D01*
X160472333Y-51554119D01*
X160377095Y-51696976D01*
X160329476Y-51887452D01*
X160329476Y-52268404D01*
X160377095Y-52363642D01*
X160424714Y-52411261D01*
X160519952Y-52458880D01*
X160710428Y-52458880D01*
X160805666Y-52411261D01*
X160853285Y-52363642D01*
X160900904Y-52268404D01*
X160900904Y-52030309D01*
X160853285Y-51935071D01*
X160805666Y-51887452D01*
X160710428Y-51839833D01*
X160519952Y-51839833D01*
X160424714Y-51887452D01*
X160377095Y-51935071D01*
X160329476Y-52030309D01*
%TO.C,C7*%
X153503333Y-52617642D02*
X153455714Y-52665261D01*
X153312857Y-52712880D01*
X153217619Y-52712880D01*
X153074761Y-52665261D01*
X152979523Y-52570023D01*
X152931904Y-52474785D01*
X152884285Y-52284309D01*
X152884285Y-52141452D01*
X152931904Y-51950976D01*
X152979523Y-51855738D01*
X153074761Y-51760500D01*
X153217619Y-51712880D01*
X153312857Y-51712880D01*
X153455714Y-51760500D01*
X153503333Y-51808119D01*
X153836666Y-51712880D02*
X154503333Y-51712880D01*
X154074761Y-52712880D01*
%TO.C,C11*%
X165917642Y-37949142D02*
X165870023Y-37996761D01*
X165727166Y-38044380D01*
X165631928Y-38044380D01*
X165489071Y-37996761D01*
X165393833Y-37901523D01*
X165346214Y-37806285D01*
X165298595Y-37615809D01*
X165298595Y-37472952D01*
X165346214Y-37282476D01*
X165393833Y-37187238D01*
X165489071Y-37092000D01*
X165631928Y-37044380D01*
X165727166Y-37044380D01*
X165870023Y-37092000D01*
X165917642Y-37139619D01*
X166870023Y-38044380D02*
X166298595Y-38044380D01*
X166584309Y-38044380D02*
X166584309Y-37044380D01*
X166489071Y-37187238D01*
X166393833Y-37282476D01*
X166298595Y-37330095D01*
X167822404Y-38044380D02*
X167250976Y-38044380D01*
X167536690Y-38044380D02*
X167536690Y-37044380D01*
X167441452Y-37187238D01*
X167346214Y-37282476D01*
X167250976Y-37330095D01*
%TO.C,H5*%
X106738095Y-14104880D02*
X106738095Y-13104880D01*
X106738095Y-13581071D02*
X107309523Y-13581071D01*
X107309523Y-14104880D02*
X107309523Y-13104880D01*
X108261904Y-13104880D02*
X107785714Y-13104880D01*
X107738095Y-13581071D01*
X107785714Y-13533452D01*
X107880952Y-13485833D01*
X108119047Y-13485833D01*
X108214285Y-13533452D01*
X108261904Y-13581071D01*
X108309523Y-13676309D01*
X108309523Y-13914404D01*
X108261904Y-14009642D01*
X108214285Y-14057261D01*
X108119047Y-14104880D01*
X107880952Y-14104880D01*
X107785714Y-14057261D01*
X107738095Y-14009642D01*
%TO.C,H4*%
X166624095Y-14231880D02*
X166624095Y-13231880D01*
X166624095Y-13708071D02*
X167195523Y-13708071D01*
X167195523Y-14231880D02*
X167195523Y-13231880D01*
X168100285Y-13565214D02*
X168100285Y-14231880D01*
X167862190Y-13184261D02*
X167624095Y-13898547D01*
X168243142Y-13898547D01*
%TO.C,H3*%
X167195595Y-72270880D02*
X167195595Y-71270880D01*
X167195595Y-71747071D02*
X167767023Y-71747071D01*
X167767023Y-72270880D02*
X167767023Y-71270880D01*
X168147976Y-71270880D02*
X168767023Y-71270880D01*
X168433690Y-71651833D01*
X168576547Y-71651833D01*
X168671785Y-71699452D01*
X168719404Y-71747071D01*
X168767023Y-71842309D01*
X168767023Y-72080404D01*
X168719404Y-72175642D01*
X168671785Y-72223261D01*
X168576547Y-72270880D01*
X168290833Y-72270880D01*
X168195595Y-72223261D01*
X168147976Y-72175642D01*
%TO.C,H2*%
X108013595Y-78747880D02*
X108013595Y-77747880D01*
X108013595Y-78224071D02*
X108585023Y-78224071D01*
X108585023Y-78747880D02*
X108585023Y-77747880D01*
X109013595Y-77843119D02*
X109061214Y-77795500D01*
X109156452Y-77747880D01*
X109394547Y-77747880D01*
X109489785Y-77795500D01*
X109537404Y-77843119D01*
X109585023Y-77938357D01*
X109585023Y-78033595D01*
X109537404Y-78176452D01*
X108965976Y-78747880D01*
X109585023Y-78747880D01*
%TO.C,TP9*%
X126373095Y-33945380D02*
X126944523Y-33945380D01*
X126658809Y-34945380D02*
X126658809Y-33945380D01*
X127277857Y-34945380D02*
X127277857Y-33945380D01*
X127658809Y-33945380D01*
X127754047Y-33993000D01*
X127801666Y-34040619D01*
X127849285Y-34135857D01*
X127849285Y-34278714D01*
X127801666Y-34373952D01*
X127754047Y-34421571D01*
X127658809Y-34469190D01*
X127277857Y-34469190D01*
X128325476Y-34945380D02*
X128515952Y-34945380D01*
X128611190Y-34897761D01*
X128658809Y-34850142D01*
X128754047Y-34707285D01*
X128801666Y-34516809D01*
X128801666Y-34135857D01*
X128754047Y-34040619D01*
X128706428Y-33993000D01*
X128611190Y-33945380D01*
X128420714Y-33945380D01*
X128325476Y-33993000D01*
X128277857Y-34040619D01*
X128230238Y-34135857D01*
X128230238Y-34373952D01*
X128277857Y-34469190D01*
X128325476Y-34516809D01*
X128420714Y-34564428D01*
X128611190Y-34564428D01*
X128706428Y-34516809D01*
X128754047Y-34469190D01*
X128801666Y-34373952D01*
%TO.C,TP8*%
X143899095Y-37742880D02*
X144470523Y-37742880D01*
X144184809Y-38742880D02*
X144184809Y-37742880D01*
X144803857Y-38742880D02*
X144803857Y-37742880D01*
X145184809Y-37742880D01*
X145280047Y-37790500D01*
X145327666Y-37838119D01*
X145375285Y-37933357D01*
X145375285Y-38076214D01*
X145327666Y-38171452D01*
X145280047Y-38219071D01*
X145184809Y-38266690D01*
X144803857Y-38266690D01*
X145946714Y-38171452D02*
X145851476Y-38123833D01*
X145803857Y-38076214D01*
X145756238Y-37980976D01*
X145756238Y-37933357D01*
X145803857Y-37838119D01*
X145851476Y-37790500D01*
X145946714Y-37742880D01*
X146137190Y-37742880D01*
X146232428Y-37790500D01*
X146280047Y-37838119D01*
X146327666Y-37933357D01*
X146327666Y-37980976D01*
X146280047Y-38076214D01*
X146232428Y-38123833D01*
X146137190Y-38171452D01*
X145946714Y-38171452D01*
X145851476Y-38219071D01*
X145803857Y-38266690D01*
X145756238Y-38361928D01*
X145756238Y-38552404D01*
X145803857Y-38647642D01*
X145851476Y-38695261D01*
X145946714Y-38742880D01*
X146137190Y-38742880D01*
X146232428Y-38695261D01*
X146280047Y-38647642D01*
X146327666Y-38552404D01*
X146327666Y-38361928D01*
X146280047Y-38266690D01*
X146232428Y-38219071D01*
X146137190Y-38171452D01*
%TO.C,TP6*%
X140533595Y-37742880D02*
X141105023Y-37742880D01*
X140819309Y-38742880D02*
X140819309Y-37742880D01*
X141438357Y-38742880D02*
X141438357Y-37742880D01*
X141819309Y-37742880D01*
X141914547Y-37790500D01*
X141962166Y-37838119D01*
X142009785Y-37933357D01*
X142009785Y-38076214D01*
X141962166Y-38171452D01*
X141914547Y-38219071D01*
X141819309Y-38266690D01*
X141438357Y-38266690D01*
X142866928Y-37742880D02*
X142676452Y-37742880D01*
X142581214Y-37790500D01*
X142533595Y-37838119D01*
X142438357Y-37980976D01*
X142390738Y-38171452D01*
X142390738Y-38552404D01*
X142438357Y-38647642D01*
X142485976Y-38695261D01*
X142581214Y-38742880D01*
X142771690Y-38742880D01*
X142866928Y-38695261D01*
X142914547Y-38647642D01*
X142962166Y-38552404D01*
X142962166Y-38314309D01*
X142914547Y-38219071D01*
X142866928Y-38171452D01*
X142771690Y-38123833D01*
X142581214Y-38123833D01*
X142485976Y-38171452D01*
X142438357Y-38219071D01*
X142390738Y-38314309D01*
%TO.C,TP5*%
X160726595Y-41870380D02*
X161298023Y-41870380D01*
X161012309Y-42870380D02*
X161012309Y-41870380D01*
X161631357Y-42870380D02*
X161631357Y-41870380D01*
X162012309Y-41870380D01*
X162107547Y-41918000D01*
X162155166Y-41965619D01*
X162202785Y-42060857D01*
X162202785Y-42203714D01*
X162155166Y-42298952D01*
X162107547Y-42346571D01*
X162012309Y-42394190D01*
X161631357Y-42394190D01*
X163107547Y-41870380D02*
X162631357Y-41870380D01*
X162583738Y-42346571D01*
X162631357Y-42298952D01*
X162726595Y-42251333D01*
X162964690Y-42251333D01*
X163059928Y-42298952D01*
X163107547Y-42346571D01*
X163155166Y-42441809D01*
X163155166Y-42679904D01*
X163107547Y-42775142D01*
X163059928Y-42822761D01*
X162964690Y-42870380D01*
X162726595Y-42870380D01*
X162631357Y-42822761D01*
X162583738Y-42775142D01*
%TO.C,TP4*%
X158504095Y-32345380D02*
X159075523Y-32345380D01*
X158789809Y-33345380D02*
X158789809Y-32345380D01*
X159408857Y-33345380D02*
X159408857Y-32345380D01*
X159789809Y-32345380D01*
X159885047Y-32393000D01*
X159932666Y-32440619D01*
X159980285Y-32535857D01*
X159980285Y-32678714D01*
X159932666Y-32773952D01*
X159885047Y-32821571D01*
X159789809Y-32869190D01*
X159408857Y-32869190D01*
X160837428Y-32678714D02*
X160837428Y-33345380D01*
X160599333Y-32297761D02*
X160361238Y-33012047D01*
X160980285Y-33012047D01*
%TO.C,TP3*%
X154122595Y-30325880D02*
X154694023Y-30325880D01*
X154408309Y-31325880D02*
X154408309Y-30325880D01*
X155027357Y-31325880D02*
X155027357Y-30325880D01*
X155408309Y-30325880D01*
X155503547Y-30373500D01*
X155551166Y-30421119D01*
X155598785Y-30516357D01*
X155598785Y-30659214D01*
X155551166Y-30754452D01*
X155503547Y-30802071D01*
X155408309Y-30849690D01*
X155027357Y-30849690D01*
X155932119Y-30325880D02*
X156551166Y-30325880D01*
X156217833Y-30706833D01*
X156360690Y-30706833D01*
X156455928Y-30754452D01*
X156503547Y-30802071D01*
X156551166Y-30897309D01*
X156551166Y-31135404D01*
X156503547Y-31230642D01*
X156455928Y-31278261D01*
X156360690Y-31325880D01*
X156074976Y-31325880D01*
X155979738Y-31278261D01*
X155932119Y-31230642D01*
%TO.C,TP2*%
X152027095Y-24852380D02*
X152598523Y-24852380D01*
X152312809Y-25852380D02*
X152312809Y-24852380D01*
X152931857Y-25852380D02*
X152931857Y-24852380D01*
X153312809Y-24852380D01*
X153408047Y-24900000D01*
X153455666Y-24947619D01*
X153503285Y-25042857D01*
X153503285Y-25185714D01*
X153455666Y-25280952D01*
X153408047Y-25328571D01*
X153312809Y-25376190D01*
X152931857Y-25376190D01*
X153884238Y-24947619D02*
X153931857Y-24900000D01*
X154027095Y-24852380D01*
X154265190Y-24852380D01*
X154360428Y-24900000D01*
X154408047Y-24947619D01*
X154455666Y-25042857D01*
X154455666Y-25138095D01*
X154408047Y-25280952D01*
X153836619Y-25852380D01*
X154455666Y-25852380D01*
%TO.C,TP1*%
X138501595Y-17498880D02*
X139073023Y-17498880D01*
X138787309Y-18498880D02*
X138787309Y-17498880D01*
X139406357Y-18498880D02*
X139406357Y-17498880D01*
X139787309Y-17498880D01*
X139882547Y-17546500D01*
X139930166Y-17594119D01*
X139977785Y-17689357D01*
X139977785Y-17832214D01*
X139930166Y-17927452D01*
X139882547Y-17975071D01*
X139787309Y-18022690D01*
X139406357Y-18022690D01*
X140930166Y-18498880D02*
X140358738Y-18498880D01*
X140644452Y-18498880D02*
X140644452Y-17498880D01*
X140549214Y-17641738D01*
X140453976Y-17736976D01*
X140358738Y-17784595D01*
%TO.C,U2*%
X128968595Y-53435880D02*
X128968595Y-54245404D01*
X129016214Y-54340642D01*
X129063833Y-54388261D01*
X129159071Y-54435880D01*
X129349547Y-54435880D01*
X129444785Y-54388261D01*
X129492404Y-54340642D01*
X129540023Y-54245404D01*
X129540023Y-53435880D01*
X129968595Y-53531119D02*
X130016214Y-53483500D01*
X130111452Y-53435880D01*
X130349547Y-53435880D01*
X130444785Y-53483500D01*
X130492404Y-53531119D01*
X130540023Y-53626357D01*
X130540023Y-53721595D01*
X130492404Y-53864452D01*
X129920976Y-54435880D01*
X130540023Y-54435880D01*
%TO.C,U1*%
X129229815Y-42013500D02*
X129229815Y-42823024D01*
X129277434Y-42918262D01*
X129325053Y-42965881D01*
X129420291Y-43013500D01*
X129610767Y-43013500D01*
X129706005Y-42965881D01*
X129753624Y-42918262D01*
X129801243Y-42823024D01*
X129801243Y-42013500D01*
X130801243Y-43013500D02*
X130229815Y-43013500D01*
X130515529Y-43013500D02*
X130515529Y-42013500D01*
X130420291Y-42156358D01*
X130325053Y-42251596D01*
X130229815Y-42299215D01*
%TO.C,SW2*%
X167068666Y-42568761D02*
X167211523Y-42616380D01*
X167449619Y-42616380D01*
X167544857Y-42568761D01*
X167592476Y-42521142D01*
X167640095Y-42425904D01*
X167640095Y-42330666D01*
X167592476Y-42235428D01*
X167544857Y-42187809D01*
X167449619Y-42140190D01*
X167259142Y-42092571D01*
X167163904Y-42044952D01*
X167116285Y-41997333D01*
X167068666Y-41902095D01*
X167068666Y-41806857D01*
X167116285Y-41711619D01*
X167163904Y-41664000D01*
X167259142Y-41616380D01*
X167497238Y-41616380D01*
X167640095Y-41664000D01*
X167973428Y-41616380D02*
X168211523Y-42616380D01*
X168402000Y-41902095D01*
X168592476Y-42616380D01*
X168830571Y-41616380D01*
X169163904Y-41711619D02*
X169211523Y-41664000D01*
X169306761Y-41616380D01*
X169544857Y-41616380D01*
X169640095Y-41664000D01*
X169687714Y-41711619D01*
X169735333Y-41806857D01*
X169735333Y-41902095D01*
X169687714Y-42044952D01*
X169116285Y-42616380D01*
X169735333Y-42616380D01*
%TO.C,SW1*%
X124650666Y-21740761D02*
X124793523Y-21788380D01*
X125031619Y-21788380D01*
X125126857Y-21740761D01*
X125174476Y-21693142D01*
X125222095Y-21597904D01*
X125222095Y-21502666D01*
X125174476Y-21407428D01*
X125126857Y-21359809D01*
X125031619Y-21312190D01*
X124841142Y-21264571D01*
X124745904Y-21216952D01*
X124698285Y-21169333D01*
X124650666Y-21074095D01*
X124650666Y-20978857D01*
X124698285Y-20883619D01*
X124745904Y-20836000D01*
X124841142Y-20788380D01*
X125079238Y-20788380D01*
X125222095Y-20836000D01*
X125555428Y-20788380D02*
X125793523Y-21788380D01*
X125984000Y-21074095D01*
X126174476Y-21788380D01*
X126412571Y-20788380D01*
X127317333Y-21788380D02*
X126745904Y-21788380D01*
X127031619Y-21788380D02*
X127031619Y-20788380D01*
X126936380Y-20931238D01*
X126841142Y-21026476D01*
X126745904Y-21074095D01*
%TO.C,RV1*%
X155297261Y-45156380D02*
X154963928Y-44680190D01*
X154725833Y-45156380D02*
X154725833Y-44156380D01*
X155106785Y-44156380D01*
X155202023Y-44204000D01*
X155249642Y-44251619D01*
X155297261Y-44346857D01*
X155297261Y-44489714D01*
X155249642Y-44584952D01*
X155202023Y-44632571D01*
X155106785Y-44680190D01*
X154725833Y-44680190D01*
X155582976Y-44156380D02*
X155916309Y-45156380D01*
X156249642Y-44156380D01*
X157106785Y-45156380D02*
X156535357Y-45156380D01*
X156821071Y-45156380D02*
X156821071Y-44156380D01*
X156725833Y-44299238D01*
X156630595Y-44394476D01*
X156535357Y-44442095D01*
%TO.C,R16*%
X150423642Y-29408380D02*
X150090309Y-28932190D01*
X149852214Y-29408380D02*
X149852214Y-28408380D01*
X150233166Y-28408380D01*
X150328404Y-28456000D01*
X150376023Y-28503619D01*
X150423642Y-28598857D01*
X150423642Y-28741714D01*
X150376023Y-28836952D01*
X150328404Y-28884571D01*
X150233166Y-28932190D01*
X149852214Y-28932190D01*
X151376023Y-29408380D02*
X150804595Y-29408380D01*
X151090309Y-29408380D02*
X151090309Y-28408380D01*
X150995071Y-28551238D01*
X150899833Y-28646476D01*
X150804595Y-28694095D01*
X152233166Y-28408380D02*
X152042690Y-28408380D01*
X151947452Y-28456000D01*
X151899833Y-28503619D01*
X151804595Y-28646476D01*
X151756976Y-28836952D01*
X151756976Y-29217904D01*
X151804595Y-29313142D01*
X151852214Y-29360761D01*
X151947452Y-29408380D01*
X152137928Y-29408380D01*
X152233166Y-29360761D01*
X152280785Y-29313142D01*
X152328404Y-29217904D01*
X152328404Y-28979809D01*
X152280785Y-28884571D01*
X152233166Y-28836952D01*
X152137928Y-28789333D01*
X151947452Y-28789333D01*
X151852214Y-28836952D01*
X151804595Y-28884571D01*
X151756976Y-28979809D01*
%TO.C,R13*%
X150360142Y-24010880D02*
X150026809Y-23534690D01*
X149788714Y-24010880D02*
X149788714Y-23010880D01*
X150169666Y-23010880D01*
X150264904Y-23058500D01*
X150312523Y-23106119D01*
X150360142Y-23201357D01*
X150360142Y-23344214D01*
X150312523Y-23439452D01*
X150264904Y-23487071D01*
X150169666Y-23534690D01*
X149788714Y-23534690D01*
X151312523Y-24010880D02*
X150741095Y-24010880D01*
X151026809Y-24010880D02*
X151026809Y-23010880D01*
X150931571Y-23153738D01*
X150836333Y-23248976D01*
X150741095Y-23296595D01*
X151645857Y-23010880D02*
X152264904Y-23010880D01*
X151931571Y-23391833D01*
X152074428Y-23391833D01*
X152169666Y-23439452D01*
X152217285Y-23487071D01*
X152264904Y-23582309D01*
X152264904Y-23820404D01*
X152217285Y-23915642D01*
X152169666Y-23963261D01*
X152074428Y-24010880D01*
X151788714Y-24010880D01*
X151693476Y-23963261D01*
X151645857Y-23915642D01*
%TO.C,R10*%
X132643642Y-32202380D02*
X132310309Y-31726190D01*
X132072214Y-32202380D02*
X132072214Y-31202380D01*
X132453166Y-31202380D01*
X132548404Y-31250000D01*
X132596023Y-31297619D01*
X132643642Y-31392857D01*
X132643642Y-31535714D01*
X132596023Y-31630952D01*
X132548404Y-31678571D01*
X132453166Y-31726190D01*
X132072214Y-31726190D01*
X133596023Y-32202380D02*
X133024595Y-32202380D01*
X133310309Y-32202380D02*
X133310309Y-31202380D01*
X133215071Y-31345238D01*
X133119833Y-31440476D01*
X133024595Y-31488095D01*
X134215071Y-31202380D02*
X134310309Y-31202380D01*
X134405547Y-31250000D01*
X134453166Y-31297619D01*
X134500785Y-31392857D01*
X134548404Y-31583333D01*
X134548404Y-31821428D01*
X134500785Y-32011904D01*
X134453166Y-32107142D01*
X134405547Y-32154761D01*
X134310309Y-32202380D01*
X134215071Y-32202380D01*
X134119833Y-32154761D01*
X134072214Y-32107142D01*
X134024595Y-32011904D01*
X133976976Y-31821428D01*
X133976976Y-31583333D01*
X134024595Y-31392857D01*
X134072214Y-31297619D01*
X134119833Y-31250000D01*
X134215071Y-31202380D01*
%TO.C,R9*%
X145057833Y-54681380D02*
X144724500Y-54205190D01*
X144486404Y-54681380D02*
X144486404Y-53681380D01*
X144867357Y-53681380D01*
X144962595Y-53729000D01*
X145010214Y-53776619D01*
X145057833Y-53871857D01*
X145057833Y-54014714D01*
X145010214Y-54109952D01*
X144962595Y-54157571D01*
X144867357Y-54205190D01*
X144486404Y-54205190D01*
X145534023Y-54681380D02*
X145724500Y-54681380D01*
X145819738Y-54633761D01*
X145867357Y-54586142D01*
X145962595Y-54443285D01*
X146010214Y-54252809D01*
X146010214Y-53871857D01*
X145962595Y-53776619D01*
X145914976Y-53729000D01*
X145819738Y-53681380D01*
X145629261Y-53681380D01*
X145534023Y-53729000D01*
X145486404Y-53776619D01*
X145438785Y-53871857D01*
X145438785Y-54109952D01*
X145486404Y-54205190D01*
X145534023Y-54252809D01*
X145629261Y-54300428D01*
X145819738Y-54300428D01*
X145914976Y-54252809D01*
X145962595Y-54205190D01*
X146010214Y-54109952D01*
%TO.C,R8*%
X142462333Y-54617880D02*
X142129000Y-54141690D01*
X141890904Y-54617880D02*
X141890904Y-53617880D01*
X142271857Y-53617880D01*
X142367095Y-53665500D01*
X142414714Y-53713119D01*
X142462333Y-53808357D01*
X142462333Y-53951214D01*
X142414714Y-54046452D01*
X142367095Y-54094071D01*
X142271857Y-54141690D01*
X141890904Y-54141690D01*
X143033761Y-54046452D02*
X142938523Y-53998833D01*
X142890904Y-53951214D01*
X142843285Y-53855976D01*
X142843285Y-53808357D01*
X142890904Y-53713119D01*
X142938523Y-53665500D01*
X143033761Y-53617880D01*
X143224238Y-53617880D01*
X143319476Y-53665500D01*
X143367095Y-53713119D01*
X143414714Y-53808357D01*
X143414714Y-53855976D01*
X143367095Y-53951214D01*
X143319476Y-53998833D01*
X143224238Y-54046452D01*
X143033761Y-54046452D01*
X142938523Y-54094071D01*
X142890904Y-54141690D01*
X142843285Y-54236928D01*
X142843285Y-54427404D01*
X142890904Y-54522642D01*
X142938523Y-54570261D01*
X143033761Y-54617880D01*
X143224238Y-54617880D01*
X143319476Y-54570261D01*
X143367095Y-54522642D01*
X143414714Y-54427404D01*
X143414714Y-54236928D01*
X143367095Y-54141690D01*
X143319476Y-54094071D01*
X143224238Y-54046452D01*
%TO.C,R7*%
X147851833Y-38869880D02*
X147518500Y-38393690D01*
X147280404Y-38869880D02*
X147280404Y-37869880D01*
X147661357Y-37869880D01*
X147756595Y-37917500D01*
X147804214Y-37965119D01*
X147851833Y-38060357D01*
X147851833Y-38203214D01*
X147804214Y-38298452D01*
X147756595Y-38346071D01*
X147661357Y-38393690D01*
X147280404Y-38393690D01*
X148185166Y-37869880D02*
X148851833Y-37869880D01*
X148423261Y-38869880D01*
%TO.C,R6*%
X139977833Y-54617880D02*
X139644500Y-54141690D01*
X139406404Y-54617880D02*
X139406404Y-53617880D01*
X139787357Y-53617880D01*
X139882595Y-53665500D01*
X139930214Y-53713119D01*
X139977833Y-53808357D01*
X139977833Y-53951214D01*
X139930214Y-54046452D01*
X139882595Y-54094071D01*
X139787357Y-54141690D01*
X139406404Y-54141690D01*
X140834976Y-53617880D02*
X140644500Y-53617880D01*
X140549261Y-53665500D01*
X140501642Y-53713119D01*
X140406404Y-53855976D01*
X140358785Y-54046452D01*
X140358785Y-54427404D01*
X140406404Y-54522642D01*
X140454023Y-54570261D01*
X140549261Y-54617880D01*
X140739738Y-54617880D01*
X140834976Y-54570261D01*
X140882595Y-54522642D01*
X140930214Y-54427404D01*
X140930214Y-54189309D01*
X140882595Y-54094071D01*
X140834976Y-54046452D01*
X140739738Y-53998833D01*
X140549261Y-53998833D01*
X140454023Y-54046452D01*
X140406404Y-54094071D01*
X140358785Y-54189309D01*
%TO.C,R5*%
X122213833Y-60587880D02*
X121880500Y-60111690D01*
X121642404Y-60587880D02*
X121642404Y-59587880D01*
X122023357Y-59587880D01*
X122118595Y-59635500D01*
X122166214Y-59683119D01*
X122213833Y-59778357D01*
X122213833Y-59921214D01*
X122166214Y-60016452D01*
X122118595Y-60064071D01*
X122023357Y-60111690D01*
X121642404Y-60111690D01*
X123118595Y-59587880D02*
X122642404Y-59587880D01*
X122594785Y-60064071D01*
X122642404Y-60016452D01*
X122737642Y-59968833D01*
X122975738Y-59968833D01*
X123070976Y-60016452D01*
X123118595Y-60064071D01*
X123166214Y-60159309D01*
X123166214Y-60397404D01*
X123118595Y-60492642D01*
X123070976Y-60540261D01*
X122975738Y-60587880D01*
X122737642Y-60587880D01*
X122642404Y-60540261D01*
X122594785Y-60492642D01*
%TO.C,R4*%
X121181833Y-49537880D02*
X120848500Y-49061690D01*
X120610404Y-49537880D02*
X120610404Y-48537880D01*
X120991357Y-48537880D01*
X121086595Y-48585500D01*
X121134214Y-48633119D01*
X121181833Y-48728357D01*
X121181833Y-48871214D01*
X121134214Y-48966452D01*
X121086595Y-49014071D01*
X120991357Y-49061690D01*
X120610404Y-49061690D01*
X122038976Y-48871214D02*
X122038976Y-49537880D01*
X121800880Y-48490261D02*
X121562785Y-49204547D01*
X122181833Y-49204547D01*
%TO.C,R3*%
X117625833Y-60587880D02*
X117292500Y-60111690D01*
X117054404Y-60587880D02*
X117054404Y-59587880D01*
X117435357Y-59587880D01*
X117530595Y-59635500D01*
X117578214Y-59683119D01*
X117625833Y-59778357D01*
X117625833Y-59921214D01*
X117578214Y-60016452D01*
X117530595Y-60064071D01*
X117435357Y-60111690D01*
X117054404Y-60111690D01*
X117959166Y-59587880D02*
X118578214Y-59587880D01*
X118244880Y-59968833D01*
X118387738Y-59968833D01*
X118482976Y-60016452D01*
X118530595Y-60064071D01*
X118578214Y-60159309D01*
X118578214Y-60397404D01*
X118530595Y-60492642D01*
X118482976Y-60540261D01*
X118387738Y-60587880D01*
X118102023Y-60587880D01*
X118006785Y-60540261D01*
X117959166Y-60492642D01*
%TO.C,R2*%
X116101833Y-49410880D02*
X115768500Y-48934690D01*
X115530404Y-49410880D02*
X115530404Y-48410880D01*
X115911357Y-48410880D01*
X116006595Y-48458500D01*
X116054214Y-48506119D01*
X116101833Y-48601357D01*
X116101833Y-48744214D01*
X116054214Y-48839452D01*
X116006595Y-48887071D01*
X115911357Y-48934690D01*
X115530404Y-48934690D01*
X116482785Y-48506119D02*
X116530404Y-48458500D01*
X116625642Y-48410880D01*
X116863738Y-48410880D01*
X116958976Y-48458500D01*
X117006595Y-48506119D01*
X117054214Y-48601357D01*
X117054214Y-48696595D01*
X117006595Y-48839452D01*
X116435166Y-49410880D01*
X117054214Y-49410880D01*
%TO.C,R1*%
X113942833Y-27693880D02*
X113609500Y-27217690D01*
X113371404Y-27693880D02*
X113371404Y-26693880D01*
X113752357Y-26693880D01*
X113847595Y-26741500D01*
X113895214Y-26789119D01*
X113942833Y-26884357D01*
X113942833Y-27027214D01*
X113895214Y-27122452D01*
X113847595Y-27170071D01*
X113752357Y-27217690D01*
X113371404Y-27217690D01*
X114895214Y-27693880D02*
X114323785Y-27693880D01*
X114609500Y-27693880D02*
X114609500Y-26693880D01*
X114514261Y-26836738D01*
X114419023Y-26931976D01*
X114323785Y-26979595D01*
%TO.C,Q6*%
X135794761Y-37250619D02*
X135699523Y-37203000D01*
X135604285Y-37107761D01*
X135461428Y-36964904D01*
X135366190Y-36917285D01*
X135270952Y-36917285D01*
X135318571Y-37155380D02*
X135223333Y-37107761D01*
X135128095Y-37012523D01*
X135080476Y-36822047D01*
X135080476Y-36488714D01*
X135128095Y-36298238D01*
X135223333Y-36203000D01*
X135318571Y-36155380D01*
X135509047Y-36155380D01*
X135604285Y-36203000D01*
X135699523Y-36298238D01*
X135747142Y-36488714D01*
X135747142Y-36822047D01*
X135699523Y-37012523D01*
X135604285Y-37107761D01*
X135509047Y-37155380D01*
X135318571Y-37155380D01*
X136604285Y-36155380D02*
X136413809Y-36155380D01*
X136318571Y-36203000D01*
X136270952Y-36250619D01*
X136175714Y-36393476D01*
X136128095Y-36583952D01*
X136128095Y-36964904D01*
X136175714Y-37060142D01*
X136223333Y-37107761D01*
X136318571Y-37155380D01*
X136509047Y-37155380D01*
X136604285Y-37107761D01*
X136651904Y-37060142D01*
X136699523Y-36964904D01*
X136699523Y-36726809D01*
X136651904Y-36631571D01*
X136604285Y-36583952D01*
X136509047Y-36536333D01*
X136318571Y-36536333D01*
X136223333Y-36583952D01*
X136175714Y-36631571D01*
X136128095Y-36726809D01*
%TO.C,Q5*%
X132111761Y-37314119D02*
X132016523Y-37266500D01*
X131921285Y-37171261D01*
X131778428Y-37028404D01*
X131683190Y-36980785D01*
X131587952Y-36980785D01*
X131635571Y-37218880D02*
X131540333Y-37171261D01*
X131445095Y-37076023D01*
X131397476Y-36885547D01*
X131397476Y-36552214D01*
X131445095Y-36361738D01*
X131540333Y-36266500D01*
X131635571Y-36218880D01*
X131826047Y-36218880D01*
X131921285Y-36266500D01*
X132016523Y-36361738D01*
X132064142Y-36552214D01*
X132064142Y-36885547D01*
X132016523Y-37076023D01*
X131921285Y-37171261D01*
X131826047Y-37218880D01*
X131635571Y-37218880D01*
X132968904Y-36218880D02*
X132492714Y-36218880D01*
X132445095Y-36695071D01*
X132492714Y-36647452D01*
X132587952Y-36599833D01*
X132826047Y-36599833D01*
X132921285Y-36647452D01*
X132968904Y-36695071D01*
X133016523Y-36790309D01*
X133016523Y-37028404D01*
X132968904Y-37123642D01*
X132921285Y-37171261D01*
X132826047Y-37218880D01*
X132587952Y-37218880D01*
X132492714Y-37171261D01*
X132445095Y-37123642D01*
%TO.C,Q4*%
X123455441Y-32972619D02*
X123360203Y-32925000D01*
X123264965Y-32829761D01*
X123122108Y-32686904D01*
X123026870Y-32639285D01*
X122931632Y-32639285D01*
X122979251Y-32877380D02*
X122884013Y-32829761D01*
X122788775Y-32734523D01*
X122741156Y-32544047D01*
X122741156Y-32210714D01*
X122788775Y-32020238D01*
X122884013Y-31925000D01*
X122979251Y-31877380D01*
X123169727Y-31877380D01*
X123264965Y-31925000D01*
X123360203Y-32020238D01*
X123407822Y-32210714D01*
X123407822Y-32544047D01*
X123360203Y-32734523D01*
X123264965Y-32829761D01*
X123169727Y-32877380D01*
X122979251Y-32877380D01*
X124264965Y-32210714D02*
X124264965Y-32877380D01*
X124026870Y-31829761D02*
X123788775Y-32544047D01*
X124407822Y-32544047D01*
%TO.C,Q3*%
X123455441Y-27714819D02*
X123360203Y-27667200D01*
X123264965Y-27571961D01*
X123122108Y-27429104D01*
X123026870Y-27381485D01*
X122931632Y-27381485D01*
X122979251Y-27619580D02*
X122884013Y-27571961D01*
X122788775Y-27476723D01*
X122741156Y-27286247D01*
X122741156Y-26952914D01*
X122788775Y-26762438D01*
X122884013Y-26667200D01*
X122979251Y-26619580D01*
X123169727Y-26619580D01*
X123264965Y-26667200D01*
X123360203Y-26762438D01*
X123407822Y-26952914D01*
X123407822Y-27286247D01*
X123360203Y-27476723D01*
X123264965Y-27571961D01*
X123169727Y-27619580D01*
X122979251Y-27619580D01*
X123741156Y-26619580D02*
X124360203Y-26619580D01*
X124026870Y-27000533D01*
X124169727Y-27000533D01*
X124264965Y-27048152D01*
X124312584Y-27095771D01*
X124360203Y-27191009D01*
X124360203Y-27429104D01*
X124312584Y-27524342D01*
X124264965Y-27571961D01*
X124169727Y-27619580D01*
X123884013Y-27619580D01*
X123788775Y-27571961D01*
X123741156Y-27524342D01*
%TO.C,Q2*%
X119056161Y-32939599D02*
X118960923Y-32891980D01*
X118865685Y-32796741D01*
X118722828Y-32653884D01*
X118627590Y-32606265D01*
X118532352Y-32606265D01*
X118579971Y-32844360D02*
X118484733Y-32796741D01*
X118389495Y-32701503D01*
X118341876Y-32511027D01*
X118341876Y-32177694D01*
X118389495Y-31987218D01*
X118484733Y-31891980D01*
X118579971Y-31844360D01*
X118770447Y-31844360D01*
X118865685Y-31891980D01*
X118960923Y-31987218D01*
X119008542Y-32177694D01*
X119008542Y-32511027D01*
X118960923Y-32701503D01*
X118865685Y-32796741D01*
X118770447Y-32844360D01*
X118579971Y-32844360D01*
X119389495Y-31939599D02*
X119437114Y-31891980D01*
X119532352Y-31844360D01*
X119770447Y-31844360D01*
X119865685Y-31891980D01*
X119913304Y-31939599D01*
X119960923Y-32034837D01*
X119960923Y-32130075D01*
X119913304Y-32272932D01*
X119341876Y-32844360D01*
X119960923Y-32844360D01*
%TO.C,Q1*%
X119056161Y-27714819D02*
X118960923Y-27667200D01*
X118865685Y-27571961D01*
X118722828Y-27429104D01*
X118627590Y-27381485D01*
X118532352Y-27381485D01*
X118579971Y-27619580D02*
X118484733Y-27571961D01*
X118389495Y-27476723D01*
X118341876Y-27286247D01*
X118341876Y-26952914D01*
X118389495Y-26762438D01*
X118484733Y-26667200D01*
X118579971Y-26619580D01*
X118770447Y-26619580D01*
X118865685Y-26667200D01*
X118960923Y-26762438D01*
X119008542Y-26952914D01*
X119008542Y-27286247D01*
X118960923Y-27476723D01*
X118865685Y-27571961D01*
X118770447Y-27619580D01*
X118579971Y-27619580D01*
X119960923Y-27619580D02*
X119389495Y-27619580D01*
X119675209Y-27619580D02*
X119675209Y-26619580D01*
X119579971Y-26762438D01*
X119484733Y-26857676D01*
X119389495Y-26905295D01*
%TO.C,J2*%
X105394166Y-43584880D02*
X105394166Y-44299166D01*
X105346547Y-44442023D01*
X105251309Y-44537261D01*
X105108452Y-44584880D01*
X105013214Y-44584880D01*
X105822738Y-43680119D02*
X105870357Y-43632500D01*
X105965595Y-43584880D01*
X106203690Y-43584880D01*
X106298928Y-43632500D01*
X106346547Y-43680119D01*
X106394166Y-43775357D01*
X106394166Y-43870595D01*
X106346547Y-44013452D01*
X105775119Y-44584880D01*
X106394166Y-44584880D01*
%TO.C,J1*%
X105394166Y-30122880D02*
X105394166Y-30837166D01*
X105346547Y-30980023D01*
X105251309Y-31075261D01*
X105108452Y-31122880D01*
X105013214Y-31122880D01*
X106394166Y-31122880D02*
X105822738Y-31122880D01*
X106108452Y-31122880D02*
X106108452Y-30122880D01*
X106013214Y-30265738D01*
X105917976Y-30360976D01*
X105822738Y-30408595D01*
%TO.C,D4*%
X126706404Y-66555880D02*
X126706404Y-65555880D01*
X126944500Y-65555880D01*
X127087357Y-65603500D01*
X127182595Y-65698738D01*
X127230214Y-65793976D01*
X127277833Y-65984452D01*
X127277833Y-66127309D01*
X127230214Y-66317785D01*
X127182595Y-66413023D01*
X127087357Y-66508261D01*
X126944500Y-66555880D01*
X126706404Y-66555880D01*
X128134976Y-65889214D02*
X128134976Y-66555880D01*
X127896880Y-65508261D02*
X127658785Y-66222547D01*
X128277833Y-66222547D01*
X121848595Y-64709880D02*
X121848595Y-63709880D01*
X122420023Y-64709880D02*
X121991452Y-64138452D01*
X122420023Y-63709880D02*
X121848595Y-64281309D01*
%TO.C,D3*%
X126960404Y-40012880D02*
X126960404Y-39012880D01*
X127198500Y-39012880D01*
X127341357Y-39060500D01*
X127436595Y-39155738D01*
X127484214Y-39250976D01*
X127531833Y-39441452D01*
X127531833Y-39584309D01*
X127484214Y-39774785D01*
X127436595Y-39870023D01*
X127341357Y-39965261D01*
X127198500Y-40012880D01*
X126960404Y-40012880D01*
X127865166Y-39012880D02*
X128484214Y-39012880D01*
X128150880Y-39393833D01*
X128293738Y-39393833D01*
X128388976Y-39441452D01*
X128436595Y-39489071D01*
X128484214Y-39584309D01*
X128484214Y-39822404D01*
X128436595Y-39917642D01*
X128388976Y-39965261D01*
X128293738Y-40012880D01*
X128008023Y-40012880D01*
X127912785Y-39965261D01*
X127865166Y-39917642D01*
X132897595Y-42239880D02*
X132897595Y-41239880D01*
X133469023Y-42239880D02*
X133040452Y-41668452D01*
X133469023Y-41239880D02*
X132897595Y-41811309D01*
%TO.C,D2*%
X137675880Y-61507595D02*
X136675880Y-61507595D01*
X136675880Y-61269500D01*
X136723500Y-61126642D01*
X136818738Y-61031404D01*
X136913976Y-60983785D01*
X137104452Y-60936166D01*
X137247309Y-60936166D01*
X137437785Y-60983785D01*
X137533023Y-61031404D01*
X137628261Y-61126642D01*
X137675880Y-61269500D01*
X137675880Y-61507595D01*
X136771119Y-60555214D02*
X136723500Y-60507595D01*
X136675880Y-60412357D01*
X136675880Y-60174261D01*
X136723500Y-60079023D01*
X136771119Y-60031404D01*
X136866357Y-59983785D01*
X136961595Y-59983785D01*
X137104452Y-60031404D01*
X137675880Y-60602833D01*
X137675880Y-59983785D01*
X135702880Y-66619404D02*
X134702880Y-66619404D01*
X135702880Y-66047976D02*
X135131452Y-66476547D01*
X134702880Y-66047976D02*
X135274309Y-66619404D01*
%TO.C,D1*%
X138564880Y-45378595D02*
X137564880Y-45378595D01*
X137564880Y-45140500D01*
X137612500Y-44997642D01*
X137707738Y-44902404D01*
X137802976Y-44854785D01*
X137993452Y-44807166D01*
X138136309Y-44807166D01*
X138326785Y-44854785D01*
X138422023Y-44902404D01*
X138517261Y-44997642D01*
X138564880Y-45140500D01*
X138564880Y-45378595D01*
X138564880Y-43854785D02*
X138564880Y-44426214D01*
X138564880Y-44140500D02*
X137564880Y-44140500D01*
X137707738Y-44235738D01*
X137802976Y-44330976D01*
X137850595Y-44426214D01*
X136591880Y-50109404D02*
X135591880Y-50109404D01*
X136591880Y-49537976D02*
X136020452Y-49966547D01*
X135591880Y-49537976D02*
X136163309Y-50109404D01*
%TO.C,C9*%
X163853833Y-46115642D02*
X163806214Y-46163261D01*
X163663357Y-46210880D01*
X163568119Y-46210880D01*
X163425261Y-46163261D01*
X163330023Y-46068023D01*
X163282404Y-45972785D01*
X163234785Y-45782309D01*
X163234785Y-45639452D01*
X163282404Y-45448976D01*
X163330023Y-45353738D01*
X163425261Y-45258500D01*
X163568119Y-45210880D01*
X163663357Y-45210880D01*
X163806214Y-45258500D01*
X163853833Y-45306119D01*
X164330023Y-46210880D02*
X164520500Y-46210880D01*
X164615738Y-46163261D01*
X164663357Y-46115642D01*
X164758595Y-45972785D01*
X164806214Y-45782309D01*
X164806214Y-45401357D01*
X164758595Y-45306119D01*
X164710976Y-45258500D01*
X164615738Y-45210880D01*
X164425261Y-45210880D01*
X164330023Y-45258500D01*
X164282404Y-45306119D01*
X164234785Y-45401357D01*
X164234785Y-45639452D01*
X164282404Y-45734690D01*
X164330023Y-45782309D01*
X164425261Y-45829928D01*
X164615738Y-45829928D01*
X164710976Y-45782309D01*
X164758595Y-45734690D01*
X164806214Y-45639452D01*
%TO.C,C6*%
X140168333Y-60237642D02*
X140120714Y-60285261D01*
X139977857Y-60332880D01*
X139882619Y-60332880D01*
X139739761Y-60285261D01*
X139644523Y-60190023D01*
X139596904Y-60094785D01*
X139549285Y-59904309D01*
X139549285Y-59761452D01*
X139596904Y-59570976D01*
X139644523Y-59475738D01*
X139739761Y-59380500D01*
X139882619Y-59332880D01*
X139977857Y-59332880D01*
X140120714Y-59380500D01*
X140168333Y-59428119D01*
X141025476Y-59332880D02*
X140835000Y-59332880D01*
X140739761Y-59380500D01*
X140692142Y-59428119D01*
X140596904Y-59570976D01*
X140549285Y-59761452D01*
X140549285Y-60142404D01*
X140596904Y-60237642D01*
X140644523Y-60285261D01*
X140739761Y-60332880D01*
X140930238Y-60332880D01*
X141025476Y-60285261D01*
X141073095Y-60237642D01*
X141120714Y-60142404D01*
X141120714Y-59904309D01*
X141073095Y-59809071D01*
X141025476Y-59761452D01*
X140930238Y-59713833D01*
X140739761Y-59713833D01*
X140644523Y-59761452D01*
X140596904Y-59809071D01*
X140549285Y-59904309D01*
%TO.C,C5*%
X148994833Y-45505642D02*
X148947214Y-45553261D01*
X148804357Y-45600880D01*
X148709119Y-45600880D01*
X148566261Y-45553261D01*
X148471023Y-45458023D01*
X148423404Y-45362785D01*
X148375785Y-45172309D01*
X148375785Y-45029452D01*
X148423404Y-44838976D01*
X148471023Y-44743738D01*
X148566261Y-44648500D01*
X148709119Y-44600880D01*
X148804357Y-44600880D01*
X148947214Y-44648500D01*
X148994833Y-44696119D01*
X149899595Y-44600880D02*
X149423404Y-44600880D01*
X149375785Y-45077071D01*
X149423404Y-45029452D01*
X149518642Y-44981833D01*
X149756738Y-44981833D01*
X149851976Y-45029452D01*
X149899595Y-45077071D01*
X149947214Y-45172309D01*
X149947214Y-45410404D01*
X149899595Y-45505642D01*
X149851976Y-45553261D01*
X149756738Y-45600880D01*
X149518642Y-45600880D01*
X149423404Y-45553261D01*
X149375785Y-45505642D01*
%TO.C,C3*%
X141120833Y-44743642D02*
X141073214Y-44791261D01*
X140930357Y-44838880D01*
X140835119Y-44838880D01*
X140692261Y-44791261D01*
X140597023Y-44696023D01*
X140549404Y-44600785D01*
X140501785Y-44410309D01*
X140501785Y-44267452D01*
X140549404Y-44076976D01*
X140597023Y-43981738D01*
X140692261Y-43886500D01*
X140835119Y-43838880D01*
X140930357Y-43838880D01*
X141073214Y-43886500D01*
X141120833Y-43934119D01*
X141454166Y-43838880D02*
X142073214Y-43838880D01*
X141739880Y-44219833D01*
X141882738Y-44219833D01*
X141977976Y-44267452D01*
X142025595Y-44315071D01*
X142073214Y-44410309D01*
X142073214Y-44648404D01*
X142025595Y-44743642D01*
X141977976Y-44791261D01*
X141882738Y-44838880D01*
X141597023Y-44838880D01*
X141501785Y-44791261D01*
X141454166Y-44743642D01*
%TO.C,C2*%
X117054333Y-53252642D02*
X117006714Y-53300261D01*
X116863857Y-53347880D01*
X116768619Y-53347880D01*
X116625761Y-53300261D01*
X116530523Y-53205023D01*
X116482904Y-53109785D01*
X116435285Y-52919309D01*
X116435285Y-52776452D01*
X116482904Y-52585976D01*
X116530523Y-52490738D01*
X116625761Y-52395500D01*
X116768619Y-52347880D01*
X116863857Y-52347880D01*
X117006714Y-52395500D01*
X117054333Y-52443119D01*
X117435285Y-52443119D02*
X117482904Y-52395500D01*
X117578142Y-52347880D01*
X117816238Y-52347880D01*
X117911476Y-52395500D01*
X117959095Y-52443119D01*
X118006714Y-52538357D01*
X118006714Y-52633595D01*
X117959095Y-52776452D01*
X117387666Y-53347880D01*
X118006714Y-53347880D01*
%TO.C,C1*%
X118006833Y-41378142D02*
X117959214Y-41425761D01*
X117816357Y-41473380D01*
X117721119Y-41473380D01*
X117578261Y-41425761D01*
X117483023Y-41330523D01*
X117435404Y-41235285D01*
X117387785Y-41044809D01*
X117387785Y-40901952D01*
X117435404Y-40711476D01*
X117483023Y-40616238D01*
X117578261Y-40521000D01*
X117721119Y-40473380D01*
X117816357Y-40473380D01*
X117959214Y-40521000D01*
X118006833Y-40568619D01*
X118959214Y-41473380D02*
X118387785Y-41473380D01*
X118673500Y-41473380D02*
X118673500Y-40473380D01*
X118578261Y-40616238D01*
X118483023Y-40711476D01*
X118387785Y-40759095D01*
%TD*%
M02*
