%TF.GenerationSoftware,KiCad,Pcbnew,(5.1.8-0-10_14)*%
%TF.CreationDate,2022-02-24T11:49:15-06:00*%
%TF.ProjectId,SAQ_KiCad_one,5341515f-4b69-4436-9164-5f6f6e652e6b,rev?*%
%TF.SameCoordinates,Original*%
%TF.FileFunction,Paste,Top*%
%TF.FilePolarity,Positive*%
%FSLAX46Y46*%
G04 Gerber Fmt 4.6, Leading zero omitted, Abs format (unit mm)*
G04 Created by KiCad (PCBNEW (5.1.8-0-10_14)) date 2022-02-24 11:49:15*
%MOMM*%
%LPD*%
G01*
G04 APERTURE LIST*
%ADD10R,2.000000X1.500000*%
%ADD11R,2.000000X3.800000*%
%ADD12R,1.300000X1.600000*%
%ADD13R,2.000000X1.600000*%
%ADD14R,0.900000X0.800000*%
G04 APERTURE END LIST*
%TO.C,U4*%
G36*
G01*
X143726000Y-33949500D02*
X143726000Y-34249500D01*
G75*
G02*
X143576000Y-34399500I-150000J0D01*
G01*
X141926000Y-34399500D01*
G75*
G02*
X141776000Y-34249500I0J150000D01*
G01*
X141776000Y-33949500D01*
G75*
G02*
X141926000Y-33799500I150000J0D01*
G01*
X143576000Y-33799500D01*
G75*
G02*
X143726000Y-33949500I0J-150000D01*
G01*
G37*
G36*
G01*
X143726000Y-32679500D02*
X143726000Y-32979500D01*
G75*
G02*
X143576000Y-33129500I-150000J0D01*
G01*
X141926000Y-33129500D01*
G75*
G02*
X141776000Y-32979500I0J150000D01*
G01*
X141776000Y-32679500D01*
G75*
G02*
X141926000Y-32529500I150000J0D01*
G01*
X143576000Y-32529500D01*
G75*
G02*
X143726000Y-32679500I0J-150000D01*
G01*
G37*
G36*
G01*
X143726000Y-31409500D02*
X143726000Y-31709500D01*
G75*
G02*
X143576000Y-31859500I-150000J0D01*
G01*
X141926000Y-31859500D01*
G75*
G02*
X141776000Y-31709500I0J150000D01*
G01*
X141776000Y-31409500D01*
G75*
G02*
X141926000Y-31259500I150000J0D01*
G01*
X143576000Y-31259500D01*
G75*
G02*
X143726000Y-31409500I0J-150000D01*
G01*
G37*
G36*
G01*
X143726000Y-30139500D02*
X143726000Y-30439500D01*
G75*
G02*
X143576000Y-30589500I-150000J0D01*
G01*
X141926000Y-30589500D01*
G75*
G02*
X141776000Y-30439500I0J150000D01*
G01*
X141776000Y-30139500D01*
G75*
G02*
X141926000Y-29989500I150000J0D01*
G01*
X143576000Y-29989500D01*
G75*
G02*
X143726000Y-30139500I0J-150000D01*
G01*
G37*
G36*
G01*
X148676000Y-30139500D02*
X148676000Y-30439500D01*
G75*
G02*
X148526000Y-30589500I-150000J0D01*
G01*
X146876000Y-30589500D01*
G75*
G02*
X146726000Y-30439500I0J150000D01*
G01*
X146726000Y-30139500D01*
G75*
G02*
X146876000Y-29989500I150000J0D01*
G01*
X148526000Y-29989500D01*
G75*
G02*
X148676000Y-30139500I0J-150000D01*
G01*
G37*
G36*
G01*
X148676000Y-31409500D02*
X148676000Y-31709500D01*
G75*
G02*
X148526000Y-31859500I-150000J0D01*
G01*
X146876000Y-31859500D01*
G75*
G02*
X146726000Y-31709500I0J150000D01*
G01*
X146726000Y-31409500D01*
G75*
G02*
X146876000Y-31259500I150000J0D01*
G01*
X148526000Y-31259500D01*
G75*
G02*
X148676000Y-31409500I0J-150000D01*
G01*
G37*
G36*
G01*
X148676000Y-32679500D02*
X148676000Y-32979500D01*
G75*
G02*
X148526000Y-33129500I-150000J0D01*
G01*
X146876000Y-33129500D01*
G75*
G02*
X146726000Y-32979500I0J150000D01*
G01*
X146726000Y-32679500D01*
G75*
G02*
X146876000Y-32529500I150000J0D01*
G01*
X148526000Y-32529500D01*
G75*
G02*
X148676000Y-32679500I0J-150000D01*
G01*
G37*
G36*
G01*
X148676000Y-33949500D02*
X148676000Y-34249500D01*
G75*
G02*
X148526000Y-34399500I-150000J0D01*
G01*
X146876000Y-34399500D01*
G75*
G02*
X146726000Y-34249500I0J150000D01*
G01*
X146726000Y-33949500D01*
G75*
G02*
X146876000Y-33799500I150000J0D01*
G01*
X148526000Y-33799500D01*
G75*
G02*
X148676000Y-33949500I0J-150000D01*
G01*
G37*
%TD*%
%TO.C,R11*%
G36*
G01*
X135959001Y-28619500D02*
X135058999Y-28619500D01*
G75*
G02*
X134809000Y-28369501I0J249999D01*
G01*
X134809000Y-27669499D01*
G75*
G02*
X135058999Y-27419500I249999J0D01*
G01*
X135959001Y-27419500D01*
G75*
G02*
X136209000Y-27669499I0J-249999D01*
G01*
X136209000Y-28369501D01*
G75*
G02*
X135959001Y-28619500I-249999J0D01*
G01*
G37*
G36*
G01*
X135959001Y-30619500D02*
X135058999Y-30619500D01*
G75*
G02*
X134809000Y-30369501I0J249999D01*
G01*
X134809000Y-29669499D01*
G75*
G02*
X135058999Y-29419500I249999J0D01*
G01*
X135959001Y-29419500D01*
G75*
G02*
X136209000Y-29669499I0J-249999D01*
G01*
X136209000Y-30369501D01*
G75*
G02*
X135959001Y-30619500I-249999J0D01*
G01*
G37*
%TD*%
%TO.C,U3*%
G36*
G01*
X146724500Y-19835000D02*
X146724500Y-19535000D01*
G75*
G02*
X146874500Y-19385000I150000J0D01*
G01*
X148524500Y-19385000D01*
G75*
G02*
X148674500Y-19535000I0J-150000D01*
G01*
X148674500Y-19835000D01*
G75*
G02*
X148524500Y-19985000I-150000J0D01*
G01*
X146874500Y-19985000D01*
G75*
G02*
X146724500Y-19835000I0J150000D01*
G01*
G37*
G36*
G01*
X146724500Y-21105000D02*
X146724500Y-20805000D01*
G75*
G02*
X146874500Y-20655000I150000J0D01*
G01*
X148524500Y-20655000D01*
G75*
G02*
X148674500Y-20805000I0J-150000D01*
G01*
X148674500Y-21105000D01*
G75*
G02*
X148524500Y-21255000I-150000J0D01*
G01*
X146874500Y-21255000D01*
G75*
G02*
X146724500Y-21105000I0J150000D01*
G01*
G37*
G36*
G01*
X146724500Y-22375000D02*
X146724500Y-22075000D01*
G75*
G02*
X146874500Y-21925000I150000J0D01*
G01*
X148524500Y-21925000D01*
G75*
G02*
X148674500Y-22075000I0J-150000D01*
G01*
X148674500Y-22375000D01*
G75*
G02*
X148524500Y-22525000I-150000J0D01*
G01*
X146874500Y-22525000D01*
G75*
G02*
X146724500Y-22375000I0J150000D01*
G01*
G37*
G36*
G01*
X146724500Y-23645000D02*
X146724500Y-23345000D01*
G75*
G02*
X146874500Y-23195000I150000J0D01*
G01*
X148524500Y-23195000D01*
G75*
G02*
X148674500Y-23345000I0J-150000D01*
G01*
X148674500Y-23645000D01*
G75*
G02*
X148524500Y-23795000I-150000J0D01*
G01*
X146874500Y-23795000D01*
G75*
G02*
X146724500Y-23645000I0J150000D01*
G01*
G37*
G36*
G01*
X146724500Y-24915000D02*
X146724500Y-24615000D01*
G75*
G02*
X146874500Y-24465000I150000J0D01*
G01*
X148524500Y-24465000D01*
G75*
G02*
X148674500Y-24615000I0J-150000D01*
G01*
X148674500Y-24915000D01*
G75*
G02*
X148524500Y-25065000I-150000J0D01*
G01*
X146874500Y-25065000D01*
G75*
G02*
X146724500Y-24915000I0J150000D01*
G01*
G37*
G36*
G01*
X146724500Y-26185000D02*
X146724500Y-25885000D01*
G75*
G02*
X146874500Y-25735000I150000J0D01*
G01*
X148524500Y-25735000D01*
G75*
G02*
X148674500Y-25885000I0J-150000D01*
G01*
X148674500Y-26185000D01*
G75*
G02*
X148524500Y-26335000I-150000J0D01*
G01*
X146874500Y-26335000D01*
G75*
G02*
X146724500Y-26185000I0J150000D01*
G01*
G37*
G36*
G01*
X146724500Y-27455000D02*
X146724500Y-27155000D01*
G75*
G02*
X146874500Y-27005000I150000J0D01*
G01*
X148524500Y-27005000D01*
G75*
G02*
X148674500Y-27155000I0J-150000D01*
G01*
X148674500Y-27455000D01*
G75*
G02*
X148524500Y-27605000I-150000J0D01*
G01*
X146874500Y-27605000D01*
G75*
G02*
X146724500Y-27455000I0J150000D01*
G01*
G37*
G36*
G01*
X141774500Y-27455000D02*
X141774500Y-27155000D01*
G75*
G02*
X141924500Y-27005000I150000J0D01*
G01*
X143574500Y-27005000D01*
G75*
G02*
X143724500Y-27155000I0J-150000D01*
G01*
X143724500Y-27455000D01*
G75*
G02*
X143574500Y-27605000I-150000J0D01*
G01*
X141924500Y-27605000D01*
G75*
G02*
X141774500Y-27455000I0J150000D01*
G01*
G37*
G36*
G01*
X141774500Y-26185000D02*
X141774500Y-25885000D01*
G75*
G02*
X141924500Y-25735000I150000J0D01*
G01*
X143574500Y-25735000D01*
G75*
G02*
X143724500Y-25885000I0J-150000D01*
G01*
X143724500Y-26185000D01*
G75*
G02*
X143574500Y-26335000I-150000J0D01*
G01*
X141924500Y-26335000D01*
G75*
G02*
X141774500Y-26185000I0J150000D01*
G01*
G37*
G36*
G01*
X141774500Y-24915000D02*
X141774500Y-24615000D01*
G75*
G02*
X141924500Y-24465000I150000J0D01*
G01*
X143574500Y-24465000D01*
G75*
G02*
X143724500Y-24615000I0J-150000D01*
G01*
X143724500Y-24915000D01*
G75*
G02*
X143574500Y-25065000I-150000J0D01*
G01*
X141924500Y-25065000D01*
G75*
G02*
X141774500Y-24915000I0J150000D01*
G01*
G37*
G36*
G01*
X141774500Y-23645000D02*
X141774500Y-23345000D01*
G75*
G02*
X141924500Y-23195000I150000J0D01*
G01*
X143574500Y-23195000D01*
G75*
G02*
X143724500Y-23345000I0J-150000D01*
G01*
X143724500Y-23645000D01*
G75*
G02*
X143574500Y-23795000I-150000J0D01*
G01*
X141924500Y-23795000D01*
G75*
G02*
X141774500Y-23645000I0J150000D01*
G01*
G37*
G36*
G01*
X141774500Y-22375000D02*
X141774500Y-22075000D01*
G75*
G02*
X141924500Y-21925000I150000J0D01*
G01*
X143574500Y-21925000D01*
G75*
G02*
X143724500Y-22075000I0J-150000D01*
G01*
X143724500Y-22375000D01*
G75*
G02*
X143574500Y-22525000I-150000J0D01*
G01*
X141924500Y-22525000D01*
G75*
G02*
X141774500Y-22375000I0J150000D01*
G01*
G37*
G36*
G01*
X141774500Y-21105000D02*
X141774500Y-20805000D01*
G75*
G02*
X141924500Y-20655000I150000J0D01*
G01*
X143574500Y-20655000D01*
G75*
G02*
X143724500Y-20805000I0J-150000D01*
G01*
X143724500Y-21105000D01*
G75*
G02*
X143574500Y-21255000I-150000J0D01*
G01*
X141924500Y-21255000D01*
G75*
G02*
X141774500Y-21105000I0J150000D01*
G01*
G37*
G36*
G01*
X141774500Y-19835000D02*
X141774500Y-19535000D01*
G75*
G02*
X141924500Y-19385000I150000J0D01*
G01*
X143574500Y-19385000D01*
G75*
G02*
X143724500Y-19535000I0J-150000D01*
G01*
X143724500Y-19835000D01*
G75*
G02*
X143574500Y-19985000I-150000J0D01*
G01*
X141924500Y-19985000D01*
G75*
G02*
X141774500Y-19835000I0J150000D01*
G01*
G37*
%TD*%
%TO.C,C17*%
G36*
G01*
X145150000Y-16875997D02*
X145150000Y-18176003D01*
G75*
G02*
X144900003Y-18426000I-249997J0D01*
G01*
X144074997Y-18426000D01*
G75*
G02*
X143825000Y-18176003I0J249997D01*
G01*
X143825000Y-16875997D01*
G75*
G02*
X144074997Y-16626000I249997J0D01*
G01*
X144900003Y-16626000D01*
G75*
G02*
X145150000Y-16875997I0J-249997D01*
G01*
G37*
G36*
G01*
X148275000Y-16875997D02*
X148275000Y-18176003D01*
G75*
G02*
X148025003Y-18426000I-249997J0D01*
G01*
X147199997Y-18426000D01*
G75*
G02*
X146950000Y-18176003I0J249997D01*
G01*
X146950000Y-16875997D01*
G75*
G02*
X147199997Y-16626000I249997J0D01*
G01*
X148025003Y-16626000D01*
G75*
G02*
X148275000Y-16875997I0J-249997D01*
G01*
G37*
%TD*%
%TO.C,C16*%
G36*
G01*
X162856000Y-54989500D02*
X161756000Y-54989500D01*
G75*
G02*
X161506000Y-54739500I0J250000D01*
G01*
X161506000Y-52239500D01*
G75*
G02*
X161756000Y-51989500I250000J0D01*
G01*
X162856000Y-51989500D01*
G75*
G02*
X163106000Y-52239500I0J-250000D01*
G01*
X163106000Y-54739500D01*
G75*
G02*
X162856000Y-54989500I-250000J0D01*
G01*
G37*
G36*
G01*
X162856000Y-59389500D02*
X161756000Y-59389500D01*
G75*
G02*
X161506000Y-59139500I0J250000D01*
G01*
X161506000Y-56639500D01*
G75*
G02*
X161756000Y-56389500I250000J0D01*
G01*
X162856000Y-56389500D01*
G75*
G02*
X163106000Y-56639500I0J-250000D01*
G01*
X163106000Y-59139500D01*
G75*
G02*
X162856000Y-59389500I-250000J0D01*
G01*
G37*
%TD*%
%TO.C,C7*%
G36*
G01*
X155215500Y-56389500D02*
X156315500Y-56389500D01*
G75*
G02*
X156565500Y-56639500I0J-250000D01*
G01*
X156565500Y-59139500D01*
G75*
G02*
X156315500Y-59389500I-250000J0D01*
G01*
X155215500Y-59389500D01*
G75*
G02*
X154965500Y-59139500I0J250000D01*
G01*
X154965500Y-56639500D01*
G75*
G02*
X155215500Y-56389500I250000J0D01*
G01*
G37*
G36*
G01*
X155215500Y-51989500D02*
X156315500Y-51989500D01*
G75*
G02*
X156565500Y-52239500I0J-250000D01*
G01*
X156565500Y-54739500D01*
G75*
G02*
X156315500Y-54989500I-250000J0D01*
G01*
X155215500Y-54989500D01*
G75*
G02*
X154965500Y-54739500I0J250000D01*
G01*
X154965500Y-52239500D01*
G75*
G02*
X155215500Y-51989500I250000J0D01*
G01*
G37*
%TD*%
%TO.C,C11*%
G36*
G01*
X166930500Y-38846997D02*
X166930500Y-40147003D01*
G75*
G02*
X166680503Y-40397000I-249997J0D01*
G01*
X165855497Y-40397000D01*
G75*
G02*
X165605500Y-40147003I0J249997D01*
G01*
X165605500Y-38846997D01*
G75*
G02*
X165855497Y-38597000I249997J0D01*
G01*
X166680503Y-38597000D01*
G75*
G02*
X166930500Y-38846997I0J-249997D01*
G01*
G37*
G36*
G01*
X170055500Y-38846997D02*
X170055500Y-40147003D01*
G75*
G02*
X169805503Y-40397000I-249997J0D01*
G01*
X168980497Y-40397000D01*
G75*
G02*
X168730500Y-40147003I0J249997D01*
G01*
X168730500Y-38846997D01*
G75*
G02*
X168980497Y-38597000I249997J0D01*
G01*
X169805503Y-38597000D01*
G75*
G02*
X170055500Y-38846997I0J-249997D01*
G01*
G37*
%TD*%
D10*
%TO.C,U2*%
X126580500Y-56183500D03*
X126580500Y-60783500D03*
X126580500Y-58483500D03*
D11*
X132880500Y-58483500D03*
%TD*%
D10*
%TO.C,U1*%
X126841720Y-44761120D03*
X126841720Y-49361120D03*
X126841720Y-47061120D03*
D11*
X133141720Y-47061120D03*
%TD*%
D12*
%TO.C,RV1*%
X151086500Y-39888500D03*
D13*
X152336500Y-42788500D03*
D12*
X153586500Y-39888500D03*
%TD*%
%TO.C,R16*%
G36*
G01*
X150235499Y-31769000D02*
X151135501Y-31769000D01*
G75*
G02*
X151385500Y-32018999I0J-249999D01*
G01*
X151385500Y-32719001D01*
G75*
G02*
X151135501Y-32969000I-249999J0D01*
G01*
X150235499Y-32969000D01*
G75*
G02*
X149985500Y-32719001I0J249999D01*
G01*
X149985500Y-32018999D01*
G75*
G02*
X150235499Y-31769000I249999J0D01*
G01*
G37*
G36*
G01*
X150235499Y-29769000D02*
X151135501Y-29769000D01*
G75*
G02*
X151385500Y-30018999I0J-249999D01*
G01*
X151385500Y-30719001D01*
G75*
G02*
X151135501Y-30969000I-249999J0D01*
G01*
X150235499Y-30969000D01*
G75*
G02*
X149985500Y-30719001I0J249999D01*
G01*
X149985500Y-30018999D01*
G75*
G02*
X150235499Y-29769000I249999J0D01*
G01*
G37*
%TD*%
%TO.C,R13*%
G36*
G01*
X150235499Y-26435000D02*
X151135501Y-26435000D01*
G75*
G02*
X151385500Y-26684999I0J-249999D01*
G01*
X151385500Y-27385001D01*
G75*
G02*
X151135501Y-27635000I-249999J0D01*
G01*
X150235499Y-27635000D01*
G75*
G02*
X149985500Y-27385001I0J249999D01*
G01*
X149985500Y-26684999D01*
G75*
G02*
X150235499Y-26435000I249999J0D01*
G01*
G37*
G36*
G01*
X150235499Y-24435000D02*
X151135501Y-24435000D01*
G75*
G02*
X151385500Y-24684999I0J-249999D01*
G01*
X151385500Y-25385001D01*
G75*
G02*
X151135501Y-25635000I-249999J0D01*
G01*
X150235499Y-25635000D01*
G75*
G02*
X149985500Y-25385001I0J249999D01*
G01*
X149985500Y-24684999D01*
G75*
G02*
X150235499Y-24435000I249999J0D01*
G01*
G37*
%TD*%
%TO.C,R10*%
G36*
G01*
X132645999Y-29403500D02*
X133546001Y-29403500D01*
G75*
G02*
X133796000Y-29653499I0J-249999D01*
G01*
X133796000Y-30353501D01*
G75*
G02*
X133546001Y-30603500I-249999J0D01*
G01*
X132645999Y-30603500D01*
G75*
G02*
X132396000Y-30353501I0J249999D01*
G01*
X132396000Y-29653499D01*
G75*
G02*
X132645999Y-29403500I249999J0D01*
G01*
G37*
G36*
G01*
X132645999Y-27403500D02*
X133546001Y-27403500D01*
G75*
G02*
X133796000Y-27653499I0J-249999D01*
G01*
X133796000Y-28353501D01*
G75*
G02*
X133546001Y-28603500I-249999J0D01*
G01*
X132645999Y-28603500D01*
G75*
G02*
X132396000Y-28353501I0J249999D01*
G01*
X132396000Y-27653499D01*
G75*
G02*
X132645999Y-27403500I249999J0D01*
G01*
G37*
%TD*%
%TO.C,R9*%
G36*
G01*
X144901499Y-57042000D02*
X145801501Y-57042000D01*
G75*
G02*
X146051500Y-57291999I0J-249999D01*
G01*
X146051500Y-57992001D01*
G75*
G02*
X145801501Y-58242000I-249999J0D01*
G01*
X144901499Y-58242000D01*
G75*
G02*
X144651500Y-57992001I0J249999D01*
G01*
X144651500Y-57291999D01*
G75*
G02*
X144901499Y-57042000I249999J0D01*
G01*
G37*
G36*
G01*
X144901499Y-55042000D02*
X145801501Y-55042000D01*
G75*
G02*
X146051500Y-55291999I0J-249999D01*
G01*
X146051500Y-55992001D01*
G75*
G02*
X145801501Y-56242000I-249999J0D01*
G01*
X144901499Y-56242000D01*
G75*
G02*
X144651500Y-55992001I0J249999D01*
G01*
X144651500Y-55291999D01*
G75*
G02*
X144901499Y-55042000I249999J0D01*
G01*
G37*
%TD*%
%TO.C,R8*%
G36*
G01*
X143269501Y-56242000D02*
X142369499Y-56242000D01*
G75*
G02*
X142119500Y-55992001I0J249999D01*
G01*
X142119500Y-55291999D01*
G75*
G02*
X142369499Y-55042000I249999J0D01*
G01*
X143269501Y-55042000D01*
G75*
G02*
X143519500Y-55291999I0J-249999D01*
G01*
X143519500Y-55992001D01*
G75*
G02*
X143269501Y-56242000I-249999J0D01*
G01*
G37*
G36*
G01*
X143269501Y-58242000D02*
X142369499Y-58242000D01*
G75*
G02*
X142119500Y-57992001I0J249999D01*
G01*
X142119500Y-57291999D01*
G75*
G02*
X142369499Y-57042000I249999J0D01*
G01*
X143269501Y-57042000D01*
G75*
G02*
X143519500Y-57291999I0J-249999D01*
G01*
X143519500Y-57992001D01*
G75*
G02*
X143269501Y-58242000I-249999J0D01*
G01*
G37*
%TD*%
%TO.C,R7*%
G36*
G01*
X147568499Y-41357500D02*
X148468501Y-41357500D01*
G75*
G02*
X148718500Y-41607499I0J-249999D01*
G01*
X148718500Y-42307501D01*
G75*
G02*
X148468501Y-42557500I-249999J0D01*
G01*
X147568499Y-42557500D01*
G75*
G02*
X147318500Y-42307501I0J249999D01*
G01*
X147318500Y-41607499D01*
G75*
G02*
X147568499Y-41357500I249999J0D01*
G01*
G37*
G36*
G01*
X147568499Y-39357500D02*
X148468501Y-39357500D01*
G75*
G02*
X148718500Y-39607499I0J-249999D01*
G01*
X148718500Y-40307501D01*
G75*
G02*
X148468501Y-40557500I-249999J0D01*
G01*
X147568499Y-40557500D01*
G75*
G02*
X147318500Y-40307501I0J249999D01*
G01*
X147318500Y-39607499D01*
G75*
G02*
X147568499Y-39357500I249999J0D01*
G01*
G37*
%TD*%
%TO.C,R6*%
G36*
G01*
X139837499Y-57042000D02*
X140737501Y-57042000D01*
G75*
G02*
X140987500Y-57291999I0J-249999D01*
G01*
X140987500Y-57992001D01*
G75*
G02*
X140737501Y-58242000I-249999J0D01*
G01*
X139837499Y-58242000D01*
G75*
G02*
X139587500Y-57992001I0J249999D01*
G01*
X139587500Y-57291999D01*
G75*
G02*
X139837499Y-57042000I249999J0D01*
G01*
G37*
G36*
G01*
X139837499Y-55042000D02*
X140737501Y-55042000D01*
G75*
G02*
X140987500Y-55291999I0J-249999D01*
G01*
X140987500Y-55992001D01*
G75*
G02*
X140737501Y-56242000I-249999J0D01*
G01*
X139837499Y-56242000D01*
G75*
G02*
X139587500Y-55992001I0J249999D01*
G01*
X139587500Y-55291999D01*
G75*
G02*
X139837499Y-55042000I249999J0D01*
G01*
G37*
%TD*%
%TO.C,R5*%
G36*
G01*
X122780500Y-62235501D02*
X122780500Y-61335499D01*
G75*
G02*
X123030499Y-61085500I249999J0D01*
G01*
X123730501Y-61085500D01*
G75*
G02*
X123980500Y-61335499I0J-249999D01*
G01*
X123980500Y-62235501D01*
G75*
G02*
X123730501Y-62485500I-249999J0D01*
G01*
X123030499Y-62485500D01*
G75*
G02*
X122780500Y-62235501I0J249999D01*
G01*
G37*
G36*
G01*
X120780500Y-62235501D02*
X120780500Y-61335499D01*
G75*
G02*
X121030499Y-61085500I249999J0D01*
G01*
X121730501Y-61085500D01*
G75*
G02*
X121980500Y-61335499I0J-249999D01*
G01*
X121980500Y-62235501D01*
G75*
G02*
X121730501Y-62485500I-249999J0D01*
G01*
X121030499Y-62485500D01*
G75*
G02*
X120780500Y-62235501I0J249999D01*
G01*
G37*
%TD*%
%TO.C,R4*%
G36*
G01*
X121837500Y-50159499D02*
X121837500Y-51059501D01*
G75*
G02*
X121587501Y-51309500I-249999J0D01*
G01*
X120887499Y-51309500D01*
G75*
G02*
X120637500Y-51059501I0J249999D01*
G01*
X120637500Y-50159499D01*
G75*
G02*
X120887499Y-49909500I249999J0D01*
G01*
X121587501Y-49909500D01*
G75*
G02*
X121837500Y-50159499I0J-249999D01*
G01*
G37*
G36*
G01*
X123837500Y-50159499D02*
X123837500Y-51059501D01*
G75*
G02*
X123587501Y-51309500I-249999J0D01*
G01*
X122887499Y-51309500D01*
G75*
G02*
X122637500Y-51059501I0J249999D01*
G01*
X122637500Y-50159499D01*
G75*
G02*
X122887499Y-49909500I249999J0D01*
G01*
X123587501Y-49909500D01*
G75*
G02*
X123837500Y-50159499I0J-249999D01*
G01*
G37*
%TD*%
%TO.C,R3*%
G36*
G01*
X118192500Y-62235501D02*
X118192500Y-61335499D01*
G75*
G02*
X118442499Y-61085500I249999J0D01*
G01*
X119142501Y-61085500D01*
G75*
G02*
X119392500Y-61335499I0J-249999D01*
G01*
X119392500Y-62235501D01*
G75*
G02*
X119142501Y-62485500I-249999J0D01*
G01*
X118442499Y-62485500D01*
G75*
G02*
X118192500Y-62235501I0J249999D01*
G01*
G37*
G36*
G01*
X116192500Y-62235501D02*
X116192500Y-61335499D01*
G75*
G02*
X116442499Y-61085500I249999J0D01*
G01*
X117142501Y-61085500D01*
G75*
G02*
X117392500Y-61335499I0J-249999D01*
G01*
X117392500Y-62235501D01*
G75*
G02*
X117142501Y-62485500I-249999J0D01*
G01*
X116442499Y-62485500D01*
G75*
G02*
X116192500Y-62235501I0J249999D01*
G01*
G37*
%TD*%
%TO.C,R2*%
G36*
G01*
X116757500Y-50143499D02*
X116757500Y-51043501D01*
G75*
G02*
X116507501Y-51293500I-249999J0D01*
G01*
X115807499Y-51293500D01*
G75*
G02*
X115557500Y-51043501I0J249999D01*
G01*
X115557500Y-50143499D01*
G75*
G02*
X115807499Y-49893500I249999J0D01*
G01*
X116507501Y-49893500D01*
G75*
G02*
X116757500Y-50143499I0J-249999D01*
G01*
G37*
G36*
G01*
X118757500Y-50143499D02*
X118757500Y-51043501D01*
G75*
G02*
X118507501Y-51293500I-249999J0D01*
G01*
X117807499Y-51293500D01*
G75*
G02*
X117557500Y-51043501I0J249999D01*
G01*
X117557500Y-50143499D01*
G75*
G02*
X117807499Y-49893500I249999J0D01*
G01*
X118507501Y-49893500D01*
G75*
G02*
X118757500Y-50143499I0J-249999D01*
G01*
G37*
%TD*%
%TO.C,R1*%
G36*
G01*
X114725500Y-28442499D02*
X114725500Y-29342501D01*
G75*
G02*
X114475501Y-29592500I-249999J0D01*
G01*
X113775499Y-29592500D01*
G75*
G02*
X113525500Y-29342501I0J249999D01*
G01*
X113525500Y-28442499D01*
G75*
G02*
X113775499Y-28192500I249999J0D01*
G01*
X114475501Y-28192500D01*
G75*
G02*
X114725500Y-28442499I0J-249999D01*
G01*
G37*
G36*
G01*
X116725500Y-28442499D02*
X116725500Y-29342501D01*
G75*
G02*
X116475501Y-29592500I-249999J0D01*
G01*
X115775499Y-29592500D01*
G75*
G02*
X115525500Y-29342501I0J249999D01*
G01*
X115525500Y-28442499D01*
G75*
G02*
X115775499Y-28192500I249999J0D01*
G01*
X116475501Y-28192500D01*
G75*
G02*
X116725500Y-28442499I0J-249999D01*
G01*
G37*
%TD*%
D14*
%TO.C,Q6*%
X134953500Y-34226500D03*
X136953500Y-33276500D03*
X136953500Y-35176500D03*
%TD*%
%TO.C,Q5*%
X131080000Y-34226500D03*
X133080000Y-33276500D03*
X133080000Y-35176500D03*
%TD*%
%TO.C,Q4*%
X124550680Y-34925000D03*
X122550680Y-35875000D03*
X122550680Y-33975000D03*
%TD*%
%TO.C,Q3*%
X124550680Y-29667200D03*
X122550680Y-30617200D03*
X122550680Y-28717200D03*
%TD*%
%TO.C,Q2*%
X120151400Y-34891980D03*
X118151400Y-35841980D03*
X118151400Y-33941980D03*
%TD*%
%TO.C,Q1*%
X120151400Y-29667200D03*
X118151400Y-30617200D03*
X118151400Y-28717200D03*
%TD*%
%TO.C,C9*%
G36*
G01*
X163560997Y-49795000D02*
X164861003Y-49795000D01*
G75*
G02*
X165111000Y-50044997I0J-249997D01*
G01*
X165111000Y-50870003D01*
G75*
G02*
X164861003Y-51120000I-249997J0D01*
G01*
X163560997Y-51120000D01*
G75*
G02*
X163311000Y-50870003I0J249997D01*
G01*
X163311000Y-50044997D01*
G75*
G02*
X163560997Y-49795000I249997J0D01*
G01*
G37*
G36*
G01*
X163560997Y-46670000D02*
X164861003Y-46670000D01*
G75*
G02*
X165111000Y-46919997I0J-249997D01*
G01*
X165111000Y-47745003D01*
G75*
G02*
X164861003Y-47995000I-249997J0D01*
G01*
X163560997Y-47995000D01*
G75*
G02*
X163311000Y-47745003I0J249997D01*
G01*
X163311000Y-46919997D01*
G75*
G02*
X163560997Y-46670000I249997J0D01*
G01*
G37*
%TD*%
%TO.C,C6*%
G36*
G01*
X143298000Y-63267000D02*
X142198000Y-63267000D01*
G75*
G02*
X141948000Y-63017000I0J250000D01*
G01*
X141948000Y-60517000D01*
G75*
G02*
X142198000Y-60267000I250000J0D01*
G01*
X143298000Y-60267000D01*
G75*
G02*
X143548000Y-60517000I0J-250000D01*
G01*
X143548000Y-63017000D01*
G75*
G02*
X143298000Y-63267000I-250000J0D01*
G01*
G37*
G36*
G01*
X143298000Y-67667000D02*
X142198000Y-67667000D01*
G75*
G02*
X141948000Y-67417000I0J250000D01*
G01*
X141948000Y-64917000D01*
G75*
G02*
X142198000Y-64667000I250000J0D01*
G01*
X143298000Y-64667000D01*
G75*
G02*
X143548000Y-64917000I0J-250000D01*
G01*
X143548000Y-67417000D01*
G75*
G02*
X143298000Y-67667000I-250000J0D01*
G01*
G37*
%TD*%
%TO.C,C5*%
G36*
G01*
X151532500Y-48937500D02*
X152632500Y-48937500D01*
G75*
G02*
X152882500Y-49187500I0J-250000D01*
G01*
X152882500Y-51687500D01*
G75*
G02*
X152632500Y-51937500I-250000J0D01*
G01*
X151532500Y-51937500D01*
G75*
G02*
X151282500Y-51687500I0J250000D01*
G01*
X151282500Y-49187500D01*
G75*
G02*
X151532500Y-48937500I250000J0D01*
G01*
G37*
G36*
G01*
X151532500Y-44537500D02*
X152632500Y-44537500D01*
G75*
G02*
X152882500Y-44787500I0J-250000D01*
G01*
X152882500Y-47287500D01*
G75*
G02*
X152632500Y-47537500I-250000J0D01*
G01*
X151532500Y-47537500D01*
G75*
G02*
X151282500Y-47287500I0J250000D01*
G01*
X151282500Y-44787500D01*
G75*
G02*
X151532500Y-44537500I250000J0D01*
G01*
G37*
%TD*%
%TO.C,C3*%
G36*
G01*
X143023500Y-48855500D02*
X144123500Y-48855500D01*
G75*
G02*
X144373500Y-49105500I0J-250000D01*
G01*
X144373500Y-51605500D01*
G75*
G02*
X144123500Y-51855500I-250000J0D01*
G01*
X143023500Y-51855500D01*
G75*
G02*
X142773500Y-51605500I0J250000D01*
G01*
X142773500Y-49105500D01*
G75*
G02*
X143023500Y-48855500I250000J0D01*
G01*
G37*
G36*
G01*
X143023500Y-44455500D02*
X144123500Y-44455500D01*
G75*
G02*
X144373500Y-44705500I0J-250000D01*
G01*
X144373500Y-47205500D01*
G75*
G02*
X144123500Y-47455500I-250000J0D01*
G01*
X143023500Y-47455500D01*
G75*
G02*
X142773500Y-47205500I0J250000D01*
G01*
X142773500Y-44705500D01*
G75*
G02*
X143023500Y-44455500I250000J0D01*
G01*
G37*
%TD*%
%TO.C,C2*%
G36*
G01*
X120864500Y-57001500D02*
X120864500Y-55901500D01*
G75*
G02*
X121114500Y-55651500I250000J0D01*
G01*
X123614500Y-55651500D01*
G75*
G02*
X123864500Y-55901500I0J-250000D01*
G01*
X123864500Y-57001500D01*
G75*
G02*
X123614500Y-57251500I-250000J0D01*
G01*
X121114500Y-57251500D01*
G75*
G02*
X120864500Y-57001500I0J250000D01*
G01*
G37*
G36*
G01*
X116464500Y-57001500D02*
X116464500Y-55901500D01*
G75*
G02*
X116714500Y-55651500I250000J0D01*
G01*
X119214500Y-55651500D01*
G75*
G02*
X119464500Y-55901500I0J-250000D01*
G01*
X119464500Y-57001500D01*
G75*
G02*
X119214500Y-57251500I-250000J0D01*
G01*
X116714500Y-57251500D01*
G75*
G02*
X116464500Y-57001500I0J250000D01*
G01*
G37*
%TD*%
%TO.C,C1*%
G36*
G01*
X119505500Y-44217500D02*
X119505500Y-45317500D01*
G75*
G02*
X119255500Y-45567500I-250000J0D01*
G01*
X116755500Y-45567500D01*
G75*
G02*
X116505500Y-45317500I0J250000D01*
G01*
X116505500Y-44217500D01*
G75*
G02*
X116755500Y-43967500I250000J0D01*
G01*
X119255500Y-43967500D01*
G75*
G02*
X119505500Y-44217500I0J-250000D01*
G01*
G37*
G36*
G01*
X123905500Y-44217500D02*
X123905500Y-45317500D01*
G75*
G02*
X123655500Y-45567500I-250000J0D01*
G01*
X121155500Y-45567500D01*
G75*
G02*
X120905500Y-45317500I0J250000D01*
G01*
X120905500Y-44217500D01*
G75*
G02*
X121155500Y-43967500I250000J0D01*
G01*
X123655500Y-43967500D01*
G75*
G02*
X123905500Y-44217500I0J-250000D01*
G01*
G37*
%TD*%
M02*
