%TF.GenerationSoftware,KiCad,Pcbnew,(5.1.8-0-10_14)*%
%TF.CreationDate,2022-04-27T14:32:14-05:00*%
%TF.ProjectId,SAQ_KiCad_one,5341515f-4b69-4436-9164-5f6f6e652e6b,rev?*%
%TF.SameCoordinates,Original*%
%TF.FileFunction,Legend,Bot*%
%TF.FilePolarity,Positive*%
%FSLAX46Y46*%
G04 Gerber Fmt 4.6, Leading zero omitted, Abs format (unit mm)*
G04 Created by KiCad (PCBNEW (5.1.8-0-10_14)) date 2022-04-27 14:32:14*
%MOMM*%
%LPD*%
G01*
G04 APERTURE LIST*
%ADD10C,0.120000*%
%ADD11C,0.150000*%
G04 APERTURE END LIST*
D10*
%TO.C,C10*%
X160629252Y-42524000D02*
X159206748Y-42524000D01*
X160629252Y-44344000D02*
X159206748Y-44344000D01*
%TO.C,C13*%
X158572252Y-37232000D02*
X157149748Y-37232000D01*
X158572252Y-35412000D02*
X157149748Y-35412000D01*
%TO.C,C11*%
X158165748Y-48874000D02*
X159588252Y-48874000D01*
X158165748Y-50694000D02*
X159588252Y-50694000D01*
%TO.C,C9*%
X139975000Y-38214248D02*
X139975000Y-39636752D01*
X138155000Y-38214248D02*
X138155000Y-39636752D01*
%TO.C,C8*%
X137490252Y-28723000D02*
X136067748Y-28723000D01*
X137490252Y-26903000D02*
X136067748Y-26903000D01*
%TO.C,C10*%
D11*
X164624857Y-43791142D02*
X164672476Y-43838761D01*
X164815333Y-43886380D01*
X164910571Y-43886380D01*
X165053428Y-43838761D01*
X165148666Y-43743523D01*
X165196285Y-43648285D01*
X165243904Y-43457809D01*
X165243904Y-43314952D01*
X165196285Y-43124476D01*
X165148666Y-43029238D01*
X165053428Y-42934000D01*
X164910571Y-42886380D01*
X164815333Y-42886380D01*
X164672476Y-42934000D01*
X164624857Y-42981619D01*
X163672476Y-43886380D02*
X164243904Y-43886380D01*
X163958190Y-43886380D02*
X163958190Y-42886380D01*
X164053428Y-43029238D01*
X164148666Y-43124476D01*
X164243904Y-43172095D01*
X163053428Y-42886380D02*
X162958190Y-42886380D01*
X162862952Y-42934000D01*
X162815333Y-42981619D01*
X162767714Y-43076857D01*
X162720095Y-43267333D01*
X162720095Y-43505428D01*
X162767714Y-43695904D01*
X162815333Y-43791142D01*
X162862952Y-43838761D01*
X162958190Y-43886380D01*
X163053428Y-43886380D01*
X163148666Y-43838761D01*
X163196285Y-43791142D01*
X163243904Y-43695904D01*
X163291523Y-43505428D01*
X163291523Y-43267333D01*
X163243904Y-43076857D01*
X163196285Y-42981619D01*
X163148666Y-42934000D01*
X163053428Y-42886380D01*
%TO.C,C13*%
X159138857Y-34829142D02*
X159186476Y-34876761D01*
X159329333Y-34924380D01*
X159424571Y-34924380D01*
X159567428Y-34876761D01*
X159662666Y-34781523D01*
X159710285Y-34686285D01*
X159757904Y-34495809D01*
X159757904Y-34352952D01*
X159710285Y-34162476D01*
X159662666Y-34067238D01*
X159567428Y-33972000D01*
X159424571Y-33924380D01*
X159329333Y-33924380D01*
X159186476Y-33972000D01*
X159138857Y-34019619D01*
X158186476Y-34924380D02*
X158757904Y-34924380D01*
X158472190Y-34924380D02*
X158472190Y-33924380D01*
X158567428Y-34067238D01*
X158662666Y-34162476D01*
X158757904Y-34210095D01*
X157853142Y-33924380D02*
X157234095Y-33924380D01*
X157567428Y-34305333D01*
X157424571Y-34305333D01*
X157329333Y-34352952D01*
X157281714Y-34400571D01*
X157234095Y-34495809D01*
X157234095Y-34733904D01*
X157281714Y-34829142D01*
X157329333Y-34876761D01*
X157424571Y-34924380D01*
X157710285Y-34924380D01*
X157805523Y-34876761D01*
X157853142Y-34829142D01*
%TO.C,C11*%
X163393357Y-50077642D02*
X163440976Y-50125261D01*
X163583833Y-50172880D01*
X163679071Y-50172880D01*
X163821928Y-50125261D01*
X163917166Y-50030023D01*
X163964785Y-49934785D01*
X164012404Y-49744309D01*
X164012404Y-49601452D01*
X163964785Y-49410976D01*
X163917166Y-49315738D01*
X163821928Y-49220500D01*
X163679071Y-49172880D01*
X163583833Y-49172880D01*
X163440976Y-49220500D01*
X163393357Y-49268119D01*
X162440976Y-50172880D02*
X163012404Y-50172880D01*
X162726690Y-50172880D02*
X162726690Y-49172880D01*
X162821928Y-49315738D01*
X162917166Y-49410976D01*
X163012404Y-49458595D01*
X161488595Y-50172880D02*
X162060023Y-50172880D01*
X161774309Y-50172880D02*
X161774309Y-49172880D01*
X161869547Y-49315738D01*
X161964785Y-49410976D01*
X162060023Y-49458595D01*
%TO.C,C9*%
X139422166Y-36146142D02*
X139469785Y-36193761D01*
X139612642Y-36241380D01*
X139707880Y-36241380D01*
X139850738Y-36193761D01*
X139945976Y-36098523D01*
X139993595Y-36003285D01*
X140041214Y-35812809D01*
X140041214Y-35669952D01*
X139993595Y-35479476D01*
X139945976Y-35384238D01*
X139850738Y-35289000D01*
X139707880Y-35241380D01*
X139612642Y-35241380D01*
X139469785Y-35289000D01*
X139422166Y-35336619D01*
X138945976Y-36241380D02*
X138755500Y-36241380D01*
X138660261Y-36193761D01*
X138612642Y-36146142D01*
X138517404Y-36003285D01*
X138469785Y-35812809D01*
X138469785Y-35431857D01*
X138517404Y-35336619D01*
X138565023Y-35289000D01*
X138660261Y-35241380D01*
X138850738Y-35241380D01*
X138945976Y-35289000D01*
X138993595Y-35336619D01*
X139041214Y-35431857D01*
X139041214Y-35669952D01*
X138993595Y-35765190D01*
X138945976Y-35812809D01*
X138850738Y-35860428D01*
X138660261Y-35860428D01*
X138565023Y-35812809D01*
X138517404Y-35765190D01*
X138469785Y-35669952D01*
%TO.C,C8*%
X138342666Y-26320142D02*
X138390285Y-26367761D01*
X138533142Y-26415380D01*
X138628380Y-26415380D01*
X138771238Y-26367761D01*
X138866476Y-26272523D01*
X138914095Y-26177285D01*
X138961714Y-25986809D01*
X138961714Y-25843952D01*
X138914095Y-25653476D01*
X138866476Y-25558238D01*
X138771238Y-25463000D01*
X138628380Y-25415380D01*
X138533142Y-25415380D01*
X138390285Y-25463000D01*
X138342666Y-25510619D01*
X137771238Y-25843952D02*
X137866476Y-25796333D01*
X137914095Y-25748714D01*
X137961714Y-25653476D01*
X137961714Y-25605857D01*
X137914095Y-25510619D01*
X137866476Y-25463000D01*
X137771238Y-25415380D01*
X137580761Y-25415380D01*
X137485523Y-25463000D01*
X137437904Y-25510619D01*
X137390285Y-25605857D01*
X137390285Y-25653476D01*
X137437904Y-25748714D01*
X137485523Y-25796333D01*
X137580761Y-25843952D01*
X137771238Y-25843952D01*
X137866476Y-25891571D01*
X137914095Y-25939190D01*
X137961714Y-26034428D01*
X137961714Y-26224904D01*
X137914095Y-26320142D01*
X137866476Y-26367761D01*
X137771238Y-26415380D01*
X137580761Y-26415380D01*
X137485523Y-26367761D01*
X137437904Y-26320142D01*
X137390285Y-26224904D01*
X137390285Y-26034428D01*
X137437904Y-25939190D01*
X137485523Y-25891571D01*
X137580761Y-25843952D01*
%TD*%
M02*
