%TF.GenerationSoftware,KiCad,Pcbnew,(5.1.8-0-10_14)*%
%TF.CreationDate,2022-02-24T11:49:15-06:00*%
%TF.ProjectId,SAQ_KiCad_one,5341515f-4b69-4436-9164-5f6f6e652e6b,rev?*%
%TF.SameCoordinates,Original*%
%TF.FileFunction,Soldermask,Top*%
%TF.FilePolarity,Negative*%
%FSLAX46Y46*%
G04 Gerber Fmt 4.6, Leading zero omitted, Abs format (unit mm)*
G04 Created by KiCad (PCBNEW (5.1.8-0-10_14)) date 2022-02-24 11:49:15*
%MOMM*%
%LPD*%
G01*
G04 APERTURE LIST*
%ADD10R,1.500000X1.050000*%
%ADD11O,1.500000X1.050000*%
%ADD12C,0.100000*%
%ADD13C,2.250000*%
%ADD14C,2.050000*%
%ADD15C,2.500000*%
%ADD16R,2.500000X2.500000*%
%ADD17C,3.200000*%
%ADD18R,1.000000X1.000000*%
%ADD19R,2.000000X1.500000*%
%ADD20R,2.000000X3.800000*%
%ADD21O,3.500000X2.200000*%
%ADD22O,2.500000X1.500000*%
%ADD23R,2.500000X1.500000*%
%ADD24R,1.300000X1.600000*%
%ADD25R,2.000000X1.600000*%
%ADD26R,0.900000X0.800000*%
%ADD27C,2.800000*%
%ADD28R,2.800000X2.800000*%
%ADD29O,2.200000X2.200000*%
%ADD30R,2.200000X2.200000*%
G04 APERTURE END LIST*
D10*
%TO.C,U7*%
X168338500Y-59626500D03*
D11*
X168338500Y-57086500D03*
X168338500Y-58356500D03*
%TD*%
D12*
%TO.C,JP3*%
G36*
X140413500Y-21475602D02*
G01*
X140438034Y-21475602D01*
X140486865Y-21480412D01*
X140534990Y-21489984D01*
X140581945Y-21504228D01*
X140627278Y-21523005D01*
X140670551Y-21546136D01*
X140711350Y-21573396D01*
X140749279Y-21604524D01*
X140783976Y-21639221D01*
X140815104Y-21677150D01*
X140842364Y-21717949D01*
X140865495Y-21761222D01*
X140884272Y-21806555D01*
X140898516Y-21853510D01*
X140908088Y-21901635D01*
X140912898Y-21950466D01*
X140912898Y-21975000D01*
X140913500Y-21975000D01*
X140913500Y-22475000D01*
X140912898Y-22475000D01*
X140912898Y-22499534D01*
X140908088Y-22548365D01*
X140898516Y-22596490D01*
X140884272Y-22643445D01*
X140865495Y-22688778D01*
X140842364Y-22732051D01*
X140815104Y-22772850D01*
X140783976Y-22810779D01*
X140749279Y-22845476D01*
X140711350Y-22876604D01*
X140670551Y-22903864D01*
X140627278Y-22926995D01*
X140581945Y-22945772D01*
X140534990Y-22960016D01*
X140486865Y-22969588D01*
X140438034Y-22974398D01*
X140413500Y-22974398D01*
X140413500Y-22975000D01*
X139913500Y-22975000D01*
X139913500Y-21475000D01*
X140413500Y-21475000D01*
X140413500Y-21475602D01*
G37*
G36*
X139613500Y-22975000D02*
G01*
X139113500Y-22975000D01*
X139113500Y-22974398D01*
X139088966Y-22974398D01*
X139040135Y-22969588D01*
X138992010Y-22960016D01*
X138945055Y-22945772D01*
X138899722Y-22926995D01*
X138856449Y-22903864D01*
X138815650Y-22876604D01*
X138777721Y-22845476D01*
X138743024Y-22810779D01*
X138711896Y-22772850D01*
X138684636Y-22732051D01*
X138661505Y-22688778D01*
X138642728Y-22643445D01*
X138628484Y-22596490D01*
X138618912Y-22548365D01*
X138614102Y-22499534D01*
X138614102Y-22475000D01*
X138613500Y-22475000D01*
X138613500Y-21975000D01*
X138614102Y-21975000D01*
X138614102Y-21950466D01*
X138618912Y-21901635D01*
X138628484Y-21853510D01*
X138642728Y-21806555D01*
X138661505Y-21761222D01*
X138684636Y-21717949D01*
X138711896Y-21677150D01*
X138743024Y-21639221D01*
X138777721Y-21604524D01*
X138815650Y-21573396D01*
X138856449Y-21546136D01*
X138899722Y-21523005D01*
X138945055Y-21504228D01*
X138992010Y-21489984D01*
X139040135Y-21480412D01*
X139088966Y-21475602D01*
X139113500Y-21475602D01*
X139113500Y-21475000D01*
X139613500Y-21475000D01*
X139613500Y-22975000D01*
G37*
%TD*%
%TO.C,JP2*%
G36*
X140413500Y-24142602D02*
G01*
X140438034Y-24142602D01*
X140486865Y-24147412D01*
X140534990Y-24156984D01*
X140581945Y-24171228D01*
X140627278Y-24190005D01*
X140670551Y-24213136D01*
X140711350Y-24240396D01*
X140749279Y-24271524D01*
X140783976Y-24306221D01*
X140815104Y-24344150D01*
X140842364Y-24384949D01*
X140865495Y-24428222D01*
X140884272Y-24473555D01*
X140898516Y-24520510D01*
X140908088Y-24568635D01*
X140912898Y-24617466D01*
X140912898Y-24642000D01*
X140913500Y-24642000D01*
X140913500Y-25142000D01*
X140912898Y-25142000D01*
X140912898Y-25166534D01*
X140908088Y-25215365D01*
X140898516Y-25263490D01*
X140884272Y-25310445D01*
X140865495Y-25355778D01*
X140842364Y-25399051D01*
X140815104Y-25439850D01*
X140783976Y-25477779D01*
X140749279Y-25512476D01*
X140711350Y-25543604D01*
X140670551Y-25570864D01*
X140627278Y-25593995D01*
X140581945Y-25612772D01*
X140534990Y-25627016D01*
X140486865Y-25636588D01*
X140438034Y-25641398D01*
X140413500Y-25641398D01*
X140413500Y-25642000D01*
X139913500Y-25642000D01*
X139913500Y-24142000D01*
X140413500Y-24142000D01*
X140413500Y-24142602D01*
G37*
G36*
X139613500Y-25642000D02*
G01*
X139113500Y-25642000D01*
X139113500Y-25641398D01*
X139088966Y-25641398D01*
X139040135Y-25636588D01*
X138992010Y-25627016D01*
X138945055Y-25612772D01*
X138899722Y-25593995D01*
X138856449Y-25570864D01*
X138815650Y-25543604D01*
X138777721Y-25512476D01*
X138743024Y-25477779D01*
X138711896Y-25439850D01*
X138684636Y-25399051D01*
X138661505Y-25355778D01*
X138642728Y-25310445D01*
X138628484Y-25263490D01*
X138618912Y-25215365D01*
X138614102Y-25166534D01*
X138614102Y-25142000D01*
X138613500Y-25142000D01*
X138613500Y-24642000D01*
X138614102Y-24642000D01*
X138614102Y-24617466D01*
X138618912Y-24568635D01*
X138628484Y-24520510D01*
X138642728Y-24473555D01*
X138661505Y-24428222D01*
X138684636Y-24384949D01*
X138711896Y-24344150D01*
X138743024Y-24306221D01*
X138777721Y-24271524D01*
X138815650Y-24240396D01*
X138856449Y-24213136D01*
X138899722Y-24190005D01*
X138945055Y-24171228D01*
X138992010Y-24156984D01*
X139040135Y-24147412D01*
X139088966Y-24142602D01*
X139113500Y-24142602D01*
X139113500Y-24142000D01*
X139613500Y-24142000D01*
X139613500Y-25642000D01*
G37*
%TD*%
%TO.C,JP1*%
G36*
X140413500Y-26809602D02*
G01*
X140438034Y-26809602D01*
X140486865Y-26814412D01*
X140534990Y-26823984D01*
X140581945Y-26838228D01*
X140627278Y-26857005D01*
X140670551Y-26880136D01*
X140711350Y-26907396D01*
X140749279Y-26938524D01*
X140783976Y-26973221D01*
X140815104Y-27011150D01*
X140842364Y-27051949D01*
X140865495Y-27095222D01*
X140884272Y-27140555D01*
X140898516Y-27187510D01*
X140908088Y-27235635D01*
X140912898Y-27284466D01*
X140912898Y-27309000D01*
X140913500Y-27309000D01*
X140913500Y-27809000D01*
X140912898Y-27809000D01*
X140912898Y-27833534D01*
X140908088Y-27882365D01*
X140898516Y-27930490D01*
X140884272Y-27977445D01*
X140865495Y-28022778D01*
X140842364Y-28066051D01*
X140815104Y-28106850D01*
X140783976Y-28144779D01*
X140749279Y-28179476D01*
X140711350Y-28210604D01*
X140670551Y-28237864D01*
X140627278Y-28260995D01*
X140581945Y-28279772D01*
X140534990Y-28294016D01*
X140486865Y-28303588D01*
X140438034Y-28308398D01*
X140413500Y-28308398D01*
X140413500Y-28309000D01*
X139913500Y-28309000D01*
X139913500Y-26809000D01*
X140413500Y-26809000D01*
X140413500Y-26809602D01*
G37*
G36*
X139613500Y-28309000D02*
G01*
X139113500Y-28309000D01*
X139113500Y-28308398D01*
X139088966Y-28308398D01*
X139040135Y-28303588D01*
X138992010Y-28294016D01*
X138945055Y-28279772D01*
X138899722Y-28260995D01*
X138856449Y-28237864D01*
X138815650Y-28210604D01*
X138777721Y-28179476D01*
X138743024Y-28144779D01*
X138711896Y-28106850D01*
X138684636Y-28066051D01*
X138661505Y-28022778D01*
X138642728Y-27977445D01*
X138628484Y-27930490D01*
X138618912Y-27882365D01*
X138614102Y-27833534D01*
X138614102Y-27809000D01*
X138613500Y-27809000D01*
X138613500Y-27309000D01*
X138614102Y-27309000D01*
X138614102Y-27284466D01*
X138618912Y-27235635D01*
X138628484Y-27187510D01*
X138642728Y-27140555D01*
X138661505Y-27095222D01*
X138684636Y-27051949D01*
X138711896Y-27011150D01*
X138743024Y-26973221D01*
X138777721Y-26938524D01*
X138815650Y-26907396D01*
X138856449Y-26880136D01*
X138899722Y-26857005D01*
X138945055Y-26838228D01*
X138992010Y-26823984D01*
X139040135Y-26814412D01*
X139088966Y-26809602D01*
X139113500Y-26809602D01*
X139113500Y-26809000D01*
X139613500Y-26809000D01*
X139613500Y-28309000D01*
G37*
%TD*%
D13*
%TO.C,J6*%
X115062000Y-24066500D03*
X115062000Y-18986500D03*
X120142000Y-18986500D03*
X120142000Y-24066500D03*
D14*
X117602000Y-21526500D03*
%TD*%
D13*
%TO.C,J3*%
X160909000Y-29083000D03*
X160909000Y-24003000D03*
X165989000Y-24003000D03*
X165989000Y-29083000D03*
D14*
X163449000Y-26543000D03*
%TD*%
%TO.C,U4*%
G36*
G01*
X143726000Y-33949500D02*
X143726000Y-34249500D01*
G75*
G02*
X143576000Y-34399500I-150000J0D01*
G01*
X141926000Y-34399500D01*
G75*
G02*
X141776000Y-34249500I0J150000D01*
G01*
X141776000Y-33949500D01*
G75*
G02*
X141926000Y-33799500I150000J0D01*
G01*
X143576000Y-33799500D01*
G75*
G02*
X143726000Y-33949500I0J-150000D01*
G01*
G37*
G36*
G01*
X143726000Y-32679500D02*
X143726000Y-32979500D01*
G75*
G02*
X143576000Y-33129500I-150000J0D01*
G01*
X141926000Y-33129500D01*
G75*
G02*
X141776000Y-32979500I0J150000D01*
G01*
X141776000Y-32679500D01*
G75*
G02*
X141926000Y-32529500I150000J0D01*
G01*
X143576000Y-32529500D01*
G75*
G02*
X143726000Y-32679500I0J-150000D01*
G01*
G37*
G36*
G01*
X143726000Y-31409500D02*
X143726000Y-31709500D01*
G75*
G02*
X143576000Y-31859500I-150000J0D01*
G01*
X141926000Y-31859500D01*
G75*
G02*
X141776000Y-31709500I0J150000D01*
G01*
X141776000Y-31409500D01*
G75*
G02*
X141926000Y-31259500I150000J0D01*
G01*
X143576000Y-31259500D01*
G75*
G02*
X143726000Y-31409500I0J-150000D01*
G01*
G37*
G36*
G01*
X143726000Y-30139500D02*
X143726000Y-30439500D01*
G75*
G02*
X143576000Y-30589500I-150000J0D01*
G01*
X141926000Y-30589500D01*
G75*
G02*
X141776000Y-30439500I0J150000D01*
G01*
X141776000Y-30139500D01*
G75*
G02*
X141926000Y-29989500I150000J0D01*
G01*
X143576000Y-29989500D01*
G75*
G02*
X143726000Y-30139500I0J-150000D01*
G01*
G37*
G36*
G01*
X148676000Y-30139500D02*
X148676000Y-30439500D01*
G75*
G02*
X148526000Y-30589500I-150000J0D01*
G01*
X146876000Y-30589500D01*
G75*
G02*
X146726000Y-30439500I0J150000D01*
G01*
X146726000Y-30139500D01*
G75*
G02*
X146876000Y-29989500I150000J0D01*
G01*
X148526000Y-29989500D01*
G75*
G02*
X148676000Y-30139500I0J-150000D01*
G01*
G37*
G36*
G01*
X148676000Y-31409500D02*
X148676000Y-31709500D01*
G75*
G02*
X148526000Y-31859500I-150000J0D01*
G01*
X146876000Y-31859500D01*
G75*
G02*
X146726000Y-31709500I0J150000D01*
G01*
X146726000Y-31409500D01*
G75*
G02*
X146876000Y-31259500I150000J0D01*
G01*
X148526000Y-31259500D01*
G75*
G02*
X148676000Y-31409500I0J-150000D01*
G01*
G37*
G36*
G01*
X148676000Y-32679500D02*
X148676000Y-32979500D01*
G75*
G02*
X148526000Y-33129500I-150000J0D01*
G01*
X146876000Y-33129500D01*
G75*
G02*
X146726000Y-32979500I0J150000D01*
G01*
X146726000Y-32679500D01*
G75*
G02*
X146876000Y-32529500I150000J0D01*
G01*
X148526000Y-32529500D01*
G75*
G02*
X148676000Y-32679500I0J-150000D01*
G01*
G37*
G36*
G01*
X148676000Y-33949500D02*
X148676000Y-34249500D01*
G75*
G02*
X148526000Y-34399500I-150000J0D01*
G01*
X146876000Y-34399500D01*
G75*
G02*
X146726000Y-34249500I0J150000D01*
G01*
X146726000Y-33949500D01*
G75*
G02*
X146876000Y-33799500I150000J0D01*
G01*
X148526000Y-33799500D01*
G75*
G02*
X148676000Y-33949500I0J-150000D01*
G01*
G37*
%TD*%
%TO.C,R11*%
G36*
G01*
X135959001Y-28619500D02*
X135058999Y-28619500D01*
G75*
G02*
X134809000Y-28369501I0J249999D01*
G01*
X134809000Y-27669499D01*
G75*
G02*
X135058999Y-27419500I249999J0D01*
G01*
X135959001Y-27419500D01*
G75*
G02*
X136209000Y-27669499I0J-249999D01*
G01*
X136209000Y-28369501D01*
G75*
G02*
X135959001Y-28619500I-249999J0D01*
G01*
G37*
G36*
G01*
X135959001Y-30619500D02*
X135058999Y-30619500D01*
G75*
G02*
X134809000Y-30369501I0J249999D01*
G01*
X134809000Y-29669499D01*
G75*
G02*
X135058999Y-29419500I249999J0D01*
G01*
X135959001Y-29419500D01*
G75*
G02*
X136209000Y-29669499I0J-249999D01*
G01*
X136209000Y-30369501D01*
G75*
G02*
X135959001Y-30619500I-249999J0D01*
G01*
G37*
%TD*%
D10*
%TO.C,U6*%
X149288500Y-54927500D03*
D11*
X149288500Y-57467500D03*
X149288500Y-56197500D03*
%TD*%
%TO.C,U3*%
G36*
G01*
X146724500Y-19835000D02*
X146724500Y-19535000D01*
G75*
G02*
X146874500Y-19385000I150000J0D01*
G01*
X148524500Y-19385000D01*
G75*
G02*
X148674500Y-19535000I0J-150000D01*
G01*
X148674500Y-19835000D01*
G75*
G02*
X148524500Y-19985000I-150000J0D01*
G01*
X146874500Y-19985000D01*
G75*
G02*
X146724500Y-19835000I0J150000D01*
G01*
G37*
G36*
G01*
X146724500Y-21105000D02*
X146724500Y-20805000D01*
G75*
G02*
X146874500Y-20655000I150000J0D01*
G01*
X148524500Y-20655000D01*
G75*
G02*
X148674500Y-20805000I0J-150000D01*
G01*
X148674500Y-21105000D01*
G75*
G02*
X148524500Y-21255000I-150000J0D01*
G01*
X146874500Y-21255000D01*
G75*
G02*
X146724500Y-21105000I0J150000D01*
G01*
G37*
G36*
G01*
X146724500Y-22375000D02*
X146724500Y-22075000D01*
G75*
G02*
X146874500Y-21925000I150000J0D01*
G01*
X148524500Y-21925000D01*
G75*
G02*
X148674500Y-22075000I0J-150000D01*
G01*
X148674500Y-22375000D01*
G75*
G02*
X148524500Y-22525000I-150000J0D01*
G01*
X146874500Y-22525000D01*
G75*
G02*
X146724500Y-22375000I0J150000D01*
G01*
G37*
G36*
G01*
X146724500Y-23645000D02*
X146724500Y-23345000D01*
G75*
G02*
X146874500Y-23195000I150000J0D01*
G01*
X148524500Y-23195000D01*
G75*
G02*
X148674500Y-23345000I0J-150000D01*
G01*
X148674500Y-23645000D01*
G75*
G02*
X148524500Y-23795000I-150000J0D01*
G01*
X146874500Y-23795000D01*
G75*
G02*
X146724500Y-23645000I0J150000D01*
G01*
G37*
G36*
G01*
X146724500Y-24915000D02*
X146724500Y-24615000D01*
G75*
G02*
X146874500Y-24465000I150000J0D01*
G01*
X148524500Y-24465000D01*
G75*
G02*
X148674500Y-24615000I0J-150000D01*
G01*
X148674500Y-24915000D01*
G75*
G02*
X148524500Y-25065000I-150000J0D01*
G01*
X146874500Y-25065000D01*
G75*
G02*
X146724500Y-24915000I0J150000D01*
G01*
G37*
G36*
G01*
X146724500Y-26185000D02*
X146724500Y-25885000D01*
G75*
G02*
X146874500Y-25735000I150000J0D01*
G01*
X148524500Y-25735000D01*
G75*
G02*
X148674500Y-25885000I0J-150000D01*
G01*
X148674500Y-26185000D01*
G75*
G02*
X148524500Y-26335000I-150000J0D01*
G01*
X146874500Y-26335000D01*
G75*
G02*
X146724500Y-26185000I0J150000D01*
G01*
G37*
G36*
G01*
X146724500Y-27455000D02*
X146724500Y-27155000D01*
G75*
G02*
X146874500Y-27005000I150000J0D01*
G01*
X148524500Y-27005000D01*
G75*
G02*
X148674500Y-27155000I0J-150000D01*
G01*
X148674500Y-27455000D01*
G75*
G02*
X148524500Y-27605000I-150000J0D01*
G01*
X146874500Y-27605000D01*
G75*
G02*
X146724500Y-27455000I0J150000D01*
G01*
G37*
G36*
G01*
X141774500Y-27455000D02*
X141774500Y-27155000D01*
G75*
G02*
X141924500Y-27005000I150000J0D01*
G01*
X143574500Y-27005000D01*
G75*
G02*
X143724500Y-27155000I0J-150000D01*
G01*
X143724500Y-27455000D01*
G75*
G02*
X143574500Y-27605000I-150000J0D01*
G01*
X141924500Y-27605000D01*
G75*
G02*
X141774500Y-27455000I0J150000D01*
G01*
G37*
G36*
G01*
X141774500Y-26185000D02*
X141774500Y-25885000D01*
G75*
G02*
X141924500Y-25735000I150000J0D01*
G01*
X143574500Y-25735000D01*
G75*
G02*
X143724500Y-25885000I0J-150000D01*
G01*
X143724500Y-26185000D01*
G75*
G02*
X143574500Y-26335000I-150000J0D01*
G01*
X141924500Y-26335000D01*
G75*
G02*
X141774500Y-26185000I0J150000D01*
G01*
G37*
G36*
G01*
X141774500Y-24915000D02*
X141774500Y-24615000D01*
G75*
G02*
X141924500Y-24465000I150000J0D01*
G01*
X143574500Y-24465000D01*
G75*
G02*
X143724500Y-24615000I0J-150000D01*
G01*
X143724500Y-24915000D01*
G75*
G02*
X143574500Y-25065000I-150000J0D01*
G01*
X141924500Y-25065000D01*
G75*
G02*
X141774500Y-24915000I0J150000D01*
G01*
G37*
G36*
G01*
X141774500Y-23645000D02*
X141774500Y-23345000D01*
G75*
G02*
X141924500Y-23195000I150000J0D01*
G01*
X143574500Y-23195000D01*
G75*
G02*
X143724500Y-23345000I0J-150000D01*
G01*
X143724500Y-23645000D01*
G75*
G02*
X143574500Y-23795000I-150000J0D01*
G01*
X141924500Y-23795000D01*
G75*
G02*
X141774500Y-23645000I0J150000D01*
G01*
G37*
G36*
G01*
X141774500Y-22375000D02*
X141774500Y-22075000D01*
G75*
G02*
X141924500Y-21925000I150000J0D01*
G01*
X143574500Y-21925000D01*
G75*
G02*
X143724500Y-22075000I0J-150000D01*
G01*
X143724500Y-22375000D01*
G75*
G02*
X143574500Y-22525000I-150000J0D01*
G01*
X141924500Y-22525000D01*
G75*
G02*
X141774500Y-22375000I0J150000D01*
G01*
G37*
G36*
G01*
X141774500Y-21105000D02*
X141774500Y-20805000D01*
G75*
G02*
X141924500Y-20655000I150000J0D01*
G01*
X143574500Y-20655000D01*
G75*
G02*
X143724500Y-20805000I0J-150000D01*
G01*
X143724500Y-21105000D01*
G75*
G02*
X143574500Y-21255000I-150000J0D01*
G01*
X141924500Y-21255000D01*
G75*
G02*
X141774500Y-21105000I0J150000D01*
G01*
G37*
G36*
G01*
X141774500Y-19835000D02*
X141774500Y-19535000D01*
G75*
G02*
X141924500Y-19385000I150000J0D01*
G01*
X143574500Y-19385000D01*
G75*
G02*
X143724500Y-19535000I0J-150000D01*
G01*
X143724500Y-19835000D01*
G75*
G02*
X143574500Y-19985000I-150000J0D01*
G01*
X141924500Y-19985000D01*
G75*
G02*
X141774500Y-19835000I0J150000D01*
G01*
G37*
%TD*%
D15*
%TO.C,J5*%
X160685500Y-64516000D03*
X155685500Y-64516000D03*
D16*
X150685500Y-64516000D03*
%TD*%
%TO.C,C17*%
G36*
G01*
X145150000Y-16875997D02*
X145150000Y-18176003D01*
G75*
G02*
X144900003Y-18426000I-249997J0D01*
G01*
X144074997Y-18426000D01*
G75*
G02*
X143825000Y-18176003I0J249997D01*
G01*
X143825000Y-16875997D01*
G75*
G02*
X144074997Y-16626000I249997J0D01*
G01*
X144900003Y-16626000D01*
G75*
G02*
X145150000Y-16875997I0J-249997D01*
G01*
G37*
G36*
G01*
X148275000Y-16875997D02*
X148275000Y-18176003D01*
G75*
G02*
X148025003Y-18426000I-249997J0D01*
G01*
X147199997Y-18426000D01*
G75*
G02*
X146950000Y-18176003I0J249997D01*
G01*
X146950000Y-16875997D01*
G75*
G02*
X147199997Y-16626000I249997J0D01*
G01*
X148025003Y-16626000D01*
G75*
G02*
X148275000Y-16875997I0J-249997D01*
G01*
G37*
%TD*%
%TO.C,C16*%
G36*
G01*
X162856000Y-54989500D02*
X161756000Y-54989500D01*
G75*
G02*
X161506000Y-54739500I0J250000D01*
G01*
X161506000Y-52239500D01*
G75*
G02*
X161756000Y-51989500I250000J0D01*
G01*
X162856000Y-51989500D01*
G75*
G02*
X163106000Y-52239500I0J-250000D01*
G01*
X163106000Y-54739500D01*
G75*
G02*
X162856000Y-54989500I-250000J0D01*
G01*
G37*
G36*
G01*
X162856000Y-59389500D02*
X161756000Y-59389500D01*
G75*
G02*
X161506000Y-59139500I0J250000D01*
G01*
X161506000Y-56639500D01*
G75*
G02*
X161756000Y-56389500I250000J0D01*
G01*
X162856000Y-56389500D01*
G75*
G02*
X163106000Y-56639500I0J-250000D01*
G01*
X163106000Y-59139500D01*
G75*
G02*
X162856000Y-59389500I-250000J0D01*
G01*
G37*
%TD*%
%TO.C,C7*%
G36*
G01*
X155215500Y-56389500D02*
X156315500Y-56389500D01*
G75*
G02*
X156565500Y-56639500I0J-250000D01*
G01*
X156565500Y-59139500D01*
G75*
G02*
X156315500Y-59389500I-250000J0D01*
G01*
X155215500Y-59389500D01*
G75*
G02*
X154965500Y-59139500I0J250000D01*
G01*
X154965500Y-56639500D01*
G75*
G02*
X155215500Y-56389500I250000J0D01*
G01*
G37*
G36*
G01*
X155215500Y-51989500D02*
X156315500Y-51989500D01*
G75*
G02*
X156565500Y-52239500I0J-250000D01*
G01*
X156565500Y-54739500D01*
G75*
G02*
X156315500Y-54989500I-250000J0D01*
G01*
X155215500Y-54989500D01*
G75*
G02*
X154965500Y-54739500I0J250000D01*
G01*
X154965500Y-52239500D01*
G75*
G02*
X155215500Y-51989500I250000J0D01*
G01*
G37*
%TD*%
%TO.C,C11*%
G36*
G01*
X166930500Y-38846997D02*
X166930500Y-40147003D01*
G75*
G02*
X166680503Y-40397000I-249997J0D01*
G01*
X165855497Y-40397000D01*
G75*
G02*
X165605500Y-40147003I0J249997D01*
G01*
X165605500Y-38846997D01*
G75*
G02*
X165855497Y-38597000I249997J0D01*
G01*
X166680503Y-38597000D01*
G75*
G02*
X166930500Y-38846997I0J-249997D01*
G01*
G37*
G36*
G01*
X170055500Y-38846997D02*
X170055500Y-40147003D01*
G75*
G02*
X169805503Y-40397000I-249997J0D01*
G01*
X168980497Y-40397000D01*
G75*
G02*
X168730500Y-40147003I0J249997D01*
G01*
X168730500Y-38846997D01*
G75*
G02*
X168980497Y-38597000I249997J0D01*
G01*
X169805503Y-38597000D01*
G75*
G02*
X170055500Y-38846997I0J-249997D01*
G01*
G37*
%TD*%
D17*
%TO.C,H5*%
X107500000Y-18500000D03*
%TD*%
%TO.C,H4*%
X167500000Y-18500000D03*
%TD*%
%TO.C,H3*%
X167500000Y-65500000D03*
%TD*%
%TO.C,H2*%
X107500000Y-65500000D03*
%TD*%
D18*
%TO.C,TP9*%
X127635000Y-35941000D03*
%TD*%
%TO.C,TP8*%
X145224500Y-39941500D03*
%TD*%
%TO.C,TP6*%
X141795500Y-39941500D03*
%TD*%
%TO.C,TP5*%
X164338000Y-42608500D03*
%TD*%
%TO.C,TP4*%
X159766000Y-34417000D03*
%TD*%
%TO.C,TP3*%
X155384500Y-32321500D03*
%TD*%
%TO.C,TP2*%
X153225500Y-27051000D03*
%TD*%
%TO.C,TP1*%
X139763500Y-19494500D03*
%TD*%
D19*
%TO.C,U2*%
X126580500Y-56183500D03*
X126580500Y-60783500D03*
X126580500Y-58483500D03*
D20*
X132880500Y-58483500D03*
%TD*%
D19*
%TO.C,U1*%
X126841720Y-44761120D03*
X126841720Y-49361120D03*
X126841720Y-47061120D03*
D20*
X133141720Y-47061120D03*
%TD*%
D21*
%TO.C,SW2*%
X168021000Y-44446000D03*
X168021000Y-52646000D03*
D22*
X168021000Y-46546000D03*
X168021000Y-48546000D03*
D23*
X168021000Y-50546000D03*
%TD*%
D21*
%TO.C,SW1*%
X129286000Y-22665500D03*
X129286000Y-30865500D03*
D22*
X129286000Y-24765500D03*
X129286000Y-26765500D03*
D23*
X129286000Y-28765500D03*
%TD*%
D24*
%TO.C,RV1*%
X151086500Y-39888500D03*
D25*
X152336500Y-42788500D03*
D24*
X153586500Y-39888500D03*
%TD*%
%TO.C,R16*%
G36*
G01*
X150235499Y-31769000D02*
X151135501Y-31769000D01*
G75*
G02*
X151385500Y-32018999I0J-249999D01*
G01*
X151385500Y-32719001D01*
G75*
G02*
X151135501Y-32969000I-249999J0D01*
G01*
X150235499Y-32969000D01*
G75*
G02*
X149985500Y-32719001I0J249999D01*
G01*
X149985500Y-32018999D01*
G75*
G02*
X150235499Y-31769000I249999J0D01*
G01*
G37*
G36*
G01*
X150235499Y-29769000D02*
X151135501Y-29769000D01*
G75*
G02*
X151385500Y-30018999I0J-249999D01*
G01*
X151385500Y-30719001D01*
G75*
G02*
X151135501Y-30969000I-249999J0D01*
G01*
X150235499Y-30969000D01*
G75*
G02*
X149985500Y-30719001I0J249999D01*
G01*
X149985500Y-30018999D01*
G75*
G02*
X150235499Y-29769000I249999J0D01*
G01*
G37*
%TD*%
%TO.C,R13*%
G36*
G01*
X150235499Y-26435000D02*
X151135501Y-26435000D01*
G75*
G02*
X151385500Y-26684999I0J-249999D01*
G01*
X151385500Y-27385001D01*
G75*
G02*
X151135501Y-27635000I-249999J0D01*
G01*
X150235499Y-27635000D01*
G75*
G02*
X149985500Y-27385001I0J249999D01*
G01*
X149985500Y-26684999D01*
G75*
G02*
X150235499Y-26435000I249999J0D01*
G01*
G37*
G36*
G01*
X150235499Y-24435000D02*
X151135501Y-24435000D01*
G75*
G02*
X151385500Y-24684999I0J-249999D01*
G01*
X151385500Y-25385001D01*
G75*
G02*
X151135501Y-25635000I-249999J0D01*
G01*
X150235499Y-25635000D01*
G75*
G02*
X149985500Y-25385001I0J249999D01*
G01*
X149985500Y-24684999D01*
G75*
G02*
X150235499Y-24435000I249999J0D01*
G01*
G37*
%TD*%
%TO.C,R10*%
G36*
G01*
X132645999Y-29403500D02*
X133546001Y-29403500D01*
G75*
G02*
X133796000Y-29653499I0J-249999D01*
G01*
X133796000Y-30353501D01*
G75*
G02*
X133546001Y-30603500I-249999J0D01*
G01*
X132645999Y-30603500D01*
G75*
G02*
X132396000Y-30353501I0J249999D01*
G01*
X132396000Y-29653499D01*
G75*
G02*
X132645999Y-29403500I249999J0D01*
G01*
G37*
G36*
G01*
X132645999Y-27403500D02*
X133546001Y-27403500D01*
G75*
G02*
X133796000Y-27653499I0J-249999D01*
G01*
X133796000Y-28353501D01*
G75*
G02*
X133546001Y-28603500I-249999J0D01*
G01*
X132645999Y-28603500D01*
G75*
G02*
X132396000Y-28353501I0J249999D01*
G01*
X132396000Y-27653499D01*
G75*
G02*
X132645999Y-27403500I249999J0D01*
G01*
G37*
%TD*%
%TO.C,R9*%
G36*
G01*
X144901499Y-57042000D02*
X145801501Y-57042000D01*
G75*
G02*
X146051500Y-57291999I0J-249999D01*
G01*
X146051500Y-57992001D01*
G75*
G02*
X145801501Y-58242000I-249999J0D01*
G01*
X144901499Y-58242000D01*
G75*
G02*
X144651500Y-57992001I0J249999D01*
G01*
X144651500Y-57291999D01*
G75*
G02*
X144901499Y-57042000I249999J0D01*
G01*
G37*
G36*
G01*
X144901499Y-55042000D02*
X145801501Y-55042000D01*
G75*
G02*
X146051500Y-55291999I0J-249999D01*
G01*
X146051500Y-55992001D01*
G75*
G02*
X145801501Y-56242000I-249999J0D01*
G01*
X144901499Y-56242000D01*
G75*
G02*
X144651500Y-55992001I0J249999D01*
G01*
X144651500Y-55291999D01*
G75*
G02*
X144901499Y-55042000I249999J0D01*
G01*
G37*
%TD*%
%TO.C,R8*%
G36*
G01*
X143269501Y-56242000D02*
X142369499Y-56242000D01*
G75*
G02*
X142119500Y-55992001I0J249999D01*
G01*
X142119500Y-55291999D01*
G75*
G02*
X142369499Y-55042000I249999J0D01*
G01*
X143269501Y-55042000D01*
G75*
G02*
X143519500Y-55291999I0J-249999D01*
G01*
X143519500Y-55992001D01*
G75*
G02*
X143269501Y-56242000I-249999J0D01*
G01*
G37*
G36*
G01*
X143269501Y-58242000D02*
X142369499Y-58242000D01*
G75*
G02*
X142119500Y-57992001I0J249999D01*
G01*
X142119500Y-57291999D01*
G75*
G02*
X142369499Y-57042000I249999J0D01*
G01*
X143269501Y-57042000D01*
G75*
G02*
X143519500Y-57291999I0J-249999D01*
G01*
X143519500Y-57992001D01*
G75*
G02*
X143269501Y-58242000I-249999J0D01*
G01*
G37*
%TD*%
%TO.C,R7*%
G36*
G01*
X147568499Y-41357500D02*
X148468501Y-41357500D01*
G75*
G02*
X148718500Y-41607499I0J-249999D01*
G01*
X148718500Y-42307501D01*
G75*
G02*
X148468501Y-42557500I-249999J0D01*
G01*
X147568499Y-42557500D01*
G75*
G02*
X147318500Y-42307501I0J249999D01*
G01*
X147318500Y-41607499D01*
G75*
G02*
X147568499Y-41357500I249999J0D01*
G01*
G37*
G36*
G01*
X147568499Y-39357500D02*
X148468501Y-39357500D01*
G75*
G02*
X148718500Y-39607499I0J-249999D01*
G01*
X148718500Y-40307501D01*
G75*
G02*
X148468501Y-40557500I-249999J0D01*
G01*
X147568499Y-40557500D01*
G75*
G02*
X147318500Y-40307501I0J249999D01*
G01*
X147318500Y-39607499D01*
G75*
G02*
X147568499Y-39357500I249999J0D01*
G01*
G37*
%TD*%
%TO.C,R6*%
G36*
G01*
X139837499Y-57042000D02*
X140737501Y-57042000D01*
G75*
G02*
X140987500Y-57291999I0J-249999D01*
G01*
X140987500Y-57992001D01*
G75*
G02*
X140737501Y-58242000I-249999J0D01*
G01*
X139837499Y-58242000D01*
G75*
G02*
X139587500Y-57992001I0J249999D01*
G01*
X139587500Y-57291999D01*
G75*
G02*
X139837499Y-57042000I249999J0D01*
G01*
G37*
G36*
G01*
X139837499Y-55042000D02*
X140737501Y-55042000D01*
G75*
G02*
X140987500Y-55291999I0J-249999D01*
G01*
X140987500Y-55992001D01*
G75*
G02*
X140737501Y-56242000I-249999J0D01*
G01*
X139837499Y-56242000D01*
G75*
G02*
X139587500Y-55992001I0J249999D01*
G01*
X139587500Y-55291999D01*
G75*
G02*
X139837499Y-55042000I249999J0D01*
G01*
G37*
%TD*%
%TO.C,R5*%
G36*
G01*
X122780500Y-62235501D02*
X122780500Y-61335499D01*
G75*
G02*
X123030499Y-61085500I249999J0D01*
G01*
X123730501Y-61085500D01*
G75*
G02*
X123980500Y-61335499I0J-249999D01*
G01*
X123980500Y-62235501D01*
G75*
G02*
X123730501Y-62485500I-249999J0D01*
G01*
X123030499Y-62485500D01*
G75*
G02*
X122780500Y-62235501I0J249999D01*
G01*
G37*
G36*
G01*
X120780500Y-62235501D02*
X120780500Y-61335499D01*
G75*
G02*
X121030499Y-61085500I249999J0D01*
G01*
X121730501Y-61085500D01*
G75*
G02*
X121980500Y-61335499I0J-249999D01*
G01*
X121980500Y-62235501D01*
G75*
G02*
X121730501Y-62485500I-249999J0D01*
G01*
X121030499Y-62485500D01*
G75*
G02*
X120780500Y-62235501I0J249999D01*
G01*
G37*
%TD*%
%TO.C,R4*%
G36*
G01*
X121837500Y-50159499D02*
X121837500Y-51059501D01*
G75*
G02*
X121587501Y-51309500I-249999J0D01*
G01*
X120887499Y-51309500D01*
G75*
G02*
X120637500Y-51059501I0J249999D01*
G01*
X120637500Y-50159499D01*
G75*
G02*
X120887499Y-49909500I249999J0D01*
G01*
X121587501Y-49909500D01*
G75*
G02*
X121837500Y-50159499I0J-249999D01*
G01*
G37*
G36*
G01*
X123837500Y-50159499D02*
X123837500Y-51059501D01*
G75*
G02*
X123587501Y-51309500I-249999J0D01*
G01*
X122887499Y-51309500D01*
G75*
G02*
X122637500Y-51059501I0J249999D01*
G01*
X122637500Y-50159499D01*
G75*
G02*
X122887499Y-49909500I249999J0D01*
G01*
X123587501Y-49909500D01*
G75*
G02*
X123837500Y-50159499I0J-249999D01*
G01*
G37*
%TD*%
%TO.C,R3*%
G36*
G01*
X118192500Y-62235501D02*
X118192500Y-61335499D01*
G75*
G02*
X118442499Y-61085500I249999J0D01*
G01*
X119142501Y-61085500D01*
G75*
G02*
X119392500Y-61335499I0J-249999D01*
G01*
X119392500Y-62235501D01*
G75*
G02*
X119142501Y-62485500I-249999J0D01*
G01*
X118442499Y-62485500D01*
G75*
G02*
X118192500Y-62235501I0J249999D01*
G01*
G37*
G36*
G01*
X116192500Y-62235501D02*
X116192500Y-61335499D01*
G75*
G02*
X116442499Y-61085500I249999J0D01*
G01*
X117142501Y-61085500D01*
G75*
G02*
X117392500Y-61335499I0J-249999D01*
G01*
X117392500Y-62235501D01*
G75*
G02*
X117142501Y-62485500I-249999J0D01*
G01*
X116442499Y-62485500D01*
G75*
G02*
X116192500Y-62235501I0J249999D01*
G01*
G37*
%TD*%
%TO.C,R2*%
G36*
G01*
X116757500Y-50143499D02*
X116757500Y-51043501D01*
G75*
G02*
X116507501Y-51293500I-249999J0D01*
G01*
X115807499Y-51293500D01*
G75*
G02*
X115557500Y-51043501I0J249999D01*
G01*
X115557500Y-50143499D01*
G75*
G02*
X115807499Y-49893500I249999J0D01*
G01*
X116507501Y-49893500D01*
G75*
G02*
X116757500Y-50143499I0J-249999D01*
G01*
G37*
G36*
G01*
X118757500Y-50143499D02*
X118757500Y-51043501D01*
G75*
G02*
X118507501Y-51293500I-249999J0D01*
G01*
X117807499Y-51293500D01*
G75*
G02*
X117557500Y-51043501I0J249999D01*
G01*
X117557500Y-50143499D01*
G75*
G02*
X117807499Y-49893500I249999J0D01*
G01*
X118507501Y-49893500D01*
G75*
G02*
X118757500Y-50143499I0J-249999D01*
G01*
G37*
%TD*%
%TO.C,R1*%
G36*
G01*
X114725500Y-28442499D02*
X114725500Y-29342501D01*
G75*
G02*
X114475501Y-29592500I-249999J0D01*
G01*
X113775499Y-29592500D01*
G75*
G02*
X113525500Y-29342501I0J249999D01*
G01*
X113525500Y-28442499D01*
G75*
G02*
X113775499Y-28192500I249999J0D01*
G01*
X114475501Y-28192500D01*
G75*
G02*
X114725500Y-28442499I0J-249999D01*
G01*
G37*
G36*
G01*
X116725500Y-28442499D02*
X116725500Y-29342501D01*
G75*
G02*
X116475501Y-29592500I-249999J0D01*
G01*
X115775499Y-29592500D01*
G75*
G02*
X115525500Y-29342501I0J249999D01*
G01*
X115525500Y-28442499D01*
G75*
G02*
X115775499Y-28192500I249999J0D01*
G01*
X116475501Y-28192500D01*
G75*
G02*
X116725500Y-28442499I0J-249999D01*
G01*
G37*
%TD*%
D26*
%TO.C,Q6*%
X134953500Y-34226500D03*
X136953500Y-33276500D03*
X136953500Y-35176500D03*
%TD*%
%TO.C,Q5*%
X131080000Y-34226500D03*
X133080000Y-33276500D03*
X133080000Y-35176500D03*
%TD*%
%TO.C,Q4*%
X124550680Y-34925000D03*
X122550680Y-35875000D03*
X122550680Y-33975000D03*
%TD*%
%TO.C,Q3*%
X124550680Y-29667200D03*
X122550680Y-30617200D03*
X122550680Y-28717200D03*
%TD*%
%TO.C,Q2*%
X120151400Y-34891980D03*
X118151400Y-35841980D03*
X118151400Y-33941980D03*
%TD*%
%TO.C,Q1*%
X120151400Y-29667200D03*
X118151400Y-30617200D03*
X118151400Y-28717200D03*
%TD*%
D15*
%TO.C,J2*%
X109156500Y-58102500D03*
X109156500Y-53102500D03*
D16*
X109156500Y-48102500D03*
%TD*%
D27*
%TO.C,J1*%
X111696500Y-34560500D03*
D28*
X111696500Y-39560500D03*
%TD*%
D29*
%TO.C,D4*%
X132270500Y-66357500D03*
D30*
X122110500Y-66357500D03*
%TD*%
D29*
%TO.C,D3*%
X122999500Y-39687500D03*
D30*
X133159500Y-39687500D03*
%TD*%
D29*
%TO.C,D2*%
X137350500Y-56197500D03*
D30*
X137350500Y-66357500D03*
%TD*%
D29*
%TO.C,D1*%
X138239500Y-39687500D03*
D30*
X138239500Y-49847500D03*
%TD*%
%TO.C,C9*%
G36*
G01*
X163560997Y-49795000D02*
X164861003Y-49795000D01*
G75*
G02*
X165111000Y-50044997I0J-249997D01*
G01*
X165111000Y-50870003D01*
G75*
G02*
X164861003Y-51120000I-249997J0D01*
G01*
X163560997Y-51120000D01*
G75*
G02*
X163311000Y-50870003I0J249997D01*
G01*
X163311000Y-50044997D01*
G75*
G02*
X163560997Y-49795000I249997J0D01*
G01*
G37*
G36*
G01*
X163560997Y-46670000D02*
X164861003Y-46670000D01*
G75*
G02*
X165111000Y-46919997I0J-249997D01*
G01*
X165111000Y-47745003D01*
G75*
G02*
X164861003Y-47995000I-249997J0D01*
G01*
X163560997Y-47995000D01*
G75*
G02*
X163311000Y-47745003I0J249997D01*
G01*
X163311000Y-46919997D01*
G75*
G02*
X163560997Y-46670000I249997J0D01*
G01*
G37*
%TD*%
%TO.C,C6*%
G36*
G01*
X143298000Y-63267000D02*
X142198000Y-63267000D01*
G75*
G02*
X141948000Y-63017000I0J250000D01*
G01*
X141948000Y-60517000D01*
G75*
G02*
X142198000Y-60267000I250000J0D01*
G01*
X143298000Y-60267000D01*
G75*
G02*
X143548000Y-60517000I0J-250000D01*
G01*
X143548000Y-63017000D01*
G75*
G02*
X143298000Y-63267000I-250000J0D01*
G01*
G37*
G36*
G01*
X143298000Y-67667000D02*
X142198000Y-67667000D01*
G75*
G02*
X141948000Y-67417000I0J250000D01*
G01*
X141948000Y-64917000D01*
G75*
G02*
X142198000Y-64667000I250000J0D01*
G01*
X143298000Y-64667000D01*
G75*
G02*
X143548000Y-64917000I0J-250000D01*
G01*
X143548000Y-67417000D01*
G75*
G02*
X143298000Y-67667000I-250000J0D01*
G01*
G37*
%TD*%
%TO.C,C5*%
G36*
G01*
X151532500Y-48937500D02*
X152632500Y-48937500D01*
G75*
G02*
X152882500Y-49187500I0J-250000D01*
G01*
X152882500Y-51687500D01*
G75*
G02*
X152632500Y-51937500I-250000J0D01*
G01*
X151532500Y-51937500D01*
G75*
G02*
X151282500Y-51687500I0J250000D01*
G01*
X151282500Y-49187500D01*
G75*
G02*
X151532500Y-48937500I250000J0D01*
G01*
G37*
G36*
G01*
X151532500Y-44537500D02*
X152632500Y-44537500D01*
G75*
G02*
X152882500Y-44787500I0J-250000D01*
G01*
X152882500Y-47287500D01*
G75*
G02*
X152632500Y-47537500I-250000J0D01*
G01*
X151532500Y-47537500D01*
G75*
G02*
X151282500Y-47287500I0J250000D01*
G01*
X151282500Y-44787500D01*
G75*
G02*
X151532500Y-44537500I250000J0D01*
G01*
G37*
%TD*%
%TO.C,C3*%
G36*
G01*
X143023500Y-48855500D02*
X144123500Y-48855500D01*
G75*
G02*
X144373500Y-49105500I0J-250000D01*
G01*
X144373500Y-51605500D01*
G75*
G02*
X144123500Y-51855500I-250000J0D01*
G01*
X143023500Y-51855500D01*
G75*
G02*
X142773500Y-51605500I0J250000D01*
G01*
X142773500Y-49105500D01*
G75*
G02*
X143023500Y-48855500I250000J0D01*
G01*
G37*
G36*
G01*
X143023500Y-44455500D02*
X144123500Y-44455500D01*
G75*
G02*
X144373500Y-44705500I0J-250000D01*
G01*
X144373500Y-47205500D01*
G75*
G02*
X144123500Y-47455500I-250000J0D01*
G01*
X143023500Y-47455500D01*
G75*
G02*
X142773500Y-47205500I0J250000D01*
G01*
X142773500Y-44705500D01*
G75*
G02*
X143023500Y-44455500I250000J0D01*
G01*
G37*
%TD*%
%TO.C,C2*%
G36*
G01*
X120864500Y-57001500D02*
X120864500Y-55901500D01*
G75*
G02*
X121114500Y-55651500I250000J0D01*
G01*
X123614500Y-55651500D01*
G75*
G02*
X123864500Y-55901500I0J-250000D01*
G01*
X123864500Y-57001500D01*
G75*
G02*
X123614500Y-57251500I-250000J0D01*
G01*
X121114500Y-57251500D01*
G75*
G02*
X120864500Y-57001500I0J250000D01*
G01*
G37*
G36*
G01*
X116464500Y-57001500D02*
X116464500Y-55901500D01*
G75*
G02*
X116714500Y-55651500I250000J0D01*
G01*
X119214500Y-55651500D01*
G75*
G02*
X119464500Y-55901500I0J-250000D01*
G01*
X119464500Y-57001500D01*
G75*
G02*
X119214500Y-57251500I-250000J0D01*
G01*
X116714500Y-57251500D01*
G75*
G02*
X116464500Y-57001500I0J250000D01*
G01*
G37*
%TD*%
%TO.C,C1*%
G36*
G01*
X119505500Y-44217500D02*
X119505500Y-45317500D01*
G75*
G02*
X119255500Y-45567500I-250000J0D01*
G01*
X116755500Y-45567500D01*
G75*
G02*
X116505500Y-45317500I0J250000D01*
G01*
X116505500Y-44217500D01*
G75*
G02*
X116755500Y-43967500I250000J0D01*
G01*
X119255500Y-43967500D01*
G75*
G02*
X119505500Y-44217500I0J-250000D01*
G01*
G37*
G36*
G01*
X123905500Y-44217500D02*
X123905500Y-45317500D01*
G75*
G02*
X123655500Y-45567500I-250000J0D01*
G01*
X121155500Y-45567500D01*
G75*
G02*
X120905500Y-45317500I0J250000D01*
G01*
X120905500Y-44217500D01*
G75*
G02*
X121155500Y-43967500I250000J0D01*
G01*
X123655500Y-43967500D01*
G75*
G02*
X123905500Y-44217500I0J-250000D01*
G01*
G37*
%TD*%
M02*
