%TF.GenerationSoftware,KiCad,Pcbnew,(5.1.8-0-10_14)*%
%TF.CreationDate,2022-04-27T14:32:14-05:00*%
%TF.ProjectId,SAQ_KiCad_one,5341515f-4b69-4436-9164-5f6f6e652e6b,rev?*%
%TF.SameCoordinates,Original*%
%TF.FileFunction,Paste,Top*%
%TF.FilePolarity,Positive*%
%FSLAX46Y46*%
G04 Gerber Fmt 4.6, Leading zero omitted, Abs format (unit mm)*
G04 Created by KiCad (PCBNEW (5.1.8-0-10_14)) date 2022-04-27 14:32:14*
%MOMM*%
%LPD*%
G01*
G04 APERTURE LIST*
%ADD10R,1.600000X1.300000*%
%ADD11R,1.600000X2.000000*%
%ADD12R,1.300000X1.600000*%
%ADD13R,2.000000X1.600000*%
%ADD14R,0.900000X0.800000*%
G04 APERTURE END LIST*
%TO.C,R23*%
G36*
G01*
X157842000Y-26600999D02*
X157842000Y-27501001D01*
G75*
G02*
X157592001Y-27751000I-249999J0D01*
G01*
X156891999Y-27751000D01*
G75*
G02*
X156642000Y-27501001I0J249999D01*
G01*
X156642000Y-26600999D01*
G75*
G02*
X156891999Y-26351000I249999J0D01*
G01*
X157592001Y-26351000D01*
G75*
G02*
X157842000Y-26600999I0J-249999D01*
G01*
G37*
G36*
G01*
X159842000Y-26600999D02*
X159842000Y-27501001D01*
G75*
G02*
X159592001Y-27751000I-249999J0D01*
G01*
X158891999Y-27751000D01*
G75*
G02*
X158642000Y-27501001I0J249999D01*
G01*
X158642000Y-26600999D01*
G75*
G02*
X158891999Y-26351000I249999J0D01*
G01*
X159592001Y-26351000D01*
G75*
G02*
X159842000Y-26600999I0J-249999D01*
G01*
G37*
%TD*%
%TO.C,R22*%
G36*
G01*
X150793500Y-37205499D02*
X150793500Y-38105501D01*
G75*
G02*
X150543501Y-38355500I-249999J0D01*
G01*
X149843499Y-38355500D01*
G75*
G02*
X149593500Y-38105501I0J249999D01*
G01*
X149593500Y-37205499D01*
G75*
G02*
X149843499Y-36955500I249999J0D01*
G01*
X150543501Y-36955500D01*
G75*
G02*
X150793500Y-37205499I0J-249999D01*
G01*
G37*
G36*
G01*
X152793500Y-37205499D02*
X152793500Y-38105501D01*
G75*
G02*
X152543501Y-38355500I-249999J0D01*
G01*
X151843499Y-38355500D01*
G75*
G02*
X151593500Y-38105501I0J249999D01*
G01*
X151593500Y-37205499D01*
G75*
G02*
X151843499Y-36955500I249999J0D01*
G01*
X152543501Y-36955500D01*
G75*
G02*
X152793500Y-37205499I0J-249999D01*
G01*
G37*
%TD*%
%TO.C,R21*%
G36*
G01*
X164001500Y-38538999D02*
X164001500Y-39439001D01*
G75*
G02*
X163751501Y-39689000I-249999J0D01*
G01*
X163051499Y-39689000D01*
G75*
G02*
X162801500Y-39439001I0J249999D01*
G01*
X162801500Y-38538999D01*
G75*
G02*
X163051499Y-38289000I249999J0D01*
G01*
X163751501Y-38289000D01*
G75*
G02*
X164001500Y-38538999I0J-249999D01*
G01*
G37*
G36*
G01*
X166001500Y-38538999D02*
X166001500Y-39439001D01*
G75*
G02*
X165751501Y-39689000I-249999J0D01*
G01*
X165051499Y-39689000D01*
G75*
G02*
X164801500Y-39439001I0J249999D01*
G01*
X164801500Y-38538999D01*
G75*
G02*
X165051499Y-38289000I249999J0D01*
G01*
X165751501Y-38289000D01*
G75*
G02*
X166001500Y-38538999I0J-249999D01*
G01*
G37*
%TD*%
%TO.C,R20*%
G36*
G01*
X143824500Y-39872499D02*
X143824500Y-40772501D01*
G75*
G02*
X143574501Y-41022500I-249999J0D01*
G01*
X142874499Y-41022500D01*
G75*
G02*
X142624500Y-40772501I0J249999D01*
G01*
X142624500Y-39872499D01*
G75*
G02*
X142874499Y-39622500I249999J0D01*
G01*
X143574501Y-39622500D01*
G75*
G02*
X143824500Y-39872499I0J-249999D01*
G01*
G37*
G36*
G01*
X145824500Y-39872499D02*
X145824500Y-40772501D01*
G75*
G02*
X145574501Y-41022500I-249999J0D01*
G01*
X144874499Y-41022500D01*
G75*
G02*
X144624500Y-40772501I0J249999D01*
G01*
X144624500Y-39872499D01*
G75*
G02*
X144874499Y-39622500I249999J0D01*
G01*
X145574501Y-39622500D01*
G75*
G02*
X145824500Y-39872499I0J-249999D01*
G01*
G37*
%TD*%
%TO.C,R19*%
G36*
G01*
X127946999Y-29991000D02*
X128847001Y-29991000D01*
G75*
G02*
X129097000Y-30240999I0J-249999D01*
G01*
X129097000Y-30941001D01*
G75*
G02*
X128847001Y-31191000I-249999J0D01*
G01*
X127946999Y-31191000D01*
G75*
G02*
X127697000Y-30941001I0J249999D01*
G01*
X127697000Y-30240999D01*
G75*
G02*
X127946999Y-29991000I249999J0D01*
G01*
G37*
G36*
G01*
X127946999Y-27991000D02*
X128847001Y-27991000D01*
G75*
G02*
X129097000Y-28240999I0J-249999D01*
G01*
X129097000Y-28941001D01*
G75*
G02*
X128847001Y-29191000I-249999J0D01*
G01*
X127946999Y-29191000D01*
G75*
G02*
X127697000Y-28941001I0J249999D01*
G01*
X127697000Y-28240999D01*
G75*
G02*
X127946999Y-27991000I249999J0D01*
G01*
G37*
%TD*%
%TO.C,R18*%
G36*
G01*
X167897000Y-35311501D02*
X167897000Y-34411499D01*
G75*
G02*
X168146999Y-34161500I249999J0D01*
G01*
X168847001Y-34161500D01*
G75*
G02*
X169097000Y-34411499I0J-249999D01*
G01*
X169097000Y-35311501D01*
G75*
G02*
X168847001Y-35561500I-249999J0D01*
G01*
X168146999Y-35561500D01*
G75*
G02*
X167897000Y-35311501I0J249999D01*
G01*
G37*
G36*
G01*
X165897000Y-35311501D02*
X165897000Y-34411499D01*
G75*
G02*
X166146999Y-34161500I249999J0D01*
G01*
X166847001Y-34161500D01*
G75*
G02*
X167097000Y-34411499I0J-249999D01*
G01*
X167097000Y-35311501D01*
G75*
G02*
X166847001Y-35561500I-249999J0D01*
G01*
X166146999Y-35561500D01*
G75*
G02*
X165897000Y-35311501I0J249999D01*
G01*
G37*
%TD*%
%TO.C,U6*%
G36*
G01*
X156678500Y-34521000D02*
X156678500Y-34821000D01*
G75*
G02*
X156528500Y-34971000I-150000J0D01*
G01*
X154878500Y-34971000D01*
G75*
G02*
X154728500Y-34821000I0J150000D01*
G01*
X154728500Y-34521000D01*
G75*
G02*
X154878500Y-34371000I150000J0D01*
G01*
X156528500Y-34371000D01*
G75*
G02*
X156678500Y-34521000I0J-150000D01*
G01*
G37*
G36*
G01*
X156678500Y-33251000D02*
X156678500Y-33551000D01*
G75*
G02*
X156528500Y-33701000I-150000J0D01*
G01*
X154878500Y-33701000D01*
G75*
G02*
X154728500Y-33551000I0J150000D01*
G01*
X154728500Y-33251000D01*
G75*
G02*
X154878500Y-33101000I150000J0D01*
G01*
X156528500Y-33101000D01*
G75*
G02*
X156678500Y-33251000I0J-150000D01*
G01*
G37*
G36*
G01*
X156678500Y-31981000D02*
X156678500Y-32281000D01*
G75*
G02*
X156528500Y-32431000I-150000J0D01*
G01*
X154878500Y-32431000D01*
G75*
G02*
X154728500Y-32281000I0J150000D01*
G01*
X154728500Y-31981000D01*
G75*
G02*
X154878500Y-31831000I150000J0D01*
G01*
X156528500Y-31831000D01*
G75*
G02*
X156678500Y-31981000I0J-150000D01*
G01*
G37*
G36*
G01*
X156678500Y-30711000D02*
X156678500Y-31011000D01*
G75*
G02*
X156528500Y-31161000I-150000J0D01*
G01*
X154878500Y-31161000D01*
G75*
G02*
X154728500Y-31011000I0J150000D01*
G01*
X154728500Y-30711000D01*
G75*
G02*
X154878500Y-30561000I150000J0D01*
G01*
X156528500Y-30561000D01*
G75*
G02*
X156678500Y-30711000I0J-150000D01*
G01*
G37*
G36*
G01*
X161628500Y-30711000D02*
X161628500Y-31011000D01*
G75*
G02*
X161478500Y-31161000I-150000J0D01*
G01*
X159828500Y-31161000D01*
G75*
G02*
X159678500Y-31011000I0J150000D01*
G01*
X159678500Y-30711000D01*
G75*
G02*
X159828500Y-30561000I150000J0D01*
G01*
X161478500Y-30561000D01*
G75*
G02*
X161628500Y-30711000I0J-150000D01*
G01*
G37*
G36*
G01*
X161628500Y-31981000D02*
X161628500Y-32281000D01*
G75*
G02*
X161478500Y-32431000I-150000J0D01*
G01*
X159828500Y-32431000D01*
G75*
G02*
X159678500Y-32281000I0J150000D01*
G01*
X159678500Y-31981000D01*
G75*
G02*
X159828500Y-31831000I150000J0D01*
G01*
X161478500Y-31831000D01*
G75*
G02*
X161628500Y-31981000I0J-150000D01*
G01*
G37*
G36*
G01*
X161628500Y-33251000D02*
X161628500Y-33551000D01*
G75*
G02*
X161478500Y-33701000I-150000J0D01*
G01*
X159828500Y-33701000D01*
G75*
G02*
X159678500Y-33551000I0J150000D01*
G01*
X159678500Y-33251000D01*
G75*
G02*
X159828500Y-33101000I150000J0D01*
G01*
X161478500Y-33101000D01*
G75*
G02*
X161628500Y-33251000I0J-150000D01*
G01*
G37*
G36*
G01*
X161628500Y-34521000D02*
X161628500Y-34821000D01*
G75*
G02*
X161478500Y-34971000I-150000J0D01*
G01*
X159828500Y-34971000D01*
G75*
G02*
X159678500Y-34821000I0J150000D01*
G01*
X159678500Y-34521000D01*
G75*
G02*
X159828500Y-34371000I150000J0D01*
G01*
X161478500Y-34371000D01*
G75*
G02*
X161628500Y-34521000I0J-150000D01*
G01*
G37*
%TD*%
%TO.C,U5*%
G36*
G01*
X159551500Y-44473000D02*
X159551500Y-44173000D01*
G75*
G02*
X159701500Y-44023000I150000J0D01*
G01*
X161351500Y-44023000D01*
G75*
G02*
X161501500Y-44173000I0J-150000D01*
G01*
X161501500Y-44473000D01*
G75*
G02*
X161351500Y-44623000I-150000J0D01*
G01*
X159701500Y-44623000D01*
G75*
G02*
X159551500Y-44473000I0J150000D01*
G01*
G37*
G36*
G01*
X159551500Y-45743000D02*
X159551500Y-45443000D01*
G75*
G02*
X159701500Y-45293000I150000J0D01*
G01*
X161351500Y-45293000D01*
G75*
G02*
X161501500Y-45443000I0J-150000D01*
G01*
X161501500Y-45743000D01*
G75*
G02*
X161351500Y-45893000I-150000J0D01*
G01*
X159701500Y-45893000D01*
G75*
G02*
X159551500Y-45743000I0J150000D01*
G01*
G37*
G36*
G01*
X159551500Y-47013000D02*
X159551500Y-46713000D01*
G75*
G02*
X159701500Y-46563000I150000J0D01*
G01*
X161351500Y-46563000D01*
G75*
G02*
X161501500Y-46713000I0J-150000D01*
G01*
X161501500Y-47013000D01*
G75*
G02*
X161351500Y-47163000I-150000J0D01*
G01*
X159701500Y-47163000D01*
G75*
G02*
X159551500Y-47013000I0J150000D01*
G01*
G37*
G36*
G01*
X159551500Y-48283000D02*
X159551500Y-47983000D01*
G75*
G02*
X159701500Y-47833000I150000J0D01*
G01*
X161351500Y-47833000D01*
G75*
G02*
X161501500Y-47983000I0J-150000D01*
G01*
X161501500Y-48283000D01*
G75*
G02*
X161351500Y-48433000I-150000J0D01*
G01*
X159701500Y-48433000D01*
G75*
G02*
X159551500Y-48283000I0J150000D01*
G01*
G37*
G36*
G01*
X154601500Y-48283000D02*
X154601500Y-47983000D01*
G75*
G02*
X154751500Y-47833000I150000J0D01*
G01*
X156401500Y-47833000D01*
G75*
G02*
X156551500Y-47983000I0J-150000D01*
G01*
X156551500Y-48283000D01*
G75*
G02*
X156401500Y-48433000I-150000J0D01*
G01*
X154751500Y-48433000D01*
G75*
G02*
X154601500Y-48283000I0J150000D01*
G01*
G37*
G36*
G01*
X154601500Y-47013000D02*
X154601500Y-46713000D01*
G75*
G02*
X154751500Y-46563000I150000J0D01*
G01*
X156401500Y-46563000D01*
G75*
G02*
X156551500Y-46713000I0J-150000D01*
G01*
X156551500Y-47013000D01*
G75*
G02*
X156401500Y-47163000I-150000J0D01*
G01*
X154751500Y-47163000D01*
G75*
G02*
X154601500Y-47013000I0J150000D01*
G01*
G37*
G36*
G01*
X154601500Y-45743000D02*
X154601500Y-45443000D01*
G75*
G02*
X154751500Y-45293000I150000J0D01*
G01*
X156401500Y-45293000D01*
G75*
G02*
X156551500Y-45443000I0J-150000D01*
G01*
X156551500Y-45743000D01*
G75*
G02*
X156401500Y-45893000I-150000J0D01*
G01*
X154751500Y-45893000D01*
G75*
G02*
X154601500Y-45743000I0J150000D01*
G01*
G37*
G36*
G01*
X154601500Y-44473000D02*
X154601500Y-44173000D01*
G75*
G02*
X154751500Y-44023000I150000J0D01*
G01*
X156401500Y-44023000D01*
G75*
G02*
X156551500Y-44173000I0J-150000D01*
G01*
X156551500Y-44473000D01*
G75*
G02*
X156401500Y-44623000I-150000J0D01*
G01*
X154751500Y-44623000D01*
G75*
G02*
X154601500Y-44473000I0J150000D01*
G01*
G37*
%TD*%
D10*
%TO.C,RV2*%
X151447500Y-22288500D03*
D11*
X154347500Y-21038500D03*
D10*
X151447500Y-19788500D03*
%TD*%
%TO.C,R14*%
G36*
G01*
X164026001Y-46082000D02*
X163125999Y-46082000D01*
G75*
G02*
X162876000Y-45832001I0J249999D01*
G01*
X162876000Y-45131999D01*
G75*
G02*
X163125999Y-44882000I249999J0D01*
G01*
X164026001Y-44882000D01*
G75*
G02*
X164276000Y-45131999I0J-249999D01*
G01*
X164276000Y-45832001D01*
G75*
G02*
X164026001Y-46082000I-249999J0D01*
G01*
G37*
G36*
G01*
X164026001Y-48082000D02*
X163125999Y-48082000D01*
G75*
G02*
X162876000Y-47832001I0J249999D01*
G01*
X162876000Y-47131999D01*
G75*
G02*
X163125999Y-46882000I249999J0D01*
G01*
X164026001Y-46882000D01*
G75*
G02*
X164276000Y-47131999I0J-249999D01*
G01*
X164276000Y-47832001D01*
G75*
G02*
X164026001Y-48082000I-249999J0D01*
G01*
G37*
%TD*%
%TO.C,R12*%
G36*
G01*
X157993501Y-40605000D02*
X157093499Y-40605000D01*
G75*
G02*
X156843500Y-40355001I0J249999D01*
G01*
X156843500Y-39654999D01*
G75*
G02*
X157093499Y-39405000I249999J0D01*
G01*
X157993501Y-39405000D01*
G75*
G02*
X158243500Y-39654999I0J-249999D01*
G01*
X158243500Y-40355001D01*
G75*
G02*
X157993501Y-40605000I-249999J0D01*
G01*
G37*
G36*
G01*
X157993501Y-42605000D02*
X157093499Y-42605000D01*
G75*
G02*
X156843500Y-42355001I0J249999D01*
G01*
X156843500Y-41654999D01*
G75*
G02*
X157093499Y-41405000I249999J0D01*
G01*
X157993501Y-41405000D01*
G75*
G02*
X158243500Y-41654999I0J-249999D01*
G01*
X158243500Y-42355001D01*
G75*
G02*
X157993501Y-42605000I-249999J0D01*
G01*
G37*
%TD*%
%TO.C,C12*%
G36*
G01*
X148642500Y-25194497D02*
X148642500Y-26494503D01*
G75*
G02*
X148392503Y-26744500I-249997J0D01*
G01*
X147567497Y-26744500D01*
G75*
G02*
X147317500Y-26494503I0J249997D01*
G01*
X147317500Y-25194497D01*
G75*
G02*
X147567497Y-24944500I249997J0D01*
G01*
X148392503Y-24944500D01*
G75*
G02*
X148642500Y-25194497I0J-249997D01*
G01*
G37*
G36*
G01*
X151767500Y-25194497D02*
X151767500Y-26494503D01*
G75*
G02*
X151517503Y-26744500I-249997J0D01*
G01*
X150692497Y-26744500D01*
G75*
G02*
X150442500Y-26494503I0J249997D01*
G01*
X150442500Y-25194497D01*
G75*
G02*
X150692497Y-24944500I249997J0D01*
G01*
X151517503Y-24944500D01*
G75*
G02*
X151767500Y-25194497I0J-249997D01*
G01*
G37*
%TD*%
%TO.C,C6*%
G36*
G01*
X140667503Y-61291500D02*
X139367497Y-61291500D01*
G75*
G02*
X139117500Y-61041503I0J249997D01*
G01*
X139117500Y-60216497D01*
G75*
G02*
X139367497Y-59966500I249997J0D01*
G01*
X140667503Y-59966500D01*
G75*
G02*
X140917500Y-60216497I0J-249997D01*
G01*
X140917500Y-61041503D01*
G75*
G02*
X140667503Y-61291500I-249997J0D01*
G01*
G37*
G36*
G01*
X140667503Y-64416500D02*
X139367497Y-64416500D01*
G75*
G02*
X139117500Y-64166503I0J249997D01*
G01*
X139117500Y-63341497D01*
G75*
G02*
X139367497Y-63091500I249997J0D01*
G01*
X140667503Y-63091500D01*
G75*
G02*
X140917500Y-63341497I0J-249997D01*
G01*
X140917500Y-64166503D01*
G75*
G02*
X140667503Y-64416500I-249997J0D01*
G01*
G37*
%TD*%
%TO.C,C4*%
G36*
G01*
X161114503Y-61520500D02*
X159814497Y-61520500D01*
G75*
G02*
X159564500Y-61270503I0J249997D01*
G01*
X159564500Y-60445497D01*
G75*
G02*
X159814497Y-60195500I249997J0D01*
G01*
X161114503Y-60195500D01*
G75*
G02*
X161364500Y-60445497I0J-249997D01*
G01*
X161364500Y-61270503D01*
G75*
G02*
X161114503Y-61520500I-249997J0D01*
G01*
G37*
G36*
G01*
X161114503Y-64645500D02*
X159814497Y-64645500D01*
G75*
G02*
X159564500Y-64395503I0J249997D01*
G01*
X159564500Y-63570497D01*
G75*
G02*
X159814497Y-63320500I249997J0D01*
G01*
X161114503Y-63320500D01*
G75*
G02*
X161364500Y-63570497I0J-249997D01*
G01*
X161364500Y-64395503D01*
G75*
G02*
X161114503Y-64645500I-249997J0D01*
G01*
G37*
%TD*%
%TO.C,C3*%
G36*
G01*
X150891003Y-61330000D02*
X149590997Y-61330000D01*
G75*
G02*
X149341000Y-61080003I0J249997D01*
G01*
X149341000Y-60254997D01*
G75*
G02*
X149590997Y-60005000I249997J0D01*
G01*
X150891003Y-60005000D01*
G75*
G02*
X151141000Y-60254997I0J-249997D01*
G01*
X151141000Y-61080003D01*
G75*
G02*
X150891003Y-61330000I-249997J0D01*
G01*
G37*
G36*
G01*
X150891003Y-64455000D02*
X149590997Y-64455000D01*
G75*
G02*
X149341000Y-64205003I0J249997D01*
G01*
X149341000Y-63379997D01*
G75*
G02*
X149590997Y-63130000I249997J0D01*
G01*
X150891003Y-63130000D01*
G75*
G02*
X151141000Y-63379997I0J-249997D01*
G01*
X151141000Y-64205003D01*
G75*
G02*
X150891003Y-64455000I-249997J0D01*
G01*
G37*
%TD*%
%TO.C,R11*%
G36*
G01*
X152786501Y-44034000D02*
X151886499Y-44034000D01*
G75*
G02*
X151636500Y-43784001I0J249999D01*
G01*
X151636500Y-43083999D01*
G75*
G02*
X151886499Y-42834000I249999J0D01*
G01*
X152786501Y-42834000D01*
G75*
G02*
X153036500Y-43083999I0J-249999D01*
G01*
X153036500Y-43784001D01*
G75*
G02*
X152786501Y-44034000I-249999J0D01*
G01*
G37*
G36*
G01*
X152786501Y-46034000D02*
X151886499Y-46034000D01*
G75*
G02*
X151636500Y-45784001I0J249999D01*
G01*
X151636500Y-45083999D01*
G75*
G02*
X151886499Y-44834000I249999J0D01*
G01*
X152786501Y-44834000D01*
G75*
G02*
X153036500Y-45083999I0J-249999D01*
G01*
X153036500Y-45784001D01*
G75*
G02*
X152786501Y-46034000I-249999J0D01*
G01*
G37*
%TD*%
%TO.C,U3*%
G36*
G01*
X138215500Y-31074500D02*
X138215500Y-30774500D01*
G75*
G02*
X138365500Y-30624500I150000J0D01*
G01*
X140015500Y-30624500D01*
G75*
G02*
X140165500Y-30774500I0J-150000D01*
G01*
X140165500Y-31074500D01*
G75*
G02*
X140015500Y-31224500I-150000J0D01*
G01*
X138365500Y-31224500D01*
G75*
G02*
X138215500Y-31074500I0J150000D01*
G01*
G37*
G36*
G01*
X138215500Y-32344500D02*
X138215500Y-32044500D01*
G75*
G02*
X138365500Y-31894500I150000J0D01*
G01*
X140015500Y-31894500D01*
G75*
G02*
X140165500Y-32044500I0J-150000D01*
G01*
X140165500Y-32344500D01*
G75*
G02*
X140015500Y-32494500I-150000J0D01*
G01*
X138365500Y-32494500D01*
G75*
G02*
X138215500Y-32344500I0J150000D01*
G01*
G37*
G36*
G01*
X138215500Y-33614500D02*
X138215500Y-33314500D01*
G75*
G02*
X138365500Y-33164500I150000J0D01*
G01*
X140015500Y-33164500D01*
G75*
G02*
X140165500Y-33314500I0J-150000D01*
G01*
X140165500Y-33614500D01*
G75*
G02*
X140015500Y-33764500I-150000J0D01*
G01*
X138365500Y-33764500D01*
G75*
G02*
X138215500Y-33614500I0J150000D01*
G01*
G37*
G36*
G01*
X138215500Y-34884500D02*
X138215500Y-34584500D01*
G75*
G02*
X138365500Y-34434500I150000J0D01*
G01*
X140015500Y-34434500D01*
G75*
G02*
X140165500Y-34584500I0J-150000D01*
G01*
X140165500Y-34884500D01*
G75*
G02*
X140015500Y-35034500I-150000J0D01*
G01*
X138365500Y-35034500D01*
G75*
G02*
X138215500Y-34884500I0J150000D01*
G01*
G37*
G36*
G01*
X138215500Y-36154500D02*
X138215500Y-35854500D01*
G75*
G02*
X138365500Y-35704500I150000J0D01*
G01*
X140015500Y-35704500D01*
G75*
G02*
X140165500Y-35854500I0J-150000D01*
G01*
X140165500Y-36154500D01*
G75*
G02*
X140015500Y-36304500I-150000J0D01*
G01*
X138365500Y-36304500D01*
G75*
G02*
X138215500Y-36154500I0J150000D01*
G01*
G37*
G36*
G01*
X138215500Y-37424500D02*
X138215500Y-37124500D01*
G75*
G02*
X138365500Y-36974500I150000J0D01*
G01*
X140015500Y-36974500D01*
G75*
G02*
X140165500Y-37124500I0J-150000D01*
G01*
X140165500Y-37424500D01*
G75*
G02*
X140015500Y-37574500I-150000J0D01*
G01*
X138365500Y-37574500D01*
G75*
G02*
X138215500Y-37424500I0J150000D01*
G01*
G37*
G36*
G01*
X138215500Y-38694500D02*
X138215500Y-38394500D01*
G75*
G02*
X138365500Y-38244500I150000J0D01*
G01*
X140015500Y-38244500D01*
G75*
G02*
X140165500Y-38394500I0J-150000D01*
G01*
X140165500Y-38694500D01*
G75*
G02*
X140015500Y-38844500I-150000J0D01*
G01*
X138365500Y-38844500D01*
G75*
G02*
X138215500Y-38694500I0J150000D01*
G01*
G37*
G36*
G01*
X133265500Y-38694500D02*
X133265500Y-38394500D01*
G75*
G02*
X133415500Y-38244500I150000J0D01*
G01*
X135065500Y-38244500D01*
G75*
G02*
X135215500Y-38394500I0J-150000D01*
G01*
X135215500Y-38694500D01*
G75*
G02*
X135065500Y-38844500I-150000J0D01*
G01*
X133415500Y-38844500D01*
G75*
G02*
X133265500Y-38694500I0J150000D01*
G01*
G37*
G36*
G01*
X133265500Y-37424500D02*
X133265500Y-37124500D01*
G75*
G02*
X133415500Y-36974500I150000J0D01*
G01*
X135065500Y-36974500D01*
G75*
G02*
X135215500Y-37124500I0J-150000D01*
G01*
X135215500Y-37424500D01*
G75*
G02*
X135065500Y-37574500I-150000J0D01*
G01*
X133415500Y-37574500D01*
G75*
G02*
X133265500Y-37424500I0J150000D01*
G01*
G37*
G36*
G01*
X133265500Y-36154500D02*
X133265500Y-35854500D01*
G75*
G02*
X133415500Y-35704500I150000J0D01*
G01*
X135065500Y-35704500D01*
G75*
G02*
X135215500Y-35854500I0J-150000D01*
G01*
X135215500Y-36154500D01*
G75*
G02*
X135065500Y-36304500I-150000J0D01*
G01*
X133415500Y-36304500D01*
G75*
G02*
X133265500Y-36154500I0J150000D01*
G01*
G37*
G36*
G01*
X133265500Y-34884500D02*
X133265500Y-34584500D01*
G75*
G02*
X133415500Y-34434500I150000J0D01*
G01*
X135065500Y-34434500D01*
G75*
G02*
X135215500Y-34584500I0J-150000D01*
G01*
X135215500Y-34884500D01*
G75*
G02*
X135065500Y-35034500I-150000J0D01*
G01*
X133415500Y-35034500D01*
G75*
G02*
X133265500Y-34884500I0J150000D01*
G01*
G37*
G36*
G01*
X133265500Y-33614500D02*
X133265500Y-33314500D01*
G75*
G02*
X133415500Y-33164500I150000J0D01*
G01*
X135065500Y-33164500D01*
G75*
G02*
X135215500Y-33314500I0J-150000D01*
G01*
X135215500Y-33614500D01*
G75*
G02*
X135065500Y-33764500I-150000J0D01*
G01*
X133415500Y-33764500D01*
G75*
G02*
X133265500Y-33614500I0J150000D01*
G01*
G37*
G36*
G01*
X133265500Y-32344500D02*
X133265500Y-32044500D01*
G75*
G02*
X133415500Y-31894500I150000J0D01*
G01*
X135065500Y-31894500D01*
G75*
G02*
X135215500Y-32044500I0J-150000D01*
G01*
X135215500Y-32344500D01*
G75*
G02*
X135065500Y-32494500I-150000J0D01*
G01*
X133415500Y-32494500D01*
G75*
G02*
X133265500Y-32344500I0J150000D01*
G01*
G37*
G36*
G01*
X133265500Y-31074500D02*
X133265500Y-30774500D01*
G75*
G02*
X133415500Y-30624500I150000J0D01*
G01*
X135065500Y-30624500D01*
G75*
G02*
X135215500Y-30774500I0J-150000D01*
G01*
X135215500Y-31074500D01*
G75*
G02*
X135065500Y-31224500I-150000J0D01*
G01*
X133415500Y-31224500D01*
G75*
G02*
X133265500Y-31074500I0J150000D01*
G01*
G37*
%TD*%
%TO.C,C7*%
G36*
G01*
X134027000Y-62165000D02*
X132927000Y-62165000D01*
G75*
G02*
X132677000Y-61915000I0J250000D01*
G01*
X132677000Y-59415000D01*
G75*
G02*
X132927000Y-59165000I250000J0D01*
G01*
X134027000Y-59165000D01*
G75*
G02*
X134277000Y-59415000I0J-250000D01*
G01*
X134277000Y-61915000D01*
G75*
G02*
X134027000Y-62165000I-250000J0D01*
G01*
G37*
G36*
G01*
X134027000Y-66565000D02*
X132927000Y-66565000D01*
G75*
G02*
X132677000Y-66315000I0J250000D01*
G01*
X132677000Y-63815000D01*
G75*
G02*
X132927000Y-63565000I250000J0D01*
G01*
X134027000Y-63565000D01*
G75*
G02*
X134277000Y-63815000I0J-250000D01*
G01*
X134277000Y-66315000D01*
G75*
G02*
X134027000Y-66565000I-250000J0D01*
G01*
G37*
%TD*%
D12*
%TO.C,RV1*%
X127869000Y-63553000D03*
D13*
X126619000Y-60653000D03*
D12*
X125369000Y-63553000D03*
%TD*%
%TO.C,R17*%
G36*
G01*
X159785000Y-20389001D02*
X159785000Y-19488999D01*
G75*
G02*
X160034999Y-19239000I249999J0D01*
G01*
X160735001Y-19239000D01*
G75*
G02*
X160985000Y-19488999I0J-249999D01*
G01*
X160985000Y-20389001D01*
G75*
G02*
X160735001Y-20639000I-249999J0D01*
G01*
X160034999Y-20639000D01*
G75*
G02*
X159785000Y-20389001I0J249999D01*
G01*
G37*
G36*
G01*
X157785000Y-20389001D02*
X157785000Y-19488999D01*
G75*
G02*
X158034999Y-19239000I249999J0D01*
G01*
X158735001Y-19239000D01*
G75*
G02*
X158985000Y-19488999I0J-249999D01*
G01*
X158985000Y-20389001D01*
G75*
G02*
X158735001Y-20639000I-249999J0D01*
G01*
X158034999Y-20639000D01*
G75*
G02*
X157785000Y-20389001I0J249999D01*
G01*
G37*
%TD*%
%TO.C,R16*%
G36*
G01*
X148214501Y-20412000D02*
X147314499Y-20412000D01*
G75*
G02*
X147064500Y-20162001I0J249999D01*
G01*
X147064500Y-19461999D01*
G75*
G02*
X147314499Y-19212000I249999J0D01*
G01*
X148214501Y-19212000D01*
G75*
G02*
X148464500Y-19461999I0J-249999D01*
G01*
X148464500Y-20162001D01*
G75*
G02*
X148214501Y-20412000I-249999J0D01*
G01*
G37*
G36*
G01*
X148214501Y-22412000D02*
X147314499Y-22412000D01*
G75*
G02*
X147064500Y-22162001I0J249999D01*
G01*
X147064500Y-21461999D01*
G75*
G02*
X147314499Y-21212000I249999J0D01*
G01*
X148214501Y-21212000D01*
G75*
G02*
X148464500Y-21461999I0J-249999D01*
G01*
X148464500Y-22162001D01*
G75*
G02*
X148214501Y-22412000I-249999J0D01*
G01*
G37*
%TD*%
%TO.C,R15*%
G36*
G01*
X164153001Y-35414000D02*
X163252999Y-35414000D01*
G75*
G02*
X163003000Y-35164001I0J249999D01*
G01*
X163003000Y-34463999D01*
G75*
G02*
X163252999Y-34214000I249999J0D01*
G01*
X164153001Y-34214000D01*
G75*
G02*
X164403000Y-34463999I0J-249999D01*
G01*
X164403000Y-35164001D01*
G75*
G02*
X164153001Y-35414000I-249999J0D01*
G01*
G37*
G36*
G01*
X164153001Y-37414000D02*
X163252999Y-37414000D01*
G75*
G02*
X163003000Y-37164001I0J249999D01*
G01*
X163003000Y-36463999D01*
G75*
G02*
X163252999Y-36214000I249999J0D01*
G01*
X164153001Y-36214000D01*
G75*
G02*
X164403000Y-36463999I0J-249999D01*
G01*
X164403000Y-37164001D01*
G75*
G02*
X164153001Y-37414000I-249999J0D01*
G01*
G37*
%TD*%
%TO.C,R13*%
G36*
G01*
X159569999Y-41373500D02*
X160470001Y-41373500D01*
G75*
G02*
X160720000Y-41623499I0J-249999D01*
G01*
X160720000Y-42323501D01*
G75*
G02*
X160470001Y-42573500I-249999J0D01*
G01*
X159569999Y-42573500D01*
G75*
G02*
X159320000Y-42323501I0J249999D01*
G01*
X159320000Y-41623499D01*
G75*
G02*
X159569999Y-41373500I249999J0D01*
G01*
G37*
G36*
G01*
X159569999Y-39373500D02*
X160470001Y-39373500D01*
G75*
G02*
X160720000Y-39623499I0J-249999D01*
G01*
X160720000Y-40323501D01*
G75*
G02*
X160470001Y-40573500I-249999J0D01*
G01*
X159569999Y-40573500D01*
G75*
G02*
X159320000Y-40323501I0J249999D01*
G01*
X159320000Y-39623499D01*
G75*
G02*
X159569999Y-39373500I249999J0D01*
G01*
G37*
%TD*%
%TO.C,R10*%
G36*
G01*
X149371000Y-46344501D02*
X149371000Y-45444499D01*
G75*
G02*
X149620999Y-45194500I249999J0D01*
G01*
X150321001Y-45194500D01*
G75*
G02*
X150571000Y-45444499I0J-249999D01*
G01*
X150571000Y-46344501D01*
G75*
G02*
X150321001Y-46594500I-249999J0D01*
G01*
X149620999Y-46594500D01*
G75*
G02*
X149371000Y-46344501I0J249999D01*
G01*
G37*
G36*
G01*
X147371000Y-46344501D02*
X147371000Y-45444499D01*
G75*
G02*
X147620999Y-45194500I249999J0D01*
G01*
X148321001Y-45194500D01*
G75*
G02*
X148571000Y-45444499I0J-249999D01*
G01*
X148571000Y-46344501D01*
G75*
G02*
X148321001Y-46594500I-249999J0D01*
G01*
X147620999Y-46594500D01*
G75*
G02*
X147371000Y-46344501I0J249999D01*
G01*
G37*
%TD*%
%TO.C,R9*%
G36*
G01*
X139227000Y-66680501D02*
X139227000Y-65780499D01*
G75*
G02*
X139476999Y-65530500I249999J0D01*
G01*
X140177001Y-65530500D01*
G75*
G02*
X140427000Y-65780499I0J-249999D01*
G01*
X140427000Y-66680501D01*
G75*
G02*
X140177001Y-66930500I-249999J0D01*
G01*
X139476999Y-66930500D01*
G75*
G02*
X139227000Y-66680501I0J249999D01*
G01*
G37*
G36*
G01*
X137227000Y-66680501D02*
X137227000Y-65780499D01*
G75*
G02*
X137476999Y-65530500I249999J0D01*
G01*
X138177001Y-65530500D01*
G75*
G02*
X138427000Y-65780499I0J-249999D01*
G01*
X138427000Y-66680501D01*
G75*
G02*
X138177001Y-66930500I-249999J0D01*
G01*
X137476999Y-66930500D01*
G75*
G02*
X137227000Y-66680501I0J249999D01*
G01*
G37*
%TD*%
%TO.C,R8*%
G36*
G01*
X149371000Y-43963501D02*
X149371000Y-43063499D01*
G75*
G02*
X149620999Y-42813500I249999J0D01*
G01*
X150321001Y-42813500D01*
G75*
G02*
X150571000Y-43063499I0J-249999D01*
G01*
X150571000Y-43963501D01*
G75*
G02*
X150321001Y-44213500I-249999J0D01*
G01*
X149620999Y-44213500D01*
G75*
G02*
X149371000Y-43963501I0J249999D01*
G01*
G37*
G36*
G01*
X147371000Y-43963501D02*
X147371000Y-43063499D01*
G75*
G02*
X147620999Y-42813500I249999J0D01*
G01*
X148321001Y-42813500D01*
G75*
G02*
X148571000Y-43063499I0J-249999D01*
G01*
X148571000Y-43963501D01*
G75*
G02*
X148321001Y-44213500I-249999J0D01*
G01*
X147620999Y-44213500D01*
G75*
G02*
X147371000Y-43963501I0J249999D01*
G01*
G37*
%TD*%
%TO.C,R7*%
G36*
G01*
X149387000Y-34740001D02*
X149387000Y-33839999D01*
G75*
G02*
X149636999Y-33590000I249999J0D01*
G01*
X150337001Y-33590000D01*
G75*
G02*
X150587000Y-33839999I0J-249999D01*
G01*
X150587000Y-34740001D01*
G75*
G02*
X150337001Y-34990000I-249999J0D01*
G01*
X149636999Y-34990000D01*
G75*
G02*
X149387000Y-34740001I0J249999D01*
G01*
G37*
G36*
G01*
X147387000Y-34740001D02*
X147387000Y-33839999D01*
G75*
G02*
X147636999Y-33590000I249999J0D01*
G01*
X148337001Y-33590000D01*
G75*
G02*
X148587000Y-33839999I0J-249999D01*
G01*
X148587000Y-34740001D01*
G75*
G02*
X148337001Y-34990000I-249999J0D01*
G01*
X147636999Y-34990000D01*
G75*
G02*
X147387000Y-34740001I0J249999D01*
G01*
G37*
%TD*%
%TO.C,R6*%
G36*
G01*
X155453501Y-55559500D02*
X154553499Y-55559500D01*
G75*
G02*
X154303500Y-55309501I0J249999D01*
G01*
X154303500Y-54609499D01*
G75*
G02*
X154553499Y-54359500I249999J0D01*
G01*
X155453501Y-54359500D01*
G75*
G02*
X155703500Y-54609499I0J-249999D01*
G01*
X155703500Y-55309501D01*
G75*
G02*
X155453501Y-55559500I-249999J0D01*
G01*
G37*
G36*
G01*
X155453501Y-57559500D02*
X154553499Y-57559500D01*
G75*
G02*
X154303500Y-57309501I0J249999D01*
G01*
X154303500Y-56609499D01*
G75*
G02*
X154553499Y-56359500I249999J0D01*
G01*
X155453501Y-56359500D01*
G75*
G02*
X155703500Y-56609499I0J-249999D01*
G01*
X155703500Y-57309501D01*
G75*
G02*
X155453501Y-57559500I-249999J0D01*
G01*
G37*
%TD*%
%TO.C,R5*%
G36*
G01*
X152013499Y-56327500D02*
X152913501Y-56327500D01*
G75*
G02*
X153163500Y-56577499I0J-249999D01*
G01*
X153163500Y-57277501D01*
G75*
G02*
X152913501Y-57527500I-249999J0D01*
G01*
X152013499Y-57527500D01*
G75*
G02*
X151763500Y-57277501I0J249999D01*
G01*
X151763500Y-56577499D01*
G75*
G02*
X152013499Y-56327500I249999J0D01*
G01*
G37*
G36*
G01*
X152013499Y-54327500D02*
X152913501Y-54327500D01*
G75*
G02*
X153163500Y-54577499I0J-249999D01*
G01*
X153163500Y-55277501D01*
G75*
G02*
X152913501Y-55527500I-249999J0D01*
G01*
X152013499Y-55527500D01*
G75*
G02*
X151763500Y-55277501I0J249999D01*
G01*
X151763500Y-54577499D01*
G75*
G02*
X152013499Y-54327500I249999J0D01*
G01*
G37*
%TD*%
%TO.C,R4*%
G36*
G01*
X150500501Y-55543500D02*
X149600499Y-55543500D01*
G75*
G02*
X149350500Y-55293501I0J249999D01*
G01*
X149350500Y-54593499D01*
G75*
G02*
X149600499Y-54343500I249999J0D01*
G01*
X150500501Y-54343500D01*
G75*
G02*
X150750500Y-54593499I0J-249999D01*
G01*
X150750500Y-55293501D01*
G75*
G02*
X150500501Y-55543500I-249999J0D01*
G01*
G37*
G36*
G01*
X150500501Y-57543500D02*
X149600499Y-57543500D01*
G75*
G02*
X149350500Y-57293501I0J249999D01*
G01*
X149350500Y-56593499D01*
G75*
G02*
X149600499Y-56343500I249999J0D01*
G01*
X150500501Y-56343500D01*
G75*
G02*
X150750500Y-56593499I0J-249999D01*
G01*
X150750500Y-57293501D01*
G75*
G02*
X150500501Y-57543500I-249999J0D01*
G01*
G37*
%TD*%
%TO.C,R3*%
G36*
G01*
X127765000Y-35946501D02*
X127765000Y-35046499D01*
G75*
G02*
X128014999Y-34796500I249999J0D01*
G01*
X128715001Y-34796500D01*
G75*
G02*
X128965000Y-35046499I0J-249999D01*
G01*
X128965000Y-35946501D01*
G75*
G02*
X128715001Y-36196500I-249999J0D01*
G01*
X128014999Y-36196500D01*
G75*
G02*
X127765000Y-35946501I0J249999D01*
G01*
G37*
G36*
G01*
X125765000Y-35946501D02*
X125765000Y-35046499D01*
G75*
G02*
X126014999Y-34796500I249999J0D01*
G01*
X126715001Y-34796500D01*
G75*
G02*
X126965000Y-35046499I0J-249999D01*
G01*
X126965000Y-35946501D01*
G75*
G02*
X126715001Y-36196500I-249999J0D01*
G01*
X126014999Y-36196500D01*
G75*
G02*
X125765000Y-35946501I0J249999D01*
G01*
G37*
%TD*%
%TO.C,R2*%
G36*
G01*
X124084501Y-44859500D02*
X123184499Y-44859500D01*
G75*
G02*
X122934500Y-44609501I0J249999D01*
G01*
X122934500Y-43909499D01*
G75*
G02*
X123184499Y-43659500I249999J0D01*
G01*
X124084501Y-43659500D01*
G75*
G02*
X124334500Y-43909499I0J-249999D01*
G01*
X124334500Y-44609501D01*
G75*
G02*
X124084501Y-44859500I-249999J0D01*
G01*
G37*
G36*
G01*
X124084501Y-46859500D02*
X123184499Y-46859500D01*
G75*
G02*
X122934500Y-46609501I0J249999D01*
G01*
X122934500Y-45909499D01*
G75*
G02*
X123184499Y-45659500I249999J0D01*
G01*
X124084501Y-45659500D01*
G75*
G02*
X124334500Y-45909499I0J-249999D01*
G01*
X124334500Y-46609501D01*
G75*
G02*
X124084501Y-46859500I-249999J0D01*
G01*
G37*
%TD*%
D14*
%TO.C,Q2*%
X128977900Y-45559980D03*
X126977900Y-46509980D03*
X126977900Y-44609980D03*
%TD*%
%TO.C,Q1*%
X128977900Y-40335200D03*
X126977900Y-41285200D03*
X126977900Y-39385200D03*
%TD*%
%TO.C,C5*%
G36*
G01*
X144885500Y-62165000D02*
X143785500Y-62165000D01*
G75*
G02*
X143535500Y-61915000I0J250000D01*
G01*
X143535500Y-59415000D01*
G75*
G02*
X143785500Y-59165000I250000J0D01*
G01*
X144885500Y-59165000D01*
G75*
G02*
X145135500Y-59415000I0J-250000D01*
G01*
X145135500Y-61915000D01*
G75*
G02*
X144885500Y-62165000I-250000J0D01*
G01*
G37*
G36*
G01*
X144885500Y-66565000D02*
X143785500Y-66565000D01*
G75*
G02*
X143535500Y-66315000I0J250000D01*
G01*
X143535500Y-63815000D01*
G75*
G02*
X143785500Y-63565000I250000J0D01*
G01*
X144885500Y-63565000D01*
G75*
G02*
X145135500Y-63815000I0J-250000D01*
G01*
X145135500Y-66315000D01*
G75*
G02*
X144885500Y-66565000I-250000J0D01*
G01*
G37*
%TD*%
%TO.C,C2*%
G36*
G01*
X165332500Y-62165000D02*
X164232500Y-62165000D01*
G75*
G02*
X163982500Y-61915000I0J250000D01*
G01*
X163982500Y-59415000D01*
G75*
G02*
X164232500Y-59165000I250000J0D01*
G01*
X165332500Y-59165000D01*
G75*
G02*
X165582500Y-59415000I0J-250000D01*
G01*
X165582500Y-61915000D01*
G75*
G02*
X165332500Y-62165000I-250000J0D01*
G01*
G37*
G36*
G01*
X165332500Y-66565000D02*
X164232500Y-66565000D01*
G75*
G02*
X163982500Y-66315000I0J250000D01*
G01*
X163982500Y-63815000D01*
G75*
G02*
X164232500Y-63565000I250000J0D01*
G01*
X165332500Y-63565000D01*
G75*
G02*
X165582500Y-63815000I0J-250000D01*
G01*
X165582500Y-66315000D01*
G75*
G02*
X165332500Y-66565000I-250000J0D01*
G01*
G37*
%TD*%
%TO.C,C1*%
G36*
G01*
X155109000Y-62165000D02*
X154009000Y-62165000D01*
G75*
G02*
X153759000Y-61915000I0J250000D01*
G01*
X153759000Y-59415000D01*
G75*
G02*
X154009000Y-59165000I250000J0D01*
G01*
X155109000Y-59165000D01*
G75*
G02*
X155359000Y-59415000I0J-250000D01*
G01*
X155359000Y-61915000D01*
G75*
G02*
X155109000Y-62165000I-250000J0D01*
G01*
G37*
G36*
G01*
X155109000Y-66565000D02*
X154009000Y-66565000D01*
G75*
G02*
X153759000Y-66315000I0J250000D01*
G01*
X153759000Y-63815000D01*
G75*
G02*
X154009000Y-63565000I250000J0D01*
G01*
X155109000Y-63565000D01*
G75*
G02*
X155359000Y-63815000I0J-250000D01*
G01*
X155359000Y-66315000D01*
G75*
G02*
X155109000Y-66565000I-250000J0D01*
G01*
G37*
%TD*%
M02*
