%TF.GenerationSoftware,KiCad,Pcbnew,(5.1.8-0-10_14)*%
%TF.CreationDate,2022-04-27T14:32:14-05:00*%
%TF.ProjectId,SAQ_KiCad_one,5341515f-4b69-4436-9164-5f6f6e652e6b,rev?*%
%TF.SameCoordinates,Original*%
%TF.FileFunction,Paste,Bot*%
%TF.FilePolarity,Positive*%
%FSLAX46Y46*%
G04 Gerber Fmt 4.6, Leading zero omitted, Abs format (unit mm)*
G04 Created by KiCad (PCBNEW (5.1.8-0-10_14)) date 2022-04-27 14:32:14*
%MOMM*%
%LPD*%
G01*
G04 APERTURE LIST*
G04 APERTURE END LIST*
%TO.C,C10*%
G36*
G01*
X159018000Y-42783997D02*
X159018000Y-44084003D01*
G75*
G02*
X158768003Y-44334000I-249997J0D01*
G01*
X157942997Y-44334000D01*
G75*
G02*
X157693000Y-44084003I0J249997D01*
G01*
X157693000Y-42783997D01*
G75*
G02*
X157942997Y-42534000I249997J0D01*
G01*
X158768003Y-42534000D01*
G75*
G02*
X159018000Y-42783997I0J-249997D01*
G01*
G37*
G36*
G01*
X162143000Y-42783997D02*
X162143000Y-44084003D01*
G75*
G02*
X161893003Y-44334000I-249997J0D01*
G01*
X161067997Y-44334000D01*
G75*
G02*
X160818000Y-44084003I0J249997D01*
G01*
X160818000Y-42783997D01*
G75*
G02*
X161067997Y-42534000I249997J0D01*
G01*
X161893003Y-42534000D01*
G75*
G02*
X162143000Y-42783997I0J-249997D01*
G01*
G37*
%TD*%
%TO.C,C13*%
G36*
G01*
X156961000Y-35671997D02*
X156961000Y-36972003D01*
G75*
G02*
X156711003Y-37222000I-249997J0D01*
G01*
X155885997Y-37222000D01*
G75*
G02*
X155636000Y-36972003I0J249997D01*
G01*
X155636000Y-35671997D01*
G75*
G02*
X155885997Y-35422000I249997J0D01*
G01*
X156711003Y-35422000D01*
G75*
G02*
X156961000Y-35671997I0J-249997D01*
G01*
G37*
G36*
G01*
X160086000Y-35671997D02*
X160086000Y-36972003D01*
G75*
G02*
X159836003Y-37222000I-249997J0D01*
G01*
X159010997Y-37222000D01*
G75*
G02*
X158761000Y-36972003I0J249997D01*
G01*
X158761000Y-35671997D01*
G75*
G02*
X159010997Y-35422000I249997J0D01*
G01*
X159836003Y-35422000D01*
G75*
G02*
X160086000Y-35671997I0J-249997D01*
G01*
G37*
%TD*%
%TO.C,C11*%
G36*
G01*
X159777000Y-50434003D02*
X159777000Y-49133997D01*
G75*
G02*
X160026997Y-48884000I249997J0D01*
G01*
X160852003Y-48884000D01*
G75*
G02*
X161102000Y-49133997I0J-249997D01*
G01*
X161102000Y-50434003D01*
G75*
G02*
X160852003Y-50684000I-249997J0D01*
G01*
X160026997Y-50684000D01*
G75*
G02*
X159777000Y-50434003I0J249997D01*
G01*
G37*
G36*
G01*
X156652000Y-50434003D02*
X156652000Y-49133997D01*
G75*
G02*
X156901997Y-48884000I249997J0D01*
G01*
X157727003Y-48884000D01*
G75*
G02*
X157977000Y-49133997I0J-249997D01*
G01*
X157977000Y-50434003D01*
G75*
G02*
X157727003Y-50684000I-249997J0D01*
G01*
X156901997Y-50684000D01*
G75*
G02*
X156652000Y-50434003I0J249997D01*
G01*
G37*
%TD*%
%TO.C,C9*%
G36*
G01*
X138414997Y-39825500D02*
X139715003Y-39825500D01*
G75*
G02*
X139965000Y-40075497I0J-249997D01*
G01*
X139965000Y-40900503D01*
G75*
G02*
X139715003Y-41150500I-249997J0D01*
G01*
X138414997Y-41150500D01*
G75*
G02*
X138165000Y-40900503I0J249997D01*
G01*
X138165000Y-40075497D01*
G75*
G02*
X138414997Y-39825500I249997J0D01*
G01*
G37*
G36*
G01*
X138414997Y-36700500D02*
X139715003Y-36700500D01*
G75*
G02*
X139965000Y-36950497I0J-249997D01*
G01*
X139965000Y-37775503D01*
G75*
G02*
X139715003Y-38025500I-249997J0D01*
G01*
X138414997Y-38025500D01*
G75*
G02*
X138165000Y-37775503I0J249997D01*
G01*
X138165000Y-36950497D01*
G75*
G02*
X138414997Y-36700500I249997J0D01*
G01*
G37*
%TD*%
%TO.C,C8*%
G36*
G01*
X135879000Y-27162997D02*
X135879000Y-28463003D01*
G75*
G02*
X135629003Y-28713000I-249997J0D01*
G01*
X134803997Y-28713000D01*
G75*
G02*
X134554000Y-28463003I0J249997D01*
G01*
X134554000Y-27162997D01*
G75*
G02*
X134803997Y-26913000I249997J0D01*
G01*
X135629003Y-26913000D01*
G75*
G02*
X135879000Y-27162997I0J-249997D01*
G01*
G37*
G36*
G01*
X139004000Y-27162997D02*
X139004000Y-28463003D01*
G75*
G02*
X138754003Y-28713000I-249997J0D01*
G01*
X137928997Y-28713000D01*
G75*
G02*
X137679000Y-28463003I0J249997D01*
G01*
X137679000Y-27162997D01*
G75*
G02*
X137928997Y-26913000I249997J0D01*
G01*
X138754003Y-26913000D01*
G75*
G02*
X139004000Y-27162997I0J-249997D01*
G01*
G37*
%TD*%
M02*
