%TF.GenerationSoftware,KiCad,Pcbnew,(5.1.8-0-10_14)*%
%TF.CreationDate,2022-04-27T14:32:14-05:00*%
%TF.ProjectId,SAQ_KiCad_one,5341515f-4b69-4436-9164-5f6f6e652e6b,rev?*%
%TF.SameCoordinates,Original*%
%TF.FileFunction,Legend,Top*%
%TF.FilePolarity,Positive*%
%FSLAX46Y46*%
G04 Gerber Fmt 4.6, Leading zero omitted, Abs format (unit mm)*
G04 Created by KiCad (PCBNEW (5.1.8-0-10_14)) date 2022-04-27 14:32:14*
%MOMM*%
%LPD*%
G01*
G04 APERTURE LIST*
%ADD10C,0.300000*%
%ADD11C,0.120000*%
%ADD12C,0.150000*%
G04 APERTURE END LIST*
D10*
X112420542Y-60387800D02*
X112277685Y-60316371D01*
X112063400Y-60316371D01*
X111849114Y-60387800D01*
X111706257Y-60530657D01*
X111634828Y-60673514D01*
X111563400Y-60959228D01*
X111563400Y-61173514D01*
X111634828Y-61459228D01*
X111706257Y-61602085D01*
X111849114Y-61744942D01*
X112063400Y-61816371D01*
X112206257Y-61816371D01*
X112420542Y-61744942D01*
X112491971Y-61673514D01*
X112491971Y-61173514D01*
X112206257Y-61173514D01*
X113134828Y-61816371D02*
X113134828Y-60316371D01*
X113991971Y-61816371D01*
X113991971Y-60316371D01*
X114706257Y-61816371D02*
X114706257Y-60316371D01*
X115063400Y-60316371D01*
X115277685Y-60387800D01*
X115420542Y-60530657D01*
X115491971Y-60673514D01*
X115563400Y-60959228D01*
X115563400Y-61173514D01*
X115491971Y-61459228D01*
X115420542Y-61602085D01*
X115277685Y-61744942D01*
X115063400Y-61816371D01*
X114706257Y-61816371D01*
X112730114Y-55148942D02*
X113872971Y-55148942D01*
X113301542Y-55720371D02*
X113301542Y-54577514D01*
X114372971Y-54220371D02*
X114872971Y-55720371D01*
X115372971Y-54220371D01*
X112679314Y-65207342D02*
X113822171Y-65207342D01*
X114322171Y-64278771D02*
X114822171Y-65778771D01*
X115322171Y-64278771D01*
D11*
%TO.C,JP3*%
X144359400Y-30623000D02*
X145759400Y-30623000D01*
X146459400Y-31323000D02*
X146459400Y-31923000D01*
X145759400Y-32623000D02*
X144359400Y-32623000D01*
X143659400Y-31923000D02*
X143659400Y-31323000D01*
X145759400Y-30623000D02*
G75*
G02*
X146459400Y-31323000I0J-700000D01*
G01*
X146459400Y-31923000D02*
G75*
G02*
X145759400Y-32623000I-700000J0D01*
G01*
X144359400Y-32623000D02*
G75*
G02*
X143659400Y-31923000I0J700000D01*
G01*
X143659400Y-31323000D02*
G75*
G02*
X144359400Y-30623000I700000J0D01*
G01*
%TO.C,JP1*%
X129317000Y-32893000D02*
G75*
G03*
X129317000Y-32893000I-920000J0D01*
G01*
X129317000Y-32893000D02*
X129937000Y-32893000D01*
%TO.C,LATCH*%
X160732000Y-27746000D02*
X160732000Y-27051000D01*
X161417000Y-27746000D02*
X160732000Y-27746000D01*
X162102000Y-26442724D02*
X162102000Y-26356000D01*
X162102000Y-27746000D02*
X162102000Y-27659276D01*
X162102000Y-26356000D02*
X162977000Y-26356000D01*
X162102000Y-27746000D02*
X162977000Y-27746000D01*
X162977000Y-26656507D02*
X162977000Y-26356000D01*
X162977000Y-27746000D02*
X162977000Y-27445493D01*
%TO.C,RESET*%
X153429500Y-38350500D02*
X153429500Y-37655500D01*
X154114500Y-38350500D02*
X153429500Y-38350500D01*
X154799500Y-37047224D02*
X154799500Y-36960500D01*
X154799500Y-38350500D02*
X154799500Y-38263776D01*
X154799500Y-36960500D02*
X155674500Y-36960500D01*
X154799500Y-38350500D02*
X155674500Y-38350500D01*
X155674500Y-37261007D02*
X155674500Y-36960500D01*
X155674500Y-38350500D02*
X155674500Y-38049993D01*
%TO.C,INT/4*%
X166637500Y-39684000D02*
X166637500Y-38989000D01*
X167322500Y-39684000D02*
X166637500Y-39684000D01*
X168007500Y-38380724D02*
X168007500Y-38294000D01*
X168007500Y-39684000D02*
X168007500Y-39597276D01*
X168007500Y-38294000D02*
X168882500Y-38294000D01*
X168007500Y-39684000D02*
X168882500Y-39684000D01*
X168882500Y-38594507D02*
X168882500Y-38294000D01*
X168882500Y-39684000D02*
X168882500Y-39383493D01*
%TO.C,INT-OUT*%
X146513000Y-40994000D02*
X146513000Y-40299000D01*
X147198000Y-40994000D02*
X146513000Y-40994000D01*
X147883000Y-39690724D02*
X147883000Y-39604000D01*
X147883000Y-40994000D02*
X147883000Y-40907276D01*
X147883000Y-39604000D02*
X148758000Y-39604000D01*
X147883000Y-40994000D02*
X148758000Y-40994000D01*
X148758000Y-39904507D02*
X148758000Y-39604000D01*
X148758000Y-40994000D02*
X148758000Y-40693493D01*
%TO.C,INPUT*%
X128029500Y-27619000D02*
X128029500Y-26924000D01*
X128714500Y-27619000D02*
X128029500Y-27619000D01*
X129399500Y-26315724D02*
X129399500Y-26229000D01*
X129399500Y-27619000D02*
X129399500Y-27532276D01*
X129399500Y-26229000D02*
X130274500Y-26229000D01*
X129399500Y-27619000D02*
X130274500Y-27619000D01*
X130274500Y-26529507D02*
X130274500Y-26229000D01*
X130274500Y-27619000D02*
X130274500Y-27318493D01*
%TO.C,R23*%
X158469064Y-26316000D02*
X158014936Y-26316000D01*
X158469064Y-27786000D02*
X158014936Y-27786000D01*
%TO.C,R22*%
X151420564Y-36920500D02*
X150966436Y-36920500D01*
X151420564Y-38390500D02*
X150966436Y-38390500D01*
%TO.C,R21*%
X164628564Y-38254000D02*
X164174436Y-38254000D01*
X164628564Y-39724000D02*
X164174436Y-39724000D01*
%TO.C,R20*%
X144451564Y-39587500D02*
X143997436Y-39587500D01*
X144451564Y-41057500D02*
X143997436Y-41057500D01*
%TO.C,R19*%
X127662000Y-29363936D02*
X127662000Y-29818064D01*
X129132000Y-29363936D02*
X129132000Y-29818064D01*
%TO.C,R18*%
X167269936Y-35596500D02*
X167724064Y-35596500D01*
X167269936Y-34126500D02*
X167724064Y-34126500D01*
%TO.C,R1*%
X117696500Y-39291500D02*
X115856500Y-39291500D01*
X115856500Y-39291500D02*
X115856500Y-43131500D01*
X115856500Y-43131500D02*
X117696500Y-43131500D01*
X117696500Y-43131500D02*
X117696500Y-39291500D01*
X116776500Y-38341500D02*
X116776500Y-39291500D01*
X116776500Y-44081500D02*
X116776500Y-43131500D01*
%TO.C,U6*%
X158178500Y-30206000D02*
X156228500Y-30206000D01*
X158178500Y-30206000D02*
X160128500Y-30206000D01*
X158178500Y-35326000D02*
X156228500Y-35326000D01*
X158178500Y-35326000D02*
X161628500Y-35326000D01*
%TO.C,U5*%
X158051500Y-48788000D02*
X160001500Y-48788000D01*
X158051500Y-48788000D02*
X156101500Y-48788000D01*
X158051500Y-43668000D02*
X160001500Y-43668000D01*
X158051500Y-43668000D02*
X154601500Y-43668000D01*
%TO.C,U4*%
X115942500Y-51413000D02*
X115942500Y-55013000D01*
X115954022Y-55051478D02*
G75*
G03*
X120392500Y-53213000I1838478J1838478D01*
G01*
X115954022Y-51374522D02*
G75*
G02*
X120392500Y-53213000I1838478J-1838478D01*
G01*
%TO.C,U2*%
X115942500Y-64049500D02*
X115942500Y-67649500D01*
X115954022Y-67687978D02*
G75*
G03*
X120392500Y-65849500I1838478J1838478D01*
G01*
X115954022Y-64011022D02*
G75*
G02*
X120392500Y-65849500I1838478J-1838478D01*
G01*
%TO.C,U1*%
X115942500Y-57953500D02*
X115942500Y-61553500D01*
X115954022Y-61591978D02*
G75*
G03*
X120392500Y-59753500I1838478J1838478D01*
G01*
X115954022Y-57915022D02*
G75*
G02*
X120392500Y-59753500I1838478J-1838478D01*
G01*
%TO.C,VDD*%
X127899500Y-56822000D02*
X127899500Y-53922000D01*
X127899500Y-53922000D02*
X130799500Y-53922000D01*
X130799500Y-53922000D02*
X130799500Y-56822000D01*
X130799500Y-56822000D02*
X127899500Y-56822000D01*
%TO.C,+9*%
X136472000Y-56822000D02*
X136472000Y-53922000D01*
X136472000Y-53922000D02*
X139372000Y-53922000D01*
X139372000Y-53922000D02*
X139372000Y-56822000D01*
X139372000Y-56822000D02*
X136472000Y-56822000D01*
%TO.C,GND*%
X111089000Y-19494500D02*
G75*
G03*
X111089000Y-19494500I-2250000J0D01*
G01*
%TO.C,+5*%
X158887500Y-57393500D02*
X158887500Y-54493500D01*
X158887500Y-54493500D02*
X161787500Y-54493500D01*
X161787500Y-54493500D02*
X161787500Y-57393500D01*
X161787500Y-57393500D02*
X158887500Y-57393500D01*
%TO.C,-15*%
X165682000Y-57347001D02*
X165682000Y-54447001D01*
X165682000Y-54447001D02*
X168582000Y-54447001D01*
X168582000Y-54447001D02*
X168582000Y-57347001D01*
X168582000Y-57347001D02*
X165682000Y-57347001D01*
%TO.C,+15*%
X144282500Y-56885500D02*
X144282500Y-53985500D01*
X144282500Y-53985500D02*
X147182500Y-53985500D01*
X147182500Y-53985500D02*
X147182500Y-56885500D01*
X147182500Y-56885500D02*
X144282500Y-56885500D01*
%TO.C,RV2*%
X151027500Y-18898500D02*
X151027500Y-18518500D01*
X151027500Y-23558500D02*
X151027500Y-23178500D01*
X151027500Y-21398500D02*
X151027500Y-20678500D01*
X154767500Y-23558500D02*
X154767500Y-22278500D01*
X154767500Y-19798500D02*
X154767500Y-18518500D01*
X151027500Y-23558500D02*
X154767500Y-23558500D01*
X151027500Y-18518500D02*
X154767500Y-18518500D01*
%TO.C,R14*%
X162841000Y-46709064D02*
X162841000Y-46254936D01*
X164311000Y-46709064D02*
X164311000Y-46254936D01*
%TO.C,R12*%
X156808500Y-41232064D02*
X156808500Y-40777936D01*
X158278500Y-41232064D02*
X158278500Y-40777936D01*
%TO.C,OUT*%
X162245500Y-18139000D02*
X162245500Y-21739000D01*
X169605500Y-18139000D02*
X169605500Y-21739000D01*
X164125500Y-23619000D02*
X167725500Y-23619000D01*
X164125500Y-16259000D02*
X167725500Y-16259000D01*
%TO.C,POWER*%
X110582500Y-60943500D02*
G75*
G03*
X110582500Y-60943500I-1680000J0D01*
G01*
X110582500Y-65943500D02*
G75*
G03*
X110582500Y-65943500I-1680000J0D01*
G01*
X106902500Y-53383500D02*
X106902500Y-68503500D01*
X110902500Y-53383500D02*
X110902500Y-68503500D01*
X112962500Y-53383500D02*
X112962500Y-68503500D01*
X104842500Y-53383500D02*
X104842500Y-68503500D01*
X112962500Y-53383500D02*
X104842500Y-53383500D01*
X112962500Y-68503500D02*
X104842500Y-68503500D01*
X109971500Y-62218500D02*
X109878500Y-62124500D01*
X107686500Y-59933500D02*
X107628500Y-59874500D01*
X110177500Y-62013500D02*
X110118500Y-61954500D01*
X107926500Y-59763500D02*
X107833500Y-59669500D01*
X109971500Y-67218500D02*
X109878500Y-67124500D01*
X107686500Y-64933500D02*
X107628500Y-64874500D01*
X110177500Y-67013500D02*
X110118500Y-66954500D01*
X107926500Y-64763500D02*
X107833500Y-64669500D01*
X106842500Y-53143500D02*
X104602500Y-53143500D01*
X104602500Y-53143500D02*
X104602500Y-55143500D01*
X107222050Y-55972883D02*
G75*
G02*
X107418500Y-55154500I1680450J29383D01*
G01*
X108113412Y-54459547D02*
G75*
G02*
X109691500Y-54459500I789088J-1483953D01*
G01*
X110386453Y-55154412D02*
G75*
G02*
X110386500Y-56732500I-1483953J-789088D01*
G01*
X109691588Y-57427453D02*
G75*
G02*
X108113500Y-57427500I-789088J1483953D01*
G01*
X107419148Y-56732212D02*
G75*
G02*
X107222500Y-55943500I1483352J788712D01*
G01*
%TO.C,I-IN*%
X112226500Y-27879500D02*
X108626500Y-27879500D01*
X112226500Y-35239500D02*
X108626500Y-35239500D01*
X106746500Y-29759500D02*
X106746500Y-33359500D01*
X114106500Y-29759500D02*
X114106500Y-33359500D01*
%TO.C,V-IN*%
X108690000Y-48447500D02*
X112290000Y-48447500D01*
X108690000Y-41087500D02*
X112290000Y-41087500D01*
X114170000Y-46567500D02*
X114170000Y-42967500D01*
X106810000Y-46567500D02*
X106810000Y-42967500D01*
%TO.C,C12*%
X150253752Y-26754500D02*
X148831248Y-26754500D01*
X150253752Y-24934500D02*
X148831248Y-24934500D01*
%TO.C,C6*%
X139107500Y-62902752D02*
X139107500Y-61480248D01*
X140927500Y-62902752D02*
X140927500Y-61480248D01*
%TO.C,C4*%
X159554500Y-63131752D02*
X159554500Y-61709248D01*
X161374500Y-63131752D02*
X161374500Y-61709248D01*
%TO.C,C3*%
X149331000Y-62941252D02*
X149331000Y-61518748D01*
X151151000Y-62941252D02*
X151151000Y-61518748D01*
%TO.C,JP2*%
X144382500Y-34115500D02*
X145782500Y-34115500D01*
X146482500Y-34815500D02*
X146482500Y-35415500D01*
X145782500Y-36115500D02*
X144382500Y-36115500D01*
X143682500Y-35415500D02*
X143682500Y-34815500D01*
X143682500Y-34815500D02*
G75*
G02*
X144382500Y-34115500I700000J0D01*
G01*
X144382500Y-36115500D02*
G75*
G02*
X143682500Y-35415500I0J700000D01*
G01*
X146482500Y-35415500D02*
G75*
G02*
X145782500Y-36115500I-700000J0D01*
G01*
X145782500Y-34115500D02*
G75*
G02*
X146482500Y-34815500I0J-700000D01*
G01*
%TO.C,R11*%
X153071500Y-44661064D02*
X153071500Y-44206936D01*
X151601500Y-44661064D02*
X151601500Y-44206936D01*
%TO.C,U3*%
X136715500Y-30299500D02*
X133265500Y-30299500D01*
X136715500Y-30299500D02*
X138665500Y-30299500D01*
X136715500Y-39169500D02*
X134765500Y-39169500D01*
X136715500Y-39169500D02*
X138665500Y-39169500D01*
%TO.C,C7*%
X131479500Y-66177500D02*
X132104500Y-66177500D01*
X131792000Y-66490000D02*
X131792000Y-65865000D01*
X135172563Y-65625000D02*
X136237000Y-64560563D01*
X131781437Y-65625000D02*
X130717000Y-64560563D01*
X131781437Y-65625000D02*
X132417000Y-65625000D01*
X135172563Y-65625000D02*
X134537000Y-65625000D01*
X136237000Y-64560563D02*
X136237000Y-60105000D01*
X130717000Y-64560563D02*
X130717000Y-60105000D01*
X130717000Y-60105000D02*
X132417000Y-60105000D01*
X136237000Y-60105000D02*
X134537000Y-60105000D01*
%TO.C,SW1*%
X118896500Y-37024000D02*
X118896500Y-38024000D01*
X119396500Y-37524000D02*
X118896500Y-37024000D01*
X118896500Y-38024000D02*
X119396500Y-37524000D01*
X124116500Y-31114000D02*
X123806500Y-31114000D01*
X124116500Y-39934000D02*
X123806500Y-39934000D01*
X119906500Y-39934000D02*
X119596500Y-39934000D01*
X124116500Y-31114000D02*
X124116500Y-39934000D01*
X119596500Y-31114000D02*
X119906500Y-31114000D01*
X119596500Y-39934000D02*
X119596500Y-31114000D01*
%TO.C,RV1*%
X124099000Y-63973000D02*
X124099000Y-60233000D01*
X129139000Y-63973000D02*
X129139000Y-60233000D01*
X125379000Y-60233000D02*
X124099000Y-60233000D01*
X129139000Y-60233000D02*
X127859000Y-60233000D01*
X126979000Y-63973000D02*
X126259000Y-63973000D01*
X129139000Y-63973000D02*
X128759000Y-63973000D01*
X124479000Y-63973000D02*
X124099000Y-63973000D01*
%TO.C,R17*%
X159157936Y-20674000D02*
X159612064Y-20674000D01*
X159157936Y-19204000D02*
X159612064Y-19204000D01*
%TO.C,R16*%
X148499500Y-21039064D02*
X148499500Y-20584936D01*
X147029500Y-21039064D02*
X147029500Y-20584936D01*
%TO.C,R15*%
X164438000Y-36041064D02*
X164438000Y-35586936D01*
X162968000Y-36041064D02*
X162968000Y-35586936D01*
%TO.C,R13*%
X159285000Y-40746436D02*
X159285000Y-41200564D01*
X160755000Y-40746436D02*
X160755000Y-41200564D01*
%TO.C,R10*%
X148743936Y-46629500D02*
X149198064Y-46629500D01*
X148743936Y-45159500D02*
X149198064Y-45159500D01*
%TO.C,R9*%
X138599936Y-66965500D02*
X139054064Y-66965500D01*
X138599936Y-65495500D02*
X139054064Y-65495500D01*
%TO.C,R8*%
X148743936Y-44248500D02*
X149198064Y-44248500D01*
X148743936Y-42778500D02*
X149198064Y-42778500D01*
%TO.C,R7*%
X148759936Y-35025000D02*
X149214064Y-35025000D01*
X148759936Y-33555000D02*
X149214064Y-33555000D01*
%TO.C,R6*%
X155738500Y-56186564D02*
X155738500Y-55732436D01*
X154268500Y-56186564D02*
X154268500Y-55732436D01*
%TO.C,R5*%
X151728500Y-55700436D02*
X151728500Y-56154564D01*
X153198500Y-55700436D02*
X153198500Y-56154564D01*
%TO.C,R4*%
X150785500Y-56170564D02*
X150785500Y-55716436D01*
X149315500Y-56170564D02*
X149315500Y-55716436D01*
%TO.C,R3*%
X127137936Y-36231500D02*
X127592064Y-36231500D01*
X127137936Y-34761500D02*
X127592064Y-34761500D01*
%TO.C,R2*%
X124369500Y-45486564D02*
X124369500Y-45032436D01*
X122899500Y-45486564D02*
X122899500Y-45032436D01*
%TO.C,Q2*%
X128737900Y-47139980D02*
X127277900Y-47139980D01*
X128737900Y-43979980D02*
X126577900Y-43979980D01*
X128737900Y-43979980D02*
X128737900Y-44909980D01*
X128737900Y-47139980D02*
X128737900Y-46209980D01*
%TO.C,Q1*%
X128737900Y-41915200D02*
X127277900Y-41915200D01*
X128737900Y-38755200D02*
X126577900Y-38755200D01*
X128737900Y-38755200D02*
X128737900Y-39685200D01*
X128737900Y-41915200D02*
X128737900Y-40985200D01*
%TO.C,C5*%
X142338000Y-66177500D02*
X142963000Y-66177500D01*
X142650500Y-66490000D02*
X142650500Y-65865000D01*
X146031063Y-65625000D02*
X147095500Y-64560563D01*
X142639937Y-65625000D02*
X141575500Y-64560563D01*
X142639937Y-65625000D02*
X143275500Y-65625000D01*
X146031063Y-65625000D02*
X145395500Y-65625000D01*
X147095500Y-64560563D02*
X147095500Y-60105000D01*
X141575500Y-64560563D02*
X141575500Y-60105000D01*
X141575500Y-60105000D02*
X143275500Y-60105000D01*
X147095500Y-60105000D02*
X145395500Y-60105000D01*
%TO.C,C2*%
X162785000Y-66177500D02*
X163410000Y-66177500D01*
X163097500Y-66490000D02*
X163097500Y-65865000D01*
X166478063Y-65625000D02*
X167542500Y-64560563D01*
X163086937Y-65625000D02*
X162022500Y-64560563D01*
X163086937Y-65625000D02*
X163722500Y-65625000D01*
X166478063Y-65625000D02*
X165842500Y-65625000D01*
X167542500Y-64560563D02*
X167542500Y-60105000D01*
X162022500Y-64560563D02*
X162022500Y-60105000D01*
X162022500Y-60105000D02*
X163722500Y-60105000D01*
X167542500Y-60105000D02*
X165842500Y-60105000D01*
%TO.C,C1*%
X152561500Y-66177500D02*
X153186500Y-66177500D01*
X152874000Y-66490000D02*
X152874000Y-65865000D01*
X156254563Y-65625000D02*
X157319000Y-64560563D01*
X152863437Y-65625000D02*
X151799000Y-64560563D01*
X152863437Y-65625000D02*
X153499000Y-65625000D01*
X156254563Y-65625000D02*
X155619000Y-65625000D01*
X157319000Y-64560563D02*
X157319000Y-60105000D01*
X151799000Y-64560563D02*
X151799000Y-60105000D01*
X151799000Y-60105000D02*
X153499000Y-60105000D01*
X157319000Y-60105000D02*
X155619000Y-60105000D01*
%TO.C,JP3*%
D12*
X143898166Y-29360880D02*
X143898166Y-30075166D01*
X143850547Y-30218023D01*
X143755309Y-30313261D01*
X143612452Y-30360880D01*
X143517214Y-30360880D01*
X144374357Y-30360880D02*
X144374357Y-29360880D01*
X144755309Y-29360880D01*
X144850547Y-29408500D01*
X144898166Y-29456119D01*
X144945785Y-29551357D01*
X144945785Y-29694214D01*
X144898166Y-29789452D01*
X144850547Y-29837071D01*
X144755309Y-29884690D01*
X144374357Y-29884690D01*
X145279119Y-29360880D02*
X145898166Y-29360880D01*
X145564833Y-29741833D01*
X145707690Y-29741833D01*
X145802928Y-29789452D01*
X145850547Y-29837071D01*
X145898166Y-29932309D01*
X145898166Y-30170404D01*
X145850547Y-30265642D01*
X145802928Y-30313261D01*
X145707690Y-30360880D01*
X145421976Y-30360880D01*
X145326738Y-30313261D01*
X145279119Y-30265642D01*
%TO.C,JP1*%
X125468166Y-31075380D02*
X125468166Y-31789666D01*
X125420547Y-31932523D01*
X125325309Y-32027761D01*
X125182452Y-32075380D01*
X125087214Y-32075380D01*
X125944357Y-32075380D02*
X125944357Y-31075380D01*
X126325309Y-31075380D01*
X126420547Y-31123000D01*
X126468166Y-31170619D01*
X126515785Y-31265857D01*
X126515785Y-31408714D01*
X126468166Y-31503952D01*
X126420547Y-31551571D01*
X126325309Y-31599190D01*
X125944357Y-31599190D01*
X127468166Y-32075380D02*
X126896738Y-32075380D01*
X127182452Y-32075380D02*
X127182452Y-31075380D01*
X127087214Y-31218238D01*
X126991976Y-31313476D01*
X126896738Y-31361095D01*
%TO.C,LATCH*%
X159512190Y-25979380D02*
X159036000Y-25979380D01*
X159036000Y-24979380D01*
X159797904Y-25693666D02*
X160274095Y-25693666D01*
X159702666Y-25979380D02*
X160036000Y-24979380D01*
X160369333Y-25979380D01*
X160559809Y-24979380D02*
X161131238Y-24979380D01*
X160845523Y-25979380D02*
X160845523Y-24979380D01*
X162036000Y-25884142D02*
X161988380Y-25931761D01*
X161845523Y-25979380D01*
X161750285Y-25979380D01*
X161607428Y-25931761D01*
X161512190Y-25836523D01*
X161464571Y-25741285D01*
X161416952Y-25550809D01*
X161416952Y-25407952D01*
X161464571Y-25217476D01*
X161512190Y-25122238D01*
X161607428Y-25027000D01*
X161750285Y-24979380D01*
X161845523Y-24979380D01*
X161988380Y-25027000D01*
X162036000Y-25074619D01*
X162464571Y-25979380D02*
X162464571Y-24979380D01*
X162464571Y-25455571D02*
X163036000Y-25455571D01*
X163036000Y-25979380D02*
X163036000Y-24979380D01*
%TO.C,RESET*%
X152344619Y-36647380D02*
X152011285Y-36171190D01*
X151773190Y-36647380D02*
X151773190Y-35647380D01*
X152154142Y-35647380D01*
X152249380Y-35695000D01*
X152297000Y-35742619D01*
X152344619Y-35837857D01*
X152344619Y-35980714D01*
X152297000Y-36075952D01*
X152249380Y-36123571D01*
X152154142Y-36171190D01*
X151773190Y-36171190D01*
X152773190Y-36123571D02*
X153106523Y-36123571D01*
X153249380Y-36647380D02*
X152773190Y-36647380D01*
X152773190Y-35647380D01*
X153249380Y-35647380D01*
X153630333Y-36599761D02*
X153773190Y-36647380D01*
X154011285Y-36647380D01*
X154106523Y-36599761D01*
X154154142Y-36552142D01*
X154201761Y-36456904D01*
X154201761Y-36361666D01*
X154154142Y-36266428D01*
X154106523Y-36218809D01*
X154011285Y-36171190D01*
X153820809Y-36123571D01*
X153725571Y-36075952D01*
X153677952Y-36028333D01*
X153630333Y-35933095D01*
X153630333Y-35837857D01*
X153677952Y-35742619D01*
X153725571Y-35695000D01*
X153820809Y-35647380D01*
X154058904Y-35647380D01*
X154201761Y-35695000D01*
X154630333Y-36123571D02*
X154963666Y-36123571D01*
X155106523Y-36647380D02*
X154630333Y-36647380D01*
X154630333Y-35647380D01*
X155106523Y-35647380D01*
X155392238Y-35647380D02*
X155963666Y-35647380D01*
X155677952Y-36647380D02*
X155677952Y-35647380D01*
%TO.C,INT/4*%
X165201838Y-37968180D02*
X165201838Y-36968180D01*
X165678028Y-37968180D02*
X165678028Y-36968180D01*
X166249457Y-37968180D01*
X166249457Y-36968180D01*
X166582790Y-36968180D02*
X167154219Y-36968180D01*
X166868504Y-37968180D02*
X166868504Y-36968180D01*
X168201838Y-36920561D02*
X167344695Y-38206276D01*
X168963742Y-37301514D02*
X168963742Y-37968180D01*
X168725647Y-36920561D02*
X168487552Y-37634847D01*
X169106600Y-37634847D01*
%TO.C,INT-OUT*%
X142792819Y-39288980D02*
X142792819Y-38288980D01*
X143269009Y-39288980D02*
X143269009Y-38288980D01*
X143840438Y-39288980D01*
X143840438Y-38288980D01*
X144173771Y-38288980D02*
X144745200Y-38288980D01*
X144459485Y-39288980D02*
X144459485Y-38288980D01*
X145078533Y-38908028D02*
X145840438Y-38908028D01*
X146507104Y-38288980D02*
X146697580Y-38288980D01*
X146792819Y-38336600D01*
X146888057Y-38431838D01*
X146935676Y-38622314D01*
X146935676Y-38955647D01*
X146888057Y-39146123D01*
X146792819Y-39241361D01*
X146697580Y-39288980D01*
X146507104Y-39288980D01*
X146411866Y-39241361D01*
X146316628Y-39146123D01*
X146269009Y-38955647D01*
X146269009Y-38622314D01*
X146316628Y-38431838D01*
X146411866Y-38336600D01*
X146507104Y-38288980D01*
X147364247Y-38288980D02*
X147364247Y-39098504D01*
X147411866Y-39193742D01*
X147459485Y-39241361D01*
X147554723Y-39288980D01*
X147745200Y-39288980D01*
X147840438Y-39241361D01*
X147888057Y-39193742D01*
X147935676Y-39098504D01*
X147935676Y-38288980D01*
X148269009Y-38288980D02*
X148840438Y-38288980D01*
X148554723Y-39288980D02*
X148554723Y-38288980D01*
%TO.C,INPUT*%
X127408228Y-26004780D02*
X127408228Y-25004780D01*
X127884419Y-26004780D02*
X127884419Y-25004780D01*
X128455847Y-26004780D01*
X128455847Y-25004780D01*
X128932038Y-26004780D02*
X128932038Y-25004780D01*
X129312990Y-25004780D01*
X129408228Y-25052400D01*
X129455847Y-25100019D01*
X129503466Y-25195257D01*
X129503466Y-25338114D01*
X129455847Y-25433352D01*
X129408228Y-25480971D01*
X129312990Y-25528590D01*
X128932038Y-25528590D01*
X129932038Y-25004780D02*
X129932038Y-25814304D01*
X129979657Y-25909542D01*
X130027276Y-25957161D01*
X130122514Y-26004780D01*
X130312990Y-26004780D01*
X130408228Y-25957161D01*
X130455847Y-25909542D01*
X130503466Y-25814304D01*
X130503466Y-25004780D01*
X130836800Y-25004780D02*
X131408228Y-25004780D01*
X131122514Y-26004780D02*
X131122514Y-25004780D01*
%TO.C,R23*%
X157599142Y-29153380D02*
X157265809Y-28677190D01*
X157027714Y-29153380D02*
X157027714Y-28153380D01*
X157408666Y-28153380D01*
X157503904Y-28201000D01*
X157551523Y-28248619D01*
X157599142Y-28343857D01*
X157599142Y-28486714D01*
X157551523Y-28581952D01*
X157503904Y-28629571D01*
X157408666Y-28677190D01*
X157027714Y-28677190D01*
X157980095Y-28248619D02*
X158027714Y-28201000D01*
X158122952Y-28153380D01*
X158361047Y-28153380D01*
X158456285Y-28201000D01*
X158503904Y-28248619D01*
X158551523Y-28343857D01*
X158551523Y-28439095D01*
X158503904Y-28581952D01*
X157932476Y-29153380D01*
X158551523Y-29153380D01*
X158884857Y-28153380D02*
X159503904Y-28153380D01*
X159170571Y-28534333D01*
X159313428Y-28534333D01*
X159408666Y-28581952D01*
X159456285Y-28629571D01*
X159503904Y-28724809D01*
X159503904Y-28962904D01*
X159456285Y-29058142D01*
X159408666Y-29105761D01*
X159313428Y-29153380D01*
X159027714Y-29153380D01*
X158932476Y-29105761D01*
X158884857Y-29058142D01*
%TO.C,R22*%
X150550642Y-39757880D02*
X150217309Y-39281690D01*
X149979214Y-39757880D02*
X149979214Y-38757880D01*
X150360166Y-38757880D01*
X150455404Y-38805500D01*
X150503023Y-38853119D01*
X150550642Y-38948357D01*
X150550642Y-39091214D01*
X150503023Y-39186452D01*
X150455404Y-39234071D01*
X150360166Y-39281690D01*
X149979214Y-39281690D01*
X150931595Y-38853119D02*
X150979214Y-38805500D01*
X151074452Y-38757880D01*
X151312547Y-38757880D01*
X151407785Y-38805500D01*
X151455404Y-38853119D01*
X151503023Y-38948357D01*
X151503023Y-39043595D01*
X151455404Y-39186452D01*
X150883976Y-39757880D01*
X151503023Y-39757880D01*
X151883976Y-38853119D02*
X151931595Y-38805500D01*
X152026833Y-38757880D01*
X152264928Y-38757880D01*
X152360166Y-38805500D01*
X152407785Y-38853119D01*
X152455404Y-38948357D01*
X152455404Y-39043595D01*
X152407785Y-39186452D01*
X151836357Y-39757880D01*
X152455404Y-39757880D01*
%TO.C,R21*%
X164330142Y-41219380D02*
X163996809Y-40743190D01*
X163758714Y-41219380D02*
X163758714Y-40219380D01*
X164139666Y-40219380D01*
X164234904Y-40267000D01*
X164282523Y-40314619D01*
X164330142Y-40409857D01*
X164330142Y-40552714D01*
X164282523Y-40647952D01*
X164234904Y-40695571D01*
X164139666Y-40743190D01*
X163758714Y-40743190D01*
X164711095Y-40314619D02*
X164758714Y-40267000D01*
X164853952Y-40219380D01*
X165092047Y-40219380D01*
X165187285Y-40267000D01*
X165234904Y-40314619D01*
X165282523Y-40409857D01*
X165282523Y-40505095D01*
X165234904Y-40647952D01*
X164663476Y-41219380D01*
X165282523Y-41219380D01*
X166234904Y-41219380D02*
X165663476Y-41219380D01*
X165949190Y-41219380D02*
X165949190Y-40219380D01*
X165853952Y-40362238D01*
X165758714Y-40457476D01*
X165663476Y-40505095D01*
%TO.C,R20*%
X143581642Y-42424880D02*
X143248309Y-41948690D01*
X143010214Y-42424880D02*
X143010214Y-41424880D01*
X143391166Y-41424880D01*
X143486404Y-41472500D01*
X143534023Y-41520119D01*
X143581642Y-41615357D01*
X143581642Y-41758214D01*
X143534023Y-41853452D01*
X143486404Y-41901071D01*
X143391166Y-41948690D01*
X143010214Y-41948690D01*
X143962595Y-41520119D02*
X144010214Y-41472500D01*
X144105452Y-41424880D01*
X144343547Y-41424880D01*
X144438785Y-41472500D01*
X144486404Y-41520119D01*
X144534023Y-41615357D01*
X144534023Y-41710595D01*
X144486404Y-41853452D01*
X143914976Y-42424880D01*
X144534023Y-42424880D01*
X145153071Y-41424880D02*
X145248309Y-41424880D01*
X145343547Y-41472500D01*
X145391166Y-41520119D01*
X145438785Y-41615357D01*
X145486404Y-41805833D01*
X145486404Y-42043928D01*
X145438785Y-42234404D01*
X145391166Y-42329642D01*
X145343547Y-42377261D01*
X145248309Y-42424880D01*
X145153071Y-42424880D01*
X145057833Y-42377261D01*
X145010214Y-42329642D01*
X144962595Y-42234404D01*
X144914976Y-42043928D01*
X144914976Y-41805833D01*
X144962595Y-41615357D01*
X145010214Y-41520119D01*
X145057833Y-41472500D01*
X145153071Y-41424880D01*
%TO.C,R19*%
X125341142Y-28963880D02*
X125007809Y-28487690D01*
X124769714Y-28963880D02*
X124769714Y-27963880D01*
X125150666Y-27963880D01*
X125245904Y-28011500D01*
X125293523Y-28059119D01*
X125341142Y-28154357D01*
X125341142Y-28297214D01*
X125293523Y-28392452D01*
X125245904Y-28440071D01*
X125150666Y-28487690D01*
X124769714Y-28487690D01*
X126293523Y-28963880D02*
X125722095Y-28963880D01*
X126007809Y-28963880D02*
X126007809Y-27963880D01*
X125912571Y-28106738D01*
X125817333Y-28201976D01*
X125722095Y-28249595D01*
X126769714Y-28963880D02*
X126960190Y-28963880D01*
X127055428Y-28916261D01*
X127103047Y-28868642D01*
X127198285Y-28725785D01*
X127245904Y-28535309D01*
X127245904Y-28154357D01*
X127198285Y-28059119D01*
X127150666Y-28011500D01*
X127055428Y-27963880D01*
X126864952Y-27963880D01*
X126769714Y-28011500D01*
X126722095Y-28059119D01*
X126674476Y-28154357D01*
X126674476Y-28392452D01*
X126722095Y-28487690D01*
X126769714Y-28535309D01*
X126864952Y-28582928D01*
X127055428Y-28582928D01*
X127150666Y-28535309D01*
X127198285Y-28487690D01*
X127245904Y-28392452D01*
%TO.C,R18*%
X166854142Y-33663880D02*
X166520809Y-33187690D01*
X166282714Y-33663880D02*
X166282714Y-32663880D01*
X166663666Y-32663880D01*
X166758904Y-32711500D01*
X166806523Y-32759119D01*
X166854142Y-32854357D01*
X166854142Y-32997214D01*
X166806523Y-33092452D01*
X166758904Y-33140071D01*
X166663666Y-33187690D01*
X166282714Y-33187690D01*
X167806523Y-33663880D02*
X167235095Y-33663880D01*
X167520809Y-33663880D02*
X167520809Y-32663880D01*
X167425571Y-32806738D01*
X167330333Y-32901976D01*
X167235095Y-32949595D01*
X168377952Y-33092452D02*
X168282714Y-33044833D01*
X168235095Y-32997214D01*
X168187476Y-32901976D01*
X168187476Y-32854357D01*
X168235095Y-32759119D01*
X168282714Y-32711500D01*
X168377952Y-32663880D01*
X168568428Y-32663880D01*
X168663666Y-32711500D01*
X168711285Y-32759119D01*
X168758904Y-32854357D01*
X168758904Y-32901976D01*
X168711285Y-32997214D01*
X168663666Y-33044833D01*
X168568428Y-33092452D01*
X168377952Y-33092452D01*
X168282714Y-33140071D01*
X168235095Y-33187690D01*
X168187476Y-33282928D01*
X168187476Y-33473404D01*
X168235095Y-33568642D01*
X168282714Y-33616261D01*
X168377952Y-33663880D01*
X168568428Y-33663880D01*
X168663666Y-33616261D01*
X168711285Y-33568642D01*
X168758904Y-33473404D01*
X168758904Y-33282928D01*
X168711285Y-33187690D01*
X168663666Y-33140071D01*
X168568428Y-33092452D01*
%TO.C,R1*%
X118578333Y-43098980D02*
X118245000Y-42622790D01*
X118006904Y-43098980D02*
X118006904Y-42098980D01*
X118387857Y-42098980D01*
X118483095Y-42146600D01*
X118530714Y-42194219D01*
X118578333Y-42289457D01*
X118578333Y-42432314D01*
X118530714Y-42527552D01*
X118483095Y-42575171D01*
X118387857Y-42622790D01*
X118006904Y-42622790D01*
X119530714Y-43098980D02*
X118959285Y-43098980D01*
X119245000Y-43098980D02*
X119245000Y-42098980D01*
X119149761Y-42241838D01*
X119054523Y-42337076D01*
X118959285Y-42384695D01*
%TO.C,U6*%
X160272595Y-36028380D02*
X160272595Y-36837904D01*
X160320214Y-36933142D01*
X160367833Y-36980761D01*
X160463071Y-37028380D01*
X160653547Y-37028380D01*
X160748785Y-36980761D01*
X160796404Y-36933142D01*
X160844023Y-36837904D01*
X160844023Y-36028380D01*
X161748785Y-36028380D02*
X161558309Y-36028380D01*
X161463071Y-36076000D01*
X161415452Y-36123619D01*
X161320214Y-36266476D01*
X161272595Y-36456952D01*
X161272595Y-36837904D01*
X161320214Y-36933142D01*
X161367833Y-36980761D01*
X161463071Y-37028380D01*
X161653547Y-37028380D01*
X161748785Y-36980761D01*
X161796404Y-36933142D01*
X161844023Y-36837904D01*
X161844023Y-36599809D01*
X161796404Y-36504571D01*
X161748785Y-36456952D01*
X161653547Y-36409333D01*
X161463071Y-36409333D01*
X161367833Y-36456952D01*
X161320214Y-36504571D01*
X161272595Y-36599809D01*
%TO.C,U5*%
X154749595Y-42280380D02*
X154749595Y-43089904D01*
X154797214Y-43185142D01*
X154844833Y-43232761D01*
X154940071Y-43280380D01*
X155130547Y-43280380D01*
X155225785Y-43232761D01*
X155273404Y-43185142D01*
X155321023Y-43089904D01*
X155321023Y-42280380D01*
X156273404Y-42280380D02*
X155797214Y-42280380D01*
X155749595Y-42756571D01*
X155797214Y-42708952D01*
X155892452Y-42661333D01*
X156130547Y-42661333D01*
X156225785Y-42708952D01*
X156273404Y-42756571D01*
X156321023Y-42851809D01*
X156321023Y-43089904D01*
X156273404Y-43185142D01*
X156225785Y-43232761D01*
X156130547Y-43280380D01*
X155892452Y-43280380D01*
X155797214Y-43232761D01*
X155749595Y-43185142D01*
%TO.C,U4*%
X120933495Y-52932080D02*
X120933495Y-53741604D01*
X120981114Y-53836842D01*
X121028733Y-53884461D01*
X121123971Y-53932080D01*
X121314447Y-53932080D01*
X121409685Y-53884461D01*
X121457304Y-53836842D01*
X121504923Y-53741604D01*
X121504923Y-52932080D01*
X122409685Y-53265414D02*
X122409685Y-53932080D01*
X122171590Y-52884461D02*
X121933495Y-53598747D01*
X122552542Y-53598747D01*
%TO.C,U2*%
X120933495Y-65568580D02*
X120933495Y-66378104D01*
X120981114Y-66473342D01*
X121028733Y-66520961D01*
X121123971Y-66568580D01*
X121314447Y-66568580D01*
X121409685Y-66520961D01*
X121457304Y-66473342D01*
X121504923Y-66378104D01*
X121504923Y-65568580D01*
X121933495Y-65663819D02*
X121981114Y-65616200D01*
X122076352Y-65568580D01*
X122314447Y-65568580D01*
X122409685Y-65616200D01*
X122457304Y-65663819D01*
X122504923Y-65759057D01*
X122504923Y-65854295D01*
X122457304Y-65997152D01*
X121885876Y-66568580D01*
X122504923Y-66568580D01*
%TO.C,U1*%
X120933495Y-59472580D02*
X120933495Y-60282104D01*
X120981114Y-60377342D01*
X121028733Y-60424961D01*
X121123971Y-60472580D01*
X121314447Y-60472580D01*
X121409685Y-60424961D01*
X121457304Y-60377342D01*
X121504923Y-60282104D01*
X121504923Y-59472580D01*
X122504923Y-60472580D02*
X121933495Y-60472580D01*
X122219209Y-60472580D02*
X122219209Y-59472580D01*
X122123971Y-59615438D01*
X122028733Y-59710676D01*
X121933495Y-59758295D01*
%TO.C,VDD*%
X128079666Y-52474880D02*
X128413000Y-53474880D01*
X128746333Y-52474880D01*
X129079666Y-53474880D02*
X129079666Y-52474880D01*
X129317761Y-52474880D01*
X129460619Y-52522500D01*
X129555857Y-52617738D01*
X129603476Y-52712976D01*
X129651095Y-52903452D01*
X129651095Y-53046309D01*
X129603476Y-53236785D01*
X129555857Y-53332023D01*
X129460619Y-53427261D01*
X129317761Y-53474880D01*
X129079666Y-53474880D01*
X130079666Y-53474880D02*
X130079666Y-52474880D01*
X130317761Y-52474880D01*
X130460619Y-52522500D01*
X130555857Y-52617738D01*
X130603476Y-52712976D01*
X130651095Y-52903452D01*
X130651095Y-53046309D01*
X130603476Y-53236785D01*
X130555857Y-53332023D01*
X130460619Y-53427261D01*
X130317761Y-53474880D01*
X130079666Y-53474880D01*
%TO.C,+9*%
X137001357Y-53284428D02*
X137763261Y-53284428D01*
X137382309Y-53665380D02*
X137382309Y-52903476D01*
X138287071Y-53665380D02*
X138477547Y-53665380D01*
X138572785Y-53617761D01*
X138620404Y-53570142D01*
X138715642Y-53427285D01*
X138763261Y-53236809D01*
X138763261Y-52855857D01*
X138715642Y-52760619D01*
X138668023Y-52713000D01*
X138572785Y-52665380D01*
X138382309Y-52665380D01*
X138287071Y-52713000D01*
X138239452Y-52760619D01*
X138191833Y-52855857D01*
X138191833Y-53093952D01*
X138239452Y-53189190D01*
X138287071Y-53236809D01*
X138382309Y-53284428D01*
X138572785Y-53284428D01*
X138668023Y-53236809D01*
X138715642Y-53189190D01*
X138763261Y-53093952D01*
%TO.C,GND*%
X108077095Y-16096500D02*
X107981857Y-16048880D01*
X107839000Y-16048880D01*
X107696142Y-16096500D01*
X107600904Y-16191738D01*
X107553285Y-16286976D01*
X107505666Y-16477452D01*
X107505666Y-16620309D01*
X107553285Y-16810785D01*
X107600904Y-16906023D01*
X107696142Y-17001261D01*
X107839000Y-17048880D01*
X107934238Y-17048880D01*
X108077095Y-17001261D01*
X108124714Y-16953642D01*
X108124714Y-16620309D01*
X107934238Y-16620309D01*
X108553285Y-17048880D02*
X108553285Y-16048880D01*
X109124714Y-17048880D01*
X109124714Y-16048880D01*
X109600904Y-17048880D02*
X109600904Y-16048880D01*
X109839000Y-16048880D01*
X109981857Y-16096500D01*
X110077095Y-16191738D01*
X110124714Y-16286976D01*
X110172333Y-16477452D01*
X110172333Y-16620309D01*
X110124714Y-16810785D01*
X110077095Y-16906023D01*
X109981857Y-17001261D01*
X109839000Y-17048880D01*
X109600904Y-17048880D01*
%TO.C,+5*%
X159353357Y-53982928D02*
X160115261Y-53982928D01*
X159734309Y-54363880D02*
X159734309Y-53601976D01*
X161067642Y-53363880D02*
X160591452Y-53363880D01*
X160543833Y-53840071D01*
X160591452Y-53792452D01*
X160686690Y-53744833D01*
X160924785Y-53744833D01*
X161020023Y-53792452D01*
X161067642Y-53840071D01*
X161115261Y-53935309D01*
X161115261Y-54173404D01*
X161067642Y-54268642D01*
X161020023Y-54316261D01*
X160924785Y-54363880D01*
X160686690Y-54363880D01*
X160591452Y-54316261D01*
X160543833Y-54268642D01*
%TO.C,-15*%
X165290666Y-53665428D02*
X166052571Y-53665428D01*
X167052571Y-54046380D02*
X166481142Y-54046380D01*
X166766857Y-54046380D02*
X166766857Y-53046380D01*
X166671619Y-53189238D01*
X166576380Y-53284476D01*
X166481142Y-53332095D01*
X167957333Y-53046380D02*
X167481142Y-53046380D01*
X167433523Y-53522571D01*
X167481142Y-53474952D01*
X167576380Y-53427333D01*
X167814476Y-53427333D01*
X167909714Y-53474952D01*
X167957333Y-53522571D01*
X168004952Y-53617809D01*
X168004952Y-53855904D01*
X167957333Y-53951142D01*
X167909714Y-53998761D01*
X167814476Y-54046380D01*
X167576380Y-54046380D01*
X167481142Y-53998761D01*
X167433523Y-53951142D01*
%TO.C,+15*%
X143954666Y-53347928D02*
X144716571Y-53347928D01*
X144335619Y-53728880D02*
X144335619Y-52966976D01*
X145716571Y-53728880D02*
X145145142Y-53728880D01*
X145430857Y-53728880D02*
X145430857Y-52728880D01*
X145335619Y-52871738D01*
X145240380Y-52966976D01*
X145145142Y-53014595D01*
X146621333Y-52728880D02*
X146145142Y-52728880D01*
X146097523Y-53205071D01*
X146145142Y-53157452D01*
X146240380Y-53109833D01*
X146478476Y-53109833D01*
X146573714Y-53157452D01*
X146621333Y-53205071D01*
X146668952Y-53300309D01*
X146668952Y-53538404D01*
X146621333Y-53633642D01*
X146573714Y-53681261D01*
X146478476Y-53728880D01*
X146240380Y-53728880D01*
X146145142Y-53681261D01*
X146097523Y-53633642D01*
%TO.C,RV2*%
X151042761Y-18168880D02*
X150709428Y-17692690D01*
X150471333Y-18168880D02*
X150471333Y-17168880D01*
X150852285Y-17168880D01*
X150947523Y-17216500D01*
X150995142Y-17264119D01*
X151042761Y-17359357D01*
X151042761Y-17502214D01*
X150995142Y-17597452D01*
X150947523Y-17645071D01*
X150852285Y-17692690D01*
X150471333Y-17692690D01*
X151328476Y-17168880D02*
X151661809Y-18168880D01*
X151995142Y-17168880D01*
X152280857Y-17264119D02*
X152328476Y-17216500D01*
X152423714Y-17168880D01*
X152661809Y-17168880D01*
X152757047Y-17216500D01*
X152804666Y-17264119D01*
X152852285Y-17359357D01*
X152852285Y-17454595D01*
X152804666Y-17597452D01*
X152233238Y-18168880D01*
X152852285Y-18168880D01*
%TO.C,R14*%
X163314142Y-44521380D02*
X162980809Y-44045190D01*
X162742714Y-44521380D02*
X162742714Y-43521380D01*
X163123666Y-43521380D01*
X163218904Y-43569000D01*
X163266523Y-43616619D01*
X163314142Y-43711857D01*
X163314142Y-43854714D01*
X163266523Y-43949952D01*
X163218904Y-43997571D01*
X163123666Y-44045190D01*
X162742714Y-44045190D01*
X164266523Y-44521380D02*
X163695095Y-44521380D01*
X163980809Y-44521380D02*
X163980809Y-43521380D01*
X163885571Y-43664238D01*
X163790333Y-43759476D01*
X163695095Y-43807095D01*
X165123666Y-43854714D02*
X165123666Y-44521380D01*
X164885571Y-43473761D02*
X164647476Y-44188047D01*
X165266523Y-44188047D01*
%TO.C,R12*%
X156583142Y-38869880D02*
X156249809Y-38393690D01*
X156011714Y-38869880D02*
X156011714Y-37869880D01*
X156392666Y-37869880D01*
X156487904Y-37917500D01*
X156535523Y-37965119D01*
X156583142Y-38060357D01*
X156583142Y-38203214D01*
X156535523Y-38298452D01*
X156487904Y-38346071D01*
X156392666Y-38393690D01*
X156011714Y-38393690D01*
X157535523Y-38869880D02*
X156964095Y-38869880D01*
X157249809Y-38869880D02*
X157249809Y-37869880D01*
X157154571Y-38012738D01*
X157059333Y-38107976D01*
X156964095Y-38155595D01*
X157916476Y-37965119D02*
X157964095Y-37917500D01*
X158059333Y-37869880D01*
X158297428Y-37869880D01*
X158392666Y-37917500D01*
X158440285Y-37965119D01*
X158487904Y-38060357D01*
X158487904Y-38155595D01*
X158440285Y-38298452D01*
X157868857Y-38869880D01*
X158487904Y-38869880D01*
%TO.C,OUT*%
X165649400Y-24166580D02*
X165839876Y-24166580D01*
X165935114Y-24214200D01*
X166030352Y-24309438D01*
X166077971Y-24499914D01*
X166077971Y-24833247D01*
X166030352Y-25023723D01*
X165935114Y-25118961D01*
X165839876Y-25166580D01*
X165649400Y-25166580D01*
X165554161Y-25118961D01*
X165458923Y-25023723D01*
X165411304Y-24833247D01*
X165411304Y-24499914D01*
X165458923Y-24309438D01*
X165554161Y-24214200D01*
X165649400Y-24166580D01*
X166506542Y-24166580D02*
X166506542Y-24976104D01*
X166554161Y-25071342D01*
X166601780Y-25118961D01*
X166697019Y-25166580D01*
X166887495Y-25166580D01*
X166982733Y-25118961D01*
X167030352Y-25071342D01*
X167077971Y-24976104D01*
X167077971Y-24166580D01*
X167411304Y-24166580D02*
X167982733Y-24166580D01*
X167697019Y-25166580D02*
X167697019Y-24166580D01*
%TO.C,POWER*%
X106656476Y-52725580D02*
X106656476Y-51725580D01*
X107037428Y-51725580D01*
X107132666Y-51773200D01*
X107180285Y-51820819D01*
X107227904Y-51916057D01*
X107227904Y-52058914D01*
X107180285Y-52154152D01*
X107132666Y-52201771D01*
X107037428Y-52249390D01*
X106656476Y-52249390D01*
X107846952Y-51725580D02*
X108037428Y-51725580D01*
X108132666Y-51773200D01*
X108227904Y-51868438D01*
X108275523Y-52058914D01*
X108275523Y-52392247D01*
X108227904Y-52582723D01*
X108132666Y-52677961D01*
X108037428Y-52725580D01*
X107846952Y-52725580D01*
X107751714Y-52677961D01*
X107656476Y-52582723D01*
X107608857Y-52392247D01*
X107608857Y-52058914D01*
X107656476Y-51868438D01*
X107751714Y-51773200D01*
X107846952Y-51725580D01*
X108608857Y-51725580D02*
X108846952Y-52725580D01*
X109037428Y-52011295D01*
X109227904Y-52725580D01*
X109466000Y-51725580D01*
X109846952Y-52201771D02*
X110180285Y-52201771D01*
X110323142Y-52725580D02*
X109846952Y-52725580D01*
X109846952Y-51725580D01*
X110323142Y-51725580D01*
X111323142Y-52725580D02*
X110989809Y-52249390D01*
X110751714Y-52725580D02*
X110751714Y-51725580D01*
X111132666Y-51725580D01*
X111227904Y-51773200D01*
X111275523Y-51820819D01*
X111323142Y-51916057D01*
X111323142Y-52058914D01*
X111275523Y-52154152D01*
X111227904Y-52201771D01*
X111132666Y-52249390D01*
X110751714Y-52249390D01*
%TO.C,I-IN*%
X109210647Y-27249380D02*
X109210647Y-26249380D01*
X109686838Y-26868428D02*
X110448742Y-26868428D01*
X110924933Y-27249380D02*
X110924933Y-26249380D01*
X111401123Y-27249380D02*
X111401123Y-26249380D01*
X111972552Y-27249380D01*
X111972552Y-26249380D01*
%TO.C,V-IN*%
X108623314Y-38923980D02*
X108956647Y-39923980D01*
X109289980Y-38923980D01*
X109623314Y-39543028D02*
X110385219Y-39543028D01*
X110861409Y-39923980D02*
X110861409Y-38923980D01*
X111337600Y-39923980D02*
X111337600Y-38923980D01*
X111909028Y-39923980D01*
X111909028Y-38923980D01*
%TO.C,C12*%
X147693142Y-24296642D02*
X147645523Y-24344261D01*
X147502666Y-24391880D01*
X147407428Y-24391880D01*
X147264571Y-24344261D01*
X147169333Y-24249023D01*
X147121714Y-24153785D01*
X147074095Y-23963309D01*
X147074095Y-23820452D01*
X147121714Y-23629976D01*
X147169333Y-23534738D01*
X147264571Y-23439500D01*
X147407428Y-23391880D01*
X147502666Y-23391880D01*
X147645523Y-23439500D01*
X147693142Y-23487119D01*
X148645523Y-24391880D02*
X148074095Y-24391880D01*
X148359809Y-24391880D02*
X148359809Y-23391880D01*
X148264571Y-23534738D01*
X148169333Y-23629976D01*
X148074095Y-23677595D01*
X149026476Y-23487119D02*
X149074095Y-23439500D01*
X149169333Y-23391880D01*
X149407428Y-23391880D01*
X149502666Y-23439500D01*
X149550285Y-23487119D01*
X149597904Y-23582357D01*
X149597904Y-23677595D01*
X149550285Y-23820452D01*
X148978857Y-24391880D01*
X149597904Y-24391880D01*
%TO.C,C6*%
X139787333Y-59348642D02*
X139739714Y-59396261D01*
X139596857Y-59443880D01*
X139501619Y-59443880D01*
X139358761Y-59396261D01*
X139263523Y-59301023D01*
X139215904Y-59205785D01*
X139168285Y-59015309D01*
X139168285Y-58872452D01*
X139215904Y-58681976D01*
X139263523Y-58586738D01*
X139358761Y-58491500D01*
X139501619Y-58443880D01*
X139596857Y-58443880D01*
X139739714Y-58491500D01*
X139787333Y-58539119D01*
X140644476Y-58443880D02*
X140454000Y-58443880D01*
X140358761Y-58491500D01*
X140311142Y-58539119D01*
X140215904Y-58681976D01*
X140168285Y-58872452D01*
X140168285Y-59253404D01*
X140215904Y-59348642D01*
X140263523Y-59396261D01*
X140358761Y-59443880D01*
X140549238Y-59443880D01*
X140644476Y-59396261D01*
X140692095Y-59348642D01*
X140739714Y-59253404D01*
X140739714Y-59015309D01*
X140692095Y-58920071D01*
X140644476Y-58872452D01*
X140549238Y-58824833D01*
X140358761Y-58824833D01*
X140263523Y-58872452D01*
X140215904Y-58920071D01*
X140168285Y-59015309D01*
%TO.C,C4*%
X160234333Y-59412142D02*
X160186714Y-59459761D01*
X160043857Y-59507380D01*
X159948619Y-59507380D01*
X159805761Y-59459761D01*
X159710523Y-59364523D01*
X159662904Y-59269285D01*
X159615285Y-59078809D01*
X159615285Y-58935952D01*
X159662904Y-58745476D01*
X159710523Y-58650238D01*
X159805761Y-58555000D01*
X159948619Y-58507380D01*
X160043857Y-58507380D01*
X160186714Y-58555000D01*
X160234333Y-58602619D01*
X161091476Y-58840714D02*
X161091476Y-59507380D01*
X160853380Y-58459761D02*
X160615285Y-59174047D01*
X161234333Y-59174047D01*
%TO.C,C3*%
X149947333Y-59348642D02*
X149899714Y-59396261D01*
X149756857Y-59443880D01*
X149661619Y-59443880D01*
X149518761Y-59396261D01*
X149423523Y-59301023D01*
X149375904Y-59205785D01*
X149328285Y-59015309D01*
X149328285Y-58872452D01*
X149375904Y-58681976D01*
X149423523Y-58586738D01*
X149518761Y-58491500D01*
X149661619Y-58443880D01*
X149756857Y-58443880D01*
X149899714Y-58491500D01*
X149947333Y-58539119D01*
X150280666Y-58443880D02*
X150899714Y-58443880D01*
X150566380Y-58824833D01*
X150709238Y-58824833D01*
X150804476Y-58872452D01*
X150852095Y-58920071D01*
X150899714Y-59015309D01*
X150899714Y-59253404D01*
X150852095Y-59348642D01*
X150804476Y-59396261D01*
X150709238Y-59443880D01*
X150423523Y-59443880D01*
X150328285Y-59396261D01*
X150280666Y-59348642D01*
%TO.C,JP2*%
X143921266Y-32853380D02*
X143921266Y-33567666D01*
X143873647Y-33710523D01*
X143778409Y-33805761D01*
X143635552Y-33853380D01*
X143540314Y-33853380D01*
X144397457Y-33853380D02*
X144397457Y-32853380D01*
X144778409Y-32853380D01*
X144873647Y-32901000D01*
X144921266Y-32948619D01*
X144968885Y-33043857D01*
X144968885Y-33186714D01*
X144921266Y-33281952D01*
X144873647Y-33329571D01*
X144778409Y-33377190D01*
X144397457Y-33377190D01*
X145349838Y-32948619D02*
X145397457Y-32901000D01*
X145492695Y-32853380D01*
X145730790Y-32853380D01*
X145826028Y-32901000D01*
X145873647Y-32948619D01*
X145921266Y-33043857D01*
X145921266Y-33139095D01*
X145873647Y-33281952D01*
X145302219Y-33853380D01*
X145921266Y-33853380D01*
%TO.C,R11*%
X152138142Y-42298880D02*
X151804809Y-41822690D01*
X151566714Y-42298880D02*
X151566714Y-41298880D01*
X151947666Y-41298880D01*
X152042904Y-41346500D01*
X152090523Y-41394119D01*
X152138142Y-41489357D01*
X152138142Y-41632214D01*
X152090523Y-41727452D01*
X152042904Y-41775071D01*
X151947666Y-41822690D01*
X151566714Y-41822690D01*
X153090523Y-42298880D02*
X152519095Y-42298880D01*
X152804809Y-42298880D02*
X152804809Y-41298880D01*
X152709571Y-41441738D01*
X152614333Y-41536976D01*
X152519095Y-41584595D01*
X154042904Y-42298880D02*
X153471476Y-42298880D01*
X153757190Y-42298880D02*
X153757190Y-41298880D01*
X153661952Y-41441738D01*
X153566714Y-41536976D01*
X153471476Y-41584595D01*
%TO.C,U3*%
X132080095Y-28217880D02*
X132080095Y-29027404D01*
X132127714Y-29122642D01*
X132175333Y-29170261D01*
X132270571Y-29217880D01*
X132461047Y-29217880D01*
X132556285Y-29170261D01*
X132603904Y-29122642D01*
X132651523Y-29027404D01*
X132651523Y-28217880D01*
X133032476Y-28217880D02*
X133651523Y-28217880D01*
X133318190Y-28598833D01*
X133461047Y-28598833D01*
X133556285Y-28646452D01*
X133603904Y-28694071D01*
X133651523Y-28789309D01*
X133651523Y-29027404D01*
X133603904Y-29122642D01*
X133556285Y-29170261D01*
X133461047Y-29217880D01*
X133175333Y-29217880D01*
X133080095Y-29170261D01*
X133032476Y-29122642D01*
%TO.C,C7*%
X135596333Y-59793142D02*
X135548714Y-59840761D01*
X135405857Y-59888380D01*
X135310619Y-59888380D01*
X135167761Y-59840761D01*
X135072523Y-59745523D01*
X135024904Y-59650285D01*
X134977285Y-59459809D01*
X134977285Y-59316952D01*
X135024904Y-59126476D01*
X135072523Y-59031238D01*
X135167761Y-58936000D01*
X135310619Y-58888380D01*
X135405857Y-58888380D01*
X135548714Y-58936000D01*
X135596333Y-58983619D01*
X135929666Y-58888380D02*
X136596333Y-58888380D01*
X136167761Y-59888380D01*
%TO.C,SW1*%
X117221166Y-30499261D02*
X117364023Y-30546880D01*
X117602119Y-30546880D01*
X117697357Y-30499261D01*
X117744976Y-30451642D01*
X117792595Y-30356404D01*
X117792595Y-30261166D01*
X117744976Y-30165928D01*
X117697357Y-30118309D01*
X117602119Y-30070690D01*
X117411642Y-30023071D01*
X117316404Y-29975452D01*
X117268785Y-29927833D01*
X117221166Y-29832595D01*
X117221166Y-29737357D01*
X117268785Y-29642119D01*
X117316404Y-29594500D01*
X117411642Y-29546880D01*
X117649738Y-29546880D01*
X117792595Y-29594500D01*
X118125928Y-29546880D02*
X118364023Y-30546880D01*
X118554500Y-29832595D01*
X118744976Y-30546880D01*
X118983071Y-29546880D01*
X119887833Y-30546880D02*
X119316404Y-30546880D01*
X119602119Y-30546880D02*
X119602119Y-29546880D01*
X119506880Y-29689738D01*
X119411642Y-29784976D01*
X119316404Y-29832595D01*
%TO.C,RV1*%
X126023761Y-66111380D02*
X125690428Y-65635190D01*
X125452333Y-66111380D02*
X125452333Y-65111380D01*
X125833285Y-65111380D01*
X125928523Y-65159000D01*
X125976142Y-65206619D01*
X126023761Y-65301857D01*
X126023761Y-65444714D01*
X125976142Y-65539952D01*
X125928523Y-65587571D01*
X125833285Y-65635190D01*
X125452333Y-65635190D01*
X126309476Y-65111380D02*
X126642809Y-66111380D01*
X126976142Y-65111380D01*
X127833285Y-66111380D02*
X127261857Y-66111380D01*
X127547571Y-66111380D02*
X127547571Y-65111380D01*
X127452333Y-65254238D01*
X127357095Y-65349476D01*
X127261857Y-65397095D01*
%TO.C,R17*%
X158996142Y-18740380D02*
X158662809Y-18264190D01*
X158424714Y-18740380D02*
X158424714Y-17740380D01*
X158805666Y-17740380D01*
X158900904Y-17788000D01*
X158948523Y-17835619D01*
X158996142Y-17930857D01*
X158996142Y-18073714D01*
X158948523Y-18168952D01*
X158900904Y-18216571D01*
X158805666Y-18264190D01*
X158424714Y-18264190D01*
X159948523Y-18740380D02*
X159377095Y-18740380D01*
X159662809Y-18740380D02*
X159662809Y-17740380D01*
X159567571Y-17883238D01*
X159472333Y-17978476D01*
X159377095Y-18026095D01*
X160281857Y-17740380D02*
X160948523Y-17740380D01*
X160519952Y-18740380D01*
%TO.C,R16*%
X147248642Y-18724380D02*
X146915309Y-18248190D01*
X146677214Y-18724380D02*
X146677214Y-17724380D01*
X147058166Y-17724380D01*
X147153404Y-17772000D01*
X147201023Y-17819619D01*
X147248642Y-17914857D01*
X147248642Y-18057714D01*
X147201023Y-18152952D01*
X147153404Y-18200571D01*
X147058166Y-18248190D01*
X146677214Y-18248190D01*
X148201023Y-18724380D02*
X147629595Y-18724380D01*
X147915309Y-18724380D02*
X147915309Y-17724380D01*
X147820071Y-17867238D01*
X147724833Y-17962476D01*
X147629595Y-18010095D01*
X149058166Y-17724380D02*
X148867690Y-17724380D01*
X148772452Y-17772000D01*
X148724833Y-17819619D01*
X148629595Y-17962476D01*
X148581976Y-18152952D01*
X148581976Y-18533904D01*
X148629595Y-18629142D01*
X148677214Y-18676761D01*
X148772452Y-18724380D01*
X148962928Y-18724380D01*
X149058166Y-18676761D01*
X149105785Y-18629142D01*
X149153404Y-18533904D01*
X149153404Y-18295809D01*
X149105785Y-18200571D01*
X149058166Y-18152952D01*
X148962928Y-18105333D01*
X148772452Y-18105333D01*
X148677214Y-18152952D01*
X148629595Y-18200571D01*
X148581976Y-18295809D01*
%TO.C,R15*%
X163568142Y-33726380D02*
X163234809Y-33250190D01*
X162996714Y-33726380D02*
X162996714Y-32726380D01*
X163377666Y-32726380D01*
X163472904Y-32774000D01*
X163520523Y-32821619D01*
X163568142Y-32916857D01*
X163568142Y-33059714D01*
X163520523Y-33154952D01*
X163472904Y-33202571D01*
X163377666Y-33250190D01*
X162996714Y-33250190D01*
X164520523Y-33726380D02*
X163949095Y-33726380D01*
X164234809Y-33726380D02*
X164234809Y-32726380D01*
X164139571Y-32869238D01*
X164044333Y-32964476D01*
X163949095Y-33012095D01*
X165425285Y-32726380D02*
X164949095Y-32726380D01*
X164901476Y-33202571D01*
X164949095Y-33154952D01*
X165044333Y-33107333D01*
X165282428Y-33107333D01*
X165377666Y-33154952D01*
X165425285Y-33202571D01*
X165472904Y-33297809D01*
X165472904Y-33535904D01*
X165425285Y-33631142D01*
X165377666Y-33678761D01*
X165282428Y-33726380D01*
X165044333Y-33726380D01*
X164949095Y-33678761D01*
X164901476Y-33631142D01*
%TO.C,R13*%
X159694642Y-38949380D02*
X159361309Y-38473190D01*
X159123214Y-38949380D02*
X159123214Y-37949380D01*
X159504166Y-37949380D01*
X159599404Y-37997000D01*
X159647023Y-38044619D01*
X159694642Y-38139857D01*
X159694642Y-38282714D01*
X159647023Y-38377952D01*
X159599404Y-38425571D01*
X159504166Y-38473190D01*
X159123214Y-38473190D01*
X160647023Y-38949380D02*
X160075595Y-38949380D01*
X160361309Y-38949380D02*
X160361309Y-37949380D01*
X160266071Y-38092238D01*
X160170833Y-38187476D01*
X160075595Y-38235095D01*
X160980357Y-37949380D02*
X161599404Y-37949380D01*
X161266071Y-38330333D01*
X161408928Y-38330333D01*
X161504166Y-38377952D01*
X161551785Y-38425571D01*
X161599404Y-38520809D01*
X161599404Y-38758904D01*
X161551785Y-38854142D01*
X161504166Y-38901761D01*
X161408928Y-38949380D01*
X161123214Y-38949380D01*
X161027976Y-38901761D01*
X160980357Y-38854142D01*
%TO.C,R10*%
X149090142Y-48013880D02*
X148756809Y-47537690D01*
X148518714Y-48013880D02*
X148518714Y-47013880D01*
X148899666Y-47013880D01*
X148994904Y-47061500D01*
X149042523Y-47109119D01*
X149090142Y-47204357D01*
X149090142Y-47347214D01*
X149042523Y-47442452D01*
X148994904Y-47490071D01*
X148899666Y-47537690D01*
X148518714Y-47537690D01*
X150042523Y-48013880D02*
X149471095Y-48013880D01*
X149756809Y-48013880D02*
X149756809Y-47013880D01*
X149661571Y-47156738D01*
X149566333Y-47251976D01*
X149471095Y-47299595D01*
X150661571Y-47013880D02*
X150756809Y-47013880D01*
X150852047Y-47061500D01*
X150899666Y-47109119D01*
X150947285Y-47204357D01*
X150994904Y-47394833D01*
X150994904Y-47632928D01*
X150947285Y-47823404D01*
X150899666Y-47918642D01*
X150852047Y-47966261D01*
X150756809Y-48013880D01*
X150661571Y-48013880D01*
X150566333Y-47966261D01*
X150518714Y-47918642D01*
X150471095Y-47823404D01*
X150423476Y-47632928D01*
X150423476Y-47394833D01*
X150471095Y-47204357D01*
X150518714Y-47109119D01*
X150566333Y-47061500D01*
X150661571Y-47013880D01*
%TO.C,R9*%
X140168333Y-68460880D02*
X139835000Y-67984690D01*
X139596904Y-68460880D02*
X139596904Y-67460880D01*
X139977857Y-67460880D01*
X140073095Y-67508500D01*
X140120714Y-67556119D01*
X140168333Y-67651357D01*
X140168333Y-67794214D01*
X140120714Y-67889452D01*
X140073095Y-67937071D01*
X139977857Y-67984690D01*
X139596904Y-67984690D01*
X140644523Y-68460880D02*
X140835000Y-68460880D01*
X140930238Y-68413261D01*
X140977857Y-68365642D01*
X141073095Y-68222785D01*
X141120714Y-68032309D01*
X141120714Y-67651357D01*
X141073095Y-67556119D01*
X141025476Y-67508500D01*
X140930238Y-67460880D01*
X140739761Y-67460880D01*
X140644523Y-67508500D01*
X140596904Y-67556119D01*
X140549285Y-67651357D01*
X140549285Y-67889452D01*
X140596904Y-67984690D01*
X140644523Y-68032309D01*
X140739761Y-68079928D01*
X140930238Y-68079928D01*
X141025476Y-68032309D01*
X141073095Y-67984690D01*
X141120714Y-67889452D01*
%TO.C,R8*%
X149693333Y-42171880D02*
X149360000Y-41695690D01*
X149121904Y-42171880D02*
X149121904Y-41171880D01*
X149502857Y-41171880D01*
X149598095Y-41219500D01*
X149645714Y-41267119D01*
X149693333Y-41362357D01*
X149693333Y-41505214D01*
X149645714Y-41600452D01*
X149598095Y-41648071D01*
X149502857Y-41695690D01*
X149121904Y-41695690D01*
X150264761Y-41600452D02*
X150169523Y-41552833D01*
X150121904Y-41505214D01*
X150074285Y-41409976D01*
X150074285Y-41362357D01*
X150121904Y-41267119D01*
X150169523Y-41219500D01*
X150264761Y-41171880D01*
X150455238Y-41171880D01*
X150550476Y-41219500D01*
X150598095Y-41267119D01*
X150645714Y-41362357D01*
X150645714Y-41409976D01*
X150598095Y-41505214D01*
X150550476Y-41552833D01*
X150455238Y-41600452D01*
X150264761Y-41600452D01*
X150169523Y-41648071D01*
X150121904Y-41695690D01*
X150074285Y-41790928D01*
X150074285Y-41981404D01*
X150121904Y-42076642D01*
X150169523Y-42124261D01*
X150264761Y-42171880D01*
X150455238Y-42171880D01*
X150550476Y-42124261D01*
X150598095Y-42076642D01*
X150645714Y-41981404D01*
X150645714Y-41790928D01*
X150598095Y-41695690D01*
X150550476Y-41648071D01*
X150455238Y-41600452D01*
%TO.C,R7*%
X147931333Y-33202380D02*
X147598000Y-32726190D01*
X147359904Y-33202380D02*
X147359904Y-32202380D01*
X147740857Y-32202380D01*
X147836095Y-32250000D01*
X147883714Y-32297619D01*
X147931333Y-32392857D01*
X147931333Y-32535714D01*
X147883714Y-32630952D01*
X147836095Y-32678571D01*
X147740857Y-32726190D01*
X147359904Y-32726190D01*
X148264666Y-32202380D02*
X148931333Y-32202380D01*
X148502761Y-33202380D01*
%TO.C,R6*%
X154836833Y-53855880D02*
X154503500Y-53379690D01*
X154265404Y-53855880D02*
X154265404Y-52855880D01*
X154646357Y-52855880D01*
X154741595Y-52903500D01*
X154789214Y-52951119D01*
X154836833Y-53046357D01*
X154836833Y-53189214D01*
X154789214Y-53284452D01*
X154741595Y-53332071D01*
X154646357Y-53379690D01*
X154265404Y-53379690D01*
X155693976Y-52855880D02*
X155503500Y-52855880D01*
X155408261Y-52903500D01*
X155360642Y-52951119D01*
X155265404Y-53093976D01*
X155217785Y-53284452D01*
X155217785Y-53665404D01*
X155265404Y-53760642D01*
X155313023Y-53808261D01*
X155408261Y-53855880D01*
X155598738Y-53855880D01*
X155693976Y-53808261D01*
X155741595Y-53760642D01*
X155789214Y-53665404D01*
X155789214Y-53427309D01*
X155741595Y-53332071D01*
X155693976Y-53284452D01*
X155598738Y-53236833D01*
X155408261Y-53236833D01*
X155313023Y-53284452D01*
X155265404Y-53332071D01*
X155217785Y-53427309D01*
%TO.C,R5*%
X152233333Y-52458880D02*
X151900000Y-51982690D01*
X151661904Y-52458880D02*
X151661904Y-51458880D01*
X152042857Y-51458880D01*
X152138095Y-51506500D01*
X152185714Y-51554119D01*
X152233333Y-51649357D01*
X152233333Y-51792214D01*
X152185714Y-51887452D01*
X152138095Y-51935071D01*
X152042857Y-51982690D01*
X151661904Y-51982690D01*
X153138095Y-51458880D02*
X152661904Y-51458880D01*
X152614285Y-51935071D01*
X152661904Y-51887452D01*
X152757142Y-51839833D01*
X152995238Y-51839833D01*
X153090476Y-51887452D01*
X153138095Y-51935071D01*
X153185714Y-52030309D01*
X153185714Y-52268404D01*
X153138095Y-52363642D01*
X153090476Y-52411261D01*
X152995238Y-52458880D01*
X152757142Y-52458880D01*
X152661904Y-52411261D01*
X152614285Y-52363642D01*
%TO.C,R4*%
X149756833Y-53601880D02*
X149423500Y-53125690D01*
X149185404Y-53601880D02*
X149185404Y-52601880D01*
X149566357Y-52601880D01*
X149661595Y-52649500D01*
X149709214Y-52697119D01*
X149756833Y-52792357D01*
X149756833Y-52935214D01*
X149709214Y-53030452D01*
X149661595Y-53078071D01*
X149566357Y-53125690D01*
X149185404Y-53125690D01*
X150613976Y-52935214D02*
X150613976Y-53601880D01*
X150375880Y-52554261D02*
X150137785Y-53268547D01*
X150756833Y-53268547D01*
%TO.C,R3*%
X126007833Y-34297880D02*
X125674500Y-33821690D01*
X125436404Y-34297880D02*
X125436404Y-33297880D01*
X125817357Y-33297880D01*
X125912595Y-33345500D01*
X125960214Y-33393119D01*
X126007833Y-33488357D01*
X126007833Y-33631214D01*
X125960214Y-33726452D01*
X125912595Y-33774071D01*
X125817357Y-33821690D01*
X125436404Y-33821690D01*
X126341166Y-33297880D02*
X126960214Y-33297880D01*
X126626880Y-33678833D01*
X126769738Y-33678833D01*
X126864976Y-33726452D01*
X126912595Y-33774071D01*
X126960214Y-33869309D01*
X126960214Y-34107404D01*
X126912595Y-34202642D01*
X126864976Y-34250261D01*
X126769738Y-34297880D01*
X126484023Y-34297880D01*
X126388785Y-34250261D01*
X126341166Y-34202642D01*
%TO.C,R2*%
X123547333Y-42981380D02*
X123214000Y-42505190D01*
X122975904Y-42981380D02*
X122975904Y-41981380D01*
X123356857Y-41981380D01*
X123452095Y-42029000D01*
X123499714Y-42076619D01*
X123547333Y-42171857D01*
X123547333Y-42314714D01*
X123499714Y-42409952D01*
X123452095Y-42457571D01*
X123356857Y-42505190D01*
X122975904Y-42505190D01*
X123928285Y-42076619D02*
X123975904Y-42029000D01*
X124071142Y-41981380D01*
X124309238Y-41981380D01*
X124404476Y-42029000D01*
X124452095Y-42076619D01*
X124499714Y-42171857D01*
X124499714Y-42267095D01*
X124452095Y-42409952D01*
X123880666Y-42981380D01*
X124499714Y-42981380D01*
%TO.C,Q2*%
X127882661Y-43607599D02*
X127787423Y-43559980D01*
X127692185Y-43464741D01*
X127549328Y-43321884D01*
X127454090Y-43274265D01*
X127358852Y-43274265D01*
X127406471Y-43512360D02*
X127311233Y-43464741D01*
X127215995Y-43369503D01*
X127168376Y-43179027D01*
X127168376Y-42845694D01*
X127215995Y-42655218D01*
X127311233Y-42559980D01*
X127406471Y-42512360D01*
X127596947Y-42512360D01*
X127692185Y-42559980D01*
X127787423Y-42655218D01*
X127835042Y-42845694D01*
X127835042Y-43179027D01*
X127787423Y-43369503D01*
X127692185Y-43464741D01*
X127596947Y-43512360D01*
X127406471Y-43512360D01*
X128215995Y-42607599D02*
X128263614Y-42559980D01*
X128358852Y-42512360D01*
X128596947Y-42512360D01*
X128692185Y-42559980D01*
X128739804Y-42607599D01*
X128787423Y-42702837D01*
X128787423Y-42798075D01*
X128739804Y-42940932D01*
X128168376Y-43512360D01*
X128787423Y-43512360D01*
%TO.C,Q1*%
X127882661Y-38382819D02*
X127787423Y-38335200D01*
X127692185Y-38239961D01*
X127549328Y-38097104D01*
X127454090Y-38049485D01*
X127358852Y-38049485D01*
X127406471Y-38287580D02*
X127311233Y-38239961D01*
X127215995Y-38144723D01*
X127168376Y-37954247D01*
X127168376Y-37620914D01*
X127215995Y-37430438D01*
X127311233Y-37335200D01*
X127406471Y-37287580D01*
X127596947Y-37287580D01*
X127692185Y-37335200D01*
X127787423Y-37430438D01*
X127835042Y-37620914D01*
X127835042Y-37954247D01*
X127787423Y-38144723D01*
X127692185Y-38239961D01*
X127596947Y-38287580D01*
X127406471Y-38287580D01*
X128787423Y-38287580D02*
X128215995Y-38287580D01*
X128501709Y-38287580D02*
X128501709Y-37287580D01*
X128406471Y-37430438D01*
X128311233Y-37525676D01*
X128215995Y-37573295D01*
%TO.C,C5*%
X146327833Y-59793142D02*
X146280214Y-59840761D01*
X146137357Y-59888380D01*
X146042119Y-59888380D01*
X145899261Y-59840761D01*
X145804023Y-59745523D01*
X145756404Y-59650285D01*
X145708785Y-59459809D01*
X145708785Y-59316952D01*
X145756404Y-59126476D01*
X145804023Y-59031238D01*
X145899261Y-58936000D01*
X146042119Y-58888380D01*
X146137357Y-58888380D01*
X146280214Y-58936000D01*
X146327833Y-58983619D01*
X147232595Y-58888380D02*
X146756404Y-58888380D01*
X146708785Y-59364571D01*
X146756404Y-59316952D01*
X146851642Y-59269333D01*
X147089738Y-59269333D01*
X147184976Y-59316952D01*
X147232595Y-59364571D01*
X147280214Y-59459809D01*
X147280214Y-59697904D01*
X147232595Y-59793142D01*
X147184976Y-59840761D01*
X147089738Y-59888380D01*
X146851642Y-59888380D01*
X146756404Y-59840761D01*
X146708785Y-59793142D01*
%TO.C,C2*%
X166647833Y-59602642D02*
X166600214Y-59650261D01*
X166457357Y-59697880D01*
X166362119Y-59697880D01*
X166219261Y-59650261D01*
X166124023Y-59555023D01*
X166076404Y-59459785D01*
X166028785Y-59269309D01*
X166028785Y-59126452D01*
X166076404Y-58935976D01*
X166124023Y-58840738D01*
X166219261Y-58745500D01*
X166362119Y-58697880D01*
X166457357Y-58697880D01*
X166600214Y-58745500D01*
X166647833Y-58793119D01*
X167028785Y-58793119D02*
X167076404Y-58745500D01*
X167171642Y-58697880D01*
X167409738Y-58697880D01*
X167504976Y-58745500D01*
X167552595Y-58793119D01*
X167600214Y-58888357D01*
X167600214Y-58983595D01*
X167552595Y-59126452D01*
X166981166Y-59697880D01*
X167600214Y-59697880D01*
%TO.C,C1*%
X156551333Y-59793142D02*
X156503714Y-59840761D01*
X156360857Y-59888380D01*
X156265619Y-59888380D01*
X156122761Y-59840761D01*
X156027523Y-59745523D01*
X155979904Y-59650285D01*
X155932285Y-59459809D01*
X155932285Y-59316952D01*
X155979904Y-59126476D01*
X156027523Y-59031238D01*
X156122761Y-58936000D01*
X156265619Y-58888380D01*
X156360857Y-58888380D01*
X156503714Y-58936000D01*
X156551333Y-58983619D01*
X157503714Y-59888380D02*
X156932285Y-59888380D01*
X157218000Y-59888380D02*
X157218000Y-58888380D01*
X157122761Y-59031238D01*
X157027523Y-59126476D01*
X156932285Y-59174095D01*
%TD*%
M02*
