M48
; DRILL file {KiCad (5.1.8-0-10_14)} date Thursday, February 24, 2022 at 11:51:43 AM
; FORMAT={-:-/ absolute / inch / decimal}
; #@! TF.CreationDate,2022-02-24T11:51:43-06:00
; #@! TF.GenerationSoftware,Kicad,Pcbnew,(5.1.8-0-10_14)
FMAT,2
INCH
T1C0.0157
T2C0.0197
T3C0.0315
T4C0.0433
T5C0.0512
T6C0.0551
T7C0.0591
T8C0.0669
T9C0.1260
%
G90
G05
T1
X4.5725Y-1.995
X4.6Y-2.4325
X4.6125Y-2.225
X4.6475Y-2.2225
X4.6525Y-1.335
X4.6525Y-1.7625
X4.8248Y-1.3376
X4.9835Y-2.3025
X5.004Y-1.9535
X5.045Y-2.3025
X5.0775Y-1.9625
X5.0975Y-2.3025
X5.1425Y-1.9625
X5.1525Y-2.3025
X5.185Y-2.3025
X5.19Y-1.9625
X5.225Y-2.255
X5.2325Y-0.8525
X5.2333Y-2.3008
X5.2375Y-2.3525
X5.245Y-1.9625
X5.295Y-1.9625
X5.31Y-1.13
X5.3525Y-1.6775
X5.37Y-1.9625
X5.3788Y-1.7037
X5.4Y-1.725
X5.4175Y-1.1325
X5.6075Y-1.4025
X5.62Y-1.085
X5.62Y-1.2925
X5.6201Y-1.2425
X5.6375Y-1.3425
X5.65Y-1.945
X5.6525Y-1.7825
X5.6525Y-1.835
X5.6525Y-1.99
X5.7175Y-0.685
X5.72Y-2.6225
X5.725Y-2.565
X5.815Y-1.295
X5.8325Y-1.1925
X5.835Y-0.985
X5.93Y-1.2775
X5.9331Y-1.1744
X5.945Y-0.7725
X5.99Y-1.955
X5.99Y-1.995
X5.9925Y-1.71
X6.05Y-1.5675
X6.0775Y-2.5775
X6.0775Y-2.625
X6.195Y-2.2525
X6.2075Y-2.68
X6.2875Y-2.6825
X6.315Y-1.7275
X6.325Y-1.5725
X6.3333Y-1.4967
X6.6625Y-1.6225
X6.6625Y-2.31
X6.665Y-1.525
X6.6675Y-1.6725
X6.6675Y-1.7225
X6.68Y-2.1825
T2
X6.49Y-1.8775
X5.5825Y-1.5725
X5.5675Y-2.2225
X5.585Y-0.755
X5.7175Y-1.5725
X6.0175Y-0.885
X5.025Y-1.415
X6.1175Y-1.2725
X6.1925Y-1.07
T3
X5.09Y-0.975
X5.09Y-1.0538
X5.09Y-1.1325
X6.405Y-2.1023
X6.405Y-2.1811
X6.405Y-2.2598
T4
X4.8425Y-1.5625
X5.2425Y-1.5625
X5.4075Y-2.2125
X5.4075Y-2.6125
X5.4425Y-1.5625
X5.4425Y-1.9625
X4.8075Y-2.6125
X5.2075Y-2.6125
T5
X4.2975Y-1.8938
X4.2975Y-2.0906
X4.2975Y-2.2875
T6
X4.3975Y-1.3606
X4.3975Y-1.5575
T7
X6.52Y-1.075
X5.09Y-0.8923
X5.09Y-1.2152
X4.65Y-0.84
X6.405Y-2.0197
X6.405Y-2.3425
T8
X6.42Y-0.975
X6.42Y-1.175
X6.62Y-0.975
X6.62Y-1.175
X4.55Y-0.74
X4.55Y-0.94
X4.75Y-0.74
X4.75Y-0.94
T9
X6.5945Y-0.7283
X4.2323Y-0.7283
X6.5945Y-2.5787
X4.2323Y-2.5787
T0
M30
