%TF.GenerationSoftware,KiCad,Pcbnew,(5.1.8-0-10_14)*%
%TF.CreationDate,2022-02-24T11:51:48-06:00*%
%TF.ProjectId,SAQ_KiCad,5341515f-4b69-4436-9164-2e6b69636164,rev?*%
%TF.SameCoordinates,Original*%
%TF.FileFunction,Legend,Top*%
%TF.FilePolarity,Positive*%
%FSLAX46Y46*%
G04 Gerber Fmt 4.6, Leading zero omitted, Abs format (unit mm)*
G04 Created by KiCad (PCBNEW (5.1.8-0-10_14)) date 2022-02-24 11:51:48*
%MOMM*%
%LPD*%
G01*
G04 APERTURE LIST*
%ADD10C,0.120000*%
%ADD11C,0.150000*%
G04 APERTURE END LIST*
D10*
%TO.C,J3*%
X116310000Y-17656000D02*
X119910000Y-17656000D01*
X116310000Y-25016000D02*
X119910000Y-25016000D01*
X121790000Y-19536000D02*
X121790000Y-23136000D01*
X114430000Y-19536000D02*
X114430000Y-23136000D01*
%TO.C,J4*%
X163808000Y-23625000D02*
X167408000Y-23625000D01*
X163808000Y-30985000D02*
X167408000Y-30985000D01*
X169288000Y-25505000D02*
X169288000Y-29105000D01*
X161928000Y-25505000D02*
X161928000Y-29105000D01*
%TO.C,U4*%
X145226000Y-29634500D02*
X143276000Y-29634500D01*
X145226000Y-29634500D02*
X147176000Y-29634500D01*
X145226000Y-34754500D02*
X143276000Y-34754500D01*
X145226000Y-34754500D02*
X148676000Y-34754500D01*
%TO.C,TP9*%
X126935000Y-36641000D02*
X126935000Y-35241000D01*
X128335000Y-36641000D02*
X126935000Y-36641000D01*
X128335000Y-35241000D02*
X128335000Y-36641000D01*
X126935000Y-35241000D02*
X128335000Y-35241000D01*
%TO.C,TP8*%
X144524500Y-40641500D02*
X144524500Y-39241500D01*
X145924500Y-40641500D02*
X144524500Y-40641500D01*
X145924500Y-39241500D02*
X145924500Y-40641500D01*
X144524500Y-39241500D02*
X145924500Y-39241500D01*
%TO.C,TP7*%
X140714500Y-57151500D02*
X140714500Y-55751500D01*
X142114500Y-57151500D02*
X140714500Y-57151500D01*
X142114500Y-55751500D02*
X142114500Y-57151500D01*
X140714500Y-55751500D02*
X142114500Y-55751500D01*
%TO.C,TP6*%
X141095500Y-40641500D02*
X141095500Y-39241500D01*
X142495500Y-40641500D02*
X141095500Y-40641500D01*
X142495500Y-39241500D02*
X142495500Y-40641500D01*
X141095500Y-39241500D02*
X142495500Y-39241500D01*
%TO.C,TP5*%
X164146000Y-48388500D02*
X164146000Y-46988500D01*
X165546000Y-48388500D02*
X164146000Y-48388500D01*
X165546000Y-46988500D02*
X165546000Y-48388500D01*
X164146000Y-46988500D02*
X165546000Y-46988500D01*
%TO.C,TP4*%
X156589500Y-27878000D02*
X156589500Y-26478000D01*
X157989500Y-27878000D02*
X156589500Y-27878000D01*
X157989500Y-26478000D02*
X157989500Y-27878000D01*
X156589500Y-26478000D02*
X157989500Y-26478000D01*
%TO.C,TP3*%
X154684500Y-33021500D02*
X154684500Y-31621500D01*
X156084500Y-33021500D02*
X154684500Y-33021500D01*
X156084500Y-31621500D02*
X156084500Y-33021500D01*
X154684500Y-31621500D02*
X156084500Y-31621500D01*
%TO.C,TP2*%
X152144500Y-23179000D02*
X152144500Y-21779000D01*
X153544500Y-23179000D02*
X152144500Y-23179000D01*
X153544500Y-21779000D02*
X153544500Y-23179000D01*
X152144500Y-21779000D02*
X153544500Y-21779000D01*
%TO.C,TP1*%
X141159000Y-19877000D02*
X141159000Y-18477000D01*
X142559000Y-19877000D02*
X141159000Y-19877000D01*
X142559000Y-18477000D02*
X142559000Y-19877000D01*
X141159000Y-18477000D02*
X142559000Y-18477000D01*
%TO.C,U3*%
X145295620Y-28226700D02*
X147245620Y-28226700D01*
X145295620Y-28226700D02*
X143345620Y-28226700D01*
X145295620Y-23106700D02*
X147245620Y-23106700D01*
X145295620Y-23106700D02*
X141845620Y-23106700D01*
%TO.C,U2*%
X131640500Y-61893500D02*
X131640500Y-60633500D01*
X131640500Y-55073500D02*
X131640500Y-56333500D01*
X127880500Y-61893500D02*
X131640500Y-61893500D01*
X125630500Y-55073500D02*
X131640500Y-55073500D01*
%TO.C,U1*%
X131901720Y-50471120D02*
X131901720Y-49211120D01*
X131901720Y-43651120D02*
X131901720Y-44911120D01*
X128141720Y-50471120D02*
X131901720Y-50471120D01*
X125891720Y-43651120D02*
X131901720Y-43651120D01*
%TO.C,SW2*%
X160427000Y-59809500D02*
X160427000Y-50989500D01*
X160427000Y-50989500D02*
X160737000Y-50989500D01*
X164947000Y-50989500D02*
X164947000Y-59809500D01*
X160737000Y-59809500D02*
X160427000Y-59809500D01*
X164947000Y-59809500D02*
X164637000Y-59809500D01*
X164947000Y-50989500D02*
X164637000Y-50989500D01*
X159727000Y-57899500D02*
X160227000Y-57399500D01*
X160227000Y-57399500D02*
X159727000Y-56899500D01*
X159727000Y-56899500D02*
X159727000Y-57899500D01*
%TO.C,SW1*%
X127026000Y-31175500D02*
X127026000Y-22355500D01*
X127026000Y-22355500D02*
X127336000Y-22355500D01*
X131546000Y-22355500D02*
X131546000Y-31175500D01*
X127336000Y-31175500D02*
X127026000Y-31175500D01*
X131546000Y-31175500D02*
X131236000Y-31175500D01*
X131546000Y-22355500D02*
X131236000Y-22355500D01*
X126326000Y-29265500D02*
X126826000Y-28765500D01*
X126826000Y-28765500D02*
X126326000Y-28265500D01*
X126326000Y-28265500D02*
X126326000Y-29265500D01*
%TO.C,RV1*%
X154476500Y-39468500D02*
X154856500Y-39468500D01*
X149816500Y-39468500D02*
X150196500Y-39468500D01*
X151976500Y-39468500D02*
X152696500Y-39468500D01*
X149816500Y-43208500D02*
X151096500Y-43208500D01*
X153576500Y-43208500D02*
X154856500Y-43208500D01*
X149816500Y-39468500D02*
X149816500Y-43208500D01*
X154856500Y-39468500D02*
X154856500Y-43208500D01*
%TO.C,R16*%
X151944564Y-30580000D02*
X151490436Y-30580000D01*
X151944564Y-29110000D02*
X151490436Y-29110000D01*
%TO.C,R14*%
X150230064Y-20293000D02*
X149775936Y-20293000D01*
X150230064Y-18823000D02*
X149775936Y-18823000D01*
%TO.C,R13*%
X151537936Y-25411000D02*
X151992064Y-25411000D01*
X151537936Y-26881000D02*
X151992064Y-26881000D01*
%TO.C,R12*%
X138466336Y-27977160D02*
X138920464Y-27977160D01*
X138466336Y-29447160D02*
X138920464Y-29447160D01*
%TO.C,R11*%
X138466336Y-24299240D02*
X138920464Y-24299240D01*
X138466336Y-25769240D02*
X138920464Y-25769240D01*
%TO.C,R10*%
X134139000Y-27929064D02*
X134139000Y-27474936D01*
X135609000Y-27929064D02*
X135609000Y-27474936D01*
%TO.C,R9*%
X156500564Y-58075500D02*
X156046436Y-58075500D01*
X156500564Y-56605500D02*
X156046436Y-56605500D01*
%TO.C,R8*%
X151039564Y-58075500D02*
X150585436Y-58075500D01*
X151039564Y-56605500D02*
X150585436Y-56605500D01*
%TO.C,R7*%
X148753500Y-40730436D02*
X148753500Y-41184564D01*
X147283500Y-40730436D02*
X147283500Y-41184564D01*
%TO.C,R6*%
X146324564Y-57948500D02*
X145870436Y-57948500D01*
X146324564Y-56478500D02*
X145870436Y-56478500D01*
%TO.C,R5*%
X122153436Y-61050500D02*
X122607564Y-61050500D01*
X122153436Y-62520500D02*
X122607564Y-62520500D01*
%TO.C,R4*%
X122464564Y-51344500D02*
X122010436Y-51344500D01*
X122464564Y-49874500D02*
X122010436Y-49874500D01*
%TO.C,R3*%
X117565436Y-61050500D02*
X118019564Y-61050500D01*
X117565436Y-62520500D02*
X118019564Y-62520500D01*
%TO.C,R2*%
X117384564Y-51328500D02*
X116930436Y-51328500D01*
X117384564Y-49858500D02*
X116930436Y-49858500D01*
%TO.C,R1*%
X115352564Y-29627500D02*
X114898436Y-29627500D01*
X115352564Y-28157500D02*
X114898436Y-28157500D01*
%TO.C,Q7*%
X146757000Y-17721000D02*
X145827000Y-17721000D01*
X143597000Y-17721000D02*
X144527000Y-17721000D01*
X143597000Y-17721000D02*
X143597000Y-19881000D01*
X146757000Y-17721000D02*
X146757000Y-19181000D01*
%TO.C,Q6*%
X134745000Y-22217500D02*
X134745000Y-21287500D01*
X134745000Y-19057500D02*
X134745000Y-19987500D01*
X134745000Y-19057500D02*
X132585000Y-19057500D01*
X134745000Y-22217500D02*
X133285000Y-22217500D01*
%TO.C,Q5*%
X138618500Y-22217500D02*
X138618500Y-21287500D01*
X138618500Y-19057500D02*
X138618500Y-19987500D01*
X138618500Y-19057500D02*
X136458500Y-19057500D01*
X138618500Y-22217500D02*
X137158500Y-22217500D01*
%TO.C,Q4*%
X124310680Y-36505000D02*
X124310680Y-35575000D01*
X124310680Y-33345000D02*
X124310680Y-34275000D01*
X124310680Y-33345000D02*
X122150680Y-33345000D01*
X124310680Y-36505000D02*
X122850680Y-36505000D01*
%TO.C,Q3*%
X124310680Y-31247200D02*
X124310680Y-30317200D01*
X124310680Y-28087200D02*
X124310680Y-29017200D01*
X124310680Y-28087200D02*
X122150680Y-28087200D01*
X124310680Y-31247200D02*
X122850680Y-31247200D01*
%TO.C,Q2*%
X119911400Y-36471980D02*
X119911400Y-35541980D01*
X119911400Y-33311980D02*
X119911400Y-34241980D01*
X119911400Y-33311980D02*
X117751400Y-33311980D01*
X119911400Y-36471980D02*
X118451400Y-36471980D01*
%TO.C,Q1*%
X119911400Y-31247200D02*
X119911400Y-30317200D01*
X119911400Y-28087200D02*
X119911400Y-29017200D01*
X119911400Y-28087200D02*
X117751400Y-28087200D01*
X119911400Y-31247200D02*
X118451400Y-31247200D01*
%TO.C,J2*%
X110836500Y-53102500D02*
G75*
G03*
X110836500Y-53102500I-1680000J0D01*
G01*
X110836500Y-58102500D02*
G75*
G03*
X110836500Y-58102500I-1680000J0D01*
G01*
X107156500Y-45542500D02*
X107156500Y-60662500D01*
X111156500Y-45542500D02*
X111156500Y-60662500D01*
X113216500Y-45542500D02*
X113216500Y-60662500D01*
X105096500Y-45542500D02*
X105096500Y-60662500D01*
X113216500Y-45542500D02*
X105096500Y-45542500D01*
X113216500Y-60662500D02*
X105096500Y-60662500D01*
X110225500Y-54377500D02*
X110132500Y-54283500D01*
X107940500Y-52092500D02*
X107882500Y-52033500D01*
X110431500Y-54172500D02*
X110372500Y-54113500D01*
X108180500Y-51922500D02*
X108087500Y-51828500D01*
X110225500Y-59377500D02*
X110132500Y-59283500D01*
X107940500Y-57092500D02*
X107882500Y-57033500D01*
X110431500Y-59172500D02*
X110372500Y-59113500D01*
X108180500Y-56922500D02*
X108087500Y-56828500D01*
X107096500Y-45302500D02*
X104856500Y-45302500D01*
X104856500Y-45302500D02*
X104856500Y-47302500D01*
X107476050Y-48131883D02*
G75*
G02*
X107672500Y-47313500I1680450J29383D01*
G01*
X108367412Y-46618547D02*
G75*
G02*
X109945500Y-46618500I789088J-1483953D01*
G01*
X110640453Y-47313412D02*
G75*
G02*
X110640500Y-48891500I-1483953J-789088D01*
G01*
X109945588Y-49586453D02*
G75*
G02*
X108367500Y-49586500I-789088J1483953D01*
G01*
X107673148Y-48891212D02*
G75*
G02*
X107476500Y-48102500I1483352J788712D01*
G01*
%TO.C,J1*%
X113476500Y-34560500D02*
G75*
G03*
X113476500Y-34560500I-1780000J0D01*
G01*
X113696500Y-42120500D02*
X113696500Y-32000500D01*
X109696500Y-42120500D02*
X109696500Y-32000500D01*
X108696500Y-42120500D02*
X108696500Y-32000500D01*
X105136500Y-42120500D02*
X105136500Y-32000500D01*
X115756500Y-42120500D02*
X115756500Y-32000500D01*
X105136500Y-42120500D02*
X115756500Y-42120500D01*
X105136500Y-32000500D02*
X115756500Y-32000500D01*
X110563500Y-33210500D02*
X110613500Y-33259500D01*
X113021500Y-35668500D02*
X113046500Y-35692500D01*
X110346500Y-33427500D02*
X110370500Y-33452500D01*
X112779500Y-35860500D02*
X112829500Y-35910500D01*
X113756500Y-42360500D02*
X115996500Y-42360500D01*
X115996500Y-42360500D02*
X115996500Y-40360500D01*
X113476889Y-39529686D02*
G75*
G02*
X113335500Y-40256500I-1780389J-30814D01*
G01*
X112392016Y-41199705D02*
G75*
G02*
X111000500Y-41199500I-695516J1639205D01*
G01*
X110057295Y-40256016D02*
G75*
G02*
X110057500Y-38864500I1639205J695516D01*
G01*
X111000984Y-37921295D02*
G75*
G02*
X112392500Y-37921500I695516J-1639205D01*
G01*
X113334999Y-38864999D02*
G75*
G02*
X113476500Y-39560500I-1638499J-695501D01*
G01*
%TO.C,D4*%
X124470500Y-64887500D02*
X124470500Y-67827500D01*
X124470500Y-67827500D02*
X129910500Y-67827500D01*
X129910500Y-67827500D02*
X129910500Y-64887500D01*
X129910500Y-64887500D02*
X124470500Y-64887500D01*
X123450500Y-66357500D02*
X124470500Y-66357500D01*
X130930500Y-66357500D02*
X129910500Y-66357500D01*
X125370500Y-64887500D02*
X125370500Y-67827500D01*
X125490500Y-64887500D02*
X125490500Y-67827500D01*
X125250500Y-64887500D02*
X125250500Y-67827500D01*
%TO.C,D3*%
X130799500Y-41157500D02*
X130799500Y-38217500D01*
X130799500Y-38217500D02*
X125359500Y-38217500D01*
X125359500Y-38217500D02*
X125359500Y-41157500D01*
X125359500Y-41157500D02*
X130799500Y-41157500D01*
X131819500Y-39687500D02*
X130799500Y-39687500D01*
X124339500Y-39687500D02*
X125359500Y-39687500D01*
X129899500Y-41157500D02*
X129899500Y-38217500D01*
X129779500Y-41157500D02*
X129779500Y-38217500D01*
X130019500Y-41157500D02*
X130019500Y-38217500D01*
%TO.C,D2*%
X135880500Y-63997500D02*
X138820500Y-63997500D01*
X138820500Y-63997500D02*
X138820500Y-58557500D01*
X138820500Y-58557500D02*
X135880500Y-58557500D01*
X135880500Y-58557500D02*
X135880500Y-63997500D01*
X137350500Y-65017500D02*
X137350500Y-63997500D01*
X137350500Y-57537500D02*
X137350500Y-58557500D01*
X135880500Y-63097500D02*
X138820500Y-63097500D01*
X135880500Y-62977500D02*
X138820500Y-62977500D01*
X135880500Y-63217500D02*
X138820500Y-63217500D01*
%TO.C,D1*%
X136769500Y-47487500D02*
X139709500Y-47487500D01*
X139709500Y-47487500D02*
X139709500Y-42047500D01*
X139709500Y-42047500D02*
X136769500Y-42047500D01*
X136769500Y-42047500D02*
X136769500Y-47487500D01*
X138239500Y-48507500D02*
X138239500Y-47487500D01*
X138239500Y-41027500D02*
X138239500Y-42047500D01*
X136769500Y-46587500D02*
X139709500Y-46587500D01*
X136769500Y-46467500D02*
X139709500Y-46467500D01*
X136769500Y-46707500D02*
X139709500Y-46707500D01*
%TO.C,C7*%
X144449748Y-20641500D02*
X145872252Y-20641500D01*
X144449748Y-22461500D02*
X145872252Y-22461500D01*
%TO.C,C6*%
X157001500Y-61143500D02*
X155301500Y-61143500D01*
X151481500Y-61143500D02*
X153181500Y-61143500D01*
X151481500Y-65599063D02*
X151481500Y-61143500D01*
X157001500Y-65599063D02*
X157001500Y-61143500D01*
X155937063Y-66663500D02*
X155301500Y-66663500D01*
X152545937Y-66663500D02*
X153181500Y-66663500D01*
X152545937Y-66663500D02*
X151481500Y-65599063D01*
X155937063Y-66663500D02*
X157001500Y-65599063D01*
X152556500Y-67528500D02*
X152556500Y-66903500D01*
X152244000Y-67216000D02*
X152869000Y-67216000D01*
%TO.C,C5*%
X149322500Y-50997500D02*
X151022500Y-50997500D01*
X154842500Y-50997500D02*
X153142500Y-50997500D01*
X154842500Y-46541937D02*
X154842500Y-50997500D01*
X149322500Y-46541937D02*
X149322500Y-50997500D01*
X150386937Y-45477500D02*
X151022500Y-45477500D01*
X153778063Y-45477500D02*
X153142500Y-45477500D01*
X153778063Y-45477500D02*
X154842500Y-46541937D01*
X150386937Y-45477500D02*
X149322500Y-46541937D01*
X153767500Y-44612500D02*
X153767500Y-45237500D01*
X154080000Y-44925000D02*
X153455000Y-44925000D01*
%TO.C,C4*%
X148111500Y-60930500D02*
X146411500Y-60930500D01*
X142591500Y-60930500D02*
X144291500Y-60930500D01*
X142591500Y-65386063D02*
X142591500Y-60930500D01*
X148111500Y-65386063D02*
X148111500Y-60930500D01*
X147047063Y-66450500D02*
X146411500Y-66450500D01*
X143655937Y-66450500D02*
X144291500Y-66450500D01*
X143655937Y-66450500D02*
X142591500Y-65386063D01*
X147047063Y-66450500D02*
X148111500Y-65386063D01*
X143666500Y-67315500D02*
X143666500Y-66690500D01*
X143354000Y-67003000D02*
X143979000Y-67003000D01*
%TO.C,C3*%
X140813500Y-50915500D02*
X142513500Y-50915500D01*
X146333500Y-50915500D02*
X144633500Y-50915500D01*
X146333500Y-46459937D02*
X146333500Y-50915500D01*
X140813500Y-46459937D02*
X140813500Y-50915500D01*
X141877937Y-45395500D02*
X142513500Y-45395500D01*
X145269063Y-45395500D02*
X144633500Y-45395500D01*
X145269063Y-45395500D02*
X146333500Y-46459937D01*
X141877937Y-45395500D02*
X140813500Y-46459937D01*
X145258500Y-44530500D02*
X145258500Y-45155500D01*
X145571000Y-44843000D02*
X144946000Y-44843000D01*
%TO.C,C2*%
X122924500Y-59211500D02*
X122924500Y-57511500D01*
X122924500Y-53691500D02*
X122924500Y-55391500D01*
X118468937Y-53691500D02*
X122924500Y-53691500D01*
X118468937Y-59211500D02*
X122924500Y-59211500D01*
X117404500Y-58147063D02*
X117404500Y-57511500D01*
X117404500Y-54755937D02*
X117404500Y-55391500D01*
X117404500Y-54755937D02*
X118468937Y-53691500D01*
X117404500Y-58147063D02*
X118468937Y-59211500D01*
X116539500Y-54766500D02*
X117164500Y-54766500D01*
X116852000Y-54454000D02*
X116852000Y-55079000D01*
%TO.C,C1*%
X117445500Y-42007500D02*
X117445500Y-43707500D01*
X117445500Y-47527500D02*
X117445500Y-45827500D01*
X121901063Y-47527500D02*
X117445500Y-47527500D01*
X121901063Y-42007500D02*
X117445500Y-42007500D01*
X122965500Y-43071937D02*
X122965500Y-43707500D01*
X122965500Y-46463063D02*
X122965500Y-45827500D01*
X122965500Y-46463063D02*
X121901063Y-47527500D01*
X122965500Y-43071937D02*
X121901063Y-42007500D01*
X123830500Y-46452500D02*
X123205500Y-46452500D01*
X123518000Y-46765000D02*
X123518000Y-46140000D01*
%TO.C,J3*%
D11*
X117776666Y-16038380D02*
X117776666Y-16752666D01*
X117729047Y-16895523D01*
X117633809Y-16990761D01*
X117490952Y-17038380D01*
X117395714Y-17038380D01*
X118157619Y-16038380D02*
X118776666Y-16038380D01*
X118443333Y-16419333D01*
X118586190Y-16419333D01*
X118681428Y-16466952D01*
X118729047Y-16514571D01*
X118776666Y-16609809D01*
X118776666Y-16847904D01*
X118729047Y-16943142D01*
X118681428Y-16990761D01*
X118586190Y-17038380D01*
X118300476Y-17038380D01*
X118205238Y-16990761D01*
X118157619Y-16943142D01*
%TO.C,J4*%
X165274666Y-22007380D02*
X165274666Y-22721666D01*
X165227047Y-22864523D01*
X165131809Y-22959761D01*
X164988952Y-23007380D01*
X164893714Y-23007380D01*
X166179428Y-22340714D02*
X166179428Y-23007380D01*
X165941333Y-21959761D02*
X165703238Y-22674047D01*
X166322285Y-22674047D01*
%TO.C,H5*%
X106738095Y-14104880D02*
X106738095Y-13104880D01*
X106738095Y-13581071D02*
X107309523Y-13581071D01*
X107309523Y-14104880D02*
X107309523Y-13104880D01*
X108261904Y-13104880D02*
X107785714Y-13104880D01*
X107738095Y-13581071D01*
X107785714Y-13533452D01*
X107880952Y-13485833D01*
X108119047Y-13485833D01*
X108214285Y-13533452D01*
X108261904Y-13581071D01*
X108309523Y-13676309D01*
X108309523Y-13914404D01*
X108261904Y-14009642D01*
X108214285Y-14057261D01*
X108119047Y-14104880D01*
X107880952Y-14104880D01*
X107785714Y-14057261D01*
X107738095Y-14009642D01*
%TO.C,H4*%
X166624095Y-14231880D02*
X166624095Y-13231880D01*
X166624095Y-13708071D02*
X167195523Y-13708071D01*
X167195523Y-14231880D02*
X167195523Y-13231880D01*
X168100285Y-13565214D02*
X168100285Y-14231880D01*
X167862190Y-13184261D02*
X167624095Y-13898547D01*
X168243142Y-13898547D01*
%TO.C,H3*%
X167195595Y-72270880D02*
X167195595Y-71270880D01*
X167195595Y-71747071D02*
X167767023Y-71747071D01*
X167767023Y-72270880D02*
X167767023Y-71270880D01*
X168147976Y-71270880D02*
X168767023Y-71270880D01*
X168433690Y-71651833D01*
X168576547Y-71651833D01*
X168671785Y-71699452D01*
X168719404Y-71747071D01*
X168767023Y-71842309D01*
X168767023Y-72080404D01*
X168719404Y-72175642D01*
X168671785Y-72223261D01*
X168576547Y-72270880D01*
X168290833Y-72270880D01*
X168195595Y-72223261D01*
X168147976Y-72175642D01*
%TO.C,H2*%
X108013595Y-78747880D02*
X108013595Y-77747880D01*
X108013595Y-78224071D02*
X108585023Y-78224071D01*
X108585023Y-78747880D02*
X108585023Y-77747880D01*
X109013595Y-77843119D02*
X109061214Y-77795500D01*
X109156452Y-77747880D01*
X109394547Y-77747880D01*
X109489785Y-77795500D01*
X109537404Y-77843119D01*
X109585023Y-77938357D01*
X109585023Y-78033595D01*
X109537404Y-78176452D01*
X108965976Y-78747880D01*
X109585023Y-78747880D01*
%TO.C,U4*%
X147763555Y-35251140D02*
X147763555Y-36060664D01*
X147811174Y-36155902D01*
X147858793Y-36203521D01*
X147954031Y-36251140D01*
X148144507Y-36251140D01*
X148239745Y-36203521D01*
X148287364Y-36155902D01*
X148334983Y-36060664D01*
X148334983Y-35251140D01*
X149239745Y-35584474D02*
X149239745Y-36251140D01*
X149001650Y-35203521D02*
X148763555Y-35917807D01*
X149382602Y-35917807D01*
%TO.C,TP9*%
X126373095Y-33945380D02*
X126944523Y-33945380D01*
X126658809Y-34945380D02*
X126658809Y-33945380D01*
X127277857Y-34945380D02*
X127277857Y-33945380D01*
X127658809Y-33945380D01*
X127754047Y-33993000D01*
X127801666Y-34040619D01*
X127849285Y-34135857D01*
X127849285Y-34278714D01*
X127801666Y-34373952D01*
X127754047Y-34421571D01*
X127658809Y-34469190D01*
X127277857Y-34469190D01*
X128325476Y-34945380D02*
X128515952Y-34945380D01*
X128611190Y-34897761D01*
X128658809Y-34850142D01*
X128754047Y-34707285D01*
X128801666Y-34516809D01*
X128801666Y-34135857D01*
X128754047Y-34040619D01*
X128706428Y-33993000D01*
X128611190Y-33945380D01*
X128420714Y-33945380D01*
X128325476Y-33993000D01*
X128277857Y-34040619D01*
X128230238Y-34135857D01*
X128230238Y-34373952D01*
X128277857Y-34469190D01*
X128325476Y-34516809D01*
X128420714Y-34564428D01*
X128611190Y-34564428D01*
X128706428Y-34516809D01*
X128754047Y-34469190D01*
X128801666Y-34373952D01*
%TO.C,TP8*%
X143899095Y-37742880D02*
X144470523Y-37742880D01*
X144184809Y-38742880D02*
X144184809Y-37742880D01*
X144803857Y-38742880D02*
X144803857Y-37742880D01*
X145184809Y-37742880D01*
X145280047Y-37790500D01*
X145327666Y-37838119D01*
X145375285Y-37933357D01*
X145375285Y-38076214D01*
X145327666Y-38171452D01*
X145280047Y-38219071D01*
X145184809Y-38266690D01*
X144803857Y-38266690D01*
X145946714Y-38171452D02*
X145851476Y-38123833D01*
X145803857Y-38076214D01*
X145756238Y-37980976D01*
X145756238Y-37933357D01*
X145803857Y-37838119D01*
X145851476Y-37790500D01*
X145946714Y-37742880D01*
X146137190Y-37742880D01*
X146232428Y-37790500D01*
X146280047Y-37838119D01*
X146327666Y-37933357D01*
X146327666Y-37980976D01*
X146280047Y-38076214D01*
X146232428Y-38123833D01*
X146137190Y-38171452D01*
X145946714Y-38171452D01*
X145851476Y-38219071D01*
X145803857Y-38266690D01*
X145756238Y-38361928D01*
X145756238Y-38552404D01*
X145803857Y-38647642D01*
X145851476Y-38695261D01*
X145946714Y-38742880D01*
X146137190Y-38742880D01*
X146232428Y-38695261D01*
X146280047Y-38647642D01*
X146327666Y-38552404D01*
X146327666Y-38361928D01*
X146280047Y-38266690D01*
X146232428Y-38219071D01*
X146137190Y-38171452D01*
%TO.C,TP7*%
X140152595Y-54455880D02*
X140724023Y-54455880D01*
X140438309Y-55455880D02*
X140438309Y-54455880D01*
X141057357Y-55455880D02*
X141057357Y-54455880D01*
X141438309Y-54455880D01*
X141533547Y-54503500D01*
X141581166Y-54551119D01*
X141628785Y-54646357D01*
X141628785Y-54789214D01*
X141581166Y-54884452D01*
X141533547Y-54932071D01*
X141438309Y-54979690D01*
X141057357Y-54979690D01*
X141962119Y-54455880D02*
X142628785Y-54455880D01*
X142200214Y-55455880D01*
%TO.C,TP6*%
X140533595Y-37742880D02*
X141105023Y-37742880D01*
X140819309Y-38742880D02*
X140819309Y-37742880D01*
X141438357Y-38742880D02*
X141438357Y-37742880D01*
X141819309Y-37742880D01*
X141914547Y-37790500D01*
X141962166Y-37838119D01*
X142009785Y-37933357D01*
X142009785Y-38076214D01*
X141962166Y-38171452D01*
X141914547Y-38219071D01*
X141819309Y-38266690D01*
X141438357Y-38266690D01*
X142866928Y-37742880D02*
X142676452Y-37742880D01*
X142581214Y-37790500D01*
X142533595Y-37838119D01*
X142438357Y-37980976D01*
X142390738Y-38171452D01*
X142390738Y-38552404D01*
X142438357Y-38647642D01*
X142485976Y-38695261D01*
X142581214Y-38742880D01*
X142771690Y-38742880D01*
X142866928Y-38695261D01*
X142914547Y-38647642D01*
X142962166Y-38552404D01*
X142962166Y-38314309D01*
X142914547Y-38219071D01*
X142866928Y-38171452D01*
X142771690Y-38123833D01*
X142581214Y-38123833D01*
X142485976Y-38171452D01*
X142438357Y-38219071D01*
X142390738Y-38314309D01*
%TO.C,TP5*%
X163584095Y-45692880D02*
X164155523Y-45692880D01*
X163869809Y-46692880D02*
X163869809Y-45692880D01*
X164488857Y-46692880D02*
X164488857Y-45692880D01*
X164869809Y-45692880D01*
X164965047Y-45740500D01*
X165012666Y-45788119D01*
X165060285Y-45883357D01*
X165060285Y-46026214D01*
X165012666Y-46121452D01*
X164965047Y-46169071D01*
X164869809Y-46216690D01*
X164488857Y-46216690D01*
X165965047Y-45692880D02*
X165488857Y-45692880D01*
X165441238Y-46169071D01*
X165488857Y-46121452D01*
X165584095Y-46073833D01*
X165822190Y-46073833D01*
X165917428Y-46121452D01*
X165965047Y-46169071D01*
X166012666Y-46264309D01*
X166012666Y-46502404D01*
X165965047Y-46597642D01*
X165917428Y-46645261D01*
X165822190Y-46692880D01*
X165584095Y-46692880D01*
X165488857Y-46645261D01*
X165441238Y-46597642D01*
%TO.C,TP4*%
X156027595Y-25182380D02*
X156599023Y-25182380D01*
X156313309Y-26182380D02*
X156313309Y-25182380D01*
X156932357Y-26182380D02*
X156932357Y-25182380D01*
X157313309Y-25182380D01*
X157408547Y-25230000D01*
X157456166Y-25277619D01*
X157503785Y-25372857D01*
X157503785Y-25515714D01*
X157456166Y-25610952D01*
X157408547Y-25658571D01*
X157313309Y-25706190D01*
X156932357Y-25706190D01*
X158360928Y-25515714D02*
X158360928Y-26182380D01*
X158122833Y-25134761D02*
X157884738Y-25849047D01*
X158503785Y-25849047D01*
%TO.C,TP3*%
X154122595Y-30325880D02*
X154694023Y-30325880D01*
X154408309Y-31325880D02*
X154408309Y-30325880D01*
X155027357Y-31325880D02*
X155027357Y-30325880D01*
X155408309Y-30325880D01*
X155503547Y-30373500D01*
X155551166Y-30421119D01*
X155598785Y-30516357D01*
X155598785Y-30659214D01*
X155551166Y-30754452D01*
X155503547Y-30802071D01*
X155408309Y-30849690D01*
X155027357Y-30849690D01*
X155932119Y-30325880D02*
X156551166Y-30325880D01*
X156217833Y-30706833D01*
X156360690Y-30706833D01*
X156455928Y-30754452D01*
X156503547Y-30802071D01*
X156551166Y-30897309D01*
X156551166Y-31135404D01*
X156503547Y-31230642D01*
X156455928Y-31278261D01*
X156360690Y-31325880D01*
X156074976Y-31325880D01*
X155979738Y-31278261D01*
X155932119Y-31230642D01*
%TO.C,TP2*%
X152471595Y-20343880D02*
X153043023Y-20343880D01*
X152757309Y-21343880D02*
X152757309Y-20343880D01*
X153376357Y-21343880D02*
X153376357Y-20343880D01*
X153757309Y-20343880D01*
X153852547Y-20391500D01*
X153900166Y-20439119D01*
X153947785Y-20534357D01*
X153947785Y-20677214D01*
X153900166Y-20772452D01*
X153852547Y-20820071D01*
X153757309Y-20867690D01*
X153376357Y-20867690D01*
X154328738Y-20439119D02*
X154376357Y-20391500D01*
X154471595Y-20343880D01*
X154709690Y-20343880D01*
X154804928Y-20391500D01*
X154852547Y-20439119D01*
X154900166Y-20534357D01*
X154900166Y-20629595D01*
X154852547Y-20772452D01*
X154281119Y-21343880D01*
X154900166Y-21343880D01*
%TO.C,TP1*%
X140597095Y-17181380D02*
X141168523Y-17181380D01*
X140882809Y-18181380D02*
X140882809Y-17181380D01*
X141501857Y-18181380D02*
X141501857Y-17181380D01*
X141882809Y-17181380D01*
X141978047Y-17229000D01*
X142025666Y-17276619D01*
X142073285Y-17371857D01*
X142073285Y-17514714D01*
X142025666Y-17609952D01*
X141978047Y-17657571D01*
X141882809Y-17705190D01*
X141501857Y-17705190D01*
X143025666Y-18181380D02*
X142454238Y-18181380D01*
X142739952Y-18181380D02*
X142739952Y-17181380D01*
X142644714Y-17324238D01*
X142549476Y-17419476D01*
X142454238Y-17467095D01*
%TO.C,U3*%
X139954095Y-22058380D02*
X139954095Y-22867904D01*
X140001714Y-22963142D01*
X140049333Y-23010761D01*
X140144571Y-23058380D01*
X140335047Y-23058380D01*
X140430285Y-23010761D01*
X140477904Y-22963142D01*
X140525523Y-22867904D01*
X140525523Y-22058380D01*
X140906476Y-22058380D02*
X141525523Y-22058380D01*
X141192190Y-22439333D01*
X141335047Y-22439333D01*
X141430285Y-22486952D01*
X141477904Y-22534571D01*
X141525523Y-22629809D01*
X141525523Y-22867904D01*
X141477904Y-22963142D01*
X141430285Y-23010761D01*
X141335047Y-23058380D01*
X141049333Y-23058380D01*
X140954095Y-23010761D01*
X140906476Y-22963142D01*
%TO.C,U2*%
X128968595Y-53435880D02*
X128968595Y-54245404D01*
X129016214Y-54340642D01*
X129063833Y-54388261D01*
X129159071Y-54435880D01*
X129349547Y-54435880D01*
X129444785Y-54388261D01*
X129492404Y-54340642D01*
X129540023Y-54245404D01*
X129540023Y-53435880D01*
X129968595Y-53531119D02*
X130016214Y-53483500D01*
X130111452Y-53435880D01*
X130349547Y-53435880D01*
X130444785Y-53483500D01*
X130492404Y-53531119D01*
X130540023Y-53626357D01*
X130540023Y-53721595D01*
X130492404Y-53864452D01*
X129920976Y-54435880D01*
X130540023Y-54435880D01*
%TO.C,U1*%
X129229815Y-42013500D02*
X129229815Y-42823024D01*
X129277434Y-42918262D01*
X129325053Y-42965881D01*
X129420291Y-43013500D01*
X129610767Y-43013500D01*
X129706005Y-42965881D01*
X129753624Y-42918262D01*
X129801243Y-42823024D01*
X129801243Y-42013500D01*
X130801243Y-43013500D02*
X130229815Y-43013500D01*
X130515529Y-43013500D02*
X130515529Y-42013500D01*
X130420291Y-42156358D01*
X130325053Y-42251596D01*
X130229815Y-42299215D01*
%TO.C,SW2*%
X157797666Y-50823761D02*
X157940523Y-50871380D01*
X158178619Y-50871380D01*
X158273857Y-50823761D01*
X158321476Y-50776142D01*
X158369095Y-50680904D01*
X158369095Y-50585666D01*
X158321476Y-50490428D01*
X158273857Y-50442809D01*
X158178619Y-50395190D01*
X157988142Y-50347571D01*
X157892904Y-50299952D01*
X157845285Y-50252333D01*
X157797666Y-50157095D01*
X157797666Y-50061857D01*
X157845285Y-49966619D01*
X157892904Y-49919000D01*
X157988142Y-49871380D01*
X158226238Y-49871380D01*
X158369095Y-49919000D01*
X158702428Y-49871380D02*
X158940523Y-50871380D01*
X159131000Y-50157095D01*
X159321476Y-50871380D01*
X159559571Y-49871380D01*
X159892904Y-49966619D02*
X159940523Y-49919000D01*
X160035761Y-49871380D01*
X160273857Y-49871380D01*
X160369095Y-49919000D01*
X160416714Y-49966619D01*
X160464333Y-50061857D01*
X160464333Y-50157095D01*
X160416714Y-50299952D01*
X159845285Y-50871380D01*
X160464333Y-50871380D01*
%TO.C,SW1*%
X124650666Y-21740761D02*
X124793523Y-21788380D01*
X125031619Y-21788380D01*
X125126857Y-21740761D01*
X125174476Y-21693142D01*
X125222095Y-21597904D01*
X125222095Y-21502666D01*
X125174476Y-21407428D01*
X125126857Y-21359809D01*
X125031619Y-21312190D01*
X124841142Y-21264571D01*
X124745904Y-21216952D01*
X124698285Y-21169333D01*
X124650666Y-21074095D01*
X124650666Y-20978857D01*
X124698285Y-20883619D01*
X124745904Y-20836000D01*
X124841142Y-20788380D01*
X125079238Y-20788380D01*
X125222095Y-20836000D01*
X125555428Y-20788380D02*
X125793523Y-21788380D01*
X125984000Y-21074095D01*
X126174476Y-21788380D01*
X126412571Y-20788380D01*
X127317333Y-21788380D02*
X126745904Y-21788380D01*
X127031619Y-21788380D02*
X127031619Y-20788380D01*
X126936380Y-20931238D01*
X126841142Y-21026476D01*
X126745904Y-21074095D01*
%TO.C,RV1*%
X155297261Y-45156380D02*
X154963928Y-44680190D01*
X154725833Y-45156380D02*
X154725833Y-44156380D01*
X155106785Y-44156380D01*
X155202023Y-44204000D01*
X155249642Y-44251619D01*
X155297261Y-44346857D01*
X155297261Y-44489714D01*
X155249642Y-44584952D01*
X155202023Y-44632571D01*
X155106785Y-44680190D01*
X154725833Y-44680190D01*
X155582976Y-44156380D02*
X155916309Y-45156380D01*
X156249642Y-44156380D01*
X157106785Y-45156380D02*
X156535357Y-45156380D01*
X156821071Y-45156380D02*
X156821071Y-44156380D01*
X156725833Y-44299238D01*
X156630595Y-44394476D01*
X156535357Y-44442095D01*
%TO.C,R16*%
X150423642Y-28646380D02*
X150090309Y-28170190D01*
X149852214Y-28646380D02*
X149852214Y-27646380D01*
X150233166Y-27646380D01*
X150328404Y-27694000D01*
X150376023Y-27741619D01*
X150423642Y-27836857D01*
X150423642Y-27979714D01*
X150376023Y-28074952D01*
X150328404Y-28122571D01*
X150233166Y-28170190D01*
X149852214Y-28170190D01*
X151376023Y-28646380D02*
X150804595Y-28646380D01*
X151090309Y-28646380D02*
X151090309Y-27646380D01*
X150995071Y-27789238D01*
X150899833Y-27884476D01*
X150804595Y-27932095D01*
X152233166Y-27646380D02*
X152042690Y-27646380D01*
X151947452Y-27694000D01*
X151899833Y-27741619D01*
X151804595Y-27884476D01*
X151756976Y-28074952D01*
X151756976Y-28455904D01*
X151804595Y-28551142D01*
X151852214Y-28598761D01*
X151947452Y-28646380D01*
X152137928Y-28646380D01*
X152233166Y-28598761D01*
X152280785Y-28551142D01*
X152328404Y-28455904D01*
X152328404Y-28217809D01*
X152280785Y-28122571D01*
X152233166Y-28074952D01*
X152137928Y-28027333D01*
X151947452Y-28027333D01*
X151852214Y-28074952D01*
X151804595Y-28122571D01*
X151756976Y-28217809D01*
%TO.C,R14*%
X148852142Y-18486380D02*
X148518809Y-18010190D01*
X148280714Y-18486380D02*
X148280714Y-17486380D01*
X148661666Y-17486380D01*
X148756904Y-17534000D01*
X148804523Y-17581619D01*
X148852142Y-17676857D01*
X148852142Y-17819714D01*
X148804523Y-17914952D01*
X148756904Y-17962571D01*
X148661666Y-18010190D01*
X148280714Y-18010190D01*
X149804523Y-18486380D02*
X149233095Y-18486380D01*
X149518809Y-18486380D02*
X149518809Y-17486380D01*
X149423571Y-17629238D01*
X149328333Y-17724476D01*
X149233095Y-17772095D01*
X150661666Y-17819714D02*
X150661666Y-18486380D01*
X150423571Y-17438761D02*
X150185476Y-18153047D01*
X150804523Y-18153047D01*
%TO.C,R13*%
X150550642Y-24899880D02*
X150217309Y-24423690D01*
X149979214Y-24899880D02*
X149979214Y-23899880D01*
X150360166Y-23899880D01*
X150455404Y-23947500D01*
X150503023Y-23995119D01*
X150550642Y-24090357D01*
X150550642Y-24233214D01*
X150503023Y-24328452D01*
X150455404Y-24376071D01*
X150360166Y-24423690D01*
X149979214Y-24423690D01*
X151503023Y-24899880D02*
X150931595Y-24899880D01*
X151217309Y-24899880D02*
X151217309Y-23899880D01*
X151122071Y-24042738D01*
X151026833Y-24137976D01*
X150931595Y-24185595D01*
X151836357Y-23899880D02*
X152455404Y-23899880D01*
X152122071Y-24280833D01*
X152264928Y-24280833D01*
X152360166Y-24328452D01*
X152407785Y-24376071D01*
X152455404Y-24471309D01*
X152455404Y-24709404D01*
X152407785Y-24804642D01*
X152360166Y-24852261D01*
X152264928Y-24899880D01*
X151979214Y-24899880D01*
X151883976Y-24852261D01*
X151836357Y-24804642D01*
%TO.C,R12*%
X137406142Y-27514540D02*
X137072809Y-27038350D01*
X136834714Y-27514540D02*
X136834714Y-26514540D01*
X137215666Y-26514540D01*
X137310904Y-26562160D01*
X137358523Y-26609779D01*
X137406142Y-26705017D01*
X137406142Y-26847874D01*
X137358523Y-26943112D01*
X137310904Y-26990731D01*
X137215666Y-27038350D01*
X136834714Y-27038350D01*
X138358523Y-27514540D02*
X137787095Y-27514540D01*
X138072809Y-27514540D02*
X138072809Y-26514540D01*
X137977571Y-26657398D01*
X137882333Y-26752636D01*
X137787095Y-26800255D01*
X138739476Y-26609779D02*
X138787095Y-26562160D01*
X138882333Y-26514540D01*
X139120428Y-26514540D01*
X139215666Y-26562160D01*
X139263285Y-26609779D01*
X139310904Y-26705017D01*
X139310904Y-26800255D01*
X139263285Y-26943112D01*
X138691857Y-27514540D01*
X139310904Y-27514540D01*
%TO.C,R11*%
X137533142Y-23836620D02*
X137199809Y-23360430D01*
X136961714Y-23836620D02*
X136961714Y-22836620D01*
X137342666Y-22836620D01*
X137437904Y-22884240D01*
X137485523Y-22931859D01*
X137533142Y-23027097D01*
X137533142Y-23169954D01*
X137485523Y-23265192D01*
X137437904Y-23312811D01*
X137342666Y-23360430D01*
X136961714Y-23360430D01*
X138485523Y-23836620D02*
X137914095Y-23836620D01*
X138199809Y-23836620D02*
X138199809Y-22836620D01*
X138104571Y-22979478D01*
X138009333Y-23074716D01*
X137914095Y-23122335D01*
X139437904Y-23836620D02*
X138866476Y-23836620D01*
X139152190Y-23836620D02*
X139152190Y-22836620D01*
X139056952Y-22979478D01*
X138961714Y-23074716D01*
X138866476Y-23122335D01*
%TO.C,R10*%
X134231142Y-30805380D02*
X133897809Y-30329190D01*
X133659714Y-30805380D02*
X133659714Y-29805380D01*
X134040666Y-29805380D01*
X134135904Y-29853000D01*
X134183523Y-29900619D01*
X134231142Y-29995857D01*
X134231142Y-30138714D01*
X134183523Y-30233952D01*
X134135904Y-30281571D01*
X134040666Y-30329190D01*
X133659714Y-30329190D01*
X135183523Y-30805380D02*
X134612095Y-30805380D01*
X134897809Y-30805380D02*
X134897809Y-29805380D01*
X134802571Y-29948238D01*
X134707333Y-30043476D01*
X134612095Y-30091095D01*
X135802571Y-29805380D02*
X135897809Y-29805380D01*
X135993047Y-29853000D01*
X136040666Y-29900619D01*
X136088285Y-29995857D01*
X136135904Y-30186333D01*
X136135904Y-30424428D01*
X136088285Y-30614904D01*
X136040666Y-30710142D01*
X135993047Y-30757761D01*
X135897809Y-30805380D01*
X135802571Y-30805380D01*
X135707333Y-30757761D01*
X135659714Y-30710142D01*
X135612095Y-30614904D01*
X135564476Y-30424428D01*
X135564476Y-30186333D01*
X135612095Y-29995857D01*
X135659714Y-29900619D01*
X135707333Y-29853000D01*
X135802571Y-29805380D01*
%TO.C,R9*%
X155344833Y-56141880D02*
X155011500Y-55665690D01*
X154773404Y-56141880D02*
X154773404Y-55141880D01*
X155154357Y-55141880D01*
X155249595Y-55189500D01*
X155297214Y-55237119D01*
X155344833Y-55332357D01*
X155344833Y-55475214D01*
X155297214Y-55570452D01*
X155249595Y-55618071D01*
X155154357Y-55665690D01*
X154773404Y-55665690D01*
X155821023Y-56141880D02*
X156011500Y-56141880D01*
X156106738Y-56094261D01*
X156154357Y-56046642D01*
X156249595Y-55903785D01*
X156297214Y-55713309D01*
X156297214Y-55332357D01*
X156249595Y-55237119D01*
X156201976Y-55189500D01*
X156106738Y-55141880D01*
X155916261Y-55141880D01*
X155821023Y-55189500D01*
X155773404Y-55237119D01*
X155725785Y-55332357D01*
X155725785Y-55570452D01*
X155773404Y-55665690D01*
X155821023Y-55713309D01*
X155916261Y-55760928D01*
X156106738Y-55760928D01*
X156201976Y-55713309D01*
X156249595Y-55665690D01*
X156297214Y-55570452D01*
%TO.C,R8*%
X149629833Y-56141880D02*
X149296500Y-55665690D01*
X149058404Y-56141880D02*
X149058404Y-55141880D01*
X149439357Y-55141880D01*
X149534595Y-55189500D01*
X149582214Y-55237119D01*
X149629833Y-55332357D01*
X149629833Y-55475214D01*
X149582214Y-55570452D01*
X149534595Y-55618071D01*
X149439357Y-55665690D01*
X149058404Y-55665690D01*
X150201261Y-55570452D02*
X150106023Y-55522833D01*
X150058404Y-55475214D01*
X150010785Y-55379976D01*
X150010785Y-55332357D01*
X150058404Y-55237119D01*
X150106023Y-55189500D01*
X150201261Y-55141880D01*
X150391738Y-55141880D01*
X150486976Y-55189500D01*
X150534595Y-55237119D01*
X150582214Y-55332357D01*
X150582214Y-55379976D01*
X150534595Y-55475214D01*
X150486976Y-55522833D01*
X150391738Y-55570452D01*
X150201261Y-55570452D01*
X150106023Y-55618071D01*
X150058404Y-55665690D01*
X150010785Y-55760928D01*
X150010785Y-55951404D01*
X150058404Y-56046642D01*
X150106023Y-56094261D01*
X150201261Y-56141880D01*
X150391738Y-56141880D01*
X150486976Y-56094261D01*
X150534595Y-56046642D01*
X150582214Y-55951404D01*
X150582214Y-55760928D01*
X150534595Y-55665690D01*
X150486976Y-55618071D01*
X150391738Y-55570452D01*
%TO.C,R7*%
X147851833Y-38869880D02*
X147518500Y-38393690D01*
X147280404Y-38869880D02*
X147280404Y-37869880D01*
X147661357Y-37869880D01*
X147756595Y-37917500D01*
X147804214Y-37965119D01*
X147851833Y-38060357D01*
X147851833Y-38203214D01*
X147804214Y-38298452D01*
X147756595Y-38346071D01*
X147661357Y-38393690D01*
X147280404Y-38393690D01*
X148185166Y-37869880D02*
X148851833Y-37869880D01*
X148423261Y-38869880D01*
%TO.C,R6*%
X144930833Y-56141880D02*
X144597500Y-55665690D01*
X144359404Y-56141880D02*
X144359404Y-55141880D01*
X144740357Y-55141880D01*
X144835595Y-55189500D01*
X144883214Y-55237119D01*
X144930833Y-55332357D01*
X144930833Y-55475214D01*
X144883214Y-55570452D01*
X144835595Y-55618071D01*
X144740357Y-55665690D01*
X144359404Y-55665690D01*
X145787976Y-55141880D02*
X145597500Y-55141880D01*
X145502261Y-55189500D01*
X145454642Y-55237119D01*
X145359404Y-55379976D01*
X145311785Y-55570452D01*
X145311785Y-55951404D01*
X145359404Y-56046642D01*
X145407023Y-56094261D01*
X145502261Y-56141880D01*
X145692738Y-56141880D01*
X145787976Y-56094261D01*
X145835595Y-56046642D01*
X145883214Y-55951404D01*
X145883214Y-55713309D01*
X145835595Y-55618071D01*
X145787976Y-55570452D01*
X145692738Y-55522833D01*
X145502261Y-55522833D01*
X145407023Y-55570452D01*
X145359404Y-55618071D01*
X145311785Y-55713309D01*
%TO.C,R5*%
X122213833Y-60587880D02*
X121880500Y-60111690D01*
X121642404Y-60587880D02*
X121642404Y-59587880D01*
X122023357Y-59587880D01*
X122118595Y-59635500D01*
X122166214Y-59683119D01*
X122213833Y-59778357D01*
X122213833Y-59921214D01*
X122166214Y-60016452D01*
X122118595Y-60064071D01*
X122023357Y-60111690D01*
X121642404Y-60111690D01*
X123118595Y-59587880D02*
X122642404Y-59587880D01*
X122594785Y-60064071D01*
X122642404Y-60016452D01*
X122737642Y-59968833D01*
X122975738Y-59968833D01*
X123070976Y-60016452D01*
X123118595Y-60064071D01*
X123166214Y-60159309D01*
X123166214Y-60397404D01*
X123118595Y-60492642D01*
X123070976Y-60540261D01*
X122975738Y-60587880D01*
X122737642Y-60587880D01*
X122642404Y-60540261D01*
X122594785Y-60492642D01*
%TO.C,R4*%
X121181833Y-49537880D02*
X120848500Y-49061690D01*
X120610404Y-49537880D02*
X120610404Y-48537880D01*
X120991357Y-48537880D01*
X121086595Y-48585500D01*
X121134214Y-48633119D01*
X121181833Y-48728357D01*
X121181833Y-48871214D01*
X121134214Y-48966452D01*
X121086595Y-49014071D01*
X120991357Y-49061690D01*
X120610404Y-49061690D01*
X122038976Y-48871214D02*
X122038976Y-49537880D01*
X121800880Y-48490261D02*
X121562785Y-49204547D01*
X122181833Y-49204547D01*
%TO.C,R3*%
X117625833Y-60587880D02*
X117292500Y-60111690D01*
X117054404Y-60587880D02*
X117054404Y-59587880D01*
X117435357Y-59587880D01*
X117530595Y-59635500D01*
X117578214Y-59683119D01*
X117625833Y-59778357D01*
X117625833Y-59921214D01*
X117578214Y-60016452D01*
X117530595Y-60064071D01*
X117435357Y-60111690D01*
X117054404Y-60111690D01*
X117959166Y-59587880D02*
X118578214Y-59587880D01*
X118244880Y-59968833D01*
X118387738Y-59968833D01*
X118482976Y-60016452D01*
X118530595Y-60064071D01*
X118578214Y-60159309D01*
X118578214Y-60397404D01*
X118530595Y-60492642D01*
X118482976Y-60540261D01*
X118387738Y-60587880D01*
X118102023Y-60587880D01*
X118006785Y-60540261D01*
X117959166Y-60492642D01*
%TO.C,R2*%
X116101833Y-49410880D02*
X115768500Y-48934690D01*
X115530404Y-49410880D02*
X115530404Y-48410880D01*
X115911357Y-48410880D01*
X116006595Y-48458500D01*
X116054214Y-48506119D01*
X116101833Y-48601357D01*
X116101833Y-48744214D01*
X116054214Y-48839452D01*
X116006595Y-48887071D01*
X115911357Y-48934690D01*
X115530404Y-48934690D01*
X116482785Y-48506119D02*
X116530404Y-48458500D01*
X116625642Y-48410880D01*
X116863738Y-48410880D01*
X116958976Y-48458500D01*
X117006595Y-48506119D01*
X117054214Y-48601357D01*
X117054214Y-48696595D01*
X117006595Y-48839452D01*
X116435166Y-49410880D01*
X117054214Y-49410880D01*
%TO.C,R1*%
X113942833Y-27693880D02*
X113609500Y-27217690D01*
X113371404Y-27693880D02*
X113371404Y-26693880D01*
X113752357Y-26693880D01*
X113847595Y-26741500D01*
X113895214Y-26789119D01*
X113942833Y-26884357D01*
X113942833Y-27027214D01*
X113895214Y-27122452D01*
X113847595Y-27170071D01*
X113752357Y-27217690D01*
X113371404Y-27217690D01*
X114895214Y-27693880D02*
X114323785Y-27693880D01*
X114609500Y-27693880D02*
X114609500Y-26693880D01*
X114514261Y-26836738D01*
X114419023Y-26931976D01*
X114323785Y-26979595D01*
%TO.C,Q7*%
X145192761Y-16486119D02*
X145097523Y-16438500D01*
X145002285Y-16343261D01*
X144859428Y-16200404D01*
X144764190Y-16152785D01*
X144668952Y-16152785D01*
X144716571Y-16390880D02*
X144621333Y-16343261D01*
X144526095Y-16248023D01*
X144478476Y-16057547D01*
X144478476Y-15724214D01*
X144526095Y-15533738D01*
X144621333Y-15438500D01*
X144716571Y-15390880D01*
X144907047Y-15390880D01*
X145002285Y-15438500D01*
X145097523Y-15533738D01*
X145145142Y-15724214D01*
X145145142Y-16057547D01*
X145097523Y-16248023D01*
X145002285Y-16343261D01*
X144907047Y-16390880D01*
X144716571Y-16390880D01*
X145478476Y-15390880D02*
X146145142Y-15390880D01*
X145716571Y-16390880D01*
%TO.C,Q6*%
X133953261Y-18708619D02*
X133858023Y-18661000D01*
X133762785Y-18565761D01*
X133619928Y-18422904D01*
X133524690Y-18375285D01*
X133429452Y-18375285D01*
X133477071Y-18613380D02*
X133381833Y-18565761D01*
X133286595Y-18470523D01*
X133238976Y-18280047D01*
X133238976Y-17946714D01*
X133286595Y-17756238D01*
X133381833Y-17661000D01*
X133477071Y-17613380D01*
X133667547Y-17613380D01*
X133762785Y-17661000D01*
X133858023Y-17756238D01*
X133905642Y-17946714D01*
X133905642Y-18280047D01*
X133858023Y-18470523D01*
X133762785Y-18565761D01*
X133667547Y-18613380D01*
X133477071Y-18613380D01*
X134762785Y-17613380D02*
X134572309Y-17613380D01*
X134477071Y-17661000D01*
X134429452Y-17708619D01*
X134334214Y-17851476D01*
X134286595Y-18041952D01*
X134286595Y-18422904D01*
X134334214Y-18518142D01*
X134381833Y-18565761D01*
X134477071Y-18613380D01*
X134667547Y-18613380D01*
X134762785Y-18565761D01*
X134810404Y-18518142D01*
X134858023Y-18422904D01*
X134858023Y-18184809D01*
X134810404Y-18089571D01*
X134762785Y-18041952D01*
X134667547Y-17994333D01*
X134477071Y-17994333D01*
X134381833Y-18041952D01*
X134334214Y-18089571D01*
X134286595Y-18184809D01*
%TO.C,Q5*%
X137636261Y-18645119D02*
X137541023Y-18597500D01*
X137445785Y-18502261D01*
X137302928Y-18359404D01*
X137207690Y-18311785D01*
X137112452Y-18311785D01*
X137160071Y-18549880D02*
X137064833Y-18502261D01*
X136969595Y-18407023D01*
X136921976Y-18216547D01*
X136921976Y-17883214D01*
X136969595Y-17692738D01*
X137064833Y-17597500D01*
X137160071Y-17549880D01*
X137350547Y-17549880D01*
X137445785Y-17597500D01*
X137541023Y-17692738D01*
X137588642Y-17883214D01*
X137588642Y-18216547D01*
X137541023Y-18407023D01*
X137445785Y-18502261D01*
X137350547Y-18549880D01*
X137160071Y-18549880D01*
X138493404Y-17549880D02*
X138017214Y-17549880D01*
X137969595Y-18026071D01*
X138017214Y-17978452D01*
X138112452Y-17930833D01*
X138350547Y-17930833D01*
X138445785Y-17978452D01*
X138493404Y-18026071D01*
X138541023Y-18121309D01*
X138541023Y-18359404D01*
X138493404Y-18454642D01*
X138445785Y-18502261D01*
X138350547Y-18549880D01*
X138112452Y-18549880D01*
X138017214Y-18502261D01*
X137969595Y-18454642D01*
%TO.C,Q4*%
X123455441Y-32972619D02*
X123360203Y-32925000D01*
X123264965Y-32829761D01*
X123122108Y-32686904D01*
X123026870Y-32639285D01*
X122931632Y-32639285D01*
X122979251Y-32877380D02*
X122884013Y-32829761D01*
X122788775Y-32734523D01*
X122741156Y-32544047D01*
X122741156Y-32210714D01*
X122788775Y-32020238D01*
X122884013Y-31925000D01*
X122979251Y-31877380D01*
X123169727Y-31877380D01*
X123264965Y-31925000D01*
X123360203Y-32020238D01*
X123407822Y-32210714D01*
X123407822Y-32544047D01*
X123360203Y-32734523D01*
X123264965Y-32829761D01*
X123169727Y-32877380D01*
X122979251Y-32877380D01*
X124264965Y-32210714D02*
X124264965Y-32877380D01*
X124026870Y-31829761D02*
X123788775Y-32544047D01*
X124407822Y-32544047D01*
%TO.C,Q3*%
X123455441Y-27714819D02*
X123360203Y-27667200D01*
X123264965Y-27571961D01*
X123122108Y-27429104D01*
X123026870Y-27381485D01*
X122931632Y-27381485D01*
X122979251Y-27619580D02*
X122884013Y-27571961D01*
X122788775Y-27476723D01*
X122741156Y-27286247D01*
X122741156Y-26952914D01*
X122788775Y-26762438D01*
X122884013Y-26667200D01*
X122979251Y-26619580D01*
X123169727Y-26619580D01*
X123264965Y-26667200D01*
X123360203Y-26762438D01*
X123407822Y-26952914D01*
X123407822Y-27286247D01*
X123360203Y-27476723D01*
X123264965Y-27571961D01*
X123169727Y-27619580D01*
X122979251Y-27619580D01*
X123741156Y-26619580D02*
X124360203Y-26619580D01*
X124026870Y-27000533D01*
X124169727Y-27000533D01*
X124264965Y-27048152D01*
X124312584Y-27095771D01*
X124360203Y-27191009D01*
X124360203Y-27429104D01*
X124312584Y-27524342D01*
X124264965Y-27571961D01*
X124169727Y-27619580D01*
X123884013Y-27619580D01*
X123788775Y-27571961D01*
X123741156Y-27524342D01*
%TO.C,Q2*%
X119056161Y-32939599D02*
X118960923Y-32891980D01*
X118865685Y-32796741D01*
X118722828Y-32653884D01*
X118627590Y-32606265D01*
X118532352Y-32606265D01*
X118579971Y-32844360D02*
X118484733Y-32796741D01*
X118389495Y-32701503D01*
X118341876Y-32511027D01*
X118341876Y-32177694D01*
X118389495Y-31987218D01*
X118484733Y-31891980D01*
X118579971Y-31844360D01*
X118770447Y-31844360D01*
X118865685Y-31891980D01*
X118960923Y-31987218D01*
X119008542Y-32177694D01*
X119008542Y-32511027D01*
X118960923Y-32701503D01*
X118865685Y-32796741D01*
X118770447Y-32844360D01*
X118579971Y-32844360D01*
X119389495Y-31939599D02*
X119437114Y-31891980D01*
X119532352Y-31844360D01*
X119770447Y-31844360D01*
X119865685Y-31891980D01*
X119913304Y-31939599D01*
X119960923Y-32034837D01*
X119960923Y-32130075D01*
X119913304Y-32272932D01*
X119341876Y-32844360D01*
X119960923Y-32844360D01*
%TO.C,Q1*%
X119056161Y-27714819D02*
X118960923Y-27667200D01*
X118865685Y-27571961D01*
X118722828Y-27429104D01*
X118627590Y-27381485D01*
X118532352Y-27381485D01*
X118579971Y-27619580D02*
X118484733Y-27571961D01*
X118389495Y-27476723D01*
X118341876Y-27286247D01*
X118341876Y-26952914D01*
X118389495Y-26762438D01*
X118484733Y-26667200D01*
X118579971Y-26619580D01*
X118770447Y-26619580D01*
X118865685Y-26667200D01*
X118960923Y-26762438D01*
X119008542Y-26952914D01*
X119008542Y-27286247D01*
X118960923Y-27476723D01*
X118865685Y-27571961D01*
X118770447Y-27619580D01*
X118579971Y-27619580D01*
X119960923Y-27619580D02*
X119389495Y-27619580D01*
X119675209Y-27619580D02*
X119675209Y-26619580D01*
X119579971Y-26762438D01*
X119484733Y-26857676D01*
X119389495Y-26905295D01*
%TO.C,J2*%
X105394166Y-43584880D02*
X105394166Y-44299166D01*
X105346547Y-44442023D01*
X105251309Y-44537261D01*
X105108452Y-44584880D01*
X105013214Y-44584880D01*
X105822738Y-43680119D02*
X105870357Y-43632500D01*
X105965595Y-43584880D01*
X106203690Y-43584880D01*
X106298928Y-43632500D01*
X106346547Y-43680119D01*
X106394166Y-43775357D01*
X106394166Y-43870595D01*
X106346547Y-44013452D01*
X105775119Y-44584880D01*
X106394166Y-44584880D01*
%TO.C,J1*%
X105394166Y-30122880D02*
X105394166Y-30837166D01*
X105346547Y-30980023D01*
X105251309Y-31075261D01*
X105108452Y-31122880D01*
X105013214Y-31122880D01*
X106394166Y-31122880D02*
X105822738Y-31122880D01*
X106108452Y-31122880D02*
X106108452Y-30122880D01*
X106013214Y-30265738D01*
X105917976Y-30360976D01*
X105822738Y-30408595D01*
%TO.C,D4*%
X126706404Y-66555880D02*
X126706404Y-65555880D01*
X126944500Y-65555880D01*
X127087357Y-65603500D01*
X127182595Y-65698738D01*
X127230214Y-65793976D01*
X127277833Y-65984452D01*
X127277833Y-66127309D01*
X127230214Y-66317785D01*
X127182595Y-66413023D01*
X127087357Y-66508261D01*
X126944500Y-66555880D01*
X126706404Y-66555880D01*
X128134976Y-65889214D02*
X128134976Y-66555880D01*
X127896880Y-65508261D02*
X127658785Y-66222547D01*
X128277833Y-66222547D01*
X121848595Y-64709880D02*
X121848595Y-63709880D01*
X122420023Y-64709880D02*
X121991452Y-64138452D01*
X122420023Y-63709880D02*
X121848595Y-64281309D01*
%TO.C,D3*%
X126960404Y-40012880D02*
X126960404Y-39012880D01*
X127198500Y-39012880D01*
X127341357Y-39060500D01*
X127436595Y-39155738D01*
X127484214Y-39250976D01*
X127531833Y-39441452D01*
X127531833Y-39584309D01*
X127484214Y-39774785D01*
X127436595Y-39870023D01*
X127341357Y-39965261D01*
X127198500Y-40012880D01*
X126960404Y-40012880D01*
X127865166Y-39012880D02*
X128484214Y-39012880D01*
X128150880Y-39393833D01*
X128293738Y-39393833D01*
X128388976Y-39441452D01*
X128436595Y-39489071D01*
X128484214Y-39584309D01*
X128484214Y-39822404D01*
X128436595Y-39917642D01*
X128388976Y-39965261D01*
X128293738Y-40012880D01*
X128008023Y-40012880D01*
X127912785Y-39965261D01*
X127865166Y-39917642D01*
X132897595Y-42239880D02*
X132897595Y-41239880D01*
X133469023Y-42239880D02*
X133040452Y-41668452D01*
X133469023Y-41239880D02*
X132897595Y-41811309D01*
%TO.C,D2*%
X137675880Y-61507595D02*
X136675880Y-61507595D01*
X136675880Y-61269500D01*
X136723500Y-61126642D01*
X136818738Y-61031404D01*
X136913976Y-60983785D01*
X137104452Y-60936166D01*
X137247309Y-60936166D01*
X137437785Y-60983785D01*
X137533023Y-61031404D01*
X137628261Y-61126642D01*
X137675880Y-61269500D01*
X137675880Y-61507595D01*
X136771119Y-60555214D02*
X136723500Y-60507595D01*
X136675880Y-60412357D01*
X136675880Y-60174261D01*
X136723500Y-60079023D01*
X136771119Y-60031404D01*
X136866357Y-59983785D01*
X136961595Y-59983785D01*
X137104452Y-60031404D01*
X137675880Y-60602833D01*
X137675880Y-59983785D01*
X135702880Y-66619404D02*
X134702880Y-66619404D01*
X135702880Y-66047976D02*
X135131452Y-66476547D01*
X134702880Y-66047976D02*
X135274309Y-66619404D01*
%TO.C,D1*%
X138564880Y-45378595D02*
X137564880Y-45378595D01*
X137564880Y-45140500D01*
X137612500Y-44997642D01*
X137707738Y-44902404D01*
X137802976Y-44854785D01*
X137993452Y-44807166D01*
X138136309Y-44807166D01*
X138326785Y-44854785D01*
X138422023Y-44902404D01*
X138517261Y-44997642D01*
X138564880Y-45140500D01*
X138564880Y-45378595D01*
X138564880Y-43854785D02*
X138564880Y-44426214D01*
X138564880Y-44140500D02*
X137564880Y-44140500D01*
X137707738Y-44235738D01*
X137802976Y-44330976D01*
X137850595Y-44426214D01*
X136591880Y-50109404D02*
X135591880Y-50109404D01*
X136591880Y-49537976D02*
X136020452Y-49966547D01*
X135591880Y-49537976D02*
X136163309Y-50109404D01*
%TO.C,C7*%
X141438333Y-21439142D02*
X141390714Y-21486761D01*
X141247857Y-21534380D01*
X141152619Y-21534380D01*
X141009761Y-21486761D01*
X140914523Y-21391523D01*
X140866904Y-21296285D01*
X140819285Y-21105809D01*
X140819285Y-20962952D01*
X140866904Y-20772476D01*
X140914523Y-20677238D01*
X141009761Y-20582000D01*
X141152619Y-20534380D01*
X141247857Y-20534380D01*
X141390714Y-20582000D01*
X141438333Y-20629619D01*
X141771666Y-20534380D02*
X142438333Y-20534380D01*
X142009761Y-21534380D01*
%TO.C,C6*%
X150010833Y-61888642D02*
X149963214Y-61936261D01*
X149820357Y-61983880D01*
X149725119Y-61983880D01*
X149582261Y-61936261D01*
X149487023Y-61841023D01*
X149439404Y-61745785D01*
X149391785Y-61555309D01*
X149391785Y-61412452D01*
X149439404Y-61221976D01*
X149487023Y-61126738D01*
X149582261Y-61031500D01*
X149725119Y-60983880D01*
X149820357Y-60983880D01*
X149963214Y-61031500D01*
X150010833Y-61079119D01*
X150867976Y-60983880D02*
X150677500Y-60983880D01*
X150582261Y-61031500D01*
X150534642Y-61079119D01*
X150439404Y-61221976D01*
X150391785Y-61412452D01*
X150391785Y-61793404D01*
X150439404Y-61888642D01*
X150487023Y-61936261D01*
X150582261Y-61983880D01*
X150772738Y-61983880D01*
X150867976Y-61936261D01*
X150915595Y-61888642D01*
X150963214Y-61793404D01*
X150963214Y-61555309D01*
X150915595Y-61460071D01*
X150867976Y-61412452D01*
X150772738Y-61364833D01*
X150582261Y-61364833D01*
X150487023Y-61412452D01*
X150439404Y-61460071D01*
X150391785Y-61555309D01*
%TO.C,C5*%
X148994833Y-45505642D02*
X148947214Y-45553261D01*
X148804357Y-45600880D01*
X148709119Y-45600880D01*
X148566261Y-45553261D01*
X148471023Y-45458023D01*
X148423404Y-45362785D01*
X148375785Y-45172309D01*
X148375785Y-45029452D01*
X148423404Y-44838976D01*
X148471023Y-44743738D01*
X148566261Y-44648500D01*
X148709119Y-44600880D01*
X148804357Y-44600880D01*
X148947214Y-44648500D01*
X148994833Y-44696119D01*
X149899595Y-44600880D02*
X149423404Y-44600880D01*
X149375785Y-45077071D01*
X149423404Y-45029452D01*
X149518642Y-44981833D01*
X149756738Y-44981833D01*
X149851976Y-45029452D01*
X149899595Y-45077071D01*
X149947214Y-45172309D01*
X149947214Y-45410404D01*
X149899595Y-45505642D01*
X149851976Y-45553261D01*
X149756738Y-45600880D01*
X149518642Y-45600880D01*
X149423404Y-45553261D01*
X149375785Y-45505642D01*
%TO.C,C4*%
X140993833Y-61761642D02*
X140946214Y-61809261D01*
X140803357Y-61856880D01*
X140708119Y-61856880D01*
X140565261Y-61809261D01*
X140470023Y-61714023D01*
X140422404Y-61618785D01*
X140374785Y-61428309D01*
X140374785Y-61285452D01*
X140422404Y-61094976D01*
X140470023Y-60999738D01*
X140565261Y-60904500D01*
X140708119Y-60856880D01*
X140803357Y-60856880D01*
X140946214Y-60904500D01*
X140993833Y-60952119D01*
X141850976Y-61190214D02*
X141850976Y-61856880D01*
X141612880Y-60809261D02*
X141374785Y-61523547D01*
X141993833Y-61523547D01*
%TO.C,C3*%
X141120833Y-44743642D02*
X141073214Y-44791261D01*
X140930357Y-44838880D01*
X140835119Y-44838880D01*
X140692261Y-44791261D01*
X140597023Y-44696023D01*
X140549404Y-44600785D01*
X140501785Y-44410309D01*
X140501785Y-44267452D01*
X140549404Y-44076976D01*
X140597023Y-43981738D01*
X140692261Y-43886500D01*
X140835119Y-43838880D01*
X140930357Y-43838880D01*
X141073214Y-43886500D01*
X141120833Y-43934119D01*
X141454166Y-43838880D02*
X142073214Y-43838880D01*
X141739880Y-44219833D01*
X141882738Y-44219833D01*
X141977976Y-44267452D01*
X142025595Y-44315071D01*
X142073214Y-44410309D01*
X142073214Y-44648404D01*
X142025595Y-44743642D01*
X141977976Y-44791261D01*
X141882738Y-44838880D01*
X141597023Y-44838880D01*
X141501785Y-44791261D01*
X141454166Y-44743642D01*
%TO.C,C2*%
X117054333Y-53252642D02*
X117006714Y-53300261D01*
X116863857Y-53347880D01*
X116768619Y-53347880D01*
X116625761Y-53300261D01*
X116530523Y-53205023D01*
X116482904Y-53109785D01*
X116435285Y-52919309D01*
X116435285Y-52776452D01*
X116482904Y-52585976D01*
X116530523Y-52490738D01*
X116625761Y-52395500D01*
X116768619Y-52347880D01*
X116863857Y-52347880D01*
X117006714Y-52395500D01*
X117054333Y-52443119D01*
X117435285Y-52443119D02*
X117482904Y-52395500D01*
X117578142Y-52347880D01*
X117816238Y-52347880D01*
X117911476Y-52395500D01*
X117959095Y-52443119D01*
X118006714Y-52538357D01*
X118006714Y-52633595D01*
X117959095Y-52776452D01*
X117387666Y-53347880D01*
X118006714Y-53347880D01*
%TO.C,C1*%
X118006833Y-41378142D02*
X117959214Y-41425761D01*
X117816357Y-41473380D01*
X117721119Y-41473380D01*
X117578261Y-41425761D01*
X117483023Y-41330523D01*
X117435404Y-41235285D01*
X117387785Y-41044809D01*
X117387785Y-40901952D01*
X117435404Y-40711476D01*
X117483023Y-40616238D01*
X117578261Y-40521000D01*
X117721119Y-40473380D01*
X117816357Y-40473380D01*
X117959214Y-40521000D01*
X118006833Y-40568619D01*
X118959214Y-41473380D02*
X118387785Y-41473380D01*
X118673500Y-41473380D02*
X118673500Y-40473380D01*
X118578261Y-40616238D01*
X118483023Y-40711476D01*
X118387785Y-40759095D01*
%TD*%
M02*
