%TF.GenerationSoftware,KiCad,Pcbnew,(5.1.8-0-10_14)*%
%TF.CreationDate,2022-02-24T11:51:48-06:00*%
%TF.ProjectId,SAQ_KiCad,5341515f-4b69-4436-9164-2e6b69636164,rev?*%
%TF.SameCoordinates,Original*%
%TF.FileFunction,Copper,L2,Bot*%
%TF.FilePolarity,Positive*%
%FSLAX46Y46*%
G04 Gerber Fmt 4.6, Leading zero omitted, Abs format (unit mm)*
G04 Created by KiCad (PCBNEW (5.1.8-0-10_14)) date 2022-02-24 11:51:48*
%MOMM*%
%LPD*%
G01*
G04 APERTURE LIST*
%TA.AperFunction,ComponentPad*%
%ADD10C,2.250000*%
%TD*%
%TA.AperFunction,ComponentPad*%
%ADD11C,2.050000*%
%TD*%
%TA.AperFunction,ComponentPad*%
%ADD12R,1.000000X1.000000*%
%TD*%
%TA.AperFunction,SMDPad,CuDef*%
%ADD13R,1.100000X1.300000*%
%TD*%
%TA.AperFunction,ComponentPad*%
%ADD14O,3.500000X2.200000*%
%TD*%
%TA.AperFunction,ComponentPad*%
%ADD15O,2.500000X1.500000*%
%TD*%
%TA.AperFunction,ComponentPad*%
%ADD16R,2.500000X1.500000*%
%TD*%
%TA.AperFunction,ComponentPad*%
%ADD17C,2.500000*%
%TD*%
%TA.AperFunction,ComponentPad*%
%ADD18R,2.500000X2.500000*%
%TD*%
%TA.AperFunction,ComponentPad*%
%ADD19C,2.800000*%
%TD*%
%TA.AperFunction,ComponentPad*%
%ADD20R,2.800000X2.800000*%
%TD*%
%TA.AperFunction,ComponentPad*%
%ADD21O,2.200000X2.200000*%
%TD*%
%TA.AperFunction,ComponentPad*%
%ADD22R,2.200000X2.200000*%
%TD*%
%TA.AperFunction,ViaPad*%
%ADD23C,0.800000*%
%TD*%
%TA.AperFunction,Conductor*%
%ADD24C,0.250000*%
%TD*%
%TA.AperFunction,Conductor*%
%ADD25C,0.500000*%
%TD*%
%TA.AperFunction,Conductor*%
%ADD26C,0.254000*%
%TD*%
%TA.AperFunction,Conductor*%
%ADD27C,0.100000*%
%TD*%
G04 APERTURE END LIST*
D10*
%TO.P,J3,2*%
%TO.N,GND*%
X115570000Y-23876000D03*
X115570000Y-18796000D03*
X120650000Y-18796000D03*
X120650000Y-23876000D03*
D11*
%TO.P,J3,1*%
%TO.N,Net-(J3-Pad1)*%
X118110000Y-21336000D03*
%TD*%
%TO.P,U5,14*%
%TO.N,+3V3*%
%TA.AperFunction,SMDPad,CuDef*%
G36*
G01*
X166473000Y-43901500D02*
X166473000Y-43601500D01*
G75*
G02*
X166623000Y-43451500I150000J0D01*
G01*
X168273000Y-43451500D01*
G75*
G02*
X168423000Y-43601500I0J-150000D01*
G01*
X168423000Y-43901500D01*
G75*
G02*
X168273000Y-44051500I-150000J0D01*
G01*
X166623000Y-44051500D01*
G75*
G02*
X166473000Y-43901500I0J150000D01*
G01*
G37*
%TD.AperFunction*%
%TO.P,U5,13*%
%TA.AperFunction,SMDPad,CuDef*%
G36*
G01*
X166473000Y-42631500D02*
X166473000Y-42331500D01*
G75*
G02*
X166623000Y-42181500I150000J0D01*
G01*
X168273000Y-42181500D01*
G75*
G02*
X168423000Y-42331500I0J-150000D01*
G01*
X168423000Y-42631500D01*
G75*
G02*
X168273000Y-42781500I-150000J0D01*
G01*
X166623000Y-42781500D01*
G75*
G02*
X166473000Y-42631500I0J150000D01*
G01*
G37*
%TD.AperFunction*%
%TO.P,U5,12*%
%TO.N,Net-(R15-Pad2)*%
%TA.AperFunction,SMDPad,CuDef*%
G36*
G01*
X166473000Y-41361500D02*
X166473000Y-41061500D01*
G75*
G02*
X166623000Y-40911500I150000J0D01*
G01*
X168273000Y-40911500D01*
G75*
G02*
X168423000Y-41061500I0J-150000D01*
G01*
X168423000Y-41361500D01*
G75*
G02*
X168273000Y-41511500I-150000J0D01*
G01*
X166623000Y-41511500D01*
G75*
G02*
X166473000Y-41361500I0J150000D01*
G01*
G37*
%TD.AperFunction*%
%TO.P,U5,11*%
%TO.N,CLK*%
%TA.AperFunction,SMDPad,CuDef*%
G36*
G01*
X166473000Y-40091500D02*
X166473000Y-39791500D01*
G75*
G02*
X166623000Y-39641500I150000J0D01*
G01*
X168273000Y-39641500D01*
G75*
G02*
X168423000Y-39791500I0J-150000D01*
G01*
X168423000Y-40091500D01*
G75*
G02*
X168273000Y-40241500I-150000J0D01*
G01*
X166623000Y-40241500D01*
G75*
G02*
X166473000Y-40091500I0J150000D01*
G01*
G37*
%TD.AperFunction*%
%TO.P,U5,10*%
%TO.N,+3V3*%
%TA.AperFunction,SMDPad,CuDef*%
G36*
G01*
X166473000Y-38821500D02*
X166473000Y-38521500D01*
G75*
G02*
X166623000Y-38371500I150000J0D01*
G01*
X168273000Y-38371500D01*
G75*
G02*
X168423000Y-38521500I0J-150000D01*
G01*
X168423000Y-38821500D01*
G75*
G02*
X168273000Y-38971500I-150000J0D01*
G01*
X166623000Y-38971500D01*
G75*
G02*
X166473000Y-38821500I0J150000D01*
G01*
G37*
%TD.AperFunction*%
%TO.P,U5,9*%
%TO.N,Net-(R18-Pad1)*%
%TA.AperFunction,SMDPad,CuDef*%
G36*
G01*
X166473000Y-37551500D02*
X166473000Y-37251500D01*
G75*
G02*
X166623000Y-37101500I150000J0D01*
G01*
X168273000Y-37101500D01*
G75*
G02*
X168423000Y-37251500I0J-150000D01*
G01*
X168423000Y-37551500D01*
G75*
G02*
X168273000Y-37701500I-150000J0D01*
G01*
X166623000Y-37701500D01*
G75*
G02*
X166473000Y-37551500I0J150000D01*
G01*
G37*
%TD.AperFunction*%
%TO.P,U5,8*%
%TO.N,Net-(U5-Pad8)*%
%TA.AperFunction,SMDPad,CuDef*%
G36*
G01*
X166473000Y-36281500D02*
X166473000Y-35981500D01*
G75*
G02*
X166623000Y-35831500I150000J0D01*
G01*
X168273000Y-35831500D01*
G75*
G02*
X168423000Y-35981500I0J-150000D01*
G01*
X168423000Y-36281500D01*
G75*
G02*
X168273000Y-36431500I-150000J0D01*
G01*
X166623000Y-36431500D01*
G75*
G02*
X166473000Y-36281500I0J150000D01*
G01*
G37*
%TD.AperFunction*%
%TO.P,U5,7*%
%TO.N,GND*%
%TA.AperFunction,SMDPad,CuDef*%
G36*
G01*
X161523000Y-36281500D02*
X161523000Y-35981500D01*
G75*
G02*
X161673000Y-35831500I150000J0D01*
G01*
X163323000Y-35831500D01*
G75*
G02*
X163473000Y-35981500I0J-150000D01*
G01*
X163473000Y-36281500D01*
G75*
G02*
X163323000Y-36431500I-150000J0D01*
G01*
X161673000Y-36431500D01*
G75*
G02*
X161523000Y-36281500I0J150000D01*
G01*
G37*
%TD.AperFunction*%
%TO.P,U5,6*%
%TO.N,Net-(U5-Pad6)*%
%TA.AperFunction,SMDPad,CuDef*%
G36*
G01*
X161523000Y-37551500D02*
X161523000Y-37251500D01*
G75*
G02*
X161673000Y-37101500I150000J0D01*
G01*
X163323000Y-37101500D01*
G75*
G02*
X163473000Y-37251500I0J-150000D01*
G01*
X163473000Y-37551500D01*
G75*
G02*
X163323000Y-37701500I-150000J0D01*
G01*
X161673000Y-37701500D01*
G75*
G02*
X161523000Y-37551500I0J150000D01*
G01*
G37*
%TD.AperFunction*%
%TO.P,U5,5*%
%TO.N,Net-(R15-Pad2)*%
%TA.AperFunction,SMDPad,CuDef*%
G36*
G01*
X161523000Y-38821500D02*
X161523000Y-38521500D01*
G75*
G02*
X161673000Y-38371500I150000J0D01*
G01*
X163323000Y-38371500D01*
G75*
G02*
X163473000Y-38521500I0J-150000D01*
G01*
X163473000Y-38821500D01*
G75*
G02*
X163323000Y-38971500I-150000J0D01*
G01*
X161673000Y-38971500D01*
G75*
G02*
X161523000Y-38821500I0J150000D01*
G01*
G37*
%TD.AperFunction*%
%TO.P,U5,4*%
%TO.N,+3V3*%
%TA.AperFunction,SMDPad,CuDef*%
G36*
G01*
X161523000Y-40091500D02*
X161523000Y-39791500D01*
G75*
G02*
X161673000Y-39641500I150000J0D01*
G01*
X163323000Y-39641500D01*
G75*
G02*
X163473000Y-39791500I0J-150000D01*
G01*
X163473000Y-40091500D01*
G75*
G02*
X163323000Y-40241500I-150000J0D01*
G01*
X161673000Y-40241500D01*
G75*
G02*
X161523000Y-40091500I0J150000D01*
G01*
G37*
%TD.AperFunction*%
%TO.P,U5,3*%
%TO.N,CLK*%
%TA.AperFunction,SMDPad,CuDef*%
G36*
G01*
X161523000Y-41361500D02*
X161523000Y-41061500D01*
G75*
G02*
X161673000Y-40911500I150000J0D01*
G01*
X163323000Y-40911500D01*
G75*
G02*
X163473000Y-41061500I0J-150000D01*
G01*
X163473000Y-41361500D01*
G75*
G02*
X163323000Y-41511500I-150000J0D01*
G01*
X161673000Y-41511500D01*
G75*
G02*
X161523000Y-41361500I0J150000D01*
G01*
G37*
%TD.AperFunction*%
%TO.P,U5,2*%
%TO.N,Net-(C8-Pad1)*%
%TA.AperFunction,SMDPad,CuDef*%
G36*
G01*
X161523000Y-42631500D02*
X161523000Y-42331500D01*
G75*
G02*
X161673000Y-42181500I150000J0D01*
G01*
X163323000Y-42181500D01*
G75*
G02*
X163473000Y-42331500I0J-150000D01*
G01*
X163473000Y-42631500D01*
G75*
G02*
X163323000Y-42781500I-150000J0D01*
G01*
X161673000Y-42781500D01*
G75*
G02*
X161523000Y-42631500I0J150000D01*
G01*
G37*
%TD.AperFunction*%
%TO.P,U5,1*%
%TO.N,+3V3*%
%TA.AperFunction,SMDPad,CuDef*%
G36*
G01*
X161523000Y-43901500D02*
X161523000Y-43601500D01*
G75*
G02*
X161673000Y-43451500I150000J0D01*
G01*
X163323000Y-43451500D01*
G75*
G02*
X163473000Y-43601500I0J-150000D01*
G01*
X163473000Y-43901500D01*
G75*
G02*
X163323000Y-44051500I-150000J0D01*
G01*
X161673000Y-44051500D01*
G75*
G02*
X161523000Y-43901500I0J150000D01*
G01*
G37*
%TD.AperFunction*%
%TD*%
D10*
%TO.P,J4,2*%
%TO.N,GND*%
X163068000Y-29845000D03*
X163068000Y-24765000D03*
X168148000Y-24765000D03*
X168148000Y-29845000D03*
D11*
%TO.P,J4,1*%
%TO.N,Net-(J4-Pad1)*%
X165608000Y-27305000D03*
%TD*%
%TO.P,C14,2*%
%TO.N,GND*%
%TA.AperFunction,SMDPad,CuDef*%
G36*
G01*
X150760000Y-25796001D02*
X150760000Y-24495999D01*
G75*
G02*
X151009999Y-24246000I249999J0D01*
G01*
X151835001Y-24246000D01*
G75*
G02*
X152085000Y-24495999I0J-249999D01*
G01*
X152085000Y-25796001D01*
G75*
G02*
X151835001Y-26046000I-249999J0D01*
G01*
X151009999Y-26046000D01*
G75*
G02*
X150760000Y-25796001I0J249999D01*
G01*
G37*
%TD.AperFunction*%
%TO.P,C14,1*%
%TO.N,-3V3*%
%TA.AperFunction,SMDPad,CuDef*%
G36*
G01*
X147635000Y-25796001D02*
X147635000Y-24495999D01*
G75*
G02*
X147884999Y-24246000I249999J0D01*
G01*
X148710001Y-24246000D01*
G75*
G02*
X148960000Y-24495999I0J-249999D01*
G01*
X148960000Y-25796001D01*
G75*
G02*
X148710001Y-26046000I-249999J0D01*
G01*
X147884999Y-26046000D01*
G75*
G02*
X147635000Y-25796001I0J249999D01*
G01*
G37*
%TD.AperFunction*%
%TD*%
%TO.P,C12,2*%
%TO.N,GND*%
%TA.AperFunction,SMDPad,CuDef*%
G36*
G01*
X139943000Y-27226497D02*
X139943000Y-28526503D01*
G75*
G02*
X139693003Y-28776500I-249997J0D01*
G01*
X138867997Y-28776500D01*
G75*
G02*
X138618000Y-28526503I0J249997D01*
G01*
X138618000Y-27226497D01*
G75*
G02*
X138867997Y-26976500I249997J0D01*
G01*
X139693003Y-26976500D01*
G75*
G02*
X139943000Y-27226497I0J-249997D01*
G01*
G37*
%TD.AperFunction*%
%TO.P,C12,1*%
%TO.N,+3V3*%
%TA.AperFunction,SMDPad,CuDef*%
G36*
G01*
X143068000Y-27226497D02*
X143068000Y-28526503D01*
G75*
G02*
X142818003Y-28776500I-249997J0D01*
G01*
X141992997Y-28776500D01*
G75*
G02*
X141743000Y-28526503I0J249997D01*
G01*
X141743000Y-27226497D01*
G75*
G02*
X141992997Y-26976500I249997J0D01*
G01*
X142818003Y-26976500D01*
G75*
G02*
X143068000Y-27226497I0J-249997D01*
G01*
G37*
%TD.AperFunction*%
%TD*%
%TO.P,C11,2*%
%TO.N,GND*%
%TA.AperFunction,SMDPad,CuDef*%
G36*
G01*
X157723000Y-43609497D02*
X157723000Y-44909503D01*
G75*
G02*
X157473003Y-45159500I-249997J0D01*
G01*
X156647997Y-45159500D01*
G75*
G02*
X156398000Y-44909503I0J249997D01*
G01*
X156398000Y-43609497D01*
G75*
G02*
X156647997Y-43359500I249997J0D01*
G01*
X157473003Y-43359500D01*
G75*
G02*
X157723000Y-43609497I0J-249997D01*
G01*
G37*
%TD.AperFunction*%
%TO.P,C11,1*%
%TO.N,+3V3*%
%TA.AperFunction,SMDPad,CuDef*%
G36*
G01*
X160848000Y-43609497D02*
X160848000Y-44909503D01*
G75*
G02*
X160598003Y-45159500I-249997J0D01*
G01*
X159772997Y-45159500D01*
G75*
G02*
X159523000Y-44909503I0J249997D01*
G01*
X159523000Y-43609497D01*
G75*
G02*
X159772997Y-43359500I249997J0D01*
G01*
X160598003Y-43359500D01*
G75*
G02*
X160848000Y-43609497I0J-249997D01*
G01*
G37*
%TD.AperFunction*%
%TD*%
%TO.P,C10,2*%
%TO.N,GND*%
%TA.AperFunction,SMDPad,CuDef*%
G36*
G01*
X143181500Y-35227497D02*
X143181500Y-36527503D01*
G75*
G02*
X142931503Y-36777500I-249997J0D01*
G01*
X142106497Y-36777500D01*
G75*
G02*
X141856500Y-36527503I0J249997D01*
G01*
X141856500Y-35227497D01*
G75*
G02*
X142106497Y-34977500I249997J0D01*
G01*
X142931503Y-34977500D01*
G75*
G02*
X143181500Y-35227497I0J-249997D01*
G01*
G37*
%TD.AperFunction*%
%TO.P,C10,1*%
%TO.N,+3V3*%
%TA.AperFunction,SMDPad,CuDef*%
G36*
G01*
X146306500Y-35227497D02*
X146306500Y-36527503D01*
G75*
G02*
X146056503Y-36777500I-249997J0D01*
G01*
X145231497Y-36777500D01*
G75*
G02*
X144981500Y-36527503I0J249997D01*
G01*
X144981500Y-35227497D01*
G75*
G02*
X145231497Y-34977500I249997J0D01*
G01*
X146056503Y-34977500D01*
G75*
G02*
X146306500Y-35227497I0J-249997D01*
G01*
G37*
%TD.AperFunction*%
%TD*%
D12*
%TO.P,TP9,1*%
%TO.N,VEE*%
X127635000Y-35941000D03*
%TD*%
%TO.P,TP8,1*%
%TO.N,VDD*%
X145224500Y-39941500D03*
%TD*%
%TO.P,TP7,1*%
%TO.N,-3V3*%
X141414500Y-56451500D03*
%TD*%
%TO.P,TP6,1*%
%TO.N,+3V3*%
X141795500Y-39941500D03*
%TD*%
%TO.P,TP5,1*%
%TO.N,CLK*%
X164846000Y-47688500D03*
%TD*%
%TO.P,TP4,1*%
%TO.N,Net-(R15-Pad2)*%
X157289500Y-27178000D03*
%TD*%
%TO.P,TP3,1*%
%TO.N,Net-(C8-Pad1)*%
X155384500Y-32321500D03*
%TD*%
%TO.P,TP2,1*%
%TO.N,Net-(R13-Pad2)*%
X152844500Y-22479000D03*
%TD*%
%TO.P,TP1,1*%
%TO.N,Net-(C7-Pad1)*%
X141859000Y-19177000D03*
%TD*%
D13*
%TO.P,X1,4*%
%TO.N,+3V3*%
X168401500Y-55406000D03*
%TO.P,X1,3*%
%TO.N,CLK*%
X168401500Y-53306000D03*
%TO.P,X1,2*%
%TO.N,GND*%
X166751500Y-53306000D03*
%TO.P,X1,1*%
%TO.N,Net-(SW2-Pad2)*%
X166751500Y-55406000D03*
%TD*%
D14*
%TO.P,SW2,*%
%TO.N,*%
X162687000Y-51299500D03*
X162687000Y-59499500D03*
D15*
%TO.P,SW2,3*%
%TO.N,+3V3*%
X162687000Y-53399500D03*
%TO.P,SW2,2*%
%TO.N,Net-(SW2-Pad2)*%
X162687000Y-55399500D03*
D16*
%TO.P,SW2,1*%
%TO.N,GND*%
X162687000Y-57399500D03*
%TD*%
D14*
%TO.P,SW1,*%
%TO.N,*%
X129286000Y-22665500D03*
X129286000Y-30865500D03*
D15*
%TO.P,SW1,3*%
%TO.N,Net-(J3-Pad1)*%
X129286000Y-24765500D03*
%TO.P,SW1,2*%
%TO.N,Net-(Q5-Pad2)*%
X129286000Y-26765500D03*
D16*
%TO.P,SW1,1*%
%TO.N,Net-(Q3-Pad3)*%
X129286000Y-28765500D03*
%TD*%
%TO.P,R18,2*%
%TO.N,Net-(J4-Pad1)*%
%TA.AperFunction,SMDPad,CuDef*%
G36*
G01*
X166121501Y-31842000D02*
X165221499Y-31842000D01*
G75*
G02*
X164971500Y-31592001I0J249999D01*
G01*
X164971500Y-30891999D01*
G75*
G02*
X165221499Y-30642000I249999J0D01*
G01*
X166121501Y-30642000D01*
G75*
G02*
X166371500Y-30891999I0J-249999D01*
G01*
X166371500Y-31592001D01*
G75*
G02*
X166121501Y-31842000I-249999J0D01*
G01*
G37*
%TD.AperFunction*%
%TO.P,R18,1*%
%TO.N,Net-(R18-Pad1)*%
%TA.AperFunction,SMDPad,CuDef*%
G36*
G01*
X166121501Y-33842000D02*
X165221499Y-33842000D01*
G75*
G02*
X164971500Y-33592001I0J249999D01*
G01*
X164971500Y-32891999D01*
G75*
G02*
X165221499Y-32642000I249999J0D01*
G01*
X166121501Y-32642000D01*
G75*
G02*
X166371500Y-32891999I0J-249999D01*
G01*
X166371500Y-33592001D01*
G75*
G02*
X166121501Y-33842000I-249999J0D01*
G01*
G37*
%TD.AperFunction*%
%TD*%
%TO.P,R17,2*%
%TO.N,Net-(C8-Pad1)*%
%TA.AperFunction,SMDPad,CuDef*%
G36*
G01*
X152054000Y-32771501D02*
X152054000Y-31871499D01*
G75*
G02*
X152303999Y-31621500I249999J0D01*
G01*
X153004001Y-31621500D01*
G75*
G02*
X153254000Y-31871499I0J-249999D01*
G01*
X153254000Y-32771501D01*
G75*
G02*
X153004001Y-33021500I-249999J0D01*
G01*
X152303999Y-33021500D01*
G75*
G02*
X152054000Y-32771501I0J249999D01*
G01*
G37*
%TD.AperFunction*%
%TO.P,R17,1*%
%TO.N,Net-(R16-Pad2)*%
%TA.AperFunction,SMDPad,CuDef*%
G36*
G01*
X150054000Y-32771501D02*
X150054000Y-31871499D01*
G75*
G02*
X150303999Y-31621500I249999J0D01*
G01*
X151004001Y-31621500D01*
G75*
G02*
X151254000Y-31871499I0J-249999D01*
G01*
X151254000Y-32771501D01*
G75*
G02*
X151004001Y-33021500I-249999J0D01*
G01*
X150303999Y-33021500D01*
G75*
G02*
X150054000Y-32771501I0J249999D01*
G01*
G37*
%TD.AperFunction*%
%TD*%
%TO.P,R15,2*%
%TO.N,Net-(R15-Pad2)*%
%TA.AperFunction,SMDPad,CuDef*%
G36*
G01*
X156902999Y-22688500D02*
X157803001Y-22688500D01*
G75*
G02*
X158053000Y-22938499I0J-249999D01*
G01*
X158053000Y-23638501D01*
G75*
G02*
X157803001Y-23888500I-249999J0D01*
G01*
X156902999Y-23888500D01*
G75*
G02*
X156653000Y-23638501I0J249999D01*
G01*
X156653000Y-22938499D01*
G75*
G02*
X156902999Y-22688500I249999J0D01*
G01*
G37*
%TD.AperFunction*%
%TO.P,R15,1*%
%TO.N,Net-(Q7-Pad3)*%
%TA.AperFunction,SMDPad,CuDef*%
G36*
G01*
X156902999Y-20688500D02*
X157803001Y-20688500D01*
G75*
G02*
X158053000Y-20938499I0J-249999D01*
G01*
X158053000Y-21638501D01*
G75*
G02*
X157803001Y-21888500I-249999J0D01*
G01*
X156902999Y-21888500D01*
G75*
G02*
X156653000Y-21638501I0J249999D01*
G01*
X156653000Y-20938499D01*
G75*
G02*
X156902999Y-20688500I249999J0D01*
G01*
G37*
%TD.AperFunction*%
%TD*%
D17*
%TO.P,J2,3*%
%TO.N,Net-(D2-Pad2)*%
X109156500Y-58102500D03*
%TO.P,J2,2*%
%TO.N,GND*%
X109156500Y-53102500D03*
D18*
%TO.P,J2,1*%
%TO.N,Net-(D1-Pad1)*%
X109156500Y-48102500D03*
%TD*%
D19*
%TO.P,J1,2*%
%TO.N,Net-(J1-Pad1)*%
X111696500Y-34560500D03*
D20*
%TO.P,J1,1*%
X111696500Y-39560500D03*
%TD*%
D21*
%TO.P,D4,2*%
%TO.N,-3V3*%
X132270500Y-66357500D03*
D22*
%TO.P,D4,1*%
%TO.N,GND*%
X122110500Y-66357500D03*
%TD*%
D21*
%TO.P,D3,2*%
%TO.N,GND*%
X122999500Y-39687500D03*
D22*
%TO.P,D3,1*%
%TO.N,+3V3*%
X133159500Y-39687500D03*
%TD*%
D21*
%TO.P,D2,2*%
%TO.N,Net-(D2-Pad2)*%
X137350500Y-56197500D03*
D22*
%TO.P,D2,1*%
%TO.N,-3V3*%
X137350500Y-66357500D03*
%TD*%
D21*
%TO.P,D1,2*%
%TO.N,+3V3*%
X138239500Y-39687500D03*
D22*
%TO.P,D1,1*%
%TO.N,Net-(D1-Pad1)*%
X138239500Y-49847500D03*
%TD*%
%TO.P,C9,2*%
%TO.N,GND*%
%TA.AperFunction,SMDPad,CuDef*%
G36*
G01*
X166740000Y-58023997D02*
X166740000Y-59324003D01*
G75*
G02*
X166490003Y-59574000I-249997J0D01*
G01*
X165664997Y-59574000D01*
G75*
G02*
X165415000Y-59324003I0J249997D01*
G01*
X165415000Y-58023997D01*
G75*
G02*
X165664997Y-57774000I249997J0D01*
G01*
X166490003Y-57774000D01*
G75*
G02*
X166740000Y-58023997I0J-249997D01*
G01*
G37*
%TD.AperFunction*%
%TO.P,C9,1*%
%TO.N,+3V3*%
%TA.AperFunction,SMDPad,CuDef*%
G36*
G01*
X169865000Y-58023997D02*
X169865000Y-59324003D01*
G75*
G02*
X169615003Y-59574000I-249997J0D01*
G01*
X168789997Y-59574000D01*
G75*
G02*
X168540000Y-59324003I0J249997D01*
G01*
X168540000Y-58023997D01*
G75*
G02*
X168789997Y-57774000I249997J0D01*
G01*
X169615003Y-57774000D01*
G75*
G02*
X169865000Y-58023997I0J-249997D01*
G01*
G37*
%TD.AperFunction*%
%TD*%
%TO.P,C8,2*%
%TO.N,GND*%
%TA.AperFunction,SMDPad,CuDef*%
G36*
G01*
X152858500Y-35354497D02*
X152858500Y-36654503D01*
G75*
G02*
X152608503Y-36904500I-249997J0D01*
G01*
X151783497Y-36904500D01*
G75*
G02*
X151533500Y-36654503I0J249997D01*
G01*
X151533500Y-35354497D01*
G75*
G02*
X151783497Y-35104500I249997J0D01*
G01*
X152608503Y-35104500D01*
G75*
G02*
X152858500Y-35354497I0J-249997D01*
G01*
G37*
%TD.AperFunction*%
%TO.P,C8,1*%
%TO.N,Net-(C8-Pad1)*%
%TA.AperFunction,SMDPad,CuDef*%
G36*
G01*
X155983500Y-35354497D02*
X155983500Y-36654503D01*
G75*
G02*
X155733503Y-36904500I-249997J0D01*
G01*
X154908497Y-36904500D01*
G75*
G02*
X154658500Y-36654503I0J249997D01*
G01*
X154658500Y-35354497D01*
G75*
G02*
X154908497Y-35104500I249997J0D01*
G01*
X155733503Y-35104500D01*
G75*
G02*
X155983500Y-35354497I0J-249997D01*
G01*
G37*
%TD.AperFunction*%
%TD*%
D23*
%TO.N,GND*%
X118046500Y-56451500D03*
X117157500Y-56515000D03*
X142430500Y-35623500D03*
X148145500Y-30289500D03*
X152146000Y-49657000D03*
X143510000Y-49403000D03*
X157353000Y-57213500D03*
X116840000Y-61785500D03*
X145288000Y-66611500D03*
X145415000Y-65151000D03*
X154368500Y-66675000D03*
X154368500Y-65468500D03*
X134874000Y-28702000D03*
X137604500Y-28765500D03*
X143192500Y-34099500D03*
X151003000Y-19621500D03*
X132905500Y-21653500D03*
X118173500Y-44767500D03*
X116141500Y-50673000D03*
X143573500Y-50546000D03*
X152146000Y-50673000D03*
X152209500Y-43434000D03*
X153670000Y-39814500D03*
X159702500Y-68135500D03*
X157670500Y-68072000D03*
%TO.N,+3V3*%
X143573500Y-46609000D03*
X142748000Y-32829500D03*
X142748000Y-27559000D03*
X143573500Y-45275500D03*
X169672000Y-55435500D03*
X169354500Y-43751500D03*
X169291000Y-38735000D03*
X160655000Y-39941500D03*
X160401000Y-43878500D03*
X169354500Y-42481500D03*
X169227500Y-58674000D03*
%TO.N,-3V3*%
X148209000Y-25019000D03*
%TO.N,VDD*%
X147701000Y-32893000D03*
%TO.N,VEE*%
X135953500Y-42608500D03*
X136620250Y-43275250D03*
X137160000Y-43815000D03*
%TO.N,Net-(D1-Pad1)*%
X136398000Y-49847500D03*
X134493000Y-49847500D03*
X133223000Y-49847500D03*
X131826000Y-49847500D03*
X130619500Y-49847500D03*
X128968500Y-49847500D03*
X127100550Y-49619950D03*
%TO.N,Net-(D2-Pad2)*%
X133032500Y-59753500D03*
X132715000Y-57277000D03*
X126580500Y-58483500D03*
X128143000Y-58483500D03*
X129476500Y-58483500D03*
X130873500Y-58483500D03*
X131699000Y-58483500D03*
X132924750Y-58439250D03*
%TO.N,Net-(Q2-Pad1)*%
X118173500Y-33909000D03*
X122550680Y-33975000D03*
%TO.N,Net-(Q7-Pad3)*%
X145224500Y-17399000D03*
%TO.N,Net-(R15-Pad2)*%
X169227500Y-41211500D03*
X160866750Y-38015250D03*
%TO.N,Net-(R16-Pad2)*%
X150622000Y-32448500D03*
X142751000Y-31559500D03*
X150701500Y-29829000D03*
%TD*%
D24*
%TO.N,GND*%
X143192500Y-34657500D02*
X142455500Y-35394500D01*
X143192500Y-34099500D02*
X143192500Y-34657500D01*
D25*
%TO.N,+3V3*%
X142748000Y-32829500D02*
X143954500Y-32829500D01*
X145644000Y-34519000D02*
X145644000Y-35877500D01*
X143954500Y-32829500D02*
X145644000Y-34519000D01*
D24*
X168431000Y-55435500D02*
X168401500Y-55406000D01*
X169672000Y-55435500D02*
X168431000Y-55435500D01*
X169672000Y-58204500D02*
X169202500Y-58674000D01*
X169672000Y-55435500D02*
X169672000Y-58204500D01*
X167511500Y-38735000D02*
X167448000Y-38671500D01*
X169291000Y-38735000D02*
X167511500Y-38735000D01*
X160655000Y-39941500D02*
X162498000Y-39941500D01*
X160528000Y-43751500D02*
X160401000Y-43878500D01*
X162498000Y-43751500D02*
X160528000Y-43751500D01*
X169354500Y-43751500D02*
X168592500Y-43751500D01*
X168592500Y-43751500D02*
X167448000Y-43751500D01*
X167448000Y-42481500D02*
X169354500Y-42481500D01*
D25*
X170077501Y-41758499D02*
X169354500Y-42481500D01*
X170077501Y-39521501D02*
X170077501Y-41758499D01*
X169291000Y-38735000D02*
X170077501Y-39521501D01*
X170077501Y-43028499D02*
X169354500Y-43751500D01*
X170077501Y-41758499D02*
X170077501Y-43028499D01*
%TO.N,-3V3*%
X140845499Y-55882499D02*
X141414500Y-56451500D01*
X147643315Y-25019000D02*
X140845499Y-31816816D01*
X148209000Y-25019000D02*
X147643315Y-25019000D01*
X140845499Y-31816816D02*
X140845499Y-33530499D01*
X140845499Y-33530499D02*
X140845499Y-55882499D01*
X140845499Y-32206999D02*
X140845499Y-33530499D01*
%TO.N,VEE*%
X137160000Y-43815000D02*
X136620250Y-43275250D01*
X135953500Y-42608500D02*
X136620250Y-43275250D01*
X135953500Y-42608500D02*
X130683000Y-42608500D01*
X127635000Y-39560500D02*
X127635000Y-35941000D01*
X130683000Y-42608500D02*
X127635000Y-39560500D01*
D24*
%TO.N,Net-(C8-Pad1)*%
X152654000Y-32321500D02*
X155384500Y-32321500D01*
X155384500Y-35941000D02*
X155321000Y-36004500D01*
X155384500Y-32321500D02*
X155384500Y-35941000D01*
X159766000Y-42481500D02*
X162498000Y-42481500D01*
X155321000Y-38036500D02*
X159766000Y-42481500D01*
X155321000Y-36004500D02*
X155321000Y-38036500D01*
D25*
%TO.N,Net-(D1-Pad1)*%
X138239500Y-49847500D02*
X128968500Y-49847500D01*
X128740950Y-49619950D02*
X128968500Y-49847500D01*
X127100550Y-49619950D02*
X128740950Y-49619950D01*
X110673950Y-49619950D02*
X109156500Y-48102500D01*
X127100550Y-49619950D02*
X110673950Y-49619950D01*
%TO.N,Net-(D2-Pad2)*%
X126199500Y-58102500D02*
X126580500Y-58483500D01*
X109156500Y-58102500D02*
X126199500Y-58102500D01*
X126580500Y-58483500D02*
X131699000Y-58483500D01*
X132715000Y-59436000D02*
X133032500Y-59753500D01*
X132715000Y-57277000D02*
X132715000Y-59436000D01*
X131743250Y-58439250D02*
X131699000Y-58483500D01*
X132924750Y-58439250D02*
X131743250Y-58439250D01*
X135108750Y-58439250D02*
X137350500Y-56197500D01*
X132924750Y-58439250D02*
X135108750Y-58439250D01*
D24*
%TO.N,Net-(Q2-Pad1)*%
X118239500Y-33975000D02*
X118173500Y-33909000D01*
X122550680Y-33975000D02*
X118239500Y-33975000D01*
%TO.N,Net-(Q7-Pad3)*%
X153463500Y-17399000D02*
X157353000Y-21288500D01*
X145224500Y-17399000D02*
X153463500Y-17399000D01*
%TO.N,Net-(R15-Pad2)*%
X157353000Y-27114500D02*
X157289500Y-27178000D01*
X157353000Y-23288500D02*
X157353000Y-27114500D01*
X161523000Y-38671500D02*
X162498000Y-38671500D01*
X157289500Y-34438000D02*
X160866750Y-38015250D01*
X157289500Y-27178000D02*
X157289500Y-34438000D01*
X160866750Y-38015250D02*
X161523000Y-38671500D01*
X167448000Y-41211500D02*
X169227500Y-41211500D01*
%TO.N,Net-(R16-Pad2)*%
X142751000Y-31559500D02*
X149892000Y-31559500D01*
X150701500Y-32274000D02*
X150654000Y-32321500D01*
X150701500Y-29829000D02*
X150701500Y-32274000D01*
X149892000Y-31559500D02*
X150654000Y-32321500D01*
%TO.N,Net-(R18-Pad1)*%
X167448000Y-37401500D02*
X168656000Y-37401500D01*
X168656000Y-37401500D02*
X169481500Y-36576000D01*
X169481500Y-36576000D02*
X169481500Y-35369500D01*
X167354000Y-33242000D02*
X165671500Y-33242000D01*
X169481500Y-35369500D02*
X167354000Y-33242000D01*
%TO.N,Net-(SW2-Pad2)*%
X162693500Y-55406000D02*
X162687000Y-55399500D01*
X166751500Y-55406000D02*
X162693500Y-55406000D01*
%TO.N,CLK*%
X163473000Y-41211500D02*
X164846000Y-42584500D01*
X162498000Y-41211500D02*
X163473000Y-41211500D01*
X164846000Y-41568500D02*
X164846000Y-42735500D01*
X167448000Y-39941500D02*
X166473000Y-39941500D01*
X164846000Y-42735500D02*
X164846000Y-47688500D01*
X166473000Y-39941500D02*
X164846000Y-41568500D01*
X164846000Y-42584500D02*
X164846000Y-42735500D01*
X168401500Y-51244000D02*
X168401500Y-53306000D01*
X164846000Y-47688500D02*
X168401500Y-51244000D01*
D25*
%TO.N,Net-(J4-Pad1)*%
X165671500Y-27368500D02*
X165608000Y-27305000D01*
X165671500Y-31242000D02*
X165671500Y-27368500D01*
%TD*%
D26*
%TO.N,GND*%
X164086001Y-46607454D02*
X163991506Y-46657963D01*
X163894815Y-46737315D01*
X163815463Y-46834006D01*
X163756498Y-46944320D01*
X163720188Y-47064018D01*
X163707928Y-47188500D01*
X163707928Y-48188500D01*
X163720188Y-48312982D01*
X163756498Y-48432680D01*
X163815463Y-48542994D01*
X163894815Y-48639685D01*
X163991506Y-48719037D01*
X164101820Y-48778002D01*
X164221518Y-48814312D01*
X164346000Y-48826572D01*
X164909271Y-48826572D01*
X167641500Y-51558802D01*
X167641500Y-52056129D01*
X167607320Y-52066498D01*
X167576500Y-52082972D01*
X167545680Y-52066498D01*
X167425982Y-52030188D01*
X167301500Y-52017928D01*
X167037250Y-52021000D01*
X166878500Y-52179750D01*
X166878500Y-53179000D01*
X166898500Y-53179000D01*
X166898500Y-53433000D01*
X166878500Y-53433000D01*
X166878500Y-53453000D01*
X166624500Y-53453000D01*
X166624500Y-53433000D01*
X165725250Y-53433000D01*
X165566500Y-53591750D01*
X165563428Y-53956000D01*
X165575688Y-54080482D01*
X165611998Y-54200180D01*
X165670963Y-54310494D01*
X165708309Y-54356000D01*
X165670963Y-54401506D01*
X165611998Y-54511820D01*
X165575688Y-54631518D01*
X165574262Y-54646000D01*
X164354680Y-54646000D01*
X164344157Y-54626312D01*
X164171081Y-54415419D01*
X164151684Y-54399500D01*
X164171081Y-54383581D01*
X164344157Y-54172688D01*
X164472764Y-53932081D01*
X164551960Y-53671007D01*
X164578701Y-53399500D01*
X164551960Y-53127993D01*
X164472764Y-52866919D01*
X164378006Y-52689639D01*
X164418995Y-52656000D01*
X165563428Y-52656000D01*
X165566500Y-53020250D01*
X165725250Y-53179000D01*
X166624500Y-53179000D01*
X166624500Y-52179750D01*
X166465750Y-52021000D01*
X166201500Y-52017928D01*
X166077018Y-52030188D01*
X165957320Y-52066498D01*
X165847006Y-52125463D01*
X165750315Y-52204815D01*
X165670963Y-52301506D01*
X165611998Y-52411820D01*
X165575688Y-52531518D01*
X165563428Y-52656000D01*
X164418995Y-52656000D01*
X164569766Y-52532266D01*
X164786579Y-52268078D01*
X164947686Y-51966668D01*
X165046895Y-51639619D01*
X165080394Y-51299500D01*
X165046895Y-50959381D01*
X164947686Y-50632332D01*
X164786579Y-50330922D01*
X164569766Y-50066734D01*
X164305578Y-49849921D01*
X164004168Y-49688814D01*
X163677119Y-49589605D01*
X163422225Y-49564500D01*
X161951775Y-49564500D01*
X161696881Y-49589605D01*
X161369832Y-49688814D01*
X161068422Y-49849921D01*
X160804234Y-50066734D01*
X160587421Y-50330922D01*
X160426314Y-50632332D01*
X160327105Y-50959381D01*
X160293606Y-51299500D01*
X160327105Y-51639619D01*
X160426314Y-51966668D01*
X160587421Y-52268078D01*
X160804234Y-52532266D01*
X160995994Y-52689639D01*
X160901236Y-52866919D01*
X160822040Y-53127993D01*
X160795299Y-53399500D01*
X160822040Y-53671007D01*
X160901236Y-53932081D01*
X161029843Y-54172688D01*
X161202919Y-54383581D01*
X161222316Y-54399500D01*
X161202919Y-54415419D01*
X161029843Y-54626312D01*
X160901236Y-54866919D01*
X160822040Y-55127993D01*
X160795299Y-55399500D01*
X160822040Y-55671007D01*
X160901236Y-55932081D01*
X161025940Y-56165386D01*
X160985815Y-56198315D01*
X160906463Y-56295006D01*
X160847498Y-56405320D01*
X160811188Y-56525018D01*
X160798928Y-56649500D01*
X160802000Y-57113750D01*
X160960750Y-57272500D01*
X162560000Y-57272500D01*
X162560000Y-57252500D01*
X162814000Y-57252500D01*
X162814000Y-57272500D01*
X164413250Y-57272500D01*
X164572000Y-57113750D01*
X164575072Y-56649500D01*
X164562812Y-56525018D01*
X164526502Y-56405320D01*
X164467537Y-56295006D01*
X164388185Y-56198315D01*
X164348809Y-56166000D01*
X165574262Y-56166000D01*
X165575688Y-56180482D01*
X165611998Y-56300180D01*
X165670963Y-56410494D01*
X165750315Y-56507185D01*
X165847006Y-56586537D01*
X165957320Y-56645502D01*
X166077018Y-56681812D01*
X166201500Y-56694072D01*
X167301500Y-56694072D01*
X167425982Y-56681812D01*
X167545680Y-56645502D01*
X167576500Y-56629028D01*
X167607320Y-56645502D01*
X167727018Y-56681812D01*
X167851500Y-56694072D01*
X168912000Y-56694072D01*
X168912001Y-57135928D01*
X168789997Y-57135928D01*
X168616743Y-57152992D01*
X168450148Y-57203528D01*
X168296612Y-57285595D01*
X168162037Y-57396037D01*
X168051595Y-57530612D01*
X167969528Y-57684148D01*
X167918992Y-57850743D01*
X167901928Y-58023997D01*
X167901928Y-59324003D01*
X167918992Y-59497257D01*
X167969528Y-59663852D01*
X168051595Y-59817388D01*
X168162037Y-59951963D01*
X168296612Y-60062405D01*
X168450148Y-60144472D01*
X168616743Y-60195008D01*
X168789997Y-60212072D01*
X169615003Y-60212072D01*
X169788257Y-60195008D01*
X169954852Y-60144472D01*
X170108388Y-60062405D01*
X170242963Y-59951963D01*
X170340001Y-59833721D01*
X170340001Y-68340000D01*
X158940500Y-68340000D01*
X158940500Y-65279872D01*
X165265000Y-65279872D01*
X165265000Y-65720128D01*
X165350890Y-66151925D01*
X165519369Y-66558669D01*
X165763962Y-66924729D01*
X166075271Y-67236038D01*
X166441331Y-67480631D01*
X166848075Y-67649110D01*
X167279872Y-67735000D01*
X167720128Y-67735000D01*
X168151925Y-67649110D01*
X168558669Y-67480631D01*
X168924729Y-67236038D01*
X169236038Y-66924729D01*
X169480631Y-66558669D01*
X169649110Y-66151925D01*
X169735000Y-65720128D01*
X169735000Y-65279872D01*
X169649110Y-64848075D01*
X169480631Y-64441331D01*
X169236038Y-64075271D01*
X168924729Y-63763962D01*
X168558669Y-63519369D01*
X168151925Y-63350890D01*
X167720128Y-63265000D01*
X167279872Y-63265000D01*
X166848075Y-63350890D01*
X166441331Y-63519369D01*
X166075271Y-63763962D01*
X165763962Y-64075271D01*
X165519369Y-64441331D01*
X165350890Y-64848075D01*
X165265000Y-65279872D01*
X158940500Y-65279872D01*
X158940500Y-59499500D01*
X160293606Y-59499500D01*
X160327105Y-59839619D01*
X160426314Y-60166668D01*
X160587421Y-60468078D01*
X160804234Y-60732266D01*
X161068422Y-60949079D01*
X161369832Y-61110186D01*
X161696881Y-61209395D01*
X161951775Y-61234500D01*
X163422225Y-61234500D01*
X163677119Y-61209395D01*
X164004168Y-61110186D01*
X164305578Y-60949079D01*
X164569766Y-60732266D01*
X164786579Y-60468078D01*
X164947686Y-60166668D01*
X164985264Y-60042788D01*
X165060506Y-60104537D01*
X165170820Y-60163502D01*
X165290518Y-60199812D01*
X165415000Y-60212072D01*
X165791750Y-60209000D01*
X165950500Y-60050250D01*
X165950500Y-58801000D01*
X166204500Y-58801000D01*
X166204500Y-60050250D01*
X166363250Y-60209000D01*
X166740000Y-60212072D01*
X166864482Y-60199812D01*
X166984180Y-60163502D01*
X167094494Y-60104537D01*
X167191185Y-60025185D01*
X167270537Y-59928494D01*
X167329502Y-59818180D01*
X167365812Y-59698482D01*
X167378072Y-59574000D01*
X167375000Y-58959750D01*
X167216250Y-58801000D01*
X166204500Y-58801000D01*
X165950500Y-58801000D01*
X165930500Y-58801000D01*
X165930500Y-58547000D01*
X165950500Y-58547000D01*
X165950500Y-57297750D01*
X166204500Y-57297750D01*
X166204500Y-58547000D01*
X167216250Y-58547000D01*
X167375000Y-58388250D01*
X167378072Y-57774000D01*
X167365812Y-57649518D01*
X167329502Y-57529820D01*
X167270537Y-57419506D01*
X167191185Y-57322815D01*
X167094494Y-57243463D01*
X166984180Y-57184498D01*
X166864482Y-57148188D01*
X166740000Y-57135928D01*
X166363250Y-57139000D01*
X166204500Y-57297750D01*
X165950500Y-57297750D01*
X165791750Y-57139000D01*
X165415000Y-57135928D01*
X165290518Y-57148188D01*
X165170820Y-57184498D01*
X165060506Y-57243463D01*
X164963815Y-57322815D01*
X164884463Y-57419506D01*
X164825498Y-57529820D01*
X164789188Y-57649518D01*
X164776928Y-57774000D01*
X164780000Y-58388250D01*
X164938748Y-58546998D01*
X164795172Y-58546998D01*
X164786579Y-58530922D01*
X164569766Y-58266734D01*
X164563992Y-58261996D01*
X164575072Y-58149500D01*
X164572000Y-57685250D01*
X164413250Y-57526500D01*
X162814000Y-57526500D01*
X162814000Y-57546500D01*
X162560000Y-57546500D01*
X162560000Y-57526500D01*
X160960750Y-57526500D01*
X160802000Y-57685250D01*
X160798928Y-58149500D01*
X160810008Y-58261996D01*
X160804234Y-58266734D01*
X160587421Y-58530922D01*
X160426314Y-58832332D01*
X160327105Y-59159381D01*
X160293606Y-59499500D01*
X158940500Y-59499500D01*
X158940500Y-45209701D01*
X158952528Y-45249352D01*
X159034595Y-45402888D01*
X159145037Y-45537463D01*
X159279612Y-45647905D01*
X159433148Y-45729972D01*
X159599743Y-45780508D01*
X159772997Y-45797572D01*
X160598003Y-45797572D01*
X160771257Y-45780508D01*
X160937852Y-45729972D01*
X161091388Y-45647905D01*
X161225963Y-45537463D01*
X161336405Y-45402888D01*
X161418472Y-45249352D01*
X161469008Y-45082757D01*
X161486072Y-44909503D01*
X161486072Y-44664363D01*
X161519255Y-44674429D01*
X161673000Y-44689572D01*
X163323000Y-44689572D01*
X163476745Y-44674429D01*
X163624582Y-44629584D01*
X163760829Y-44556758D01*
X163880251Y-44458751D01*
X163978258Y-44339329D01*
X164051084Y-44203082D01*
X164086000Y-44087976D01*
X164086001Y-46607454D01*
%TA.AperFunction,Conductor*%
D27*
G36*
X164086001Y-46607454D02*
G01*
X163991506Y-46657963D01*
X163894815Y-46737315D01*
X163815463Y-46834006D01*
X163756498Y-46944320D01*
X163720188Y-47064018D01*
X163707928Y-47188500D01*
X163707928Y-48188500D01*
X163720188Y-48312982D01*
X163756498Y-48432680D01*
X163815463Y-48542994D01*
X163894815Y-48639685D01*
X163991506Y-48719037D01*
X164101820Y-48778002D01*
X164221518Y-48814312D01*
X164346000Y-48826572D01*
X164909271Y-48826572D01*
X167641500Y-51558802D01*
X167641500Y-52056129D01*
X167607320Y-52066498D01*
X167576500Y-52082972D01*
X167545680Y-52066498D01*
X167425982Y-52030188D01*
X167301500Y-52017928D01*
X167037250Y-52021000D01*
X166878500Y-52179750D01*
X166878500Y-53179000D01*
X166898500Y-53179000D01*
X166898500Y-53433000D01*
X166878500Y-53433000D01*
X166878500Y-53453000D01*
X166624500Y-53453000D01*
X166624500Y-53433000D01*
X165725250Y-53433000D01*
X165566500Y-53591750D01*
X165563428Y-53956000D01*
X165575688Y-54080482D01*
X165611998Y-54200180D01*
X165670963Y-54310494D01*
X165708309Y-54356000D01*
X165670963Y-54401506D01*
X165611998Y-54511820D01*
X165575688Y-54631518D01*
X165574262Y-54646000D01*
X164354680Y-54646000D01*
X164344157Y-54626312D01*
X164171081Y-54415419D01*
X164151684Y-54399500D01*
X164171081Y-54383581D01*
X164344157Y-54172688D01*
X164472764Y-53932081D01*
X164551960Y-53671007D01*
X164578701Y-53399500D01*
X164551960Y-53127993D01*
X164472764Y-52866919D01*
X164378006Y-52689639D01*
X164418995Y-52656000D01*
X165563428Y-52656000D01*
X165566500Y-53020250D01*
X165725250Y-53179000D01*
X166624500Y-53179000D01*
X166624500Y-52179750D01*
X166465750Y-52021000D01*
X166201500Y-52017928D01*
X166077018Y-52030188D01*
X165957320Y-52066498D01*
X165847006Y-52125463D01*
X165750315Y-52204815D01*
X165670963Y-52301506D01*
X165611998Y-52411820D01*
X165575688Y-52531518D01*
X165563428Y-52656000D01*
X164418995Y-52656000D01*
X164569766Y-52532266D01*
X164786579Y-52268078D01*
X164947686Y-51966668D01*
X165046895Y-51639619D01*
X165080394Y-51299500D01*
X165046895Y-50959381D01*
X164947686Y-50632332D01*
X164786579Y-50330922D01*
X164569766Y-50066734D01*
X164305578Y-49849921D01*
X164004168Y-49688814D01*
X163677119Y-49589605D01*
X163422225Y-49564500D01*
X161951775Y-49564500D01*
X161696881Y-49589605D01*
X161369832Y-49688814D01*
X161068422Y-49849921D01*
X160804234Y-50066734D01*
X160587421Y-50330922D01*
X160426314Y-50632332D01*
X160327105Y-50959381D01*
X160293606Y-51299500D01*
X160327105Y-51639619D01*
X160426314Y-51966668D01*
X160587421Y-52268078D01*
X160804234Y-52532266D01*
X160995994Y-52689639D01*
X160901236Y-52866919D01*
X160822040Y-53127993D01*
X160795299Y-53399500D01*
X160822040Y-53671007D01*
X160901236Y-53932081D01*
X161029843Y-54172688D01*
X161202919Y-54383581D01*
X161222316Y-54399500D01*
X161202919Y-54415419D01*
X161029843Y-54626312D01*
X160901236Y-54866919D01*
X160822040Y-55127993D01*
X160795299Y-55399500D01*
X160822040Y-55671007D01*
X160901236Y-55932081D01*
X161025940Y-56165386D01*
X160985815Y-56198315D01*
X160906463Y-56295006D01*
X160847498Y-56405320D01*
X160811188Y-56525018D01*
X160798928Y-56649500D01*
X160802000Y-57113750D01*
X160960750Y-57272500D01*
X162560000Y-57272500D01*
X162560000Y-57252500D01*
X162814000Y-57252500D01*
X162814000Y-57272500D01*
X164413250Y-57272500D01*
X164572000Y-57113750D01*
X164575072Y-56649500D01*
X164562812Y-56525018D01*
X164526502Y-56405320D01*
X164467537Y-56295006D01*
X164388185Y-56198315D01*
X164348809Y-56166000D01*
X165574262Y-56166000D01*
X165575688Y-56180482D01*
X165611998Y-56300180D01*
X165670963Y-56410494D01*
X165750315Y-56507185D01*
X165847006Y-56586537D01*
X165957320Y-56645502D01*
X166077018Y-56681812D01*
X166201500Y-56694072D01*
X167301500Y-56694072D01*
X167425982Y-56681812D01*
X167545680Y-56645502D01*
X167576500Y-56629028D01*
X167607320Y-56645502D01*
X167727018Y-56681812D01*
X167851500Y-56694072D01*
X168912000Y-56694072D01*
X168912001Y-57135928D01*
X168789997Y-57135928D01*
X168616743Y-57152992D01*
X168450148Y-57203528D01*
X168296612Y-57285595D01*
X168162037Y-57396037D01*
X168051595Y-57530612D01*
X167969528Y-57684148D01*
X167918992Y-57850743D01*
X167901928Y-58023997D01*
X167901928Y-59324003D01*
X167918992Y-59497257D01*
X167969528Y-59663852D01*
X168051595Y-59817388D01*
X168162037Y-59951963D01*
X168296612Y-60062405D01*
X168450148Y-60144472D01*
X168616743Y-60195008D01*
X168789997Y-60212072D01*
X169615003Y-60212072D01*
X169788257Y-60195008D01*
X169954852Y-60144472D01*
X170108388Y-60062405D01*
X170242963Y-59951963D01*
X170340001Y-59833721D01*
X170340001Y-68340000D01*
X158940500Y-68340000D01*
X158940500Y-65279872D01*
X165265000Y-65279872D01*
X165265000Y-65720128D01*
X165350890Y-66151925D01*
X165519369Y-66558669D01*
X165763962Y-66924729D01*
X166075271Y-67236038D01*
X166441331Y-67480631D01*
X166848075Y-67649110D01*
X167279872Y-67735000D01*
X167720128Y-67735000D01*
X168151925Y-67649110D01*
X168558669Y-67480631D01*
X168924729Y-67236038D01*
X169236038Y-66924729D01*
X169480631Y-66558669D01*
X169649110Y-66151925D01*
X169735000Y-65720128D01*
X169735000Y-65279872D01*
X169649110Y-64848075D01*
X169480631Y-64441331D01*
X169236038Y-64075271D01*
X168924729Y-63763962D01*
X168558669Y-63519369D01*
X168151925Y-63350890D01*
X167720128Y-63265000D01*
X167279872Y-63265000D01*
X166848075Y-63350890D01*
X166441331Y-63519369D01*
X166075271Y-63763962D01*
X165763962Y-64075271D01*
X165519369Y-64441331D01*
X165350890Y-64848075D01*
X165265000Y-65279872D01*
X158940500Y-65279872D01*
X158940500Y-59499500D01*
X160293606Y-59499500D01*
X160327105Y-59839619D01*
X160426314Y-60166668D01*
X160587421Y-60468078D01*
X160804234Y-60732266D01*
X161068422Y-60949079D01*
X161369832Y-61110186D01*
X161696881Y-61209395D01*
X161951775Y-61234500D01*
X163422225Y-61234500D01*
X163677119Y-61209395D01*
X164004168Y-61110186D01*
X164305578Y-60949079D01*
X164569766Y-60732266D01*
X164786579Y-60468078D01*
X164947686Y-60166668D01*
X164985264Y-60042788D01*
X165060506Y-60104537D01*
X165170820Y-60163502D01*
X165290518Y-60199812D01*
X165415000Y-60212072D01*
X165791750Y-60209000D01*
X165950500Y-60050250D01*
X165950500Y-58801000D01*
X166204500Y-58801000D01*
X166204500Y-60050250D01*
X166363250Y-60209000D01*
X166740000Y-60212072D01*
X166864482Y-60199812D01*
X166984180Y-60163502D01*
X167094494Y-60104537D01*
X167191185Y-60025185D01*
X167270537Y-59928494D01*
X167329502Y-59818180D01*
X167365812Y-59698482D01*
X167378072Y-59574000D01*
X167375000Y-58959750D01*
X167216250Y-58801000D01*
X166204500Y-58801000D01*
X165950500Y-58801000D01*
X165930500Y-58801000D01*
X165930500Y-58547000D01*
X165950500Y-58547000D01*
X165950500Y-57297750D01*
X166204500Y-57297750D01*
X166204500Y-58547000D01*
X167216250Y-58547000D01*
X167375000Y-58388250D01*
X167378072Y-57774000D01*
X167365812Y-57649518D01*
X167329502Y-57529820D01*
X167270537Y-57419506D01*
X167191185Y-57322815D01*
X167094494Y-57243463D01*
X166984180Y-57184498D01*
X166864482Y-57148188D01*
X166740000Y-57135928D01*
X166363250Y-57139000D01*
X166204500Y-57297750D01*
X165950500Y-57297750D01*
X165791750Y-57139000D01*
X165415000Y-57135928D01*
X165290518Y-57148188D01*
X165170820Y-57184498D01*
X165060506Y-57243463D01*
X164963815Y-57322815D01*
X164884463Y-57419506D01*
X164825498Y-57529820D01*
X164789188Y-57649518D01*
X164776928Y-57774000D01*
X164780000Y-58388250D01*
X164938748Y-58546998D01*
X164795172Y-58546998D01*
X164786579Y-58530922D01*
X164569766Y-58266734D01*
X164563992Y-58261996D01*
X164575072Y-58149500D01*
X164572000Y-57685250D01*
X164413250Y-57526500D01*
X162814000Y-57526500D01*
X162814000Y-57546500D01*
X162560000Y-57546500D01*
X162560000Y-57526500D01*
X160960750Y-57526500D01*
X160802000Y-57685250D01*
X160798928Y-58149500D01*
X160810008Y-58261996D01*
X160804234Y-58266734D01*
X160587421Y-58530922D01*
X160426314Y-58832332D01*
X160327105Y-59159381D01*
X160293606Y-59499500D01*
X158940500Y-59499500D01*
X158940500Y-45209701D01*
X158952528Y-45249352D01*
X159034595Y-45402888D01*
X159145037Y-45537463D01*
X159279612Y-45647905D01*
X159433148Y-45729972D01*
X159599743Y-45780508D01*
X159772997Y-45797572D01*
X160598003Y-45797572D01*
X160771257Y-45780508D01*
X160937852Y-45729972D01*
X161091388Y-45647905D01*
X161225963Y-45537463D01*
X161336405Y-45402888D01*
X161418472Y-45249352D01*
X161469008Y-45082757D01*
X161486072Y-44909503D01*
X161486072Y-44664363D01*
X161519255Y-44674429D01*
X161673000Y-44689572D01*
X163323000Y-44689572D01*
X163476745Y-44674429D01*
X163624582Y-44629584D01*
X163760829Y-44556758D01*
X163880251Y-44458751D01*
X163978258Y-44339329D01*
X164051084Y-44203082D01*
X164086000Y-44087976D01*
X164086001Y-46607454D01*
G37*
%TD.AperFunction*%
D26*
X170340000Y-38532422D02*
X170297535Y-38489956D01*
X170286226Y-38433102D01*
X170208205Y-38244744D01*
X170094937Y-38075226D01*
X169950774Y-37931063D01*
X169781256Y-37817795D01*
X169592898Y-37739774D01*
X169425771Y-37706531D01*
X169992504Y-37139798D01*
X170021501Y-37116001D01*
X170116474Y-37000276D01*
X170187046Y-36868247D01*
X170230503Y-36724986D01*
X170241500Y-36613333D01*
X170241500Y-36613324D01*
X170245176Y-36576001D01*
X170241500Y-36538678D01*
X170241500Y-35406822D01*
X170245176Y-35369499D01*
X170241500Y-35332176D01*
X170241500Y-35332167D01*
X170230503Y-35220514D01*
X170187046Y-35077253D01*
X170116474Y-34945224D01*
X170021501Y-34829499D01*
X169992503Y-34805701D01*
X167917804Y-32731003D01*
X167894001Y-32701999D01*
X167778276Y-32607026D01*
X167646247Y-32536454D01*
X167502986Y-32492997D01*
X167391333Y-32482000D01*
X167391322Y-32482000D01*
X167354000Y-32478324D01*
X167316678Y-32482000D01*
X166904476Y-32482000D01*
X166859905Y-32398613D01*
X166749462Y-32264038D01*
X166722609Y-32242000D01*
X166749462Y-32219962D01*
X166859905Y-32085387D01*
X166941972Y-31931851D01*
X166992508Y-31765255D01*
X167009572Y-31592001D01*
X167009572Y-31163036D01*
X167103075Y-31069533D01*
X167213921Y-31346714D01*
X167524840Y-31500089D01*
X167859705Y-31589860D01*
X168205650Y-31612576D01*
X168549380Y-31567366D01*
X168877685Y-31455966D01*
X169082079Y-31346714D01*
X169192926Y-31069531D01*
X168148000Y-30024605D01*
X168133858Y-30038748D01*
X167954253Y-29859143D01*
X167968395Y-29845000D01*
X168327605Y-29845000D01*
X169372531Y-30889926D01*
X169649714Y-30779079D01*
X169803089Y-30468160D01*
X169892860Y-30133295D01*
X169915576Y-29787350D01*
X169870366Y-29443620D01*
X169758966Y-29115315D01*
X169649714Y-28910921D01*
X169372531Y-28800074D01*
X168327605Y-29845000D01*
X167968395Y-29845000D01*
X166923469Y-28800074D01*
X166646286Y-28910921D01*
X166556500Y-29092934D01*
X166556500Y-28667697D01*
X166627181Y-28620469D01*
X167103074Y-28620469D01*
X168148000Y-29665395D01*
X169192926Y-28620469D01*
X169082079Y-28343286D01*
X168771160Y-28189911D01*
X168436295Y-28100140D01*
X168090350Y-28077424D01*
X167746620Y-28122634D01*
X167418315Y-28234034D01*
X167213921Y-28343286D01*
X167103074Y-28620469D01*
X166627181Y-28620469D01*
X166666188Y-28594406D01*
X166897406Y-28363188D01*
X167079073Y-28091305D01*
X167204207Y-27789204D01*
X167268000Y-27468496D01*
X167268000Y-27141504D01*
X167204207Y-26820796D01*
X167079073Y-26518695D01*
X166897406Y-26246812D01*
X166666188Y-26015594D01*
X166627183Y-25989531D01*
X167103074Y-25989531D01*
X167213921Y-26266714D01*
X167524840Y-26420089D01*
X167859705Y-26509860D01*
X168205650Y-26532576D01*
X168549380Y-26487366D01*
X168877685Y-26375966D01*
X169082079Y-26266714D01*
X169192926Y-25989531D01*
X168148000Y-24944605D01*
X167103074Y-25989531D01*
X166627183Y-25989531D01*
X166394305Y-25833927D01*
X166092204Y-25708793D01*
X165771496Y-25645000D01*
X165444504Y-25645000D01*
X165123796Y-25708793D01*
X164821695Y-25833927D01*
X164549812Y-26015594D01*
X164318594Y-26246812D01*
X164136927Y-26518695D01*
X164011793Y-26820796D01*
X163948000Y-27141504D01*
X163948000Y-27468496D01*
X164011793Y-27789204D01*
X164136927Y-28091305D01*
X164318594Y-28363188D01*
X164549812Y-28594406D01*
X164786501Y-28752557D01*
X164786500Y-29432228D01*
X164678966Y-29115315D01*
X164569714Y-28910921D01*
X164292531Y-28800074D01*
X163247605Y-29845000D01*
X164292531Y-30889926D01*
X164335317Y-30872815D01*
X164333428Y-30891999D01*
X164333428Y-31592001D01*
X164350492Y-31765255D01*
X164401028Y-31931851D01*
X164483095Y-32085387D01*
X164593538Y-32219962D01*
X164620391Y-32242000D01*
X164593538Y-32264038D01*
X164483095Y-32398613D01*
X164401028Y-32552149D01*
X164350492Y-32718745D01*
X164333428Y-32891999D01*
X164333428Y-33592001D01*
X164350492Y-33765255D01*
X164401028Y-33931851D01*
X164483095Y-34085387D01*
X164593538Y-34219962D01*
X164728113Y-34330405D01*
X164881649Y-34412472D01*
X165048245Y-34463008D01*
X165221499Y-34480072D01*
X166121501Y-34480072D01*
X166294755Y-34463008D01*
X166461351Y-34412472D01*
X166614887Y-34330405D01*
X166749462Y-34219962D01*
X166859905Y-34085387D01*
X166904476Y-34002000D01*
X167039199Y-34002000D01*
X168230626Y-35193428D01*
X166623000Y-35193428D01*
X166469255Y-35208571D01*
X166321418Y-35253416D01*
X166185171Y-35326242D01*
X166065749Y-35424249D01*
X165967742Y-35543671D01*
X165894916Y-35679918D01*
X165850071Y-35827755D01*
X165834928Y-35981500D01*
X165834928Y-36281500D01*
X165850071Y-36435245D01*
X165894916Y-36583082D01*
X165967742Y-36719329D01*
X166006454Y-36766500D01*
X165967742Y-36813671D01*
X165894916Y-36949918D01*
X165850071Y-37097755D01*
X165834928Y-37251500D01*
X165834928Y-37551500D01*
X165850071Y-37705245D01*
X165894916Y-37853082D01*
X165967742Y-37989329D01*
X166006454Y-38036500D01*
X165967742Y-38083671D01*
X165894916Y-38219918D01*
X165850071Y-38367755D01*
X165834928Y-38521500D01*
X165834928Y-38821500D01*
X165850071Y-38975245D01*
X165894916Y-39123082D01*
X165967742Y-39259329D01*
X166006454Y-39306500D01*
X165967742Y-39353671D01*
X165949350Y-39388080D01*
X165932999Y-39401499D01*
X165909205Y-39430492D01*
X164338000Y-41001699D01*
X164036804Y-40700503D01*
X164013001Y-40671499D01*
X163996650Y-40658080D01*
X163978258Y-40623671D01*
X163939546Y-40576500D01*
X163978258Y-40529329D01*
X164051084Y-40393082D01*
X164095929Y-40245245D01*
X164111072Y-40091500D01*
X164111072Y-39791500D01*
X164095929Y-39637755D01*
X164051084Y-39489918D01*
X163978258Y-39353671D01*
X163939546Y-39306500D01*
X163978258Y-39259329D01*
X164051084Y-39123082D01*
X164095929Y-38975245D01*
X164111072Y-38821500D01*
X164111072Y-38521500D01*
X164095929Y-38367755D01*
X164051084Y-38219918D01*
X163978258Y-38083671D01*
X163939546Y-38036500D01*
X163978258Y-37989329D01*
X164051084Y-37853082D01*
X164095929Y-37705245D01*
X164111072Y-37551500D01*
X164111072Y-37251500D01*
X164095929Y-37097755D01*
X164051084Y-36949918D01*
X163979270Y-36815564D01*
X164003537Y-36785994D01*
X164062502Y-36675680D01*
X164098812Y-36555982D01*
X164111072Y-36431500D01*
X164108000Y-36417250D01*
X163949250Y-36258500D01*
X162625000Y-36258500D01*
X162625000Y-36278500D01*
X162371000Y-36278500D01*
X162371000Y-36258500D01*
X161046750Y-36258500D01*
X160888000Y-36417250D01*
X160884928Y-36431500D01*
X160897188Y-36555982D01*
X160933498Y-36675680D01*
X160992463Y-36785994D01*
X161016730Y-36815564D01*
X160944916Y-36949918D01*
X160935715Y-36980250D01*
X160906553Y-36980250D01*
X159757803Y-35831500D01*
X160884928Y-35831500D01*
X160888000Y-35845750D01*
X161046750Y-36004500D01*
X162371000Y-36004500D01*
X162371000Y-35355250D01*
X162625000Y-35355250D01*
X162625000Y-36004500D01*
X163949250Y-36004500D01*
X164108000Y-35845750D01*
X164111072Y-35831500D01*
X164098812Y-35707018D01*
X164062502Y-35587320D01*
X164003537Y-35477006D01*
X163924185Y-35380315D01*
X163827494Y-35300963D01*
X163717180Y-35241998D01*
X163597482Y-35205688D01*
X163473000Y-35193428D01*
X162783750Y-35196500D01*
X162625000Y-35355250D01*
X162371000Y-35355250D01*
X162212250Y-35196500D01*
X161523000Y-35193428D01*
X161398518Y-35205688D01*
X161278820Y-35241998D01*
X161168506Y-35300963D01*
X161071815Y-35380315D01*
X160992463Y-35477006D01*
X160933498Y-35587320D01*
X160897188Y-35707018D01*
X160884928Y-35831500D01*
X159757803Y-35831500D01*
X158940500Y-35014198D01*
X158940500Y-31069531D01*
X162023074Y-31069531D01*
X162133921Y-31346714D01*
X162444840Y-31500089D01*
X162779705Y-31589860D01*
X163125650Y-31612576D01*
X163469380Y-31567366D01*
X163797685Y-31455966D01*
X164002079Y-31346714D01*
X164112926Y-31069531D01*
X163068000Y-30024605D01*
X162023074Y-31069531D01*
X158940500Y-31069531D01*
X158940500Y-29902650D01*
X161300424Y-29902650D01*
X161345634Y-30246380D01*
X161457034Y-30574685D01*
X161566286Y-30779079D01*
X161843469Y-30889926D01*
X162888395Y-29845000D01*
X161843469Y-28800074D01*
X161566286Y-28910921D01*
X161412911Y-29221840D01*
X161323140Y-29556705D01*
X161300424Y-29902650D01*
X158940500Y-29902650D01*
X158940500Y-28620469D01*
X162023074Y-28620469D01*
X163068000Y-29665395D01*
X164112926Y-28620469D01*
X164002079Y-28343286D01*
X163691160Y-28189911D01*
X163356295Y-28100140D01*
X163010350Y-28077424D01*
X162666620Y-28122634D01*
X162338315Y-28234034D01*
X162133921Y-28343286D01*
X162023074Y-28620469D01*
X158940500Y-28620469D01*
X158940500Y-25989531D01*
X162023074Y-25989531D01*
X162133921Y-26266714D01*
X162444840Y-26420089D01*
X162779705Y-26509860D01*
X163125650Y-26532576D01*
X163469380Y-26487366D01*
X163797685Y-26375966D01*
X164002079Y-26266714D01*
X164112926Y-25989531D01*
X163068000Y-24944605D01*
X162023074Y-25989531D01*
X158940500Y-25989531D01*
X158940500Y-24822650D01*
X161300424Y-24822650D01*
X161345634Y-25166380D01*
X161457034Y-25494685D01*
X161566286Y-25699079D01*
X161843469Y-25809926D01*
X162888395Y-24765000D01*
X163247605Y-24765000D01*
X164292531Y-25809926D01*
X164569714Y-25699079D01*
X164723089Y-25388160D01*
X164812860Y-25053295D01*
X164828004Y-24822650D01*
X166380424Y-24822650D01*
X166425634Y-25166380D01*
X166537034Y-25494685D01*
X166646286Y-25699079D01*
X166923469Y-25809926D01*
X167968395Y-24765000D01*
X168327605Y-24765000D01*
X169372531Y-25809926D01*
X169649714Y-25699079D01*
X169803089Y-25388160D01*
X169892860Y-25053295D01*
X169915576Y-24707350D01*
X169870366Y-24363620D01*
X169758966Y-24035315D01*
X169649714Y-23830921D01*
X169372531Y-23720074D01*
X168327605Y-24765000D01*
X167968395Y-24765000D01*
X166923469Y-23720074D01*
X166646286Y-23830921D01*
X166492911Y-24141840D01*
X166403140Y-24476705D01*
X166380424Y-24822650D01*
X164828004Y-24822650D01*
X164835576Y-24707350D01*
X164790366Y-24363620D01*
X164678966Y-24035315D01*
X164569714Y-23830921D01*
X164292531Y-23720074D01*
X163247605Y-24765000D01*
X162888395Y-24765000D01*
X161843469Y-23720074D01*
X161566286Y-23830921D01*
X161412911Y-24141840D01*
X161323140Y-24476705D01*
X161300424Y-24822650D01*
X158940500Y-24822650D01*
X158940500Y-23540469D01*
X162023074Y-23540469D01*
X163068000Y-24585395D01*
X164112926Y-23540469D01*
X167103074Y-23540469D01*
X168148000Y-24585395D01*
X169192926Y-23540469D01*
X169082079Y-23263286D01*
X168771160Y-23109911D01*
X168436295Y-23020140D01*
X168090350Y-22997424D01*
X167746620Y-23042634D01*
X167418315Y-23154034D01*
X167213921Y-23263286D01*
X167103074Y-23540469D01*
X164112926Y-23540469D01*
X164002079Y-23263286D01*
X163691160Y-23109911D01*
X163356295Y-23020140D01*
X163010350Y-22997424D01*
X162666620Y-23042634D01*
X162338315Y-23154034D01*
X162133921Y-23263286D01*
X162023074Y-23540469D01*
X158940500Y-23540469D01*
X158940500Y-18279872D01*
X165265000Y-18279872D01*
X165265000Y-18720128D01*
X165350890Y-19151925D01*
X165519369Y-19558669D01*
X165763962Y-19924729D01*
X166075271Y-20236038D01*
X166441331Y-20480631D01*
X166848075Y-20649110D01*
X167279872Y-20735000D01*
X167720128Y-20735000D01*
X168151925Y-20649110D01*
X168558669Y-20480631D01*
X168924729Y-20236038D01*
X169236038Y-19924729D01*
X169480631Y-19558669D01*
X169649110Y-19151925D01*
X169735000Y-18720128D01*
X169735000Y-18279872D01*
X169649110Y-17848075D01*
X169480631Y-17441331D01*
X169236038Y-17075271D01*
X168924729Y-16763962D01*
X168558669Y-16519369D01*
X168151925Y-16350890D01*
X167720128Y-16265000D01*
X167279872Y-16265000D01*
X166848075Y-16350890D01*
X166441331Y-16519369D01*
X166075271Y-16763962D01*
X165763962Y-17075271D01*
X165519369Y-17441331D01*
X165350890Y-17848075D01*
X165265000Y-18279872D01*
X158940500Y-18279872D01*
X158940500Y-15660000D01*
X170340000Y-15660000D01*
X170340000Y-38532422D01*
%TA.AperFunction,Conductor*%
D27*
G36*
X170340000Y-38532422D02*
G01*
X170297535Y-38489956D01*
X170286226Y-38433102D01*
X170208205Y-38244744D01*
X170094937Y-38075226D01*
X169950774Y-37931063D01*
X169781256Y-37817795D01*
X169592898Y-37739774D01*
X169425771Y-37706531D01*
X169992504Y-37139798D01*
X170021501Y-37116001D01*
X170116474Y-37000276D01*
X170187046Y-36868247D01*
X170230503Y-36724986D01*
X170241500Y-36613333D01*
X170241500Y-36613324D01*
X170245176Y-36576001D01*
X170241500Y-36538678D01*
X170241500Y-35406822D01*
X170245176Y-35369499D01*
X170241500Y-35332176D01*
X170241500Y-35332167D01*
X170230503Y-35220514D01*
X170187046Y-35077253D01*
X170116474Y-34945224D01*
X170021501Y-34829499D01*
X169992503Y-34805701D01*
X167917804Y-32731003D01*
X167894001Y-32701999D01*
X167778276Y-32607026D01*
X167646247Y-32536454D01*
X167502986Y-32492997D01*
X167391333Y-32482000D01*
X167391322Y-32482000D01*
X167354000Y-32478324D01*
X167316678Y-32482000D01*
X166904476Y-32482000D01*
X166859905Y-32398613D01*
X166749462Y-32264038D01*
X166722609Y-32242000D01*
X166749462Y-32219962D01*
X166859905Y-32085387D01*
X166941972Y-31931851D01*
X166992508Y-31765255D01*
X167009572Y-31592001D01*
X167009572Y-31163036D01*
X167103075Y-31069533D01*
X167213921Y-31346714D01*
X167524840Y-31500089D01*
X167859705Y-31589860D01*
X168205650Y-31612576D01*
X168549380Y-31567366D01*
X168877685Y-31455966D01*
X169082079Y-31346714D01*
X169192926Y-31069531D01*
X168148000Y-30024605D01*
X168133858Y-30038748D01*
X167954253Y-29859143D01*
X167968395Y-29845000D01*
X168327605Y-29845000D01*
X169372531Y-30889926D01*
X169649714Y-30779079D01*
X169803089Y-30468160D01*
X169892860Y-30133295D01*
X169915576Y-29787350D01*
X169870366Y-29443620D01*
X169758966Y-29115315D01*
X169649714Y-28910921D01*
X169372531Y-28800074D01*
X168327605Y-29845000D01*
X167968395Y-29845000D01*
X166923469Y-28800074D01*
X166646286Y-28910921D01*
X166556500Y-29092934D01*
X166556500Y-28667697D01*
X166627181Y-28620469D01*
X167103074Y-28620469D01*
X168148000Y-29665395D01*
X169192926Y-28620469D01*
X169082079Y-28343286D01*
X168771160Y-28189911D01*
X168436295Y-28100140D01*
X168090350Y-28077424D01*
X167746620Y-28122634D01*
X167418315Y-28234034D01*
X167213921Y-28343286D01*
X167103074Y-28620469D01*
X166627181Y-28620469D01*
X166666188Y-28594406D01*
X166897406Y-28363188D01*
X167079073Y-28091305D01*
X167204207Y-27789204D01*
X167268000Y-27468496D01*
X167268000Y-27141504D01*
X167204207Y-26820796D01*
X167079073Y-26518695D01*
X166897406Y-26246812D01*
X166666188Y-26015594D01*
X166627183Y-25989531D01*
X167103074Y-25989531D01*
X167213921Y-26266714D01*
X167524840Y-26420089D01*
X167859705Y-26509860D01*
X168205650Y-26532576D01*
X168549380Y-26487366D01*
X168877685Y-26375966D01*
X169082079Y-26266714D01*
X169192926Y-25989531D01*
X168148000Y-24944605D01*
X167103074Y-25989531D01*
X166627183Y-25989531D01*
X166394305Y-25833927D01*
X166092204Y-25708793D01*
X165771496Y-25645000D01*
X165444504Y-25645000D01*
X165123796Y-25708793D01*
X164821695Y-25833927D01*
X164549812Y-26015594D01*
X164318594Y-26246812D01*
X164136927Y-26518695D01*
X164011793Y-26820796D01*
X163948000Y-27141504D01*
X163948000Y-27468496D01*
X164011793Y-27789204D01*
X164136927Y-28091305D01*
X164318594Y-28363188D01*
X164549812Y-28594406D01*
X164786501Y-28752557D01*
X164786500Y-29432228D01*
X164678966Y-29115315D01*
X164569714Y-28910921D01*
X164292531Y-28800074D01*
X163247605Y-29845000D01*
X164292531Y-30889926D01*
X164335317Y-30872815D01*
X164333428Y-30891999D01*
X164333428Y-31592001D01*
X164350492Y-31765255D01*
X164401028Y-31931851D01*
X164483095Y-32085387D01*
X164593538Y-32219962D01*
X164620391Y-32242000D01*
X164593538Y-32264038D01*
X164483095Y-32398613D01*
X164401028Y-32552149D01*
X164350492Y-32718745D01*
X164333428Y-32891999D01*
X164333428Y-33592001D01*
X164350492Y-33765255D01*
X164401028Y-33931851D01*
X164483095Y-34085387D01*
X164593538Y-34219962D01*
X164728113Y-34330405D01*
X164881649Y-34412472D01*
X165048245Y-34463008D01*
X165221499Y-34480072D01*
X166121501Y-34480072D01*
X166294755Y-34463008D01*
X166461351Y-34412472D01*
X166614887Y-34330405D01*
X166749462Y-34219962D01*
X166859905Y-34085387D01*
X166904476Y-34002000D01*
X167039199Y-34002000D01*
X168230626Y-35193428D01*
X166623000Y-35193428D01*
X166469255Y-35208571D01*
X166321418Y-35253416D01*
X166185171Y-35326242D01*
X166065749Y-35424249D01*
X165967742Y-35543671D01*
X165894916Y-35679918D01*
X165850071Y-35827755D01*
X165834928Y-35981500D01*
X165834928Y-36281500D01*
X165850071Y-36435245D01*
X165894916Y-36583082D01*
X165967742Y-36719329D01*
X166006454Y-36766500D01*
X165967742Y-36813671D01*
X165894916Y-36949918D01*
X165850071Y-37097755D01*
X165834928Y-37251500D01*
X165834928Y-37551500D01*
X165850071Y-37705245D01*
X165894916Y-37853082D01*
X165967742Y-37989329D01*
X166006454Y-38036500D01*
X165967742Y-38083671D01*
X165894916Y-38219918D01*
X165850071Y-38367755D01*
X165834928Y-38521500D01*
X165834928Y-38821500D01*
X165850071Y-38975245D01*
X165894916Y-39123082D01*
X165967742Y-39259329D01*
X166006454Y-39306500D01*
X165967742Y-39353671D01*
X165949350Y-39388080D01*
X165932999Y-39401499D01*
X165909205Y-39430492D01*
X164338000Y-41001699D01*
X164036804Y-40700503D01*
X164013001Y-40671499D01*
X163996650Y-40658080D01*
X163978258Y-40623671D01*
X163939546Y-40576500D01*
X163978258Y-40529329D01*
X164051084Y-40393082D01*
X164095929Y-40245245D01*
X164111072Y-40091500D01*
X164111072Y-39791500D01*
X164095929Y-39637755D01*
X164051084Y-39489918D01*
X163978258Y-39353671D01*
X163939546Y-39306500D01*
X163978258Y-39259329D01*
X164051084Y-39123082D01*
X164095929Y-38975245D01*
X164111072Y-38821500D01*
X164111072Y-38521500D01*
X164095929Y-38367755D01*
X164051084Y-38219918D01*
X163978258Y-38083671D01*
X163939546Y-38036500D01*
X163978258Y-37989329D01*
X164051084Y-37853082D01*
X164095929Y-37705245D01*
X164111072Y-37551500D01*
X164111072Y-37251500D01*
X164095929Y-37097755D01*
X164051084Y-36949918D01*
X163979270Y-36815564D01*
X164003537Y-36785994D01*
X164062502Y-36675680D01*
X164098812Y-36555982D01*
X164111072Y-36431500D01*
X164108000Y-36417250D01*
X163949250Y-36258500D01*
X162625000Y-36258500D01*
X162625000Y-36278500D01*
X162371000Y-36278500D01*
X162371000Y-36258500D01*
X161046750Y-36258500D01*
X160888000Y-36417250D01*
X160884928Y-36431500D01*
X160897188Y-36555982D01*
X160933498Y-36675680D01*
X160992463Y-36785994D01*
X161016730Y-36815564D01*
X160944916Y-36949918D01*
X160935715Y-36980250D01*
X160906553Y-36980250D01*
X159757803Y-35831500D01*
X160884928Y-35831500D01*
X160888000Y-35845750D01*
X161046750Y-36004500D01*
X162371000Y-36004500D01*
X162371000Y-35355250D01*
X162625000Y-35355250D01*
X162625000Y-36004500D01*
X163949250Y-36004500D01*
X164108000Y-35845750D01*
X164111072Y-35831500D01*
X164098812Y-35707018D01*
X164062502Y-35587320D01*
X164003537Y-35477006D01*
X163924185Y-35380315D01*
X163827494Y-35300963D01*
X163717180Y-35241998D01*
X163597482Y-35205688D01*
X163473000Y-35193428D01*
X162783750Y-35196500D01*
X162625000Y-35355250D01*
X162371000Y-35355250D01*
X162212250Y-35196500D01*
X161523000Y-35193428D01*
X161398518Y-35205688D01*
X161278820Y-35241998D01*
X161168506Y-35300963D01*
X161071815Y-35380315D01*
X160992463Y-35477006D01*
X160933498Y-35587320D01*
X160897188Y-35707018D01*
X160884928Y-35831500D01*
X159757803Y-35831500D01*
X158940500Y-35014198D01*
X158940500Y-31069531D01*
X162023074Y-31069531D01*
X162133921Y-31346714D01*
X162444840Y-31500089D01*
X162779705Y-31589860D01*
X163125650Y-31612576D01*
X163469380Y-31567366D01*
X163797685Y-31455966D01*
X164002079Y-31346714D01*
X164112926Y-31069531D01*
X163068000Y-30024605D01*
X162023074Y-31069531D01*
X158940500Y-31069531D01*
X158940500Y-29902650D01*
X161300424Y-29902650D01*
X161345634Y-30246380D01*
X161457034Y-30574685D01*
X161566286Y-30779079D01*
X161843469Y-30889926D01*
X162888395Y-29845000D01*
X161843469Y-28800074D01*
X161566286Y-28910921D01*
X161412911Y-29221840D01*
X161323140Y-29556705D01*
X161300424Y-29902650D01*
X158940500Y-29902650D01*
X158940500Y-28620469D01*
X162023074Y-28620469D01*
X163068000Y-29665395D01*
X164112926Y-28620469D01*
X164002079Y-28343286D01*
X163691160Y-28189911D01*
X163356295Y-28100140D01*
X163010350Y-28077424D01*
X162666620Y-28122634D01*
X162338315Y-28234034D01*
X162133921Y-28343286D01*
X162023074Y-28620469D01*
X158940500Y-28620469D01*
X158940500Y-25989531D01*
X162023074Y-25989531D01*
X162133921Y-26266714D01*
X162444840Y-26420089D01*
X162779705Y-26509860D01*
X163125650Y-26532576D01*
X163469380Y-26487366D01*
X163797685Y-26375966D01*
X164002079Y-26266714D01*
X164112926Y-25989531D01*
X163068000Y-24944605D01*
X162023074Y-25989531D01*
X158940500Y-25989531D01*
X158940500Y-24822650D01*
X161300424Y-24822650D01*
X161345634Y-25166380D01*
X161457034Y-25494685D01*
X161566286Y-25699079D01*
X161843469Y-25809926D01*
X162888395Y-24765000D01*
X163247605Y-24765000D01*
X164292531Y-25809926D01*
X164569714Y-25699079D01*
X164723089Y-25388160D01*
X164812860Y-25053295D01*
X164828004Y-24822650D01*
X166380424Y-24822650D01*
X166425634Y-25166380D01*
X166537034Y-25494685D01*
X166646286Y-25699079D01*
X166923469Y-25809926D01*
X167968395Y-24765000D01*
X168327605Y-24765000D01*
X169372531Y-25809926D01*
X169649714Y-25699079D01*
X169803089Y-25388160D01*
X169892860Y-25053295D01*
X169915576Y-24707350D01*
X169870366Y-24363620D01*
X169758966Y-24035315D01*
X169649714Y-23830921D01*
X169372531Y-23720074D01*
X168327605Y-24765000D01*
X167968395Y-24765000D01*
X166923469Y-23720074D01*
X166646286Y-23830921D01*
X166492911Y-24141840D01*
X166403140Y-24476705D01*
X166380424Y-24822650D01*
X164828004Y-24822650D01*
X164835576Y-24707350D01*
X164790366Y-24363620D01*
X164678966Y-24035315D01*
X164569714Y-23830921D01*
X164292531Y-23720074D01*
X163247605Y-24765000D01*
X162888395Y-24765000D01*
X161843469Y-23720074D01*
X161566286Y-23830921D01*
X161412911Y-24141840D01*
X161323140Y-24476705D01*
X161300424Y-24822650D01*
X158940500Y-24822650D01*
X158940500Y-23540469D01*
X162023074Y-23540469D01*
X163068000Y-24585395D01*
X164112926Y-23540469D01*
X167103074Y-23540469D01*
X168148000Y-24585395D01*
X169192926Y-23540469D01*
X169082079Y-23263286D01*
X168771160Y-23109911D01*
X168436295Y-23020140D01*
X168090350Y-22997424D01*
X167746620Y-23042634D01*
X167418315Y-23154034D01*
X167213921Y-23263286D01*
X167103074Y-23540469D01*
X164112926Y-23540469D01*
X164002079Y-23263286D01*
X163691160Y-23109911D01*
X163356295Y-23020140D01*
X163010350Y-22997424D01*
X162666620Y-23042634D01*
X162338315Y-23154034D01*
X162133921Y-23263286D01*
X162023074Y-23540469D01*
X158940500Y-23540469D01*
X158940500Y-18279872D01*
X165265000Y-18279872D01*
X165265000Y-18720128D01*
X165350890Y-19151925D01*
X165519369Y-19558669D01*
X165763962Y-19924729D01*
X166075271Y-20236038D01*
X166441331Y-20480631D01*
X166848075Y-20649110D01*
X167279872Y-20735000D01*
X167720128Y-20735000D01*
X168151925Y-20649110D01*
X168558669Y-20480631D01*
X168924729Y-20236038D01*
X169236038Y-19924729D01*
X169480631Y-19558669D01*
X169649110Y-19151925D01*
X169735000Y-18720128D01*
X169735000Y-18279872D01*
X169649110Y-17848075D01*
X169480631Y-17441331D01*
X169236038Y-17075271D01*
X168924729Y-16763962D01*
X168558669Y-16519369D01*
X168151925Y-16350890D01*
X167720128Y-16265000D01*
X167279872Y-16265000D01*
X166848075Y-16350890D01*
X166441331Y-16519369D01*
X166075271Y-16763962D01*
X165763962Y-17075271D01*
X165519369Y-17441331D01*
X165350890Y-17848075D01*
X165265000Y-18279872D01*
X158940500Y-18279872D01*
X158940500Y-15660000D01*
X170340000Y-15660000D01*
X170340000Y-38532422D01*
G37*
%TD.AperFunction*%
%TD*%
D26*
%TO.N,GND*%
X158426375Y-20306774D02*
X158296387Y-20200095D01*
X158142851Y-20118028D01*
X157976255Y-20067492D01*
X157803001Y-20050428D01*
X157189730Y-20050428D01*
X154027304Y-16888003D01*
X154003501Y-16858999D01*
X153887776Y-16764026D01*
X153755747Y-16693454D01*
X153612486Y-16649997D01*
X153500833Y-16639000D01*
X153500822Y-16639000D01*
X153463500Y-16635324D01*
X153426178Y-16639000D01*
X145928211Y-16639000D01*
X145884274Y-16595063D01*
X145714756Y-16481795D01*
X145526398Y-16403774D01*
X145326439Y-16364000D01*
X145122561Y-16364000D01*
X144922602Y-16403774D01*
X144734244Y-16481795D01*
X144564726Y-16595063D01*
X144420563Y-16739226D01*
X144307295Y-16908744D01*
X144229274Y-17097102D01*
X144189500Y-17297061D01*
X144189500Y-17500939D01*
X144229274Y-17700898D01*
X144307295Y-17889256D01*
X144420563Y-18058774D01*
X144564726Y-18202937D01*
X144734244Y-18316205D01*
X144922602Y-18394226D01*
X145122561Y-18434000D01*
X145326439Y-18434000D01*
X145526398Y-18394226D01*
X145714756Y-18316205D01*
X145884274Y-18202937D01*
X145928211Y-18159000D01*
X153148699Y-18159000D01*
X156014928Y-21025230D01*
X156014928Y-21638501D01*
X156031992Y-21811755D01*
X156082528Y-21978351D01*
X156164595Y-22131887D01*
X156275038Y-22266462D01*
X156301891Y-22288500D01*
X156275038Y-22310538D01*
X156164595Y-22445113D01*
X156082528Y-22598649D01*
X156031992Y-22765245D01*
X156014928Y-22938499D01*
X156014928Y-23638501D01*
X156031992Y-23811755D01*
X156082528Y-23978351D01*
X156164595Y-24131887D01*
X156275038Y-24266462D01*
X156409613Y-24376905D01*
X156563149Y-24458972D01*
X156593000Y-24468027D01*
X156593001Y-26074034D01*
X156545320Y-26088498D01*
X156435006Y-26147463D01*
X156338315Y-26226815D01*
X156258963Y-26323506D01*
X156199998Y-26433820D01*
X156163688Y-26553518D01*
X156151428Y-26678000D01*
X156151428Y-27678000D01*
X156163688Y-27802482D01*
X156199998Y-27922180D01*
X156258963Y-28032494D01*
X156338315Y-28129185D01*
X156435006Y-28208537D01*
X156529500Y-28259046D01*
X156529501Y-34400668D01*
X156525824Y-34438000D01*
X156529501Y-34475333D01*
X156530857Y-34489095D01*
X156540498Y-34586985D01*
X156583954Y-34730246D01*
X156654526Y-34862276D01*
X156721596Y-34944000D01*
X156749500Y-34978001D01*
X156778498Y-35001799D01*
X158407126Y-36630428D01*
X158403101Y-40043799D01*
X156081000Y-37721699D01*
X156081000Y-37470884D01*
X156226888Y-37392905D01*
X156361463Y-37282463D01*
X156471905Y-37147888D01*
X156553972Y-36994352D01*
X156604508Y-36827757D01*
X156621572Y-36654503D01*
X156621572Y-35354497D01*
X156604508Y-35181243D01*
X156553972Y-35014648D01*
X156471905Y-34861112D01*
X156361463Y-34726537D01*
X156226888Y-34616095D01*
X156144500Y-34572058D01*
X156144500Y-33402546D01*
X156238994Y-33352037D01*
X156335685Y-33272685D01*
X156415037Y-33175994D01*
X156474002Y-33065680D01*
X156510312Y-32945982D01*
X156522572Y-32821500D01*
X156522572Y-31821500D01*
X156510312Y-31697018D01*
X156474002Y-31577320D01*
X156415037Y-31467006D01*
X156335685Y-31370315D01*
X156238994Y-31290963D01*
X156128680Y-31231998D01*
X156008982Y-31195688D01*
X155884500Y-31183428D01*
X154884500Y-31183428D01*
X154760018Y-31195688D01*
X154640320Y-31231998D01*
X154530006Y-31290963D01*
X154433315Y-31370315D01*
X154353963Y-31467006D01*
X154303454Y-31561500D01*
X153833527Y-31561500D01*
X153824472Y-31531649D01*
X153742405Y-31378113D01*
X153631962Y-31243538D01*
X153497387Y-31133095D01*
X153343851Y-31051028D01*
X153177255Y-31000492D01*
X153004001Y-30983428D01*
X152303999Y-30983428D01*
X152130745Y-31000492D01*
X151964149Y-31051028D01*
X151810613Y-31133095D01*
X151676038Y-31243538D01*
X151654000Y-31270391D01*
X151631962Y-31243538D01*
X151497387Y-31133095D01*
X151461500Y-31113913D01*
X151461500Y-30532711D01*
X151505437Y-30488774D01*
X151618705Y-30319256D01*
X151696726Y-30130898D01*
X151736500Y-29930939D01*
X151736500Y-29727061D01*
X151696726Y-29527102D01*
X151618705Y-29338744D01*
X151505437Y-29169226D01*
X151361274Y-29025063D01*
X151191756Y-28911795D01*
X151003398Y-28833774D01*
X150803439Y-28794000D01*
X150599561Y-28794000D01*
X150399602Y-28833774D01*
X150211244Y-28911795D01*
X150041726Y-29025063D01*
X149897563Y-29169226D01*
X149784295Y-29338744D01*
X149706274Y-29527102D01*
X149666500Y-29727061D01*
X149666500Y-29930939D01*
X149706274Y-30130898D01*
X149784295Y-30319256D01*
X149897563Y-30488774D01*
X149941500Y-30532711D01*
X149941500Y-30800698D01*
X149929333Y-30799500D01*
X149929322Y-30799500D01*
X149892000Y-30795824D01*
X149854678Y-30799500D01*
X143454711Y-30799500D01*
X143410774Y-30755563D01*
X143259445Y-30654448D01*
X147384954Y-26528940D01*
X147391613Y-26534405D01*
X147545149Y-26616472D01*
X147711745Y-26667008D01*
X147884999Y-26684072D01*
X148710001Y-26684072D01*
X148883255Y-26667008D01*
X149049851Y-26616472D01*
X149203387Y-26534405D01*
X149337962Y-26423962D01*
X149448405Y-26289387D01*
X149530472Y-26135851D01*
X149557727Y-26046000D01*
X150121928Y-26046000D01*
X150134188Y-26170482D01*
X150170498Y-26290180D01*
X150229463Y-26400494D01*
X150308815Y-26497185D01*
X150405506Y-26576537D01*
X150515820Y-26635502D01*
X150635518Y-26671812D01*
X150760000Y-26684072D01*
X151136750Y-26681000D01*
X151295500Y-26522250D01*
X151295500Y-25273000D01*
X151549500Y-25273000D01*
X151549500Y-26522250D01*
X151708250Y-26681000D01*
X152085000Y-26684072D01*
X152209482Y-26671812D01*
X152329180Y-26635502D01*
X152439494Y-26576537D01*
X152536185Y-26497185D01*
X152615537Y-26400494D01*
X152674502Y-26290180D01*
X152710812Y-26170482D01*
X152723072Y-26046000D01*
X152720000Y-25431750D01*
X152561250Y-25273000D01*
X151549500Y-25273000D01*
X151295500Y-25273000D01*
X150283750Y-25273000D01*
X150125000Y-25431750D01*
X150121928Y-26046000D01*
X149557727Y-26046000D01*
X149581008Y-25969255D01*
X149598072Y-25796001D01*
X149598072Y-24495999D01*
X149581008Y-24322745D01*
X149557728Y-24246000D01*
X150121928Y-24246000D01*
X150125000Y-24860250D01*
X150283750Y-25019000D01*
X151295500Y-25019000D01*
X151295500Y-23769750D01*
X151549500Y-23769750D01*
X151549500Y-25019000D01*
X152561250Y-25019000D01*
X152720000Y-24860250D01*
X152723072Y-24246000D01*
X152710812Y-24121518D01*
X152674502Y-24001820D01*
X152615537Y-23891506D01*
X152536185Y-23794815D01*
X152439494Y-23715463D01*
X152329180Y-23656498D01*
X152209482Y-23620188D01*
X152085000Y-23607928D01*
X151708250Y-23611000D01*
X151549500Y-23769750D01*
X151295500Y-23769750D01*
X151136750Y-23611000D01*
X150760000Y-23607928D01*
X150635518Y-23620188D01*
X150515820Y-23656498D01*
X150405506Y-23715463D01*
X150308815Y-23794815D01*
X150229463Y-23891506D01*
X150170498Y-24001820D01*
X150134188Y-24121518D01*
X150121928Y-24246000D01*
X149557728Y-24246000D01*
X149530472Y-24156149D01*
X149448405Y-24002613D01*
X149337962Y-23868038D01*
X149203387Y-23757595D01*
X149049851Y-23675528D01*
X148883255Y-23624992D01*
X148710001Y-23607928D01*
X147884999Y-23607928D01*
X147711745Y-23624992D01*
X147545149Y-23675528D01*
X147391613Y-23757595D01*
X147257038Y-23868038D01*
X147146595Y-24002613D01*
X147064528Y-24156149D01*
X147013992Y-24322745D01*
X147006375Y-24400081D01*
X146986785Y-24423951D01*
X143783000Y-27627736D01*
X143783000Y-27457061D01*
X143743226Y-27257102D01*
X143698436Y-27148971D01*
X143689008Y-27053243D01*
X143638472Y-26886648D01*
X143556405Y-26733112D01*
X143445963Y-26598537D01*
X143311388Y-26488095D01*
X143157852Y-26406028D01*
X142991257Y-26355492D01*
X142818003Y-26338428D01*
X141992997Y-26338428D01*
X141819743Y-26355492D01*
X141653148Y-26406028D01*
X141499612Y-26488095D01*
X141365037Y-26598537D01*
X141254595Y-26733112D01*
X141172528Y-26886648D01*
X141121992Y-27053243D01*
X141104928Y-27226497D01*
X141104928Y-28526503D01*
X141121992Y-28699757D01*
X141172528Y-28866352D01*
X141254595Y-29019888D01*
X141365037Y-29154463D01*
X141499612Y-29264905D01*
X141653148Y-29346972D01*
X141819743Y-29397508D01*
X141992997Y-29414572D01*
X141996165Y-29414572D01*
X140250455Y-31160282D01*
X140216682Y-31187999D01*
X140106088Y-31322758D01*
X140023910Y-31476504D01*
X139993327Y-31577320D01*
X139974609Y-31639026D01*
X139973304Y-31643327D01*
X139960499Y-31773340D01*
X139960499Y-31773347D01*
X139956218Y-31816816D01*
X139960499Y-31860285D01*
X139960499Y-32163523D01*
X139960500Y-33487013D01*
X139960499Y-33487023D01*
X139960499Y-39446231D01*
X139907825Y-39181419D01*
X139777037Y-38865669D01*
X139587163Y-38581502D01*
X139345498Y-38339837D01*
X139061331Y-38149963D01*
X138745581Y-38019175D01*
X138410383Y-37952500D01*
X138068617Y-37952500D01*
X137733419Y-38019175D01*
X137417669Y-38149963D01*
X137133502Y-38339837D01*
X136891837Y-38581502D01*
X136701963Y-38865669D01*
X136571175Y-39181419D01*
X136504500Y-39516617D01*
X136504500Y-39858383D01*
X136571175Y-40193581D01*
X136701963Y-40509331D01*
X136891837Y-40793498D01*
X137133502Y-41035163D01*
X137417669Y-41225037D01*
X137733419Y-41355825D01*
X138068617Y-41422500D01*
X138410383Y-41422500D01*
X138745581Y-41355825D01*
X139061331Y-41225037D01*
X139345498Y-41035163D01*
X139587163Y-40793498D01*
X139777037Y-40509331D01*
X139907825Y-40193581D01*
X139960499Y-39928769D01*
X139960500Y-48607154D01*
X139929002Y-48503320D01*
X139870037Y-48393006D01*
X139790685Y-48296315D01*
X139693994Y-48216963D01*
X139583680Y-48157998D01*
X139463982Y-48121688D01*
X139339500Y-48109428D01*
X137139500Y-48109428D01*
X137015018Y-48121688D01*
X136895320Y-48157998D01*
X136785006Y-48216963D01*
X136688315Y-48296315D01*
X136608963Y-48393006D01*
X136549998Y-48503320D01*
X136513688Y-48623018D01*
X136501428Y-48747500D01*
X136501428Y-48812796D01*
X136499939Y-48812500D01*
X136296061Y-48812500D01*
X136096102Y-48852274D01*
X135907744Y-48930295D01*
X135859546Y-48962500D01*
X135031454Y-48962500D01*
X134983256Y-48930295D01*
X134794898Y-48852274D01*
X134594939Y-48812500D01*
X134391061Y-48812500D01*
X134191102Y-48852274D01*
X134002744Y-48930295D01*
X133954546Y-48962500D01*
X133761454Y-48962500D01*
X133713256Y-48930295D01*
X133524898Y-48852274D01*
X133324939Y-48812500D01*
X133121061Y-48812500D01*
X132921102Y-48852274D01*
X132732744Y-48930295D01*
X132684546Y-48962500D01*
X132364454Y-48962500D01*
X132316256Y-48930295D01*
X132127898Y-48852274D01*
X131927939Y-48812500D01*
X131724061Y-48812500D01*
X131524102Y-48852274D01*
X131335744Y-48930295D01*
X131287546Y-48962500D01*
X131157954Y-48962500D01*
X131109756Y-48930295D01*
X130921398Y-48852274D01*
X130721439Y-48812500D01*
X130517561Y-48812500D01*
X130317602Y-48852274D01*
X130129244Y-48930295D01*
X130081046Y-48962500D01*
X129506954Y-48962500D01*
X129458756Y-48930295D01*
X129270398Y-48852274D01*
X129129810Y-48824309D01*
X129081263Y-48798361D01*
X128914440Y-48747755D01*
X128784427Y-48734950D01*
X128784419Y-48734950D01*
X128740950Y-48730669D01*
X128697481Y-48734950D01*
X127639004Y-48734950D01*
X127590806Y-48702745D01*
X127402448Y-48624724D01*
X127202489Y-48584950D01*
X126998611Y-48584950D01*
X126798652Y-48624724D01*
X126610294Y-48702745D01*
X126562096Y-48734950D01*
X111044572Y-48734950D01*
X111044572Y-46852500D01*
X111032312Y-46728018D01*
X110996002Y-46608320D01*
X110937037Y-46498006D01*
X110857685Y-46401315D01*
X110760994Y-46321963D01*
X110650680Y-46262998D01*
X110530982Y-46226688D01*
X110406500Y-46214428D01*
X107906500Y-46214428D01*
X107782018Y-46226688D01*
X107662320Y-46262998D01*
X107552006Y-46321963D01*
X107455315Y-46401315D01*
X107375963Y-46498006D01*
X107316998Y-46608320D01*
X107280688Y-46728018D01*
X107268428Y-46852500D01*
X107268428Y-49352500D01*
X107280688Y-49476982D01*
X107316998Y-49596680D01*
X107375963Y-49706994D01*
X107455315Y-49803685D01*
X107552006Y-49883037D01*
X107662320Y-49942002D01*
X107782018Y-49978312D01*
X107906500Y-49990572D01*
X109792993Y-49990572D01*
X110017420Y-50214999D01*
X110045133Y-50248767D01*
X110078901Y-50276480D01*
X110078903Y-50276482D01*
X110150402Y-50335160D01*
X110179891Y-50359361D01*
X110333637Y-50441539D01*
X110500460Y-50492145D01*
X110630473Y-50504950D01*
X110630483Y-50504950D01*
X110673949Y-50509231D01*
X110717415Y-50504950D01*
X126562096Y-50504950D01*
X126610294Y-50537155D01*
X126798652Y-50615176D01*
X126998611Y-50654950D01*
X127202489Y-50654950D01*
X127402448Y-50615176D01*
X127590806Y-50537155D01*
X127639004Y-50504950D01*
X128163010Y-50504950D01*
X128164563Y-50507274D01*
X128308726Y-50651437D01*
X128478244Y-50764705D01*
X128666602Y-50842726D01*
X128866561Y-50882500D01*
X129070439Y-50882500D01*
X129270398Y-50842726D01*
X129458756Y-50764705D01*
X129506954Y-50732500D01*
X130081046Y-50732500D01*
X130129244Y-50764705D01*
X130317602Y-50842726D01*
X130517561Y-50882500D01*
X130721439Y-50882500D01*
X130921398Y-50842726D01*
X131109756Y-50764705D01*
X131157954Y-50732500D01*
X131287546Y-50732500D01*
X131335744Y-50764705D01*
X131524102Y-50842726D01*
X131724061Y-50882500D01*
X131927939Y-50882500D01*
X132127898Y-50842726D01*
X132316256Y-50764705D01*
X132364454Y-50732500D01*
X132684546Y-50732500D01*
X132732744Y-50764705D01*
X132921102Y-50842726D01*
X133121061Y-50882500D01*
X133324939Y-50882500D01*
X133524898Y-50842726D01*
X133713256Y-50764705D01*
X133761454Y-50732500D01*
X133954546Y-50732500D01*
X134002744Y-50764705D01*
X134191102Y-50842726D01*
X134391061Y-50882500D01*
X134594939Y-50882500D01*
X134794898Y-50842726D01*
X134983256Y-50764705D01*
X135031454Y-50732500D01*
X135859546Y-50732500D01*
X135907744Y-50764705D01*
X136096102Y-50842726D01*
X136296061Y-50882500D01*
X136499939Y-50882500D01*
X136501428Y-50882204D01*
X136501428Y-50947500D01*
X136513688Y-51071982D01*
X136549998Y-51191680D01*
X136608963Y-51301994D01*
X136688315Y-51398685D01*
X136785006Y-51478037D01*
X136895320Y-51537002D01*
X137015018Y-51573312D01*
X137139500Y-51585572D01*
X139339500Y-51585572D01*
X139463982Y-51573312D01*
X139583680Y-51537002D01*
X139693994Y-51478037D01*
X139790685Y-51398685D01*
X139870037Y-51301994D01*
X139929002Y-51191680D01*
X139960500Y-51087846D01*
X139960500Y-55839020D01*
X139956218Y-55882499D01*
X139973304Y-56055989D01*
X140023911Y-56222812D01*
X140106089Y-56376558D01*
X140188967Y-56477545D01*
X140188970Y-56477548D01*
X140216683Y-56511316D01*
X140250451Y-56539029D01*
X140276428Y-56565006D01*
X140276428Y-56951500D01*
X140288688Y-57075982D01*
X140324998Y-57195680D01*
X140383963Y-57305994D01*
X140463315Y-57402685D01*
X140560006Y-57482037D01*
X140670320Y-57541002D01*
X140790018Y-57577312D01*
X140914500Y-57589572D01*
X141914500Y-57589572D01*
X142038982Y-57577312D01*
X142158680Y-57541002D01*
X142268994Y-57482037D01*
X142365685Y-57402685D01*
X142445037Y-57305994D01*
X142504002Y-57195680D01*
X142540312Y-57075982D01*
X142552572Y-56951500D01*
X142552572Y-55951500D01*
X142540312Y-55827018D01*
X142504002Y-55707320D01*
X142445037Y-55597006D01*
X142365685Y-55500315D01*
X142268994Y-55420963D01*
X142158680Y-55361998D01*
X142038982Y-55325688D01*
X141914500Y-55313428D01*
X141730499Y-55313428D01*
X141730499Y-45173561D01*
X142538500Y-45173561D01*
X142538500Y-45377439D01*
X142578274Y-45577398D01*
X142656295Y-45765756D01*
X142769563Y-45935274D01*
X142776539Y-45942250D01*
X142769563Y-45949226D01*
X142656295Y-46118744D01*
X142578274Y-46307102D01*
X142538500Y-46507061D01*
X142538500Y-46710939D01*
X142578274Y-46910898D01*
X142656295Y-47099256D01*
X142769563Y-47268774D01*
X142913726Y-47412937D01*
X143083244Y-47526205D01*
X143271602Y-47604226D01*
X143471561Y-47644000D01*
X143675439Y-47644000D01*
X143875398Y-47604226D01*
X144063756Y-47526205D01*
X144233274Y-47412937D01*
X144377437Y-47268774D01*
X144490705Y-47099256D01*
X144568726Y-46910898D01*
X144608500Y-46710939D01*
X144608500Y-46507061D01*
X144568726Y-46307102D01*
X144490705Y-46118744D01*
X144377437Y-45949226D01*
X144370461Y-45942250D01*
X144377437Y-45935274D01*
X144490705Y-45765756D01*
X144568726Y-45577398D01*
X144608500Y-45377439D01*
X144608500Y-45173561D01*
X144605704Y-45159500D01*
X155759928Y-45159500D01*
X155772188Y-45283982D01*
X155808498Y-45403680D01*
X155867463Y-45513994D01*
X155946815Y-45610685D01*
X156043506Y-45690037D01*
X156153820Y-45749002D01*
X156273518Y-45785312D01*
X156398000Y-45797572D01*
X156774750Y-45794500D01*
X156933500Y-45635750D01*
X156933500Y-44386500D01*
X157187500Y-44386500D01*
X157187500Y-45635750D01*
X157346250Y-45794500D01*
X157723000Y-45797572D01*
X157847482Y-45785312D01*
X157967180Y-45749002D01*
X158077494Y-45690037D01*
X158174185Y-45610685D01*
X158253537Y-45513994D01*
X158312502Y-45403680D01*
X158348812Y-45283982D01*
X158361072Y-45159500D01*
X158358000Y-44545250D01*
X158199250Y-44386500D01*
X157187500Y-44386500D01*
X156933500Y-44386500D01*
X155921750Y-44386500D01*
X155763000Y-44545250D01*
X155759928Y-45159500D01*
X144605704Y-45159500D01*
X144568726Y-44973602D01*
X144490705Y-44785244D01*
X144377437Y-44615726D01*
X144233274Y-44471563D01*
X144063756Y-44358295D01*
X143875398Y-44280274D01*
X143675439Y-44240500D01*
X143471561Y-44240500D01*
X143271602Y-44280274D01*
X143083244Y-44358295D01*
X142913726Y-44471563D01*
X142769563Y-44615726D01*
X142656295Y-44785244D01*
X142578274Y-44973602D01*
X142538500Y-45173561D01*
X141730499Y-45173561D01*
X141730499Y-43359500D01*
X155759928Y-43359500D01*
X155763000Y-43973750D01*
X155921750Y-44132500D01*
X156933500Y-44132500D01*
X156933500Y-42883250D01*
X157187500Y-42883250D01*
X157187500Y-44132500D01*
X158199250Y-44132500D01*
X158358000Y-43973750D01*
X158361072Y-43359500D01*
X158348812Y-43235018D01*
X158312502Y-43115320D01*
X158253537Y-43005006D01*
X158174185Y-42908315D01*
X158077494Y-42828963D01*
X157967180Y-42769998D01*
X157847482Y-42733688D01*
X157723000Y-42721428D01*
X157346250Y-42724500D01*
X157187500Y-42883250D01*
X156933500Y-42883250D01*
X156774750Y-42724500D01*
X156398000Y-42721428D01*
X156273518Y-42733688D01*
X156153820Y-42769998D01*
X156043506Y-42828963D01*
X155946815Y-42908315D01*
X155867463Y-43005006D01*
X155808498Y-43115320D01*
X155772188Y-43235018D01*
X155759928Y-43359500D01*
X141730499Y-43359500D01*
X141730499Y-41079572D01*
X142295500Y-41079572D01*
X142419982Y-41067312D01*
X142539680Y-41031002D01*
X142649994Y-40972037D01*
X142746685Y-40892685D01*
X142826037Y-40795994D01*
X142885002Y-40685680D01*
X142921312Y-40565982D01*
X142933572Y-40441500D01*
X142933572Y-39441500D01*
X144086428Y-39441500D01*
X144086428Y-40441500D01*
X144098688Y-40565982D01*
X144134998Y-40685680D01*
X144193963Y-40795994D01*
X144273315Y-40892685D01*
X144370006Y-40972037D01*
X144480320Y-41031002D01*
X144600018Y-41067312D01*
X144724500Y-41079572D01*
X145724500Y-41079572D01*
X145848982Y-41067312D01*
X145968680Y-41031002D01*
X146078994Y-40972037D01*
X146175685Y-40892685D01*
X146255037Y-40795994D01*
X146314002Y-40685680D01*
X146350312Y-40565982D01*
X146362572Y-40441500D01*
X146362572Y-39441500D01*
X146350312Y-39317018D01*
X146314002Y-39197320D01*
X146255037Y-39087006D01*
X146175685Y-38990315D01*
X146078994Y-38910963D01*
X145968680Y-38851998D01*
X145848982Y-38815688D01*
X145724500Y-38803428D01*
X144724500Y-38803428D01*
X144600018Y-38815688D01*
X144480320Y-38851998D01*
X144370006Y-38910963D01*
X144273315Y-38990315D01*
X144193963Y-39087006D01*
X144134998Y-39197320D01*
X144098688Y-39317018D01*
X144086428Y-39441500D01*
X142933572Y-39441500D01*
X142921312Y-39317018D01*
X142885002Y-39197320D01*
X142826037Y-39087006D01*
X142746685Y-38990315D01*
X142649994Y-38910963D01*
X142539680Y-38851998D01*
X142419982Y-38815688D01*
X142295500Y-38803428D01*
X141730499Y-38803428D01*
X141730499Y-37402851D01*
X141732018Y-37403312D01*
X141856500Y-37415572D01*
X142233250Y-37412500D01*
X142392000Y-37253750D01*
X142392000Y-36004500D01*
X142646000Y-36004500D01*
X142646000Y-37253750D01*
X142804750Y-37412500D01*
X143181500Y-37415572D01*
X143305982Y-37403312D01*
X143425680Y-37367002D01*
X143535994Y-37308037D01*
X143632685Y-37228685D01*
X143712037Y-37131994D01*
X143771002Y-37021680D01*
X143807312Y-36901982D01*
X143819572Y-36777500D01*
X143816500Y-36163250D01*
X143657750Y-36004500D01*
X142646000Y-36004500D01*
X142392000Y-36004500D01*
X142372000Y-36004500D01*
X142372000Y-35750500D01*
X142392000Y-35750500D01*
X142392000Y-34501250D01*
X142646000Y-34501250D01*
X142646000Y-35750500D01*
X143657750Y-35750500D01*
X143816500Y-35591750D01*
X143819572Y-34977500D01*
X143807312Y-34853018D01*
X143771002Y-34733320D01*
X143712037Y-34623006D01*
X143632685Y-34526315D01*
X143535994Y-34446963D01*
X143425680Y-34387998D01*
X143305982Y-34351688D01*
X143181500Y-34339428D01*
X142804750Y-34342500D01*
X142646000Y-34501250D01*
X142392000Y-34501250D01*
X142233250Y-34342500D01*
X141856500Y-34339428D01*
X141732018Y-34351688D01*
X141730499Y-34352149D01*
X141730499Y-33019413D01*
X141752774Y-33131398D01*
X141830795Y-33319756D01*
X141944063Y-33489274D01*
X142088226Y-33633437D01*
X142257744Y-33746705D01*
X142446102Y-33824726D01*
X142646061Y-33864500D01*
X142849939Y-33864500D01*
X143049898Y-33824726D01*
X143238256Y-33746705D01*
X143286454Y-33714500D01*
X143587922Y-33714500D01*
X144544678Y-34671257D01*
X144493095Y-34734112D01*
X144411028Y-34887648D01*
X144360492Y-35054243D01*
X144343428Y-35227497D01*
X144343428Y-36527503D01*
X144360492Y-36700757D01*
X144411028Y-36867352D01*
X144493095Y-37020888D01*
X144603537Y-37155463D01*
X144738112Y-37265905D01*
X144891648Y-37347972D01*
X145058243Y-37398508D01*
X145231497Y-37415572D01*
X146056503Y-37415572D01*
X146229757Y-37398508D01*
X146396352Y-37347972D01*
X146549888Y-37265905D01*
X146684463Y-37155463D01*
X146794905Y-37020888D01*
X146857115Y-36904500D01*
X150895428Y-36904500D01*
X150907688Y-37028982D01*
X150943998Y-37148680D01*
X151002963Y-37258994D01*
X151082315Y-37355685D01*
X151179006Y-37435037D01*
X151289320Y-37494002D01*
X151409018Y-37530312D01*
X151533500Y-37542572D01*
X151910250Y-37539500D01*
X152069000Y-37380750D01*
X152069000Y-36131500D01*
X152323000Y-36131500D01*
X152323000Y-37380750D01*
X152481750Y-37539500D01*
X152858500Y-37542572D01*
X152982982Y-37530312D01*
X153102680Y-37494002D01*
X153212994Y-37435037D01*
X153309685Y-37355685D01*
X153389037Y-37258994D01*
X153448002Y-37148680D01*
X153484312Y-37028982D01*
X153496572Y-36904500D01*
X153493500Y-36290250D01*
X153334750Y-36131500D01*
X152323000Y-36131500D01*
X152069000Y-36131500D01*
X151057250Y-36131500D01*
X150898500Y-36290250D01*
X150895428Y-36904500D01*
X146857115Y-36904500D01*
X146876972Y-36867352D01*
X146927508Y-36700757D01*
X146944572Y-36527503D01*
X146944572Y-35227497D01*
X146932458Y-35104500D01*
X150895428Y-35104500D01*
X150898500Y-35718750D01*
X151057250Y-35877500D01*
X152069000Y-35877500D01*
X152069000Y-34628250D01*
X152323000Y-34628250D01*
X152323000Y-35877500D01*
X153334750Y-35877500D01*
X153493500Y-35718750D01*
X153496572Y-35104500D01*
X153484312Y-34980018D01*
X153448002Y-34860320D01*
X153389037Y-34750006D01*
X153309685Y-34653315D01*
X153212994Y-34573963D01*
X153102680Y-34514998D01*
X152982982Y-34478688D01*
X152858500Y-34466428D01*
X152481750Y-34469500D01*
X152323000Y-34628250D01*
X152069000Y-34628250D01*
X151910250Y-34469500D01*
X151533500Y-34466428D01*
X151409018Y-34478688D01*
X151289320Y-34514998D01*
X151179006Y-34573963D01*
X151082315Y-34653315D01*
X151002963Y-34750006D01*
X150943998Y-34860320D01*
X150907688Y-34980018D01*
X150895428Y-35104500D01*
X146932458Y-35104500D01*
X146927508Y-35054243D01*
X146876972Y-34887648D01*
X146794905Y-34734112D01*
X146684463Y-34599537D01*
X146549888Y-34489095D01*
X146529249Y-34478063D01*
X146529000Y-34475531D01*
X146529000Y-34475523D01*
X146516195Y-34345510D01*
X146465589Y-34178687D01*
X146383411Y-34024941D01*
X146342425Y-33975000D01*
X146300532Y-33923953D01*
X146300530Y-33923951D01*
X146272817Y-33890183D01*
X146239050Y-33862471D01*
X144696078Y-32319500D01*
X146839417Y-32319500D01*
X146783795Y-32402744D01*
X146705774Y-32591102D01*
X146666000Y-32791061D01*
X146666000Y-32994939D01*
X146705774Y-33194898D01*
X146783795Y-33383256D01*
X146897063Y-33552774D01*
X147041226Y-33696937D01*
X147210744Y-33810205D01*
X147399102Y-33888226D01*
X147599061Y-33928000D01*
X147802939Y-33928000D01*
X148002898Y-33888226D01*
X148191256Y-33810205D01*
X148360774Y-33696937D01*
X148504937Y-33552774D01*
X148618205Y-33383256D01*
X148696226Y-33194898D01*
X148736000Y-32994939D01*
X148736000Y-32791061D01*
X148696226Y-32591102D01*
X148618205Y-32402744D01*
X148562583Y-32319500D01*
X149415928Y-32319500D01*
X149415928Y-32771501D01*
X149432992Y-32944755D01*
X149483528Y-33111351D01*
X149565595Y-33264887D01*
X149676038Y-33399462D01*
X149810613Y-33509905D01*
X149964149Y-33591972D01*
X150130745Y-33642508D01*
X150303999Y-33659572D01*
X151004001Y-33659572D01*
X151177255Y-33642508D01*
X151343851Y-33591972D01*
X151497387Y-33509905D01*
X151631962Y-33399462D01*
X151654000Y-33372609D01*
X151676038Y-33399462D01*
X151810613Y-33509905D01*
X151964149Y-33591972D01*
X152130745Y-33642508D01*
X152303999Y-33659572D01*
X153004001Y-33659572D01*
X153177255Y-33642508D01*
X153343851Y-33591972D01*
X153497387Y-33509905D01*
X153631962Y-33399462D01*
X153742405Y-33264887D01*
X153824472Y-33111351D01*
X153833527Y-33081500D01*
X154303454Y-33081500D01*
X154353963Y-33175994D01*
X154433315Y-33272685D01*
X154530006Y-33352037D01*
X154624500Y-33402546D01*
X154624501Y-34517085D01*
X154568648Y-34534028D01*
X154415112Y-34616095D01*
X154280537Y-34726537D01*
X154170095Y-34861112D01*
X154088028Y-35014648D01*
X154037492Y-35181243D01*
X154020428Y-35354497D01*
X154020428Y-36654503D01*
X154037492Y-36827757D01*
X154088028Y-36994352D01*
X154170095Y-37147888D01*
X154280537Y-37282463D01*
X154415112Y-37392905D01*
X154561001Y-37470884D01*
X154561001Y-37999168D01*
X154557324Y-38036500D01*
X154571998Y-38185485D01*
X154615454Y-38328746D01*
X154686026Y-38460776D01*
X154720739Y-38503073D01*
X154781000Y-38576501D01*
X154809998Y-38600299D01*
X158400569Y-42190870D01*
X158369732Y-68340000D01*
X104660000Y-68340000D01*
X104660000Y-65279872D01*
X105265000Y-65279872D01*
X105265000Y-65720128D01*
X105350890Y-66151925D01*
X105519369Y-66558669D01*
X105763962Y-66924729D01*
X106075271Y-67236038D01*
X106441331Y-67480631D01*
X106848075Y-67649110D01*
X107279872Y-67735000D01*
X107720128Y-67735000D01*
X108151925Y-67649110D01*
X108558669Y-67480631D01*
X108593287Y-67457500D01*
X120372428Y-67457500D01*
X120384688Y-67581982D01*
X120420998Y-67701680D01*
X120479963Y-67811994D01*
X120559315Y-67908685D01*
X120656006Y-67988037D01*
X120766320Y-68047002D01*
X120886018Y-68083312D01*
X121010500Y-68095572D01*
X121824750Y-68092500D01*
X121983500Y-67933750D01*
X121983500Y-66484500D01*
X122237500Y-66484500D01*
X122237500Y-67933750D01*
X122396250Y-68092500D01*
X123210500Y-68095572D01*
X123334982Y-68083312D01*
X123454680Y-68047002D01*
X123564994Y-67988037D01*
X123661685Y-67908685D01*
X123741037Y-67811994D01*
X123800002Y-67701680D01*
X123836312Y-67581982D01*
X123848572Y-67457500D01*
X123845500Y-66643250D01*
X123686750Y-66484500D01*
X122237500Y-66484500D01*
X121983500Y-66484500D01*
X120534250Y-66484500D01*
X120375500Y-66643250D01*
X120372428Y-67457500D01*
X108593287Y-67457500D01*
X108924729Y-67236038D01*
X109236038Y-66924729D01*
X109480631Y-66558669D01*
X109649110Y-66151925D01*
X109735000Y-65720128D01*
X109735000Y-65279872D01*
X109730550Y-65257500D01*
X120372428Y-65257500D01*
X120375500Y-66071750D01*
X120534250Y-66230500D01*
X121983500Y-66230500D01*
X121983500Y-64781250D01*
X122237500Y-64781250D01*
X122237500Y-66230500D01*
X123686750Y-66230500D01*
X123730633Y-66186617D01*
X130535500Y-66186617D01*
X130535500Y-66528383D01*
X130602175Y-66863581D01*
X130732963Y-67179331D01*
X130922837Y-67463498D01*
X131164502Y-67705163D01*
X131448669Y-67895037D01*
X131764419Y-68025825D01*
X132099617Y-68092500D01*
X132441383Y-68092500D01*
X132776581Y-68025825D01*
X133092331Y-67895037D01*
X133376498Y-67705163D01*
X133618163Y-67463498D01*
X133808037Y-67179331D01*
X133938825Y-66863581D01*
X134005500Y-66528383D01*
X134005500Y-66186617D01*
X133938825Y-65851419D01*
X133808037Y-65535669D01*
X133622171Y-65257500D01*
X135612428Y-65257500D01*
X135612428Y-67457500D01*
X135624688Y-67581982D01*
X135660998Y-67701680D01*
X135719963Y-67811994D01*
X135799315Y-67908685D01*
X135896006Y-67988037D01*
X136006320Y-68047002D01*
X136126018Y-68083312D01*
X136250500Y-68095572D01*
X138450500Y-68095572D01*
X138574982Y-68083312D01*
X138694680Y-68047002D01*
X138804994Y-67988037D01*
X138901685Y-67908685D01*
X138981037Y-67811994D01*
X139040002Y-67701680D01*
X139076312Y-67581982D01*
X139088572Y-67457500D01*
X139088572Y-65257500D01*
X139076312Y-65133018D01*
X139040002Y-65013320D01*
X138981037Y-64903006D01*
X138901685Y-64806315D01*
X138804994Y-64726963D01*
X138694680Y-64667998D01*
X138574982Y-64631688D01*
X138450500Y-64619428D01*
X136250500Y-64619428D01*
X136126018Y-64631688D01*
X136006320Y-64667998D01*
X135896006Y-64726963D01*
X135799315Y-64806315D01*
X135719963Y-64903006D01*
X135660998Y-65013320D01*
X135624688Y-65133018D01*
X135612428Y-65257500D01*
X133622171Y-65257500D01*
X133618163Y-65251502D01*
X133376498Y-65009837D01*
X133092331Y-64819963D01*
X132776581Y-64689175D01*
X132441383Y-64622500D01*
X132099617Y-64622500D01*
X131764419Y-64689175D01*
X131448669Y-64819963D01*
X131164502Y-65009837D01*
X130922837Y-65251502D01*
X130732963Y-65535669D01*
X130602175Y-65851419D01*
X130535500Y-66186617D01*
X123730633Y-66186617D01*
X123845500Y-66071750D01*
X123848572Y-65257500D01*
X123836312Y-65133018D01*
X123800002Y-65013320D01*
X123741037Y-64903006D01*
X123661685Y-64806315D01*
X123564994Y-64726963D01*
X123454680Y-64667998D01*
X123334982Y-64631688D01*
X123210500Y-64619428D01*
X122396250Y-64622500D01*
X122237500Y-64781250D01*
X121983500Y-64781250D01*
X121824750Y-64622500D01*
X121010500Y-64619428D01*
X120886018Y-64631688D01*
X120766320Y-64667998D01*
X120656006Y-64726963D01*
X120559315Y-64806315D01*
X120479963Y-64903006D01*
X120420998Y-65013320D01*
X120384688Y-65133018D01*
X120372428Y-65257500D01*
X109730550Y-65257500D01*
X109649110Y-64848075D01*
X109480631Y-64441331D01*
X109236038Y-64075271D01*
X108924729Y-63763962D01*
X108558669Y-63519369D01*
X108151925Y-63350890D01*
X107720128Y-63265000D01*
X107279872Y-63265000D01*
X106848075Y-63350890D01*
X106441331Y-63519369D01*
X106075271Y-63763962D01*
X105763962Y-64075271D01*
X105519369Y-64441331D01*
X105350890Y-64848075D01*
X105265000Y-65279872D01*
X104660000Y-65279872D01*
X104660000Y-57916844D01*
X107271500Y-57916844D01*
X107271500Y-58288156D01*
X107343939Y-58652334D01*
X107486034Y-58995382D01*
X107692325Y-59304118D01*
X107954882Y-59566675D01*
X108263618Y-59772966D01*
X108606666Y-59915061D01*
X108970844Y-59987500D01*
X109342156Y-59987500D01*
X109706334Y-59915061D01*
X110049382Y-59772966D01*
X110358118Y-59566675D01*
X110620675Y-59304118D01*
X110826966Y-58995382D01*
X110830231Y-58987500D01*
X125672478Y-58987500D01*
X125776563Y-59143274D01*
X125920726Y-59287437D01*
X126090244Y-59400705D01*
X126278602Y-59478726D01*
X126478561Y-59518500D01*
X126682439Y-59518500D01*
X126882398Y-59478726D01*
X127070756Y-59400705D01*
X127118954Y-59368500D01*
X127604546Y-59368500D01*
X127652744Y-59400705D01*
X127841102Y-59478726D01*
X128041061Y-59518500D01*
X128244939Y-59518500D01*
X128444898Y-59478726D01*
X128633256Y-59400705D01*
X128681454Y-59368500D01*
X128938046Y-59368500D01*
X128986244Y-59400705D01*
X129174602Y-59478726D01*
X129374561Y-59518500D01*
X129578439Y-59518500D01*
X129778398Y-59478726D01*
X129966756Y-59400705D01*
X130014954Y-59368500D01*
X130335046Y-59368500D01*
X130383244Y-59400705D01*
X130571602Y-59478726D01*
X130771561Y-59518500D01*
X130975439Y-59518500D01*
X131175398Y-59478726D01*
X131286250Y-59432809D01*
X131397102Y-59478726D01*
X131597061Y-59518500D01*
X131800939Y-59518500D01*
X131833212Y-59512081D01*
X131842805Y-59609490D01*
X131893412Y-59776313D01*
X131975590Y-59930059D01*
X132024100Y-59989169D01*
X132037274Y-60055398D01*
X132115295Y-60243756D01*
X132228563Y-60413274D01*
X132372726Y-60557437D01*
X132542244Y-60670705D01*
X132730602Y-60748726D01*
X132930561Y-60788500D01*
X133134439Y-60788500D01*
X133334398Y-60748726D01*
X133522756Y-60670705D01*
X133692274Y-60557437D01*
X133836437Y-60413274D01*
X133949705Y-60243756D01*
X134027726Y-60055398D01*
X134067500Y-59855439D01*
X134067500Y-59651561D01*
X134027726Y-59451602D01*
X133974975Y-59324250D01*
X135065281Y-59324250D01*
X135108750Y-59328531D01*
X135152219Y-59324250D01*
X135152227Y-59324250D01*
X135282240Y-59311445D01*
X135449063Y-59260839D01*
X135602809Y-59178661D01*
X135737567Y-59068067D01*
X135765284Y-59034294D01*
X136918932Y-57880647D01*
X137179617Y-57932500D01*
X137521383Y-57932500D01*
X137856581Y-57865825D01*
X138172331Y-57735037D01*
X138456498Y-57545163D01*
X138698163Y-57303498D01*
X138888037Y-57019331D01*
X139018825Y-56703581D01*
X139085500Y-56368383D01*
X139085500Y-56026617D01*
X139018825Y-55691419D01*
X138888037Y-55375669D01*
X138698163Y-55091502D01*
X138456498Y-54849837D01*
X138172331Y-54659963D01*
X137856581Y-54529175D01*
X137521383Y-54462500D01*
X137179617Y-54462500D01*
X136844419Y-54529175D01*
X136528669Y-54659963D01*
X136244502Y-54849837D01*
X136002837Y-55091502D01*
X135812963Y-55375669D01*
X135682175Y-55691419D01*
X135615500Y-56026617D01*
X135615500Y-56368383D01*
X135667353Y-56629068D01*
X134742172Y-57554250D01*
X133715129Y-57554250D01*
X133750000Y-57378939D01*
X133750000Y-57175061D01*
X133710226Y-56975102D01*
X133632205Y-56786744D01*
X133518937Y-56617226D01*
X133374774Y-56473063D01*
X133205256Y-56359795D01*
X133016898Y-56281774D01*
X132816939Y-56242000D01*
X132613061Y-56242000D01*
X132413102Y-56281774D01*
X132224744Y-56359795D01*
X132055226Y-56473063D01*
X131911063Y-56617226D01*
X131797795Y-56786744D01*
X131719774Y-56975102D01*
X131680000Y-57175061D01*
X131680000Y-57378939D01*
X131693836Y-57448500D01*
X131597061Y-57448500D01*
X131397102Y-57488274D01*
X131286250Y-57534191D01*
X131175398Y-57488274D01*
X130975439Y-57448500D01*
X130771561Y-57448500D01*
X130571602Y-57488274D01*
X130383244Y-57566295D01*
X130335046Y-57598500D01*
X130014954Y-57598500D01*
X129966756Y-57566295D01*
X129778398Y-57488274D01*
X129578439Y-57448500D01*
X129374561Y-57448500D01*
X129174602Y-57488274D01*
X128986244Y-57566295D01*
X128938046Y-57598500D01*
X128681454Y-57598500D01*
X128633256Y-57566295D01*
X128444898Y-57488274D01*
X128244939Y-57448500D01*
X128041061Y-57448500D01*
X127841102Y-57488274D01*
X127652744Y-57566295D01*
X127604546Y-57598500D01*
X127118954Y-57598500D01*
X127070756Y-57566295D01*
X126882398Y-57488274D01*
X126832077Y-57478265D01*
X126828317Y-57473683D01*
X126693559Y-57363089D01*
X126539813Y-57280911D01*
X126372990Y-57230305D01*
X126242977Y-57217500D01*
X126242969Y-57217500D01*
X126199500Y-57213219D01*
X126156031Y-57217500D01*
X110830231Y-57217500D01*
X110826966Y-57209618D01*
X110620675Y-56900882D01*
X110358118Y-56638325D01*
X110049382Y-56432034D01*
X109706334Y-56289939D01*
X109342156Y-56217500D01*
X108970844Y-56217500D01*
X108606666Y-56289939D01*
X108263618Y-56432034D01*
X107954882Y-56638325D01*
X107692325Y-56900882D01*
X107486034Y-57209618D01*
X107343939Y-57552666D01*
X107271500Y-57916844D01*
X104660000Y-57916844D01*
X104660000Y-54416105D01*
X108022500Y-54416105D01*
X108148414Y-54706077D01*
X108480626Y-54871933D01*
X108838812Y-54969790D01*
X109209206Y-54995889D01*
X109577575Y-54949225D01*
X109929762Y-54831594D01*
X110164586Y-54706077D01*
X110290500Y-54416105D01*
X109156500Y-53282105D01*
X108022500Y-54416105D01*
X104660000Y-54416105D01*
X104660000Y-53155206D01*
X107263111Y-53155206D01*
X107309775Y-53523575D01*
X107427406Y-53875762D01*
X107552923Y-54110586D01*
X107842895Y-54236500D01*
X108976895Y-53102500D01*
X109336105Y-53102500D01*
X110470105Y-54236500D01*
X110760077Y-54110586D01*
X110925933Y-53778374D01*
X111023790Y-53420188D01*
X111049889Y-53049794D01*
X111003225Y-52681425D01*
X110885594Y-52329238D01*
X110760077Y-52094414D01*
X110470105Y-51968500D01*
X109336105Y-53102500D01*
X108976895Y-53102500D01*
X107842895Y-51968500D01*
X107552923Y-52094414D01*
X107387067Y-52426626D01*
X107289210Y-52784812D01*
X107263111Y-53155206D01*
X104660000Y-53155206D01*
X104660000Y-51788895D01*
X108022500Y-51788895D01*
X109156500Y-52922895D01*
X110290500Y-51788895D01*
X110164586Y-51498923D01*
X109832374Y-51333067D01*
X109474188Y-51235210D01*
X109103794Y-51209111D01*
X108735425Y-51255775D01*
X108383238Y-51373406D01*
X108148414Y-51498923D01*
X108022500Y-51788895D01*
X104660000Y-51788895D01*
X104660000Y-38160500D01*
X109658428Y-38160500D01*
X109658428Y-40960500D01*
X109670688Y-41084982D01*
X109706998Y-41204680D01*
X109765963Y-41314994D01*
X109845315Y-41411685D01*
X109942006Y-41491037D01*
X110052320Y-41550002D01*
X110172018Y-41586312D01*
X110296500Y-41598572D01*
X113096500Y-41598572D01*
X113220982Y-41586312D01*
X113340680Y-41550002D01*
X113450994Y-41491037D01*
X113547685Y-41411685D01*
X113627037Y-41314994D01*
X113686002Y-41204680D01*
X113722312Y-41084982D01*
X113734572Y-40960500D01*
X113734572Y-40083622D01*
X121310325Y-40083622D01*
X121374925Y-40296594D01*
X121524969Y-40601829D01*
X121731678Y-40871927D01*
X121987109Y-41096508D01*
X122281446Y-41266942D01*
X122603377Y-41376679D01*
X122872500Y-41259100D01*
X122872500Y-39814500D01*
X123126500Y-39814500D01*
X123126500Y-41259100D01*
X123395623Y-41376679D01*
X123717554Y-41266942D01*
X124011891Y-41096508D01*
X124267322Y-40871927D01*
X124474031Y-40601829D01*
X124624075Y-40296594D01*
X124688675Y-40083622D01*
X124570625Y-39814500D01*
X123126500Y-39814500D01*
X122872500Y-39814500D01*
X121428375Y-39814500D01*
X121310325Y-40083622D01*
X113734572Y-40083622D01*
X113734572Y-39291378D01*
X121310325Y-39291378D01*
X121428375Y-39560500D01*
X122872500Y-39560500D01*
X122872500Y-38115900D01*
X123126500Y-38115900D01*
X123126500Y-39560500D01*
X124570625Y-39560500D01*
X124688675Y-39291378D01*
X124624075Y-39078406D01*
X124474031Y-38773171D01*
X124267322Y-38503073D01*
X124011891Y-38278492D01*
X123717554Y-38108058D01*
X123395623Y-37998321D01*
X123126500Y-38115900D01*
X122872500Y-38115900D01*
X122603377Y-37998321D01*
X122281446Y-38108058D01*
X121987109Y-38278492D01*
X121731678Y-38503073D01*
X121524969Y-38773171D01*
X121374925Y-39078406D01*
X121310325Y-39291378D01*
X113734572Y-39291378D01*
X113734572Y-38160500D01*
X113722312Y-38036018D01*
X113686002Y-37916320D01*
X113627037Y-37806006D01*
X113547685Y-37709315D01*
X113450994Y-37629963D01*
X113340680Y-37570998D01*
X113220982Y-37534688D01*
X113096500Y-37522428D01*
X110296500Y-37522428D01*
X110172018Y-37534688D01*
X110052320Y-37570998D01*
X109942006Y-37629963D01*
X109845315Y-37709315D01*
X109765963Y-37806006D01*
X109706998Y-37916320D01*
X109670688Y-38036018D01*
X109658428Y-38160500D01*
X104660000Y-38160500D01*
X104660000Y-34360070D01*
X109661500Y-34360070D01*
X109661500Y-34760930D01*
X109739704Y-35154087D01*
X109893107Y-35524434D01*
X110115813Y-35857737D01*
X110399263Y-36141187D01*
X110732566Y-36363893D01*
X111102913Y-36517296D01*
X111496070Y-36595500D01*
X111896930Y-36595500D01*
X112290087Y-36517296D01*
X112660434Y-36363893D01*
X112993737Y-36141187D01*
X113277187Y-35857737D01*
X113499893Y-35524434D01*
X113534452Y-35441000D01*
X126496928Y-35441000D01*
X126496928Y-36441000D01*
X126509188Y-36565482D01*
X126545498Y-36685180D01*
X126604463Y-36795494D01*
X126683815Y-36892185D01*
X126750001Y-36946502D01*
X126750000Y-39517031D01*
X126745719Y-39560500D01*
X126750000Y-39603969D01*
X126750000Y-39603976D01*
X126762805Y-39733989D01*
X126813411Y-39900812D01*
X126895589Y-40054558D01*
X127006183Y-40189317D01*
X127039956Y-40217034D01*
X130026470Y-43203549D01*
X130054183Y-43237317D01*
X130087951Y-43265030D01*
X130087953Y-43265032D01*
X130100404Y-43275250D01*
X130188941Y-43347911D01*
X130342687Y-43430089D01*
X130458903Y-43465343D01*
X130509509Y-43480695D01*
X130524306Y-43482152D01*
X130639523Y-43493500D01*
X130639531Y-43493500D01*
X130683000Y-43497781D01*
X130726469Y-43493500D01*
X135415046Y-43493500D01*
X135463244Y-43525705D01*
X135632809Y-43595941D01*
X135703045Y-43765506D01*
X135816313Y-43935024D01*
X135960476Y-44079187D01*
X136129994Y-44192455D01*
X136209756Y-44225494D01*
X136242795Y-44305256D01*
X136356063Y-44474774D01*
X136500226Y-44618937D01*
X136669744Y-44732205D01*
X136858102Y-44810226D01*
X137058061Y-44850000D01*
X137261939Y-44850000D01*
X137461898Y-44810226D01*
X137650256Y-44732205D01*
X137819774Y-44618937D01*
X137963937Y-44474774D01*
X138077205Y-44305256D01*
X138155226Y-44116898D01*
X138195000Y-43916939D01*
X138195000Y-43713061D01*
X138155226Y-43513102D01*
X138077205Y-43324744D01*
X137963937Y-43155226D01*
X137819774Y-43011063D01*
X137650256Y-42897795D01*
X137570494Y-42864756D01*
X137537455Y-42784994D01*
X137424187Y-42615476D01*
X137280024Y-42471313D01*
X137110506Y-42358045D01*
X136940941Y-42287809D01*
X136870705Y-42118244D01*
X136757437Y-41948726D01*
X136613274Y-41804563D01*
X136443756Y-41691295D01*
X136255398Y-41613274D01*
X136055439Y-41573500D01*
X135851561Y-41573500D01*
X135651602Y-41613274D01*
X135463244Y-41691295D01*
X135415046Y-41723500D01*
X131049579Y-41723500D01*
X128520000Y-39193922D01*
X128520000Y-38587500D01*
X131421428Y-38587500D01*
X131421428Y-40787500D01*
X131433688Y-40911982D01*
X131469998Y-41031680D01*
X131528963Y-41141994D01*
X131608315Y-41238685D01*
X131705006Y-41318037D01*
X131815320Y-41377002D01*
X131935018Y-41413312D01*
X132059500Y-41425572D01*
X134259500Y-41425572D01*
X134383982Y-41413312D01*
X134503680Y-41377002D01*
X134613994Y-41318037D01*
X134710685Y-41238685D01*
X134790037Y-41141994D01*
X134849002Y-41031680D01*
X134885312Y-40911982D01*
X134897572Y-40787500D01*
X134897572Y-38587500D01*
X134885312Y-38463018D01*
X134849002Y-38343320D01*
X134790037Y-38233006D01*
X134710685Y-38136315D01*
X134613994Y-38056963D01*
X134503680Y-37997998D01*
X134383982Y-37961688D01*
X134259500Y-37949428D01*
X132059500Y-37949428D01*
X131935018Y-37961688D01*
X131815320Y-37997998D01*
X131705006Y-38056963D01*
X131608315Y-38136315D01*
X131528963Y-38233006D01*
X131469998Y-38343320D01*
X131433688Y-38463018D01*
X131421428Y-38587500D01*
X128520000Y-38587500D01*
X128520000Y-36946501D01*
X128586185Y-36892185D01*
X128665537Y-36795494D01*
X128724502Y-36685180D01*
X128760812Y-36565482D01*
X128773072Y-36441000D01*
X128773072Y-35441000D01*
X128760812Y-35316518D01*
X128724502Y-35196820D01*
X128665537Y-35086506D01*
X128586185Y-34989815D01*
X128489494Y-34910463D01*
X128379180Y-34851498D01*
X128259482Y-34815188D01*
X128135000Y-34802928D01*
X127135000Y-34802928D01*
X127010518Y-34815188D01*
X126890820Y-34851498D01*
X126780506Y-34910463D01*
X126683815Y-34989815D01*
X126604463Y-35086506D01*
X126545498Y-35196820D01*
X126509188Y-35316518D01*
X126496928Y-35441000D01*
X113534452Y-35441000D01*
X113653296Y-35154087D01*
X113731500Y-34760930D01*
X113731500Y-34360070D01*
X113653296Y-33966913D01*
X113587084Y-33807061D01*
X117138500Y-33807061D01*
X117138500Y-34010939D01*
X117178274Y-34210898D01*
X117256295Y-34399256D01*
X117369563Y-34568774D01*
X117513726Y-34712937D01*
X117683244Y-34826205D01*
X117871602Y-34904226D01*
X118071561Y-34944000D01*
X118275439Y-34944000D01*
X118475398Y-34904226D01*
X118663756Y-34826205D01*
X118800254Y-34735000D01*
X121846969Y-34735000D01*
X121890906Y-34778937D01*
X122060424Y-34892205D01*
X122248782Y-34970226D01*
X122448741Y-35010000D01*
X122652619Y-35010000D01*
X122852578Y-34970226D01*
X123040936Y-34892205D01*
X123210454Y-34778937D01*
X123354617Y-34634774D01*
X123467885Y-34465256D01*
X123545906Y-34276898D01*
X123585680Y-34076939D01*
X123585680Y-33873061D01*
X123545906Y-33673102D01*
X123467885Y-33484744D01*
X123354617Y-33315226D01*
X123210454Y-33171063D01*
X123040936Y-33057795D01*
X122852578Y-32979774D01*
X122652619Y-32940000D01*
X122448741Y-32940000D01*
X122248782Y-32979774D01*
X122060424Y-33057795D01*
X121890906Y-33171063D01*
X121846969Y-33215000D01*
X118943211Y-33215000D01*
X118833274Y-33105063D01*
X118663756Y-32991795D01*
X118475398Y-32913774D01*
X118275439Y-32874000D01*
X118071561Y-32874000D01*
X117871602Y-32913774D01*
X117683244Y-32991795D01*
X117513726Y-33105063D01*
X117369563Y-33249226D01*
X117256295Y-33418744D01*
X117178274Y-33607102D01*
X117138500Y-33807061D01*
X113587084Y-33807061D01*
X113499893Y-33596566D01*
X113277187Y-33263263D01*
X112993737Y-32979813D01*
X112660434Y-32757107D01*
X112290087Y-32603704D01*
X111896930Y-32525500D01*
X111496070Y-32525500D01*
X111102913Y-32603704D01*
X110732566Y-32757107D01*
X110399263Y-32979813D01*
X110115813Y-33263263D01*
X109893107Y-33596566D01*
X109739704Y-33966913D01*
X109661500Y-34360070D01*
X104660000Y-34360070D01*
X104660000Y-25100531D01*
X114525074Y-25100531D01*
X114635921Y-25377714D01*
X114946840Y-25531089D01*
X115281705Y-25620860D01*
X115627650Y-25643576D01*
X115971380Y-25598366D01*
X116299685Y-25486966D01*
X116504079Y-25377714D01*
X116614926Y-25100531D01*
X119605074Y-25100531D01*
X119715921Y-25377714D01*
X120026840Y-25531089D01*
X120361705Y-25620860D01*
X120707650Y-25643576D01*
X121051380Y-25598366D01*
X121379685Y-25486966D01*
X121584079Y-25377714D01*
X121694926Y-25100531D01*
X120650000Y-24055605D01*
X119605074Y-25100531D01*
X116614926Y-25100531D01*
X115570000Y-24055605D01*
X114525074Y-25100531D01*
X104660000Y-25100531D01*
X104660000Y-23933650D01*
X113802424Y-23933650D01*
X113847634Y-24277380D01*
X113959034Y-24605685D01*
X114068286Y-24810079D01*
X114345469Y-24920926D01*
X115390395Y-23876000D01*
X115749605Y-23876000D01*
X116794531Y-24920926D01*
X117071714Y-24810079D01*
X117225089Y-24499160D01*
X117314860Y-24164295D01*
X117330004Y-23933650D01*
X118882424Y-23933650D01*
X118927634Y-24277380D01*
X119039034Y-24605685D01*
X119148286Y-24810079D01*
X119425469Y-24920926D01*
X120470395Y-23876000D01*
X120829605Y-23876000D01*
X121874531Y-24920926D01*
X122151714Y-24810079D01*
X122305089Y-24499160D01*
X122394860Y-24164295D01*
X122417576Y-23818350D01*
X122372366Y-23474620D01*
X122260966Y-23146315D01*
X122151714Y-22941921D01*
X121874531Y-22831074D01*
X120829605Y-23876000D01*
X120470395Y-23876000D01*
X119425469Y-22831074D01*
X119148286Y-22941921D01*
X118994911Y-23252840D01*
X118905140Y-23587705D01*
X118882424Y-23933650D01*
X117330004Y-23933650D01*
X117337576Y-23818350D01*
X117292366Y-23474620D01*
X117180966Y-23146315D01*
X117071714Y-22941921D01*
X116794531Y-22831074D01*
X115749605Y-23876000D01*
X115390395Y-23876000D01*
X114345469Y-22831074D01*
X114068286Y-22941921D01*
X113914911Y-23252840D01*
X113825140Y-23587705D01*
X113802424Y-23933650D01*
X104660000Y-23933650D01*
X104660000Y-22651469D01*
X114525074Y-22651469D01*
X115570000Y-23696395D01*
X116614926Y-22651469D01*
X116504079Y-22374286D01*
X116193160Y-22220911D01*
X115858295Y-22131140D01*
X115512350Y-22108424D01*
X115168620Y-22153634D01*
X114840315Y-22265034D01*
X114635921Y-22374286D01*
X114525074Y-22651469D01*
X104660000Y-22651469D01*
X104660000Y-21172504D01*
X116450000Y-21172504D01*
X116450000Y-21499496D01*
X116513793Y-21820204D01*
X116638927Y-22122305D01*
X116820594Y-22394188D01*
X117051812Y-22625406D01*
X117323695Y-22807073D01*
X117625796Y-22932207D01*
X117946504Y-22996000D01*
X118273496Y-22996000D01*
X118594204Y-22932207D01*
X118896305Y-22807073D01*
X119129182Y-22651469D01*
X119605074Y-22651469D01*
X120650000Y-23696395D01*
X121680895Y-22665500D01*
X126892606Y-22665500D01*
X126926105Y-23005619D01*
X127025314Y-23332668D01*
X127186421Y-23634078D01*
X127403234Y-23898266D01*
X127594994Y-24055639D01*
X127500236Y-24232919D01*
X127421040Y-24493993D01*
X127394299Y-24765500D01*
X127421040Y-25037007D01*
X127500236Y-25298081D01*
X127628843Y-25538688D01*
X127801919Y-25749581D01*
X127821316Y-25765500D01*
X127801919Y-25781419D01*
X127628843Y-25992312D01*
X127500236Y-26232919D01*
X127421040Y-26493993D01*
X127394299Y-26765500D01*
X127421040Y-27037007D01*
X127500236Y-27298081D01*
X127624940Y-27531386D01*
X127584815Y-27564315D01*
X127505463Y-27661006D01*
X127446498Y-27771320D01*
X127410188Y-27891018D01*
X127397928Y-28015500D01*
X127397928Y-29515500D01*
X127409008Y-29627996D01*
X127403234Y-29632734D01*
X127186421Y-29896922D01*
X127025314Y-30198332D01*
X126926105Y-30525381D01*
X126892606Y-30865500D01*
X126926105Y-31205619D01*
X127025314Y-31532668D01*
X127186421Y-31834078D01*
X127403234Y-32098266D01*
X127667422Y-32315079D01*
X127968832Y-32476186D01*
X128295881Y-32575395D01*
X128550775Y-32600500D01*
X130021225Y-32600500D01*
X130276119Y-32575395D01*
X130603168Y-32476186D01*
X130904578Y-32315079D01*
X131168766Y-32098266D01*
X131385579Y-31834078D01*
X131546686Y-31532668D01*
X131645895Y-31205619D01*
X131679394Y-30865500D01*
X131645895Y-30525381D01*
X131546686Y-30198332D01*
X131385579Y-29896922D01*
X131168766Y-29632734D01*
X131162992Y-29627996D01*
X131174072Y-29515500D01*
X131174072Y-28776500D01*
X137979928Y-28776500D01*
X137992188Y-28900982D01*
X138028498Y-29020680D01*
X138087463Y-29130994D01*
X138166815Y-29227685D01*
X138263506Y-29307037D01*
X138373820Y-29366002D01*
X138493518Y-29402312D01*
X138618000Y-29414572D01*
X138994750Y-29411500D01*
X139153500Y-29252750D01*
X139153500Y-28003500D01*
X139407500Y-28003500D01*
X139407500Y-29252750D01*
X139566250Y-29411500D01*
X139943000Y-29414572D01*
X140067482Y-29402312D01*
X140187180Y-29366002D01*
X140297494Y-29307037D01*
X140394185Y-29227685D01*
X140473537Y-29130994D01*
X140532502Y-29020680D01*
X140568812Y-28900982D01*
X140581072Y-28776500D01*
X140578000Y-28162250D01*
X140419250Y-28003500D01*
X139407500Y-28003500D01*
X139153500Y-28003500D01*
X138141750Y-28003500D01*
X137983000Y-28162250D01*
X137979928Y-28776500D01*
X131174072Y-28776500D01*
X131174072Y-28015500D01*
X131161812Y-27891018D01*
X131125502Y-27771320D01*
X131066537Y-27661006D01*
X130987185Y-27564315D01*
X130947060Y-27531386D01*
X131071764Y-27298081D01*
X131150960Y-27037007D01*
X131156919Y-26976500D01*
X137979928Y-26976500D01*
X137983000Y-27590750D01*
X138141750Y-27749500D01*
X139153500Y-27749500D01*
X139153500Y-26500250D01*
X139407500Y-26500250D01*
X139407500Y-27749500D01*
X140419250Y-27749500D01*
X140578000Y-27590750D01*
X140581072Y-26976500D01*
X140568812Y-26852018D01*
X140532502Y-26732320D01*
X140473537Y-26622006D01*
X140394185Y-26525315D01*
X140297494Y-26445963D01*
X140187180Y-26386998D01*
X140067482Y-26350688D01*
X139943000Y-26338428D01*
X139566250Y-26341500D01*
X139407500Y-26500250D01*
X139153500Y-26500250D01*
X138994750Y-26341500D01*
X138618000Y-26338428D01*
X138493518Y-26350688D01*
X138373820Y-26386998D01*
X138263506Y-26445963D01*
X138166815Y-26525315D01*
X138087463Y-26622006D01*
X138028498Y-26732320D01*
X137992188Y-26852018D01*
X137979928Y-26976500D01*
X131156919Y-26976500D01*
X131177701Y-26765500D01*
X131150960Y-26493993D01*
X131071764Y-26232919D01*
X130943157Y-25992312D01*
X130770081Y-25781419D01*
X130750684Y-25765500D01*
X130770081Y-25749581D01*
X130943157Y-25538688D01*
X131071764Y-25298081D01*
X131150960Y-25037007D01*
X131177701Y-24765500D01*
X131150960Y-24493993D01*
X131071764Y-24232919D01*
X130977006Y-24055639D01*
X131168766Y-23898266D01*
X131385579Y-23634078D01*
X131546686Y-23332668D01*
X131645895Y-23005619D01*
X131679394Y-22665500D01*
X131645895Y-22325381D01*
X131546686Y-21998332D01*
X131536353Y-21979000D01*
X151706428Y-21979000D01*
X151706428Y-22979000D01*
X151718688Y-23103482D01*
X151754998Y-23223180D01*
X151813963Y-23333494D01*
X151893315Y-23430185D01*
X151990006Y-23509537D01*
X152100320Y-23568502D01*
X152220018Y-23604812D01*
X152344500Y-23617072D01*
X153344500Y-23617072D01*
X153468982Y-23604812D01*
X153588680Y-23568502D01*
X153698994Y-23509537D01*
X153795685Y-23430185D01*
X153875037Y-23333494D01*
X153934002Y-23223180D01*
X153970312Y-23103482D01*
X153982572Y-22979000D01*
X153982572Y-21979000D01*
X153970312Y-21854518D01*
X153934002Y-21734820D01*
X153875037Y-21624506D01*
X153795685Y-21527815D01*
X153698994Y-21448463D01*
X153588680Y-21389498D01*
X153468982Y-21353188D01*
X153344500Y-21340928D01*
X152344500Y-21340928D01*
X152220018Y-21353188D01*
X152100320Y-21389498D01*
X151990006Y-21448463D01*
X151893315Y-21527815D01*
X151813963Y-21624506D01*
X151754998Y-21734820D01*
X151718688Y-21854518D01*
X151706428Y-21979000D01*
X131536353Y-21979000D01*
X131385579Y-21696922D01*
X131168766Y-21432734D01*
X130904578Y-21215921D01*
X130603168Y-21054814D01*
X130276119Y-20955605D01*
X130021225Y-20930500D01*
X128550775Y-20930500D01*
X128295881Y-20955605D01*
X127968832Y-21054814D01*
X127667422Y-21215921D01*
X127403234Y-21432734D01*
X127186421Y-21696922D01*
X127025314Y-21998332D01*
X126926105Y-22325381D01*
X126892606Y-22665500D01*
X121680895Y-22665500D01*
X121694926Y-22651469D01*
X121584079Y-22374286D01*
X121273160Y-22220911D01*
X120938295Y-22131140D01*
X120592350Y-22108424D01*
X120248620Y-22153634D01*
X119920315Y-22265034D01*
X119715921Y-22374286D01*
X119605074Y-22651469D01*
X119129182Y-22651469D01*
X119168188Y-22625406D01*
X119399406Y-22394188D01*
X119581073Y-22122305D01*
X119706207Y-21820204D01*
X119770000Y-21499496D01*
X119770000Y-21172504D01*
X119706207Y-20851796D01*
X119581073Y-20549695D01*
X119399406Y-20277812D01*
X119168188Y-20046594D01*
X119129183Y-20020531D01*
X119605074Y-20020531D01*
X119715921Y-20297714D01*
X120026840Y-20451089D01*
X120361705Y-20540860D01*
X120707650Y-20563576D01*
X121051380Y-20518366D01*
X121379685Y-20406966D01*
X121584079Y-20297714D01*
X121694926Y-20020531D01*
X120650000Y-18975605D01*
X119605074Y-20020531D01*
X119129183Y-20020531D01*
X118896305Y-19864927D01*
X118594204Y-19739793D01*
X118273496Y-19676000D01*
X117946504Y-19676000D01*
X117625796Y-19739793D01*
X117323695Y-19864927D01*
X117051812Y-20046594D01*
X116820594Y-20277812D01*
X116638927Y-20549695D01*
X116513793Y-20851796D01*
X116450000Y-21172504D01*
X104660000Y-21172504D01*
X104660000Y-18279872D01*
X105265000Y-18279872D01*
X105265000Y-18720128D01*
X105350890Y-19151925D01*
X105519369Y-19558669D01*
X105763962Y-19924729D01*
X106075271Y-20236038D01*
X106441331Y-20480631D01*
X106848075Y-20649110D01*
X107279872Y-20735000D01*
X107720128Y-20735000D01*
X108151925Y-20649110D01*
X108558669Y-20480631D01*
X108924729Y-20236038D01*
X109140236Y-20020531D01*
X114525074Y-20020531D01*
X114635921Y-20297714D01*
X114946840Y-20451089D01*
X115281705Y-20540860D01*
X115627650Y-20563576D01*
X115971380Y-20518366D01*
X116299685Y-20406966D01*
X116504079Y-20297714D01*
X116614926Y-20020531D01*
X115570000Y-18975605D01*
X114525074Y-20020531D01*
X109140236Y-20020531D01*
X109236038Y-19924729D01*
X109480631Y-19558669D01*
X109649110Y-19151925D01*
X109708440Y-18853650D01*
X113802424Y-18853650D01*
X113847634Y-19197380D01*
X113959034Y-19525685D01*
X114068286Y-19730079D01*
X114345469Y-19840926D01*
X115390395Y-18796000D01*
X115749605Y-18796000D01*
X116794531Y-19840926D01*
X117071714Y-19730079D01*
X117225089Y-19419160D01*
X117314860Y-19084295D01*
X117330004Y-18853650D01*
X118882424Y-18853650D01*
X118927634Y-19197380D01*
X119039034Y-19525685D01*
X119148286Y-19730079D01*
X119425469Y-19840926D01*
X120470395Y-18796000D01*
X120829605Y-18796000D01*
X121874531Y-19840926D01*
X122151714Y-19730079D01*
X122305089Y-19419160D01*
X122394860Y-19084295D01*
X122417576Y-18738350D01*
X122409507Y-18677000D01*
X140720928Y-18677000D01*
X140720928Y-19677000D01*
X140733188Y-19801482D01*
X140769498Y-19921180D01*
X140828463Y-20031494D01*
X140907815Y-20128185D01*
X141004506Y-20207537D01*
X141114820Y-20266502D01*
X141234518Y-20302812D01*
X141359000Y-20315072D01*
X142359000Y-20315072D01*
X142483482Y-20302812D01*
X142603180Y-20266502D01*
X142713494Y-20207537D01*
X142810185Y-20128185D01*
X142889537Y-20031494D01*
X142948502Y-19921180D01*
X142984812Y-19801482D01*
X142997072Y-19677000D01*
X142997072Y-18677000D01*
X142984812Y-18552518D01*
X142948502Y-18432820D01*
X142889537Y-18322506D01*
X142810185Y-18225815D01*
X142713494Y-18146463D01*
X142603180Y-18087498D01*
X142483482Y-18051188D01*
X142359000Y-18038928D01*
X141359000Y-18038928D01*
X141234518Y-18051188D01*
X141114820Y-18087498D01*
X141004506Y-18146463D01*
X140907815Y-18225815D01*
X140828463Y-18322506D01*
X140769498Y-18432820D01*
X140733188Y-18552518D01*
X140720928Y-18677000D01*
X122409507Y-18677000D01*
X122372366Y-18394620D01*
X122260966Y-18066315D01*
X122151714Y-17861921D01*
X121874531Y-17751074D01*
X120829605Y-18796000D01*
X120470395Y-18796000D01*
X119425469Y-17751074D01*
X119148286Y-17861921D01*
X118994911Y-18172840D01*
X118905140Y-18507705D01*
X118882424Y-18853650D01*
X117330004Y-18853650D01*
X117337576Y-18738350D01*
X117292366Y-18394620D01*
X117180966Y-18066315D01*
X117071714Y-17861921D01*
X116794531Y-17751074D01*
X115749605Y-18796000D01*
X115390395Y-18796000D01*
X114345469Y-17751074D01*
X114068286Y-17861921D01*
X113914911Y-18172840D01*
X113825140Y-18507705D01*
X113802424Y-18853650D01*
X109708440Y-18853650D01*
X109735000Y-18720128D01*
X109735000Y-18279872D01*
X109649110Y-17848075D01*
X109534536Y-17571469D01*
X114525074Y-17571469D01*
X115570000Y-18616395D01*
X116614926Y-17571469D01*
X119605074Y-17571469D01*
X120650000Y-18616395D01*
X121694926Y-17571469D01*
X121584079Y-17294286D01*
X121273160Y-17140911D01*
X120938295Y-17051140D01*
X120592350Y-17028424D01*
X120248620Y-17073634D01*
X119920315Y-17185034D01*
X119715921Y-17294286D01*
X119605074Y-17571469D01*
X116614926Y-17571469D01*
X116504079Y-17294286D01*
X116193160Y-17140911D01*
X115858295Y-17051140D01*
X115512350Y-17028424D01*
X115168620Y-17073634D01*
X114840315Y-17185034D01*
X114635921Y-17294286D01*
X114525074Y-17571469D01*
X109534536Y-17571469D01*
X109480631Y-17441331D01*
X109236038Y-17075271D01*
X108924729Y-16763962D01*
X108558669Y-16519369D01*
X108151925Y-16350890D01*
X107720128Y-16265000D01*
X107279872Y-16265000D01*
X106848075Y-16350890D01*
X106441331Y-16519369D01*
X106075271Y-16763962D01*
X105763962Y-17075271D01*
X105519369Y-17441331D01*
X105350890Y-17848075D01*
X105265000Y-18279872D01*
X104660000Y-18279872D01*
X104660000Y-15660000D01*
X158431855Y-15660000D01*
X158426375Y-20306774D01*
%TA.AperFunction,Conductor*%
D27*
G36*
X158426375Y-20306774D02*
G01*
X158296387Y-20200095D01*
X158142851Y-20118028D01*
X157976255Y-20067492D01*
X157803001Y-20050428D01*
X157189730Y-20050428D01*
X154027304Y-16888003D01*
X154003501Y-16858999D01*
X153887776Y-16764026D01*
X153755747Y-16693454D01*
X153612486Y-16649997D01*
X153500833Y-16639000D01*
X153500822Y-16639000D01*
X153463500Y-16635324D01*
X153426178Y-16639000D01*
X145928211Y-16639000D01*
X145884274Y-16595063D01*
X145714756Y-16481795D01*
X145526398Y-16403774D01*
X145326439Y-16364000D01*
X145122561Y-16364000D01*
X144922602Y-16403774D01*
X144734244Y-16481795D01*
X144564726Y-16595063D01*
X144420563Y-16739226D01*
X144307295Y-16908744D01*
X144229274Y-17097102D01*
X144189500Y-17297061D01*
X144189500Y-17500939D01*
X144229274Y-17700898D01*
X144307295Y-17889256D01*
X144420563Y-18058774D01*
X144564726Y-18202937D01*
X144734244Y-18316205D01*
X144922602Y-18394226D01*
X145122561Y-18434000D01*
X145326439Y-18434000D01*
X145526398Y-18394226D01*
X145714756Y-18316205D01*
X145884274Y-18202937D01*
X145928211Y-18159000D01*
X153148699Y-18159000D01*
X156014928Y-21025230D01*
X156014928Y-21638501D01*
X156031992Y-21811755D01*
X156082528Y-21978351D01*
X156164595Y-22131887D01*
X156275038Y-22266462D01*
X156301891Y-22288500D01*
X156275038Y-22310538D01*
X156164595Y-22445113D01*
X156082528Y-22598649D01*
X156031992Y-22765245D01*
X156014928Y-22938499D01*
X156014928Y-23638501D01*
X156031992Y-23811755D01*
X156082528Y-23978351D01*
X156164595Y-24131887D01*
X156275038Y-24266462D01*
X156409613Y-24376905D01*
X156563149Y-24458972D01*
X156593000Y-24468027D01*
X156593001Y-26074034D01*
X156545320Y-26088498D01*
X156435006Y-26147463D01*
X156338315Y-26226815D01*
X156258963Y-26323506D01*
X156199998Y-26433820D01*
X156163688Y-26553518D01*
X156151428Y-26678000D01*
X156151428Y-27678000D01*
X156163688Y-27802482D01*
X156199998Y-27922180D01*
X156258963Y-28032494D01*
X156338315Y-28129185D01*
X156435006Y-28208537D01*
X156529500Y-28259046D01*
X156529501Y-34400668D01*
X156525824Y-34438000D01*
X156529501Y-34475333D01*
X156530857Y-34489095D01*
X156540498Y-34586985D01*
X156583954Y-34730246D01*
X156654526Y-34862276D01*
X156721596Y-34944000D01*
X156749500Y-34978001D01*
X156778498Y-35001799D01*
X158407126Y-36630428D01*
X158403101Y-40043799D01*
X156081000Y-37721699D01*
X156081000Y-37470884D01*
X156226888Y-37392905D01*
X156361463Y-37282463D01*
X156471905Y-37147888D01*
X156553972Y-36994352D01*
X156604508Y-36827757D01*
X156621572Y-36654503D01*
X156621572Y-35354497D01*
X156604508Y-35181243D01*
X156553972Y-35014648D01*
X156471905Y-34861112D01*
X156361463Y-34726537D01*
X156226888Y-34616095D01*
X156144500Y-34572058D01*
X156144500Y-33402546D01*
X156238994Y-33352037D01*
X156335685Y-33272685D01*
X156415037Y-33175994D01*
X156474002Y-33065680D01*
X156510312Y-32945982D01*
X156522572Y-32821500D01*
X156522572Y-31821500D01*
X156510312Y-31697018D01*
X156474002Y-31577320D01*
X156415037Y-31467006D01*
X156335685Y-31370315D01*
X156238994Y-31290963D01*
X156128680Y-31231998D01*
X156008982Y-31195688D01*
X155884500Y-31183428D01*
X154884500Y-31183428D01*
X154760018Y-31195688D01*
X154640320Y-31231998D01*
X154530006Y-31290963D01*
X154433315Y-31370315D01*
X154353963Y-31467006D01*
X154303454Y-31561500D01*
X153833527Y-31561500D01*
X153824472Y-31531649D01*
X153742405Y-31378113D01*
X153631962Y-31243538D01*
X153497387Y-31133095D01*
X153343851Y-31051028D01*
X153177255Y-31000492D01*
X153004001Y-30983428D01*
X152303999Y-30983428D01*
X152130745Y-31000492D01*
X151964149Y-31051028D01*
X151810613Y-31133095D01*
X151676038Y-31243538D01*
X151654000Y-31270391D01*
X151631962Y-31243538D01*
X151497387Y-31133095D01*
X151461500Y-31113913D01*
X151461500Y-30532711D01*
X151505437Y-30488774D01*
X151618705Y-30319256D01*
X151696726Y-30130898D01*
X151736500Y-29930939D01*
X151736500Y-29727061D01*
X151696726Y-29527102D01*
X151618705Y-29338744D01*
X151505437Y-29169226D01*
X151361274Y-29025063D01*
X151191756Y-28911795D01*
X151003398Y-28833774D01*
X150803439Y-28794000D01*
X150599561Y-28794000D01*
X150399602Y-28833774D01*
X150211244Y-28911795D01*
X150041726Y-29025063D01*
X149897563Y-29169226D01*
X149784295Y-29338744D01*
X149706274Y-29527102D01*
X149666500Y-29727061D01*
X149666500Y-29930939D01*
X149706274Y-30130898D01*
X149784295Y-30319256D01*
X149897563Y-30488774D01*
X149941500Y-30532711D01*
X149941500Y-30800698D01*
X149929333Y-30799500D01*
X149929322Y-30799500D01*
X149892000Y-30795824D01*
X149854678Y-30799500D01*
X143454711Y-30799500D01*
X143410774Y-30755563D01*
X143259445Y-30654448D01*
X147384954Y-26528940D01*
X147391613Y-26534405D01*
X147545149Y-26616472D01*
X147711745Y-26667008D01*
X147884999Y-26684072D01*
X148710001Y-26684072D01*
X148883255Y-26667008D01*
X149049851Y-26616472D01*
X149203387Y-26534405D01*
X149337962Y-26423962D01*
X149448405Y-26289387D01*
X149530472Y-26135851D01*
X149557727Y-26046000D01*
X150121928Y-26046000D01*
X150134188Y-26170482D01*
X150170498Y-26290180D01*
X150229463Y-26400494D01*
X150308815Y-26497185D01*
X150405506Y-26576537D01*
X150515820Y-26635502D01*
X150635518Y-26671812D01*
X150760000Y-26684072D01*
X151136750Y-26681000D01*
X151295500Y-26522250D01*
X151295500Y-25273000D01*
X151549500Y-25273000D01*
X151549500Y-26522250D01*
X151708250Y-26681000D01*
X152085000Y-26684072D01*
X152209482Y-26671812D01*
X152329180Y-26635502D01*
X152439494Y-26576537D01*
X152536185Y-26497185D01*
X152615537Y-26400494D01*
X152674502Y-26290180D01*
X152710812Y-26170482D01*
X152723072Y-26046000D01*
X152720000Y-25431750D01*
X152561250Y-25273000D01*
X151549500Y-25273000D01*
X151295500Y-25273000D01*
X150283750Y-25273000D01*
X150125000Y-25431750D01*
X150121928Y-26046000D01*
X149557727Y-26046000D01*
X149581008Y-25969255D01*
X149598072Y-25796001D01*
X149598072Y-24495999D01*
X149581008Y-24322745D01*
X149557728Y-24246000D01*
X150121928Y-24246000D01*
X150125000Y-24860250D01*
X150283750Y-25019000D01*
X151295500Y-25019000D01*
X151295500Y-23769750D01*
X151549500Y-23769750D01*
X151549500Y-25019000D01*
X152561250Y-25019000D01*
X152720000Y-24860250D01*
X152723072Y-24246000D01*
X152710812Y-24121518D01*
X152674502Y-24001820D01*
X152615537Y-23891506D01*
X152536185Y-23794815D01*
X152439494Y-23715463D01*
X152329180Y-23656498D01*
X152209482Y-23620188D01*
X152085000Y-23607928D01*
X151708250Y-23611000D01*
X151549500Y-23769750D01*
X151295500Y-23769750D01*
X151136750Y-23611000D01*
X150760000Y-23607928D01*
X150635518Y-23620188D01*
X150515820Y-23656498D01*
X150405506Y-23715463D01*
X150308815Y-23794815D01*
X150229463Y-23891506D01*
X150170498Y-24001820D01*
X150134188Y-24121518D01*
X150121928Y-24246000D01*
X149557728Y-24246000D01*
X149530472Y-24156149D01*
X149448405Y-24002613D01*
X149337962Y-23868038D01*
X149203387Y-23757595D01*
X149049851Y-23675528D01*
X148883255Y-23624992D01*
X148710001Y-23607928D01*
X147884999Y-23607928D01*
X147711745Y-23624992D01*
X147545149Y-23675528D01*
X147391613Y-23757595D01*
X147257038Y-23868038D01*
X147146595Y-24002613D01*
X147064528Y-24156149D01*
X147013992Y-24322745D01*
X147006375Y-24400081D01*
X146986785Y-24423951D01*
X143783000Y-27627736D01*
X143783000Y-27457061D01*
X143743226Y-27257102D01*
X143698436Y-27148971D01*
X143689008Y-27053243D01*
X143638472Y-26886648D01*
X143556405Y-26733112D01*
X143445963Y-26598537D01*
X143311388Y-26488095D01*
X143157852Y-26406028D01*
X142991257Y-26355492D01*
X142818003Y-26338428D01*
X141992997Y-26338428D01*
X141819743Y-26355492D01*
X141653148Y-26406028D01*
X141499612Y-26488095D01*
X141365037Y-26598537D01*
X141254595Y-26733112D01*
X141172528Y-26886648D01*
X141121992Y-27053243D01*
X141104928Y-27226497D01*
X141104928Y-28526503D01*
X141121992Y-28699757D01*
X141172528Y-28866352D01*
X141254595Y-29019888D01*
X141365037Y-29154463D01*
X141499612Y-29264905D01*
X141653148Y-29346972D01*
X141819743Y-29397508D01*
X141992997Y-29414572D01*
X141996165Y-29414572D01*
X140250455Y-31160282D01*
X140216682Y-31187999D01*
X140106088Y-31322758D01*
X140023910Y-31476504D01*
X139993327Y-31577320D01*
X139974609Y-31639026D01*
X139973304Y-31643327D01*
X139960499Y-31773340D01*
X139960499Y-31773347D01*
X139956218Y-31816816D01*
X139960499Y-31860285D01*
X139960499Y-32163523D01*
X139960500Y-33487013D01*
X139960499Y-33487023D01*
X139960499Y-39446231D01*
X139907825Y-39181419D01*
X139777037Y-38865669D01*
X139587163Y-38581502D01*
X139345498Y-38339837D01*
X139061331Y-38149963D01*
X138745581Y-38019175D01*
X138410383Y-37952500D01*
X138068617Y-37952500D01*
X137733419Y-38019175D01*
X137417669Y-38149963D01*
X137133502Y-38339837D01*
X136891837Y-38581502D01*
X136701963Y-38865669D01*
X136571175Y-39181419D01*
X136504500Y-39516617D01*
X136504500Y-39858383D01*
X136571175Y-40193581D01*
X136701963Y-40509331D01*
X136891837Y-40793498D01*
X137133502Y-41035163D01*
X137417669Y-41225037D01*
X137733419Y-41355825D01*
X138068617Y-41422500D01*
X138410383Y-41422500D01*
X138745581Y-41355825D01*
X139061331Y-41225037D01*
X139345498Y-41035163D01*
X139587163Y-40793498D01*
X139777037Y-40509331D01*
X139907825Y-40193581D01*
X139960499Y-39928769D01*
X139960500Y-48607154D01*
X139929002Y-48503320D01*
X139870037Y-48393006D01*
X139790685Y-48296315D01*
X139693994Y-48216963D01*
X139583680Y-48157998D01*
X139463982Y-48121688D01*
X139339500Y-48109428D01*
X137139500Y-48109428D01*
X137015018Y-48121688D01*
X136895320Y-48157998D01*
X136785006Y-48216963D01*
X136688315Y-48296315D01*
X136608963Y-48393006D01*
X136549998Y-48503320D01*
X136513688Y-48623018D01*
X136501428Y-48747500D01*
X136501428Y-48812796D01*
X136499939Y-48812500D01*
X136296061Y-48812500D01*
X136096102Y-48852274D01*
X135907744Y-48930295D01*
X135859546Y-48962500D01*
X135031454Y-48962500D01*
X134983256Y-48930295D01*
X134794898Y-48852274D01*
X134594939Y-48812500D01*
X134391061Y-48812500D01*
X134191102Y-48852274D01*
X134002744Y-48930295D01*
X133954546Y-48962500D01*
X133761454Y-48962500D01*
X133713256Y-48930295D01*
X133524898Y-48852274D01*
X133324939Y-48812500D01*
X133121061Y-48812500D01*
X132921102Y-48852274D01*
X132732744Y-48930295D01*
X132684546Y-48962500D01*
X132364454Y-48962500D01*
X132316256Y-48930295D01*
X132127898Y-48852274D01*
X131927939Y-48812500D01*
X131724061Y-48812500D01*
X131524102Y-48852274D01*
X131335744Y-48930295D01*
X131287546Y-48962500D01*
X131157954Y-48962500D01*
X131109756Y-48930295D01*
X130921398Y-48852274D01*
X130721439Y-48812500D01*
X130517561Y-48812500D01*
X130317602Y-48852274D01*
X130129244Y-48930295D01*
X130081046Y-48962500D01*
X129506954Y-48962500D01*
X129458756Y-48930295D01*
X129270398Y-48852274D01*
X129129810Y-48824309D01*
X129081263Y-48798361D01*
X128914440Y-48747755D01*
X128784427Y-48734950D01*
X128784419Y-48734950D01*
X128740950Y-48730669D01*
X128697481Y-48734950D01*
X127639004Y-48734950D01*
X127590806Y-48702745D01*
X127402448Y-48624724D01*
X127202489Y-48584950D01*
X126998611Y-48584950D01*
X126798652Y-48624724D01*
X126610294Y-48702745D01*
X126562096Y-48734950D01*
X111044572Y-48734950D01*
X111044572Y-46852500D01*
X111032312Y-46728018D01*
X110996002Y-46608320D01*
X110937037Y-46498006D01*
X110857685Y-46401315D01*
X110760994Y-46321963D01*
X110650680Y-46262998D01*
X110530982Y-46226688D01*
X110406500Y-46214428D01*
X107906500Y-46214428D01*
X107782018Y-46226688D01*
X107662320Y-46262998D01*
X107552006Y-46321963D01*
X107455315Y-46401315D01*
X107375963Y-46498006D01*
X107316998Y-46608320D01*
X107280688Y-46728018D01*
X107268428Y-46852500D01*
X107268428Y-49352500D01*
X107280688Y-49476982D01*
X107316998Y-49596680D01*
X107375963Y-49706994D01*
X107455315Y-49803685D01*
X107552006Y-49883037D01*
X107662320Y-49942002D01*
X107782018Y-49978312D01*
X107906500Y-49990572D01*
X109792993Y-49990572D01*
X110017420Y-50214999D01*
X110045133Y-50248767D01*
X110078901Y-50276480D01*
X110078903Y-50276482D01*
X110150402Y-50335160D01*
X110179891Y-50359361D01*
X110333637Y-50441539D01*
X110500460Y-50492145D01*
X110630473Y-50504950D01*
X110630483Y-50504950D01*
X110673949Y-50509231D01*
X110717415Y-50504950D01*
X126562096Y-50504950D01*
X126610294Y-50537155D01*
X126798652Y-50615176D01*
X126998611Y-50654950D01*
X127202489Y-50654950D01*
X127402448Y-50615176D01*
X127590806Y-50537155D01*
X127639004Y-50504950D01*
X128163010Y-50504950D01*
X128164563Y-50507274D01*
X128308726Y-50651437D01*
X128478244Y-50764705D01*
X128666602Y-50842726D01*
X128866561Y-50882500D01*
X129070439Y-50882500D01*
X129270398Y-50842726D01*
X129458756Y-50764705D01*
X129506954Y-50732500D01*
X130081046Y-50732500D01*
X130129244Y-50764705D01*
X130317602Y-50842726D01*
X130517561Y-50882500D01*
X130721439Y-50882500D01*
X130921398Y-50842726D01*
X131109756Y-50764705D01*
X131157954Y-50732500D01*
X131287546Y-50732500D01*
X131335744Y-50764705D01*
X131524102Y-50842726D01*
X131724061Y-50882500D01*
X131927939Y-50882500D01*
X132127898Y-50842726D01*
X132316256Y-50764705D01*
X132364454Y-50732500D01*
X132684546Y-50732500D01*
X132732744Y-50764705D01*
X132921102Y-50842726D01*
X133121061Y-50882500D01*
X133324939Y-50882500D01*
X133524898Y-50842726D01*
X133713256Y-50764705D01*
X133761454Y-50732500D01*
X133954546Y-50732500D01*
X134002744Y-50764705D01*
X134191102Y-50842726D01*
X134391061Y-50882500D01*
X134594939Y-50882500D01*
X134794898Y-50842726D01*
X134983256Y-50764705D01*
X135031454Y-50732500D01*
X135859546Y-50732500D01*
X135907744Y-50764705D01*
X136096102Y-50842726D01*
X136296061Y-50882500D01*
X136499939Y-50882500D01*
X136501428Y-50882204D01*
X136501428Y-50947500D01*
X136513688Y-51071982D01*
X136549998Y-51191680D01*
X136608963Y-51301994D01*
X136688315Y-51398685D01*
X136785006Y-51478037D01*
X136895320Y-51537002D01*
X137015018Y-51573312D01*
X137139500Y-51585572D01*
X139339500Y-51585572D01*
X139463982Y-51573312D01*
X139583680Y-51537002D01*
X139693994Y-51478037D01*
X139790685Y-51398685D01*
X139870037Y-51301994D01*
X139929002Y-51191680D01*
X139960500Y-51087846D01*
X139960500Y-55839020D01*
X139956218Y-55882499D01*
X139973304Y-56055989D01*
X140023911Y-56222812D01*
X140106089Y-56376558D01*
X140188967Y-56477545D01*
X140188970Y-56477548D01*
X140216683Y-56511316D01*
X140250451Y-56539029D01*
X140276428Y-56565006D01*
X140276428Y-56951500D01*
X140288688Y-57075982D01*
X140324998Y-57195680D01*
X140383963Y-57305994D01*
X140463315Y-57402685D01*
X140560006Y-57482037D01*
X140670320Y-57541002D01*
X140790018Y-57577312D01*
X140914500Y-57589572D01*
X141914500Y-57589572D01*
X142038982Y-57577312D01*
X142158680Y-57541002D01*
X142268994Y-57482037D01*
X142365685Y-57402685D01*
X142445037Y-57305994D01*
X142504002Y-57195680D01*
X142540312Y-57075982D01*
X142552572Y-56951500D01*
X142552572Y-55951500D01*
X142540312Y-55827018D01*
X142504002Y-55707320D01*
X142445037Y-55597006D01*
X142365685Y-55500315D01*
X142268994Y-55420963D01*
X142158680Y-55361998D01*
X142038982Y-55325688D01*
X141914500Y-55313428D01*
X141730499Y-55313428D01*
X141730499Y-45173561D01*
X142538500Y-45173561D01*
X142538500Y-45377439D01*
X142578274Y-45577398D01*
X142656295Y-45765756D01*
X142769563Y-45935274D01*
X142776539Y-45942250D01*
X142769563Y-45949226D01*
X142656295Y-46118744D01*
X142578274Y-46307102D01*
X142538500Y-46507061D01*
X142538500Y-46710939D01*
X142578274Y-46910898D01*
X142656295Y-47099256D01*
X142769563Y-47268774D01*
X142913726Y-47412937D01*
X143083244Y-47526205D01*
X143271602Y-47604226D01*
X143471561Y-47644000D01*
X143675439Y-47644000D01*
X143875398Y-47604226D01*
X144063756Y-47526205D01*
X144233274Y-47412937D01*
X144377437Y-47268774D01*
X144490705Y-47099256D01*
X144568726Y-46910898D01*
X144608500Y-46710939D01*
X144608500Y-46507061D01*
X144568726Y-46307102D01*
X144490705Y-46118744D01*
X144377437Y-45949226D01*
X144370461Y-45942250D01*
X144377437Y-45935274D01*
X144490705Y-45765756D01*
X144568726Y-45577398D01*
X144608500Y-45377439D01*
X144608500Y-45173561D01*
X144605704Y-45159500D01*
X155759928Y-45159500D01*
X155772188Y-45283982D01*
X155808498Y-45403680D01*
X155867463Y-45513994D01*
X155946815Y-45610685D01*
X156043506Y-45690037D01*
X156153820Y-45749002D01*
X156273518Y-45785312D01*
X156398000Y-45797572D01*
X156774750Y-45794500D01*
X156933500Y-45635750D01*
X156933500Y-44386500D01*
X157187500Y-44386500D01*
X157187500Y-45635750D01*
X157346250Y-45794500D01*
X157723000Y-45797572D01*
X157847482Y-45785312D01*
X157967180Y-45749002D01*
X158077494Y-45690037D01*
X158174185Y-45610685D01*
X158253537Y-45513994D01*
X158312502Y-45403680D01*
X158348812Y-45283982D01*
X158361072Y-45159500D01*
X158358000Y-44545250D01*
X158199250Y-44386500D01*
X157187500Y-44386500D01*
X156933500Y-44386500D01*
X155921750Y-44386500D01*
X155763000Y-44545250D01*
X155759928Y-45159500D01*
X144605704Y-45159500D01*
X144568726Y-44973602D01*
X144490705Y-44785244D01*
X144377437Y-44615726D01*
X144233274Y-44471563D01*
X144063756Y-44358295D01*
X143875398Y-44280274D01*
X143675439Y-44240500D01*
X143471561Y-44240500D01*
X143271602Y-44280274D01*
X143083244Y-44358295D01*
X142913726Y-44471563D01*
X142769563Y-44615726D01*
X142656295Y-44785244D01*
X142578274Y-44973602D01*
X142538500Y-45173561D01*
X141730499Y-45173561D01*
X141730499Y-43359500D01*
X155759928Y-43359500D01*
X155763000Y-43973750D01*
X155921750Y-44132500D01*
X156933500Y-44132500D01*
X156933500Y-42883250D01*
X157187500Y-42883250D01*
X157187500Y-44132500D01*
X158199250Y-44132500D01*
X158358000Y-43973750D01*
X158361072Y-43359500D01*
X158348812Y-43235018D01*
X158312502Y-43115320D01*
X158253537Y-43005006D01*
X158174185Y-42908315D01*
X158077494Y-42828963D01*
X157967180Y-42769998D01*
X157847482Y-42733688D01*
X157723000Y-42721428D01*
X157346250Y-42724500D01*
X157187500Y-42883250D01*
X156933500Y-42883250D01*
X156774750Y-42724500D01*
X156398000Y-42721428D01*
X156273518Y-42733688D01*
X156153820Y-42769998D01*
X156043506Y-42828963D01*
X155946815Y-42908315D01*
X155867463Y-43005006D01*
X155808498Y-43115320D01*
X155772188Y-43235018D01*
X155759928Y-43359500D01*
X141730499Y-43359500D01*
X141730499Y-41079572D01*
X142295500Y-41079572D01*
X142419982Y-41067312D01*
X142539680Y-41031002D01*
X142649994Y-40972037D01*
X142746685Y-40892685D01*
X142826037Y-40795994D01*
X142885002Y-40685680D01*
X142921312Y-40565982D01*
X142933572Y-40441500D01*
X142933572Y-39441500D01*
X144086428Y-39441500D01*
X144086428Y-40441500D01*
X144098688Y-40565982D01*
X144134998Y-40685680D01*
X144193963Y-40795994D01*
X144273315Y-40892685D01*
X144370006Y-40972037D01*
X144480320Y-41031002D01*
X144600018Y-41067312D01*
X144724500Y-41079572D01*
X145724500Y-41079572D01*
X145848982Y-41067312D01*
X145968680Y-41031002D01*
X146078994Y-40972037D01*
X146175685Y-40892685D01*
X146255037Y-40795994D01*
X146314002Y-40685680D01*
X146350312Y-40565982D01*
X146362572Y-40441500D01*
X146362572Y-39441500D01*
X146350312Y-39317018D01*
X146314002Y-39197320D01*
X146255037Y-39087006D01*
X146175685Y-38990315D01*
X146078994Y-38910963D01*
X145968680Y-38851998D01*
X145848982Y-38815688D01*
X145724500Y-38803428D01*
X144724500Y-38803428D01*
X144600018Y-38815688D01*
X144480320Y-38851998D01*
X144370006Y-38910963D01*
X144273315Y-38990315D01*
X144193963Y-39087006D01*
X144134998Y-39197320D01*
X144098688Y-39317018D01*
X144086428Y-39441500D01*
X142933572Y-39441500D01*
X142921312Y-39317018D01*
X142885002Y-39197320D01*
X142826037Y-39087006D01*
X142746685Y-38990315D01*
X142649994Y-38910963D01*
X142539680Y-38851998D01*
X142419982Y-38815688D01*
X142295500Y-38803428D01*
X141730499Y-38803428D01*
X141730499Y-37402851D01*
X141732018Y-37403312D01*
X141856500Y-37415572D01*
X142233250Y-37412500D01*
X142392000Y-37253750D01*
X142392000Y-36004500D01*
X142646000Y-36004500D01*
X142646000Y-37253750D01*
X142804750Y-37412500D01*
X143181500Y-37415572D01*
X143305982Y-37403312D01*
X143425680Y-37367002D01*
X143535994Y-37308037D01*
X143632685Y-37228685D01*
X143712037Y-37131994D01*
X143771002Y-37021680D01*
X143807312Y-36901982D01*
X143819572Y-36777500D01*
X143816500Y-36163250D01*
X143657750Y-36004500D01*
X142646000Y-36004500D01*
X142392000Y-36004500D01*
X142372000Y-36004500D01*
X142372000Y-35750500D01*
X142392000Y-35750500D01*
X142392000Y-34501250D01*
X142646000Y-34501250D01*
X142646000Y-35750500D01*
X143657750Y-35750500D01*
X143816500Y-35591750D01*
X143819572Y-34977500D01*
X143807312Y-34853018D01*
X143771002Y-34733320D01*
X143712037Y-34623006D01*
X143632685Y-34526315D01*
X143535994Y-34446963D01*
X143425680Y-34387998D01*
X143305982Y-34351688D01*
X143181500Y-34339428D01*
X142804750Y-34342500D01*
X142646000Y-34501250D01*
X142392000Y-34501250D01*
X142233250Y-34342500D01*
X141856500Y-34339428D01*
X141732018Y-34351688D01*
X141730499Y-34352149D01*
X141730499Y-33019413D01*
X141752774Y-33131398D01*
X141830795Y-33319756D01*
X141944063Y-33489274D01*
X142088226Y-33633437D01*
X142257744Y-33746705D01*
X142446102Y-33824726D01*
X142646061Y-33864500D01*
X142849939Y-33864500D01*
X143049898Y-33824726D01*
X143238256Y-33746705D01*
X143286454Y-33714500D01*
X143587922Y-33714500D01*
X144544678Y-34671257D01*
X144493095Y-34734112D01*
X144411028Y-34887648D01*
X144360492Y-35054243D01*
X144343428Y-35227497D01*
X144343428Y-36527503D01*
X144360492Y-36700757D01*
X144411028Y-36867352D01*
X144493095Y-37020888D01*
X144603537Y-37155463D01*
X144738112Y-37265905D01*
X144891648Y-37347972D01*
X145058243Y-37398508D01*
X145231497Y-37415572D01*
X146056503Y-37415572D01*
X146229757Y-37398508D01*
X146396352Y-37347972D01*
X146549888Y-37265905D01*
X146684463Y-37155463D01*
X146794905Y-37020888D01*
X146857115Y-36904500D01*
X150895428Y-36904500D01*
X150907688Y-37028982D01*
X150943998Y-37148680D01*
X151002963Y-37258994D01*
X151082315Y-37355685D01*
X151179006Y-37435037D01*
X151289320Y-37494002D01*
X151409018Y-37530312D01*
X151533500Y-37542572D01*
X151910250Y-37539500D01*
X152069000Y-37380750D01*
X152069000Y-36131500D01*
X152323000Y-36131500D01*
X152323000Y-37380750D01*
X152481750Y-37539500D01*
X152858500Y-37542572D01*
X152982982Y-37530312D01*
X153102680Y-37494002D01*
X153212994Y-37435037D01*
X153309685Y-37355685D01*
X153389037Y-37258994D01*
X153448002Y-37148680D01*
X153484312Y-37028982D01*
X153496572Y-36904500D01*
X153493500Y-36290250D01*
X153334750Y-36131500D01*
X152323000Y-36131500D01*
X152069000Y-36131500D01*
X151057250Y-36131500D01*
X150898500Y-36290250D01*
X150895428Y-36904500D01*
X146857115Y-36904500D01*
X146876972Y-36867352D01*
X146927508Y-36700757D01*
X146944572Y-36527503D01*
X146944572Y-35227497D01*
X146932458Y-35104500D01*
X150895428Y-35104500D01*
X150898500Y-35718750D01*
X151057250Y-35877500D01*
X152069000Y-35877500D01*
X152069000Y-34628250D01*
X152323000Y-34628250D01*
X152323000Y-35877500D01*
X153334750Y-35877500D01*
X153493500Y-35718750D01*
X153496572Y-35104500D01*
X153484312Y-34980018D01*
X153448002Y-34860320D01*
X153389037Y-34750006D01*
X153309685Y-34653315D01*
X153212994Y-34573963D01*
X153102680Y-34514998D01*
X152982982Y-34478688D01*
X152858500Y-34466428D01*
X152481750Y-34469500D01*
X152323000Y-34628250D01*
X152069000Y-34628250D01*
X151910250Y-34469500D01*
X151533500Y-34466428D01*
X151409018Y-34478688D01*
X151289320Y-34514998D01*
X151179006Y-34573963D01*
X151082315Y-34653315D01*
X151002963Y-34750006D01*
X150943998Y-34860320D01*
X150907688Y-34980018D01*
X150895428Y-35104500D01*
X146932458Y-35104500D01*
X146927508Y-35054243D01*
X146876972Y-34887648D01*
X146794905Y-34734112D01*
X146684463Y-34599537D01*
X146549888Y-34489095D01*
X146529249Y-34478063D01*
X146529000Y-34475531D01*
X146529000Y-34475523D01*
X146516195Y-34345510D01*
X146465589Y-34178687D01*
X146383411Y-34024941D01*
X146342425Y-33975000D01*
X146300532Y-33923953D01*
X146300530Y-33923951D01*
X146272817Y-33890183D01*
X146239050Y-33862471D01*
X144696078Y-32319500D01*
X146839417Y-32319500D01*
X146783795Y-32402744D01*
X146705774Y-32591102D01*
X146666000Y-32791061D01*
X146666000Y-32994939D01*
X146705774Y-33194898D01*
X146783795Y-33383256D01*
X146897063Y-33552774D01*
X147041226Y-33696937D01*
X147210744Y-33810205D01*
X147399102Y-33888226D01*
X147599061Y-33928000D01*
X147802939Y-33928000D01*
X148002898Y-33888226D01*
X148191256Y-33810205D01*
X148360774Y-33696937D01*
X148504937Y-33552774D01*
X148618205Y-33383256D01*
X148696226Y-33194898D01*
X148736000Y-32994939D01*
X148736000Y-32791061D01*
X148696226Y-32591102D01*
X148618205Y-32402744D01*
X148562583Y-32319500D01*
X149415928Y-32319500D01*
X149415928Y-32771501D01*
X149432992Y-32944755D01*
X149483528Y-33111351D01*
X149565595Y-33264887D01*
X149676038Y-33399462D01*
X149810613Y-33509905D01*
X149964149Y-33591972D01*
X150130745Y-33642508D01*
X150303999Y-33659572D01*
X151004001Y-33659572D01*
X151177255Y-33642508D01*
X151343851Y-33591972D01*
X151497387Y-33509905D01*
X151631962Y-33399462D01*
X151654000Y-33372609D01*
X151676038Y-33399462D01*
X151810613Y-33509905D01*
X151964149Y-33591972D01*
X152130745Y-33642508D01*
X152303999Y-33659572D01*
X153004001Y-33659572D01*
X153177255Y-33642508D01*
X153343851Y-33591972D01*
X153497387Y-33509905D01*
X153631962Y-33399462D01*
X153742405Y-33264887D01*
X153824472Y-33111351D01*
X153833527Y-33081500D01*
X154303454Y-33081500D01*
X154353963Y-33175994D01*
X154433315Y-33272685D01*
X154530006Y-33352037D01*
X154624500Y-33402546D01*
X154624501Y-34517085D01*
X154568648Y-34534028D01*
X154415112Y-34616095D01*
X154280537Y-34726537D01*
X154170095Y-34861112D01*
X154088028Y-35014648D01*
X154037492Y-35181243D01*
X154020428Y-35354497D01*
X154020428Y-36654503D01*
X154037492Y-36827757D01*
X154088028Y-36994352D01*
X154170095Y-37147888D01*
X154280537Y-37282463D01*
X154415112Y-37392905D01*
X154561001Y-37470884D01*
X154561001Y-37999168D01*
X154557324Y-38036500D01*
X154571998Y-38185485D01*
X154615454Y-38328746D01*
X154686026Y-38460776D01*
X154720739Y-38503073D01*
X154781000Y-38576501D01*
X154809998Y-38600299D01*
X158400569Y-42190870D01*
X158369732Y-68340000D01*
X104660000Y-68340000D01*
X104660000Y-65279872D01*
X105265000Y-65279872D01*
X105265000Y-65720128D01*
X105350890Y-66151925D01*
X105519369Y-66558669D01*
X105763962Y-66924729D01*
X106075271Y-67236038D01*
X106441331Y-67480631D01*
X106848075Y-67649110D01*
X107279872Y-67735000D01*
X107720128Y-67735000D01*
X108151925Y-67649110D01*
X108558669Y-67480631D01*
X108593287Y-67457500D01*
X120372428Y-67457500D01*
X120384688Y-67581982D01*
X120420998Y-67701680D01*
X120479963Y-67811994D01*
X120559315Y-67908685D01*
X120656006Y-67988037D01*
X120766320Y-68047002D01*
X120886018Y-68083312D01*
X121010500Y-68095572D01*
X121824750Y-68092500D01*
X121983500Y-67933750D01*
X121983500Y-66484500D01*
X122237500Y-66484500D01*
X122237500Y-67933750D01*
X122396250Y-68092500D01*
X123210500Y-68095572D01*
X123334982Y-68083312D01*
X123454680Y-68047002D01*
X123564994Y-67988037D01*
X123661685Y-67908685D01*
X123741037Y-67811994D01*
X123800002Y-67701680D01*
X123836312Y-67581982D01*
X123848572Y-67457500D01*
X123845500Y-66643250D01*
X123686750Y-66484500D01*
X122237500Y-66484500D01*
X121983500Y-66484500D01*
X120534250Y-66484500D01*
X120375500Y-66643250D01*
X120372428Y-67457500D01*
X108593287Y-67457500D01*
X108924729Y-67236038D01*
X109236038Y-66924729D01*
X109480631Y-66558669D01*
X109649110Y-66151925D01*
X109735000Y-65720128D01*
X109735000Y-65279872D01*
X109730550Y-65257500D01*
X120372428Y-65257500D01*
X120375500Y-66071750D01*
X120534250Y-66230500D01*
X121983500Y-66230500D01*
X121983500Y-64781250D01*
X122237500Y-64781250D01*
X122237500Y-66230500D01*
X123686750Y-66230500D01*
X123730633Y-66186617D01*
X130535500Y-66186617D01*
X130535500Y-66528383D01*
X130602175Y-66863581D01*
X130732963Y-67179331D01*
X130922837Y-67463498D01*
X131164502Y-67705163D01*
X131448669Y-67895037D01*
X131764419Y-68025825D01*
X132099617Y-68092500D01*
X132441383Y-68092500D01*
X132776581Y-68025825D01*
X133092331Y-67895037D01*
X133376498Y-67705163D01*
X133618163Y-67463498D01*
X133808037Y-67179331D01*
X133938825Y-66863581D01*
X134005500Y-66528383D01*
X134005500Y-66186617D01*
X133938825Y-65851419D01*
X133808037Y-65535669D01*
X133622171Y-65257500D01*
X135612428Y-65257500D01*
X135612428Y-67457500D01*
X135624688Y-67581982D01*
X135660998Y-67701680D01*
X135719963Y-67811994D01*
X135799315Y-67908685D01*
X135896006Y-67988037D01*
X136006320Y-68047002D01*
X136126018Y-68083312D01*
X136250500Y-68095572D01*
X138450500Y-68095572D01*
X138574982Y-68083312D01*
X138694680Y-68047002D01*
X138804994Y-67988037D01*
X138901685Y-67908685D01*
X138981037Y-67811994D01*
X139040002Y-67701680D01*
X139076312Y-67581982D01*
X139088572Y-67457500D01*
X139088572Y-65257500D01*
X139076312Y-65133018D01*
X139040002Y-65013320D01*
X138981037Y-64903006D01*
X138901685Y-64806315D01*
X138804994Y-64726963D01*
X138694680Y-64667998D01*
X138574982Y-64631688D01*
X138450500Y-64619428D01*
X136250500Y-64619428D01*
X136126018Y-64631688D01*
X136006320Y-64667998D01*
X135896006Y-64726963D01*
X135799315Y-64806315D01*
X135719963Y-64903006D01*
X135660998Y-65013320D01*
X135624688Y-65133018D01*
X135612428Y-65257500D01*
X133622171Y-65257500D01*
X133618163Y-65251502D01*
X133376498Y-65009837D01*
X133092331Y-64819963D01*
X132776581Y-64689175D01*
X132441383Y-64622500D01*
X132099617Y-64622500D01*
X131764419Y-64689175D01*
X131448669Y-64819963D01*
X131164502Y-65009837D01*
X130922837Y-65251502D01*
X130732963Y-65535669D01*
X130602175Y-65851419D01*
X130535500Y-66186617D01*
X123730633Y-66186617D01*
X123845500Y-66071750D01*
X123848572Y-65257500D01*
X123836312Y-65133018D01*
X123800002Y-65013320D01*
X123741037Y-64903006D01*
X123661685Y-64806315D01*
X123564994Y-64726963D01*
X123454680Y-64667998D01*
X123334982Y-64631688D01*
X123210500Y-64619428D01*
X122396250Y-64622500D01*
X122237500Y-64781250D01*
X121983500Y-64781250D01*
X121824750Y-64622500D01*
X121010500Y-64619428D01*
X120886018Y-64631688D01*
X120766320Y-64667998D01*
X120656006Y-64726963D01*
X120559315Y-64806315D01*
X120479963Y-64903006D01*
X120420998Y-65013320D01*
X120384688Y-65133018D01*
X120372428Y-65257500D01*
X109730550Y-65257500D01*
X109649110Y-64848075D01*
X109480631Y-64441331D01*
X109236038Y-64075271D01*
X108924729Y-63763962D01*
X108558669Y-63519369D01*
X108151925Y-63350890D01*
X107720128Y-63265000D01*
X107279872Y-63265000D01*
X106848075Y-63350890D01*
X106441331Y-63519369D01*
X106075271Y-63763962D01*
X105763962Y-64075271D01*
X105519369Y-64441331D01*
X105350890Y-64848075D01*
X105265000Y-65279872D01*
X104660000Y-65279872D01*
X104660000Y-57916844D01*
X107271500Y-57916844D01*
X107271500Y-58288156D01*
X107343939Y-58652334D01*
X107486034Y-58995382D01*
X107692325Y-59304118D01*
X107954882Y-59566675D01*
X108263618Y-59772966D01*
X108606666Y-59915061D01*
X108970844Y-59987500D01*
X109342156Y-59987500D01*
X109706334Y-59915061D01*
X110049382Y-59772966D01*
X110358118Y-59566675D01*
X110620675Y-59304118D01*
X110826966Y-58995382D01*
X110830231Y-58987500D01*
X125672478Y-58987500D01*
X125776563Y-59143274D01*
X125920726Y-59287437D01*
X126090244Y-59400705D01*
X126278602Y-59478726D01*
X126478561Y-59518500D01*
X126682439Y-59518500D01*
X126882398Y-59478726D01*
X127070756Y-59400705D01*
X127118954Y-59368500D01*
X127604546Y-59368500D01*
X127652744Y-59400705D01*
X127841102Y-59478726D01*
X128041061Y-59518500D01*
X128244939Y-59518500D01*
X128444898Y-59478726D01*
X128633256Y-59400705D01*
X128681454Y-59368500D01*
X128938046Y-59368500D01*
X128986244Y-59400705D01*
X129174602Y-59478726D01*
X129374561Y-59518500D01*
X129578439Y-59518500D01*
X129778398Y-59478726D01*
X129966756Y-59400705D01*
X130014954Y-59368500D01*
X130335046Y-59368500D01*
X130383244Y-59400705D01*
X130571602Y-59478726D01*
X130771561Y-59518500D01*
X130975439Y-59518500D01*
X131175398Y-59478726D01*
X131286250Y-59432809D01*
X131397102Y-59478726D01*
X131597061Y-59518500D01*
X131800939Y-59518500D01*
X131833212Y-59512081D01*
X131842805Y-59609490D01*
X131893412Y-59776313D01*
X131975590Y-59930059D01*
X132024100Y-59989169D01*
X132037274Y-60055398D01*
X132115295Y-60243756D01*
X132228563Y-60413274D01*
X132372726Y-60557437D01*
X132542244Y-60670705D01*
X132730602Y-60748726D01*
X132930561Y-60788500D01*
X133134439Y-60788500D01*
X133334398Y-60748726D01*
X133522756Y-60670705D01*
X133692274Y-60557437D01*
X133836437Y-60413274D01*
X133949705Y-60243756D01*
X134027726Y-60055398D01*
X134067500Y-59855439D01*
X134067500Y-59651561D01*
X134027726Y-59451602D01*
X133974975Y-59324250D01*
X135065281Y-59324250D01*
X135108750Y-59328531D01*
X135152219Y-59324250D01*
X135152227Y-59324250D01*
X135282240Y-59311445D01*
X135449063Y-59260839D01*
X135602809Y-59178661D01*
X135737567Y-59068067D01*
X135765284Y-59034294D01*
X136918932Y-57880647D01*
X137179617Y-57932500D01*
X137521383Y-57932500D01*
X137856581Y-57865825D01*
X138172331Y-57735037D01*
X138456498Y-57545163D01*
X138698163Y-57303498D01*
X138888037Y-57019331D01*
X139018825Y-56703581D01*
X139085500Y-56368383D01*
X139085500Y-56026617D01*
X139018825Y-55691419D01*
X138888037Y-55375669D01*
X138698163Y-55091502D01*
X138456498Y-54849837D01*
X138172331Y-54659963D01*
X137856581Y-54529175D01*
X137521383Y-54462500D01*
X137179617Y-54462500D01*
X136844419Y-54529175D01*
X136528669Y-54659963D01*
X136244502Y-54849837D01*
X136002837Y-55091502D01*
X135812963Y-55375669D01*
X135682175Y-55691419D01*
X135615500Y-56026617D01*
X135615500Y-56368383D01*
X135667353Y-56629068D01*
X134742172Y-57554250D01*
X133715129Y-57554250D01*
X133750000Y-57378939D01*
X133750000Y-57175061D01*
X133710226Y-56975102D01*
X133632205Y-56786744D01*
X133518937Y-56617226D01*
X133374774Y-56473063D01*
X133205256Y-56359795D01*
X133016898Y-56281774D01*
X132816939Y-56242000D01*
X132613061Y-56242000D01*
X132413102Y-56281774D01*
X132224744Y-56359795D01*
X132055226Y-56473063D01*
X131911063Y-56617226D01*
X131797795Y-56786744D01*
X131719774Y-56975102D01*
X131680000Y-57175061D01*
X131680000Y-57378939D01*
X131693836Y-57448500D01*
X131597061Y-57448500D01*
X131397102Y-57488274D01*
X131286250Y-57534191D01*
X131175398Y-57488274D01*
X130975439Y-57448500D01*
X130771561Y-57448500D01*
X130571602Y-57488274D01*
X130383244Y-57566295D01*
X130335046Y-57598500D01*
X130014954Y-57598500D01*
X129966756Y-57566295D01*
X129778398Y-57488274D01*
X129578439Y-57448500D01*
X129374561Y-57448500D01*
X129174602Y-57488274D01*
X128986244Y-57566295D01*
X128938046Y-57598500D01*
X128681454Y-57598500D01*
X128633256Y-57566295D01*
X128444898Y-57488274D01*
X128244939Y-57448500D01*
X128041061Y-57448500D01*
X127841102Y-57488274D01*
X127652744Y-57566295D01*
X127604546Y-57598500D01*
X127118954Y-57598500D01*
X127070756Y-57566295D01*
X126882398Y-57488274D01*
X126832077Y-57478265D01*
X126828317Y-57473683D01*
X126693559Y-57363089D01*
X126539813Y-57280911D01*
X126372990Y-57230305D01*
X126242977Y-57217500D01*
X126242969Y-57217500D01*
X126199500Y-57213219D01*
X126156031Y-57217500D01*
X110830231Y-57217500D01*
X110826966Y-57209618D01*
X110620675Y-56900882D01*
X110358118Y-56638325D01*
X110049382Y-56432034D01*
X109706334Y-56289939D01*
X109342156Y-56217500D01*
X108970844Y-56217500D01*
X108606666Y-56289939D01*
X108263618Y-56432034D01*
X107954882Y-56638325D01*
X107692325Y-56900882D01*
X107486034Y-57209618D01*
X107343939Y-57552666D01*
X107271500Y-57916844D01*
X104660000Y-57916844D01*
X104660000Y-54416105D01*
X108022500Y-54416105D01*
X108148414Y-54706077D01*
X108480626Y-54871933D01*
X108838812Y-54969790D01*
X109209206Y-54995889D01*
X109577575Y-54949225D01*
X109929762Y-54831594D01*
X110164586Y-54706077D01*
X110290500Y-54416105D01*
X109156500Y-53282105D01*
X108022500Y-54416105D01*
X104660000Y-54416105D01*
X104660000Y-53155206D01*
X107263111Y-53155206D01*
X107309775Y-53523575D01*
X107427406Y-53875762D01*
X107552923Y-54110586D01*
X107842895Y-54236500D01*
X108976895Y-53102500D01*
X109336105Y-53102500D01*
X110470105Y-54236500D01*
X110760077Y-54110586D01*
X110925933Y-53778374D01*
X111023790Y-53420188D01*
X111049889Y-53049794D01*
X111003225Y-52681425D01*
X110885594Y-52329238D01*
X110760077Y-52094414D01*
X110470105Y-51968500D01*
X109336105Y-53102500D01*
X108976895Y-53102500D01*
X107842895Y-51968500D01*
X107552923Y-52094414D01*
X107387067Y-52426626D01*
X107289210Y-52784812D01*
X107263111Y-53155206D01*
X104660000Y-53155206D01*
X104660000Y-51788895D01*
X108022500Y-51788895D01*
X109156500Y-52922895D01*
X110290500Y-51788895D01*
X110164586Y-51498923D01*
X109832374Y-51333067D01*
X109474188Y-51235210D01*
X109103794Y-51209111D01*
X108735425Y-51255775D01*
X108383238Y-51373406D01*
X108148414Y-51498923D01*
X108022500Y-51788895D01*
X104660000Y-51788895D01*
X104660000Y-38160500D01*
X109658428Y-38160500D01*
X109658428Y-40960500D01*
X109670688Y-41084982D01*
X109706998Y-41204680D01*
X109765963Y-41314994D01*
X109845315Y-41411685D01*
X109942006Y-41491037D01*
X110052320Y-41550002D01*
X110172018Y-41586312D01*
X110296500Y-41598572D01*
X113096500Y-41598572D01*
X113220982Y-41586312D01*
X113340680Y-41550002D01*
X113450994Y-41491037D01*
X113547685Y-41411685D01*
X113627037Y-41314994D01*
X113686002Y-41204680D01*
X113722312Y-41084982D01*
X113734572Y-40960500D01*
X113734572Y-40083622D01*
X121310325Y-40083622D01*
X121374925Y-40296594D01*
X121524969Y-40601829D01*
X121731678Y-40871927D01*
X121987109Y-41096508D01*
X122281446Y-41266942D01*
X122603377Y-41376679D01*
X122872500Y-41259100D01*
X122872500Y-39814500D01*
X123126500Y-39814500D01*
X123126500Y-41259100D01*
X123395623Y-41376679D01*
X123717554Y-41266942D01*
X124011891Y-41096508D01*
X124267322Y-40871927D01*
X124474031Y-40601829D01*
X124624075Y-40296594D01*
X124688675Y-40083622D01*
X124570625Y-39814500D01*
X123126500Y-39814500D01*
X122872500Y-39814500D01*
X121428375Y-39814500D01*
X121310325Y-40083622D01*
X113734572Y-40083622D01*
X113734572Y-39291378D01*
X121310325Y-39291378D01*
X121428375Y-39560500D01*
X122872500Y-39560500D01*
X122872500Y-38115900D01*
X123126500Y-38115900D01*
X123126500Y-39560500D01*
X124570625Y-39560500D01*
X124688675Y-39291378D01*
X124624075Y-39078406D01*
X124474031Y-38773171D01*
X124267322Y-38503073D01*
X124011891Y-38278492D01*
X123717554Y-38108058D01*
X123395623Y-37998321D01*
X123126500Y-38115900D01*
X122872500Y-38115900D01*
X122603377Y-37998321D01*
X122281446Y-38108058D01*
X121987109Y-38278492D01*
X121731678Y-38503073D01*
X121524969Y-38773171D01*
X121374925Y-39078406D01*
X121310325Y-39291378D01*
X113734572Y-39291378D01*
X113734572Y-38160500D01*
X113722312Y-38036018D01*
X113686002Y-37916320D01*
X113627037Y-37806006D01*
X113547685Y-37709315D01*
X113450994Y-37629963D01*
X113340680Y-37570998D01*
X113220982Y-37534688D01*
X113096500Y-37522428D01*
X110296500Y-37522428D01*
X110172018Y-37534688D01*
X110052320Y-37570998D01*
X109942006Y-37629963D01*
X109845315Y-37709315D01*
X109765963Y-37806006D01*
X109706998Y-37916320D01*
X109670688Y-38036018D01*
X109658428Y-38160500D01*
X104660000Y-38160500D01*
X104660000Y-34360070D01*
X109661500Y-34360070D01*
X109661500Y-34760930D01*
X109739704Y-35154087D01*
X109893107Y-35524434D01*
X110115813Y-35857737D01*
X110399263Y-36141187D01*
X110732566Y-36363893D01*
X111102913Y-36517296D01*
X111496070Y-36595500D01*
X111896930Y-36595500D01*
X112290087Y-36517296D01*
X112660434Y-36363893D01*
X112993737Y-36141187D01*
X113277187Y-35857737D01*
X113499893Y-35524434D01*
X113534452Y-35441000D01*
X126496928Y-35441000D01*
X126496928Y-36441000D01*
X126509188Y-36565482D01*
X126545498Y-36685180D01*
X126604463Y-36795494D01*
X126683815Y-36892185D01*
X126750001Y-36946502D01*
X126750000Y-39517031D01*
X126745719Y-39560500D01*
X126750000Y-39603969D01*
X126750000Y-39603976D01*
X126762805Y-39733989D01*
X126813411Y-39900812D01*
X126895589Y-40054558D01*
X127006183Y-40189317D01*
X127039956Y-40217034D01*
X130026470Y-43203549D01*
X130054183Y-43237317D01*
X130087951Y-43265030D01*
X130087953Y-43265032D01*
X130100404Y-43275250D01*
X130188941Y-43347911D01*
X130342687Y-43430089D01*
X130458903Y-43465343D01*
X130509509Y-43480695D01*
X130524306Y-43482152D01*
X130639523Y-43493500D01*
X130639531Y-43493500D01*
X130683000Y-43497781D01*
X130726469Y-43493500D01*
X135415046Y-43493500D01*
X135463244Y-43525705D01*
X135632809Y-43595941D01*
X135703045Y-43765506D01*
X135816313Y-43935024D01*
X135960476Y-44079187D01*
X136129994Y-44192455D01*
X136209756Y-44225494D01*
X136242795Y-44305256D01*
X136356063Y-44474774D01*
X136500226Y-44618937D01*
X136669744Y-44732205D01*
X136858102Y-44810226D01*
X137058061Y-44850000D01*
X137261939Y-44850000D01*
X137461898Y-44810226D01*
X137650256Y-44732205D01*
X137819774Y-44618937D01*
X137963937Y-44474774D01*
X138077205Y-44305256D01*
X138155226Y-44116898D01*
X138195000Y-43916939D01*
X138195000Y-43713061D01*
X138155226Y-43513102D01*
X138077205Y-43324744D01*
X137963937Y-43155226D01*
X137819774Y-43011063D01*
X137650256Y-42897795D01*
X137570494Y-42864756D01*
X137537455Y-42784994D01*
X137424187Y-42615476D01*
X137280024Y-42471313D01*
X137110506Y-42358045D01*
X136940941Y-42287809D01*
X136870705Y-42118244D01*
X136757437Y-41948726D01*
X136613274Y-41804563D01*
X136443756Y-41691295D01*
X136255398Y-41613274D01*
X136055439Y-41573500D01*
X135851561Y-41573500D01*
X135651602Y-41613274D01*
X135463244Y-41691295D01*
X135415046Y-41723500D01*
X131049579Y-41723500D01*
X128520000Y-39193922D01*
X128520000Y-38587500D01*
X131421428Y-38587500D01*
X131421428Y-40787500D01*
X131433688Y-40911982D01*
X131469998Y-41031680D01*
X131528963Y-41141994D01*
X131608315Y-41238685D01*
X131705006Y-41318037D01*
X131815320Y-41377002D01*
X131935018Y-41413312D01*
X132059500Y-41425572D01*
X134259500Y-41425572D01*
X134383982Y-41413312D01*
X134503680Y-41377002D01*
X134613994Y-41318037D01*
X134710685Y-41238685D01*
X134790037Y-41141994D01*
X134849002Y-41031680D01*
X134885312Y-40911982D01*
X134897572Y-40787500D01*
X134897572Y-38587500D01*
X134885312Y-38463018D01*
X134849002Y-38343320D01*
X134790037Y-38233006D01*
X134710685Y-38136315D01*
X134613994Y-38056963D01*
X134503680Y-37997998D01*
X134383982Y-37961688D01*
X134259500Y-37949428D01*
X132059500Y-37949428D01*
X131935018Y-37961688D01*
X131815320Y-37997998D01*
X131705006Y-38056963D01*
X131608315Y-38136315D01*
X131528963Y-38233006D01*
X131469998Y-38343320D01*
X131433688Y-38463018D01*
X131421428Y-38587500D01*
X128520000Y-38587500D01*
X128520000Y-36946501D01*
X128586185Y-36892185D01*
X128665537Y-36795494D01*
X128724502Y-36685180D01*
X128760812Y-36565482D01*
X128773072Y-36441000D01*
X128773072Y-35441000D01*
X128760812Y-35316518D01*
X128724502Y-35196820D01*
X128665537Y-35086506D01*
X128586185Y-34989815D01*
X128489494Y-34910463D01*
X128379180Y-34851498D01*
X128259482Y-34815188D01*
X128135000Y-34802928D01*
X127135000Y-34802928D01*
X127010518Y-34815188D01*
X126890820Y-34851498D01*
X126780506Y-34910463D01*
X126683815Y-34989815D01*
X126604463Y-35086506D01*
X126545498Y-35196820D01*
X126509188Y-35316518D01*
X126496928Y-35441000D01*
X113534452Y-35441000D01*
X113653296Y-35154087D01*
X113731500Y-34760930D01*
X113731500Y-34360070D01*
X113653296Y-33966913D01*
X113587084Y-33807061D01*
X117138500Y-33807061D01*
X117138500Y-34010939D01*
X117178274Y-34210898D01*
X117256295Y-34399256D01*
X117369563Y-34568774D01*
X117513726Y-34712937D01*
X117683244Y-34826205D01*
X117871602Y-34904226D01*
X118071561Y-34944000D01*
X118275439Y-34944000D01*
X118475398Y-34904226D01*
X118663756Y-34826205D01*
X118800254Y-34735000D01*
X121846969Y-34735000D01*
X121890906Y-34778937D01*
X122060424Y-34892205D01*
X122248782Y-34970226D01*
X122448741Y-35010000D01*
X122652619Y-35010000D01*
X122852578Y-34970226D01*
X123040936Y-34892205D01*
X123210454Y-34778937D01*
X123354617Y-34634774D01*
X123467885Y-34465256D01*
X123545906Y-34276898D01*
X123585680Y-34076939D01*
X123585680Y-33873061D01*
X123545906Y-33673102D01*
X123467885Y-33484744D01*
X123354617Y-33315226D01*
X123210454Y-33171063D01*
X123040936Y-33057795D01*
X122852578Y-32979774D01*
X122652619Y-32940000D01*
X122448741Y-32940000D01*
X122248782Y-32979774D01*
X122060424Y-33057795D01*
X121890906Y-33171063D01*
X121846969Y-33215000D01*
X118943211Y-33215000D01*
X118833274Y-33105063D01*
X118663756Y-32991795D01*
X118475398Y-32913774D01*
X118275439Y-32874000D01*
X118071561Y-32874000D01*
X117871602Y-32913774D01*
X117683244Y-32991795D01*
X117513726Y-33105063D01*
X117369563Y-33249226D01*
X117256295Y-33418744D01*
X117178274Y-33607102D01*
X117138500Y-33807061D01*
X113587084Y-33807061D01*
X113499893Y-33596566D01*
X113277187Y-33263263D01*
X112993737Y-32979813D01*
X112660434Y-32757107D01*
X112290087Y-32603704D01*
X111896930Y-32525500D01*
X111496070Y-32525500D01*
X111102913Y-32603704D01*
X110732566Y-32757107D01*
X110399263Y-32979813D01*
X110115813Y-33263263D01*
X109893107Y-33596566D01*
X109739704Y-33966913D01*
X109661500Y-34360070D01*
X104660000Y-34360070D01*
X104660000Y-25100531D01*
X114525074Y-25100531D01*
X114635921Y-25377714D01*
X114946840Y-25531089D01*
X115281705Y-25620860D01*
X115627650Y-25643576D01*
X115971380Y-25598366D01*
X116299685Y-25486966D01*
X116504079Y-25377714D01*
X116614926Y-25100531D01*
X119605074Y-25100531D01*
X119715921Y-25377714D01*
X120026840Y-25531089D01*
X120361705Y-25620860D01*
X120707650Y-25643576D01*
X121051380Y-25598366D01*
X121379685Y-25486966D01*
X121584079Y-25377714D01*
X121694926Y-25100531D01*
X120650000Y-24055605D01*
X119605074Y-25100531D01*
X116614926Y-25100531D01*
X115570000Y-24055605D01*
X114525074Y-25100531D01*
X104660000Y-25100531D01*
X104660000Y-23933650D01*
X113802424Y-23933650D01*
X113847634Y-24277380D01*
X113959034Y-24605685D01*
X114068286Y-24810079D01*
X114345469Y-24920926D01*
X115390395Y-23876000D01*
X115749605Y-23876000D01*
X116794531Y-24920926D01*
X117071714Y-24810079D01*
X117225089Y-24499160D01*
X117314860Y-24164295D01*
X117330004Y-23933650D01*
X118882424Y-23933650D01*
X118927634Y-24277380D01*
X119039034Y-24605685D01*
X119148286Y-24810079D01*
X119425469Y-24920926D01*
X120470395Y-23876000D01*
X120829605Y-23876000D01*
X121874531Y-24920926D01*
X122151714Y-24810079D01*
X122305089Y-24499160D01*
X122394860Y-24164295D01*
X122417576Y-23818350D01*
X122372366Y-23474620D01*
X122260966Y-23146315D01*
X122151714Y-22941921D01*
X121874531Y-22831074D01*
X120829605Y-23876000D01*
X120470395Y-23876000D01*
X119425469Y-22831074D01*
X119148286Y-22941921D01*
X118994911Y-23252840D01*
X118905140Y-23587705D01*
X118882424Y-23933650D01*
X117330004Y-23933650D01*
X117337576Y-23818350D01*
X117292366Y-23474620D01*
X117180966Y-23146315D01*
X117071714Y-22941921D01*
X116794531Y-22831074D01*
X115749605Y-23876000D01*
X115390395Y-23876000D01*
X114345469Y-22831074D01*
X114068286Y-22941921D01*
X113914911Y-23252840D01*
X113825140Y-23587705D01*
X113802424Y-23933650D01*
X104660000Y-23933650D01*
X104660000Y-22651469D01*
X114525074Y-22651469D01*
X115570000Y-23696395D01*
X116614926Y-22651469D01*
X116504079Y-22374286D01*
X116193160Y-22220911D01*
X115858295Y-22131140D01*
X115512350Y-22108424D01*
X115168620Y-22153634D01*
X114840315Y-22265034D01*
X114635921Y-22374286D01*
X114525074Y-22651469D01*
X104660000Y-22651469D01*
X104660000Y-21172504D01*
X116450000Y-21172504D01*
X116450000Y-21499496D01*
X116513793Y-21820204D01*
X116638927Y-22122305D01*
X116820594Y-22394188D01*
X117051812Y-22625406D01*
X117323695Y-22807073D01*
X117625796Y-22932207D01*
X117946504Y-22996000D01*
X118273496Y-22996000D01*
X118594204Y-22932207D01*
X118896305Y-22807073D01*
X119129182Y-22651469D01*
X119605074Y-22651469D01*
X120650000Y-23696395D01*
X121680895Y-22665500D01*
X126892606Y-22665500D01*
X126926105Y-23005619D01*
X127025314Y-23332668D01*
X127186421Y-23634078D01*
X127403234Y-23898266D01*
X127594994Y-24055639D01*
X127500236Y-24232919D01*
X127421040Y-24493993D01*
X127394299Y-24765500D01*
X127421040Y-25037007D01*
X127500236Y-25298081D01*
X127628843Y-25538688D01*
X127801919Y-25749581D01*
X127821316Y-25765500D01*
X127801919Y-25781419D01*
X127628843Y-25992312D01*
X127500236Y-26232919D01*
X127421040Y-26493993D01*
X127394299Y-26765500D01*
X127421040Y-27037007D01*
X127500236Y-27298081D01*
X127624940Y-27531386D01*
X127584815Y-27564315D01*
X127505463Y-27661006D01*
X127446498Y-27771320D01*
X127410188Y-27891018D01*
X127397928Y-28015500D01*
X127397928Y-29515500D01*
X127409008Y-29627996D01*
X127403234Y-29632734D01*
X127186421Y-29896922D01*
X127025314Y-30198332D01*
X126926105Y-30525381D01*
X126892606Y-30865500D01*
X126926105Y-31205619D01*
X127025314Y-31532668D01*
X127186421Y-31834078D01*
X127403234Y-32098266D01*
X127667422Y-32315079D01*
X127968832Y-32476186D01*
X128295881Y-32575395D01*
X128550775Y-32600500D01*
X130021225Y-32600500D01*
X130276119Y-32575395D01*
X130603168Y-32476186D01*
X130904578Y-32315079D01*
X131168766Y-32098266D01*
X131385579Y-31834078D01*
X131546686Y-31532668D01*
X131645895Y-31205619D01*
X131679394Y-30865500D01*
X131645895Y-30525381D01*
X131546686Y-30198332D01*
X131385579Y-29896922D01*
X131168766Y-29632734D01*
X131162992Y-29627996D01*
X131174072Y-29515500D01*
X131174072Y-28776500D01*
X137979928Y-28776500D01*
X137992188Y-28900982D01*
X138028498Y-29020680D01*
X138087463Y-29130994D01*
X138166815Y-29227685D01*
X138263506Y-29307037D01*
X138373820Y-29366002D01*
X138493518Y-29402312D01*
X138618000Y-29414572D01*
X138994750Y-29411500D01*
X139153500Y-29252750D01*
X139153500Y-28003500D01*
X139407500Y-28003500D01*
X139407500Y-29252750D01*
X139566250Y-29411500D01*
X139943000Y-29414572D01*
X140067482Y-29402312D01*
X140187180Y-29366002D01*
X140297494Y-29307037D01*
X140394185Y-29227685D01*
X140473537Y-29130994D01*
X140532502Y-29020680D01*
X140568812Y-28900982D01*
X140581072Y-28776500D01*
X140578000Y-28162250D01*
X140419250Y-28003500D01*
X139407500Y-28003500D01*
X139153500Y-28003500D01*
X138141750Y-28003500D01*
X137983000Y-28162250D01*
X137979928Y-28776500D01*
X131174072Y-28776500D01*
X131174072Y-28015500D01*
X131161812Y-27891018D01*
X131125502Y-27771320D01*
X131066537Y-27661006D01*
X130987185Y-27564315D01*
X130947060Y-27531386D01*
X131071764Y-27298081D01*
X131150960Y-27037007D01*
X131156919Y-26976500D01*
X137979928Y-26976500D01*
X137983000Y-27590750D01*
X138141750Y-27749500D01*
X139153500Y-27749500D01*
X139153500Y-26500250D01*
X139407500Y-26500250D01*
X139407500Y-27749500D01*
X140419250Y-27749500D01*
X140578000Y-27590750D01*
X140581072Y-26976500D01*
X140568812Y-26852018D01*
X140532502Y-26732320D01*
X140473537Y-26622006D01*
X140394185Y-26525315D01*
X140297494Y-26445963D01*
X140187180Y-26386998D01*
X140067482Y-26350688D01*
X139943000Y-26338428D01*
X139566250Y-26341500D01*
X139407500Y-26500250D01*
X139153500Y-26500250D01*
X138994750Y-26341500D01*
X138618000Y-26338428D01*
X138493518Y-26350688D01*
X138373820Y-26386998D01*
X138263506Y-26445963D01*
X138166815Y-26525315D01*
X138087463Y-26622006D01*
X138028498Y-26732320D01*
X137992188Y-26852018D01*
X137979928Y-26976500D01*
X131156919Y-26976500D01*
X131177701Y-26765500D01*
X131150960Y-26493993D01*
X131071764Y-26232919D01*
X130943157Y-25992312D01*
X130770081Y-25781419D01*
X130750684Y-25765500D01*
X130770081Y-25749581D01*
X130943157Y-25538688D01*
X131071764Y-25298081D01*
X131150960Y-25037007D01*
X131177701Y-24765500D01*
X131150960Y-24493993D01*
X131071764Y-24232919D01*
X130977006Y-24055639D01*
X131168766Y-23898266D01*
X131385579Y-23634078D01*
X131546686Y-23332668D01*
X131645895Y-23005619D01*
X131679394Y-22665500D01*
X131645895Y-22325381D01*
X131546686Y-21998332D01*
X131536353Y-21979000D01*
X151706428Y-21979000D01*
X151706428Y-22979000D01*
X151718688Y-23103482D01*
X151754998Y-23223180D01*
X151813963Y-23333494D01*
X151893315Y-23430185D01*
X151990006Y-23509537D01*
X152100320Y-23568502D01*
X152220018Y-23604812D01*
X152344500Y-23617072D01*
X153344500Y-23617072D01*
X153468982Y-23604812D01*
X153588680Y-23568502D01*
X153698994Y-23509537D01*
X153795685Y-23430185D01*
X153875037Y-23333494D01*
X153934002Y-23223180D01*
X153970312Y-23103482D01*
X153982572Y-22979000D01*
X153982572Y-21979000D01*
X153970312Y-21854518D01*
X153934002Y-21734820D01*
X153875037Y-21624506D01*
X153795685Y-21527815D01*
X153698994Y-21448463D01*
X153588680Y-21389498D01*
X153468982Y-21353188D01*
X153344500Y-21340928D01*
X152344500Y-21340928D01*
X152220018Y-21353188D01*
X152100320Y-21389498D01*
X151990006Y-21448463D01*
X151893315Y-21527815D01*
X151813963Y-21624506D01*
X151754998Y-21734820D01*
X151718688Y-21854518D01*
X151706428Y-21979000D01*
X131536353Y-21979000D01*
X131385579Y-21696922D01*
X131168766Y-21432734D01*
X130904578Y-21215921D01*
X130603168Y-21054814D01*
X130276119Y-20955605D01*
X130021225Y-20930500D01*
X128550775Y-20930500D01*
X128295881Y-20955605D01*
X127968832Y-21054814D01*
X127667422Y-21215921D01*
X127403234Y-21432734D01*
X127186421Y-21696922D01*
X127025314Y-21998332D01*
X126926105Y-22325381D01*
X126892606Y-22665500D01*
X121680895Y-22665500D01*
X121694926Y-22651469D01*
X121584079Y-22374286D01*
X121273160Y-22220911D01*
X120938295Y-22131140D01*
X120592350Y-22108424D01*
X120248620Y-22153634D01*
X119920315Y-22265034D01*
X119715921Y-22374286D01*
X119605074Y-22651469D01*
X119129182Y-22651469D01*
X119168188Y-22625406D01*
X119399406Y-22394188D01*
X119581073Y-22122305D01*
X119706207Y-21820204D01*
X119770000Y-21499496D01*
X119770000Y-21172504D01*
X119706207Y-20851796D01*
X119581073Y-20549695D01*
X119399406Y-20277812D01*
X119168188Y-20046594D01*
X119129183Y-20020531D01*
X119605074Y-20020531D01*
X119715921Y-20297714D01*
X120026840Y-20451089D01*
X120361705Y-20540860D01*
X120707650Y-20563576D01*
X121051380Y-20518366D01*
X121379685Y-20406966D01*
X121584079Y-20297714D01*
X121694926Y-20020531D01*
X120650000Y-18975605D01*
X119605074Y-20020531D01*
X119129183Y-20020531D01*
X118896305Y-19864927D01*
X118594204Y-19739793D01*
X118273496Y-19676000D01*
X117946504Y-19676000D01*
X117625796Y-19739793D01*
X117323695Y-19864927D01*
X117051812Y-20046594D01*
X116820594Y-20277812D01*
X116638927Y-20549695D01*
X116513793Y-20851796D01*
X116450000Y-21172504D01*
X104660000Y-21172504D01*
X104660000Y-18279872D01*
X105265000Y-18279872D01*
X105265000Y-18720128D01*
X105350890Y-19151925D01*
X105519369Y-19558669D01*
X105763962Y-19924729D01*
X106075271Y-20236038D01*
X106441331Y-20480631D01*
X106848075Y-20649110D01*
X107279872Y-20735000D01*
X107720128Y-20735000D01*
X108151925Y-20649110D01*
X108558669Y-20480631D01*
X108924729Y-20236038D01*
X109140236Y-20020531D01*
X114525074Y-20020531D01*
X114635921Y-20297714D01*
X114946840Y-20451089D01*
X115281705Y-20540860D01*
X115627650Y-20563576D01*
X115971380Y-20518366D01*
X116299685Y-20406966D01*
X116504079Y-20297714D01*
X116614926Y-20020531D01*
X115570000Y-18975605D01*
X114525074Y-20020531D01*
X109140236Y-20020531D01*
X109236038Y-19924729D01*
X109480631Y-19558669D01*
X109649110Y-19151925D01*
X109708440Y-18853650D01*
X113802424Y-18853650D01*
X113847634Y-19197380D01*
X113959034Y-19525685D01*
X114068286Y-19730079D01*
X114345469Y-19840926D01*
X115390395Y-18796000D01*
X115749605Y-18796000D01*
X116794531Y-19840926D01*
X117071714Y-19730079D01*
X117225089Y-19419160D01*
X117314860Y-19084295D01*
X117330004Y-18853650D01*
X118882424Y-18853650D01*
X118927634Y-19197380D01*
X119039034Y-19525685D01*
X119148286Y-19730079D01*
X119425469Y-19840926D01*
X120470395Y-18796000D01*
X120829605Y-18796000D01*
X121874531Y-19840926D01*
X122151714Y-19730079D01*
X122305089Y-19419160D01*
X122394860Y-19084295D01*
X122417576Y-18738350D01*
X122409507Y-18677000D01*
X140720928Y-18677000D01*
X140720928Y-19677000D01*
X140733188Y-19801482D01*
X140769498Y-19921180D01*
X140828463Y-20031494D01*
X140907815Y-20128185D01*
X141004506Y-20207537D01*
X141114820Y-20266502D01*
X141234518Y-20302812D01*
X141359000Y-20315072D01*
X142359000Y-20315072D01*
X142483482Y-20302812D01*
X142603180Y-20266502D01*
X142713494Y-20207537D01*
X142810185Y-20128185D01*
X142889537Y-20031494D01*
X142948502Y-19921180D01*
X142984812Y-19801482D01*
X142997072Y-19677000D01*
X142997072Y-18677000D01*
X142984812Y-18552518D01*
X142948502Y-18432820D01*
X142889537Y-18322506D01*
X142810185Y-18225815D01*
X142713494Y-18146463D01*
X142603180Y-18087498D01*
X142483482Y-18051188D01*
X142359000Y-18038928D01*
X141359000Y-18038928D01*
X141234518Y-18051188D01*
X141114820Y-18087498D01*
X141004506Y-18146463D01*
X140907815Y-18225815D01*
X140828463Y-18322506D01*
X140769498Y-18432820D01*
X140733188Y-18552518D01*
X140720928Y-18677000D01*
X122409507Y-18677000D01*
X122372366Y-18394620D01*
X122260966Y-18066315D01*
X122151714Y-17861921D01*
X121874531Y-17751074D01*
X120829605Y-18796000D01*
X120470395Y-18796000D01*
X119425469Y-17751074D01*
X119148286Y-17861921D01*
X118994911Y-18172840D01*
X118905140Y-18507705D01*
X118882424Y-18853650D01*
X117330004Y-18853650D01*
X117337576Y-18738350D01*
X117292366Y-18394620D01*
X117180966Y-18066315D01*
X117071714Y-17861921D01*
X116794531Y-17751074D01*
X115749605Y-18796000D01*
X115390395Y-18796000D01*
X114345469Y-17751074D01*
X114068286Y-17861921D01*
X113914911Y-18172840D01*
X113825140Y-18507705D01*
X113802424Y-18853650D01*
X109708440Y-18853650D01*
X109735000Y-18720128D01*
X109735000Y-18279872D01*
X109649110Y-17848075D01*
X109534536Y-17571469D01*
X114525074Y-17571469D01*
X115570000Y-18616395D01*
X116614926Y-17571469D01*
X119605074Y-17571469D01*
X120650000Y-18616395D01*
X121694926Y-17571469D01*
X121584079Y-17294286D01*
X121273160Y-17140911D01*
X120938295Y-17051140D01*
X120592350Y-17028424D01*
X120248620Y-17073634D01*
X119920315Y-17185034D01*
X119715921Y-17294286D01*
X119605074Y-17571469D01*
X116614926Y-17571469D01*
X116504079Y-17294286D01*
X116193160Y-17140911D01*
X115858295Y-17051140D01*
X115512350Y-17028424D01*
X115168620Y-17073634D01*
X114840315Y-17185034D01*
X114635921Y-17294286D01*
X114525074Y-17571469D01*
X109534536Y-17571469D01*
X109480631Y-17441331D01*
X109236038Y-17075271D01*
X108924729Y-16763962D01*
X108558669Y-16519369D01*
X108151925Y-16350890D01*
X107720128Y-16265000D01*
X107279872Y-16265000D01*
X106848075Y-16350890D01*
X106441331Y-16519369D01*
X106075271Y-16763962D01*
X105763962Y-17075271D01*
X105519369Y-17441331D01*
X105350890Y-17848075D01*
X105265000Y-18279872D01*
X104660000Y-18279872D01*
X104660000Y-15660000D01*
X158431855Y-15660000D01*
X158426375Y-20306774D01*
G37*
%TD.AperFunction*%
%TD*%
M02*
