%TF.GenerationSoftware,KiCad,Pcbnew,(5.1.8-0-10_14)*%
%TF.CreationDate,2022-02-24T11:51:48-06:00*%
%TF.ProjectId,SAQ_KiCad,5341515f-4b69-4436-9164-2e6b69636164,rev?*%
%TF.SameCoordinates,Original*%
%TF.FileFunction,Legend,Bot*%
%TF.FilePolarity,Positive*%
%FSLAX46Y46*%
G04 Gerber Fmt 4.6, Leading zero omitted, Abs format (unit mm)*
G04 Created by KiCad (PCBNEW (5.1.8-0-10_14)) date 2022-02-24 11:51:48*
%MOMM*%
%LPD*%
G01*
G04 APERTURE LIST*
%ADD10C,0.150000*%
%ADD11C,0.120000*%
G04 APERTURE END LIST*
D10*
X125372285Y-29727380D02*
X125372285Y-28727380D01*
X124991333Y-28727380D01*
X124896095Y-28775000D01*
X124848476Y-28822619D01*
X124800857Y-28917857D01*
X124800857Y-29060714D01*
X124848476Y-29155952D01*
X124896095Y-29203571D01*
X124991333Y-29251190D01*
X125372285Y-29251190D01*
X124372285Y-29727380D02*
X124372285Y-29060714D01*
X124372285Y-29251190D02*
X124324666Y-29155952D01*
X124277047Y-29108333D01*
X124181809Y-29060714D01*
X124086571Y-29060714D01*
X123610380Y-29727380D02*
X123705619Y-29679761D01*
X123753238Y-29632142D01*
X123800857Y-29536904D01*
X123800857Y-29251190D01*
X123753238Y-29155952D01*
X123705619Y-29108333D01*
X123610380Y-29060714D01*
X123467523Y-29060714D01*
X123372285Y-29108333D01*
X123324666Y-29155952D01*
X123277047Y-29251190D01*
X123277047Y-29536904D01*
X123324666Y-29632142D01*
X123372285Y-29679761D01*
X123467523Y-29727380D01*
X123610380Y-29727380D01*
X122848476Y-29060714D02*
X122848476Y-29917857D01*
X122896095Y-30013095D01*
X122991333Y-30060714D01*
X123038952Y-30060714D01*
X122848476Y-28727380D02*
X122896095Y-28775000D01*
X122848476Y-28822619D01*
X122800857Y-28775000D01*
X122848476Y-28727380D01*
X122848476Y-28822619D01*
X121991333Y-29679761D02*
X122086571Y-29727380D01*
X122277047Y-29727380D01*
X122372285Y-29679761D01*
X122419904Y-29584523D01*
X122419904Y-29203571D01*
X122372285Y-29108333D01*
X122277047Y-29060714D01*
X122086571Y-29060714D01*
X121991333Y-29108333D01*
X121943714Y-29203571D01*
X121943714Y-29298809D01*
X122419904Y-29394047D01*
X121086571Y-29679761D02*
X121181809Y-29727380D01*
X121372285Y-29727380D01*
X121467523Y-29679761D01*
X121515142Y-29632142D01*
X121562761Y-29536904D01*
X121562761Y-29251190D01*
X121515142Y-29155952D01*
X121467523Y-29108333D01*
X121372285Y-29060714D01*
X121181809Y-29060714D01*
X121086571Y-29108333D01*
X120800857Y-29060714D02*
X120419904Y-29060714D01*
X120658000Y-28727380D02*
X120658000Y-29584523D01*
X120610380Y-29679761D01*
X120515142Y-29727380D01*
X120419904Y-29727380D01*
X119372285Y-29679761D02*
X119229428Y-29727380D01*
X118991333Y-29727380D01*
X118896095Y-29679761D01*
X118848476Y-29632142D01*
X118800857Y-29536904D01*
X118800857Y-29441666D01*
X118848476Y-29346428D01*
X118896095Y-29298809D01*
X118991333Y-29251190D01*
X119181809Y-29203571D01*
X119277047Y-29155952D01*
X119324666Y-29108333D01*
X119372285Y-29013095D01*
X119372285Y-28917857D01*
X119324666Y-28822619D01*
X119277047Y-28775000D01*
X119181809Y-28727380D01*
X118943714Y-28727380D01*
X118800857Y-28775000D01*
X118419904Y-29441666D02*
X117943714Y-29441666D01*
X118515142Y-29727380D02*
X118181809Y-28727380D01*
X117848476Y-29727380D01*
X116848476Y-29822619D02*
X116943714Y-29775000D01*
X117038952Y-29679761D01*
X117181809Y-29536904D01*
X117277047Y-29489285D01*
X117372285Y-29489285D01*
X117324666Y-29727380D02*
X117419904Y-29679761D01*
X117515142Y-29584523D01*
X117562761Y-29394047D01*
X117562761Y-29060714D01*
X117515142Y-28870238D01*
X117419904Y-28775000D01*
X117324666Y-28727380D01*
X117134190Y-28727380D01*
X117038952Y-28775000D01*
X116943714Y-28870238D01*
X116896095Y-29060714D01*
X116896095Y-29394047D01*
X116943714Y-29584523D01*
X117038952Y-29679761D01*
X117134190Y-29727380D01*
X117324666Y-29727380D01*
X123610380Y-30377380D02*
X123419904Y-30377380D01*
X123324666Y-30425000D01*
X123229428Y-30520238D01*
X123181809Y-30710714D01*
X123181809Y-31044047D01*
X123229428Y-31234523D01*
X123324666Y-31329761D01*
X123419904Y-31377380D01*
X123610380Y-31377380D01*
X123705619Y-31329761D01*
X123800857Y-31234523D01*
X123848476Y-31044047D01*
X123848476Y-30710714D01*
X123800857Y-30520238D01*
X123705619Y-30425000D01*
X123610380Y-30377380D01*
X122753238Y-31377380D02*
X122753238Y-30377380D01*
X122372285Y-30377380D01*
X122277047Y-30425000D01*
X122229428Y-30472619D01*
X122181809Y-30567857D01*
X122181809Y-30710714D01*
X122229428Y-30805952D01*
X122277047Y-30853571D01*
X122372285Y-30901190D01*
X122753238Y-30901190D01*
X121800857Y-31091666D02*
X121324666Y-31091666D01*
X121896095Y-31377380D02*
X121562761Y-30377380D01*
X121229428Y-31377380D01*
X120372285Y-31377380D02*
X120943714Y-31377380D01*
X120658000Y-31377380D02*
X120658000Y-30377380D01*
X120753238Y-30520238D01*
X120848476Y-30615476D01*
X120943714Y-30663095D01*
X119896095Y-31377380D02*
X119705619Y-31377380D01*
X119610380Y-31329761D01*
X119562761Y-31282142D01*
X119467523Y-31139285D01*
X119419904Y-30948809D01*
X119419904Y-30567857D01*
X119467523Y-30472619D01*
X119515142Y-30425000D01*
X119610380Y-30377380D01*
X119800857Y-30377380D01*
X119896095Y-30425000D01*
X119943714Y-30472619D01*
X119991333Y-30567857D01*
X119991333Y-30805952D01*
X119943714Y-30901190D01*
X119896095Y-30948809D01*
X119800857Y-30996428D01*
X119610380Y-30996428D01*
X119515142Y-30948809D01*
X119467523Y-30901190D01*
X119419904Y-30805952D01*
X119086571Y-30377380D02*
X118419904Y-30377380D01*
X118848476Y-31377380D01*
X125777047Y-32503571D02*
X126110380Y-32503571D01*
X126110380Y-33027380D02*
X126110380Y-32027380D01*
X125634190Y-32027380D01*
X124872285Y-32979761D02*
X124967523Y-33027380D01*
X125158000Y-33027380D01*
X125253238Y-32979761D01*
X125300857Y-32884523D01*
X125300857Y-32503571D01*
X125253238Y-32408333D01*
X125158000Y-32360714D01*
X124967523Y-32360714D01*
X124872285Y-32408333D01*
X124824666Y-32503571D01*
X124824666Y-32598809D01*
X125300857Y-32694047D01*
X124396095Y-33027380D02*
X124396095Y-32027380D01*
X124396095Y-32408333D02*
X124300857Y-32360714D01*
X124110380Y-32360714D01*
X124015142Y-32408333D01*
X123967523Y-32455952D01*
X123919904Y-32551190D01*
X123919904Y-32836904D01*
X123967523Y-32932142D01*
X124015142Y-32979761D01*
X124110380Y-33027380D01*
X124300857Y-33027380D01*
X124396095Y-32979761D01*
X122300857Y-32360714D02*
X122300857Y-33027380D01*
X122538952Y-31979761D02*
X122777047Y-32694047D01*
X122158000Y-32694047D01*
X121919904Y-32360714D02*
X121538952Y-32360714D01*
X121777047Y-32027380D02*
X121777047Y-32884523D01*
X121729428Y-32979761D01*
X121634190Y-33027380D01*
X121538952Y-33027380D01*
X121205619Y-33027380D02*
X121205619Y-32027380D01*
X120777047Y-33027380D02*
X120777047Y-32503571D01*
X120824666Y-32408333D01*
X120919904Y-32360714D01*
X121062761Y-32360714D01*
X121158000Y-32408333D01*
X121205619Y-32455952D01*
X119586571Y-32122619D02*
X119538952Y-32075000D01*
X119443714Y-32027380D01*
X119205619Y-32027380D01*
X119110380Y-32075000D01*
X119062761Y-32122619D01*
X119015142Y-32217857D01*
X119015142Y-32313095D01*
X119062761Y-32455952D01*
X119634190Y-33027380D01*
X119015142Y-33027380D01*
X118396095Y-32027380D02*
X118300857Y-32027380D01*
X118205619Y-32075000D01*
X118158000Y-32122619D01*
X118110380Y-32217857D01*
X118062761Y-32408333D01*
X118062761Y-32646428D01*
X118110380Y-32836904D01*
X118158000Y-32932142D01*
X118205619Y-32979761D01*
X118300857Y-33027380D01*
X118396095Y-33027380D01*
X118491333Y-32979761D01*
X118538952Y-32932142D01*
X118586571Y-32836904D01*
X118634190Y-32646428D01*
X118634190Y-32408333D01*
X118586571Y-32217857D01*
X118538952Y-32122619D01*
X118491333Y-32075000D01*
X118396095Y-32027380D01*
X117681809Y-32122619D02*
X117634190Y-32075000D01*
X117538952Y-32027380D01*
X117300857Y-32027380D01*
X117205619Y-32075000D01*
X117158000Y-32122619D01*
X117110380Y-32217857D01*
X117110380Y-32313095D01*
X117158000Y-32455952D01*
X117729428Y-33027380D01*
X117110380Y-33027380D01*
X116729428Y-32122619D02*
X116681809Y-32075000D01*
X116586571Y-32027380D01*
X116348476Y-32027380D01*
X116253238Y-32075000D01*
X116205619Y-32122619D01*
X116158000Y-32217857D01*
X116158000Y-32313095D01*
X116205619Y-32455952D01*
X116777047Y-33027380D01*
X116158000Y-33027380D01*
X127181809Y-34391666D02*
X126705619Y-34391666D01*
X127277047Y-34677380D02*
X126943714Y-33677380D01*
X126610380Y-34677380D01*
X125848476Y-34010714D02*
X125848476Y-34677380D01*
X126277047Y-34010714D02*
X126277047Y-34534523D01*
X126229428Y-34629761D01*
X126134190Y-34677380D01*
X125991333Y-34677380D01*
X125896095Y-34629761D01*
X125848476Y-34582142D01*
X125419904Y-34629761D02*
X125324666Y-34677380D01*
X125134190Y-34677380D01*
X125038952Y-34629761D01*
X124991333Y-34534523D01*
X124991333Y-34486904D01*
X125038952Y-34391666D01*
X125134190Y-34344047D01*
X125277047Y-34344047D01*
X125372285Y-34296428D01*
X125419904Y-34201190D01*
X125419904Y-34153571D01*
X125372285Y-34058333D01*
X125277047Y-34010714D01*
X125134190Y-34010714D01*
X125038952Y-34058333D01*
X124705619Y-34010714D02*
X124324666Y-34010714D01*
X124562761Y-33677380D02*
X124562761Y-34534523D01*
X124515142Y-34629761D01*
X124419904Y-34677380D01*
X124324666Y-34677380D01*
X123991333Y-34677380D02*
X123991333Y-34010714D01*
X123991333Y-33677380D02*
X124038952Y-33725000D01*
X123991333Y-33772619D01*
X123943714Y-33725000D01*
X123991333Y-33677380D01*
X123991333Y-33772619D01*
X123515142Y-34010714D02*
X123515142Y-34677380D01*
X123515142Y-34105952D02*
X123467523Y-34058333D01*
X123372285Y-34010714D01*
X123229428Y-34010714D01*
X123134190Y-34058333D01*
X123086571Y-34153571D01*
X123086571Y-34677380D01*
X121848476Y-34677380D02*
X121848476Y-33677380D01*
X121515142Y-34391666D01*
X121181809Y-33677380D01*
X121181809Y-34677380D01*
X120277047Y-34629761D02*
X120372285Y-34677380D01*
X120562761Y-34677380D01*
X120658000Y-34629761D01*
X120705619Y-34582142D01*
X120753238Y-34486904D01*
X120753238Y-34201190D01*
X120705619Y-34105952D01*
X120658000Y-34058333D01*
X120562761Y-34010714D01*
X120372285Y-34010714D01*
X120277047Y-34058333D01*
X119848476Y-34677380D02*
X119848476Y-33677380D01*
X119610380Y-33677380D01*
X119467523Y-33725000D01*
X119372285Y-33820238D01*
X119324666Y-33915476D01*
X119277047Y-34105952D01*
X119277047Y-34248809D01*
X119324666Y-34439285D01*
X119372285Y-34534523D01*
X119467523Y-34629761D01*
X119610380Y-34677380D01*
X119848476Y-34677380D01*
X118705619Y-34677380D02*
X118800857Y-34629761D01*
X118848476Y-34582142D01*
X118896095Y-34486904D01*
X118896095Y-34201190D01*
X118848476Y-34105952D01*
X118800857Y-34058333D01*
X118705619Y-34010714D01*
X118562761Y-34010714D01*
X118467523Y-34058333D01*
X118419904Y-34105952D01*
X118372285Y-34201190D01*
X118372285Y-34486904D01*
X118419904Y-34582142D01*
X118467523Y-34629761D01*
X118562761Y-34677380D01*
X118705619Y-34677380D01*
X117943714Y-34010714D02*
X117943714Y-34677380D01*
X117943714Y-34105952D02*
X117896095Y-34058333D01*
X117800857Y-34010714D01*
X117658000Y-34010714D01*
X117562761Y-34058333D01*
X117515142Y-34153571D01*
X117515142Y-34677380D01*
X116610380Y-34677380D02*
X116610380Y-34153571D01*
X116658000Y-34058333D01*
X116753238Y-34010714D01*
X116943714Y-34010714D01*
X117038952Y-34058333D01*
X116610380Y-34629761D02*
X116705619Y-34677380D01*
X116943714Y-34677380D01*
X117038952Y-34629761D01*
X117086571Y-34534523D01*
X117086571Y-34439285D01*
X117038952Y-34344047D01*
X116943714Y-34296428D01*
X116705619Y-34296428D01*
X116610380Y-34248809D01*
X115991333Y-34677380D02*
X116086571Y-34629761D01*
X116134190Y-34534523D01*
X116134190Y-33677380D01*
X115181809Y-34677380D02*
X115181809Y-33677380D01*
X115181809Y-34629761D02*
X115277047Y-34677380D01*
X115467523Y-34677380D01*
X115562761Y-34629761D01*
X115610380Y-34582142D01*
X115658000Y-34486904D01*
X115658000Y-34201190D01*
X115610380Y-34105952D01*
X115562761Y-34058333D01*
X115467523Y-34010714D01*
X115277047Y-34010714D01*
X115181809Y-34058333D01*
D11*
%TO.C,U5*%
X164973000Y-44376500D02*
X161523000Y-44376500D01*
X164973000Y-44376500D02*
X166923000Y-44376500D01*
X164973000Y-35506500D02*
X163023000Y-35506500D01*
X164973000Y-35506500D02*
X166923000Y-35506500D01*
%TO.C,C14*%
X149148748Y-24236000D02*
X150571252Y-24236000D01*
X149148748Y-26056000D02*
X150571252Y-26056000D01*
%TO.C,C12*%
X141554252Y-26966500D02*
X140131748Y-26966500D01*
X141554252Y-28786500D02*
X140131748Y-28786500D01*
%TO.C,C11*%
X159334252Y-43349500D02*
X157911748Y-43349500D01*
X159334252Y-45169500D02*
X157911748Y-45169500D01*
%TO.C,C10*%
X144792752Y-34967500D02*
X143370248Y-34967500D01*
X144792752Y-36787500D02*
X143370248Y-36787500D01*
%TO.C,X1*%
X169151500Y-56256000D02*
X166001500Y-56256000D01*
X166001500Y-56256000D02*
X166001500Y-52456000D01*
%TO.C,R18*%
X166406500Y-32469064D02*
X166406500Y-32014936D01*
X164936500Y-32469064D02*
X164936500Y-32014936D01*
%TO.C,R17*%
X151426936Y-33056500D02*
X151881064Y-33056500D01*
X151426936Y-31586500D02*
X151881064Y-31586500D01*
%TO.C,R15*%
X156618000Y-22061436D02*
X156618000Y-22515564D01*
X158088000Y-22061436D02*
X158088000Y-22515564D01*
%TO.C,C9*%
X168351252Y-57764000D02*
X166928748Y-57764000D01*
X168351252Y-59584000D02*
X166928748Y-59584000D01*
%TO.C,C8*%
X154469752Y-35094500D02*
X153047248Y-35094500D01*
X154469752Y-36914500D02*
X153047248Y-36914500D01*
%TO.C,U5*%
D10*
X163321904Y-44600880D02*
X163321904Y-45410404D01*
X163274285Y-45505642D01*
X163226666Y-45553261D01*
X163131428Y-45600880D01*
X162940952Y-45600880D01*
X162845714Y-45553261D01*
X162798095Y-45505642D01*
X162750476Y-45410404D01*
X162750476Y-44600880D01*
X161798095Y-44600880D02*
X162274285Y-44600880D01*
X162321904Y-45077071D01*
X162274285Y-45029452D01*
X162179047Y-44981833D01*
X161940952Y-44981833D01*
X161845714Y-45029452D01*
X161798095Y-45077071D01*
X161750476Y-45172309D01*
X161750476Y-45410404D01*
X161798095Y-45505642D01*
X161845714Y-45553261D01*
X161940952Y-45600880D01*
X162179047Y-45600880D01*
X162274285Y-45553261D01*
X162321904Y-45505642D01*
%TO.C,C14*%
X150502857Y-27353142D02*
X150550476Y-27400761D01*
X150693333Y-27448380D01*
X150788571Y-27448380D01*
X150931428Y-27400761D01*
X151026666Y-27305523D01*
X151074285Y-27210285D01*
X151121904Y-27019809D01*
X151121904Y-26876952D01*
X151074285Y-26686476D01*
X151026666Y-26591238D01*
X150931428Y-26496000D01*
X150788571Y-26448380D01*
X150693333Y-26448380D01*
X150550476Y-26496000D01*
X150502857Y-26543619D01*
X149550476Y-27448380D02*
X150121904Y-27448380D01*
X149836190Y-27448380D02*
X149836190Y-26448380D01*
X149931428Y-26591238D01*
X150026666Y-26686476D01*
X150121904Y-26734095D01*
X148693333Y-26781714D02*
X148693333Y-27448380D01*
X148931428Y-26400761D02*
X149169523Y-27115047D01*
X148550476Y-27115047D01*
%TO.C,C12*%
X141485857Y-26383642D02*
X141533476Y-26431261D01*
X141676333Y-26478880D01*
X141771571Y-26478880D01*
X141914428Y-26431261D01*
X142009666Y-26336023D01*
X142057285Y-26240785D01*
X142104904Y-26050309D01*
X142104904Y-25907452D01*
X142057285Y-25716976D01*
X142009666Y-25621738D01*
X141914428Y-25526500D01*
X141771571Y-25478880D01*
X141676333Y-25478880D01*
X141533476Y-25526500D01*
X141485857Y-25574119D01*
X140533476Y-26478880D02*
X141104904Y-26478880D01*
X140819190Y-26478880D02*
X140819190Y-25478880D01*
X140914428Y-25621738D01*
X141009666Y-25716976D01*
X141104904Y-25764595D01*
X140152523Y-25574119D02*
X140104904Y-25526500D01*
X140009666Y-25478880D01*
X139771571Y-25478880D01*
X139676333Y-25526500D01*
X139628714Y-25574119D01*
X139581095Y-25669357D01*
X139581095Y-25764595D01*
X139628714Y-25907452D01*
X140200142Y-26478880D01*
X139581095Y-26478880D01*
%TO.C,C11*%
X158440357Y-46331142D02*
X158487976Y-46378761D01*
X158630833Y-46426380D01*
X158726071Y-46426380D01*
X158868928Y-46378761D01*
X158964166Y-46283523D01*
X159011785Y-46188285D01*
X159059404Y-45997809D01*
X159059404Y-45854952D01*
X159011785Y-45664476D01*
X158964166Y-45569238D01*
X158868928Y-45474000D01*
X158726071Y-45426380D01*
X158630833Y-45426380D01*
X158487976Y-45474000D01*
X158440357Y-45521619D01*
X157487976Y-46426380D02*
X158059404Y-46426380D01*
X157773690Y-46426380D02*
X157773690Y-45426380D01*
X157868928Y-45569238D01*
X157964166Y-45664476D01*
X158059404Y-45712095D01*
X156535595Y-46426380D02*
X157107023Y-46426380D01*
X156821309Y-46426380D02*
X156821309Y-45426380D01*
X156916547Y-45569238D01*
X157011785Y-45664476D01*
X157107023Y-45712095D01*
%TO.C,C10*%
X143937357Y-37885642D02*
X143984976Y-37933261D01*
X144127833Y-37980880D01*
X144223071Y-37980880D01*
X144365928Y-37933261D01*
X144461166Y-37838023D01*
X144508785Y-37742785D01*
X144556404Y-37552309D01*
X144556404Y-37409452D01*
X144508785Y-37218976D01*
X144461166Y-37123738D01*
X144365928Y-37028500D01*
X144223071Y-36980880D01*
X144127833Y-36980880D01*
X143984976Y-37028500D01*
X143937357Y-37076119D01*
X142984976Y-37980880D02*
X143556404Y-37980880D01*
X143270690Y-37980880D02*
X143270690Y-36980880D01*
X143365928Y-37123738D01*
X143461166Y-37218976D01*
X143556404Y-37266595D01*
X142365928Y-36980880D02*
X142270690Y-36980880D01*
X142175452Y-37028500D01*
X142127833Y-37076119D01*
X142080214Y-37171357D01*
X142032595Y-37361833D01*
X142032595Y-37599928D01*
X142080214Y-37790404D01*
X142127833Y-37885642D01*
X142175452Y-37933261D01*
X142270690Y-37980880D01*
X142365928Y-37980880D01*
X142461166Y-37933261D01*
X142508785Y-37885642D01*
X142556404Y-37790404D01*
X142604023Y-37599928D01*
X142604023Y-37361833D01*
X142556404Y-37171357D01*
X142508785Y-37076119D01*
X142461166Y-37028500D01*
X142365928Y-36980880D01*
%TO.C,X1*%
X165783023Y-55175880D02*
X165116357Y-56175880D01*
X165116357Y-55175880D02*
X165783023Y-56175880D01*
X164211595Y-56175880D02*
X164783023Y-56175880D01*
X164497309Y-56175880D02*
X164497309Y-55175880D01*
X164592547Y-55318738D01*
X164687785Y-55413976D01*
X164783023Y-55461595D01*
%TO.C,R18*%
X167647880Y-31980142D02*
X167171690Y-31646809D01*
X167647880Y-31408714D02*
X166647880Y-31408714D01*
X166647880Y-31789666D01*
X166695500Y-31884904D01*
X166743119Y-31932523D01*
X166838357Y-31980142D01*
X166981214Y-31980142D01*
X167076452Y-31932523D01*
X167124071Y-31884904D01*
X167171690Y-31789666D01*
X167171690Y-31408714D01*
X167647880Y-32932523D02*
X167647880Y-32361095D01*
X167647880Y-32646809D02*
X166647880Y-32646809D01*
X166790738Y-32551571D01*
X166885976Y-32456333D01*
X166933595Y-32361095D01*
X167076452Y-33503952D02*
X167028833Y-33408714D01*
X166981214Y-33361095D01*
X166885976Y-33313476D01*
X166838357Y-33313476D01*
X166743119Y-33361095D01*
X166695500Y-33408714D01*
X166647880Y-33503952D01*
X166647880Y-33694428D01*
X166695500Y-33789666D01*
X166743119Y-33837285D01*
X166838357Y-33884904D01*
X166885976Y-33884904D01*
X166981214Y-33837285D01*
X167028833Y-33789666D01*
X167076452Y-33694428D01*
X167076452Y-33503952D01*
X167124071Y-33408714D01*
X167171690Y-33361095D01*
X167266928Y-33313476D01*
X167457404Y-33313476D01*
X167552642Y-33361095D01*
X167600261Y-33408714D01*
X167647880Y-33503952D01*
X167647880Y-33694428D01*
X167600261Y-33789666D01*
X167552642Y-33837285D01*
X167457404Y-33884904D01*
X167266928Y-33884904D01*
X167171690Y-33837285D01*
X167124071Y-33789666D01*
X167076452Y-33694428D01*
%TO.C,R17*%
X152661857Y-31440380D02*
X152995190Y-30964190D01*
X153233285Y-31440380D02*
X153233285Y-30440380D01*
X152852333Y-30440380D01*
X152757095Y-30488000D01*
X152709476Y-30535619D01*
X152661857Y-30630857D01*
X152661857Y-30773714D01*
X152709476Y-30868952D01*
X152757095Y-30916571D01*
X152852333Y-30964190D01*
X153233285Y-30964190D01*
X151709476Y-31440380D02*
X152280904Y-31440380D01*
X151995190Y-31440380D02*
X151995190Y-30440380D01*
X152090428Y-30583238D01*
X152185666Y-30678476D01*
X152280904Y-30726095D01*
X151376142Y-30440380D02*
X150709476Y-30440380D01*
X151138047Y-31440380D01*
%TO.C,R15*%
X157741857Y-20264380D02*
X158075190Y-19788190D01*
X158313285Y-20264380D02*
X158313285Y-19264380D01*
X157932333Y-19264380D01*
X157837095Y-19312000D01*
X157789476Y-19359619D01*
X157741857Y-19454857D01*
X157741857Y-19597714D01*
X157789476Y-19692952D01*
X157837095Y-19740571D01*
X157932333Y-19788190D01*
X158313285Y-19788190D01*
X156789476Y-20264380D02*
X157360904Y-20264380D01*
X157075190Y-20264380D02*
X157075190Y-19264380D01*
X157170428Y-19407238D01*
X157265666Y-19502476D01*
X157360904Y-19550095D01*
X155884714Y-19264380D02*
X156360904Y-19264380D01*
X156408523Y-19740571D01*
X156360904Y-19692952D01*
X156265666Y-19645333D01*
X156027571Y-19645333D01*
X155932333Y-19692952D01*
X155884714Y-19740571D01*
X155837095Y-19835809D01*
X155837095Y-20073904D01*
X155884714Y-20169142D01*
X155932333Y-20216761D01*
X156027571Y-20264380D01*
X156265666Y-20264380D01*
X156360904Y-20216761D01*
X156408523Y-20169142D01*
%TO.C,C9*%
X168187666Y-60872642D02*
X168235285Y-60920261D01*
X168378142Y-60967880D01*
X168473380Y-60967880D01*
X168616238Y-60920261D01*
X168711476Y-60825023D01*
X168759095Y-60729785D01*
X168806714Y-60539309D01*
X168806714Y-60396452D01*
X168759095Y-60205976D01*
X168711476Y-60110738D01*
X168616238Y-60015500D01*
X168473380Y-59967880D01*
X168378142Y-59967880D01*
X168235285Y-60015500D01*
X168187666Y-60063119D01*
X167711476Y-60967880D02*
X167521000Y-60967880D01*
X167425761Y-60920261D01*
X167378142Y-60872642D01*
X167282904Y-60729785D01*
X167235285Y-60539309D01*
X167235285Y-60158357D01*
X167282904Y-60063119D01*
X167330523Y-60015500D01*
X167425761Y-59967880D01*
X167616238Y-59967880D01*
X167711476Y-60015500D01*
X167759095Y-60063119D01*
X167806714Y-60158357D01*
X167806714Y-60396452D01*
X167759095Y-60491690D01*
X167711476Y-60539309D01*
X167616238Y-60586928D01*
X167425761Y-60586928D01*
X167330523Y-60539309D01*
X167282904Y-60491690D01*
X167235285Y-60396452D01*
%TO.C,C8*%
X155322166Y-34511642D02*
X155369785Y-34559261D01*
X155512642Y-34606880D01*
X155607880Y-34606880D01*
X155750738Y-34559261D01*
X155845976Y-34464023D01*
X155893595Y-34368785D01*
X155941214Y-34178309D01*
X155941214Y-34035452D01*
X155893595Y-33844976D01*
X155845976Y-33749738D01*
X155750738Y-33654500D01*
X155607880Y-33606880D01*
X155512642Y-33606880D01*
X155369785Y-33654500D01*
X155322166Y-33702119D01*
X154750738Y-34035452D02*
X154845976Y-33987833D01*
X154893595Y-33940214D01*
X154941214Y-33844976D01*
X154941214Y-33797357D01*
X154893595Y-33702119D01*
X154845976Y-33654500D01*
X154750738Y-33606880D01*
X154560261Y-33606880D01*
X154465023Y-33654500D01*
X154417404Y-33702119D01*
X154369785Y-33797357D01*
X154369785Y-33844976D01*
X154417404Y-33940214D01*
X154465023Y-33987833D01*
X154560261Y-34035452D01*
X154750738Y-34035452D01*
X154845976Y-34083071D01*
X154893595Y-34130690D01*
X154941214Y-34225928D01*
X154941214Y-34416404D01*
X154893595Y-34511642D01*
X154845976Y-34559261D01*
X154750738Y-34606880D01*
X154560261Y-34606880D01*
X154465023Y-34559261D01*
X154417404Y-34511642D01*
X154369785Y-34416404D01*
X154369785Y-34225928D01*
X154417404Y-34130690D01*
X154465023Y-34083071D01*
X154560261Y-34035452D01*
%TD*%
M02*
