%TF.GenerationSoftware,KiCad,Pcbnew,(5.1.8-0-10_14)*%
%TF.CreationDate,2022-02-24T11:51:05-06:00*%
%TF.ProjectId,SAQ_KiCad_alpha,5341515f-4b69-4436-9164-5f616c706861,rev?*%
%TF.SameCoordinates,Original*%
%TF.FileFunction,Soldermask,Top*%
%TF.FilePolarity,Negative*%
%FSLAX46Y46*%
G04 Gerber Fmt 4.6, Leading zero omitted, Abs format (unit mm)*
G04 Created by KiCad (PCBNEW (5.1.8-0-10_14)) date 2022-02-24 11:51:05*
%MOMM*%
%LPD*%
G01*
G04 APERTURE LIST*
%ADD10R,1.000000X1.000000*%
%ADD11C,2.250000*%
%ADD12C,2.050000*%
%ADD13C,3.200000*%
%ADD14R,2.000000X1.500000*%
%ADD15R,2.000000X3.800000*%
%ADD16O,3.500000X2.200000*%
%ADD17O,2.500000X1.500000*%
%ADD18R,2.500000X1.500000*%
%ADD19R,1.300000X1.600000*%
%ADD20R,2.000000X1.600000*%
%ADD21R,0.800000X0.900000*%
%ADD22R,0.900000X0.800000*%
%ADD23C,2.500000*%
%ADD24R,2.500000X2.500000*%
%ADD25C,2.800000*%
%ADD26R,2.800000X2.800000*%
%ADD27O,2.200000X2.200000*%
%ADD28R,2.200000X2.200000*%
G04 APERTURE END LIST*
D10*
%TO.C,TP5*%
X164719000Y-47815500D03*
%TD*%
D11*
%TO.C,J4*%
X162369500Y-29527500D03*
X162369500Y-24447500D03*
X167449500Y-24447500D03*
X167449500Y-29527500D03*
D12*
X164909500Y-26987500D03*
%TD*%
D11*
%TO.C,J3*%
X115189000Y-24003000D03*
X115189000Y-18923000D03*
X120269000Y-18923000D03*
X120269000Y-24003000D03*
D12*
X117729000Y-21463000D03*
%TD*%
D13*
%TO.C,H5*%
X107500000Y-18500000D03*
%TD*%
%TO.C,H4*%
X167500000Y-18500000D03*
%TD*%
%TO.C,H3*%
X167500000Y-65500000D03*
%TD*%
%TO.C,H2*%
X107500000Y-65500000D03*
%TD*%
%TO.C,U4*%
G36*
G01*
X143726000Y-33949500D02*
X143726000Y-34249500D01*
G75*
G02*
X143576000Y-34399500I-150000J0D01*
G01*
X141926000Y-34399500D01*
G75*
G02*
X141776000Y-34249500I0J150000D01*
G01*
X141776000Y-33949500D01*
G75*
G02*
X141926000Y-33799500I150000J0D01*
G01*
X143576000Y-33799500D01*
G75*
G02*
X143726000Y-33949500I0J-150000D01*
G01*
G37*
G36*
G01*
X143726000Y-32679500D02*
X143726000Y-32979500D01*
G75*
G02*
X143576000Y-33129500I-150000J0D01*
G01*
X141926000Y-33129500D01*
G75*
G02*
X141776000Y-32979500I0J150000D01*
G01*
X141776000Y-32679500D01*
G75*
G02*
X141926000Y-32529500I150000J0D01*
G01*
X143576000Y-32529500D01*
G75*
G02*
X143726000Y-32679500I0J-150000D01*
G01*
G37*
G36*
G01*
X143726000Y-31409500D02*
X143726000Y-31709500D01*
G75*
G02*
X143576000Y-31859500I-150000J0D01*
G01*
X141926000Y-31859500D01*
G75*
G02*
X141776000Y-31709500I0J150000D01*
G01*
X141776000Y-31409500D01*
G75*
G02*
X141926000Y-31259500I150000J0D01*
G01*
X143576000Y-31259500D01*
G75*
G02*
X143726000Y-31409500I0J-150000D01*
G01*
G37*
G36*
G01*
X143726000Y-30139500D02*
X143726000Y-30439500D01*
G75*
G02*
X143576000Y-30589500I-150000J0D01*
G01*
X141926000Y-30589500D01*
G75*
G02*
X141776000Y-30439500I0J150000D01*
G01*
X141776000Y-30139500D01*
G75*
G02*
X141926000Y-29989500I150000J0D01*
G01*
X143576000Y-29989500D01*
G75*
G02*
X143726000Y-30139500I0J-150000D01*
G01*
G37*
G36*
G01*
X148676000Y-30139500D02*
X148676000Y-30439500D01*
G75*
G02*
X148526000Y-30589500I-150000J0D01*
G01*
X146876000Y-30589500D01*
G75*
G02*
X146726000Y-30439500I0J150000D01*
G01*
X146726000Y-30139500D01*
G75*
G02*
X146876000Y-29989500I150000J0D01*
G01*
X148526000Y-29989500D01*
G75*
G02*
X148676000Y-30139500I0J-150000D01*
G01*
G37*
G36*
G01*
X148676000Y-31409500D02*
X148676000Y-31709500D01*
G75*
G02*
X148526000Y-31859500I-150000J0D01*
G01*
X146876000Y-31859500D01*
G75*
G02*
X146726000Y-31709500I0J150000D01*
G01*
X146726000Y-31409500D01*
G75*
G02*
X146876000Y-31259500I150000J0D01*
G01*
X148526000Y-31259500D01*
G75*
G02*
X148676000Y-31409500I0J-150000D01*
G01*
G37*
G36*
G01*
X148676000Y-32679500D02*
X148676000Y-32979500D01*
G75*
G02*
X148526000Y-33129500I-150000J0D01*
G01*
X146876000Y-33129500D01*
G75*
G02*
X146726000Y-32979500I0J150000D01*
G01*
X146726000Y-32679500D01*
G75*
G02*
X146876000Y-32529500I150000J0D01*
G01*
X148526000Y-32529500D01*
G75*
G02*
X148676000Y-32679500I0J-150000D01*
G01*
G37*
G36*
G01*
X148676000Y-33949500D02*
X148676000Y-34249500D01*
G75*
G02*
X148526000Y-34399500I-150000J0D01*
G01*
X146876000Y-34399500D01*
G75*
G02*
X146726000Y-34249500I0J150000D01*
G01*
X146726000Y-33949500D01*
G75*
G02*
X146876000Y-33799500I150000J0D01*
G01*
X148526000Y-33799500D01*
G75*
G02*
X148676000Y-33949500I0J-150000D01*
G01*
G37*
%TD*%
D10*
%TO.C,TP9*%
X127635000Y-35941000D03*
%TD*%
%TO.C,TP8*%
X145224500Y-39941500D03*
%TD*%
%TO.C,TP7*%
X141414500Y-56451500D03*
%TD*%
%TO.C,TP6*%
X141795500Y-39941500D03*
%TD*%
%TO.C,TP4*%
X157289500Y-27178000D03*
%TD*%
%TO.C,TP3*%
X155384500Y-32321500D03*
%TD*%
%TO.C,TP2*%
X152844500Y-22479000D03*
%TD*%
%TO.C,TP1*%
X141859000Y-18224500D03*
%TD*%
%TO.C,U3*%
G36*
G01*
X142390000Y-24155500D02*
X142090000Y-24155500D01*
G75*
G02*
X141940000Y-24005500I0J150000D01*
G01*
X141940000Y-22355500D01*
G75*
G02*
X142090000Y-22205500I150000J0D01*
G01*
X142390000Y-22205500D01*
G75*
G02*
X142540000Y-22355500I0J-150000D01*
G01*
X142540000Y-24005500D01*
G75*
G02*
X142390000Y-24155500I-150000J0D01*
G01*
G37*
G36*
G01*
X143660000Y-24155500D02*
X143360000Y-24155500D01*
G75*
G02*
X143210000Y-24005500I0J150000D01*
G01*
X143210000Y-22355500D01*
G75*
G02*
X143360000Y-22205500I150000J0D01*
G01*
X143660000Y-22205500D01*
G75*
G02*
X143810000Y-22355500I0J-150000D01*
G01*
X143810000Y-24005500D01*
G75*
G02*
X143660000Y-24155500I-150000J0D01*
G01*
G37*
G36*
G01*
X144930000Y-24155500D02*
X144630000Y-24155500D01*
G75*
G02*
X144480000Y-24005500I0J150000D01*
G01*
X144480000Y-22355500D01*
G75*
G02*
X144630000Y-22205500I150000J0D01*
G01*
X144930000Y-22205500D01*
G75*
G02*
X145080000Y-22355500I0J-150000D01*
G01*
X145080000Y-24005500D01*
G75*
G02*
X144930000Y-24155500I-150000J0D01*
G01*
G37*
G36*
G01*
X146200000Y-24155500D02*
X145900000Y-24155500D01*
G75*
G02*
X145750000Y-24005500I0J150000D01*
G01*
X145750000Y-22355500D01*
G75*
G02*
X145900000Y-22205500I150000J0D01*
G01*
X146200000Y-22205500D01*
G75*
G02*
X146350000Y-22355500I0J-150000D01*
G01*
X146350000Y-24005500D01*
G75*
G02*
X146200000Y-24155500I-150000J0D01*
G01*
G37*
G36*
G01*
X146200000Y-29105500D02*
X145900000Y-29105500D01*
G75*
G02*
X145750000Y-28955500I0J150000D01*
G01*
X145750000Y-27305500D01*
G75*
G02*
X145900000Y-27155500I150000J0D01*
G01*
X146200000Y-27155500D01*
G75*
G02*
X146350000Y-27305500I0J-150000D01*
G01*
X146350000Y-28955500D01*
G75*
G02*
X146200000Y-29105500I-150000J0D01*
G01*
G37*
G36*
G01*
X144930000Y-29105500D02*
X144630000Y-29105500D01*
G75*
G02*
X144480000Y-28955500I0J150000D01*
G01*
X144480000Y-27305500D01*
G75*
G02*
X144630000Y-27155500I150000J0D01*
G01*
X144930000Y-27155500D01*
G75*
G02*
X145080000Y-27305500I0J-150000D01*
G01*
X145080000Y-28955500D01*
G75*
G02*
X144930000Y-29105500I-150000J0D01*
G01*
G37*
G36*
G01*
X143660000Y-29105500D02*
X143360000Y-29105500D01*
G75*
G02*
X143210000Y-28955500I0J150000D01*
G01*
X143210000Y-27305500D01*
G75*
G02*
X143360000Y-27155500I150000J0D01*
G01*
X143660000Y-27155500D01*
G75*
G02*
X143810000Y-27305500I0J-150000D01*
G01*
X143810000Y-28955500D01*
G75*
G02*
X143660000Y-29105500I-150000J0D01*
G01*
G37*
G36*
G01*
X142390000Y-29105500D02*
X142090000Y-29105500D01*
G75*
G02*
X141940000Y-28955500I0J150000D01*
G01*
X141940000Y-27305500D01*
G75*
G02*
X142090000Y-27155500I150000J0D01*
G01*
X142390000Y-27155500D01*
G75*
G02*
X142540000Y-27305500I0J-150000D01*
G01*
X142540000Y-28955500D01*
G75*
G02*
X142390000Y-29105500I-150000J0D01*
G01*
G37*
%TD*%
D14*
%TO.C,U2*%
X126580500Y-56183500D03*
X126580500Y-60783500D03*
X126580500Y-58483500D03*
D15*
X132880500Y-58483500D03*
%TD*%
D14*
%TO.C,U1*%
X126841720Y-44761120D03*
X126841720Y-49361120D03*
X126841720Y-47061120D03*
D15*
X133141720Y-47061120D03*
%TD*%
D16*
%TO.C,SW2*%
X162115500Y-51145000D03*
X162115500Y-59345000D03*
D17*
X162115500Y-53245000D03*
X162115500Y-55245000D03*
D18*
X162115500Y-57245000D03*
%TD*%
D16*
%TO.C,SW1*%
X129286000Y-22665500D03*
X129286000Y-30865500D03*
D17*
X129286000Y-24765500D03*
X129286000Y-26765500D03*
D18*
X129286000Y-28765500D03*
%TD*%
D19*
%TO.C,RV1*%
X151086500Y-39888500D03*
D20*
X152336500Y-42788500D03*
D19*
X153586500Y-39888500D03*
%TD*%
%TO.C,R16*%
G36*
G01*
X151317500Y-29394999D02*
X151317500Y-30295001D01*
G75*
G02*
X151067501Y-30545000I-249999J0D01*
G01*
X150367499Y-30545000D01*
G75*
G02*
X150117500Y-30295001I0J249999D01*
G01*
X150117500Y-29394999D01*
G75*
G02*
X150367499Y-29145000I249999J0D01*
G01*
X151067501Y-29145000D01*
G75*
G02*
X151317500Y-29394999I0J-249999D01*
G01*
G37*
G36*
G01*
X153317500Y-29394999D02*
X153317500Y-30295001D01*
G75*
G02*
X153067501Y-30545000I-249999J0D01*
G01*
X152367499Y-30545000D01*
G75*
G02*
X152117500Y-30295001I0J249999D01*
G01*
X152117500Y-29394999D01*
G75*
G02*
X152367499Y-29145000I249999J0D01*
G01*
X153067501Y-29145000D01*
G75*
G02*
X153317500Y-29394999I0J-249999D01*
G01*
G37*
%TD*%
%TO.C,R14*%
G36*
G01*
X149603000Y-18155499D02*
X149603000Y-19055501D01*
G75*
G02*
X149353001Y-19305500I-249999J0D01*
G01*
X148652999Y-19305500D01*
G75*
G02*
X148403000Y-19055501I0J249999D01*
G01*
X148403000Y-18155499D01*
G75*
G02*
X148652999Y-17905500I249999J0D01*
G01*
X149353001Y-17905500D01*
G75*
G02*
X149603000Y-18155499I0J-249999D01*
G01*
G37*
G36*
G01*
X151603000Y-18155499D02*
X151603000Y-19055501D01*
G75*
G02*
X151353001Y-19305500I-249999J0D01*
G01*
X150652999Y-19305500D01*
G75*
G02*
X150403000Y-19055501I0J249999D01*
G01*
X150403000Y-18155499D01*
G75*
G02*
X150652999Y-17905500I249999J0D01*
G01*
X151353001Y-17905500D01*
G75*
G02*
X151603000Y-18155499I0J-249999D01*
G01*
G37*
%TD*%
%TO.C,R13*%
G36*
G01*
X149863000Y-25913501D02*
X149863000Y-25013499D01*
G75*
G02*
X150112999Y-24763500I249999J0D01*
G01*
X150813001Y-24763500D01*
G75*
G02*
X151063000Y-25013499I0J-249999D01*
G01*
X151063000Y-25913501D01*
G75*
G02*
X150813001Y-26163500I-249999J0D01*
G01*
X150112999Y-26163500D01*
G75*
G02*
X149863000Y-25913501I0J249999D01*
G01*
G37*
G36*
G01*
X147863000Y-25913501D02*
X147863000Y-25013499D01*
G75*
G02*
X148112999Y-24763500I249999J0D01*
G01*
X148813001Y-24763500D01*
G75*
G02*
X149063000Y-25013499I0J-249999D01*
G01*
X149063000Y-25913501D01*
G75*
G02*
X148813001Y-26163500I-249999J0D01*
G01*
X148112999Y-26163500D01*
G75*
G02*
X147863000Y-25913501I0J249999D01*
G01*
G37*
%TD*%
%TO.C,R12*%
G36*
G01*
X139093400Y-29162161D02*
X139093400Y-28262159D01*
G75*
G02*
X139343399Y-28012160I249999J0D01*
G01*
X140043401Y-28012160D01*
G75*
G02*
X140293400Y-28262159I0J-249999D01*
G01*
X140293400Y-29162161D01*
G75*
G02*
X140043401Y-29412160I-249999J0D01*
G01*
X139343399Y-29412160D01*
G75*
G02*
X139093400Y-29162161I0J249999D01*
G01*
G37*
G36*
G01*
X137093400Y-29162161D02*
X137093400Y-28262159D01*
G75*
G02*
X137343399Y-28012160I249999J0D01*
G01*
X138043401Y-28012160D01*
G75*
G02*
X138293400Y-28262159I0J-249999D01*
G01*
X138293400Y-29162161D01*
G75*
G02*
X138043401Y-29412160I-249999J0D01*
G01*
X137343399Y-29412160D01*
G75*
G02*
X137093400Y-29162161I0J249999D01*
G01*
G37*
%TD*%
%TO.C,R11*%
G36*
G01*
X139093400Y-25484241D02*
X139093400Y-24584239D01*
G75*
G02*
X139343399Y-24334240I249999J0D01*
G01*
X140043401Y-24334240D01*
G75*
G02*
X140293400Y-24584239I0J-249999D01*
G01*
X140293400Y-25484241D01*
G75*
G02*
X140043401Y-25734240I-249999J0D01*
G01*
X139343399Y-25734240D01*
G75*
G02*
X139093400Y-25484241I0J249999D01*
G01*
G37*
G36*
G01*
X137093400Y-25484241D02*
X137093400Y-24584239D01*
G75*
G02*
X137343399Y-24334240I249999J0D01*
G01*
X138043401Y-24334240D01*
G75*
G02*
X138293400Y-24584239I0J-249999D01*
G01*
X138293400Y-25484241D01*
G75*
G02*
X138043401Y-25734240I-249999J0D01*
G01*
X137343399Y-25734240D01*
G75*
G02*
X137093400Y-25484241I0J249999D01*
G01*
G37*
%TD*%
%TO.C,R10*%
G36*
G01*
X135324001Y-27302000D02*
X134423999Y-27302000D01*
G75*
G02*
X134174000Y-27052001I0J249999D01*
G01*
X134174000Y-26351999D01*
G75*
G02*
X134423999Y-26102000I249999J0D01*
G01*
X135324001Y-26102000D01*
G75*
G02*
X135574000Y-26351999I0J-249999D01*
G01*
X135574000Y-27052001D01*
G75*
G02*
X135324001Y-27302000I-249999J0D01*
G01*
G37*
G36*
G01*
X135324001Y-29302000D02*
X134423999Y-29302000D01*
G75*
G02*
X134174000Y-29052001I0J249999D01*
G01*
X134174000Y-28351999D01*
G75*
G02*
X134423999Y-28102000I249999J0D01*
G01*
X135324001Y-28102000D01*
G75*
G02*
X135574000Y-28351999I0J-249999D01*
G01*
X135574000Y-29052001D01*
G75*
G02*
X135324001Y-29302000I-249999J0D01*
G01*
G37*
%TD*%
%TO.C,R9*%
G36*
G01*
X155873500Y-56890499D02*
X155873500Y-57790501D01*
G75*
G02*
X155623501Y-58040500I-249999J0D01*
G01*
X154923499Y-58040500D01*
G75*
G02*
X154673500Y-57790501I0J249999D01*
G01*
X154673500Y-56890499D01*
G75*
G02*
X154923499Y-56640500I249999J0D01*
G01*
X155623501Y-56640500D01*
G75*
G02*
X155873500Y-56890499I0J-249999D01*
G01*
G37*
G36*
G01*
X157873500Y-56890499D02*
X157873500Y-57790501D01*
G75*
G02*
X157623501Y-58040500I-249999J0D01*
G01*
X156923499Y-58040500D01*
G75*
G02*
X156673500Y-57790501I0J249999D01*
G01*
X156673500Y-56890499D01*
G75*
G02*
X156923499Y-56640500I249999J0D01*
G01*
X157623501Y-56640500D01*
G75*
G02*
X157873500Y-56890499I0J-249999D01*
G01*
G37*
%TD*%
%TO.C,R8*%
G36*
G01*
X150412500Y-56890499D02*
X150412500Y-57790501D01*
G75*
G02*
X150162501Y-58040500I-249999J0D01*
G01*
X149462499Y-58040500D01*
G75*
G02*
X149212500Y-57790501I0J249999D01*
G01*
X149212500Y-56890499D01*
G75*
G02*
X149462499Y-56640500I249999J0D01*
G01*
X150162501Y-56640500D01*
G75*
G02*
X150412500Y-56890499I0J-249999D01*
G01*
G37*
G36*
G01*
X152412500Y-56890499D02*
X152412500Y-57790501D01*
G75*
G02*
X152162501Y-58040500I-249999J0D01*
G01*
X151462499Y-58040500D01*
G75*
G02*
X151212500Y-57790501I0J249999D01*
G01*
X151212500Y-56890499D01*
G75*
G02*
X151462499Y-56640500I249999J0D01*
G01*
X152162501Y-56640500D01*
G75*
G02*
X152412500Y-56890499I0J-249999D01*
G01*
G37*
%TD*%
%TO.C,R7*%
G36*
G01*
X147568499Y-41357500D02*
X148468501Y-41357500D01*
G75*
G02*
X148718500Y-41607499I0J-249999D01*
G01*
X148718500Y-42307501D01*
G75*
G02*
X148468501Y-42557500I-249999J0D01*
G01*
X147568499Y-42557500D01*
G75*
G02*
X147318500Y-42307501I0J249999D01*
G01*
X147318500Y-41607499D01*
G75*
G02*
X147568499Y-41357500I249999J0D01*
G01*
G37*
G36*
G01*
X147568499Y-39357500D02*
X148468501Y-39357500D01*
G75*
G02*
X148718500Y-39607499I0J-249999D01*
G01*
X148718500Y-40307501D01*
G75*
G02*
X148468501Y-40557500I-249999J0D01*
G01*
X147568499Y-40557500D01*
G75*
G02*
X147318500Y-40307501I0J249999D01*
G01*
X147318500Y-39607499D01*
G75*
G02*
X147568499Y-39357500I249999J0D01*
G01*
G37*
%TD*%
%TO.C,R6*%
G36*
G01*
X145697500Y-56763499D02*
X145697500Y-57663501D01*
G75*
G02*
X145447501Y-57913500I-249999J0D01*
G01*
X144747499Y-57913500D01*
G75*
G02*
X144497500Y-57663501I0J249999D01*
G01*
X144497500Y-56763499D01*
G75*
G02*
X144747499Y-56513500I249999J0D01*
G01*
X145447501Y-56513500D01*
G75*
G02*
X145697500Y-56763499I0J-249999D01*
G01*
G37*
G36*
G01*
X147697500Y-56763499D02*
X147697500Y-57663501D01*
G75*
G02*
X147447501Y-57913500I-249999J0D01*
G01*
X146747499Y-57913500D01*
G75*
G02*
X146497500Y-57663501I0J249999D01*
G01*
X146497500Y-56763499D01*
G75*
G02*
X146747499Y-56513500I249999J0D01*
G01*
X147447501Y-56513500D01*
G75*
G02*
X147697500Y-56763499I0J-249999D01*
G01*
G37*
%TD*%
%TO.C,R5*%
G36*
G01*
X122780500Y-62235501D02*
X122780500Y-61335499D01*
G75*
G02*
X123030499Y-61085500I249999J0D01*
G01*
X123730501Y-61085500D01*
G75*
G02*
X123980500Y-61335499I0J-249999D01*
G01*
X123980500Y-62235501D01*
G75*
G02*
X123730501Y-62485500I-249999J0D01*
G01*
X123030499Y-62485500D01*
G75*
G02*
X122780500Y-62235501I0J249999D01*
G01*
G37*
G36*
G01*
X120780500Y-62235501D02*
X120780500Y-61335499D01*
G75*
G02*
X121030499Y-61085500I249999J0D01*
G01*
X121730501Y-61085500D01*
G75*
G02*
X121980500Y-61335499I0J-249999D01*
G01*
X121980500Y-62235501D01*
G75*
G02*
X121730501Y-62485500I-249999J0D01*
G01*
X121030499Y-62485500D01*
G75*
G02*
X120780500Y-62235501I0J249999D01*
G01*
G37*
%TD*%
%TO.C,R4*%
G36*
G01*
X121837500Y-50159499D02*
X121837500Y-51059501D01*
G75*
G02*
X121587501Y-51309500I-249999J0D01*
G01*
X120887499Y-51309500D01*
G75*
G02*
X120637500Y-51059501I0J249999D01*
G01*
X120637500Y-50159499D01*
G75*
G02*
X120887499Y-49909500I249999J0D01*
G01*
X121587501Y-49909500D01*
G75*
G02*
X121837500Y-50159499I0J-249999D01*
G01*
G37*
G36*
G01*
X123837500Y-50159499D02*
X123837500Y-51059501D01*
G75*
G02*
X123587501Y-51309500I-249999J0D01*
G01*
X122887499Y-51309500D01*
G75*
G02*
X122637500Y-51059501I0J249999D01*
G01*
X122637500Y-50159499D01*
G75*
G02*
X122887499Y-49909500I249999J0D01*
G01*
X123587501Y-49909500D01*
G75*
G02*
X123837500Y-50159499I0J-249999D01*
G01*
G37*
%TD*%
%TO.C,R3*%
G36*
G01*
X118192500Y-62235501D02*
X118192500Y-61335499D01*
G75*
G02*
X118442499Y-61085500I249999J0D01*
G01*
X119142501Y-61085500D01*
G75*
G02*
X119392500Y-61335499I0J-249999D01*
G01*
X119392500Y-62235501D01*
G75*
G02*
X119142501Y-62485500I-249999J0D01*
G01*
X118442499Y-62485500D01*
G75*
G02*
X118192500Y-62235501I0J249999D01*
G01*
G37*
G36*
G01*
X116192500Y-62235501D02*
X116192500Y-61335499D01*
G75*
G02*
X116442499Y-61085500I249999J0D01*
G01*
X117142501Y-61085500D01*
G75*
G02*
X117392500Y-61335499I0J-249999D01*
G01*
X117392500Y-62235501D01*
G75*
G02*
X117142501Y-62485500I-249999J0D01*
G01*
X116442499Y-62485500D01*
G75*
G02*
X116192500Y-62235501I0J249999D01*
G01*
G37*
%TD*%
%TO.C,R2*%
G36*
G01*
X116757500Y-50143499D02*
X116757500Y-51043501D01*
G75*
G02*
X116507501Y-51293500I-249999J0D01*
G01*
X115807499Y-51293500D01*
G75*
G02*
X115557500Y-51043501I0J249999D01*
G01*
X115557500Y-50143499D01*
G75*
G02*
X115807499Y-49893500I249999J0D01*
G01*
X116507501Y-49893500D01*
G75*
G02*
X116757500Y-50143499I0J-249999D01*
G01*
G37*
G36*
G01*
X118757500Y-50143499D02*
X118757500Y-51043501D01*
G75*
G02*
X118507501Y-51293500I-249999J0D01*
G01*
X117807499Y-51293500D01*
G75*
G02*
X117557500Y-51043501I0J249999D01*
G01*
X117557500Y-50143499D01*
G75*
G02*
X117807499Y-49893500I249999J0D01*
G01*
X118507501Y-49893500D01*
G75*
G02*
X118757500Y-50143499I0J-249999D01*
G01*
G37*
%TD*%
%TO.C,R1*%
G36*
G01*
X114725500Y-28442499D02*
X114725500Y-29342501D01*
G75*
G02*
X114475501Y-29592500I-249999J0D01*
G01*
X113775499Y-29592500D01*
G75*
G02*
X113525500Y-29342501I0J249999D01*
G01*
X113525500Y-28442499D01*
G75*
G02*
X113775499Y-28192500I249999J0D01*
G01*
X114475501Y-28192500D01*
G75*
G02*
X114725500Y-28442499I0J-249999D01*
G01*
G37*
G36*
G01*
X116725500Y-28442499D02*
X116725500Y-29342501D01*
G75*
G02*
X116475501Y-29592500I-249999J0D01*
G01*
X115775499Y-29592500D01*
G75*
G02*
X115525500Y-29342501I0J249999D01*
G01*
X115525500Y-28442499D01*
G75*
G02*
X115775499Y-28192500I249999J0D01*
G01*
X116475501Y-28192500D01*
G75*
G02*
X116725500Y-28442499I0J-249999D01*
G01*
G37*
%TD*%
D21*
%TO.C,Q7*%
X145177000Y-16528500D03*
X146127000Y-18528500D03*
X144227000Y-18528500D03*
%TD*%
D22*
%TO.C,Q6*%
X134985000Y-20637500D03*
X132985000Y-21587500D03*
X132985000Y-19687500D03*
%TD*%
%TO.C,Q5*%
X138858500Y-20637500D03*
X136858500Y-21587500D03*
X136858500Y-19687500D03*
%TD*%
%TO.C,Q4*%
X124550680Y-34925000D03*
X122550680Y-35875000D03*
X122550680Y-33975000D03*
%TD*%
%TO.C,Q3*%
X124550680Y-29667200D03*
X122550680Y-30617200D03*
X122550680Y-28717200D03*
%TD*%
%TO.C,Q2*%
X120151400Y-34891980D03*
X118151400Y-35841980D03*
X118151400Y-33941980D03*
%TD*%
%TO.C,Q1*%
X120151400Y-29667200D03*
X118151400Y-30617200D03*
X118151400Y-28717200D03*
%TD*%
D23*
%TO.C,J2*%
X109156500Y-58102500D03*
X109156500Y-53102500D03*
D24*
X109156500Y-48102500D03*
%TD*%
D25*
%TO.C,J1*%
X111696500Y-34560500D03*
D26*
X111696500Y-39560500D03*
%TD*%
D27*
%TO.C,D4*%
X132270500Y-66357500D03*
D28*
X122110500Y-66357500D03*
%TD*%
D27*
%TO.C,D3*%
X122999500Y-39687500D03*
D28*
X133159500Y-39687500D03*
%TD*%
D27*
%TO.C,D2*%
X137350500Y-56197500D03*
D28*
X137350500Y-66357500D03*
%TD*%
D27*
%TO.C,D1*%
X138239500Y-39687500D03*
D28*
X138239500Y-49847500D03*
%TD*%
%TO.C,C7*%
G36*
G01*
X146061000Y-21249003D02*
X146061000Y-19948997D01*
G75*
G02*
X146310997Y-19699000I249997J0D01*
G01*
X147136003Y-19699000D01*
G75*
G02*
X147386000Y-19948997I0J-249997D01*
G01*
X147386000Y-21249003D01*
G75*
G02*
X147136003Y-21499000I-249997J0D01*
G01*
X146310997Y-21499000D01*
G75*
G02*
X146061000Y-21249003I0J249997D01*
G01*
G37*
G36*
G01*
X142936000Y-21249003D02*
X142936000Y-19948997D01*
G75*
G02*
X143185997Y-19699000I249997J0D01*
G01*
X144011003Y-19699000D01*
G75*
G02*
X144261000Y-19948997I0J-249997D01*
G01*
X144261000Y-21249003D01*
G75*
G02*
X144011003Y-21499000I-249997J0D01*
G01*
X143185997Y-21499000D01*
G75*
G02*
X142936000Y-21249003I0J249997D01*
G01*
G37*
%TD*%
%TO.C,C6*%
G36*
G01*
X154791500Y-63203500D02*
X153691500Y-63203500D01*
G75*
G02*
X153441500Y-62953500I0J250000D01*
G01*
X153441500Y-60453500D01*
G75*
G02*
X153691500Y-60203500I250000J0D01*
G01*
X154791500Y-60203500D01*
G75*
G02*
X155041500Y-60453500I0J-250000D01*
G01*
X155041500Y-62953500D01*
G75*
G02*
X154791500Y-63203500I-250000J0D01*
G01*
G37*
G36*
G01*
X154791500Y-67603500D02*
X153691500Y-67603500D01*
G75*
G02*
X153441500Y-67353500I0J250000D01*
G01*
X153441500Y-64853500D01*
G75*
G02*
X153691500Y-64603500I250000J0D01*
G01*
X154791500Y-64603500D01*
G75*
G02*
X155041500Y-64853500I0J-250000D01*
G01*
X155041500Y-67353500D01*
G75*
G02*
X154791500Y-67603500I-250000J0D01*
G01*
G37*
%TD*%
%TO.C,C5*%
G36*
G01*
X151532500Y-48937500D02*
X152632500Y-48937500D01*
G75*
G02*
X152882500Y-49187500I0J-250000D01*
G01*
X152882500Y-51687500D01*
G75*
G02*
X152632500Y-51937500I-250000J0D01*
G01*
X151532500Y-51937500D01*
G75*
G02*
X151282500Y-51687500I0J250000D01*
G01*
X151282500Y-49187500D01*
G75*
G02*
X151532500Y-48937500I250000J0D01*
G01*
G37*
G36*
G01*
X151532500Y-44537500D02*
X152632500Y-44537500D01*
G75*
G02*
X152882500Y-44787500I0J-250000D01*
G01*
X152882500Y-47287500D01*
G75*
G02*
X152632500Y-47537500I-250000J0D01*
G01*
X151532500Y-47537500D01*
G75*
G02*
X151282500Y-47287500I0J250000D01*
G01*
X151282500Y-44787500D01*
G75*
G02*
X151532500Y-44537500I250000J0D01*
G01*
G37*
%TD*%
%TO.C,C4*%
G36*
G01*
X145901500Y-62990500D02*
X144801500Y-62990500D01*
G75*
G02*
X144551500Y-62740500I0J250000D01*
G01*
X144551500Y-60240500D01*
G75*
G02*
X144801500Y-59990500I250000J0D01*
G01*
X145901500Y-59990500D01*
G75*
G02*
X146151500Y-60240500I0J-250000D01*
G01*
X146151500Y-62740500D01*
G75*
G02*
X145901500Y-62990500I-250000J0D01*
G01*
G37*
G36*
G01*
X145901500Y-67390500D02*
X144801500Y-67390500D01*
G75*
G02*
X144551500Y-67140500I0J250000D01*
G01*
X144551500Y-64640500D01*
G75*
G02*
X144801500Y-64390500I250000J0D01*
G01*
X145901500Y-64390500D01*
G75*
G02*
X146151500Y-64640500I0J-250000D01*
G01*
X146151500Y-67140500D01*
G75*
G02*
X145901500Y-67390500I-250000J0D01*
G01*
G37*
%TD*%
%TO.C,C3*%
G36*
G01*
X143023500Y-48855500D02*
X144123500Y-48855500D01*
G75*
G02*
X144373500Y-49105500I0J-250000D01*
G01*
X144373500Y-51605500D01*
G75*
G02*
X144123500Y-51855500I-250000J0D01*
G01*
X143023500Y-51855500D01*
G75*
G02*
X142773500Y-51605500I0J250000D01*
G01*
X142773500Y-49105500D01*
G75*
G02*
X143023500Y-48855500I250000J0D01*
G01*
G37*
G36*
G01*
X143023500Y-44455500D02*
X144123500Y-44455500D01*
G75*
G02*
X144373500Y-44705500I0J-250000D01*
G01*
X144373500Y-47205500D01*
G75*
G02*
X144123500Y-47455500I-250000J0D01*
G01*
X143023500Y-47455500D01*
G75*
G02*
X142773500Y-47205500I0J250000D01*
G01*
X142773500Y-44705500D01*
G75*
G02*
X143023500Y-44455500I250000J0D01*
G01*
G37*
%TD*%
%TO.C,C2*%
G36*
G01*
X120864500Y-57001500D02*
X120864500Y-55901500D01*
G75*
G02*
X121114500Y-55651500I250000J0D01*
G01*
X123614500Y-55651500D01*
G75*
G02*
X123864500Y-55901500I0J-250000D01*
G01*
X123864500Y-57001500D01*
G75*
G02*
X123614500Y-57251500I-250000J0D01*
G01*
X121114500Y-57251500D01*
G75*
G02*
X120864500Y-57001500I0J250000D01*
G01*
G37*
G36*
G01*
X116464500Y-57001500D02*
X116464500Y-55901500D01*
G75*
G02*
X116714500Y-55651500I250000J0D01*
G01*
X119214500Y-55651500D01*
G75*
G02*
X119464500Y-55901500I0J-250000D01*
G01*
X119464500Y-57001500D01*
G75*
G02*
X119214500Y-57251500I-250000J0D01*
G01*
X116714500Y-57251500D01*
G75*
G02*
X116464500Y-57001500I0J250000D01*
G01*
G37*
%TD*%
%TO.C,C1*%
G36*
G01*
X119505500Y-44217500D02*
X119505500Y-45317500D01*
G75*
G02*
X119255500Y-45567500I-250000J0D01*
G01*
X116755500Y-45567500D01*
G75*
G02*
X116505500Y-45317500I0J250000D01*
G01*
X116505500Y-44217500D01*
G75*
G02*
X116755500Y-43967500I250000J0D01*
G01*
X119255500Y-43967500D01*
G75*
G02*
X119505500Y-44217500I0J-250000D01*
G01*
G37*
G36*
G01*
X123905500Y-44217500D02*
X123905500Y-45317500D01*
G75*
G02*
X123655500Y-45567500I-250000J0D01*
G01*
X121155500Y-45567500D01*
G75*
G02*
X120905500Y-45317500I0J250000D01*
G01*
X120905500Y-44217500D01*
G75*
G02*
X121155500Y-43967500I250000J0D01*
G01*
X123655500Y-43967500D01*
G75*
G02*
X123905500Y-44217500I0J-250000D01*
G01*
G37*
%TD*%
M02*
