%TF.GenerationSoftware,KiCad,Pcbnew,(5.1.8-0-10_14)*%
%TF.CreationDate,2022-02-24T11:51:05-06:00*%
%TF.ProjectId,SAQ_KiCad_alpha,5341515f-4b69-4436-9164-5f616c706861,rev?*%
%TF.SameCoordinates,Original*%
%TF.FileFunction,Copper,L2,Bot*%
%TF.FilePolarity,Positive*%
%FSLAX46Y46*%
G04 Gerber Fmt 4.6, Leading zero omitted, Abs format (unit mm)*
G04 Created by KiCad (PCBNEW (5.1.8-0-10_14)) date 2022-02-24 11:51:05*
%MOMM*%
%LPD*%
G01*
G04 APERTURE LIST*
%TA.AperFunction,ComponentPad*%
%ADD10R,1.000000X1.000000*%
%TD*%
%TA.AperFunction,ComponentPad*%
%ADD11C,2.250000*%
%TD*%
%TA.AperFunction,ComponentPad*%
%ADD12C,2.050000*%
%TD*%
%TA.AperFunction,SMDPad,CuDef*%
%ADD13R,1.100000X1.300000*%
%TD*%
%TA.AperFunction,ComponentPad*%
%ADD14O,3.500000X2.200000*%
%TD*%
%TA.AperFunction,ComponentPad*%
%ADD15O,2.500000X1.500000*%
%TD*%
%TA.AperFunction,ComponentPad*%
%ADD16R,2.500000X1.500000*%
%TD*%
%TA.AperFunction,ComponentPad*%
%ADD17C,2.500000*%
%TD*%
%TA.AperFunction,ComponentPad*%
%ADD18R,2.500000X2.500000*%
%TD*%
%TA.AperFunction,ComponentPad*%
%ADD19C,2.800000*%
%TD*%
%TA.AperFunction,ComponentPad*%
%ADD20R,2.800000X2.800000*%
%TD*%
%TA.AperFunction,ComponentPad*%
%ADD21O,2.200000X2.200000*%
%TD*%
%TA.AperFunction,ComponentPad*%
%ADD22R,2.200000X2.200000*%
%TD*%
%TA.AperFunction,ViaPad*%
%ADD23C,0.800000*%
%TD*%
%TA.AperFunction,Conductor*%
%ADD24C,0.250000*%
%TD*%
%TA.AperFunction,Conductor*%
%ADD25C,0.500000*%
%TD*%
%TA.AperFunction,Conductor*%
%ADD26C,0.254000*%
%TD*%
%TA.AperFunction,Conductor*%
%ADD27C,0.100000*%
%TD*%
G04 APERTURE END LIST*
D10*
%TO.P,TP5,1*%
%TO.N,CLK*%
X164719000Y-47815500D03*
%TD*%
%TO.P,U5,14*%
%TO.N,+3V3*%
%TA.AperFunction,SMDPad,CuDef*%
G36*
G01*
X166092000Y-43965000D02*
X166092000Y-43665000D01*
G75*
G02*
X166242000Y-43515000I150000J0D01*
G01*
X167892000Y-43515000D01*
G75*
G02*
X168042000Y-43665000I0J-150000D01*
G01*
X168042000Y-43965000D01*
G75*
G02*
X167892000Y-44115000I-150000J0D01*
G01*
X166242000Y-44115000D01*
G75*
G02*
X166092000Y-43965000I0J150000D01*
G01*
G37*
%TD.AperFunction*%
%TO.P,U5,13*%
%TA.AperFunction,SMDPad,CuDef*%
G36*
G01*
X166092000Y-42695000D02*
X166092000Y-42395000D01*
G75*
G02*
X166242000Y-42245000I150000J0D01*
G01*
X167892000Y-42245000D01*
G75*
G02*
X168042000Y-42395000I0J-150000D01*
G01*
X168042000Y-42695000D01*
G75*
G02*
X167892000Y-42845000I-150000J0D01*
G01*
X166242000Y-42845000D01*
G75*
G02*
X166092000Y-42695000I0J150000D01*
G01*
G37*
%TD.AperFunction*%
%TO.P,U5,12*%
%TO.N,Net-(R15-Pad2)*%
%TA.AperFunction,SMDPad,CuDef*%
G36*
G01*
X166092000Y-41425000D02*
X166092000Y-41125000D01*
G75*
G02*
X166242000Y-40975000I150000J0D01*
G01*
X167892000Y-40975000D01*
G75*
G02*
X168042000Y-41125000I0J-150000D01*
G01*
X168042000Y-41425000D01*
G75*
G02*
X167892000Y-41575000I-150000J0D01*
G01*
X166242000Y-41575000D01*
G75*
G02*
X166092000Y-41425000I0J150000D01*
G01*
G37*
%TD.AperFunction*%
%TO.P,U5,11*%
%TO.N,CLK*%
%TA.AperFunction,SMDPad,CuDef*%
G36*
G01*
X166092000Y-40155000D02*
X166092000Y-39855000D01*
G75*
G02*
X166242000Y-39705000I150000J0D01*
G01*
X167892000Y-39705000D01*
G75*
G02*
X168042000Y-39855000I0J-150000D01*
G01*
X168042000Y-40155000D01*
G75*
G02*
X167892000Y-40305000I-150000J0D01*
G01*
X166242000Y-40305000D01*
G75*
G02*
X166092000Y-40155000I0J150000D01*
G01*
G37*
%TD.AperFunction*%
%TO.P,U5,10*%
%TO.N,+3V3*%
%TA.AperFunction,SMDPad,CuDef*%
G36*
G01*
X166092000Y-38885000D02*
X166092000Y-38585000D01*
G75*
G02*
X166242000Y-38435000I150000J0D01*
G01*
X167892000Y-38435000D01*
G75*
G02*
X168042000Y-38585000I0J-150000D01*
G01*
X168042000Y-38885000D01*
G75*
G02*
X167892000Y-39035000I-150000J0D01*
G01*
X166242000Y-39035000D01*
G75*
G02*
X166092000Y-38885000I0J150000D01*
G01*
G37*
%TD.AperFunction*%
%TO.P,U5,9*%
%TO.N,Net-(R18-Pad1)*%
%TA.AperFunction,SMDPad,CuDef*%
G36*
G01*
X166092000Y-37615000D02*
X166092000Y-37315000D01*
G75*
G02*
X166242000Y-37165000I150000J0D01*
G01*
X167892000Y-37165000D01*
G75*
G02*
X168042000Y-37315000I0J-150000D01*
G01*
X168042000Y-37615000D01*
G75*
G02*
X167892000Y-37765000I-150000J0D01*
G01*
X166242000Y-37765000D01*
G75*
G02*
X166092000Y-37615000I0J150000D01*
G01*
G37*
%TD.AperFunction*%
%TO.P,U5,8*%
%TO.N,Net-(U5-Pad8)*%
%TA.AperFunction,SMDPad,CuDef*%
G36*
G01*
X166092000Y-36345000D02*
X166092000Y-36045000D01*
G75*
G02*
X166242000Y-35895000I150000J0D01*
G01*
X167892000Y-35895000D01*
G75*
G02*
X168042000Y-36045000I0J-150000D01*
G01*
X168042000Y-36345000D01*
G75*
G02*
X167892000Y-36495000I-150000J0D01*
G01*
X166242000Y-36495000D01*
G75*
G02*
X166092000Y-36345000I0J150000D01*
G01*
G37*
%TD.AperFunction*%
%TO.P,U5,7*%
%TO.N,GND*%
%TA.AperFunction,SMDPad,CuDef*%
G36*
G01*
X161142000Y-36345000D02*
X161142000Y-36045000D01*
G75*
G02*
X161292000Y-35895000I150000J0D01*
G01*
X162942000Y-35895000D01*
G75*
G02*
X163092000Y-36045000I0J-150000D01*
G01*
X163092000Y-36345000D01*
G75*
G02*
X162942000Y-36495000I-150000J0D01*
G01*
X161292000Y-36495000D01*
G75*
G02*
X161142000Y-36345000I0J150000D01*
G01*
G37*
%TD.AperFunction*%
%TO.P,U5,6*%
%TO.N,Net-(U5-Pad6)*%
%TA.AperFunction,SMDPad,CuDef*%
G36*
G01*
X161142000Y-37615000D02*
X161142000Y-37315000D01*
G75*
G02*
X161292000Y-37165000I150000J0D01*
G01*
X162942000Y-37165000D01*
G75*
G02*
X163092000Y-37315000I0J-150000D01*
G01*
X163092000Y-37615000D01*
G75*
G02*
X162942000Y-37765000I-150000J0D01*
G01*
X161292000Y-37765000D01*
G75*
G02*
X161142000Y-37615000I0J150000D01*
G01*
G37*
%TD.AperFunction*%
%TO.P,U5,5*%
%TO.N,Net-(R15-Pad2)*%
%TA.AperFunction,SMDPad,CuDef*%
G36*
G01*
X161142000Y-38885000D02*
X161142000Y-38585000D01*
G75*
G02*
X161292000Y-38435000I150000J0D01*
G01*
X162942000Y-38435000D01*
G75*
G02*
X163092000Y-38585000I0J-150000D01*
G01*
X163092000Y-38885000D01*
G75*
G02*
X162942000Y-39035000I-150000J0D01*
G01*
X161292000Y-39035000D01*
G75*
G02*
X161142000Y-38885000I0J150000D01*
G01*
G37*
%TD.AperFunction*%
%TO.P,U5,4*%
%TO.N,+3V3*%
%TA.AperFunction,SMDPad,CuDef*%
G36*
G01*
X161142000Y-40155000D02*
X161142000Y-39855000D01*
G75*
G02*
X161292000Y-39705000I150000J0D01*
G01*
X162942000Y-39705000D01*
G75*
G02*
X163092000Y-39855000I0J-150000D01*
G01*
X163092000Y-40155000D01*
G75*
G02*
X162942000Y-40305000I-150000J0D01*
G01*
X161292000Y-40305000D01*
G75*
G02*
X161142000Y-40155000I0J150000D01*
G01*
G37*
%TD.AperFunction*%
%TO.P,U5,3*%
%TO.N,CLK*%
%TA.AperFunction,SMDPad,CuDef*%
G36*
G01*
X161142000Y-41425000D02*
X161142000Y-41125000D01*
G75*
G02*
X161292000Y-40975000I150000J0D01*
G01*
X162942000Y-40975000D01*
G75*
G02*
X163092000Y-41125000I0J-150000D01*
G01*
X163092000Y-41425000D01*
G75*
G02*
X162942000Y-41575000I-150000J0D01*
G01*
X161292000Y-41575000D01*
G75*
G02*
X161142000Y-41425000I0J150000D01*
G01*
G37*
%TD.AperFunction*%
%TO.P,U5,2*%
%TO.N,Net-(C8-Pad1)*%
%TA.AperFunction,SMDPad,CuDef*%
G36*
G01*
X161142000Y-42695000D02*
X161142000Y-42395000D01*
G75*
G02*
X161292000Y-42245000I150000J0D01*
G01*
X162942000Y-42245000D01*
G75*
G02*
X163092000Y-42395000I0J-150000D01*
G01*
X163092000Y-42695000D01*
G75*
G02*
X162942000Y-42845000I-150000J0D01*
G01*
X161292000Y-42845000D01*
G75*
G02*
X161142000Y-42695000I0J150000D01*
G01*
G37*
%TD.AperFunction*%
%TO.P,U5,1*%
%TO.N,+3V3*%
%TA.AperFunction,SMDPad,CuDef*%
G36*
G01*
X161142000Y-43965000D02*
X161142000Y-43665000D01*
G75*
G02*
X161292000Y-43515000I150000J0D01*
G01*
X162942000Y-43515000D01*
G75*
G02*
X163092000Y-43665000I0J-150000D01*
G01*
X163092000Y-43965000D01*
G75*
G02*
X162942000Y-44115000I-150000J0D01*
G01*
X161292000Y-44115000D01*
G75*
G02*
X161142000Y-43965000I0J150000D01*
G01*
G37*
%TD.AperFunction*%
%TD*%
D11*
%TO.P,J4,2*%
%TO.N,GND*%
X162369500Y-29527500D03*
X162369500Y-24447500D03*
X167449500Y-24447500D03*
X167449500Y-29527500D03*
D12*
%TO.P,J4,1*%
%TO.N,Net-(J4-Pad1)*%
X164909500Y-26987500D03*
%TD*%
D11*
%TO.P,J3,2*%
%TO.N,GND*%
X115189000Y-24003000D03*
X115189000Y-18923000D03*
X120269000Y-18923000D03*
X120269000Y-24003000D03*
D12*
%TO.P,J3,1*%
%TO.N,Net-(J3-Pad1)*%
X117729000Y-21463000D03*
%TD*%
%TO.P,C15,2*%
%TO.N,GND*%
%TA.AperFunction,SMDPad,CuDef*%
G36*
G01*
X150417500Y-28082003D02*
X150417500Y-26781997D01*
G75*
G02*
X150667497Y-26532000I249997J0D01*
G01*
X151492503Y-26532000D01*
G75*
G02*
X151742500Y-26781997I0J-249997D01*
G01*
X151742500Y-28082003D01*
G75*
G02*
X151492503Y-28332000I-249997J0D01*
G01*
X150667497Y-28332000D01*
G75*
G02*
X150417500Y-28082003I0J249997D01*
G01*
G37*
%TD.AperFunction*%
%TO.P,C15,1*%
%TO.N,-3V3*%
%TA.AperFunction,SMDPad,CuDef*%
G36*
G01*
X147292500Y-28082003D02*
X147292500Y-26781997D01*
G75*
G02*
X147542497Y-26532000I249997J0D01*
G01*
X148367503Y-26532000D01*
G75*
G02*
X148617500Y-26781997I0J-249997D01*
G01*
X148617500Y-28082003D01*
G75*
G02*
X148367503Y-28332000I-249997J0D01*
G01*
X147542497Y-28332000D01*
G75*
G02*
X147292500Y-28082003I0J249997D01*
G01*
G37*
%TD.AperFunction*%
%TD*%
%TO.P,C13,2*%
%TO.N,GND*%
%TA.AperFunction,SMDPad,CuDef*%
G36*
G01*
X138063000Y-32179497D02*
X138063000Y-33479503D01*
G75*
G02*
X137813003Y-33729500I-249997J0D01*
G01*
X136987997Y-33729500D01*
G75*
G02*
X136738000Y-33479503I0J249997D01*
G01*
X136738000Y-32179497D01*
G75*
G02*
X136987997Y-31929500I249997J0D01*
G01*
X137813003Y-31929500D01*
G75*
G02*
X138063000Y-32179497I0J-249997D01*
G01*
G37*
%TD.AperFunction*%
%TO.P,C13,1*%
%TO.N,+3V3*%
%TA.AperFunction,SMDPad,CuDef*%
G36*
G01*
X141188000Y-32179497D02*
X141188000Y-33479503D01*
G75*
G02*
X140938003Y-33729500I-249997J0D01*
G01*
X140112997Y-33729500D01*
G75*
G02*
X139863000Y-33479503I0J249997D01*
G01*
X139863000Y-32179497D01*
G75*
G02*
X140112997Y-31929500I249997J0D01*
G01*
X140938003Y-31929500D01*
G75*
G02*
X141188000Y-32179497I0J-249997D01*
G01*
G37*
%TD.AperFunction*%
%TD*%
%TO.P,C12,2*%
%TO.N,GND*%
%TA.AperFunction,SMDPad,CuDef*%
G36*
G01*
X147433000Y-23764003D02*
X147433000Y-22463997D01*
G75*
G02*
X147682997Y-22214000I249997J0D01*
G01*
X148508003Y-22214000D01*
G75*
G02*
X148758000Y-22463997I0J-249997D01*
G01*
X148758000Y-23764003D01*
G75*
G02*
X148508003Y-24014000I-249997J0D01*
G01*
X147682997Y-24014000D01*
G75*
G02*
X147433000Y-23764003I0J249997D01*
G01*
G37*
%TD.AperFunction*%
%TO.P,C12,1*%
%TO.N,+3V3*%
%TA.AperFunction,SMDPad,CuDef*%
G36*
G01*
X144308000Y-23764003D02*
X144308000Y-22463997D01*
G75*
G02*
X144557997Y-22214000I249997J0D01*
G01*
X145383003Y-22214000D01*
G75*
G02*
X145633000Y-22463997I0J-249997D01*
G01*
X145633000Y-23764003D01*
G75*
G02*
X145383003Y-24014000I-249997J0D01*
G01*
X144557997Y-24014000D01*
G75*
G02*
X144308000Y-23764003I0J249997D01*
G01*
G37*
%TD.AperFunction*%
%TD*%
%TO.P,C11,2*%
%TO.N,GND*%
%TA.AperFunction,SMDPad,CuDef*%
G36*
G01*
X168069497Y-48017000D02*
X169369503Y-48017000D01*
G75*
G02*
X169619500Y-48266997I0J-249997D01*
G01*
X169619500Y-49092003D01*
G75*
G02*
X169369503Y-49342000I-249997J0D01*
G01*
X168069497Y-49342000D01*
G75*
G02*
X167819500Y-49092003I0J249997D01*
G01*
X167819500Y-48266997D01*
G75*
G02*
X168069497Y-48017000I249997J0D01*
G01*
G37*
%TD.AperFunction*%
%TO.P,C11,1*%
%TO.N,+3V3*%
%TA.AperFunction,SMDPad,CuDef*%
G36*
G01*
X168069497Y-44892000D02*
X169369503Y-44892000D01*
G75*
G02*
X169619500Y-45141997I0J-249997D01*
G01*
X169619500Y-45967003D01*
G75*
G02*
X169369503Y-46217000I-249997J0D01*
G01*
X168069497Y-46217000D01*
G75*
G02*
X167819500Y-45967003I0J249997D01*
G01*
X167819500Y-45141997D01*
G75*
G02*
X168069497Y-44892000I249997J0D01*
G01*
G37*
%TD.AperFunction*%
%TD*%
D10*
%TO.P,TP9,1*%
%TO.N,VEE*%
X127635000Y-35941000D03*
%TD*%
%TO.P,TP8,1*%
%TO.N,VDD*%
X145224500Y-39941500D03*
%TD*%
%TO.P,TP7,1*%
%TO.N,-3V3*%
X141414500Y-56451500D03*
%TD*%
%TO.P,TP6,1*%
%TO.N,+3V3*%
X141795500Y-39941500D03*
%TD*%
%TO.P,TP4,1*%
%TO.N,Net-(R15-Pad2)*%
X157289500Y-27178000D03*
%TD*%
%TO.P,TP3,1*%
%TO.N,Net-(C8-Pad1)*%
X155384500Y-32321500D03*
%TD*%
%TO.P,TP2,1*%
%TO.N,Net-(R13-Pad2)*%
X152844500Y-22479000D03*
%TD*%
%TO.P,TP1,1*%
%TO.N,Net-(C7-Pad1)*%
X141859000Y-18224500D03*
%TD*%
D13*
%TO.P,X1,4*%
%TO.N,+3V3*%
X168084000Y-53628000D03*
%TO.P,X1,3*%
%TO.N,CLK*%
X168084000Y-51528000D03*
%TO.P,X1,2*%
%TO.N,GND*%
X166434000Y-51528000D03*
%TO.P,X1,1*%
%TO.N,Net-(SW2-Pad2)*%
X166434000Y-53628000D03*
%TD*%
D14*
%TO.P,SW2,*%
%TO.N,*%
X162115500Y-51145000D03*
X162115500Y-59345000D03*
D15*
%TO.P,SW2,3*%
%TO.N,+3V3*%
X162115500Y-53245000D03*
%TO.P,SW2,2*%
%TO.N,Net-(SW2-Pad2)*%
X162115500Y-55245000D03*
D16*
%TO.P,SW2,1*%
%TO.N,GND*%
X162115500Y-57245000D03*
%TD*%
D14*
%TO.P,SW1,*%
%TO.N,*%
X129286000Y-22665500D03*
X129286000Y-30865500D03*
D15*
%TO.P,SW1,3*%
%TO.N,Net-(J3-Pad1)*%
X129286000Y-24765500D03*
%TO.P,SW1,2*%
%TO.N,Net-(Q5-Pad2)*%
X129286000Y-26765500D03*
D16*
%TO.P,SW1,1*%
%TO.N,Net-(Q3-Pad3)*%
X129286000Y-28765500D03*
%TD*%
%TO.P,R18,2*%
%TO.N,Net-(J4-Pad1)*%
%TA.AperFunction,SMDPad,CuDef*%
G36*
G01*
X165359501Y-31874000D02*
X164459499Y-31874000D01*
G75*
G02*
X164209500Y-31624001I0J249999D01*
G01*
X164209500Y-30923999D01*
G75*
G02*
X164459499Y-30674000I249999J0D01*
G01*
X165359501Y-30674000D01*
G75*
G02*
X165609500Y-30923999I0J-249999D01*
G01*
X165609500Y-31624001D01*
G75*
G02*
X165359501Y-31874000I-249999J0D01*
G01*
G37*
%TD.AperFunction*%
%TO.P,R18,1*%
%TO.N,Net-(R18-Pad1)*%
%TA.AperFunction,SMDPad,CuDef*%
G36*
G01*
X165359501Y-33874000D02*
X164459499Y-33874000D01*
G75*
G02*
X164209500Y-33624001I0J249999D01*
G01*
X164209500Y-32923999D01*
G75*
G02*
X164459499Y-32674000I249999J0D01*
G01*
X165359501Y-32674000D01*
G75*
G02*
X165609500Y-32923999I0J-249999D01*
G01*
X165609500Y-33624001D01*
G75*
G02*
X165359501Y-33874000I-249999J0D01*
G01*
G37*
%TD.AperFunction*%
%TD*%
%TO.P,R17,2*%
%TO.N,Net-(C8-Pad1)*%
%TA.AperFunction,SMDPad,CuDef*%
G36*
G01*
X152054000Y-32771501D02*
X152054000Y-31871499D01*
G75*
G02*
X152303999Y-31621500I249999J0D01*
G01*
X153004001Y-31621500D01*
G75*
G02*
X153254000Y-31871499I0J-249999D01*
G01*
X153254000Y-32771501D01*
G75*
G02*
X153004001Y-33021500I-249999J0D01*
G01*
X152303999Y-33021500D01*
G75*
G02*
X152054000Y-32771501I0J249999D01*
G01*
G37*
%TD.AperFunction*%
%TO.P,R17,1*%
%TO.N,Net-(R16-Pad2)*%
%TA.AperFunction,SMDPad,CuDef*%
G36*
G01*
X150054000Y-32771501D02*
X150054000Y-31871499D01*
G75*
G02*
X150303999Y-31621500I249999J0D01*
G01*
X151004001Y-31621500D01*
G75*
G02*
X151254000Y-31871499I0J-249999D01*
G01*
X151254000Y-32771501D01*
G75*
G02*
X151004001Y-33021500I-249999J0D01*
G01*
X150303999Y-33021500D01*
G75*
G02*
X150054000Y-32771501I0J249999D01*
G01*
G37*
%TD.AperFunction*%
%TD*%
%TO.P,R15,2*%
%TO.N,Net-(R15-Pad2)*%
%TA.AperFunction,SMDPad,CuDef*%
G36*
G01*
X156902999Y-22688500D02*
X157803001Y-22688500D01*
G75*
G02*
X158053000Y-22938499I0J-249999D01*
G01*
X158053000Y-23638501D01*
G75*
G02*
X157803001Y-23888500I-249999J0D01*
G01*
X156902999Y-23888500D01*
G75*
G02*
X156653000Y-23638501I0J249999D01*
G01*
X156653000Y-22938499D01*
G75*
G02*
X156902999Y-22688500I249999J0D01*
G01*
G37*
%TD.AperFunction*%
%TO.P,R15,1*%
%TO.N,Net-(Q7-Pad3)*%
%TA.AperFunction,SMDPad,CuDef*%
G36*
G01*
X156902999Y-20688500D02*
X157803001Y-20688500D01*
G75*
G02*
X158053000Y-20938499I0J-249999D01*
G01*
X158053000Y-21638501D01*
G75*
G02*
X157803001Y-21888500I-249999J0D01*
G01*
X156902999Y-21888500D01*
G75*
G02*
X156653000Y-21638501I0J249999D01*
G01*
X156653000Y-20938499D01*
G75*
G02*
X156902999Y-20688500I249999J0D01*
G01*
G37*
%TD.AperFunction*%
%TD*%
D17*
%TO.P,J2,3*%
%TO.N,Net-(D2-Pad2)*%
X109156500Y-58102500D03*
%TO.P,J2,2*%
%TO.N,GND*%
X109156500Y-53102500D03*
D18*
%TO.P,J2,1*%
%TO.N,Net-(D1-Pad1)*%
X109156500Y-48102500D03*
%TD*%
D19*
%TO.P,J1,2*%
%TO.N,Net-(J1-Pad1)*%
X111696500Y-34560500D03*
D20*
%TO.P,J1,1*%
X111696500Y-39560500D03*
%TD*%
D21*
%TO.P,D4,2*%
%TO.N,-3V3*%
X132270500Y-66357500D03*
D22*
%TO.P,D4,1*%
%TO.N,GND*%
X122110500Y-66357500D03*
%TD*%
D21*
%TO.P,D3,2*%
%TO.N,GND*%
X122999500Y-39687500D03*
D22*
%TO.P,D3,1*%
%TO.N,+3V3*%
X133159500Y-39687500D03*
%TD*%
D21*
%TO.P,D2,2*%
%TO.N,Net-(D2-Pad2)*%
X137350500Y-56197500D03*
D22*
%TO.P,D2,1*%
%TO.N,-3V3*%
X137350500Y-66357500D03*
%TD*%
D21*
%TO.P,D1,2*%
%TO.N,+3V3*%
X138239500Y-39687500D03*
D22*
%TO.P,D1,1*%
%TO.N,Net-(D1-Pad1)*%
X138239500Y-49847500D03*
%TD*%
%TO.P,C9,2*%
%TO.N,GND*%
%TA.AperFunction,SMDPad,CuDef*%
G36*
G01*
X167370997Y-58558000D02*
X168671003Y-58558000D01*
G75*
G02*
X168921000Y-58807997I0J-249997D01*
G01*
X168921000Y-59633003D01*
G75*
G02*
X168671003Y-59883000I-249997J0D01*
G01*
X167370997Y-59883000D01*
G75*
G02*
X167121000Y-59633003I0J249997D01*
G01*
X167121000Y-58807997D01*
G75*
G02*
X167370997Y-58558000I249997J0D01*
G01*
G37*
%TD.AperFunction*%
%TO.P,C9,1*%
%TO.N,+3V3*%
%TA.AperFunction,SMDPad,CuDef*%
G36*
G01*
X167370997Y-55433000D02*
X168671003Y-55433000D01*
G75*
G02*
X168921000Y-55682997I0J-249997D01*
G01*
X168921000Y-56508003D01*
G75*
G02*
X168671003Y-56758000I-249997J0D01*
G01*
X167370997Y-56758000D01*
G75*
G02*
X167121000Y-56508003I0J249997D01*
G01*
X167121000Y-55682997D01*
G75*
G02*
X167370997Y-55433000I249997J0D01*
G01*
G37*
%TD.AperFunction*%
%TD*%
%TO.P,C8,2*%
%TO.N,GND*%
%TA.AperFunction,SMDPad,CuDef*%
G36*
G01*
X152858500Y-35354497D02*
X152858500Y-36654503D01*
G75*
G02*
X152608503Y-36904500I-249997J0D01*
G01*
X151783497Y-36904500D01*
G75*
G02*
X151533500Y-36654503I0J249997D01*
G01*
X151533500Y-35354497D01*
G75*
G02*
X151783497Y-35104500I249997J0D01*
G01*
X152608503Y-35104500D01*
G75*
G02*
X152858500Y-35354497I0J-249997D01*
G01*
G37*
%TD.AperFunction*%
%TO.P,C8,1*%
%TO.N,Net-(C8-Pad1)*%
%TA.AperFunction,SMDPad,CuDef*%
G36*
G01*
X155983500Y-35354497D02*
X155983500Y-36654503D01*
G75*
G02*
X155733503Y-36904500I-249997J0D01*
G01*
X154908497Y-36904500D01*
G75*
G02*
X154658500Y-36654503I0J249997D01*
G01*
X154658500Y-35354497D01*
G75*
G02*
X154908497Y-35104500I249997J0D01*
G01*
X155733503Y-35104500D01*
G75*
G02*
X155983500Y-35354497I0J-249997D01*
G01*
G37*
%TD.AperFunction*%
%TD*%
D23*
%TO.N,GND*%
X118491000Y-56324500D03*
X117284500Y-56324500D03*
X150876000Y-27305000D03*
X148209000Y-30289500D03*
X152146000Y-49657000D03*
X143510000Y-49403000D03*
X157353000Y-57213500D03*
X116840000Y-61785500D03*
X145288000Y-66611500D03*
X145415000Y-65151000D03*
X154368500Y-66675000D03*
X154368500Y-65468500D03*
X134874000Y-28702000D03*
X137604500Y-28765500D03*
X143192500Y-34099500D03*
X151066500Y-18859500D03*
X132905500Y-21653500D03*
X118173500Y-44767500D03*
X116141500Y-50673000D03*
X143573500Y-50546000D03*
X152146000Y-50673000D03*
X152209500Y-43434000D03*
X153797000Y-39814500D03*
X157734000Y-67437000D03*
X160083500Y-67500500D03*
%TO.N,+3V3*%
X169481500Y-53657500D03*
X160337500Y-39941500D03*
X168783000Y-43815000D03*
X168719500Y-38735000D03*
X168084500Y-56070500D03*
X160401000Y-43878500D03*
X168783000Y-42545000D03*
X143573500Y-46609000D03*
X142748000Y-32829500D03*
X143573500Y-45275500D03*
X144780000Y-23241000D03*
%TO.N,-3V3*%
X144843500Y-29527500D03*
X145224500Y-35496500D03*
%TO.N,VDD*%
X147701000Y-32893000D03*
%TO.N,VEE*%
X135953500Y-42608500D03*
X136620250Y-43275250D03*
X137160000Y-43815000D03*
%TO.N,Net-(C7-Pad1)*%
X142240000Y-24765000D03*
X139954000Y-24701500D03*
X143637000Y-20637500D03*
%TO.N,Net-(D1-Pad1)*%
X136398000Y-49847500D03*
X134493000Y-49847500D03*
X133223000Y-49847500D03*
X131826000Y-49847500D03*
X130619500Y-49847500D03*
X128968500Y-49847500D03*
X127100550Y-49619950D03*
%TO.N,Net-(D2-Pad2)*%
X133032500Y-59753500D03*
X132715000Y-57277000D03*
X126580500Y-58483500D03*
X128143000Y-58483500D03*
X129476500Y-58483500D03*
X130873500Y-58483500D03*
X131699000Y-58483500D03*
X132924750Y-58439250D03*
%TO.N,Net-(Q2-Pad1)*%
X118173500Y-33909000D03*
X122550680Y-33975000D03*
%TO.N,Net-(Q7-Pad3)*%
X145224500Y-16446500D03*
%TO.N,Net-(R12-Pad2)*%
X142240000Y-26543000D03*
X139955780Y-28449780D03*
%TO.N,Net-(R15-Pad2)*%
X168783000Y-41275000D03*
X160422250Y-38015250D03*
%TO.N,Net-(R16-Pad2)*%
X150622000Y-29908500D03*
X150622000Y-32448500D03*
X142751000Y-31559500D03*
%TD*%
D24*
%TO.N,GND*%
X170206501Y-57034999D02*
X168021000Y-59220500D01*
X170206501Y-50166501D02*
X170206501Y-57034999D01*
X168719500Y-48679500D02*
X170206501Y-50166501D01*
D25*
%TO.N,+3V3*%
X142748000Y-32829500D02*
X140525500Y-32829500D01*
X140525500Y-32829500D02*
X140525500Y-32004000D01*
X140525500Y-32004000D02*
X144780000Y-27749500D01*
X144780000Y-27749500D02*
X144780000Y-23241000D01*
X144780000Y-23241000D02*
X144780000Y-22860000D01*
D24*
X168719500Y-38735000D02*
X167067000Y-38735000D01*
X167067000Y-42545000D02*
X168783000Y-42545000D01*
X167067000Y-43815000D02*
X168783000Y-43815000D01*
X160464500Y-43815000D02*
X160401000Y-43878500D01*
X162117000Y-43815000D02*
X160464500Y-43815000D01*
X160401000Y-40005000D02*
X160337500Y-39941500D01*
X162117000Y-40005000D02*
X160401000Y-40005000D01*
D25*
X168113500Y-53657500D02*
X168084000Y-53628000D01*
X169481500Y-53657500D02*
X168113500Y-53657500D01*
X168783000Y-45491000D02*
X168719500Y-45554500D01*
X168783000Y-43815000D02*
X168783000Y-45491000D01*
%TO.N,-3V3*%
X140845499Y-55882499D02*
X141414500Y-56451500D01*
X145224500Y-35496500D02*
X143256000Y-35496500D01*
X140845499Y-37907001D02*
X140845499Y-55882499D01*
X143256000Y-35496500D02*
X140845499Y-37907001D01*
X147955000Y-27432000D02*
X147955000Y-28575000D01*
X147002500Y-29527500D02*
X144843500Y-29527500D01*
X147955000Y-28575000D02*
X147002500Y-29527500D01*
%TO.N,VEE*%
X137160000Y-43815000D02*
X136620250Y-43275250D01*
X135953500Y-42608500D02*
X136620250Y-43275250D01*
X135953500Y-42608500D02*
X130683000Y-42608500D01*
X127635000Y-39560500D02*
X127635000Y-35941000D01*
X130683000Y-42608500D02*
X127635000Y-39560500D01*
D24*
%TO.N,Net-(C7-Pad1)*%
X140017500Y-24765000D02*
X139954000Y-24701500D01*
X142240000Y-24765000D02*
X140017500Y-24765000D01*
X142240000Y-22034500D02*
X143637000Y-20637500D01*
X142240000Y-24765000D02*
X142240000Y-22034500D01*
%TO.N,Net-(C8-Pad1)*%
X152654000Y-32321500D02*
X155384500Y-32321500D01*
X155384500Y-35941000D02*
X155321000Y-36004500D01*
X155384500Y-32321500D02*
X155384500Y-35941000D01*
X155321000Y-36004500D02*
X155321000Y-36515000D01*
X161142000Y-42545000D02*
X155321000Y-36724000D01*
X155321000Y-36724000D02*
X155321000Y-36004500D01*
X162117000Y-42545000D02*
X161142000Y-42545000D01*
D25*
%TO.N,Net-(D1-Pad1)*%
X138239500Y-49847500D02*
X128968500Y-49847500D01*
X128740950Y-49619950D02*
X128968500Y-49847500D01*
X127100550Y-49619950D02*
X128740950Y-49619950D01*
X110673950Y-49619950D02*
X109156500Y-48102500D01*
X127100550Y-49619950D02*
X110673950Y-49619950D01*
%TO.N,Net-(D2-Pad2)*%
X126199500Y-58102500D02*
X126580500Y-58483500D01*
X109156500Y-58102500D02*
X126199500Y-58102500D01*
X126580500Y-58483500D02*
X131699000Y-58483500D01*
X132715000Y-59436000D02*
X133032500Y-59753500D01*
X132715000Y-57277000D02*
X132715000Y-59436000D01*
X131743250Y-58439250D02*
X131699000Y-58483500D01*
X132924750Y-58439250D02*
X131743250Y-58439250D01*
X135108750Y-58439250D02*
X137350500Y-56197500D01*
X132924750Y-58439250D02*
X135108750Y-58439250D01*
D24*
%TO.N,Net-(Q2-Pad1)*%
X118239500Y-33975000D02*
X118173500Y-33909000D01*
X122550680Y-33975000D02*
X118239500Y-33975000D01*
%TO.N,Net-(Q7-Pad3)*%
X152511000Y-16446500D02*
X153566750Y-17502250D01*
X145224500Y-16446500D02*
X152511000Y-16446500D01*
X153566750Y-17502250D02*
X157353000Y-21288500D01*
X153463500Y-17399000D02*
X153566750Y-17502250D01*
%TO.N,Net-(R12-Pad2)*%
X141862560Y-26543000D02*
X142240000Y-26543000D01*
X139955780Y-28449780D02*
X141862560Y-26543000D01*
%TO.N,Net-(R15-Pad2)*%
X157289500Y-27178000D02*
X157797500Y-27178000D01*
X157353000Y-27114500D02*
X157289500Y-27178000D01*
X157353000Y-23288500D02*
X157353000Y-27114500D01*
X161142000Y-38735000D02*
X162117000Y-38735000D01*
X157289500Y-34882500D02*
X160422250Y-38015250D01*
X157289500Y-27178000D02*
X157289500Y-34882500D01*
X167067000Y-41275000D02*
X168783000Y-41275000D01*
X160422250Y-38015250D02*
X161142000Y-38735000D01*
%TO.N,Net-(R16-Pad2)*%
X149892000Y-31559500D02*
X150654000Y-32321500D01*
X142751000Y-31559500D02*
X149892000Y-31559500D01*
X150622000Y-32289500D02*
X150654000Y-32321500D01*
X150622000Y-29908500D02*
X150622000Y-32289500D01*
%TO.N,Net-(R18-Pad1)*%
X164966500Y-32743500D02*
X164973000Y-32750000D01*
X168367010Y-37139990D02*
X168042000Y-37465000D01*
X165792768Y-33274000D02*
X168367010Y-35848242D01*
X168042000Y-37465000D02*
X167067000Y-37465000D01*
X168367010Y-35848242D02*
X168367010Y-37139990D01*
X164909500Y-33274000D02*
X165792768Y-33274000D01*
%TO.N,Net-(SW2-Pad2)*%
X164817000Y-55245000D02*
X162115500Y-55245000D01*
X166434000Y-53628000D02*
X164817000Y-55245000D01*
%TO.N,CLK*%
X163092000Y-41275000D02*
X164719000Y-42902000D01*
X162117000Y-41275000D02*
X163092000Y-41275000D01*
X167067000Y-40005000D02*
X166092000Y-40005000D01*
X164719000Y-43370500D02*
X164719000Y-47815500D01*
X164719000Y-41378000D02*
X164719000Y-43370500D01*
X166092000Y-40005000D02*
X164719000Y-41378000D01*
X164719000Y-42902000D02*
X164719000Y-43370500D01*
X168084000Y-51180500D02*
X164719000Y-47815500D01*
X168084000Y-51528000D02*
X168084000Y-51180500D01*
%TO.N,Net-(J4-Pad1)*%
X164909500Y-31274000D02*
X164909500Y-26987500D01*
%TD*%
D26*
%TO.N,GND*%
X160365698Y-42843500D02*
X160299061Y-42843500D01*
X160099102Y-42883274D01*
X159910744Y-42961295D01*
X159741226Y-43074563D01*
X159597063Y-43218726D01*
X159483795Y-43388244D01*
X159405774Y-43576602D01*
X159366000Y-43776561D01*
X159366000Y-43980439D01*
X159405774Y-44180398D01*
X159483795Y-44368756D01*
X159597063Y-44538274D01*
X159741226Y-44682437D01*
X159910744Y-44795705D01*
X160099102Y-44873726D01*
X160299061Y-44913500D01*
X160502939Y-44913500D01*
X160702898Y-44873726D01*
X160891256Y-44795705D01*
X161027847Y-44704438D01*
X161138255Y-44737929D01*
X161292000Y-44753072D01*
X162942000Y-44753072D01*
X163095745Y-44737929D01*
X163243582Y-44693084D01*
X163379829Y-44620258D01*
X163499251Y-44522251D01*
X163597258Y-44402829D01*
X163670084Y-44266582D01*
X163714929Y-44118745D01*
X163730072Y-43965000D01*
X163730072Y-43665000D01*
X163714929Y-43511255D01*
X163670084Y-43363418D01*
X163597258Y-43227171D01*
X163558546Y-43180000D01*
X163597258Y-43132829D01*
X163670084Y-42996582D01*
X163686072Y-42943875D01*
X163959000Y-43216803D01*
X163959000Y-43333168D01*
X163959001Y-46734454D01*
X163864506Y-46784963D01*
X163767815Y-46864315D01*
X163688463Y-46961006D01*
X163629498Y-47071320D01*
X163593188Y-47191018D01*
X163580928Y-47315500D01*
X163580928Y-48315500D01*
X163593188Y-48439982D01*
X163629498Y-48559680D01*
X163688463Y-48669994D01*
X163767815Y-48766685D01*
X163864506Y-48846037D01*
X163974820Y-48905002D01*
X164094518Y-48941312D01*
X164219000Y-48953572D01*
X164782271Y-48953572D01*
X166070798Y-50242100D01*
X165884000Y-50239928D01*
X165759518Y-50252188D01*
X165639820Y-50288498D01*
X165529506Y-50347463D01*
X165432815Y-50426815D01*
X165353463Y-50523506D01*
X165294498Y-50633820D01*
X165258188Y-50753518D01*
X165245928Y-50878000D01*
X165249000Y-51242250D01*
X165407750Y-51401000D01*
X166307000Y-51401000D01*
X166307000Y-51381000D01*
X166561000Y-51381000D01*
X166561000Y-51401000D01*
X166581000Y-51401000D01*
X166581000Y-51655000D01*
X166561000Y-51655000D01*
X166561000Y-51675000D01*
X166307000Y-51675000D01*
X166307000Y-51655000D01*
X165407750Y-51655000D01*
X165249000Y-51813750D01*
X165245928Y-52178000D01*
X165258188Y-52302482D01*
X165294498Y-52422180D01*
X165353463Y-52532494D01*
X165390809Y-52578000D01*
X165353463Y-52623506D01*
X165294498Y-52733820D01*
X165258188Y-52853518D01*
X165245928Y-52978000D01*
X165245928Y-53741270D01*
X164502199Y-54485000D01*
X163779706Y-54485000D01*
X163772657Y-54471812D01*
X163599581Y-54260919D01*
X163580184Y-54245000D01*
X163599581Y-54229081D01*
X163772657Y-54018188D01*
X163901264Y-53777581D01*
X163980460Y-53516507D01*
X164007201Y-53245000D01*
X163980460Y-52973493D01*
X163901264Y-52712419D01*
X163806506Y-52535139D01*
X163998266Y-52377766D01*
X164215079Y-52113578D01*
X164376186Y-51812168D01*
X164475395Y-51485119D01*
X164508894Y-51145000D01*
X164475395Y-50804881D01*
X164376186Y-50477832D01*
X164215079Y-50176422D01*
X163998266Y-49912234D01*
X163734078Y-49695421D01*
X163432668Y-49534314D01*
X163105619Y-49435105D01*
X162850725Y-49410000D01*
X161380275Y-49410000D01*
X161125381Y-49435105D01*
X160798332Y-49534314D01*
X160496922Y-49695421D01*
X160232734Y-49912234D01*
X160015921Y-50176422D01*
X159854814Y-50477832D01*
X159755605Y-50804881D01*
X159722106Y-51145000D01*
X159755605Y-51485119D01*
X159854814Y-51812168D01*
X160015921Y-52113578D01*
X160232734Y-52377766D01*
X160424494Y-52535139D01*
X160329736Y-52712419D01*
X160250540Y-52973493D01*
X160223799Y-53245000D01*
X160250540Y-53516507D01*
X160329736Y-53777581D01*
X160458343Y-54018188D01*
X160631419Y-54229081D01*
X160650816Y-54245000D01*
X160631419Y-54260919D01*
X160458343Y-54471812D01*
X160329736Y-54712419D01*
X160250540Y-54973493D01*
X160223799Y-55245000D01*
X160250540Y-55516507D01*
X160329736Y-55777581D01*
X160454440Y-56010886D01*
X160414315Y-56043815D01*
X160334963Y-56140506D01*
X160275998Y-56250820D01*
X160239688Y-56370518D01*
X160227428Y-56495000D01*
X160230500Y-56959250D01*
X160389250Y-57118000D01*
X161988500Y-57118000D01*
X161988500Y-57098000D01*
X162242500Y-57098000D01*
X162242500Y-57118000D01*
X163841750Y-57118000D01*
X164000500Y-56959250D01*
X164003572Y-56495000D01*
X163991312Y-56370518D01*
X163955002Y-56250820D01*
X163896037Y-56140506D01*
X163816685Y-56043815D01*
X163776560Y-56010886D01*
X163779706Y-56005000D01*
X164779678Y-56005000D01*
X164817000Y-56008676D01*
X164854322Y-56005000D01*
X164854333Y-56005000D01*
X164965986Y-55994003D01*
X165109247Y-55950546D01*
X165241276Y-55879974D01*
X165357001Y-55785001D01*
X165380804Y-55755997D01*
X166220730Y-54916072D01*
X166930975Y-54916072D01*
X166877612Y-54944595D01*
X166743037Y-55055037D01*
X166632595Y-55189612D01*
X166550528Y-55343148D01*
X166499992Y-55509743D01*
X166482928Y-55682997D01*
X166482928Y-56508003D01*
X166499992Y-56681257D01*
X166550528Y-56847852D01*
X166632595Y-57001388D01*
X166743037Y-57135963D01*
X166877612Y-57246405D01*
X167031148Y-57328472D01*
X167197743Y-57379008D01*
X167370997Y-57396072D01*
X168671003Y-57396072D01*
X168844257Y-57379008D01*
X169010852Y-57328472D01*
X169164388Y-57246405D01*
X169298963Y-57135963D01*
X169409405Y-57001388D01*
X169491472Y-56847852D01*
X169542008Y-56681257D01*
X169559072Y-56508003D01*
X169559072Y-55682997D01*
X169542008Y-55509743D01*
X169491472Y-55343148D01*
X169409405Y-55189612D01*
X169298963Y-55055037D01*
X169164388Y-54944595D01*
X169010852Y-54862528D01*
X168932150Y-54838654D01*
X168988494Y-54808537D01*
X169085185Y-54729185D01*
X169155967Y-54642936D01*
X169179602Y-54652726D01*
X169379561Y-54692500D01*
X169583439Y-54692500D01*
X169783398Y-54652726D01*
X169971756Y-54574705D01*
X170141274Y-54461437D01*
X170285437Y-54317274D01*
X170340001Y-54235613D01*
X170340001Y-68340000D01*
X159133326Y-68340000D01*
X159147726Y-65279872D01*
X165265000Y-65279872D01*
X165265000Y-65720128D01*
X165350890Y-66151925D01*
X165519369Y-66558669D01*
X165763962Y-66924729D01*
X166075271Y-67236038D01*
X166441331Y-67480631D01*
X166848075Y-67649110D01*
X167279872Y-67735000D01*
X167720128Y-67735000D01*
X168151925Y-67649110D01*
X168558669Y-67480631D01*
X168924729Y-67236038D01*
X169236038Y-66924729D01*
X169480631Y-66558669D01*
X169649110Y-66151925D01*
X169735000Y-65720128D01*
X169735000Y-65279872D01*
X169649110Y-64848075D01*
X169480631Y-64441331D01*
X169236038Y-64075271D01*
X168924729Y-63763962D01*
X168558669Y-63519369D01*
X168151925Y-63350890D01*
X167720128Y-63265000D01*
X167279872Y-63265000D01*
X166848075Y-63350890D01*
X166441331Y-63519369D01*
X166075271Y-63763962D01*
X165763962Y-64075271D01*
X165519369Y-64441331D01*
X165350890Y-64848075D01*
X165265000Y-65279872D01*
X159147726Y-65279872D01*
X159175655Y-59345000D01*
X159722106Y-59345000D01*
X159755605Y-59685119D01*
X159854814Y-60012168D01*
X160015921Y-60313578D01*
X160232734Y-60577766D01*
X160496922Y-60794579D01*
X160798332Y-60955686D01*
X161125381Y-61054895D01*
X161380275Y-61080000D01*
X162850725Y-61080000D01*
X163105619Y-61054895D01*
X163432668Y-60955686D01*
X163734078Y-60794579D01*
X163998266Y-60577766D01*
X164215079Y-60313578D01*
X164376186Y-60012168D01*
X164415368Y-59883000D01*
X166482928Y-59883000D01*
X166495188Y-60007482D01*
X166531498Y-60127180D01*
X166590463Y-60237494D01*
X166669815Y-60334185D01*
X166766506Y-60413537D01*
X166876820Y-60472502D01*
X166996518Y-60508812D01*
X167121000Y-60521072D01*
X167735250Y-60518000D01*
X167894000Y-60359250D01*
X167894000Y-59347500D01*
X168148000Y-59347500D01*
X168148000Y-60359250D01*
X168306750Y-60518000D01*
X168921000Y-60521072D01*
X169045482Y-60508812D01*
X169165180Y-60472502D01*
X169275494Y-60413537D01*
X169372185Y-60334185D01*
X169451537Y-60237494D01*
X169510502Y-60127180D01*
X169546812Y-60007482D01*
X169559072Y-59883000D01*
X169556000Y-59506250D01*
X169397250Y-59347500D01*
X168148000Y-59347500D01*
X167894000Y-59347500D01*
X166644750Y-59347500D01*
X166486000Y-59506250D01*
X166482928Y-59883000D01*
X164415368Y-59883000D01*
X164475395Y-59685119D01*
X164508894Y-59345000D01*
X164475395Y-59004881D01*
X164376186Y-58677832D01*
X164312135Y-58558000D01*
X166482928Y-58558000D01*
X166486000Y-58934750D01*
X166644750Y-59093500D01*
X167894000Y-59093500D01*
X167894000Y-58081750D01*
X168148000Y-58081750D01*
X168148000Y-59093500D01*
X169397250Y-59093500D01*
X169556000Y-58934750D01*
X169559072Y-58558000D01*
X169546812Y-58433518D01*
X169510502Y-58313820D01*
X169451537Y-58203506D01*
X169372185Y-58106815D01*
X169275494Y-58027463D01*
X169165180Y-57968498D01*
X169045482Y-57932188D01*
X168921000Y-57919928D01*
X168306750Y-57923000D01*
X168148000Y-58081750D01*
X167894000Y-58081750D01*
X167735250Y-57923000D01*
X167121000Y-57919928D01*
X166996518Y-57932188D01*
X166876820Y-57968498D01*
X166766506Y-58027463D01*
X166669815Y-58106815D01*
X166590463Y-58203506D01*
X166531498Y-58313820D01*
X166495188Y-58433518D01*
X166482928Y-58558000D01*
X164312135Y-58558000D01*
X164215079Y-58376422D01*
X163998266Y-58112234D01*
X163992492Y-58107496D01*
X164003572Y-57995000D01*
X164000500Y-57530750D01*
X163841750Y-57372000D01*
X162242500Y-57372000D01*
X162242500Y-57392000D01*
X161988500Y-57392000D01*
X161988500Y-57372000D01*
X160389250Y-57372000D01*
X160230500Y-57530750D01*
X160227428Y-57995000D01*
X160238508Y-58107496D01*
X160232734Y-58112234D01*
X160015921Y-58376422D01*
X159854814Y-58677832D01*
X159755605Y-59004881D01*
X159722106Y-59345000D01*
X159175655Y-59345000D01*
X159258520Y-41736322D01*
X160365698Y-42843500D01*
%TA.AperFunction,Conductor*%
D27*
G36*
X160365698Y-42843500D02*
G01*
X160299061Y-42843500D01*
X160099102Y-42883274D01*
X159910744Y-42961295D01*
X159741226Y-43074563D01*
X159597063Y-43218726D01*
X159483795Y-43388244D01*
X159405774Y-43576602D01*
X159366000Y-43776561D01*
X159366000Y-43980439D01*
X159405774Y-44180398D01*
X159483795Y-44368756D01*
X159597063Y-44538274D01*
X159741226Y-44682437D01*
X159910744Y-44795705D01*
X160099102Y-44873726D01*
X160299061Y-44913500D01*
X160502939Y-44913500D01*
X160702898Y-44873726D01*
X160891256Y-44795705D01*
X161027847Y-44704438D01*
X161138255Y-44737929D01*
X161292000Y-44753072D01*
X162942000Y-44753072D01*
X163095745Y-44737929D01*
X163243582Y-44693084D01*
X163379829Y-44620258D01*
X163499251Y-44522251D01*
X163597258Y-44402829D01*
X163670084Y-44266582D01*
X163714929Y-44118745D01*
X163730072Y-43965000D01*
X163730072Y-43665000D01*
X163714929Y-43511255D01*
X163670084Y-43363418D01*
X163597258Y-43227171D01*
X163558546Y-43180000D01*
X163597258Y-43132829D01*
X163670084Y-42996582D01*
X163686072Y-42943875D01*
X163959000Y-43216803D01*
X163959000Y-43333168D01*
X163959001Y-46734454D01*
X163864506Y-46784963D01*
X163767815Y-46864315D01*
X163688463Y-46961006D01*
X163629498Y-47071320D01*
X163593188Y-47191018D01*
X163580928Y-47315500D01*
X163580928Y-48315500D01*
X163593188Y-48439982D01*
X163629498Y-48559680D01*
X163688463Y-48669994D01*
X163767815Y-48766685D01*
X163864506Y-48846037D01*
X163974820Y-48905002D01*
X164094518Y-48941312D01*
X164219000Y-48953572D01*
X164782271Y-48953572D01*
X166070798Y-50242100D01*
X165884000Y-50239928D01*
X165759518Y-50252188D01*
X165639820Y-50288498D01*
X165529506Y-50347463D01*
X165432815Y-50426815D01*
X165353463Y-50523506D01*
X165294498Y-50633820D01*
X165258188Y-50753518D01*
X165245928Y-50878000D01*
X165249000Y-51242250D01*
X165407750Y-51401000D01*
X166307000Y-51401000D01*
X166307000Y-51381000D01*
X166561000Y-51381000D01*
X166561000Y-51401000D01*
X166581000Y-51401000D01*
X166581000Y-51655000D01*
X166561000Y-51655000D01*
X166561000Y-51675000D01*
X166307000Y-51675000D01*
X166307000Y-51655000D01*
X165407750Y-51655000D01*
X165249000Y-51813750D01*
X165245928Y-52178000D01*
X165258188Y-52302482D01*
X165294498Y-52422180D01*
X165353463Y-52532494D01*
X165390809Y-52578000D01*
X165353463Y-52623506D01*
X165294498Y-52733820D01*
X165258188Y-52853518D01*
X165245928Y-52978000D01*
X165245928Y-53741270D01*
X164502199Y-54485000D01*
X163779706Y-54485000D01*
X163772657Y-54471812D01*
X163599581Y-54260919D01*
X163580184Y-54245000D01*
X163599581Y-54229081D01*
X163772657Y-54018188D01*
X163901264Y-53777581D01*
X163980460Y-53516507D01*
X164007201Y-53245000D01*
X163980460Y-52973493D01*
X163901264Y-52712419D01*
X163806506Y-52535139D01*
X163998266Y-52377766D01*
X164215079Y-52113578D01*
X164376186Y-51812168D01*
X164475395Y-51485119D01*
X164508894Y-51145000D01*
X164475395Y-50804881D01*
X164376186Y-50477832D01*
X164215079Y-50176422D01*
X163998266Y-49912234D01*
X163734078Y-49695421D01*
X163432668Y-49534314D01*
X163105619Y-49435105D01*
X162850725Y-49410000D01*
X161380275Y-49410000D01*
X161125381Y-49435105D01*
X160798332Y-49534314D01*
X160496922Y-49695421D01*
X160232734Y-49912234D01*
X160015921Y-50176422D01*
X159854814Y-50477832D01*
X159755605Y-50804881D01*
X159722106Y-51145000D01*
X159755605Y-51485119D01*
X159854814Y-51812168D01*
X160015921Y-52113578D01*
X160232734Y-52377766D01*
X160424494Y-52535139D01*
X160329736Y-52712419D01*
X160250540Y-52973493D01*
X160223799Y-53245000D01*
X160250540Y-53516507D01*
X160329736Y-53777581D01*
X160458343Y-54018188D01*
X160631419Y-54229081D01*
X160650816Y-54245000D01*
X160631419Y-54260919D01*
X160458343Y-54471812D01*
X160329736Y-54712419D01*
X160250540Y-54973493D01*
X160223799Y-55245000D01*
X160250540Y-55516507D01*
X160329736Y-55777581D01*
X160454440Y-56010886D01*
X160414315Y-56043815D01*
X160334963Y-56140506D01*
X160275998Y-56250820D01*
X160239688Y-56370518D01*
X160227428Y-56495000D01*
X160230500Y-56959250D01*
X160389250Y-57118000D01*
X161988500Y-57118000D01*
X161988500Y-57098000D01*
X162242500Y-57098000D01*
X162242500Y-57118000D01*
X163841750Y-57118000D01*
X164000500Y-56959250D01*
X164003572Y-56495000D01*
X163991312Y-56370518D01*
X163955002Y-56250820D01*
X163896037Y-56140506D01*
X163816685Y-56043815D01*
X163776560Y-56010886D01*
X163779706Y-56005000D01*
X164779678Y-56005000D01*
X164817000Y-56008676D01*
X164854322Y-56005000D01*
X164854333Y-56005000D01*
X164965986Y-55994003D01*
X165109247Y-55950546D01*
X165241276Y-55879974D01*
X165357001Y-55785001D01*
X165380804Y-55755997D01*
X166220730Y-54916072D01*
X166930975Y-54916072D01*
X166877612Y-54944595D01*
X166743037Y-55055037D01*
X166632595Y-55189612D01*
X166550528Y-55343148D01*
X166499992Y-55509743D01*
X166482928Y-55682997D01*
X166482928Y-56508003D01*
X166499992Y-56681257D01*
X166550528Y-56847852D01*
X166632595Y-57001388D01*
X166743037Y-57135963D01*
X166877612Y-57246405D01*
X167031148Y-57328472D01*
X167197743Y-57379008D01*
X167370997Y-57396072D01*
X168671003Y-57396072D01*
X168844257Y-57379008D01*
X169010852Y-57328472D01*
X169164388Y-57246405D01*
X169298963Y-57135963D01*
X169409405Y-57001388D01*
X169491472Y-56847852D01*
X169542008Y-56681257D01*
X169559072Y-56508003D01*
X169559072Y-55682997D01*
X169542008Y-55509743D01*
X169491472Y-55343148D01*
X169409405Y-55189612D01*
X169298963Y-55055037D01*
X169164388Y-54944595D01*
X169010852Y-54862528D01*
X168932150Y-54838654D01*
X168988494Y-54808537D01*
X169085185Y-54729185D01*
X169155967Y-54642936D01*
X169179602Y-54652726D01*
X169379561Y-54692500D01*
X169583439Y-54692500D01*
X169783398Y-54652726D01*
X169971756Y-54574705D01*
X170141274Y-54461437D01*
X170285437Y-54317274D01*
X170340001Y-54235613D01*
X170340001Y-68340000D01*
X159133326Y-68340000D01*
X159147726Y-65279872D01*
X165265000Y-65279872D01*
X165265000Y-65720128D01*
X165350890Y-66151925D01*
X165519369Y-66558669D01*
X165763962Y-66924729D01*
X166075271Y-67236038D01*
X166441331Y-67480631D01*
X166848075Y-67649110D01*
X167279872Y-67735000D01*
X167720128Y-67735000D01*
X168151925Y-67649110D01*
X168558669Y-67480631D01*
X168924729Y-67236038D01*
X169236038Y-66924729D01*
X169480631Y-66558669D01*
X169649110Y-66151925D01*
X169735000Y-65720128D01*
X169735000Y-65279872D01*
X169649110Y-64848075D01*
X169480631Y-64441331D01*
X169236038Y-64075271D01*
X168924729Y-63763962D01*
X168558669Y-63519369D01*
X168151925Y-63350890D01*
X167720128Y-63265000D01*
X167279872Y-63265000D01*
X166848075Y-63350890D01*
X166441331Y-63519369D01*
X166075271Y-63763962D01*
X165763962Y-64075271D01*
X165519369Y-64441331D01*
X165350890Y-64848075D01*
X165265000Y-65279872D01*
X159147726Y-65279872D01*
X159175655Y-59345000D01*
X159722106Y-59345000D01*
X159755605Y-59685119D01*
X159854814Y-60012168D01*
X160015921Y-60313578D01*
X160232734Y-60577766D01*
X160496922Y-60794579D01*
X160798332Y-60955686D01*
X161125381Y-61054895D01*
X161380275Y-61080000D01*
X162850725Y-61080000D01*
X163105619Y-61054895D01*
X163432668Y-60955686D01*
X163734078Y-60794579D01*
X163998266Y-60577766D01*
X164215079Y-60313578D01*
X164376186Y-60012168D01*
X164415368Y-59883000D01*
X166482928Y-59883000D01*
X166495188Y-60007482D01*
X166531498Y-60127180D01*
X166590463Y-60237494D01*
X166669815Y-60334185D01*
X166766506Y-60413537D01*
X166876820Y-60472502D01*
X166996518Y-60508812D01*
X167121000Y-60521072D01*
X167735250Y-60518000D01*
X167894000Y-60359250D01*
X167894000Y-59347500D01*
X168148000Y-59347500D01*
X168148000Y-60359250D01*
X168306750Y-60518000D01*
X168921000Y-60521072D01*
X169045482Y-60508812D01*
X169165180Y-60472502D01*
X169275494Y-60413537D01*
X169372185Y-60334185D01*
X169451537Y-60237494D01*
X169510502Y-60127180D01*
X169546812Y-60007482D01*
X169559072Y-59883000D01*
X169556000Y-59506250D01*
X169397250Y-59347500D01*
X168148000Y-59347500D01*
X167894000Y-59347500D01*
X166644750Y-59347500D01*
X166486000Y-59506250D01*
X166482928Y-59883000D01*
X164415368Y-59883000D01*
X164475395Y-59685119D01*
X164508894Y-59345000D01*
X164475395Y-59004881D01*
X164376186Y-58677832D01*
X164312135Y-58558000D01*
X166482928Y-58558000D01*
X166486000Y-58934750D01*
X166644750Y-59093500D01*
X167894000Y-59093500D01*
X167894000Y-58081750D01*
X168148000Y-58081750D01*
X168148000Y-59093500D01*
X169397250Y-59093500D01*
X169556000Y-58934750D01*
X169559072Y-58558000D01*
X169546812Y-58433518D01*
X169510502Y-58313820D01*
X169451537Y-58203506D01*
X169372185Y-58106815D01*
X169275494Y-58027463D01*
X169165180Y-57968498D01*
X169045482Y-57932188D01*
X168921000Y-57919928D01*
X168306750Y-57923000D01*
X168148000Y-58081750D01*
X167894000Y-58081750D01*
X167735250Y-57923000D01*
X167121000Y-57919928D01*
X166996518Y-57932188D01*
X166876820Y-57968498D01*
X166766506Y-58027463D01*
X166669815Y-58106815D01*
X166590463Y-58203506D01*
X166531498Y-58313820D01*
X166495188Y-58433518D01*
X166482928Y-58558000D01*
X164312135Y-58558000D01*
X164215079Y-58376422D01*
X163998266Y-58112234D01*
X163992492Y-58107496D01*
X164003572Y-57995000D01*
X164000500Y-57530750D01*
X163841750Y-57372000D01*
X162242500Y-57372000D01*
X162242500Y-57392000D01*
X161988500Y-57392000D01*
X161988500Y-57372000D01*
X160389250Y-57372000D01*
X160230500Y-57530750D01*
X160227428Y-57995000D01*
X160238508Y-58107496D01*
X160232734Y-58112234D01*
X160015921Y-58376422D01*
X159854814Y-58677832D01*
X159755605Y-59004881D01*
X159722106Y-59345000D01*
X159175655Y-59345000D01*
X159258520Y-41736322D01*
X160365698Y-42843500D01*
G37*
%TD.AperFunction*%
D26*
X170340001Y-53079387D02*
X170285437Y-52997726D01*
X170141274Y-52853563D01*
X169971756Y-52740295D01*
X169783398Y-52662274D01*
X169583439Y-52622500D01*
X169379561Y-52622500D01*
X169184716Y-52661257D01*
X169164537Y-52623506D01*
X169127191Y-52578000D01*
X169164537Y-52532494D01*
X169223502Y-52422180D01*
X169259812Y-52302482D01*
X169272072Y-52178000D01*
X169272072Y-50878000D01*
X169259812Y-50753518D01*
X169223502Y-50633820D01*
X169164537Y-50523506D01*
X169085185Y-50426815D01*
X168988494Y-50347463D01*
X168878180Y-50288498D01*
X168758482Y-50252188D01*
X168634000Y-50239928D01*
X168218230Y-50239928D01*
X167957683Y-49979381D01*
X168433750Y-49977000D01*
X168592500Y-49818250D01*
X168592500Y-48806500D01*
X168846500Y-48806500D01*
X168846500Y-49818250D01*
X169005250Y-49977000D01*
X169619500Y-49980072D01*
X169743982Y-49967812D01*
X169863680Y-49931502D01*
X169973994Y-49872537D01*
X170070685Y-49793185D01*
X170150037Y-49696494D01*
X170209002Y-49586180D01*
X170245312Y-49466482D01*
X170257572Y-49342000D01*
X170254500Y-48965250D01*
X170095750Y-48806500D01*
X168846500Y-48806500D01*
X168592500Y-48806500D01*
X167343250Y-48806500D01*
X167184500Y-48965250D01*
X167182551Y-49204250D01*
X165995301Y-48017000D01*
X167181428Y-48017000D01*
X167184500Y-48393750D01*
X167343250Y-48552500D01*
X168592500Y-48552500D01*
X168592500Y-47540750D01*
X168846500Y-47540750D01*
X168846500Y-48552500D01*
X170095750Y-48552500D01*
X170254500Y-48393750D01*
X170257572Y-48017000D01*
X170245312Y-47892518D01*
X170209002Y-47772820D01*
X170150037Y-47662506D01*
X170070685Y-47565815D01*
X169973994Y-47486463D01*
X169863680Y-47427498D01*
X169743982Y-47391188D01*
X169619500Y-47378928D01*
X169005250Y-47382000D01*
X168846500Y-47540750D01*
X168592500Y-47540750D01*
X168433750Y-47382000D01*
X167819500Y-47378928D01*
X167695018Y-47391188D01*
X167575320Y-47427498D01*
X167465006Y-47486463D01*
X167368315Y-47565815D01*
X167288963Y-47662506D01*
X167229998Y-47772820D01*
X167193688Y-47892518D01*
X167181428Y-48017000D01*
X165995301Y-48017000D01*
X165857072Y-47878771D01*
X165857072Y-47315500D01*
X165844812Y-47191018D01*
X165808502Y-47071320D01*
X165749537Y-46961006D01*
X165670185Y-46864315D01*
X165573494Y-46784963D01*
X165479000Y-46734454D01*
X165479000Y-44151477D01*
X165513916Y-44266582D01*
X165586742Y-44402829D01*
X165684749Y-44522251D01*
X165804171Y-44620258D01*
X165940418Y-44693084D01*
X166088255Y-44737929D01*
X166242000Y-44753072D01*
X167275260Y-44753072D01*
X167249028Y-44802148D01*
X167198492Y-44968743D01*
X167181428Y-45141997D01*
X167181428Y-45967003D01*
X167198492Y-46140257D01*
X167249028Y-46306852D01*
X167331095Y-46460388D01*
X167441537Y-46594963D01*
X167576112Y-46705405D01*
X167729648Y-46787472D01*
X167896243Y-46838008D01*
X168069497Y-46855072D01*
X169369503Y-46855072D01*
X169542757Y-46838008D01*
X169709352Y-46787472D01*
X169862888Y-46705405D01*
X169997463Y-46594963D01*
X170107905Y-46460388D01*
X170189972Y-46306852D01*
X170240508Y-46140257D01*
X170257572Y-45967003D01*
X170257572Y-45141997D01*
X170240508Y-44968743D01*
X170189972Y-44802148D01*
X170107905Y-44648612D01*
X169997463Y-44514037D01*
X169862888Y-44403595D01*
X169709352Y-44321528D01*
X169692706Y-44316479D01*
X169700205Y-44305256D01*
X169778226Y-44116898D01*
X169818000Y-43916939D01*
X169818000Y-43713061D01*
X169778226Y-43513102D01*
X169700205Y-43324744D01*
X169603490Y-43180000D01*
X169700205Y-43035256D01*
X169778226Y-42846898D01*
X169818000Y-42646939D01*
X169818000Y-42443061D01*
X169778226Y-42243102D01*
X169700205Y-42054744D01*
X169603490Y-41910000D01*
X169700205Y-41765256D01*
X169778226Y-41576898D01*
X169818000Y-41376939D01*
X169818000Y-41173061D01*
X169778226Y-40973102D01*
X169700205Y-40784744D01*
X169586937Y-40615226D01*
X169442774Y-40471063D01*
X169273256Y-40357795D01*
X169084898Y-40279774D01*
X168884939Y-40240000D01*
X168681061Y-40240000D01*
X168671513Y-40241899D01*
X168680072Y-40155000D01*
X168680072Y-39855000D01*
X168671700Y-39770000D01*
X168821439Y-39770000D01*
X169021398Y-39730226D01*
X169209756Y-39652205D01*
X169379274Y-39538937D01*
X169523437Y-39394774D01*
X169636705Y-39225256D01*
X169714726Y-39036898D01*
X169754500Y-38836939D01*
X169754500Y-38633061D01*
X169714726Y-38433102D01*
X169636705Y-38244744D01*
X169523437Y-38075226D01*
X169379274Y-37931063D01*
X169209756Y-37817795D01*
X169021398Y-37739774D01*
X168871786Y-37710015D01*
X168878007Y-37703794D01*
X168907011Y-37679991D01*
X169001984Y-37564266D01*
X169072556Y-37432237D01*
X169116013Y-37288976D01*
X169127010Y-37177323D01*
X169130687Y-37139990D01*
X169127010Y-37102657D01*
X169127010Y-35885565D01*
X169130686Y-35848242D01*
X169127010Y-35810919D01*
X169127010Y-35810909D01*
X169116013Y-35699256D01*
X169072556Y-35555995D01*
X169001985Y-35423967D01*
X169001984Y-35423965D01*
X168930809Y-35337239D01*
X168907011Y-35308241D01*
X168878014Y-35284444D01*
X166356572Y-32763003D01*
X166332769Y-32733999D01*
X166217044Y-32639026D01*
X166192666Y-32625995D01*
X166179972Y-32584149D01*
X166097905Y-32430613D01*
X165987462Y-32296038D01*
X165960609Y-32274000D01*
X165987462Y-32251962D01*
X166097905Y-32117387D01*
X166179972Y-31963851D01*
X166230508Y-31797255D01*
X166247572Y-31624001D01*
X166247572Y-30923999D01*
X166236839Y-30815029D01*
X166289209Y-30867399D01*
X166404575Y-30752033D01*
X166515421Y-31029214D01*
X166826340Y-31182589D01*
X167161205Y-31272360D01*
X167507150Y-31295076D01*
X167850880Y-31249866D01*
X168179185Y-31138466D01*
X168383579Y-31029214D01*
X168494426Y-30752031D01*
X167449500Y-29707105D01*
X167435358Y-29721248D01*
X167255753Y-29541643D01*
X167269895Y-29527500D01*
X167629105Y-29527500D01*
X168674031Y-30572426D01*
X168951214Y-30461579D01*
X169104589Y-30150660D01*
X169194360Y-29815795D01*
X169217076Y-29469850D01*
X169171866Y-29126120D01*
X169060466Y-28797815D01*
X168951214Y-28593421D01*
X168674031Y-28482574D01*
X167629105Y-29527500D01*
X167269895Y-29527500D01*
X166224969Y-28482574D01*
X165947786Y-28593421D01*
X165794411Y-28904340D01*
X165704640Y-29239205D01*
X165681924Y-29585150D01*
X165727134Y-29928880D01*
X165805680Y-30160362D01*
X165699351Y-30103528D01*
X165669500Y-30094473D01*
X165669500Y-28469469D01*
X165695805Y-28458573D01*
X165928682Y-28302969D01*
X166404574Y-28302969D01*
X167449500Y-29347895D01*
X168494426Y-28302969D01*
X168383579Y-28025786D01*
X168072660Y-27872411D01*
X167737795Y-27782640D01*
X167391850Y-27759924D01*
X167048120Y-27805134D01*
X166719815Y-27916534D01*
X166515421Y-28025786D01*
X166404574Y-28302969D01*
X165928682Y-28302969D01*
X165967688Y-28276906D01*
X166198906Y-28045688D01*
X166380573Y-27773805D01*
X166505707Y-27471704D01*
X166569500Y-27150996D01*
X166569500Y-26824004D01*
X166505707Y-26503296D01*
X166380573Y-26201195D01*
X166198906Y-25929312D01*
X165967688Y-25698094D01*
X165928683Y-25672031D01*
X166404574Y-25672031D01*
X166515421Y-25949214D01*
X166826340Y-26102589D01*
X167161205Y-26192360D01*
X167507150Y-26215076D01*
X167850880Y-26169866D01*
X168179185Y-26058466D01*
X168383579Y-25949214D01*
X168494426Y-25672031D01*
X167449500Y-24627105D01*
X166404574Y-25672031D01*
X165928683Y-25672031D01*
X165695805Y-25516427D01*
X165393704Y-25391293D01*
X165072996Y-25327500D01*
X164746004Y-25327500D01*
X164425296Y-25391293D01*
X164123195Y-25516427D01*
X163851312Y-25698094D01*
X163620094Y-25929312D01*
X163438427Y-26201195D01*
X163313293Y-26503296D01*
X163249500Y-26824004D01*
X163249500Y-27150996D01*
X163313293Y-27471704D01*
X163438427Y-27773805D01*
X163620094Y-28045688D01*
X163851312Y-28276906D01*
X164123195Y-28458573D01*
X164149501Y-28469469D01*
X164149500Y-30094473D01*
X164119649Y-30103528D01*
X164022124Y-30155656D01*
X164024589Y-30150660D01*
X164114360Y-29815795D01*
X164137076Y-29469850D01*
X164091866Y-29126120D01*
X163980466Y-28797815D01*
X163871214Y-28593421D01*
X163594031Y-28482574D01*
X162549105Y-29527500D01*
X162563248Y-29541643D01*
X162383643Y-29721248D01*
X162369500Y-29707105D01*
X161324574Y-30752031D01*
X161435421Y-31029214D01*
X161746340Y-31182589D01*
X162081205Y-31272360D01*
X162427150Y-31295076D01*
X162770880Y-31249866D01*
X163099185Y-31138466D01*
X163303579Y-31029214D01*
X163414425Y-30752033D01*
X163529791Y-30867399D01*
X163582161Y-30815029D01*
X163571428Y-30923999D01*
X163571428Y-31624001D01*
X163588492Y-31797255D01*
X163639028Y-31963851D01*
X163721095Y-32117387D01*
X163831538Y-32251962D01*
X163858391Y-32274000D01*
X163831538Y-32296038D01*
X163721095Y-32430613D01*
X163639028Y-32584149D01*
X163588492Y-32750745D01*
X163571428Y-32923999D01*
X163571428Y-33624001D01*
X163588492Y-33797255D01*
X163639028Y-33963851D01*
X163721095Y-34117387D01*
X163831538Y-34251962D01*
X163966113Y-34362405D01*
X164119649Y-34444472D01*
X164286245Y-34495008D01*
X164459499Y-34512072D01*
X165359501Y-34512072D01*
X165532755Y-34495008D01*
X165699351Y-34444472D01*
X165822574Y-34378608D01*
X166700894Y-35256928D01*
X166242000Y-35256928D01*
X166088255Y-35272071D01*
X165940418Y-35316916D01*
X165804171Y-35389742D01*
X165684749Y-35487749D01*
X165586742Y-35607171D01*
X165513916Y-35743418D01*
X165469071Y-35891255D01*
X165453928Y-36045000D01*
X165453928Y-36345000D01*
X165469071Y-36498745D01*
X165513916Y-36646582D01*
X165586742Y-36782829D01*
X165625454Y-36830000D01*
X165586742Y-36877171D01*
X165513916Y-37013418D01*
X165469071Y-37161255D01*
X165453928Y-37315000D01*
X165453928Y-37615000D01*
X165469071Y-37768745D01*
X165513916Y-37916582D01*
X165586742Y-38052829D01*
X165625454Y-38100000D01*
X165586742Y-38147171D01*
X165513916Y-38283418D01*
X165469071Y-38431255D01*
X165453928Y-38585000D01*
X165453928Y-38885000D01*
X165469071Y-39038745D01*
X165513916Y-39186582D01*
X165586742Y-39322829D01*
X165625454Y-39370000D01*
X165586742Y-39417171D01*
X165568350Y-39451580D01*
X165551999Y-39464999D01*
X165528201Y-39493997D01*
X164208003Y-40814196D01*
X164178999Y-40837999D01*
X164141999Y-40883084D01*
X164084026Y-40953724D01*
X164071852Y-40976500D01*
X164013454Y-41085754D01*
X164005099Y-41113297D01*
X163655803Y-40764002D01*
X163632001Y-40734999D01*
X163615650Y-40721580D01*
X163597258Y-40687171D01*
X163558546Y-40640000D01*
X163597258Y-40592829D01*
X163670084Y-40456582D01*
X163714929Y-40308745D01*
X163730072Y-40155000D01*
X163730072Y-39855000D01*
X163714929Y-39701255D01*
X163670084Y-39553418D01*
X163597258Y-39417171D01*
X163558546Y-39370000D01*
X163597258Y-39322829D01*
X163670084Y-39186582D01*
X163714929Y-39038745D01*
X163730072Y-38885000D01*
X163730072Y-38585000D01*
X163714929Y-38431255D01*
X163670084Y-38283418D01*
X163597258Y-38147171D01*
X163558546Y-38100000D01*
X163597258Y-38052829D01*
X163670084Y-37916582D01*
X163714929Y-37768745D01*
X163730072Y-37615000D01*
X163730072Y-37315000D01*
X163714929Y-37161255D01*
X163670084Y-37013418D01*
X163598270Y-36879064D01*
X163622537Y-36849494D01*
X163681502Y-36739180D01*
X163717812Y-36619482D01*
X163730072Y-36495000D01*
X163727000Y-36480750D01*
X163568250Y-36322000D01*
X162244000Y-36322000D01*
X162244000Y-36342000D01*
X161990000Y-36342000D01*
X161990000Y-36322000D01*
X160665750Y-36322000D01*
X160507000Y-36480750D01*
X160503928Y-36495000D01*
X160516188Y-36619482D01*
X160552498Y-36739180D01*
X160611463Y-36849494D01*
X160635730Y-36879064D01*
X160576123Y-36990580D01*
X160524189Y-36980250D01*
X160462052Y-36980250D01*
X159376802Y-35895000D01*
X160503928Y-35895000D01*
X160507000Y-35909250D01*
X160665750Y-36068000D01*
X161990000Y-36068000D01*
X161990000Y-35418750D01*
X162244000Y-35418750D01*
X162244000Y-36068000D01*
X163568250Y-36068000D01*
X163727000Y-35909250D01*
X163730072Y-35895000D01*
X163717812Y-35770518D01*
X163681502Y-35650820D01*
X163622537Y-35540506D01*
X163543185Y-35443815D01*
X163446494Y-35364463D01*
X163336180Y-35305498D01*
X163216482Y-35269188D01*
X163092000Y-35256928D01*
X162402750Y-35260000D01*
X162244000Y-35418750D01*
X161990000Y-35418750D01*
X161831250Y-35260000D01*
X161142000Y-35256928D01*
X161017518Y-35269188D01*
X160897820Y-35305498D01*
X160787506Y-35364463D01*
X160690815Y-35443815D01*
X160611463Y-35540506D01*
X160552498Y-35650820D01*
X160516188Y-35770518D01*
X160503928Y-35895000D01*
X159376802Y-35895000D01*
X159286434Y-35804632D01*
X159315702Y-29585150D01*
X160601924Y-29585150D01*
X160647134Y-29928880D01*
X160758534Y-30257185D01*
X160867786Y-30461579D01*
X161144969Y-30572426D01*
X162189895Y-29527500D01*
X161144969Y-28482574D01*
X160867786Y-28593421D01*
X160714411Y-28904340D01*
X160624640Y-29239205D01*
X160601924Y-29585150D01*
X159315702Y-29585150D01*
X159321735Y-28302969D01*
X161324574Y-28302969D01*
X162369500Y-29347895D01*
X163414426Y-28302969D01*
X163303579Y-28025786D01*
X162992660Y-27872411D01*
X162657795Y-27782640D01*
X162311850Y-27759924D01*
X161968120Y-27805134D01*
X161639815Y-27916534D01*
X161435421Y-28025786D01*
X161324574Y-28302969D01*
X159321735Y-28302969D01*
X159334115Y-25672031D01*
X161324574Y-25672031D01*
X161435421Y-25949214D01*
X161746340Y-26102589D01*
X162081205Y-26192360D01*
X162427150Y-26215076D01*
X162770880Y-26169866D01*
X163099185Y-26058466D01*
X163303579Y-25949214D01*
X163414426Y-25672031D01*
X162369500Y-24627105D01*
X161324574Y-25672031D01*
X159334115Y-25672031D01*
X159339607Y-24505150D01*
X160601924Y-24505150D01*
X160647134Y-24848880D01*
X160758534Y-25177185D01*
X160867786Y-25381579D01*
X161144969Y-25492426D01*
X162189895Y-24447500D01*
X162549105Y-24447500D01*
X163594031Y-25492426D01*
X163871214Y-25381579D01*
X164024589Y-25070660D01*
X164114360Y-24735795D01*
X164129504Y-24505150D01*
X165681924Y-24505150D01*
X165727134Y-24848880D01*
X165838534Y-25177185D01*
X165947786Y-25381579D01*
X166224969Y-25492426D01*
X167269895Y-24447500D01*
X167629105Y-24447500D01*
X168674031Y-25492426D01*
X168951214Y-25381579D01*
X169104589Y-25070660D01*
X169194360Y-24735795D01*
X169217076Y-24389850D01*
X169171866Y-24046120D01*
X169060466Y-23717815D01*
X168951214Y-23513421D01*
X168674031Y-23402574D01*
X167629105Y-24447500D01*
X167269895Y-24447500D01*
X166224969Y-23402574D01*
X165947786Y-23513421D01*
X165794411Y-23824340D01*
X165704640Y-24159205D01*
X165681924Y-24505150D01*
X164129504Y-24505150D01*
X164137076Y-24389850D01*
X164091866Y-24046120D01*
X163980466Y-23717815D01*
X163871214Y-23513421D01*
X163594031Y-23402574D01*
X162549105Y-24447500D01*
X162189895Y-24447500D01*
X161144969Y-23402574D01*
X160867786Y-23513421D01*
X160714411Y-23824340D01*
X160624640Y-24159205D01*
X160601924Y-24505150D01*
X159339607Y-24505150D01*
X159345640Y-23222969D01*
X161324574Y-23222969D01*
X162369500Y-24267895D01*
X163414426Y-23222969D01*
X166404574Y-23222969D01*
X167449500Y-24267895D01*
X168494426Y-23222969D01*
X168383579Y-22945786D01*
X168072660Y-22792411D01*
X167737795Y-22702640D01*
X167391850Y-22679924D01*
X167048120Y-22725134D01*
X166719815Y-22836534D01*
X166515421Y-22945786D01*
X166404574Y-23222969D01*
X163414426Y-23222969D01*
X163303579Y-22945786D01*
X162992660Y-22792411D01*
X162657795Y-22702640D01*
X162311850Y-22679924D01*
X161968120Y-22725134D01*
X161639815Y-22836534D01*
X161435421Y-22945786D01*
X161324574Y-23222969D01*
X159345640Y-23222969D01*
X159368902Y-18279872D01*
X165265000Y-18279872D01*
X165265000Y-18720128D01*
X165350890Y-19151925D01*
X165519369Y-19558669D01*
X165763962Y-19924729D01*
X166075271Y-20236038D01*
X166441331Y-20480631D01*
X166848075Y-20649110D01*
X167279872Y-20735000D01*
X167720128Y-20735000D01*
X168151925Y-20649110D01*
X168558669Y-20480631D01*
X168924729Y-20236038D01*
X169236038Y-19924729D01*
X169480631Y-19558669D01*
X169649110Y-19151925D01*
X169735000Y-18720128D01*
X169735000Y-18279872D01*
X169649110Y-17848075D01*
X169480631Y-17441331D01*
X169236038Y-17075271D01*
X168924729Y-16763962D01*
X168558669Y-16519369D01*
X168151925Y-16350890D01*
X167720128Y-16265000D01*
X167279872Y-16265000D01*
X166848075Y-16350890D01*
X166441331Y-16519369D01*
X166075271Y-16763962D01*
X165763962Y-17075271D01*
X165519369Y-17441331D01*
X165350890Y-17848075D01*
X165265000Y-18279872D01*
X159368902Y-18279872D01*
X159381232Y-15660000D01*
X170340000Y-15660000D01*
X170340001Y-53079387D01*
%TA.AperFunction,Conductor*%
D27*
G36*
X170340001Y-53079387D02*
G01*
X170285437Y-52997726D01*
X170141274Y-52853563D01*
X169971756Y-52740295D01*
X169783398Y-52662274D01*
X169583439Y-52622500D01*
X169379561Y-52622500D01*
X169184716Y-52661257D01*
X169164537Y-52623506D01*
X169127191Y-52578000D01*
X169164537Y-52532494D01*
X169223502Y-52422180D01*
X169259812Y-52302482D01*
X169272072Y-52178000D01*
X169272072Y-50878000D01*
X169259812Y-50753518D01*
X169223502Y-50633820D01*
X169164537Y-50523506D01*
X169085185Y-50426815D01*
X168988494Y-50347463D01*
X168878180Y-50288498D01*
X168758482Y-50252188D01*
X168634000Y-50239928D01*
X168218230Y-50239928D01*
X167957683Y-49979381D01*
X168433750Y-49977000D01*
X168592500Y-49818250D01*
X168592500Y-48806500D01*
X168846500Y-48806500D01*
X168846500Y-49818250D01*
X169005250Y-49977000D01*
X169619500Y-49980072D01*
X169743982Y-49967812D01*
X169863680Y-49931502D01*
X169973994Y-49872537D01*
X170070685Y-49793185D01*
X170150037Y-49696494D01*
X170209002Y-49586180D01*
X170245312Y-49466482D01*
X170257572Y-49342000D01*
X170254500Y-48965250D01*
X170095750Y-48806500D01*
X168846500Y-48806500D01*
X168592500Y-48806500D01*
X167343250Y-48806500D01*
X167184500Y-48965250D01*
X167182551Y-49204250D01*
X165995301Y-48017000D01*
X167181428Y-48017000D01*
X167184500Y-48393750D01*
X167343250Y-48552500D01*
X168592500Y-48552500D01*
X168592500Y-47540750D01*
X168846500Y-47540750D01*
X168846500Y-48552500D01*
X170095750Y-48552500D01*
X170254500Y-48393750D01*
X170257572Y-48017000D01*
X170245312Y-47892518D01*
X170209002Y-47772820D01*
X170150037Y-47662506D01*
X170070685Y-47565815D01*
X169973994Y-47486463D01*
X169863680Y-47427498D01*
X169743982Y-47391188D01*
X169619500Y-47378928D01*
X169005250Y-47382000D01*
X168846500Y-47540750D01*
X168592500Y-47540750D01*
X168433750Y-47382000D01*
X167819500Y-47378928D01*
X167695018Y-47391188D01*
X167575320Y-47427498D01*
X167465006Y-47486463D01*
X167368315Y-47565815D01*
X167288963Y-47662506D01*
X167229998Y-47772820D01*
X167193688Y-47892518D01*
X167181428Y-48017000D01*
X165995301Y-48017000D01*
X165857072Y-47878771D01*
X165857072Y-47315500D01*
X165844812Y-47191018D01*
X165808502Y-47071320D01*
X165749537Y-46961006D01*
X165670185Y-46864315D01*
X165573494Y-46784963D01*
X165479000Y-46734454D01*
X165479000Y-44151477D01*
X165513916Y-44266582D01*
X165586742Y-44402829D01*
X165684749Y-44522251D01*
X165804171Y-44620258D01*
X165940418Y-44693084D01*
X166088255Y-44737929D01*
X166242000Y-44753072D01*
X167275260Y-44753072D01*
X167249028Y-44802148D01*
X167198492Y-44968743D01*
X167181428Y-45141997D01*
X167181428Y-45967003D01*
X167198492Y-46140257D01*
X167249028Y-46306852D01*
X167331095Y-46460388D01*
X167441537Y-46594963D01*
X167576112Y-46705405D01*
X167729648Y-46787472D01*
X167896243Y-46838008D01*
X168069497Y-46855072D01*
X169369503Y-46855072D01*
X169542757Y-46838008D01*
X169709352Y-46787472D01*
X169862888Y-46705405D01*
X169997463Y-46594963D01*
X170107905Y-46460388D01*
X170189972Y-46306852D01*
X170240508Y-46140257D01*
X170257572Y-45967003D01*
X170257572Y-45141997D01*
X170240508Y-44968743D01*
X170189972Y-44802148D01*
X170107905Y-44648612D01*
X169997463Y-44514037D01*
X169862888Y-44403595D01*
X169709352Y-44321528D01*
X169692706Y-44316479D01*
X169700205Y-44305256D01*
X169778226Y-44116898D01*
X169818000Y-43916939D01*
X169818000Y-43713061D01*
X169778226Y-43513102D01*
X169700205Y-43324744D01*
X169603490Y-43180000D01*
X169700205Y-43035256D01*
X169778226Y-42846898D01*
X169818000Y-42646939D01*
X169818000Y-42443061D01*
X169778226Y-42243102D01*
X169700205Y-42054744D01*
X169603490Y-41910000D01*
X169700205Y-41765256D01*
X169778226Y-41576898D01*
X169818000Y-41376939D01*
X169818000Y-41173061D01*
X169778226Y-40973102D01*
X169700205Y-40784744D01*
X169586937Y-40615226D01*
X169442774Y-40471063D01*
X169273256Y-40357795D01*
X169084898Y-40279774D01*
X168884939Y-40240000D01*
X168681061Y-40240000D01*
X168671513Y-40241899D01*
X168680072Y-40155000D01*
X168680072Y-39855000D01*
X168671700Y-39770000D01*
X168821439Y-39770000D01*
X169021398Y-39730226D01*
X169209756Y-39652205D01*
X169379274Y-39538937D01*
X169523437Y-39394774D01*
X169636705Y-39225256D01*
X169714726Y-39036898D01*
X169754500Y-38836939D01*
X169754500Y-38633061D01*
X169714726Y-38433102D01*
X169636705Y-38244744D01*
X169523437Y-38075226D01*
X169379274Y-37931063D01*
X169209756Y-37817795D01*
X169021398Y-37739774D01*
X168871786Y-37710015D01*
X168878007Y-37703794D01*
X168907011Y-37679991D01*
X169001984Y-37564266D01*
X169072556Y-37432237D01*
X169116013Y-37288976D01*
X169127010Y-37177323D01*
X169130687Y-37139990D01*
X169127010Y-37102657D01*
X169127010Y-35885565D01*
X169130686Y-35848242D01*
X169127010Y-35810919D01*
X169127010Y-35810909D01*
X169116013Y-35699256D01*
X169072556Y-35555995D01*
X169001985Y-35423967D01*
X169001984Y-35423965D01*
X168930809Y-35337239D01*
X168907011Y-35308241D01*
X168878014Y-35284444D01*
X166356572Y-32763003D01*
X166332769Y-32733999D01*
X166217044Y-32639026D01*
X166192666Y-32625995D01*
X166179972Y-32584149D01*
X166097905Y-32430613D01*
X165987462Y-32296038D01*
X165960609Y-32274000D01*
X165987462Y-32251962D01*
X166097905Y-32117387D01*
X166179972Y-31963851D01*
X166230508Y-31797255D01*
X166247572Y-31624001D01*
X166247572Y-30923999D01*
X166236839Y-30815029D01*
X166289209Y-30867399D01*
X166404575Y-30752033D01*
X166515421Y-31029214D01*
X166826340Y-31182589D01*
X167161205Y-31272360D01*
X167507150Y-31295076D01*
X167850880Y-31249866D01*
X168179185Y-31138466D01*
X168383579Y-31029214D01*
X168494426Y-30752031D01*
X167449500Y-29707105D01*
X167435358Y-29721248D01*
X167255753Y-29541643D01*
X167269895Y-29527500D01*
X167629105Y-29527500D01*
X168674031Y-30572426D01*
X168951214Y-30461579D01*
X169104589Y-30150660D01*
X169194360Y-29815795D01*
X169217076Y-29469850D01*
X169171866Y-29126120D01*
X169060466Y-28797815D01*
X168951214Y-28593421D01*
X168674031Y-28482574D01*
X167629105Y-29527500D01*
X167269895Y-29527500D01*
X166224969Y-28482574D01*
X165947786Y-28593421D01*
X165794411Y-28904340D01*
X165704640Y-29239205D01*
X165681924Y-29585150D01*
X165727134Y-29928880D01*
X165805680Y-30160362D01*
X165699351Y-30103528D01*
X165669500Y-30094473D01*
X165669500Y-28469469D01*
X165695805Y-28458573D01*
X165928682Y-28302969D01*
X166404574Y-28302969D01*
X167449500Y-29347895D01*
X168494426Y-28302969D01*
X168383579Y-28025786D01*
X168072660Y-27872411D01*
X167737795Y-27782640D01*
X167391850Y-27759924D01*
X167048120Y-27805134D01*
X166719815Y-27916534D01*
X166515421Y-28025786D01*
X166404574Y-28302969D01*
X165928682Y-28302969D01*
X165967688Y-28276906D01*
X166198906Y-28045688D01*
X166380573Y-27773805D01*
X166505707Y-27471704D01*
X166569500Y-27150996D01*
X166569500Y-26824004D01*
X166505707Y-26503296D01*
X166380573Y-26201195D01*
X166198906Y-25929312D01*
X165967688Y-25698094D01*
X165928683Y-25672031D01*
X166404574Y-25672031D01*
X166515421Y-25949214D01*
X166826340Y-26102589D01*
X167161205Y-26192360D01*
X167507150Y-26215076D01*
X167850880Y-26169866D01*
X168179185Y-26058466D01*
X168383579Y-25949214D01*
X168494426Y-25672031D01*
X167449500Y-24627105D01*
X166404574Y-25672031D01*
X165928683Y-25672031D01*
X165695805Y-25516427D01*
X165393704Y-25391293D01*
X165072996Y-25327500D01*
X164746004Y-25327500D01*
X164425296Y-25391293D01*
X164123195Y-25516427D01*
X163851312Y-25698094D01*
X163620094Y-25929312D01*
X163438427Y-26201195D01*
X163313293Y-26503296D01*
X163249500Y-26824004D01*
X163249500Y-27150996D01*
X163313293Y-27471704D01*
X163438427Y-27773805D01*
X163620094Y-28045688D01*
X163851312Y-28276906D01*
X164123195Y-28458573D01*
X164149501Y-28469469D01*
X164149500Y-30094473D01*
X164119649Y-30103528D01*
X164022124Y-30155656D01*
X164024589Y-30150660D01*
X164114360Y-29815795D01*
X164137076Y-29469850D01*
X164091866Y-29126120D01*
X163980466Y-28797815D01*
X163871214Y-28593421D01*
X163594031Y-28482574D01*
X162549105Y-29527500D01*
X162563248Y-29541643D01*
X162383643Y-29721248D01*
X162369500Y-29707105D01*
X161324574Y-30752031D01*
X161435421Y-31029214D01*
X161746340Y-31182589D01*
X162081205Y-31272360D01*
X162427150Y-31295076D01*
X162770880Y-31249866D01*
X163099185Y-31138466D01*
X163303579Y-31029214D01*
X163414425Y-30752033D01*
X163529791Y-30867399D01*
X163582161Y-30815029D01*
X163571428Y-30923999D01*
X163571428Y-31624001D01*
X163588492Y-31797255D01*
X163639028Y-31963851D01*
X163721095Y-32117387D01*
X163831538Y-32251962D01*
X163858391Y-32274000D01*
X163831538Y-32296038D01*
X163721095Y-32430613D01*
X163639028Y-32584149D01*
X163588492Y-32750745D01*
X163571428Y-32923999D01*
X163571428Y-33624001D01*
X163588492Y-33797255D01*
X163639028Y-33963851D01*
X163721095Y-34117387D01*
X163831538Y-34251962D01*
X163966113Y-34362405D01*
X164119649Y-34444472D01*
X164286245Y-34495008D01*
X164459499Y-34512072D01*
X165359501Y-34512072D01*
X165532755Y-34495008D01*
X165699351Y-34444472D01*
X165822574Y-34378608D01*
X166700894Y-35256928D01*
X166242000Y-35256928D01*
X166088255Y-35272071D01*
X165940418Y-35316916D01*
X165804171Y-35389742D01*
X165684749Y-35487749D01*
X165586742Y-35607171D01*
X165513916Y-35743418D01*
X165469071Y-35891255D01*
X165453928Y-36045000D01*
X165453928Y-36345000D01*
X165469071Y-36498745D01*
X165513916Y-36646582D01*
X165586742Y-36782829D01*
X165625454Y-36830000D01*
X165586742Y-36877171D01*
X165513916Y-37013418D01*
X165469071Y-37161255D01*
X165453928Y-37315000D01*
X165453928Y-37615000D01*
X165469071Y-37768745D01*
X165513916Y-37916582D01*
X165586742Y-38052829D01*
X165625454Y-38100000D01*
X165586742Y-38147171D01*
X165513916Y-38283418D01*
X165469071Y-38431255D01*
X165453928Y-38585000D01*
X165453928Y-38885000D01*
X165469071Y-39038745D01*
X165513916Y-39186582D01*
X165586742Y-39322829D01*
X165625454Y-39370000D01*
X165586742Y-39417171D01*
X165568350Y-39451580D01*
X165551999Y-39464999D01*
X165528201Y-39493997D01*
X164208003Y-40814196D01*
X164178999Y-40837999D01*
X164141999Y-40883084D01*
X164084026Y-40953724D01*
X164071852Y-40976500D01*
X164013454Y-41085754D01*
X164005099Y-41113297D01*
X163655803Y-40764002D01*
X163632001Y-40734999D01*
X163615650Y-40721580D01*
X163597258Y-40687171D01*
X163558546Y-40640000D01*
X163597258Y-40592829D01*
X163670084Y-40456582D01*
X163714929Y-40308745D01*
X163730072Y-40155000D01*
X163730072Y-39855000D01*
X163714929Y-39701255D01*
X163670084Y-39553418D01*
X163597258Y-39417171D01*
X163558546Y-39370000D01*
X163597258Y-39322829D01*
X163670084Y-39186582D01*
X163714929Y-39038745D01*
X163730072Y-38885000D01*
X163730072Y-38585000D01*
X163714929Y-38431255D01*
X163670084Y-38283418D01*
X163597258Y-38147171D01*
X163558546Y-38100000D01*
X163597258Y-38052829D01*
X163670084Y-37916582D01*
X163714929Y-37768745D01*
X163730072Y-37615000D01*
X163730072Y-37315000D01*
X163714929Y-37161255D01*
X163670084Y-37013418D01*
X163598270Y-36879064D01*
X163622537Y-36849494D01*
X163681502Y-36739180D01*
X163717812Y-36619482D01*
X163730072Y-36495000D01*
X163727000Y-36480750D01*
X163568250Y-36322000D01*
X162244000Y-36322000D01*
X162244000Y-36342000D01*
X161990000Y-36342000D01*
X161990000Y-36322000D01*
X160665750Y-36322000D01*
X160507000Y-36480750D01*
X160503928Y-36495000D01*
X160516188Y-36619482D01*
X160552498Y-36739180D01*
X160611463Y-36849494D01*
X160635730Y-36879064D01*
X160576123Y-36990580D01*
X160524189Y-36980250D01*
X160462052Y-36980250D01*
X159376802Y-35895000D01*
X160503928Y-35895000D01*
X160507000Y-35909250D01*
X160665750Y-36068000D01*
X161990000Y-36068000D01*
X161990000Y-35418750D01*
X162244000Y-35418750D01*
X162244000Y-36068000D01*
X163568250Y-36068000D01*
X163727000Y-35909250D01*
X163730072Y-35895000D01*
X163717812Y-35770518D01*
X163681502Y-35650820D01*
X163622537Y-35540506D01*
X163543185Y-35443815D01*
X163446494Y-35364463D01*
X163336180Y-35305498D01*
X163216482Y-35269188D01*
X163092000Y-35256928D01*
X162402750Y-35260000D01*
X162244000Y-35418750D01*
X161990000Y-35418750D01*
X161831250Y-35260000D01*
X161142000Y-35256928D01*
X161017518Y-35269188D01*
X160897820Y-35305498D01*
X160787506Y-35364463D01*
X160690815Y-35443815D01*
X160611463Y-35540506D01*
X160552498Y-35650820D01*
X160516188Y-35770518D01*
X160503928Y-35895000D01*
X159376802Y-35895000D01*
X159286434Y-35804632D01*
X159315702Y-29585150D01*
X160601924Y-29585150D01*
X160647134Y-29928880D01*
X160758534Y-30257185D01*
X160867786Y-30461579D01*
X161144969Y-30572426D01*
X162189895Y-29527500D01*
X161144969Y-28482574D01*
X160867786Y-28593421D01*
X160714411Y-28904340D01*
X160624640Y-29239205D01*
X160601924Y-29585150D01*
X159315702Y-29585150D01*
X159321735Y-28302969D01*
X161324574Y-28302969D01*
X162369500Y-29347895D01*
X163414426Y-28302969D01*
X163303579Y-28025786D01*
X162992660Y-27872411D01*
X162657795Y-27782640D01*
X162311850Y-27759924D01*
X161968120Y-27805134D01*
X161639815Y-27916534D01*
X161435421Y-28025786D01*
X161324574Y-28302969D01*
X159321735Y-28302969D01*
X159334115Y-25672031D01*
X161324574Y-25672031D01*
X161435421Y-25949214D01*
X161746340Y-26102589D01*
X162081205Y-26192360D01*
X162427150Y-26215076D01*
X162770880Y-26169866D01*
X163099185Y-26058466D01*
X163303579Y-25949214D01*
X163414426Y-25672031D01*
X162369500Y-24627105D01*
X161324574Y-25672031D01*
X159334115Y-25672031D01*
X159339607Y-24505150D01*
X160601924Y-24505150D01*
X160647134Y-24848880D01*
X160758534Y-25177185D01*
X160867786Y-25381579D01*
X161144969Y-25492426D01*
X162189895Y-24447500D01*
X162549105Y-24447500D01*
X163594031Y-25492426D01*
X163871214Y-25381579D01*
X164024589Y-25070660D01*
X164114360Y-24735795D01*
X164129504Y-24505150D01*
X165681924Y-24505150D01*
X165727134Y-24848880D01*
X165838534Y-25177185D01*
X165947786Y-25381579D01*
X166224969Y-25492426D01*
X167269895Y-24447500D01*
X167629105Y-24447500D01*
X168674031Y-25492426D01*
X168951214Y-25381579D01*
X169104589Y-25070660D01*
X169194360Y-24735795D01*
X169217076Y-24389850D01*
X169171866Y-24046120D01*
X169060466Y-23717815D01*
X168951214Y-23513421D01*
X168674031Y-23402574D01*
X167629105Y-24447500D01*
X167269895Y-24447500D01*
X166224969Y-23402574D01*
X165947786Y-23513421D01*
X165794411Y-23824340D01*
X165704640Y-24159205D01*
X165681924Y-24505150D01*
X164129504Y-24505150D01*
X164137076Y-24389850D01*
X164091866Y-24046120D01*
X163980466Y-23717815D01*
X163871214Y-23513421D01*
X163594031Y-23402574D01*
X162549105Y-24447500D01*
X162189895Y-24447500D01*
X161144969Y-23402574D01*
X160867786Y-23513421D01*
X160714411Y-23824340D01*
X160624640Y-24159205D01*
X160601924Y-24505150D01*
X159339607Y-24505150D01*
X159345640Y-23222969D01*
X161324574Y-23222969D01*
X162369500Y-24267895D01*
X163414426Y-23222969D01*
X166404574Y-23222969D01*
X167449500Y-24267895D01*
X168494426Y-23222969D01*
X168383579Y-22945786D01*
X168072660Y-22792411D01*
X167737795Y-22702640D01*
X167391850Y-22679924D01*
X167048120Y-22725134D01*
X166719815Y-22836534D01*
X166515421Y-22945786D01*
X166404574Y-23222969D01*
X163414426Y-23222969D01*
X163303579Y-22945786D01*
X162992660Y-22792411D01*
X162657795Y-22702640D01*
X162311850Y-22679924D01*
X161968120Y-22725134D01*
X161639815Y-22836534D01*
X161435421Y-22945786D01*
X161324574Y-23222969D01*
X159345640Y-23222969D01*
X159368902Y-18279872D01*
X165265000Y-18279872D01*
X165265000Y-18720128D01*
X165350890Y-19151925D01*
X165519369Y-19558669D01*
X165763962Y-19924729D01*
X166075271Y-20236038D01*
X166441331Y-20480631D01*
X166848075Y-20649110D01*
X167279872Y-20735000D01*
X167720128Y-20735000D01*
X168151925Y-20649110D01*
X168558669Y-20480631D01*
X168924729Y-20236038D01*
X169236038Y-19924729D01*
X169480631Y-19558669D01*
X169649110Y-19151925D01*
X169735000Y-18720128D01*
X169735000Y-18279872D01*
X169649110Y-17848075D01*
X169480631Y-17441331D01*
X169236038Y-17075271D01*
X168924729Y-16763962D01*
X168558669Y-16519369D01*
X168151925Y-16350890D01*
X167720128Y-16265000D01*
X167279872Y-16265000D01*
X166848075Y-16350890D01*
X166441331Y-16519369D01*
X166075271Y-16763962D01*
X165763962Y-17075271D01*
X165519369Y-17441331D01*
X165350890Y-17848075D01*
X165265000Y-18279872D01*
X159368902Y-18279872D01*
X159381232Y-15660000D01*
X170340000Y-15660000D01*
X170340001Y-53079387D01*
G37*
%TD.AperFunction*%
%TD*%
D26*
%TO.N,GND*%
X144420563Y-15786726D02*
X144307295Y-15956244D01*
X144229274Y-16144602D01*
X144189500Y-16344561D01*
X144189500Y-16548439D01*
X144229274Y-16748398D01*
X144307295Y-16936756D01*
X144420563Y-17106274D01*
X144564726Y-17250437D01*
X144734244Y-17363705D01*
X144922602Y-17441726D01*
X145122561Y-17481500D01*
X145326439Y-17481500D01*
X145526398Y-17441726D01*
X145714756Y-17363705D01*
X145884274Y-17250437D01*
X145928211Y-17206500D01*
X152196199Y-17206500D01*
X153055747Y-18066049D01*
X153055753Y-18066054D01*
X156014928Y-21025230D01*
X156014928Y-21638501D01*
X156031992Y-21811755D01*
X156082528Y-21978351D01*
X156164595Y-22131887D01*
X156275038Y-22266462D01*
X156301891Y-22288500D01*
X156275038Y-22310538D01*
X156164595Y-22445113D01*
X156082528Y-22598649D01*
X156031992Y-22765245D01*
X156014928Y-22938499D01*
X156014928Y-23638501D01*
X156031992Y-23811755D01*
X156082528Y-23978351D01*
X156164595Y-24131887D01*
X156275038Y-24266462D01*
X156409613Y-24376905D01*
X156563149Y-24458972D01*
X156593000Y-24468027D01*
X156593001Y-26074034D01*
X156545320Y-26088498D01*
X156435006Y-26147463D01*
X156338315Y-26226815D01*
X156258963Y-26323506D01*
X156199998Y-26433820D01*
X156163688Y-26553518D01*
X156151428Y-26678000D01*
X156151428Y-27678000D01*
X156163688Y-27802482D01*
X156199998Y-27922180D01*
X156258963Y-28032494D01*
X156338315Y-28129185D01*
X156435006Y-28208537D01*
X156529500Y-28259046D01*
X156529501Y-34845168D01*
X156525824Y-34882500D01*
X156535421Y-34979942D01*
X156471905Y-34861112D01*
X156361463Y-34726537D01*
X156226888Y-34616095D01*
X156144500Y-34572058D01*
X156144500Y-33402546D01*
X156238994Y-33352037D01*
X156335685Y-33272685D01*
X156415037Y-33175994D01*
X156474002Y-33065680D01*
X156510312Y-32945982D01*
X156522572Y-32821500D01*
X156522572Y-31821500D01*
X156510312Y-31697018D01*
X156474002Y-31577320D01*
X156415037Y-31467006D01*
X156335685Y-31370315D01*
X156238994Y-31290963D01*
X156128680Y-31231998D01*
X156008982Y-31195688D01*
X155884500Y-31183428D01*
X154884500Y-31183428D01*
X154760018Y-31195688D01*
X154640320Y-31231998D01*
X154530006Y-31290963D01*
X154433315Y-31370315D01*
X154353963Y-31467006D01*
X154303454Y-31561500D01*
X153833527Y-31561500D01*
X153824472Y-31531649D01*
X153742405Y-31378113D01*
X153631962Y-31243538D01*
X153497387Y-31133095D01*
X153343851Y-31051028D01*
X153177255Y-31000492D01*
X153004001Y-30983428D01*
X152303999Y-30983428D01*
X152130745Y-31000492D01*
X151964149Y-31051028D01*
X151810613Y-31133095D01*
X151676038Y-31243538D01*
X151654000Y-31270391D01*
X151631962Y-31243538D01*
X151497387Y-31133095D01*
X151382000Y-31071419D01*
X151382000Y-30612211D01*
X151425937Y-30568274D01*
X151539205Y-30398756D01*
X151617226Y-30210398D01*
X151657000Y-30010439D01*
X151657000Y-29806561D01*
X151617226Y-29606602D01*
X151539205Y-29418244D01*
X151425937Y-29248726D01*
X151281774Y-29104563D01*
X151112256Y-28991295D01*
X150923898Y-28913274D01*
X150860572Y-28900678D01*
X150953000Y-28808250D01*
X150953000Y-27559000D01*
X151207000Y-27559000D01*
X151207000Y-28808250D01*
X151365750Y-28967000D01*
X151742500Y-28970072D01*
X151866982Y-28957812D01*
X151986680Y-28921502D01*
X152096994Y-28862537D01*
X152193685Y-28783185D01*
X152273037Y-28686494D01*
X152332002Y-28576180D01*
X152368312Y-28456482D01*
X152380572Y-28332000D01*
X152377500Y-27717750D01*
X152218750Y-27559000D01*
X151207000Y-27559000D01*
X150953000Y-27559000D01*
X149941250Y-27559000D01*
X149782500Y-27717750D01*
X149779428Y-28332000D01*
X149791688Y-28456482D01*
X149827998Y-28576180D01*
X149886963Y-28686494D01*
X149966315Y-28783185D01*
X150063006Y-28862537D01*
X150173320Y-28921502D01*
X150246584Y-28943726D01*
X150131744Y-28991295D01*
X149962226Y-29104563D01*
X149818063Y-29248726D01*
X149704795Y-29418244D01*
X149626774Y-29606602D01*
X149587000Y-29806561D01*
X149587000Y-30010439D01*
X149626774Y-30210398D01*
X149704795Y-30398756D01*
X149818063Y-30568274D01*
X149862000Y-30612211D01*
X149862000Y-30798779D01*
X149854678Y-30799500D01*
X143454711Y-30799500D01*
X143410774Y-30755563D01*
X143241256Y-30642295D01*
X143168797Y-30612281D01*
X143878561Y-29902517D01*
X143926295Y-30017756D01*
X144039563Y-30187274D01*
X144183726Y-30331437D01*
X144353244Y-30444705D01*
X144541602Y-30522726D01*
X144741561Y-30562500D01*
X144945439Y-30562500D01*
X145145398Y-30522726D01*
X145333756Y-30444705D01*
X145381954Y-30412500D01*
X146959031Y-30412500D01*
X147002500Y-30416781D01*
X147045969Y-30412500D01*
X147045977Y-30412500D01*
X147175990Y-30399695D01*
X147342813Y-30349089D01*
X147496559Y-30266911D01*
X147631317Y-30156317D01*
X147659034Y-30122544D01*
X148550049Y-29231530D01*
X148583817Y-29203817D01*
X148694411Y-29069059D01*
X148776589Y-28915313D01*
X148794637Y-28855817D01*
X148860888Y-28820405D01*
X148995463Y-28709963D01*
X149105905Y-28575388D01*
X149187972Y-28421852D01*
X149238508Y-28255257D01*
X149255572Y-28082003D01*
X149255572Y-26781997D01*
X149238508Y-26608743D01*
X149215229Y-26532000D01*
X149779428Y-26532000D01*
X149782500Y-27146250D01*
X149941250Y-27305000D01*
X150953000Y-27305000D01*
X150953000Y-26055750D01*
X151207000Y-26055750D01*
X151207000Y-27305000D01*
X152218750Y-27305000D01*
X152377500Y-27146250D01*
X152380572Y-26532000D01*
X152368312Y-26407518D01*
X152332002Y-26287820D01*
X152273037Y-26177506D01*
X152193685Y-26080815D01*
X152096994Y-26001463D01*
X151986680Y-25942498D01*
X151866982Y-25906188D01*
X151742500Y-25893928D01*
X151365750Y-25897000D01*
X151207000Y-26055750D01*
X150953000Y-26055750D01*
X150794250Y-25897000D01*
X150417500Y-25893928D01*
X150293018Y-25906188D01*
X150173320Y-25942498D01*
X150063006Y-26001463D01*
X149966315Y-26080815D01*
X149886963Y-26177506D01*
X149827998Y-26287820D01*
X149791688Y-26407518D01*
X149779428Y-26532000D01*
X149215229Y-26532000D01*
X149187972Y-26442148D01*
X149105905Y-26288612D01*
X148995463Y-26154037D01*
X148860888Y-26043595D01*
X148707352Y-25961528D01*
X148540757Y-25910992D01*
X148367503Y-25893928D01*
X147542497Y-25893928D01*
X147369243Y-25910992D01*
X147202648Y-25961528D01*
X147049112Y-26043595D01*
X146914537Y-26154037D01*
X146804095Y-26288612D01*
X146722028Y-26442148D01*
X146671492Y-26608743D01*
X146654428Y-26781997D01*
X146654428Y-28082003D01*
X146671492Y-28255257D01*
X146722028Y-28421852D01*
X146768893Y-28509529D01*
X146635922Y-28642500D01*
X145381954Y-28642500D01*
X145333756Y-28610295D01*
X145218518Y-28562561D01*
X145375050Y-28406028D01*
X145408817Y-28378317D01*
X145519411Y-28243559D01*
X145524153Y-28234687D01*
X145601589Y-28089814D01*
X145652195Y-27922990D01*
X145656080Y-27883546D01*
X145665000Y-27792977D01*
X145665000Y-27792969D01*
X145669281Y-27749500D01*
X145665000Y-27706031D01*
X145665000Y-24602021D01*
X145722852Y-24584472D01*
X145876388Y-24502405D01*
X146010963Y-24391963D01*
X146121405Y-24257388D01*
X146203472Y-24103852D01*
X146230728Y-24014000D01*
X146794928Y-24014000D01*
X146807188Y-24138482D01*
X146843498Y-24258180D01*
X146902463Y-24368494D01*
X146981815Y-24465185D01*
X147078506Y-24544537D01*
X147188820Y-24603502D01*
X147308518Y-24639812D01*
X147433000Y-24652072D01*
X147809750Y-24649000D01*
X147968500Y-24490250D01*
X147968500Y-23241000D01*
X148222500Y-23241000D01*
X148222500Y-24490250D01*
X148381250Y-24649000D01*
X148758000Y-24652072D01*
X148882482Y-24639812D01*
X149002180Y-24603502D01*
X149112494Y-24544537D01*
X149209185Y-24465185D01*
X149288537Y-24368494D01*
X149347502Y-24258180D01*
X149383812Y-24138482D01*
X149396072Y-24014000D01*
X149393000Y-23399750D01*
X149234250Y-23241000D01*
X148222500Y-23241000D01*
X147968500Y-23241000D01*
X146956750Y-23241000D01*
X146798000Y-23399750D01*
X146794928Y-24014000D01*
X146230728Y-24014000D01*
X146254008Y-23937257D01*
X146271072Y-23764003D01*
X146271072Y-22463997D01*
X146254008Y-22290743D01*
X146230729Y-22214000D01*
X146794928Y-22214000D01*
X146798000Y-22828250D01*
X146956750Y-22987000D01*
X147968500Y-22987000D01*
X147968500Y-21737750D01*
X148222500Y-21737750D01*
X148222500Y-22987000D01*
X149234250Y-22987000D01*
X149393000Y-22828250D01*
X149396072Y-22214000D01*
X149383812Y-22089518D01*
X149350287Y-21979000D01*
X151706428Y-21979000D01*
X151706428Y-22979000D01*
X151718688Y-23103482D01*
X151754998Y-23223180D01*
X151813963Y-23333494D01*
X151893315Y-23430185D01*
X151990006Y-23509537D01*
X152100320Y-23568502D01*
X152220018Y-23604812D01*
X152344500Y-23617072D01*
X153344500Y-23617072D01*
X153468982Y-23604812D01*
X153588680Y-23568502D01*
X153698994Y-23509537D01*
X153795685Y-23430185D01*
X153875037Y-23333494D01*
X153934002Y-23223180D01*
X153970312Y-23103482D01*
X153982572Y-22979000D01*
X153982572Y-21979000D01*
X153970312Y-21854518D01*
X153934002Y-21734820D01*
X153875037Y-21624506D01*
X153795685Y-21527815D01*
X153698994Y-21448463D01*
X153588680Y-21389498D01*
X153468982Y-21353188D01*
X153344500Y-21340928D01*
X152344500Y-21340928D01*
X152220018Y-21353188D01*
X152100320Y-21389498D01*
X151990006Y-21448463D01*
X151893315Y-21527815D01*
X151813963Y-21624506D01*
X151754998Y-21734820D01*
X151718688Y-21854518D01*
X151706428Y-21979000D01*
X149350287Y-21979000D01*
X149347502Y-21969820D01*
X149288537Y-21859506D01*
X149209185Y-21762815D01*
X149112494Y-21683463D01*
X149002180Y-21624498D01*
X148882482Y-21588188D01*
X148758000Y-21575928D01*
X148381250Y-21579000D01*
X148222500Y-21737750D01*
X147968500Y-21737750D01*
X147809750Y-21579000D01*
X147433000Y-21575928D01*
X147308518Y-21588188D01*
X147188820Y-21624498D01*
X147078506Y-21683463D01*
X146981815Y-21762815D01*
X146902463Y-21859506D01*
X146843498Y-21969820D01*
X146807188Y-22089518D01*
X146794928Y-22214000D01*
X146230729Y-22214000D01*
X146203472Y-22124148D01*
X146121405Y-21970612D01*
X146010963Y-21836037D01*
X145876388Y-21725595D01*
X145722852Y-21643528D01*
X145556257Y-21592992D01*
X145383003Y-21575928D01*
X144557997Y-21575928D01*
X144384743Y-21592992D01*
X144218148Y-21643528D01*
X144064612Y-21725595D01*
X143930037Y-21836037D01*
X143819595Y-21970612D01*
X143737528Y-22124148D01*
X143686992Y-22290743D01*
X143669928Y-22463997D01*
X143669928Y-23764003D01*
X143686992Y-23937257D01*
X143737528Y-24103852D01*
X143819595Y-24257388D01*
X143895001Y-24349271D01*
X143895000Y-27382921D01*
X139972673Y-31305249D01*
X139939743Y-31308492D01*
X139773148Y-31359028D01*
X139619612Y-31441095D01*
X139485037Y-31551537D01*
X139374595Y-31686112D01*
X139292528Y-31839648D01*
X139241992Y-32006243D01*
X139224928Y-32179497D01*
X139224928Y-33479503D01*
X139241992Y-33652757D01*
X139292528Y-33819352D01*
X139374595Y-33972888D01*
X139485037Y-34107463D01*
X139619612Y-34217905D01*
X139773148Y-34299972D01*
X139939743Y-34350508D01*
X140112997Y-34367572D01*
X140938003Y-34367572D01*
X141111257Y-34350508D01*
X141277852Y-34299972D01*
X141431388Y-34217905D01*
X141565963Y-34107463D01*
X141676405Y-33972888D01*
X141758472Y-33819352D01*
X141790278Y-33714500D01*
X142209546Y-33714500D01*
X142257744Y-33746705D01*
X142446102Y-33824726D01*
X142646061Y-33864500D01*
X142849939Y-33864500D01*
X143049898Y-33824726D01*
X143238256Y-33746705D01*
X143407774Y-33633437D01*
X143551937Y-33489274D01*
X143665205Y-33319756D01*
X143743226Y-33131398D01*
X143783000Y-32931439D01*
X143783000Y-32727561D01*
X143743226Y-32527602D01*
X143665205Y-32339244D01*
X143652013Y-32319500D01*
X146839417Y-32319500D01*
X146783795Y-32402744D01*
X146705774Y-32591102D01*
X146666000Y-32791061D01*
X146666000Y-32994939D01*
X146705774Y-33194898D01*
X146783795Y-33383256D01*
X146897063Y-33552774D01*
X147041226Y-33696937D01*
X147210744Y-33810205D01*
X147399102Y-33888226D01*
X147599061Y-33928000D01*
X147802939Y-33928000D01*
X148002898Y-33888226D01*
X148191256Y-33810205D01*
X148360774Y-33696937D01*
X148504937Y-33552774D01*
X148618205Y-33383256D01*
X148696226Y-33194898D01*
X148736000Y-32994939D01*
X148736000Y-32791061D01*
X148696226Y-32591102D01*
X148618205Y-32402744D01*
X148562583Y-32319500D01*
X149415928Y-32319500D01*
X149415928Y-32771501D01*
X149432992Y-32944755D01*
X149483528Y-33111351D01*
X149565595Y-33264887D01*
X149676038Y-33399462D01*
X149810613Y-33509905D01*
X149964149Y-33591972D01*
X150130745Y-33642508D01*
X150303999Y-33659572D01*
X151004001Y-33659572D01*
X151177255Y-33642508D01*
X151343851Y-33591972D01*
X151497387Y-33509905D01*
X151631962Y-33399462D01*
X151654000Y-33372609D01*
X151676038Y-33399462D01*
X151810613Y-33509905D01*
X151964149Y-33591972D01*
X152130745Y-33642508D01*
X152303999Y-33659572D01*
X153004001Y-33659572D01*
X153177255Y-33642508D01*
X153343851Y-33591972D01*
X153497387Y-33509905D01*
X153631962Y-33399462D01*
X153742405Y-33264887D01*
X153824472Y-33111351D01*
X153833527Y-33081500D01*
X154303454Y-33081500D01*
X154353963Y-33175994D01*
X154433315Y-33272685D01*
X154530006Y-33352037D01*
X154624500Y-33402546D01*
X154624501Y-34517085D01*
X154568648Y-34534028D01*
X154415112Y-34616095D01*
X154280537Y-34726537D01*
X154170095Y-34861112D01*
X154088028Y-35014648D01*
X154037492Y-35181243D01*
X154020428Y-35354497D01*
X154020428Y-36654503D01*
X154037492Y-36827757D01*
X154088028Y-36994352D01*
X154170095Y-37147888D01*
X154280537Y-37282463D01*
X154415112Y-37392905D01*
X154568648Y-37474972D01*
X154735243Y-37525508D01*
X154908497Y-37542572D01*
X155064771Y-37542572D01*
X158657707Y-41135509D01*
X158561692Y-68340000D01*
X104660000Y-68340000D01*
X104660000Y-65279872D01*
X105265000Y-65279872D01*
X105265000Y-65720128D01*
X105350890Y-66151925D01*
X105519369Y-66558669D01*
X105763962Y-66924729D01*
X106075271Y-67236038D01*
X106441331Y-67480631D01*
X106848075Y-67649110D01*
X107279872Y-67735000D01*
X107720128Y-67735000D01*
X108151925Y-67649110D01*
X108558669Y-67480631D01*
X108593287Y-67457500D01*
X120372428Y-67457500D01*
X120384688Y-67581982D01*
X120420998Y-67701680D01*
X120479963Y-67811994D01*
X120559315Y-67908685D01*
X120656006Y-67988037D01*
X120766320Y-68047002D01*
X120886018Y-68083312D01*
X121010500Y-68095572D01*
X121824750Y-68092500D01*
X121983500Y-67933750D01*
X121983500Y-66484500D01*
X122237500Y-66484500D01*
X122237500Y-67933750D01*
X122396250Y-68092500D01*
X123210500Y-68095572D01*
X123334982Y-68083312D01*
X123454680Y-68047002D01*
X123564994Y-67988037D01*
X123661685Y-67908685D01*
X123741037Y-67811994D01*
X123800002Y-67701680D01*
X123836312Y-67581982D01*
X123848572Y-67457500D01*
X123845500Y-66643250D01*
X123686750Y-66484500D01*
X122237500Y-66484500D01*
X121983500Y-66484500D01*
X120534250Y-66484500D01*
X120375500Y-66643250D01*
X120372428Y-67457500D01*
X108593287Y-67457500D01*
X108924729Y-67236038D01*
X109236038Y-66924729D01*
X109480631Y-66558669D01*
X109649110Y-66151925D01*
X109735000Y-65720128D01*
X109735000Y-65279872D01*
X109730550Y-65257500D01*
X120372428Y-65257500D01*
X120375500Y-66071750D01*
X120534250Y-66230500D01*
X121983500Y-66230500D01*
X121983500Y-64781250D01*
X122237500Y-64781250D01*
X122237500Y-66230500D01*
X123686750Y-66230500D01*
X123730633Y-66186617D01*
X130535500Y-66186617D01*
X130535500Y-66528383D01*
X130602175Y-66863581D01*
X130732963Y-67179331D01*
X130922837Y-67463498D01*
X131164502Y-67705163D01*
X131448669Y-67895037D01*
X131764419Y-68025825D01*
X132099617Y-68092500D01*
X132441383Y-68092500D01*
X132776581Y-68025825D01*
X133092331Y-67895037D01*
X133376498Y-67705163D01*
X133618163Y-67463498D01*
X133808037Y-67179331D01*
X133938825Y-66863581D01*
X134005500Y-66528383D01*
X134005500Y-66186617D01*
X133938825Y-65851419D01*
X133808037Y-65535669D01*
X133622171Y-65257500D01*
X135612428Y-65257500D01*
X135612428Y-67457500D01*
X135624688Y-67581982D01*
X135660998Y-67701680D01*
X135719963Y-67811994D01*
X135799315Y-67908685D01*
X135896006Y-67988037D01*
X136006320Y-68047002D01*
X136126018Y-68083312D01*
X136250500Y-68095572D01*
X138450500Y-68095572D01*
X138574982Y-68083312D01*
X138694680Y-68047002D01*
X138804994Y-67988037D01*
X138901685Y-67908685D01*
X138981037Y-67811994D01*
X139040002Y-67701680D01*
X139076312Y-67581982D01*
X139088572Y-67457500D01*
X139088572Y-65257500D01*
X139076312Y-65133018D01*
X139040002Y-65013320D01*
X138981037Y-64903006D01*
X138901685Y-64806315D01*
X138804994Y-64726963D01*
X138694680Y-64667998D01*
X138574982Y-64631688D01*
X138450500Y-64619428D01*
X136250500Y-64619428D01*
X136126018Y-64631688D01*
X136006320Y-64667998D01*
X135896006Y-64726963D01*
X135799315Y-64806315D01*
X135719963Y-64903006D01*
X135660998Y-65013320D01*
X135624688Y-65133018D01*
X135612428Y-65257500D01*
X133622171Y-65257500D01*
X133618163Y-65251502D01*
X133376498Y-65009837D01*
X133092331Y-64819963D01*
X132776581Y-64689175D01*
X132441383Y-64622500D01*
X132099617Y-64622500D01*
X131764419Y-64689175D01*
X131448669Y-64819963D01*
X131164502Y-65009837D01*
X130922837Y-65251502D01*
X130732963Y-65535669D01*
X130602175Y-65851419D01*
X130535500Y-66186617D01*
X123730633Y-66186617D01*
X123845500Y-66071750D01*
X123848572Y-65257500D01*
X123836312Y-65133018D01*
X123800002Y-65013320D01*
X123741037Y-64903006D01*
X123661685Y-64806315D01*
X123564994Y-64726963D01*
X123454680Y-64667998D01*
X123334982Y-64631688D01*
X123210500Y-64619428D01*
X122396250Y-64622500D01*
X122237500Y-64781250D01*
X121983500Y-64781250D01*
X121824750Y-64622500D01*
X121010500Y-64619428D01*
X120886018Y-64631688D01*
X120766320Y-64667998D01*
X120656006Y-64726963D01*
X120559315Y-64806315D01*
X120479963Y-64903006D01*
X120420998Y-65013320D01*
X120384688Y-65133018D01*
X120372428Y-65257500D01*
X109730550Y-65257500D01*
X109649110Y-64848075D01*
X109480631Y-64441331D01*
X109236038Y-64075271D01*
X108924729Y-63763962D01*
X108558669Y-63519369D01*
X108151925Y-63350890D01*
X107720128Y-63265000D01*
X107279872Y-63265000D01*
X106848075Y-63350890D01*
X106441331Y-63519369D01*
X106075271Y-63763962D01*
X105763962Y-64075271D01*
X105519369Y-64441331D01*
X105350890Y-64848075D01*
X105265000Y-65279872D01*
X104660000Y-65279872D01*
X104660000Y-57916844D01*
X107271500Y-57916844D01*
X107271500Y-58288156D01*
X107343939Y-58652334D01*
X107486034Y-58995382D01*
X107692325Y-59304118D01*
X107954882Y-59566675D01*
X108263618Y-59772966D01*
X108606666Y-59915061D01*
X108970844Y-59987500D01*
X109342156Y-59987500D01*
X109706334Y-59915061D01*
X110049382Y-59772966D01*
X110358118Y-59566675D01*
X110620675Y-59304118D01*
X110826966Y-58995382D01*
X110830231Y-58987500D01*
X125672478Y-58987500D01*
X125776563Y-59143274D01*
X125920726Y-59287437D01*
X126090244Y-59400705D01*
X126278602Y-59478726D01*
X126478561Y-59518500D01*
X126682439Y-59518500D01*
X126882398Y-59478726D01*
X127070756Y-59400705D01*
X127118954Y-59368500D01*
X127604546Y-59368500D01*
X127652744Y-59400705D01*
X127841102Y-59478726D01*
X128041061Y-59518500D01*
X128244939Y-59518500D01*
X128444898Y-59478726D01*
X128633256Y-59400705D01*
X128681454Y-59368500D01*
X128938046Y-59368500D01*
X128986244Y-59400705D01*
X129174602Y-59478726D01*
X129374561Y-59518500D01*
X129578439Y-59518500D01*
X129778398Y-59478726D01*
X129966756Y-59400705D01*
X130014954Y-59368500D01*
X130335046Y-59368500D01*
X130383244Y-59400705D01*
X130571602Y-59478726D01*
X130771561Y-59518500D01*
X130975439Y-59518500D01*
X131175398Y-59478726D01*
X131286250Y-59432809D01*
X131397102Y-59478726D01*
X131597061Y-59518500D01*
X131800939Y-59518500D01*
X131833212Y-59512081D01*
X131842805Y-59609490D01*
X131893412Y-59776313D01*
X131975590Y-59930059D01*
X132024100Y-59989169D01*
X132037274Y-60055398D01*
X132115295Y-60243756D01*
X132228563Y-60413274D01*
X132372726Y-60557437D01*
X132542244Y-60670705D01*
X132730602Y-60748726D01*
X132930561Y-60788500D01*
X133134439Y-60788500D01*
X133334398Y-60748726D01*
X133522756Y-60670705D01*
X133692274Y-60557437D01*
X133836437Y-60413274D01*
X133949705Y-60243756D01*
X134027726Y-60055398D01*
X134067500Y-59855439D01*
X134067500Y-59651561D01*
X134027726Y-59451602D01*
X133974975Y-59324250D01*
X135065281Y-59324250D01*
X135108750Y-59328531D01*
X135152219Y-59324250D01*
X135152227Y-59324250D01*
X135282240Y-59311445D01*
X135449063Y-59260839D01*
X135602809Y-59178661D01*
X135737567Y-59068067D01*
X135765284Y-59034294D01*
X136918932Y-57880647D01*
X137179617Y-57932500D01*
X137521383Y-57932500D01*
X137856581Y-57865825D01*
X138172331Y-57735037D01*
X138456498Y-57545163D01*
X138698163Y-57303498D01*
X138888037Y-57019331D01*
X139018825Y-56703581D01*
X139085500Y-56368383D01*
X139085500Y-56026617D01*
X139018825Y-55691419D01*
X138888037Y-55375669D01*
X138698163Y-55091502D01*
X138456498Y-54849837D01*
X138172331Y-54659963D01*
X137856581Y-54529175D01*
X137521383Y-54462500D01*
X137179617Y-54462500D01*
X136844419Y-54529175D01*
X136528669Y-54659963D01*
X136244502Y-54849837D01*
X136002837Y-55091502D01*
X135812963Y-55375669D01*
X135682175Y-55691419D01*
X135615500Y-56026617D01*
X135615500Y-56368383D01*
X135667353Y-56629068D01*
X134742172Y-57554250D01*
X133715129Y-57554250D01*
X133750000Y-57378939D01*
X133750000Y-57175061D01*
X133710226Y-56975102D01*
X133632205Y-56786744D01*
X133518937Y-56617226D01*
X133374774Y-56473063D01*
X133205256Y-56359795D01*
X133016898Y-56281774D01*
X132816939Y-56242000D01*
X132613061Y-56242000D01*
X132413102Y-56281774D01*
X132224744Y-56359795D01*
X132055226Y-56473063D01*
X131911063Y-56617226D01*
X131797795Y-56786744D01*
X131719774Y-56975102D01*
X131680000Y-57175061D01*
X131680000Y-57378939D01*
X131693836Y-57448500D01*
X131597061Y-57448500D01*
X131397102Y-57488274D01*
X131286250Y-57534191D01*
X131175398Y-57488274D01*
X130975439Y-57448500D01*
X130771561Y-57448500D01*
X130571602Y-57488274D01*
X130383244Y-57566295D01*
X130335046Y-57598500D01*
X130014954Y-57598500D01*
X129966756Y-57566295D01*
X129778398Y-57488274D01*
X129578439Y-57448500D01*
X129374561Y-57448500D01*
X129174602Y-57488274D01*
X128986244Y-57566295D01*
X128938046Y-57598500D01*
X128681454Y-57598500D01*
X128633256Y-57566295D01*
X128444898Y-57488274D01*
X128244939Y-57448500D01*
X128041061Y-57448500D01*
X127841102Y-57488274D01*
X127652744Y-57566295D01*
X127604546Y-57598500D01*
X127118954Y-57598500D01*
X127070756Y-57566295D01*
X126882398Y-57488274D01*
X126832077Y-57478265D01*
X126828317Y-57473683D01*
X126693559Y-57363089D01*
X126539813Y-57280911D01*
X126372990Y-57230305D01*
X126242977Y-57217500D01*
X126242969Y-57217500D01*
X126199500Y-57213219D01*
X126156031Y-57217500D01*
X110830231Y-57217500D01*
X110826966Y-57209618D01*
X110620675Y-56900882D01*
X110358118Y-56638325D01*
X110049382Y-56432034D01*
X109706334Y-56289939D01*
X109342156Y-56217500D01*
X108970844Y-56217500D01*
X108606666Y-56289939D01*
X108263618Y-56432034D01*
X107954882Y-56638325D01*
X107692325Y-56900882D01*
X107486034Y-57209618D01*
X107343939Y-57552666D01*
X107271500Y-57916844D01*
X104660000Y-57916844D01*
X104660000Y-54416105D01*
X108022500Y-54416105D01*
X108148414Y-54706077D01*
X108480626Y-54871933D01*
X108838812Y-54969790D01*
X109209206Y-54995889D01*
X109577575Y-54949225D01*
X109929762Y-54831594D01*
X110164586Y-54706077D01*
X110290500Y-54416105D01*
X109156500Y-53282105D01*
X108022500Y-54416105D01*
X104660000Y-54416105D01*
X104660000Y-53155206D01*
X107263111Y-53155206D01*
X107309775Y-53523575D01*
X107427406Y-53875762D01*
X107552923Y-54110586D01*
X107842895Y-54236500D01*
X108976895Y-53102500D01*
X109336105Y-53102500D01*
X110470105Y-54236500D01*
X110760077Y-54110586D01*
X110925933Y-53778374D01*
X111023790Y-53420188D01*
X111049889Y-53049794D01*
X111003225Y-52681425D01*
X110885594Y-52329238D01*
X110760077Y-52094414D01*
X110470105Y-51968500D01*
X109336105Y-53102500D01*
X108976895Y-53102500D01*
X107842895Y-51968500D01*
X107552923Y-52094414D01*
X107387067Y-52426626D01*
X107289210Y-52784812D01*
X107263111Y-53155206D01*
X104660000Y-53155206D01*
X104660000Y-51788895D01*
X108022500Y-51788895D01*
X109156500Y-52922895D01*
X110290500Y-51788895D01*
X110164586Y-51498923D01*
X109832374Y-51333067D01*
X109474188Y-51235210D01*
X109103794Y-51209111D01*
X108735425Y-51255775D01*
X108383238Y-51373406D01*
X108148414Y-51498923D01*
X108022500Y-51788895D01*
X104660000Y-51788895D01*
X104660000Y-46852500D01*
X107268428Y-46852500D01*
X107268428Y-49352500D01*
X107280688Y-49476982D01*
X107316998Y-49596680D01*
X107375963Y-49706994D01*
X107455315Y-49803685D01*
X107552006Y-49883037D01*
X107662320Y-49942002D01*
X107782018Y-49978312D01*
X107906500Y-49990572D01*
X109792993Y-49990572D01*
X110017420Y-50214999D01*
X110045133Y-50248767D01*
X110078901Y-50276480D01*
X110078903Y-50276482D01*
X110150402Y-50335160D01*
X110179891Y-50359361D01*
X110333637Y-50441539D01*
X110500460Y-50492145D01*
X110630473Y-50504950D01*
X110630483Y-50504950D01*
X110673949Y-50509231D01*
X110717415Y-50504950D01*
X126562096Y-50504950D01*
X126610294Y-50537155D01*
X126798652Y-50615176D01*
X126998611Y-50654950D01*
X127202489Y-50654950D01*
X127402448Y-50615176D01*
X127590806Y-50537155D01*
X127639004Y-50504950D01*
X128163010Y-50504950D01*
X128164563Y-50507274D01*
X128308726Y-50651437D01*
X128478244Y-50764705D01*
X128666602Y-50842726D01*
X128866561Y-50882500D01*
X129070439Y-50882500D01*
X129270398Y-50842726D01*
X129458756Y-50764705D01*
X129506954Y-50732500D01*
X130081046Y-50732500D01*
X130129244Y-50764705D01*
X130317602Y-50842726D01*
X130517561Y-50882500D01*
X130721439Y-50882500D01*
X130921398Y-50842726D01*
X131109756Y-50764705D01*
X131157954Y-50732500D01*
X131287546Y-50732500D01*
X131335744Y-50764705D01*
X131524102Y-50842726D01*
X131724061Y-50882500D01*
X131927939Y-50882500D01*
X132127898Y-50842726D01*
X132316256Y-50764705D01*
X132364454Y-50732500D01*
X132684546Y-50732500D01*
X132732744Y-50764705D01*
X132921102Y-50842726D01*
X133121061Y-50882500D01*
X133324939Y-50882500D01*
X133524898Y-50842726D01*
X133713256Y-50764705D01*
X133761454Y-50732500D01*
X133954546Y-50732500D01*
X134002744Y-50764705D01*
X134191102Y-50842726D01*
X134391061Y-50882500D01*
X134594939Y-50882500D01*
X134794898Y-50842726D01*
X134983256Y-50764705D01*
X135031454Y-50732500D01*
X135859546Y-50732500D01*
X135907744Y-50764705D01*
X136096102Y-50842726D01*
X136296061Y-50882500D01*
X136499939Y-50882500D01*
X136501428Y-50882204D01*
X136501428Y-50947500D01*
X136513688Y-51071982D01*
X136549998Y-51191680D01*
X136608963Y-51301994D01*
X136688315Y-51398685D01*
X136785006Y-51478037D01*
X136895320Y-51537002D01*
X137015018Y-51573312D01*
X137139500Y-51585572D01*
X139339500Y-51585572D01*
X139463982Y-51573312D01*
X139583680Y-51537002D01*
X139693994Y-51478037D01*
X139790685Y-51398685D01*
X139870037Y-51301994D01*
X139929002Y-51191680D01*
X139960500Y-51087846D01*
X139960500Y-55839020D01*
X139956218Y-55882499D01*
X139973304Y-56055989D01*
X140023911Y-56222812D01*
X140106089Y-56376558D01*
X140188967Y-56477545D01*
X140188970Y-56477548D01*
X140216683Y-56511316D01*
X140250451Y-56539029D01*
X140276428Y-56565006D01*
X140276428Y-56951500D01*
X140288688Y-57075982D01*
X140324998Y-57195680D01*
X140383963Y-57305994D01*
X140463315Y-57402685D01*
X140560006Y-57482037D01*
X140670320Y-57541002D01*
X140790018Y-57577312D01*
X140914500Y-57589572D01*
X141914500Y-57589572D01*
X142038982Y-57577312D01*
X142158680Y-57541002D01*
X142268994Y-57482037D01*
X142365685Y-57402685D01*
X142445037Y-57305994D01*
X142504002Y-57195680D01*
X142540312Y-57075982D01*
X142552572Y-56951500D01*
X142552572Y-55951500D01*
X142540312Y-55827018D01*
X142504002Y-55707320D01*
X142445037Y-55597006D01*
X142365685Y-55500315D01*
X142268994Y-55420963D01*
X142158680Y-55361998D01*
X142038982Y-55325688D01*
X141914500Y-55313428D01*
X141730499Y-55313428D01*
X141730499Y-45173561D01*
X142538500Y-45173561D01*
X142538500Y-45377439D01*
X142578274Y-45577398D01*
X142656295Y-45765756D01*
X142769563Y-45935274D01*
X142776539Y-45942250D01*
X142769563Y-45949226D01*
X142656295Y-46118744D01*
X142578274Y-46307102D01*
X142538500Y-46507061D01*
X142538500Y-46710939D01*
X142578274Y-46910898D01*
X142656295Y-47099256D01*
X142769563Y-47268774D01*
X142913726Y-47412937D01*
X143083244Y-47526205D01*
X143271602Y-47604226D01*
X143471561Y-47644000D01*
X143675439Y-47644000D01*
X143875398Y-47604226D01*
X144063756Y-47526205D01*
X144233274Y-47412937D01*
X144377437Y-47268774D01*
X144490705Y-47099256D01*
X144568726Y-46910898D01*
X144608500Y-46710939D01*
X144608500Y-46507061D01*
X144568726Y-46307102D01*
X144490705Y-46118744D01*
X144377437Y-45949226D01*
X144370461Y-45942250D01*
X144377437Y-45935274D01*
X144490705Y-45765756D01*
X144568726Y-45577398D01*
X144608500Y-45377439D01*
X144608500Y-45173561D01*
X144568726Y-44973602D01*
X144490705Y-44785244D01*
X144377437Y-44615726D01*
X144233274Y-44471563D01*
X144063756Y-44358295D01*
X143875398Y-44280274D01*
X143675439Y-44240500D01*
X143471561Y-44240500D01*
X143271602Y-44280274D01*
X143083244Y-44358295D01*
X142913726Y-44471563D01*
X142769563Y-44615726D01*
X142656295Y-44785244D01*
X142578274Y-44973602D01*
X142538500Y-45173561D01*
X141730499Y-45173561D01*
X141730499Y-41079572D01*
X142295500Y-41079572D01*
X142419982Y-41067312D01*
X142539680Y-41031002D01*
X142649994Y-40972037D01*
X142746685Y-40892685D01*
X142826037Y-40795994D01*
X142885002Y-40685680D01*
X142921312Y-40565982D01*
X142933572Y-40441500D01*
X142933572Y-39441500D01*
X144086428Y-39441500D01*
X144086428Y-40441500D01*
X144098688Y-40565982D01*
X144134998Y-40685680D01*
X144193963Y-40795994D01*
X144273315Y-40892685D01*
X144370006Y-40972037D01*
X144480320Y-41031002D01*
X144600018Y-41067312D01*
X144724500Y-41079572D01*
X145724500Y-41079572D01*
X145848982Y-41067312D01*
X145968680Y-41031002D01*
X146078994Y-40972037D01*
X146175685Y-40892685D01*
X146255037Y-40795994D01*
X146314002Y-40685680D01*
X146350312Y-40565982D01*
X146362572Y-40441500D01*
X146362572Y-39441500D01*
X146350312Y-39317018D01*
X146314002Y-39197320D01*
X146255037Y-39087006D01*
X146175685Y-38990315D01*
X146078994Y-38910963D01*
X145968680Y-38851998D01*
X145848982Y-38815688D01*
X145724500Y-38803428D01*
X144724500Y-38803428D01*
X144600018Y-38815688D01*
X144480320Y-38851998D01*
X144370006Y-38910963D01*
X144273315Y-38990315D01*
X144193963Y-39087006D01*
X144134998Y-39197320D01*
X144098688Y-39317018D01*
X144086428Y-39441500D01*
X142933572Y-39441500D01*
X142921312Y-39317018D01*
X142885002Y-39197320D01*
X142826037Y-39087006D01*
X142746685Y-38990315D01*
X142649994Y-38910963D01*
X142539680Y-38851998D01*
X142419982Y-38815688D01*
X142295500Y-38803428D01*
X141730499Y-38803428D01*
X141730499Y-38273579D01*
X143099578Y-36904500D01*
X150895428Y-36904500D01*
X150907688Y-37028982D01*
X150943998Y-37148680D01*
X151002963Y-37258994D01*
X151082315Y-37355685D01*
X151179006Y-37435037D01*
X151289320Y-37494002D01*
X151409018Y-37530312D01*
X151533500Y-37542572D01*
X151910250Y-37539500D01*
X152069000Y-37380750D01*
X152069000Y-36131500D01*
X152323000Y-36131500D01*
X152323000Y-37380750D01*
X152481750Y-37539500D01*
X152858500Y-37542572D01*
X152982982Y-37530312D01*
X153102680Y-37494002D01*
X153212994Y-37435037D01*
X153309685Y-37355685D01*
X153389037Y-37258994D01*
X153448002Y-37148680D01*
X153484312Y-37028982D01*
X153496572Y-36904500D01*
X153493500Y-36290250D01*
X153334750Y-36131500D01*
X152323000Y-36131500D01*
X152069000Y-36131500D01*
X151057250Y-36131500D01*
X150898500Y-36290250D01*
X150895428Y-36904500D01*
X143099578Y-36904500D01*
X143622579Y-36381500D01*
X144686046Y-36381500D01*
X144734244Y-36413705D01*
X144922602Y-36491726D01*
X145122561Y-36531500D01*
X145326439Y-36531500D01*
X145526398Y-36491726D01*
X145714756Y-36413705D01*
X145884274Y-36300437D01*
X146028437Y-36156274D01*
X146141705Y-35986756D01*
X146219726Y-35798398D01*
X146259500Y-35598439D01*
X146259500Y-35394561D01*
X146219726Y-35194602D01*
X146182405Y-35104500D01*
X150895428Y-35104500D01*
X150898500Y-35718750D01*
X151057250Y-35877500D01*
X152069000Y-35877500D01*
X152069000Y-34628250D01*
X152323000Y-34628250D01*
X152323000Y-35877500D01*
X153334750Y-35877500D01*
X153493500Y-35718750D01*
X153496572Y-35104500D01*
X153484312Y-34980018D01*
X153448002Y-34860320D01*
X153389037Y-34750006D01*
X153309685Y-34653315D01*
X153212994Y-34573963D01*
X153102680Y-34514998D01*
X152982982Y-34478688D01*
X152858500Y-34466428D01*
X152481750Y-34469500D01*
X152323000Y-34628250D01*
X152069000Y-34628250D01*
X151910250Y-34469500D01*
X151533500Y-34466428D01*
X151409018Y-34478688D01*
X151289320Y-34514998D01*
X151179006Y-34573963D01*
X151082315Y-34653315D01*
X151002963Y-34750006D01*
X150943998Y-34860320D01*
X150907688Y-34980018D01*
X150895428Y-35104500D01*
X146182405Y-35104500D01*
X146141705Y-35006244D01*
X146028437Y-34836726D01*
X145884274Y-34692563D01*
X145714756Y-34579295D01*
X145526398Y-34501274D01*
X145326439Y-34461500D01*
X145122561Y-34461500D01*
X144922602Y-34501274D01*
X144734244Y-34579295D01*
X144686046Y-34611500D01*
X143299465Y-34611500D01*
X143255999Y-34607219D01*
X143212533Y-34611500D01*
X143212523Y-34611500D01*
X143082510Y-34624305D01*
X142915687Y-34674911D01*
X142761941Y-34757089D01*
X142761939Y-34757090D01*
X142761940Y-34757090D01*
X142660953Y-34839968D01*
X142660951Y-34839970D01*
X142627183Y-34867683D01*
X142599470Y-34901451D01*
X140250455Y-37250467D01*
X140216682Y-37278184D01*
X140106088Y-37412943D01*
X140023910Y-37566689D01*
X139973304Y-37733512D01*
X139960499Y-37863525D01*
X139960499Y-37863532D01*
X139956218Y-37907001D01*
X139960499Y-37950470D01*
X139960499Y-39446230D01*
X139907825Y-39181419D01*
X139777037Y-38865669D01*
X139587163Y-38581502D01*
X139345498Y-38339837D01*
X139061331Y-38149963D01*
X138745581Y-38019175D01*
X138410383Y-37952500D01*
X138068617Y-37952500D01*
X137733419Y-38019175D01*
X137417669Y-38149963D01*
X137133502Y-38339837D01*
X136891837Y-38581502D01*
X136701963Y-38865669D01*
X136571175Y-39181419D01*
X136504500Y-39516617D01*
X136504500Y-39858383D01*
X136571175Y-40193581D01*
X136701963Y-40509331D01*
X136891837Y-40793498D01*
X137133502Y-41035163D01*
X137417669Y-41225037D01*
X137733419Y-41355825D01*
X138068617Y-41422500D01*
X138410383Y-41422500D01*
X138745581Y-41355825D01*
X139061331Y-41225037D01*
X139345498Y-41035163D01*
X139587163Y-40793498D01*
X139777037Y-40509331D01*
X139907825Y-40193581D01*
X139960499Y-39928770D01*
X139960500Y-48607154D01*
X139929002Y-48503320D01*
X139870037Y-48393006D01*
X139790685Y-48296315D01*
X139693994Y-48216963D01*
X139583680Y-48157998D01*
X139463982Y-48121688D01*
X139339500Y-48109428D01*
X137139500Y-48109428D01*
X137015018Y-48121688D01*
X136895320Y-48157998D01*
X136785006Y-48216963D01*
X136688315Y-48296315D01*
X136608963Y-48393006D01*
X136549998Y-48503320D01*
X136513688Y-48623018D01*
X136501428Y-48747500D01*
X136501428Y-48812796D01*
X136499939Y-48812500D01*
X136296061Y-48812500D01*
X136096102Y-48852274D01*
X135907744Y-48930295D01*
X135859546Y-48962500D01*
X135031454Y-48962500D01*
X134983256Y-48930295D01*
X134794898Y-48852274D01*
X134594939Y-48812500D01*
X134391061Y-48812500D01*
X134191102Y-48852274D01*
X134002744Y-48930295D01*
X133954546Y-48962500D01*
X133761454Y-48962500D01*
X133713256Y-48930295D01*
X133524898Y-48852274D01*
X133324939Y-48812500D01*
X133121061Y-48812500D01*
X132921102Y-48852274D01*
X132732744Y-48930295D01*
X132684546Y-48962500D01*
X132364454Y-48962500D01*
X132316256Y-48930295D01*
X132127898Y-48852274D01*
X131927939Y-48812500D01*
X131724061Y-48812500D01*
X131524102Y-48852274D01*
X131335744Y-48930295D01*
X131287546Y-48962500D01*
X131157954Y-48962500D01*
X131109756Y-48930295D01*
X130921398Y-48852274D01*
X130721439Y-48812500D01*
X130517561Y-48812500D01*
X130317602Y-48852274D01*
X130129244Y-48930295D01*
X130081046Y-48962500D01*
X129506954Y-48962500D01*
X129458756Y-48930295D01*
X129270398Y-48852274D01*
X129129810Y-48824309D01*
X129081263Y-48798361D01*
X128914440Y-48747755D01*
X128784427Y-48734950D01*
X128784419Y-48734950D01*
X128740950Y-48730669D01*
X128697481Y-48734950D01*
X127639004Y-48734950D01*
X127590806Y-48702745D01*
X127402448Y-48624724D01*
X127202489Y-48584950D01*
X126998611Y-48584950D01*
X126798652Y-48624724D01*
X126610294Y-48702745D01*
X126562096Y-48734950D01*
X111044572Y-48734950D01*
X111044572Y-46852500D01*
X111032312Y-46728018D01*
X110996002Y-46608320D01*
X110937037Y-46498006D01*
X110857685Y-46401315D01*
X110760994Y-46321963D01*
X110650680Y-46262998D01*
X110530982Y-46226688D01*
X110406500Y-46214428D01*
X107906500Y-46214428D01*
X107782018Y-46226688D01*
X107662320Y-46262998D01*
X107552006Y-46321963D01*
X107455315Y-46401315D01*
X107375963Y-46498006D01*
X107316998Y-46608320D01*
X107280688Y-46728018D01*
X107268428Y-46852500D01*
X104660000Y-46852500D01*
X104660000Y-38160500D01*
X109658428Y-38160500D01*
X109658428Y-40960500D01*
X109670688Y-41084982D01*
X109706998Y-41204680D01*
X109765963Y-41314994D01*
X109845315Y-41411685D01*
X109942006Y-41491037D01*
X110052320Y-41550002D01*
X110172018Y-41586312D01*
X110296500Y-41598572D01*
X113096500Y-41598572D01*
X113220982Y-41586312D01*
X113340680Y-41550002D01*
X113450994Y-41491037D01*
X113547685Y-41411685D01*
X113627037Y-41314994D01*
X113686002Y-41204680D01*
X113722312Y-41084982D01*
X113734572Y-40960500D01*
X113734572Y-40083622D01*
X121310325Y-40083622D01*
X121374925Y-40296594D01*
X121524969Y-40601829D01*
X121731678Y-40871927D01*
X121987109Y-41096508D01*
X122281446Y-41266942D01*
X122603377Y-41376679D01*
X122872500Y-41259100D01*
X122872500Y-39814500D01*
X123126500Y-39814500D01*
X123126500Y-41259100D01*
X123395623Y-41376679D01*
X123717554Y-41266942D01*
X124011891Y-41096508D01*
X124267322Y-40871927D01*
X124474031Y-40601829D01*
X124624075Y-40296594D01*
X124688675Y-40083622D01*
X124570625Y-39814500D01*
X123126500Y-39814500D01*
X122872500Y-39814500D01*
X121428375Y-39814500D01*
X121310325Y-40083622D01*
X113734572Y-40083622D01*
X113734572Y-39291378D01*
X121310325Y-39291378D01*
X121428375Y-39560500D01*
X122872500Y-39560500D01*
X122872500Y-38115900D01*
X123126500Y-38115900D01*
X123126500Y-39560500D01*
X124570625Y-39560500D01*
X124688675Y-39291378D01*
X124624075Y-39078406D01*
X124474031Y-38773171D01*
X124267322Y-38503073D01*
X124011891Y-38278492D01*
X123717554Y-38108058D01*
X123395623Y-37998321D01*
X123126500Y-38115900D01*
X122872500Y-38115900D01*
X122603377Y-37998321D01*
X122281446Y-38108058D01*
X121987109Y-38278492D01*
X121731678Y-38503073D01*
X121524969Y-38773171D01*
X121374925Y-39078406D01*
X121310325Y-39291378D01*
X113734572Y-39291378D01*
X113734572Y-38160500D01*
X113722312Y-38036018D01*
X113686002Y-37916320D01*
X113627037Y-37806006D01*
X113547685Y-37709315D01*
X113450994Y-37629963D01*
X113340680Y-37570998D01*
X113220982Y-37534688D01*
X113096500Y-37522428D01*
X110296500Y-37522428D01*
X110172018Y-37534688D01*
X110052320Y-37570998D01*
X109942006Y-37629963D01*
X109845315Y-37709315D01*
X109765963Y-37806006D01*
X109706998Y-37916320D01*
X109670688Y-38036018D01*
X109658428Y-38160500D01*
X104660000Y-38160500D01*
X104660000Y-34360070D01*
X109661500Y-34360070D01*
X109661500Y-34760930D01*
X109739704Y-35154087D01*
X109893107Y-35524434D01*
X110115813Y-35857737D01*
X110399263Y-36141187D01*
X110732566Y-36363893D01*
X111102913Y-36517296D01*
X111496070Y-36595500D01*
X111896930Y-36595500D01*
X112290087Y-36517296D01*
X112660434Y-36363893D01*
X112993737Y-36141187D01*
X113277187Y-35857737D01*
X113499893Y-35524434D01*
X113534452Y-35441000D01*
X126496928Y-35441000D01*
X126496928Y-36441000D01*
X126509188Y-36565482D01*
X126545498Y-36685180D01*
X126604463Y-36795494D01*
X126683815Y-36892185D01*
X126750001Y-36946502D01*
X126750000Y-39517031D01*
X126745719Y-39560500D01*
X126750000Y-39603969D01*
X126750000Y-39603976D01*
X126762805Y-39733989D01*
X126813411Y-39900812D01*
X126895589Y-40054558D01*
X127006183Y-40189317D01*
X127039956Y-40217034D01*
X130026470Y-43203549D01*
X130054183Y-43237317D01*
X130087951Y-43265030D01*
X130087953Y-43265032D01*
X130100404Y-43275250D01*
X130188941Y-43347911D01*
X130342687Y-43430089D01*
X130458903Y-43465343D01*
X130509509Y-43480695D01*
X130524306Y-43482152D01*
X130639523Y-43493500D01*
X130639531Y-43493500D01*
X130683000Y-43497781D01*
X130726469Y-43493500D01*
X135415046Y-43493500D01*
X135463244Y-43525705D01*
X135632809Y-43595941D01*
X135703045Y-43765506D01*
X135816313Y-43935024D01*
X135960476Y-44079187D01*
X136129994Y-44192455D01*
X136209756Y-44225494D01*
X136242795Y-44305256D01*
X136356063Y-44474774D01*
X136500226Y-44618937D01*
X136669744Y-44732205D01*
X136858102Y-44810226D01*
X137058061Y-44850000D01*
X137261939Y-44850000D01*
X137461898Y-44810226D01*
X137650256Y-44732205D01*
X137819774Y-44618937D01*
X137963937Y-44474774D01*
X138077205Y-44305256D01*
X138155226Y-44116898D01*
X138195000Y-43916939D01*
X138195000Y-43713061D01*
X138155226Y-43513102D01*
X138077205Y-43324744D01*
X137963937Y-43155226D01*
X137819774Y-43011063D01*
X137650256Y-42897795D01*
X137570494Y-42864756D01*
X137537455Y-42784994D01*
X137424187Y-42615476D01*
X137280024Y-42471313D01*
X137110506Y-42358045D01*
X136940941Y-42287809D01*
X136870705Y-42118244D01*
X136757437Y-41948726D01*
X136613274Y-41804563D01*
X136443756Y-41691295D01*
X136255398Y-41613274D01*
X136055439Y-41573500D01*
X135851561Y-41573500D01*
X135651602Y-41613274D01*
X135463244Y-41691295D01*
X135415046Y-41723500D01*
X131049579Y-41723500D01*
X128520000Y-39193922D01*
X128520000Y-38587500D01*
X131421428Y-38587500D01*
X131421428Y-40787500D01*
X131433688Y-40911982D01*
X131469998Y-41031680D01*
X131528963Y-41141994D01*
X131608315Y-41238685D01*
X131705006Y-41318037D01*
X131815320Y-41377002D01*
X131935018Y-41413312D01*
X132059500Y-41425572D01*
X134259500Y-41425572D01*
X134383982Y-41413312D01*
X134503680Y-41377002D01*
X134613994Y-41318037D01*
X134710685Y-41238685D01*
X134790037Y-41141994D01*
X134849002Y-41031680D01*
X134885312Y-40911982D01*
X134897572Y-40787500D01*
X134897572Y-38587500D01*
X134885312Y-38463018D01*
X134849002Y-38343320D01*
X134790037Y-38233006D01*
X134710685Y-38136315D01*
X134613994Y-38056963D01*
X134503680Y-37997998D01*
X134383982Y-37961688D01*
X134259500Y-37949428D01*
X132059500Y-37949428D01*
X131935018Y-37961688D01*
X131815320Y-37997998D01*
X131705006Y-38056963D01*
X131608315Y-38136315D01*
X131528963Y-38233006D01*
X131469998Y-38343320D01*
X131433688Y-38463018D01*
X131421428Y-38587500D01*
X128520000Y-38587500D01*
X128520000Y-36946501D01*
X128586185Y-36892185D01*
X128665537Y-36795494D01*
X128724502Y-36685180D01*
X128760812Y-36565482D01*
X128773072Y-36441000D01*
X128773072Y-35441000D01*
X128760812Y-35316518D01*
X128724502Y-35196820D01*
X128665537Y-35086506D01*
X128586185Y-34989815D01*
X128489494Y-34910463D01*
X128379180Y-34851498D01*
X128259482Y-34815188D01*
X128135000Y-34802928D01*
X127135000Y-34802928D01*
X127010518Y-34815188D01*
X126890820Y-34851498D01*
X126780506Y-34910463D01*
X126683815Y-34989815D01*
X126604463Y-35086506D01*
X126545498Y-35196820D01*
X126509188Y-35316518D01*
X126496928Y-35441000D01*
X113534452Y-35441000D01*
X113653296Y-35154087D01*
X113731500Y-34760930D01*
X113731500Y-34360070D01*
X113653296Y-33966913D01*
X113587084Y-33807061D01*
X117138500Y-33807061D01*
X117138500Y-34010939D01*
X117178274Y-34210898D01*
X117256295Y-34399256D01*
X117369563Y-34568774D01*
X117513726Y-34712937D01*
X117683244Y-34826205D01*
X117871602Y-34904226D01*
X118071561Y-34944000D01*
X118275439Y-34944000D01*
X118475398Y-34904226D01*
X118663756Y-34826205D01*
X118800254Y-34735000D01*
X121846969Y-34735000D01*
X121890906Y-34778937D01*
X122060424Y-34892205D01*
X122248782Y-34970226D01*
X122448741Y-35010000D01*
X122652619Y-35010000D01*
X122852578Y-34970226D01*
X123040936Y-34892205D01*
X123210454Y-34778937D01*
X123354617Y-34634774D01*
X123467885Y-34465256D01*
X123545906Y-34276898D01*
X123585680Y-34076939D01*
X123585680Y-33873061D01*
X123557125Y-33729500D01*
X136099928Y-33729500D01*
X136112188Y-33853982D01*
X136148498Y-33973680D01*
X136207463Y-34083994D01*
X136286815Y-34180685D01*
X136383506Y-34260037D01*
X136493820Y-34319002D01*
X136613518Y-34355312D01*
X136738000Y-34367572D01*
X137114750Y-34364500D01*
X137273500Y-34205750D01*
X137273500Y-32956500D01*
X137527500Y-32956500D01*
X137527500Y-34205750D01*
X137686250Y-34364500D01*
X138063000Y-34367572D01*
X138187482Y-34355312D01*
X138307180Y-34319002D01*
X138417494Y-34260037D01*
X138514185Y-34180685D01*
X138593537Y-34083994D01*
X138652502Y-33973680D01*
X138688812Y-33853982D01*
X138701072Y-33729500D01*
X138698000Y-33115250D01*
X138539250Y-32956500D01*
X137527500Y-32956500D01*
X137273500Y-32956500D01*
X136261750Y-32956500D01*
X136103000Y-33115250D01*
X136099928Y-33729500D01*
X123557125Y-33729500D01*
X123545906Y-33673102D01*
X123467885Y-33484744D01*
X123354617Y-33315226D01*
X123210454Y-33171063D01*
X123040936Y-33057795D01*
X122852578Y-32979774D01*
X122652619Y-32940000D01*
X122448741Y-32940000D01*
X122248782Y-32979774D01*
X122060424Y-33057795D01*
X121890906Y-33171063D01*
X121846969Y-33215000D01*
X118943211Y-33215000D01*
X118833274Y-33105063D01*
X118663756Y-32991795D01*
X118475398Y-32913774D01*
X118275439Y-32874000D01*
X118071561Y-32874000D01*
X117871602Y-32913774D01*
X117683244Y-32991795D01*
X117513726Y-33105063D01*
X117369563Y-33249226D01*
X117256295Y-33418744D01*
X117178274Y-33607102D01*
X117138500Y-33807061D01*
X113587084Y-33807061D01*
X113499893Y-33596566D01*
X113277187Y-33263263D01*
X112993737Y-32979813D01*
X112660434Y-32757107D01*
X112290087Y-32603704D01*
X111896930Y-32525500D01*
X111496070Y-32525500D01*
X111102913Y-32603704D01*
X110732566Y-32757107D01*
X110399263Y-32979813D01*
X110115813Y-33263263D01*
X109893107Y-33596566D01*
X109739704Y-33966913D01*
X109661500Y-34360070D01*
X104660000Y-34360070D01*
X104660000Y-25227531D01*
X114144074Y-25227531D01*
X114254921Y-25504714D01*
X114565840Y-25658089D01*
X114900705Y-25747860D01*
X115246650Y-25770576D01*
X115590380Y-25725366D01*
X115918685Y-25613966D01*
X116123079Y-25504714D01*
X116233926Y-25227531D01*
X119224074Y-25227531D01*
X119334921Y-25504714D01*
X119645840Y-25658089D01*
X119980705Y-25747860D01*
X120326650Y-25770576D01*
X120670380Y-25725366D01*
X120998685Y-25613966D01*
X121203079Y-25504714D01*
X121313926Y-25227531D01*
X120269000Y-24182605D01*
X119224074Y-25227531D01*
X116233926Y-25227531D01*
X115189000Y-24182605D01*
X114144074Y-25227531D01*
X104660000Y-25227531D01*
X104660000Y-24060650D01*
X113421424Y-24060650D01*
X113466634Y-24404380D01*
X113578034Y-24732685D01*
X113687286Y-24937079D01*
X113964469Y-25047926D01*
X115009395Y-24003000D01*
X115368605Y-24003000D01*
X116413531Y-25047926D01*
X116690714Y-24937079D01*
X116844089Y-24626160D01*
X116933860Y-24291295D01*
X116949004Y-24060650D01*
X118501424Y-24060650D01*
X118546634Y-24404380D01*
X118658034Y-24732685D01*
X118767286Y-24937079D01*
X119044469Y-25047926D01*
X120089395Y-24003000D01*
X120448605Y-24003000D01*
X121493531Y-25047926D01*
X121770714Y-24937079D01*
X121924089Y-24626160D01*
X122013860Y-24291295D01*
X122036576Y-23945350D01*
X121991366Y-23601620D01*
X121879966Y-23273315D01*
X121770714Y-23068921D01*
X121493531Y-22958074D01*
X120448605Y-24003000D01*
X120089395Y-24003000D01*
X119044469Y-22958074D01*
X118767286Y-23068921D01*
X118613911Y-23379840D01*
X118524140Y-23714705D01*
X118501424Y-24060650D01*
X116949004Y-24060650D01*
X116956576Y-23945350D01*
X116911366Y-23601620D01*
X116799966Y-23273315D01*
X116690714Y-23068921D01*
X116413531Y-22958074D01*
X115368605Y-24003000D01*
X115009395Y-24003000D01*
X113964469Y-22958074D01*
X113687286Y-23068921D01*
X113533911Y-23379840D01*
X113444140Y-23714705D01*
X113421424Y-24060650D01*
X104660000Y-24060650D01*
X104660000Y-22778469D01*
X114144074Y-22778469D01*
X115189000Y-23823395D01*
X116233926Y-22778469D01*
X116123079Y-22501286D01*
X115812160Y-22347911D01*
X115477295Y-22258140D01*
X115131350Y-22235424D01*
X114787620Y-22280634D01*
X114459315Y-22392034D01*
X114254921Y-22501286D01*
X114144074Y-22778469D01*
X104660000Y-22778469D01*
X104660000Y-21299504D01*
X116069000Y-21299504D01*
X116069000Y-21626496D01*
X116132793Y-21947204D01*
X116257927Y-22249305D01*
X116439594Y-22521188D01*
X116670812Y-22752406D01*
X116942695Y-22934073D01*
X117244796Y-23059207D01*
X117565504Y-23123000D01*
X117892496Y-23123000D01*
X118213204Y-23059207D01*
X118515305Y-22934073D01*
X118748182Y-22778469D01*
X119224074Y-22778469D01*
X120269000Y-23823395D01*
X121313926Y-22778469D01*
X121268750Y-22665500D01*
X126892606Y-22665500D01*
X126926105Y-23005619D01*
X127025314Y-23332668D01*
X127186421Y-23634078D01*
X127403234Y-23898266D01*
X127594994Y-24055639D01*
X127500236Y-24232919D01*
X127421040Y-24493993D01*
X127394299Y-24765500D01*
X127421040Y-25037007D01*
X127500236Y-25298081D01*
X127628843Y-25538688D01*
X127801919Y-25749581D01*
X127821316Y-25765500D01*
X127801919Y-25781419D01*
X127628843Y-25992312D01*
X127500236Y-26232919D01*
X127421040Y-26493993D01*
X127394299Y-26765500D01*
X127421040Y-27037007D01*
X127500236Y-27298081D01*
X127624940Y-27531386D01*
X127584815Y-27564315D01*
X127505463Y-27661006D01*
X127446498Y-27771320D01*
X127410188Y-27891018D01*
X127397928Y-28015500D01*
X127397928Y-29515500D01*
X127409008Y-29627996D01*
X127403234Y-29632734D01*
X127186421Y-29896922D01*
X127025314Y-30198332D01*
X126926105Y-30525381D01*
X126892606Y-30865500D01*
X126926105Y-31205619D01*
X127025314Y-31532668D01*
X127186421Y-31834078D01*
X127403234Y-32098266D01*
X127667422Y-32315079D01*
X127968832Y-32476186D01*
X128295881Y-32575395D01*
X128550775Y-32600500D01*
X130021225Y-32600500D01*
X130276119Y-32575395D01*
X130603168Y-32476186D01*
X130904578Y-32315079D01*
X131168766Y-32098266D01*
X131307268Y-31929500D01*
X136099928Y-31929500D01*
X136103000Y-32543750D01*
X136261750Y-32702500D01*
X137273500Y-32702500D01*
X137273500Y-31453250D01*
X137527500Y-31453250D01*
X137527500Y-32702500D01*
X138539250Y-32702500D01*
X138698000Y-32543750D01*
X138701072Y-31929500D01*
X138688812Y-31805018D01*
X138652502Y-31685320D01*
X138593537Y-31575006D01*
X138514185Y-31478315D01*
X138417494Y-31398963D01*
X138307180Y-31339998D01*
X138187482Y-31303688D01*
X138063000Y-31291428D01*
X137686250Y-31294500D01*
X137527500Y-31453250D01*
X137273500Y-31453250D01*
X137114750Y-31294500D01*
X136738000Y-31291428D01*
X136613518Y-31303688D01*
X136493820Y-31339998D01*
X136383506Y-31398963D01*
X136286815Y-31478315D01*
X136207463Y-31575006D01*
X136148498Y-31685320D01*
X136112188Y-31805018D01*
X136099928Y-31929500D01*
X131307268Y-31929500D01*
X131385579Y-31834078D01*
X131546686Y-31532668D01*
X131645895Y-31205619D01*
X131679394Y-30865500D01*
X131645895Y-30525381D01*
X131546686Y-30198332D01*
X131385579Y-29896922D01*
X131168766Y-29632734D01*
X131162992Y-29627996D01*
X131174072Y-29515500D01*
X131174072Y-28015500D01*
X131161812Y-27891018D01*
X131125502Y-27771320D01*
X131066537Y-27661006D01*
X130987185Y-27564315D01*
X130947060Y-27531386D01*
X131071764Y-27298081D01*
X131150960Y-27037007D01*
X131177701Y-26765500D01*
X131150960Y-26493993D01*
X131071764Y-26232919D01*
X130943157Y-25992312D01*
X130770081Y-25781419D01*
X130750684Y-25765500D01*
X130770081Y-25749581D01*
X130943157Y-25538688D01*
X131071764Y-25298081D01*
X131150960Y-25037007D01*
X131177701Y-24765500D01*
X131161358Y-24599561D01*
X138919000Y-24599561D01*
X138919000Y-24803439D01*
X138958774Y-25003398D01*
X139036795Y-25191756D01*
X139150063Y-25361274D01*
X139294226Y-25505437D01*
X139463744Y-25618705D01*
X139652102Y-25696726D01*
X139852061Y-25736500D01*
X140055939Y-25736500D01*
X140255898Y-25696726D01*
X140444256Y-25618705D01*
X140584496Y-25525000D01*
X141536289Y-25525000D01*
X141580226Y-25568937D01*
X141707532Y-25654000D01*
X141580226Y-25739063D01*
X141436063Y-25883226D01*
X141396677Y-25942172D01*
X141354643Y-25976668D01*
X141322559Y-26002999D01*
X141298761Y-26031997D01*
X139915979Y-27414780D01*
X139853841Y-27414780D01*
X139653882Y-27454554D01*
X139465524Y-27532575D01*
X139296006Y-27645843D01*
X139151843Y-27790006D01*
X139038575Y-27959524D01*
X138960554Y-28147882D01*
X138920780Y-28347841D01*
X138920780Y-28551719D01*
X138960554Y-28751678D01*
X139038575Y-28940036D01*
X139151843Y-29109554D01*
X139296006Y-29253717D01*
X139465524Y-29366985D01*
X139653882Y-29445006D01*
X139853841Y-29484780D01*
X140057719Y-29484780D01*
X140257678Y-29445006D01*
X140446036Y-29366985D01*
X140615554Y-29253717D01*
X140759717Y-29109554D01*
X140872985Y-28940036D01*
X140951006Y-28751678D01*
X140990780Y-28551719D01*
X140990780Y-28489581D01*
X141941467Y-27538895D01*
X142138061Y-27578000D01*
X142341939Y-27578000D01*
X142541898Y-27538226D01*
X142730256Y-27460205D01*
X142899774Y-27346937D01*
X143043937Y-27202774D01*
X143157205Y-27033256D01*
X143235226Y-26844898D01*
X143275000Y-26644939D01*
X143275000Y-26441061D01*
X143235226Y-26241102D01*
X143157205Y-26052744D01*
X143043937Y-25883226D01*
X142899774Y-25739063D01*
X142772468Y-25654000D01*
X142899774Y-25568937D01*
X143043937Y-25424774D01*
X143157205Y-25255256D01*
X143235226Y-25066898D01*
X143275000Y-24866939D01*
X143275000Y-24663061D01*
X143235226Y-24463102D01*
X143157205Y-24274744D01*
X143043937Y-24105226D01*
X143000000Y-24061289D01*
X143000000Y-22349301D01*
X143676802Y-21672500D01*
X143738939Y-21672500D01*
X143938898Y-21632726D01*
X144127256Y-21554705D01*
X144296774Y-21441437D01*
X144440937Y-21297274D01*
X144554205Y-21127756D01*
X144632226Y-20939398D01*
X144672000Y-20739439D01*
X144672000Y-20535561D01*
X144632226Y-20335602D01*
X144554205Y-20147244D01*
X144440937Y-19977726D01*
X144296774Y-19833563D01*
X144127256Y-19720295D01*
X143938898Y-19642274D01*
X143738939Y-19602500D01*
X143535061Y-19602500D01*
X143335102Y-19642274D01*
X143146744Y-19720295D01*
X142977226Y-19833563D01*
X142833063Y-19977726D01*
X142719795Y-20147244D01*
X142641774Y-20335602D01*
X142602000Y-20535561D01*
X142602000Y-20597698D01*
X141728998Y-21470701D01*
X141700000Y-21494499D01*
X141676202Y-21523497D01*
X141676201Y-21523498D01*
X141605026Y-21610224D01*
X141534454Y-21742254D01*
X141513372Y-21811755D01*
X141490998Y-21885514D01*
X141482606Y-21970718D01*
X141476324Y-22034500D01*
X141480001Y-22071832D01*
X141480000Y-24005000D01*
X140721211Y-24005000D01*
X140613774Y-23897563D01*
X140444256Y-23784295D01*
X140255898Y-23706274D01*
X140055939Y-23666500D01*
X139852061Y-23666500D01*
X139652102Y-23706274D01*
X139463744Y-23784295D01*
X139294226Y-23897563D01*
X139150063Y-24041726D01*
X139036795Y-24211244D01*
X138958774Y-24399602D01*
X138919000Y-24599561D01*
X131161358Y-24599561D01*
X131150960Y-24493993D01*
X131071764Y-24232919D01*
X130977006Y-24055639D01*
X131168766Y-23898266D01*
X131385579Y-23634078D01*
X131546686Y-23332668D01*
X131645895Y-23005619D01*
X131679394Y-22665500D01*
X131645895Y-22325381D01*
X131546686Y-21998332D01*
X131385579Y-21696922D01*
X131168766Y-21432734D01*
X130904578Y-21215921D01*
X130603168Y-21054814D01*
X130276119Y-20955605D01*
X130021225Y-20930500D01*
X128550775Y-20930500D01*
X128295881Y-20955605D01*
X127968832Y-21054814D01*
X127667422Y-21215921D01*
X127403234Y-21432734D01*
X127186421Y-21696922D01*
X127025314Y-21998332D01*
X126926105Y-22325381D01*
X126892606Y-22665500D01*
X121268750Y-22665500D01*
X121203079Y-22501286D01*
X120892160Y-22347911D01*
X120557295Y-22258140D01*
X120211350Y-22235424D01*
X119867620Y-22280634D01*
X119539315Y-22392034D01*
X119334921Y-22501286D01*
X119224074Y-22778469D01*
X118748182Y-22778469D01*
X118787188Y-22752406D01*
X119018406Y-22521188D01*
X119200073Y-22249305D01*
X119325207Y-21947204D01*
X119389000Y-21626496D01*
X119389000Y-21299504D01*
X119325207Y-20978796D01*
X119200073Y-20676695D01*
X119018406Y-20404812D01*
X118787188Y-20173594D01*
X118748183Y-20147531D01*
X119224074Y-20147531D01*
X119334921Y-20424714D01*
X119645840Y-20578089D01*
X119980705Y-20667860D01*
X120326650Y-20690576D01*
X120670380Y-20645366D01*
X120998685Y-20533966D01*
X121203079Y-20424714D01*
X121313926Y-20147531D01*
X120269000Y-19102605D01*
X119224074Y-20147531D01*
X118748183Y-20147531D01*
X118515305Y-19991927D01*
X118213204Y-19866793D01*
X117892496Y-19803000D01*
X117565504Y-19803000D01*
X117244796Y-19866793D01*
X116942695Y-19991927D01*
X116670812Y-20173594D01*
X116439594Y-20404812D01*
X116257927Y-20676695D01*
X116132793Y-20978796D01*
X116069000Y-21299504D01*
X104660000Y-21299504D01*
X104660000Y-18279872D01*
X105265000Y-18279872D01*
X105265000Y-18720128D01*
X105350890Y-19151925D01*
X105519369Y-19558669D01*
X105763962Y-19924729D01*
X106075271Y-20236038D01*
X106441331Y-20480631D01*
X106848075Y-20649110D01*
X107279872Y-20735000D01*
X107720128Y-20735000D01*
X108151925Y-20649110D01*
X108558669Y-20480631D01*
X108924729Y-20236038D01*
X109013236Y-20147531D01*
X114144074Y-20147531D01*
X114254921Y-20424714D01*
X114565840Y-20578089D01*
X114900705Y-20667860D01*
X115246650Y-20690576D01*
X115590380Y-20645366D01*
X115918685Y-20533966D01*
X116123079Y-20424714D01*
X116233926Y-20147531D01*
X115189000Y-19102605D01*
X114144074Y-20147531D01*
X109013236Y-20147531D01*
X109236038Y-19924729D01*
X109480631Y-19558669D01*
X109649110Y-19151925D01*
X109683178Y-18980650D01*
X113421424Y-18980650D01*
X113466634Y-19324380D01*
X113578034Y-19652685D01*
X113687286Y-19857079D01*
X113964469Y-19967926D01*
X115009395Y-18923000D01*
X115368605Y-18923000D01*
X116413531Y-19967926D01*
X116690714Y-19857079D01*
X116844089Y-19546160D01*
X116933860Y-19211295D01*
X116949004Y-18980650D01*
X118501424Y-18980650D01*
X118546634Y-19324380D01*
X118658034Y-19652685D01*
X118767286Y-19857079D01*
X119044469Y-19967926D01*
X120089395Y-18923000D01*
X120448605Y-18923000D01*
X121493531Y-19967926D01*
X121770714Y-19857079D01*
X121924089Y-19546160D01*
X122013860Y-19211295D01*
X122036576Y-18865350D01*
X121991366Y-18521620D01*
X121879966Y-18193315D01*
X121770714Y-17988921D01*
X121493531Y-17878074D01*
X120448605Y-18923000D01*
X120089395Y-18923000D01*
X119044469Y-17878074D01*
X118767286Y-17988921D01*
X118613911Y-18299840D01*
X118524140Y-18634705D01*
X118501424Y-18980650D01*
X116949004Y-18980650D01*
X116956576Y-18865350D01*
X116911366Y-18521620D01*
X116799966Y-18193315D01*
X116690714Y-17988921D01*
X116413531Y-17878074D01*
X115368605Y-18923000D01*
X115009395Y-18923000D01*
X113964469Y-17878074D01*
X113687286Y-17988921D01*
X113533911Y-18299840D01*
X113444140Y-18634705D01*
X113421424Y-18980650D01*
X109683178Y-18980650D01*
X109735000Y-18720128D01*
X109735000Y-18279872D01*
X109649110Y-17848075D01*
X109587142Y-17698469D01*
X114144074Y-17698469D01*
X115189000Y-18743395D01*
X116233926Y-17698469D01*
X119224074Y-17698469D01*
X120269000Y-18743395D01*
X121287895Y-17724500D01*
X140720928Y-17724500D01*
X140720928Y-18724500D01*
X140733188Y-18848982D01*
X140769498Y-18968680D01*
X140828463Y-19078994D01*
X140907815Y-19175685D01*
X141004506Y-19255037D01*
X141114820Y-19314002D01*
X141234518Y-19350312D01*
X141359000Y-19362572D01*
X142359000Y-19362572D01*
X142483482Y-19350312D01*
X142603180Y-19314002D01*
X142713494Y-19255037D01*
X142810185Y-19175685D01*
X142889537Y-19078994D01*
X142948502Y-18968680D01*
X142984812Y-18848982D01*
X142997072Y-18724500D01*
X142997072Y-17724500D01*
X142984812Y-17600018D01*
X142948502Y-17480320D01*
X142889537Y-17370006D01*
X142810185Y-17273315D01*
X142713494Y-17193963D01*
X142603180Y-17134998D01*
X142483482Y-17098688D01*
X142359000Y-17086428D01*
X141359000Y-17086428D01*
X141234518Y-17098688D01*
X141114820Y-17134998D01*
X141004506Y-17193963D01*
X140907815Y-17273315D01*
X140828463Y-17370006D01*
X140769498Y-17480320D01*
X140733188Y-17600018D01*
X140720928Y-17724500D01*
X121287895Y-17724500D01*
X121313926Y-17698469D01*
X121203079Y-17421286D01*
X120892160Y-17267911D01*
X120557295Y-17178140D01*
X120211350Y-17155424D01*
X119867620Y-17200634D01*
X119539315Y-17312034D01*
X119334921Y-17421286D01*
X119224074Y-17698469D01*
X116233926Y-17698469D01*
X116123079Y-17421286D01*
X115812160Y-17267911D01*
X115477295Y-17178140D01*
X115131350Y-17155424D01*
X114787620Y-17200634D01*
X114459315Y-17312034D01*
X114254921Y-17421286D01*
X114144074Y-17698469D01*
X109587142Y-17698469D01*
X109480631Y-17441331D01*
X109236038Y-17075271D01*
X108924729Y-16763962D01*
X108558669Y-16519369D01*
X108151925Y-16350890D01*
X107720128Y-16265000D01*
X107279872Y-16265000D01*
X106848075Y-16350890D01*
X106441331Y-16519369D01*
X106075271Y-16763962D01*
X105763962Y-17075271D01*
X105519369Y-17441331D01*
X105350890Y-17848075D01*
X105265000Y-18279872D01*
X104660000Y-18279872D01*
X104660000Y-15660000D01*
X144547289Y-15660000D01*
X144420563Y-15786726D01*
%TA.AperFunction,Conductor*%
D27*
G36*
X144420563Y-15786726D02*
G01*
X144307295Y-15956244D01*
X144229274Y-16144602D01*
X144189500Y-16344561D01*
X144189500Y-16548439D01*
X144229274Y-16748398D01*
X144307295Y-16936756D01*
X144420563Y-17106274D01*
X144564726Y-17250437D01*
X144734244Y-17363705D01*
X144922602Y-17441726D01*
X145122561Y-17481500D01*
X145326439Y-17481500D01*
X145526398Y-17441726D01*
X145714756Y-17363705D01*
X145884274Y-17250437D01*
X145928211Y-17206500D01*
X152196199Y-17206500D01*
X153055747Y-18066049D01*
X153055753Y-18066054D01*
X156014928Y-21025230D01*
X156014928Y-21638501D01*
X156031992Y-21811755D01*
X156082528Y-21978351D01*
X156164595Y-22131887D01*
X156275038Y-22266462D01*
X156301891Y-22288500D01*
X156275038Y-22310538D01*
X156164595Y-22445113D01*
X156082528Y-22598649D01*
X156031992Y-22765245D01*
X156014928Y-22938499D01*
X156014928Y-23638501D01*
X156031992Y-23811755D01*
X156082528Y-23978351D01*
X156164595Y-24131887D01*
X156275038Y-24266462D01*
X156409613Y-24376905D01*
X156563149Y-24458972D01*
X156593000Y-24468027D01*
X156593001Y-26074034D01*
X156545320Y-26088498D01*
X156435006Y-26147463D01*
X156338315Y-26226815D01*
X156258963Y-26323506D01*
X156199998Y-26433820D01*
X156163688Y-26553518D01*
X156151428Y-26678000D01*
X156151428Y-27678000D01*
X156163688Y-27802482D01*
X156199998Y-27922180D01*
X156258963Y-28032494D01*
X156338315Y-28129185D01*
X156435006Y-28208537D01*
X156529500Y-28259046D01*
X156529501Y-34845168D01*
X156525824Y-34882500D01*
X156535421Y-34979942D01*
X156471905Y-34861112D01*
X156361463Y-34726537D01*
X156226888Y-34616095D01*
X156144500Y-34572058D01*
X156144500Y-33402546D01*
X156238994Y-33352037D01*
X156335685Y-33272685D01*
X156415037Y-33175994D01*
X156474002Y-33065680D01*
X156510312Y-32945982D01*
X156522572Y-32821500D01*
X156522572Y-31821500D01*
X156510312Y-31697018D01*
X156474002Y-31577320D01*
X156415037Y-31467006D01*
X156335685Y-31370315D01*
X156238994Y-31290963D01*
X156128680Y-31231998D01*
X156008982Y-31195688D01*
X155884500Y-31183428D01*
X154884500Y-31183428D01*
X154760018Y-31195688D01*
X154640320Y-31231998D01*
X154530006Y-31290963D01*
X154433315Y-31370315D01*
X154353963Y-31467006D01*
X154303454Y-31561500D01*
X153833527Y-31561500D01*
X153824472Y-31531649D01*
X153742405Y-31378113D01*
X153631962Y-31243538D01*
X153497387Y-31133095D01*
X153343851Y-31051028D01*
X153177255Y-31000492D01*
X153004001Y-30983428D01*
X152303999Y-30983428D01*
X152130745Y-31000492D01*
X151964149Y-31051028D01*
X151810613Y-31133095D01*
X151676038Y-31243538D01*
X151654000Y-31270391D01*
X151631962Y-31243538D01*
X151497387Y-31133095D01*
X151382000Y-31071419D01*
X151382000Y-30612211D01*
X151425937Y-30568274D01*
X151539205Y-30398756D01*
X151617226Y-30210398D01*
X151657000Y-30010439D01*
X151657000Y-29806561D01*
X151617226Y-29606602D01*
X151539205Y-29418244D01*
X151425937Y-29248726D01*
X151281774Y-29104563D01*
X151112256Y-28991295D01*
X150923898Y-28913274D01*
X150860572Y-28900678D01*
X150953000Y-28808250D01*
X150953000Y-27559000D01*
X151207000Y-27559000D01*
X151207000Y-28808250D01*
X151365750Y-28967000D01*
X151742500Y-28970072D01*
X151866982Y-28957812D01*
X151986680Y-28921502D01*
X152096994Y-28862537D01*
X152193685Y-28783185D01*
X152273037Y-28686494D01*
X152332002Y-28576180D01*
X152368312Y-28456482D01*
X152380572Y-28332000D01*
X152377500Y-27717750D01*
X152218750Y-27559000D01*
X151207000Y-27559000D01*
X150953000Y-27559000D01*
X149941250Y-27559000D01*
X149782500Y-27717750D01*
X149779428Y-28332000D01*
X149791688Y-28456482D01*
X149827998Y-28576180D01*
X149886963Y-28686494D01*
X149966315Y-28783185D01*
X150063006Y-28862537D01*
X150173320Y-28921502D01*
X150246584Y-28943726D01*
X150131744Y-28991295D01*
X149962226Y-29104563D01*
X149818063Y-29248726D01*
X149704795Y-29418244D01*
X149626774Y-29606602D01*
X149587000Y-29806561D01*
X149587000Y-30010439D01*
X149626774Y-30210398D01*
X149704795Y-30398756D01*
X149818063Y-30568274D01*
X149862000Y-30612211D01*
X149862000Y-30798779D01*
X149854678Y-30799500D01*
X143454711Y-30799500D01*
X143410774Y-30755563D01*
X143241256Y-30642295D01*
X143168797Y-30612281D01*
X143878561Y-29902517D01*
X143926295Y-30017756D01*
X144039563Y-30187274D01*
X144183726Y-30331437D01*
X144353244Y-30444705D01*
X144541602Y-30522726D01*
X144741561Y-30562500D01*
X144945439Y-30562500D01*
X145145398Y-30522726D01*
X145333756Y-30444705D01*
X145381954Y-30412500D01*
X146959031Y-30412500D01*
X147002500Y-30416781D01*
X147045969Y-30412500D01*
X147045977Y-30412500D01*
X147175990Y-30399695D01*
X147342813Y-30349089D01*
X147496559Y-30266911D01*
X147631317Y-30156317D01*
X147659034Y-30122544D01*
X148550049Y-29231530D01*
X148583817Y-29203817D01*
X148694411Y-29069059D01*
X148776589Y-28915313D01*
X148794637Y-28855817D01*
X148860888Y-28820405D01*
X148995463Y-28709963D01*
X149105905Y-28575388D01*
X149187972Y-28421852D01*
X149238508Y-28255257D01*
X149255572Y-28082003D01*
X149255572Y-26781997D01*
X149238508Y-26608743D01*
X149215229Y-26532000D01*
X149779428Y-26532000D01*
X149782500Y-27146250D01*
X149941250Y-27305000D01*
X150953000Y-27305000D01*
X150953000Y-26055750D01*
X151207000Y-26055750D01*
X151207000Y-27305000D01*
X152218750Y-27305000D01*
X152377500Y-27146250D01*
X152380572Y-26532000D01*
X152368312Y-26407518D01*
X152332002Y-26287820D01*
X152273037Y-26177506D01*
X152193685Y-26080815D01*
X152096994Y-26001463D01*
X151986680Y-25942498D01*
X151866982Y-25906188D01*
X151742500Y-25893928D01*
X151365750Y-25897000D01*
X151207000Y-26055750D01*
X150953000Y-26055750D01*
X150794250Y-25897000D01*
X150417500Y-25893928D01*
X150293018Y-25906188D01*
X150173320Y-25942498D01*
X150063006Y-26001463D01*
X149966315Y-26080815D01*
X149886963Y-26177506D01*
X149827998Y-26287820D01*
X149791688Y-26407518D01*
X149779428Y-26532000D01*
X149215229Y-26532000D01*
X149187972Y-26442148D01*
X149105905Y-26288612D01*
X148995463Y-26154037D01*
X148860888Y-26043595D01*
X148707352Y-25961528D01*
X148540757Y-25910992D01*
X148367503Y-25893928D01*
X147542497Y-25893928D01*
X147369243Y-25910992D01*
X147202648Y-25961528D01*
X147049112Y-26043595D01*
X146914537Y-26154037D01*
X146804095Y-26288612D01*
X146722028Y-26442148D01*
X146671492Y-26608743D01*
X146654428Y-26781997D01*
X146654428Y-28082003D01*
X146671492Y-28255257D01*
X146722028Y-28421852D01*
X146768893Y-28509529D01*
X146635922Y-28642500D01*
X145381954Y-28642500D01*
X145333756Y-28610295D01*
X145218518Y-28562561D01*
X145375050Y-28406028D01*
X145408817Y-28378317D01*
X145519411Y-28243559D01*
X145524153Y-28234687D01*
X145601589Y-28089814D01*
X145652195Y-27922990D01*
X145656080Y-27883546D01*
X145665000Y-27792977D01*
X145665000Y-27792969D01*
X145669281Y-27749500D01*
X145665000Y-27706031D01*
X145665000Y-24602021D01*
X145722852Y-24584472D01*
X145876388Y-24502405D01*
X146010963Y-24391963D01*
X146121405Y-24257388D01*
X146203472Y-24103852D01*
X146230728Y-24014000D01*
X146794928Y-24014000D01*
X146807188Y-24138482D01*
X146843498Y-24258180D01*
X146902463Y-24368494D01*
X146981815Y-24465185D01*
X147078506Y-24544537D01*
X147188820Y-24603502D01*
X147308518Y-24639812D01*
X147433000Y-24652072D01*
X147809750Y-24649000D01*
X147968500Y-24490250D01*
X147968500Y-23241000D01*
X148222500Y-23241000D01*
X148222500Y-24490250D01*
X148381250Y-24649000D01*
X148758000Y-24652072D01*
X148882482Y-24639812D01*
X149002180Y-24603502D01*
X149112494Y-24544537D01*
X149209185Y-24465185D01*
X149288537Y-24368494D01*
X149347502Y-24258180D01*
X149383812Y-24138482D01*
X149396072Y-24014000D01*
X149393000Y-23399750D01*
X149234250Y-23241000D01*
X148222500Y-23241000D01*
X147968500Y-23241000D01*
X146956750Y-23241000D01*
X146798000Y-23399750D01*
X146794928Y-24014000D01*
X146230728Y-24014000D01*
X146254008Y-23937257D01*
X146271072Y-23764003D01*
X146271072Y-22463997D01*
X146254008Y-22290743D01*
X146230729Y-22214000D01*
X146794928Y-22214000D01*
X146798000Y-22828250D01*
X146956750Y-22987000D01*
X147968500Y-22987000D01*
X147968500Y-21737750D01*
X148222500Y-21737750D01*
X148222500Y-22987000D01*
X149234250Y-22987000D01*
X149393000Y-22828250D01*
X149396072Y-22214000D01*
X149383812Y-22089518D01*
X149350287Y-21979000D01*
X151706428Y-21979000D01*
X151706428Y-22979000D01*
X151718688Y-23103482D01*
X151754998Y-23223180D01*
X151813963Y-23333494D01*
X151893315Y-23430185D01*
X151990006Y-23509537D01*
X152100320Y-23568502D01*
X152220018Y-23604812D01*
X152344500Y-23617072D01*
X153344500Y-23617072D01*
X153468982Y-23604812D01*
X153588680Y-23568502D01*
X153698994Y-23509537D01*
X153795685Y-23430185D01*
X153875037Y-23333494D01*
X153934002Y-23223180D01*
X153970312Y-23103482D01*
X153982572Y-22979000D01*
X153982572Y-21979000D01*
X153970312Y-21854518D01*
X153934002Y-21734820D01*
X153875037Y-21624506D01*
X153795685Y-21527815D01*
X153698994Y-21448463D01*
X153588680Y-21389498D01*
X153468982Y-21353188D01*
X153344500Y-21340928D01*
X152344500Y-21340928D01*
X152220018Y-21353188D01*
X152100320Y-21389498D01*
X151990006Y-21448463D01*
X151893315Y-21527815D01*
X151813963Y-21624506D01*
X151754998Y-21734820D01*
X151718688Y-21854518D01*
X151706428Y-21979000D01*
X149350287Y-21979000D01*
X149347502Y-21969820D01*
X149288537Y-21859506D01*
X149209185Y-21762815D01*
X149112494Y-21683463D01*
X149002180Y-21624498D01*
X148882482Y-21588188D01*
X148758000Y-21575928D01*
X148381250Y-21579000D01*
X148222500Y-21737750D01*
X147968500Y-21737750D01*
X147809750Y-21579000D01*
X147433000Y-21575928D01*
X147308518Y-21588188D01*
X147188820Y-21624498D01*
X147078506Y-21683463D01*
X146981815Y-21762815D01*
X146902463Y-21859506D01*
X146843498Y-21969820D01*
X146807188Y-22089518D01*
X146794928Y-22214000D01*
X146230729Y-22214000D01*
X146203472Y-22124148D01*
X146121405Y-21970612D01*
X146010963Y-21836037D01*
X145876388Y-21725595D01*
X145722852Y-21643528D01*
X145556257Y-21592992D01*
X145383003Y-21575928D01*
X144557997Y-21575928D01*
X144384743Y-21592992D01*
X144218148Y-21643528D01*
X144064612Y-21725595D01*
X143930037Y-21836037D01*
X143819595Y-21970612D01*
X143737528Y-22124148D01*
X143686992Y-22290743D01*
X143669928Y-22463997D01*
X143669928Y-23764003D01*
X143686992Y-23937257D01*
X143737528Y-24103852D01*
X143819595Y-24257388D01*
X143895001Y-24349271D01*
X143895000Y-27382921D01*
X139972673Y-31305249D01*
X139939743Y-31308492D01*
X139773148Y-31359028D01*
X139619612Y-31441095D01*
X139485037Y-31551537D01*
X139374595Y-31686112D01*
X139292528Y-31839648D01*
X139241992Y-32006243D01*
X139224928Y-32179497D01*
X139224928Y-33479503D01*
X139241992Y-33652757D01*
X139292528Y-33819352D01*
X139374595Y-33972888D01*
X139485037Y-34107463D01*
X139619612Y-34217905D01*
X139773148Y-34299972D01*
X139939743Y-34350508D01*
X140112997Y-34367572D01*
X140938003Y-34367572D01*
X141111257Y-34350508D01*
X141277852Y-34299972D01*
X141431388Y-34217905D01*
X141565963Y-34107463D01*
X141676405Y-33972888D01*
X141758472Y-33819352D01*
X141790278Y-33714500D01*
X142209546Y-33714500D01*
X142257744Y-33746705D01*
X142446102Y-33824726D01*
X142646061Y-33864500D01*
X142849939Y-33864500D01*
X143049898Y-33824726D01*
X143238256Y-33746705D01*
X143407774Y-33633437D01*
X143551937Y-33489274D01*
X143665205Y-33319756D01*
X143743226Y-33131398D01*
X143783000Y-32931439D01*
X143783000Y-32727561D01*
X143743226Y-32527602D01*
X143665205Y-32339244D01*
X143652013Y-32319500D01*
X146839417Y-32319500D01*
X146783795Y-32402744D01*
X146705774Y-32591102D01*
X146666000Y-32791061D01*
X146666000Y-32994939D01*
X146705774Y-33194898D01*
X146783795Y-33383256D01*
X146897063Y-33552774D01*
X147041226Y-33696937D01*
X147210744Y-33810205D01*
X147399102Y-33888226D01*
X147599061Y-33928000D01*
X147802939Y-33928000D01*
X148002898Y-33888226D01*
X148191256Y-33810205D01*
X148360774Y-33696937D01*
X148504937Y-33552774D01*
X148618205Y-33383256D01*
X148696226Y-33194898D01*
X148736000Y-32994939D01*
X148736000Y-32791061D01*
X148696226Y-32591102D01*
X148618205Y-32402744D01*
X148562583Y-32319500D01*
X149415928Y-32319500D01*
X149415928Y-32771501D01*
X149432992Y-32944755D01*
X149483528Y-33111351D01*
X149565595Y-33264887D01*
X149676038Y-33399462D01*
X149810613Y-33509905D01*
X149964149Y-33591972D01*
X150130745Y-33642508D01*
X150303999Y-33659572D01*
X151004001Y-33659572D01*
X151177255Y-33642508D01*
X151343851Y-33591972D01*
X151497387Y-33509905D01*
X151631962Y-33399462D01*
X151654000Y-33372609D01*
X151676038Y-33399462D01*
X151810613Y-33509905D01*
X151964149Y-33591972D01*
X152130745Y-33642508D01*
X152303999Y-33659572D01*
X153004001Y-33659572D01*
X153177255Y-33642508D01*
X153343851Y-33591972D01*
X153497387Y-33509905D01*
X153631962Y-33399462D01*
X153742405Y-33264887D01*
X153824472Y-33111351D01*
X153833527Y-33081500D01*
X154303454Y-33081500D01*
X154353963Y-33175994D01*
X154433315Y-33272685D01*
X154530006Y-33352037D01*
X154624500Y-33402546D01*
X154624501Y-34517085D01*
X154568648Y-34534028D01*
X154415112Y-34616095D01*
X154280537Y-34726537D01*
X154170095Y-34861112D01*
X154088028Y-35014648D01*
X154037492Y-35181243D01*
X154020428Y-35354497D01*
X154020428Y-36654503D01*
X154037492Y-36827757D01*
X154088028Y-36994352D01*
X154170095Y-37147888D01*
X154280537Y-37282463D01*
X154415112Y-37392905D01*
X154568648Y-37474972D01*
X154735243Y-37525508D01*
X154908497Y-37542572D01*
X155064771Y-37542572D01*
X158657707Y-41135509D01*
X158561692Y-68340000D01*
X104660000Y-68340000D01*
X104660000Y-65279872D01*
X105265000Y-65279872D01*
X105265000Y-65720128D01*
X105350890Y-66151925D01*
X105519369Y-66558669D01*
X105763962Y-66924729D01*
X106075271Y-67236038D01*
X106441331Y-67480631D01*
X106848075Y-67649110D01*
X107279872Y-67735000D01*
X107720128Y-67735000D01*
X108151925Y-67649110D01*
X108558669Y-67480631D01*
X108593287Y-67457500D01*
X120372428Y-67457500D01*
X120384688Y-67581982D01*
X120420998Y-67701680D01*
X120479963Y-67811994D01*
X120559315Y-67908685D01*
X120656006Y-67988037D01*
X120766320Y-68047002D01*
X120886018Y-68083312D01*
X121010500Y-68095572D01*
X121824750Y-68092500D01*
X121983500Y-67933750D01*
X121983500Y-66484500D01*
X122237500Y-66484500D01*
X122237500Y-67933750D01*
X122396250Y-68092500D01*
X123210500Y-68095572D01*
X123334982Y-68083312D01*
X123454680Y-68047002D01*
X123564994Y-67988037D01*
X123661685Y-67908685D01*
X123741037Y-67811994D01*
X123800002Y-67701680D01*
X123836312Y-67581982D01*
X123848572Y-67457500D01*
X123845500Y-66643250D01*
X123686750Y-66484500D01*
X122237500Y-66484500D01*
X121983500Y-66484500D01*
X120534250Y-66484500D01*
X120375500Y-66643250D01*
X120372428Y-67457500D01*
X108593287Y-67457500D01*
X108924729Y-67236038D01*
X109236038Y-66924729D01*
X109480631Y-66558669D01*
X109649110Y-66151925D01*
X109735000Y-65720128D01*
X109735000Y-65279872D01*
X109730550Y-65257500D01*
X120372428Y-65257500D01*
X120375500Y-66071750D01*
X120534250Y-66230500D01*
X121983500Y-66230500D01*
X121983500Y-64781250D01*
X122237500Y-64781250D01*
X122237500Y-66230500D01*
X123686750Y-66230500D01*
X123730633Y-66186617D01*
X130535500Y-66186617D01*
X130535500Y-66528383D01*
X130602175Y-66863581D01*
X130732963Y-67179331D01*
X130922837Y-67463498D01*
X131164502Y-67705163D01*
X131448669Y-67895037D01*
X131764419Y-68025825D01*
X132099617Y-68092500D01*
X132441383Y-68092500D01*
X132776581Y-68025825D01*
X133092331Y-67895037D01*
X133376498Y-67705163D01*
X133618163Y-67463498D01*
X133808037Y-67179331D01*
X133938825Y-66863581D01*
X134005500Y-66528383D01*
X134005500Y-66186617D01*
X133938825Y-65851419D01*
X133808037Y-65535669D01*
X133622171Y-65257500D01*
X135612428Y-65257500D01*
X135612428Y-67457500D01*
X135624688Y-67581982D01*
X135660998Y-67701680D01*
X135719963Y-67811994D01*
X135799315Y-67908685D01*
X135896006Y-67988037D01*
X136006320Y-68047002D01*
X136126018Y-68083312D01*
X136250500Y-68095572D01*
X138450500Y-68095572D01*
X138574982Y-68083312D01*
X138694680Y-68047002D01*
X138804994Y-67988037D01*
X138901685Y-67908685D01*
X138981037Y-67811994D01*
X139040002Y-67701680D01*
X139076312Y-67581982D01*
X139088572Y-67457500D01*
X139088572Y-65257500D01*
X139076312Y-65133018D01*
X139040002Y-65013320D01*
X138981037Y-64903006D01*
X138901685Y-64806315D01*
X138804994Y-64726963D01*
X138694680Y-64667998D01*
X138574982Y-64631688D01*
X138450500Y-64619428D01*
X136250500Y-64619428D01*
X136126018Y-64631688D01*
X136006320Y-64667998D01*
X135896006Y-64726963D01*
X135799315Y-64806315D01*
X135719963Y-64903006D01*
X135660998Y-65013320D01*
X135624688Y-65133018D01*
X135612428Y-65257500D01*
X133622171Y-65257500D01*
X133618163Y-65251502D01*
X133376498Y-65009837D01*
X133092331Y-64819963D01*
X132776581Y-64689175D01*
X132441383Y-64622500D01*
X132099617Y-64622500D01*
X131764419Y-64689175D01*
X131448669Y-64819963D01*
X131164502Y-65009837D01*
X130922837Y-65251502D01*
X130732963Y-65535669D01*
X130602175Y-65851419D01*
X130535500Y-66186617D01*
X123730633Y-66186617D01*
X123845500Y-66071750D01*
X123848572Y-65257500D01*
X123836312Y-65133018D01*
X123800002Y-65013320D01*
X123741037Y-64903006D01*
X123661685Y-64806315D01*
X123564994Y-64726963D01*
X123454680Y-64667998D01*
X123334982Y-64631688D01*
X123210500Y-64619428D01*
X122396250Y-64622500D01*
X122237500Y-64781250D01*
X121983500Y-64781250D01*
X121824750Y-64622500D01*
X121010500Y-64619428D01*
X120886018Y-64631688D01*
X120766320Y-64667998D01*
X120656006Y-64726963D01*
X120559315Y-64806315D01*
X120479963Y-64903006D01*
X120420998Y-65013320D01*
X120384688Y-65133018D01*
X120372428Y-65257500D01*
X109730550Y-65257500D01*
X109649110Y-64848075D01*
X109480631Y-64441331D01*
X109236038Y-64075271D01*
X108924729Y-63763962D01*
X108558669Y-63519369D01*
X108151925Y-63350890D01*
X107720128Y-63265000D01*
X107279872Y-63265000D01*
X106848075Y-63350890D01*
X106441331Y-63519369D01*
X106075271Y-63763962D01*
X105763962Y-64075271D01*
X105519369Y-64441331D01*
X105350890Y-64848075D01*
X105265000Y-65279872D01*
X104660000Y-65279872D01*
X104660000Y-57916844D01*
X107271500Y-57916844D01*
X107271500Y-58288156D01*
X107343939Y-58652334D01*
X107486034Y-58995382D01*
X107692325Y-59304118D01*
X107954882Y-59566675D01*
X108263618Y-59772966D01*
X108606666Y-59915061D01*
X108970844Y-59987500D01*
X109342156Y-59987500D01*
X109706334Y-59915061D01*
X110049382Y-59772966D01*
X110358118Y-59566675D01*
X110620675Y-59304118D01*
X110826966Y-58995382D01*
X110830231Y-58987500D01*
X125672478Y-58987500D01*
X125776563Y-59143274D01*
X125920726Y-59287437D01*
X126090244Y-59400705D01*
X126278602Y-59478726D01*
X126478561Y-59518500D01*
X126682439Y-59518500D01*
X126882398Y-59478726D01*
X127070756Y-59400705D01*
X127118954Y-59368500D01*
X127604546Y-59368500D01*
X127652744Y-59400705D01*
X127841102Y-59478726D01*
X128041061Y-59518500D01*
X128244939Y-59518500D01*
X128444898Y-59478726D01*
X128633256Y-59400705D01*
X128681454Y-59368500D01*
X128938046Y-59368500D01*
X128986244Y-59400705D01*
X129174602Y-59478726D01*
X129374561Y-59518500D01*
X129578439Y-59518500D01*
X129778398Y-59478726D01*
X129966756Y-59400705D01*
X130014954Y-59368500D01*
X130335046Y-59368500D01*
X130383244Y-59400705D01*
X130571602Y-59478726D01*
X130771561Y-59518500D01*
X130975439Y-59518500D01*
X131175398Y-59478726D01*
X131286250Y-59432809D01*
X131397102Y-59478726D01*
X131597061Y-59518500D01*
X131800939Y-59518500D01*
X131833212Y-59512081D01*
X131842805Y-59609490D01*
X131893412Y-59776313D01*
X131975590Y-59930059D01*
X132024100Y-59989169D01*
X132037274Y-60055398D01*
X132115295Y-60243756D01*
X132228563Y-60413274D01*
X132372726Y-60557437D01*
X132542244Y-60670705D01*
X132730602Y-60748726D01*
X132930561Y-60788500D01*
X133134439Y-60788500D01*
X133334398Y-60748726D01*
X133522756Y-60670705D01*
X133692274Y-60557437D01*
X133836437Y-60413274D01*
X133949705Y-60243756D01*
X134027726Y-60055398D01*
X134067500Y-59855439D01*
X134067500Y-59651561D01*
X134027726Y-59451602D01*
X133974975Y-59324250D01*
X135065281Y-59324250D01*
X135108750Y-59328531D01*
X135152219Y-59324250D01*
X135152227Y-59324250D01*
X135282240Y-59311445D01*
X135449063Y-59260839D01*
X135602809Y-59178661D01*
X135737567Y-59068067D01*
X135765284Y-59034294D01*
X136918932Y-57880647D01*
X137179617Y-57932500D01*
X137521383Y-57932500D01*
X137856581Y-57865825D01*
X138172331Y-57735037D01*
X138456498Y-57545163D01*
X138698163Y-57303498D01*
X138888037Y-57019331D01*
X139018825Y-56703581D01*
X139085500Y-56368383D01*
X139085500Y-56026617D01*
X139018825Y-55691419D01*
X138888037Y-55375669D01*
X138698163Y-55091502D01*
X138456498Y-54849837D01*
X138172331Y-54659963D01*
X137856581Y-54529175D01*
X137521383Y-54462500D01*
X137179617Y-54462500D01*
X136844419Y-54529175D01*
X136528669Y-54659963D01*
X136244502Y-54849837D01*
X136002837Y-55091502D01*
X135812963Y-55375669D01*
X135682175Y-55691419D01*
X135615500Y-56026617D01*
X135615500Y-56368383D01*
X135667353Y-56629068D01*
X134742172Y-57554250D01*
X133715129Y-57554250D01*
X133750000Y-57378939D01*
X133750000Y-57175061D01*
X133710226Y-56975102D01*
X133632205Y-56786744D01*
X133518937Y-56617226D01*
X133374774Y-56473063D01*
X133205256Y-56359795D01*
X133016898Y-56281774D01*
X132816939Y-56242000D01*
X132613061Y-56242000D01*
X132413102Y-56281774D01*
X132224744Y-56359795D01*
X132055226Y-56473063D01*
X131911063Y-56617226D01*
X131797795Y-56786744D01*
X131719774Y-56975102D01*
X131680000Y-57175061D01*
X131680000Y-57378939D01*
X131693836Y-57448500D01*
X131597061Y-57448500D01*
X131397102Y-57488274D01*
X131286250Y-57534191D01*
X131175398Y-57488274D01*
X130975439Y-57448500D01*
X130771561Y-57448500D01*
X130571602Y-57488274D01*
X130383244Y-57566295D01*
X130335046Y-57598500D01*
X130014954Y-57598500D01*
X129966756Y-57566295D01*
X129778398Y-57488274D01*
X129578439Y-57448500D01*
X129374561Y-57448500D01*
X129174602Y-57488274D01*
X128986244Y-57566295D01*
X128938046Y-57598500D01*
X128681454Y-57598500D01*
X128633256Y-57566295D01*
X128444898Y-57488274D01*
X128244939Y-57448500D01*
X128041061Y-57448500D01*
X127841102Y-57488274D01*
X127652744Y-57566295D01*
X127604546Y-57598500D01*
X127118954Y-57598500D01*
X127070756Y-57566295D01*
X126882398Y-57488274D01*
X126832077Y-57478265D01*
X126828317Y-57473683D01*
X126693559Y-57363089D01*
X126539813Y-57280911D01*
X126372990Y-57230305D01*
X126242977Y-57217500D01*
X126242969Y-57217500D01*
X126199500Y-57213219D01*
X126156031Y-57217500D01*
X110830231Y-57217500D01*
X110826966Y-57209618D01*
X110620675Y-56900882D01*
X110358118Y-56638325D01*
X110049382Y-56432034D01*
X109706334Y-56289939D01*
X109342156Y-56217500D01*
X108970844Y-56217500D01*
X108606666Y-56289939D01*
X108263618Y-56432034D01*
X107954882Y-56638325D01*
X107692325Y-56900882D01*
X107486034Y-57209618D01*
X107343939Y-57552666D01*
X107271500Y-57916844D01*
X104660000Y-57916844D01*
X104660000Y-54416105D01*
X108022500Y-54416105D01*
X108148414Y-54706077D01*
X108480626Y-54871933D01*
X108838812Y-54969790D01*
X109209206Y-54995889D01*
X109577575Y-54949225D01*
X109929762Y-54831594D01*
X110164586Y-54706077D01*
X110290500Y-54416105D01*
X109156500Y-53282105D01*
X108022500Y-54416105D01*
X104660000Y-54416105D01*
X104660000Y-53155206D01*
X107263111Y-53155206D01*
X107309775Y-53523575D01*
X107427406Y-53875762D01*
X107552923Y-54110586D01*
X107842895Y-54236500D01*
X108976895Y-53102500D01*
X109336105Y-53102500D01*
X110470105Y-54236500D01*
X110760077Y-54110586D01*
X110925933Y-53778374D01*
X111023790Y-53420188D01*
X111049889Y-53049794D01*
X111003225Y-52681425D01*
X110885594Y-52329238D01*
X110760077Y-52094414D01*
X110470105Y-51968500D01*
X109336105Y-53102500D01*
X108976895Y-53102500D01*
X107842895Y-51968500D01*
X107552923Y-52094414D01*
X107387067Y-52426626D01*
X107289210Y-52784812D01*
X107263111Y-53155206D01*
X104660000Y-53155206D01*
X104660000Y-51788895D01*
X108022500Y-51788895D01*
X109156500Y-52922895D01*
X110290500Y-51788895D01*
X110164586Y-51498923D01*
X109832374Y-51333067D01*
X109474188Y-51235210D01*
X109103794Y-51209111D01*
X108735425Y-51255775D01*
X108383238Y-51373406D01*
X108148414Y-51498923D01*
X108022500Y-51788895D01*
X104660000Y-51788895D01*
X104660000Y-46852500D01*
X107268428Y-46852500D01*
X107268428Y-49352500D01*
X107280688Y-49476982D01*
X107316998Y-49596680D01*
X107375963Y-49706994D01*
X107455315Y-49803685D01*
X107552006Y-49883037D01*
X107662320Y-49942002D01*
X107782018Y-49978312D01*
X107906500Y-49990572D01*
X109792993Y-49990572D01*
X110017420Y-50214999D01*
X110045133Y-50248767D01*
X110078901Y-50276480D01*
X110078903Y-50276482D01*
X110150402Y-50335160D01*
X110179891Y-50359361D01*
X110333637Y-50441539D01*
X110500460Y-50492145D01*
X110630473Y-50504950D01*
X110630483Y-50504950D01*
X110673949Y-50509231D01*
X110717415Y-50504950D01*
X126562096Y-50504950D01*
X126610294Y-50537155D01*
X126798652Y-50615176D01*
X126998611Y-50654950D01*
X127202489Y-50654950D01*
X127402448Y-50615176D01*
X127590806Y-50537155D01*
X127639004Y-50504950D01*
X128163010Y-50504950D01*
X128164563Y-50507274D01*
X128308726Y-50651437D01*
X128478244Y-50764705D01*
X128666602Y-50842726D01*
X128866561Y-50882500D01*
X129070439Y-50882500D01*
X129270398Y-50842726D01*
X129458756Y-50764705D01*
X129506954Y-50732500D01*
X130081046Y-50732500D01*
X130129244Y-50764705D01*
X130317602Y-50842726D01*
X130517561Y-50882500D01*
X130721439Y-50882500D01*
X130921398Y-50842726D01*
X131109756Y-50764705D01*
X131157954Y-50732500D01*
X131287546Y-50732500D01*
X131335744Y-50764705D01*
X131524102Y-50842726D01*
X131724061Y-50882500D01*
X131927939Y-50882500D01*
X132127898Y-50842726D01*
X132316256Y-50764705D01*
X132364454Y-50732500D01*
X132684546Y-50732500D01*
X132732744Y-50764705D01*
X132921102Y-50842726D01*
X133121061Y-50882500D01*
X133324939Y-50882500D01*
X133524898Y-50842726D01*
X133713256Y-50764705D01*
X133761454Y-50732500D01*
X133954546Y-50732500D01*
X134002744Y-50764705D01*
X134191102Y-50842726D01*
X134391061Y-50882500D01*
X134594939Y-50882500D01*
X134794898Y-50842726D01*
X134983256Y-50764705D01*
X135031454Y-50732500D01*
X135859546Y-50732500D01*
X135907744Y-50764705D01*
X136096102Y-50842726D01*
X136296061Y-50882500D01*
X136499939Y-50882500D01*
X136501428Y-50882204D01*
X136501428Y-50947500D01*
X136513688Y-51071982D01*
X136549998Y-51191680D01*
X136608963Y-51301994D01*
X136688315Y-51398685D01*
X136785006Y-51478037D01*
X136895320Y-51537002D01*
X137015018Y-51573312D01*
X137139500Y-51585572D01*
X139339500Y-51585572D01*
X139463982Y-51573312D01*
X139583680Y-51537002D01*
X139693994Y-51478037D01*
X139790685Y-51398685D01*
X139870037Y-51301994D01*
X139929002Y-51191680D01*
X139960500Y-51087846D01*
X139960500Y-55839020D01*
X139956218Y-55882499D01*
X139973304Y-56055989D01*
X140023911Y-56222812D01*
X140106089Y-56376558D01*
X140188967Y-56477545D01*
X140188970Y-56477548D01*
X140216683Y-56511316D01*
X140250451Y-56539029D01*
X140276428Y-56565006D01*
X140276428Y-56951500D01*
X140288688Y-57075982D01*
X140324998Y-57195680D01*
X140383963Y-57305994D01*
X140463315Y-57402685D01*
X140560006Y-57482037D01*
X140670320Y-57541002D01*
X140790018Y-57577312D01*
X140914500Y-57589572D01*
X141914500Y-57589572D01*
X142038982Y-57577312D01*
X142158680Y-57541002D01*
X142268994Y-57482037D01*
X142365685Y-57402685D01*
X142445037Y-57305994D01*
X142504002Y-57195680D01*
X142540312Y-57075982D01*
X142552572Y-56951500D01*
X142552572Y-55951500D01*
X142540312Y-55827018D01*
X142504002Y-55707320D01*
X142445037Y-55597006D01*
X142365685Y-55500315D01*
X142268994Y-55420963D01*
X142158680Y-55361998D01*
X142038982Y-55325688D01*
X141914500Y-55313428D01*
X141730499Y-55313428D01*
X141730499Y-45173561D01*
X142538500Y-45173561D01*
X142538500Y-45377439D01*
X142578274Y-45577398D01*
X142656295Y-45765756D01*
X142769563Y-45935274D01*
X142776539Y-45942250D01*
X142769563Y-45949226D01*
X142656295Y-46118744D01*
X142578274Y-46307102D01*
X142538500Y-46507061D01*
X142538500Y-46710939D01*
X142578274Y-46910898D01*
X142656295Y-47099256D01*
X142769563Y-47268774D01*
X142913726Y-47412937D01*
X143083244Y-47526205D01*
X143271602Y-47604226D01*
X143471561Y-47644000D01*
X143675439Y-47644000D01*
X143875398Y-47604226D01*
X144063756Y-47526205D01*
X144233274Y-47412937D01*
X144377437Y-47268774D01*
X144490705Y-47099256D01*
X144568726Y-46910898D01*
X144608500Y-46710939D01*
X144608500Y-46507061D01*
X144568726Y-46307102D01*
X144490705Y-46118744D01*
X144377437Y-45949226D01*
X144370461Y-45942250D01*
X144377437Y-45935274D01*
X144490705Y-45765756D01*
X144568726Y-45577398D01*
X144608500Y-45377439D01*
X144608500Y-45173561D01*
X144568726Y-44973602D01*
X144490705Y-44785244D01*
X144377437Y-44615726D01*
X144233274Y-44471563D01*
X144063756Y-44358295D01*
X143875398Y-44280274D01*
X143675439Y-44240500D01*
X143471561Y-44240500D01*
X143271602Y-44280274D01*
X143083244Y-44358295D01*
X142913726Y-44471563D01*
X142769563Y-44615726D01*
X142656295Y-44785244D01*
X142578274Y-44973602D01*
X142538500Y-45173561D01*
X141730499Y-45173561D01*
X141730499Y-41079572D01*
X142295500Y-41079572D01*
X142419982Y-41067312D01*
X142539680Y-41031002D01*
X142649994Y-40972037D01*
X142746685Y-40892685D01*
X142826037Y-40795994D01*
X142885002Y-40685680D01*
X142921312Y-40565982D01*
X142933572Y-40441500D01*
X142933572Y-39441500D01*
X144086428Y-39441500D01*
X144086428Y-40441500D01*
X144098688Y-40565982D01*
X144134998Y-40685680D01*
X144193963Y-40795994D01*
X144273315Y-40892685D01*
X144370006Y-40972037D01*
X144480320Y-41031002D01*
X144600018Y-41067312D01*
X144724500Y-41079572D01*
X145724500Y-41079572D01*
X145848982Y-41067312D01*
X145968680Y-41031002D01*
X146078994Y-40972037D01*
X146175685Y-40892685D01*
X146255037Y-40795994D01*
X146314002Y-40685680D01*
X146350312Y-40565982D01*
X146362572Y-40441500D01*
X146362572Y-39441500D01*
X146350312Y-39317018D01*
X146314002Y-39197320D01*
X146255037Y-39087006D01*
X146175685Y-38990315D01*
X146078994Y-38910963D01*
X145968680Y-38851998D01*
X145848982Y-38815688D01*
X145724500Y-38803428D01*
X144724500Y-38803428D01*
X144600018Y-38815688D01*
X144480320Y-38851998D01*
X144370006Y-38910963D01*
X144273315Y-38990315D01*
X144193963Y-39087006D01*
X144134998Y-39197320D01*
X144098688Y-39317018D01*
X144086428Y-39441500D01*
X142933572Y-39441500D01*
X142921312Y-39317018D01*
X142885002Y-39197320D01*
X142826037Y-39087006D01*
X142746685Y-38990315D01*
X142649994Y-38910963D01*
X142539680Y-38851998D01*
X142419982Y-38815688D01*
X142295500Y-38803428D01*
X141730499Y-38803428D01*
X141730499Y-38273579D01*
X143099578Y-36904500D01*
X150895428Y-36904500D01*
X150907688Y-37028982D01*
X150943998Y-37148680D01*
X151002963Y-37258994D01*
X151082315Y-37355685D01*
X151179006Y-37435037D01*
X151289320Y-37494002D01*
X151409018Y-37530312D01*
X151533500Y-37542572D01*
X151910250Y-37539500D01*
X152069000Y-37380750D01*
X152069000Y-36131500D01*
X152323000Y-36131500D01*
X152323000Y-37380750D01*
X152481750Y-37539500D01*
X152858500Y-37542572D01*
X152982982Y-37530312D01*
X153102680Y-37494002D01*
X153212994Y-37435037D01*
X153309685Y-37355685D01*
X153389037Y-37258994D01*
X153448002Y-37148680D01*
X153484312Y-37028982D01*
X153496572Y-36904500D01*
X153493500Y-36290250D01*
X153334750Y-36131500D01*
X152323000Y-36131500D01*
X152069000Y-36131500D01*
X151057250Y-36131500D01*
X150898500Y-36290250D01*
X150895428Y-36904500D01*
X143099578Y-36904500D01*
X143622579Y-36381500D01*
X144686046Y-36381500D01*
X144734244Y-36413705D01*
X144922602Y-36491726D01*
X145122561Y-36531500D01*
X145326439Y-36531500D01*
X145526398Y-36491726D01*
X145714756Y-36413705D01*
X145884274Y-36300437D01*
X146028437Y-36156274D01*
X146141705Y-35986756D01*
X146219726Y-35798398D01*
X146259500Y-35598439D01*
X146259500Y-35394561D01*
X146219726Y-35194602D01*
X146182405Y-35104500D01*
X150895428Y-35104500D01*
X150898500Y-35718750D01*
X151057250Y-35877500D01*
X152069000Y-35877500D01*
X152069000Y-34628250D01*
X152323000Y-34628250D01*
X152323000Y-35877500D01*
X153334750Y-35877500D01*
X153493500Y-35718750D01*
X153496572Y-35104500D01*
X153484312Y-34980018D01*
X153448002Y-34860320D01*
X153389037Y-34750006D01*
X153309685Y-34653315D01*
X153212994Y-34573963D01*
X153102680Y-34514998D01*
X152982982Y-34478688D01*
X152858500Y-34466428D01*
X152481750Y-34469500D01*
X152323000Y-34628250D01*
X152069000Y-34628250D01*
X151910250Y-34469500D01*
X151533500Y-34466428D01*
X151409018Y-34478688D01*
X151289320Y-34514998D01*
X151179006Y-34573963D01*
X151082315Y-34653315D01*
X151002963Y-34750006D01*
X150943998Y-34860320D01*
X150907688Y-34980018D01*
X150895428Y-35104500D01*
X146182405Y-35104500D01*
X146141705Y-35006244D01*
X146028437Y-34836726D01*
X145884274Y-34692563D01*
X145714756Y-34579295D01*
X145526398Y-34501274D01*
X145326439Y-34461500D01*
X145122561Y-34461500D01*
X144922602Y-34501274D01*
X144734244Y-34579295D01*
X144686046Y-34611500D01*
X143299465Y-34611500D01*
X143255999Y-34607219D01*
X143212533Y-34611500D01*
X143212523Y-34611500D01*
X143082510Y-34624305D01*
X142915687Y-34674911D01*
X142761941Y-34757089D01*
X142761939Y-34757090D01*
X142761940Y-34757090D01*
X142660953Y-34839968D01*
X142660951Y-34839970D01*
X142627183Y-34867683D01*
X142599470Y-34901451D01*
X140250455Y-37250467D01*
X140216682Y-37278184D01*
X140106088Y-37412943D01*
X140023910Y-37566689D01*
X139973304Y-37733512D01*
X139960499Y-37863525D01*
X139960499Y-37863532D01*
X139956218Y-37907001D01*
X139960499Y-37950470D01*
X139960499Y-39446230D01*
X139907825Y-39181419D01*
X139777037Y-38865669D01*
X139587163Y-38581502D01*
X139345498Y-38339837D01*
X139061331Y-38149963D01*
X138745581Y-38019175D01*
X138410383Y-37952500D01*
X138068617Y-37952500D01*
X137733419Y-38019175D01*
X137417669Y-38149963D01*
X137133502Y-38339837D01*
X136891837Y-38581502D01*
X136701963Y-38865669D01*
X136571175Y-39181419D01*
X136504500Y-39516617D01*
X136504500Y-39858383D01*
X136571175Y-40193581D01*
X136701963Y-40509331D01*
X136891837Y-40793498D01*
X137133502Y-41035163D01*
X137417669Y-41225037D01*
X137733419Y-41355825D01*
X138068617Y-41422500D01*
X138410383Y-41422500D01*
X138745581Y-41355825D01*
X139061331Y-41225037D01*
X139345498Y-41035163D01*
X139587163Y-40793498D01*
X139777037Y-40509331D01*
X139907825Y-40193581D01*
X139960499Y-39928770D01*
X139960500Y-48607154D01*
X139929002Y-48503320D01*
X139870037Y-48393006D01*
X139790685Y-48296315D01*
X139693994Y-48216963D01*
X139583680Y-48157998D01*
X139463982Y-48121688D01*
X139339500Y-48109428D01*
X137139500Y-48109428D01*
X137015018Y-48121688D01*
X136895320Y-48157998D01*
X136785006Y-48216963D01*
X136688315Y-48296315D01*
X136608963Y-48393006D01*
X136549998Y-48503320D01*
X136513688Y-48623018D01*
X136501428Y-48747500D01*
X136501428Y-48812796D01*
X136499939Y-48812500D01*
X136296061Y-48812500D01*
X136096102Y-48852274D01*
X135907744Y-48930295D01*
X135859546Y-48962500D01*
X135031454Y-48962500D01*
X134983256Y-48930295D01*
X134794898Y-48852274D01*
X134594939Y-48812500D01*
X134391061Y-48812500D01*
X134191102Y-48852274D01*
X134002744Y-48930295D01*
X133954546Y-48962500D01*
X133761454Y-48962500D01*
X133713256Y-48930295D01*
X133524898Y-48852274D01*
X133324939Y-48812500D01*
X133121061Y-48812500D01*
X132921102Y-48852274D01*
X132732744Y-48930295D01*
X132684546Y-48962500D01*
X132364454Y-48962500D01*
X132316256Y-48930295D01*
X132127898Y-48852274D01*
X131927939Y-48812500D01*
X131724061Y-48812500D01*
X131524102Y-48852274D01*
X131335744Y-48930295D01*
X131287546Y-48962500D01*
X131157954Y-48962500D01*
X131109756Y-48930295D01*
X130921398Y-48852274D01*
X130721439Y-48812500D01*
X130517561Y-48812500D01*
X130317602Y-48852274D01*
X130129244Y-48930295D01*
X130081046Y-48962500D01*
X129506954Y-48962500D01*
X129458756Y-48930295D01*
X129270398Y-48852274D01*
X129129810Y-48824309D01*
X129081263Y-48798361D01*
X128914440Y-48747755D01*
X128784427Y-48734950D01*
X128784419Y-48734950D01*
X128740950Y-48730669D01*
X128697481Y-48734950D01*
X127639004Y-48734950D01*
X127590806Y-48702745D01*
X127402448Y-48624724D01*
X127202489Y-48584950D01*
X126998611Y-48584950D01*
X126798652Y-48624724D01*
X126610294Y-48702745D01*
X126562096Y-48734950D01*
X111044572Y-48734950D01*
X111044572Y-46852500D01*
X111032312Y-46728018D01*
X110996002Y-46608320D01*
X110937037Y-46498006D01*
X110857685Y-46401315D01*
X110760994Y-46321963D01*
X110650680Y-46262998D01*
X110530982Y-46226688D01*
X110406500Y-46214428D01*
X107906500Y-46214428D01*
X107782018Y-46226688D01*
X107662320Y-46262998D01*
X107552006Y-46321963D01*
X107455315Y-46401315D01*
X107375963Y-46498006D01*
X107316998Y-46608320D01*
X107280688Y-46728018D01*
X107268428Y-46852500D01*
X104660000Y-46852500D01*
X104660000Y-38160500D01*
X109658428Y-38160500D01*
X109658428Y-40960500D01*
X109670688Y-41084982D01*
X109706998Y-41204680D01*
X109765963Y-41314994D01*
X109845315Y-41411685D01*
X109942006Y-41491037D01*
X110052320Y-41550002D01*
X110172018Y-41586312D01*
X110296500Y-41598572D01*
X113096500Y-41598572D01*
X113220982Y-41586312D01*
X113340680Y-41550002D01*
X113450994Y-41491037D01*
X113547685Y-41411685D01*
X113627037Y-41314994D01*
X113686002Y-41204680D01*
X113722312Y-41084982D01*
X113734572Y-40960500D01*
X113734572Y-40083622D01*
X121310325Y-40083622D01*
X121374925Y-40296594D01*
X121524969Y-40601829D01*
X121731678Y-40871927D01*
X121987109Y-41096508D01*
X122281446Y-41266942D01*
X122603377Y-41376679D01*
X122872500Y-41259100D01*
X122872500Y-39814500D01*
X123126500Y-39814500D01*
X123126500Y-41259100D01*
X123395623Y-41376679D01*
X123717554Y-41266942D01*
X124011891Y-41096508D01*
X124267322Y-40871927D01*
X124474031Y-40601829D01*
X124624075Y-40296594D01*
X124688675Y-40083622D01*
X124570625Y-39814500D01*
X123126500Y-39814500D01*
X122872500Y-39814500D01*
X121428375Y-39814500D01*
X121310325Y-40083622D01*
X113734572Y-40083622D01*
X113734572Y-39291378D01*
X121310325Y-39291378D01*
X121428375Y-39560500D01*
X122872500Y-39560500D01*
X122872500Y-38115900D01*
X123126500Y-38115900D01*
X123126500Y-39560500D01*
X124570625Y-39560500D01*
X124688675Y-39291378D01*
X124624075Y-39078406D01*
X124474031Y-38773171D01*
X124267322Y-38503073D01*
X124011891Y-38278492D01*
X123717554Y-38108058D01*
X123395623Y-37998321D01*
X123126500Y-38115900D01*
X122872500Y-38115900D01*
X122603377Y-37998321D01*
X122281446Y-38108058D01*
X121987109Y-38278492D01*
X121731678Y-38503073D01*
X121524969Y-38773171D01*
X121374925Y-39078406D01*
X121310325Y-39291378D01*
X113734572Y-39291378D01*
X113734572Y-38160500D01*
X113722312Y-38036018D01*
X113686002Y-37916320D01*
X113627037Y-37806006D01*
X113547685Y-37709315D01*
X113450994Y-37629963D01*
X113340680Y-37570998D01*
X113220982Y-37534688D01*
X113096500Y-37522428D01*
X110296500Y-37522428D01*
X110172018Y-37534688D01*
X110052320Y-37570998D01*
X109942006Y-37629963D01*
X109845315Y-37709315D01*
X109765963Y-37806006D01*
X109706998Y-37916320D01*
X109670688Y-38036018D01*
X109658428Y-38160500D01*
X104660000Y-38160500D01*
X104660000Y-34360070D01*
X109661500Y-34360070D01*
X109661500Y-34760930D01*
X109739704Y-35154087D01*
X109893107Y-35524434D01*
X110115813Y-35857737D01*
X110399263Y-36141187D01*
X110732566Y-36363893D01*
X111102913Y-36517296D01*
X111496070Y-36595500D01*
X111896930Y-36595500D01*
X112290087Y-36517296D01*
X112660434Y-36363893D01*
X112993737Y-36141187D01*
X113277187Y-35857737D01*
X113499893Y-35524434D01*
X113534452Y-35441000D01*
X126496928Y-35441000D01*
X126496928Y-36441000D01*
X126509188Y-36565482D01*
X126545498Y-36685180D01*
X126604463Y-36795494D01*
X126683815Y-36892185D01*
X126750001Y-36946502D01*
X126750000Y-39517031D01*
X126745719Y-39560500D01*
X126750000Y-39603969D01*
X126750000Y-39603976D01*
X126762805Y-39733989D01*
X126813411Y-39900812D01*
X126895589Y-40054558D01*
X127006183Y-40189317D01*
X127039956Y-40217034D01*
X130026470Y-43203549D01*
X130054183Y-43237317D01*
X130087951Y-43265030D01*
X130087953Y-43265032D01*
X130100404Y-43275250D01*
X130188941Y-43347911D01*
X130342687Y-43430089D01*
X130458903Y-43465343D01*
X130509509Y-43480695D01*
X130524306Y-43482152D01*
X130639523Y-43493500D01*
X130639531Y-43493500D01*
X130683000Y-43497781D01*
X130726469Y-43493500D01*
X135415046Y-43493500D01*
X135463244Y-43525705D01*
X135632809Y-43595941D01*
X135703045Y-43765506D01*
X135816313Y-43935024D01*
X135960476Y-44079187D01*
X136129994Y-44192455D01*
X136209756Y-44225494D01*
X136242795Y-44305256D01*
X136356063Y-44474774D01*
X136500226Y-44618937D01*
X136669744Y-44732205D01*
X136858102Y-44810226D01*
X137058061Y-44850000D01*
X137261939Y-44850000D01*
X137461898Y-44810226D01*
X137650256Y-44732205D01*
X137819774Y-44618937D01*
X137963937Y-44474774D01*
X138077205Y-44305256D01*
X138155226Y-44116898D01*
X138195000Y-43916939D01*
X138195000Y-43713061D01*
X138155226Y-43513102D01*
X138077205Y-43324744D01*
X137963937Y-43155226D01*
X137819774Y-43011063D01*
X137650256Y-42897795D01*
X137570494Y-42864756D01*
X137537455Y-42784994D01*
X137424187Y-42615476D01*
X137280024Y-42471313D01*
X137110506Y-42358045D01*
X136940941Y-42287809D01*
X136870705Y-42118244D01*
X136757437Y-41948726D01*
X136613274Y-41804563D01*
X136443756Y-41691295D01*
X136255398Y-41613274D01*
X136055439Y-41573500D01*
X135851561Y-41573500D01*
X135651602Y-41613274D01*
X135463244Y-41691295D01*
X135415046Y-41723500D01*
X131049579Y-41723500D01*
X128520000Y-39193922D01*
X128520000Y-38587500D01*
X131421428Y-38587500D01*
X131421428Y-40787500D01*
X131433688Y-40911982D01*
X131469998Y-41031680D01*
X131528963Y-41141994D01*
X131608315Y-41238685D01*
X131705006Y-41318037D01*
X131815320Y-41377002D01*
X131935018Y-41413312D01*
X132059500Y-41425572D01*
X134259500Y-41425572D01*
X134383982Y-41413312D01*
X134503680Y-41377002D01*
X134613994Y-41318037D01*
X134710685Y-41238685D01*
X134790037Y-41141994D01*
X134849002Y-41031680D01*
X134885312Y-40911982D01*
X134897572Y-40787500D01*
X134897572Y-38587500D01*
X134885312Y-38463018D01*
X134849002Y-38343320D01*
X134790037Y-38233006D01*
X134710685Y-38136315D01*
X134613994Y-38056963D01*
X134503680Y-37997998D01*
X134383982Y-37961688D01*
X134259500Y-37949428D01*
X132059500Y-37949428D01*
X131935018Y-37961688D01*
X131815320Y-37997998D01*
X131705006Y-38056963D01*
X131608315Y-38136315D01*
X131528963Y-38233006D01*
X131469998Y-38343320D01*
X131433688Y-38463018D01*
X131421428Y-38587500D01*
X128520000Y-38587500D01*
X128520000Y-36946501D01*
X128586185Y-36892185D01*
X128665537Y-36795494D01*
X128724502Y-36685180D01*
X128760812Y-36565482D01*
X128773072Y-36441000D01*
X128773072Y-35441000D01*
X128760812Y-35316518D01*
X128724502Y-35196820D01*
X128665537Y-35086506D01*
X128586185Y-34989815D01*
X128489494Y-34910463D01*
X128379180Y-34851498D01*
X128259482Y-34815188D01*
X128135000Y-34802928D01*
X127135000Y-34802928D01*
X127010518Y-34815188D01*
X126890820Y-34851498D01*
X126780506Y-34910463D01*
X126683815Y-34989815D01*
X126604463Y-35086506D01*
X126545498Y-35196820D01*
X126509188Y-35316518D01*
X126496928Y-35441000D01*
X113534452Y-35441000D01*
X113653296Y-35154087D01*
X113731500Y-34760930D01*
X113731500Y-34360070D01*
X113653296Y-33966913D01*
X113587084Y-33807061D01*
X117138500Y-33807061D01*
X117138500Y-34010939D01*
X117178274Y-34210898D01*
X117256295Y-34399256D01*
X117369563Y-34568774D01*
X117513726Y-34712937D01*
X117683244Y-34826205D01*
X117871602Y-34904226D01*
X118071561Y-34944000D01*
X118275439Y-34944000D01*
X118475398Y-34904226D01*
X118663756Y-34826205D01*
X118800254Y-34735000D01*
X121846969Y-34735000D01*
X121890906Y-34778937D01*
X122060424Y-34892205D01*
X122248782Y-34970226D01*
X122448741Y-35010000D01*
X122652619Y-35010000D01*
X122852578Y-34970226D01*
X123040936Y-34892205D01*
X123210454Y-34778937D01*
X123354617Y-34634774D01*
X123467885Y-34465256D01*
X123545906Y-34276898D01*
X123585680Y-34076939D01*
X123585680Y-33873061D01*
X123557125Y-33729500D01*
X136099928Y-33729500D01*
X136112188Y-33853982D01*
X136148498Y-33973680D01*
X136207463Y-34083994D01*
X136286815Y-34180685D01*
X136383506Y-34260037D01*
X136493820Y-34319002D01*
X136613518Y-34355312D01*
X136738000Y-34367572D01*
X137114750Y-34364500D01*
X137273500Y-34205750D01*
X137273500Y-32956500D01*
X137527500Y-32956500D01*
X137527500Y-34205750D01*
X137686250Y-34364500D01*
X138063000Y-34367572D01*
X138187482Y-34355312D01*
X138307180Y-34319002D01*
X138417494Y-34260037D01*
X138514185Y-34180685D01*
X138593537Y-34083994D01*
X138652502Y-33973680D01*
X138688812Y-33853982D01*
X138701072Y-33729500D01*
X138698000Y-33115250D01*
X138539250Y-32956500D01*
X137527500Y-32956500D01*
X137273500Y-32956500D01*
X136261750Y-32956500D01*
X136103000Y-33115250D01*
X136099928Y-33729500D01*
X123557125Y-33729500D01*
X123545906Y-33673102D01*
X123467885Y-33484744D01*
X123354617Y-33315226D01*
X123210454Y-33171063D01*
X123040936Y-33057795D01*
X122852578Y-32979774D01*
X122652619Y-32940000D01*
X122448741Y-32940000D01*
X122248782Y-32979774D01*
X122060424Y-33057795D01*
X121890906Y-33171063D01*
X121846969Y-33215000D01*
X118943211Y-33215000D01*
X118833274Y-33105063D01*
X118663756Y-32991795D01*
X118475398Y-32913774D01*
X118275439Y-32874000D01*
X118071561Y-32874000D01*
X117871602Y-32913774D01*
X117683244Y-32991795D01*
X117513726Y-33105063D01*
X117369563Y-33249226D01*
X117256295Y-33418744D01*
X117178274Y-33607102D01*
X117138500Y-33807061D01*
X113587084Y-33807061D01*
X113499893Y-33596566D01*
X113277187Y-33263263D01*
X112993737Y-32979813D01*
X112660434Y-32757107D01*
X112290087Y-32603704D01*
X111896930Y-32525500D01*
X111496070Y-32525500D01*
X111102913Y-32603704D01*
X110732566Y-32757107D01*
X110399263Y-32979813D01*
X110115813Y-33263263D01*
X109893107Y-33596566D01*
X109739704Y-33966913D01*
X109661500Y-34360070D01*
X104660000Y-34360070D01*
X104660000Y-25227531D01*
X114144074Y-25227531D01*
X114254921Y-25504714D01*
X114565840Y-25658089D01*
X114900705Y-25747860D01*
X115246650Y-25770576D01*
X115590380Y-25725366D01*
X115918685Y-25613966D01*
X116123079Y-25504714D01*
X116233926Y-25227531D01*
X119224074Y-25227531D01*
X119334921Y-25504714D01*
X119645840Y-25658089D01*
X119980705Y-25747860D01*
X120326650Y-25770576D01*
X120670380Y-25725366D01*
X120998685Y-25613966D01*
X121203079Y-25504714D01*
X121313926Y-25227531D01*
X120269000Y-24182605D01*
X119224074Y-25227531D01*
X116233926Y-25227531D01*
X115189000Y-24182605D01*
X114144074Y-25227531D01*
X104660000Y-25227531D01*
X104660000Y-24060650D01*
X113421424Y-24060650D01*
X113466634Y-24404380D01*
X113578034Y-24732685D01*
X113687286Y-24937079D01*
X113964469Y-25047926D01*
X115009395Y-24003000D01*
X115368605Y-24003000D01*
X116413531Y-25047926D01*
X116690714Y-24937079D01*
X116844089Y-24626160D01*
X116933860Y-24291295D01*
X116949004Y-24060650D01*
X118501424Y-24060650D01*
X118546634Y-24404380D01*
X118658034Y-24732685D01*
X118767286Y-24937079D01*
X119044469Y-25047926D01*
X120089395Y-24003000D01*
X120448605Y-24003000D01*
X121493531Y-25047926D01*
X121770714Y-24937079D01*
X121924089Y-24626160D01*
X122013860Y-24291295D01*
X122036576Y-23945350D01*
X121991366Y-23601620D01*
X121879966Y-23273315D01*
X121770714Y-23068921D01*
X121493531Y-22958074D01*
X120448605Y-24003000D01*
X120089395Y-24003000D01*
X119044469Y-22958074D01*
X118767286Y-23068921D01*
X118613911Y-23379840D01*
X118524140Y-23714705D01*
X118501424Y-24060650D01*
X116949004Y-24060650D01*
X116956576Y-23945350D01*
X116911366Y-23601620D01*
X116799966Y-23273315D01*
X116690714Y-23068921D01*
X116413531Y-22958074D01*
X115368605Y-24003000D01*
X115009395Y-24003000D01*
X113964469Y-22958074D01*
X113687286Y-23068921D01*
X113533911Y-23379840D01*
X113444140Y-23714705D01*
X113421424Y-24060650D01*
X104660000Y-24060650D01*
X104660000Y-22778469D01*
X114144074Y-22778469D01*
X115189000Y-23823395D01*
X116233926Y-22778469D01*
X116123079Y-22501286D01*
X115812160Y-22347911D01*
X115477295Y-22258140D01*
X115131350Y-22235424D01*
X114787620Y-22280634D01*
X114459315Y-22392034D01*
X114254921Y-22501286D01*
X114144074Y-22778469D01*
X104660000Y-22778469D01*
X104660000Y-21299504D01*
X116069000Y-21299504D01*
X116069000Y-21626496D01*
X116132793Y-21947204D01*
X116257927Y-22249305D01*
X116439594Y-22521188D01*
X116670812Y-22752406D01*
X116942695Y-22934073D01*
X117244796Y-23059207D01*
X117565504Y-23123000D01*
X117892496Y-23123000D01*
X118213204Y-23059207D01*
X118515305Y-22934073D01*
X118748182Y-22778469D01*
X119224074Y-22778469D01*
X120269000Y-23823395D01*
X121313926Y-22778469D01*
X121268750Y-22665500D01*
X126892606Y-22665500D01*
X126926105Y-23005619D01*
X127025314Y-23332668D01*
X127186421Y-23634078D01*
X127403234Y-23898266D01*
X127594994Y-24055639D01*
X127500236Y-24232919D01*
X127421040Y-24493993D01*
X127394299Y-24765500D01*
X127421040Y-25037007D01*
X127500236Y-25298081D01*
X127628843Y-25538688D01*
X127801919Y-25749581D01*
X127821316Y-25765500D01*
X127801919Y-25781419D01*
X127628843Y-25992312D01*
X127500236Y-26232919D01*
X127421040Y-26493993D01*
X127394299Y-26765500D01*
X127421040Y-27037007D01*
X127500236Y-27298081D01*
X127624940Y-27531386D01*
X127584815Y-27564315D01*
X127505463Y-27661006D01*
X127446498Y-27771320D01*
X127410188Y-27891018D01*
X127397928Y-28015500D01*
X127397928Y-29515500D01*
X127409008Y-29627996D01*
X127403234Y-29632734D01*
X127186421Y-29896922D01*
X127025314Y-30198332D01*
X126926105Y-30525381D01*
X126892606Y-30865500D01*
X126926105Y-31205619D01*
X127025314Y-31532668D01*
X127186421Y-31834078D01*
X127403234Y-32098266D01*
X127667422Y-32315079D01*
X127968832Y-32476186D01*
X128295881Y-32575395D01*
X128550775Y-32600500D01*
X130021225Y-32600500D01*
X130276119Y-32575395D01*
X130603168Y-32476186D01*
X130904578Y-32315079D01*
X131168766Y-32098266D01*
X131307268Y-31929500D01*
X136099928Y-31929500D01*
X136103000Y-32543750D01*
X136261750Y-32702500D01*
X137273500Y-32702500D01*
X137273500Y-31453250D01*
X137527500Y-31453250D01*
X137527500Y-32702500D01*
X138539250Y-32702500D01*
X138698000Y-32543750D01*
X138701072Y-31929500D01*
X138688812Y-31805018D01*
X138652502Y-31685320D01*
X138593537Y-31575006D01*
X138514185Y-31478315D01*
X138417494Y-31398963D01*
X138307180Y-31339998D01*
X138187482Y-31303688D01*
X138063000Y-31291428D01*
X137686250Y-31294500D01*
X137527500Y-31453250D01*
X137273500Y-31453250D01*
X137114750Y-31294500D01*
X136738000Y-31291428D01*
X136613518Y-31303688D01*
X136493820Y-31339998D01*
X136383506Y-31398963D01*
X136286815Y-31478315D01*
X136207463Y-31575006D01*
X136148498Y-31685320D01*
X136112188Y-31805018D01*
X136099928Y-31929500D01*
X131307268Y-31929500D01*
X131385579Y-31834078D01*
X131546686Y-31532668D01*
X131645895Y-31205619D01*
X131679394Y-30865500D01*
X131645895Y-30525381D01*
X131546686Y-30198332D01*
X131385579Y-29896922D01*
X131168766Y-29632734D01*
X131162992Y-29627996D01*
X131174072Y-29515500D01*
X131174072Y-28015500D01*
X131161812Y-27891018D01*
X131125502Y-27771320D01*
X131066537Y-27661006D01*
X130987185Y-27564315D01*
X130947060Y-27531386D01*
X131071764Y-27298081D01*
X131150960Y-27037007D01*
X131177701Y-26765500D01*
X131150960Y-26493993D01*
X131071764Y-26232919D01*
X130943157Y-25992312D01*
X130770081Y-25781419D01*
X130750684Y-25765500D01*
X130770081Y-25749581D01*
X130943157Y-25538688D01*
X131071764Y-25298081D01*
X131150960Y-25037007D01*
X131177701Y-24765500D01*
X131161358Y-24599561D01*
X138919000Y-24599561D01*
X138919000Y-24803439D01*
X138958774Y-25003398D01*
X139036795Y-25191756D01*
X139150063Y-25361274D01*
X139294226Y-25505437D01*
X139463744Y-25618705D01*
X139652102Y-25696726D01*
X139852061Y-25736500D01*
X140055939Y-25736500D01*
X140255898Y-25696726D01*
X140444256Y-25618705D01*
X140584496Y-25525000D01*
X141536289Y-25525000D01*
X141580226Y-25568937D01*
X141707532Y-25654000D01*
X141580226Y-25739063D01*
X141436063Y-25883226D01*
X141396677Y-25942172D01*
X141354643Y-25976668D01*
X141322559Y-26002999D01*
X141298761Y-26031997D01*
X139915979Y-27414780D01*
X139853841Y-27414780D01*
X139653882Y-27454554D01*
X139465524Y-27532575D01*
X139296006Y-27645843D01*
X139151843Y-27790006D01*
X139038575Y-27959524D01*
X138960554Y-28147882D01*
X138920780Y-28347841D01*
X138920780Y-28551719D01*
X138960554Y-28751678D01*
X139038575Y-28940036D01*
X139151843Y-29109554D01*
X139296006Y-29253717D01*
X139465524Y-29366985D01*
X139653882Y-29445006D01*
X139853841Y-29484780D01*
X140057719Y-29484780D01*
X140257678Y-29445006D01*
X140446036Y-29366985D01*
X140615554Y-29253717D01*
X140759717Y-29109554D01*
X140872985Y-28940036D01*
X140951006Y-28751678D01*
X140990780Y-28551719D01*
X140990780Y-28489581D01*
X141941467Y-27538895D01*
X142138061Y-27578000D01*
X142341939Y-27578000D01*
X142541898Y-27538226D01*
X142730256Y-27460205D01*
X142899774Y-27346937D01*
X143043937Y-27202774D01*
X143157205Y-27033256D01*
X143235226Y-26844898D01*
X143275000Y-26644939D01*
X143275000Y-26441061D01*
X143235226Y-26241102D01*
X143157205Y-26052744D01*
X143043937Y-25883226D01*
X142899774Y-25739063D01*
X142772468Y-25654000D01*
X142899774Y-25568937D01*
X143043937Y-25424774D01*
X143157205Y-25255256D01*
X143235226Y-25066898D01*
X143275000Y-24866939D01*
X143275000Y-24663061D01*
X143235226Y-24463102D01*
X143157205Y-24274744D01*
X143043937Y-24105226D01*
X143000000Y-24061289D01*
X143000000Y-22349301D01*
X143676802Y-21672500D01*
X143738939Y-21672500D01*
X143938898Y-21632726D01*
X144127256Y-21554705D01*
X144296774Y-21441437D01*
X144440937Y-21297274D01*
X144554205Y-21127756D01*
X144632226Y-20939398D01*
X144672000Y-20739439D01*
X144672000Y-20535561D01*
X144632226Y-20335602D01*
X144554205Y-20147244D01*
X144440937Y-19977726D01*
X144296774Y-19833563D01*
X144127256Y-19720295D01*
X143938898Y-19642274D01*
X143738939Y-19602500D01*
X143535061Y-19602500D01*
X143335102Y-19642274D01*
X143146744Y-19720295D01*
X142977226Y-19833563D01*
X142833063Y-19977726D01*
X142719795Y-20147244D01*
X142641774Y-20335602D01*
X142602000Y-20535561D01*
X142602000Y-20597698D01*
X141728998Y-21470701D01*
X141700000Y-21494499D01*
X141676202Y-21523497D01*
X141676201Y-21523498D01*
X141605026Y-21610224D01*
X141534454Y-21742254D01*
X141513372Y-21811755D01*
X141490998Y-21885514D01*
X141482606Y-21970718D01*
X141476324Y-22034500D01*
X141480001Y-22071832D01*
X141480000Y-24005000D01*
X140721211Y-24005000D01*
X140613774Y-23897563D01*
X140444256Y-23784295D01*
X140255898Y-23706274D01*
X140055939Y-23666500D01*
X139852061Y-23666500D01*
X139652102Y-23706274D01*
X139463744Y-23784295D01*
X139294226Y-23897563D01*
X139150063Y-24041726D01*
X139036795Y-24211244D01*
X138958774Y-24399602D01*
X138919000Y-24599561D01*
X131161358Y-24599561D01*
X131150960Y-24493993D01*
X131071764Y-24232919D01*
X130977006Y-24055639D01*
X131168766Y-23898266D01*
X131385579Y-23634078D01*
X131546686Y-23332668D01*
X131645895Y-23005619D01*
X131679394Y-22665500D01*
X131645895Y-22325381D01*
X131546686Y-21998332D01*
X131385579Y-21696922D01*
X131168766Y-21432734D01*
X130904578Y-21215921D01*
X130603168Y-21054814D01*
X130276119Y-20955605D01*
X130021225Y-20930500D01*
X128550775Y-20930500D01*
X128295881Y-20955605D01*
X127968832Y-21054814D01*
X127667422Y-21215921D01*
X127403234Y-21432734D01*
X127186421Y-21696922D01*
X127025314Y-21998332D01*
X126926105Y-22325381D01*
X126892606Y-22665500D01*
X121268750Y-22665500D01*
X121203079Y-22501286D01*
X120892160Y-22347911D01*
X120557295Y-22258140D01*
X120211350Y-22235424D01*
X119867620Y-22280634D01*
X119539315Y-22392034D01*
X119334921Y-22501286D01*
X119224074Y-22778469D01*
X118748182Y-22778469D01*
X118787188Y-22752406D01*
X119018406Y-22521188D01*
X119200073Y-22249305D01*
X119325207Y-21947204D01*
X119389000Y-21626496D01*
X119389000Y-21299504D01*
X119325207Y-20978796D01*
X119200073Y-20676695D01*
X119018406Y-20404812D01*
X118787188Y-20173594D01*
X118748183Y-20147531D01*
X119224074Y-20147531D01*
X119334921Y-20424714D01*
X119645840Y-20578089D01*
X119980705Y-20667860D01*
X120326650Y-20690576D01*
X120670380Y-20645366D01*
X120998685Y-20533966D01*
X121203079Y-20424714D01*
X121313926Y-20147531D01*
X120269000Y-19102605D01*
X119224074Y-20147531D01*
X118748183Y-20147531D01*
X118515305Y-19991927D01*
X118213204Y-19866793D01*
X117892496Y-19803000D01*
X117565504Y-19803000D01*
X117244796Y-19866793D01*
X116942695Y-19991927D01*
X116670812Y-20173594D01*
X116439594Y-20404812D01*
X116257927Y-20676695D01*
X116132793Y-20978796D01*
X116069000Y-21299504D01*
X104660000Y-21299504D01*
X104660000Y-18279872D01*
X105265000Y-18279872D01*
X105265000Y-18720128D01*
X105350890Y-19151925D01*
X105519369Y-19558669D01*
X105763962Y-19924729D01*
X106075271Y-20236038D01*
X106441331Y-20480631D01*
X106848075Y-20649110D01*
X107279872Y-20735000D01*
X107720128Y-20735000D01*
X108151925Y-20649110D01*
X108558669Y-20480631D01*
X108924729Y-20236038D01*
X109013236Y-20147531D01*
X114144074Y-20147531D01*
X114254921Y-20424714D01*
X114565840Y-20578089D01*
X114900705Y-20667860D01*
X115246650Y-20690576D01*
X115590380Y-20645366D01*
X115918685Y-20533966D01*
X116123079Y-20424714D01*
X116233926Y-20147531D01*
X115189000Y-19102605D01*
X114144074Y-20147531D01*
X109013236Y-20147531D01*
X109236038Y-19924729D01*
X109480631Y-19558669D01*
X109649110Y-19151925D01*
X109683178Y-18980650D01*
X113421424Y-18980650D01*
X113466634Y-19324380D01*
X113578034Y-19652685D01*
X113687286Y-19857079D01*
X113964469Y-19967926D01*
X115009395Y-18923000D01*
X115368605Y-18923000D01*
X116413531Y-19967926D01*
X116690714Y-19857079D01*
X116844089Y-19546160D01*
X116933860Y-19211295D01*
X116949004Y-18980650D01*
X118501424Y-18980650D01*
X118546634Y-19324380D01*
X118658034Y-19652685D01*
X118767286Y-19857079D01*
X119044469Y-19967926D01*
X120089395Y-18923000D01*
X120448605Y-18923000D01*
X121493531Y-19967926D01*
X121770714Y-19857079D01*
X121924089Y-19546160D01*
X122013860Y-19211295D01*
X122036576Y-18865350D01*
X121991366Y-18521620D01*
X121879966Y-18193315D01*
X121770714Y-17988921D01*
X121493531Y-17878074D01*
X120448605Y-18923000D01*
X120089395Y-18923000D01*
X119044469Y-17878074D01*
X118767286Y-17988921D01*
X118613911Y-18299840D01*
X118524140Y-18634705D01*
X118501424Y-18980650D01*
X116949004Y-18980650D01*
X116956576Y-18865350D01*
X116911366Y-18521620D01*
X116799966Y-18193315D01*
X116690714Y-17988921D01*
X116413531Y-17878074D01*
X115368605Y-18923000D01*
X115009395Y-18923000D01*
X113964469Y-17878074D01*
X113687286Y-17988921D01*
X113533911Y-18299840D01*
X113444140Y-18634705D01*
X113421424Y-18980650D01*
X109683178Y-18980650D01*
X109735000Y-18720128D01*
X109735000Y-18279872D01*
X109649110Y-17848075D01*
X109587142Y-17698469D01*
X114144074Y-17698469D01*
X115189000Y-18743395D01*
X116233926Y-17698469D01*
X119224074Y-17698469D01*
X120269000Y-18743395D01*
X121287895Y-17724500D01*
X140720928Y-17724500D01*
X140720928Y-18724500D01*
X140733188Y-18848982D01*
X140769498Y-18968680D01*
X140828463Y-19078994D01*
X140907815Y-19175685D01*
X141004506Y-19255037D01*
X141114820Y-19314002D01*
X141234518Y-19350312D01*
X141359000Y-19362572D01*
X142359000Y-19362572D01*
X142483482Y-19350312D01*
X142603180Y-19314002D01*
X142713494Y-19255037D01*
X142810185Y-19175685D01*
X142889537Y-19078994D01*
X142948502Y-18968680D01*
X142984812Y-18848982D01*
X142997072Y-18724500D01*
X142997072Y-17724500D01*
X142984812Y-17600018D01*
X142948502Y-17480320D01*
X142889537Y-17370006D01*
X142810185Y-17273315D01*
X142713494Y-17193963D01*
X142603180Y-17134998D01*
X142483482Y-17098688D01*
X142359000Y-17086428D01*
X141359000Y-17086428D01*
X141234518Y-17098688D01*
X141114820Y-17134998D01*
X141004506Y-17193963D01*
X140907815Y-17273315D01*
X140828463Y-17370006D01*
X140769498Y-17480320D01*
X140733188Y-17600018D01*
X140720928Y-17724500D01*
X121287895Y-17724500D01*
X121313926Y-17698469D01*
X121203079Y-17421286D01*
X120892160Y-17267911D01*
X120557295Y-17178140D01*
X120211350Y-17155424D01*
X119867620Y-17200634D01*
X119539315Y-17312034D01*
X119334921Y-17421286D01*
X119224074Y-17698469D01*
X116233926Y-17698469D01*
X116123079Y-17421286D01*
X115812160Y-17267911D01*
X115477295Y-17178140D01*
X115131350Y-17155424D01*
X114787620Y-17200634D01*
X114459315Y-17312034D01*
X114254921Y-17421286D01*
X114144074Y-17698469D01*
X109587142Y-17698469D01*
X109480631Y-17441331D01*
X109236038Y-17075271D01*
X108924729Y-16763962D01*
X108558669Y-16519369D01*
X108151925Y-16350890D01*
X107720128Y-16265000D01*
X107279872Y-16265000D01*
X106848075Y-16350890D01*
X106441331Y-16519369D01*
X106075271Y-16763962D01*
X105763962Y-17075271D01*
X105519369Y-17441331D01*
X105350890Y-17848075D01*
X105265000Y-18279872D01*
X104660000Y-18279872D01*
X104660000Y-15660000D01*
X144547289Y-15660000D01*
X144420563Y-15786726D01*
G37*
%TD.AperFunction*%
%TD*%
M02*
