%TF.GenerationSoftware,KiCad,Pcbnew,(5.1.8-0-10_14)*%
%TF.CreationDate,2022-02-24T11:51:05-06:00*%
%TF.ProjectId,SAQ_KiCad_alpha,5341515f-4b69-4436-9164-5f616c706861,rev?*%
%TF.SameCoordinates,Original*%
%TF.FileFunction,Legend,Bot*%
%TF.FilePolarity,Positive*%
%FSLAX46Y46*%
G04 Gerber Fmt 4.6, Leading zero omitted, Abs format (unit mm)*
G04 Created by KiCad (PCBNEW (5.1.8-0-10_14)) date 2022-02-24 11:51:05*
%MOMM*%
%LPD*%
G01*
G04 APERTURE LIST*
%ADD10C,0.150000*%
%ADD11C,0.120000*%
G04 APERTURE END LIST*
D10*
X125435785Y-30235380D02*
X125435785Y-29235380D01*
X125054833Y-29235380D01*
X124959595Y-29283000D01*
X124911976Y-29330619D01*
X124864357Y-29425857D01*
X124864357Y-29568714D01*
X124911976Y-29663952D01*
X124959595Y-29711571D01*
X125054833Y-29759190D01*
X125435785Y-29759190D01*
X124435785Y-30235380D02*
X124435785Y-29568714D01*
X124435785Y-29759190D02*
X124388166Y-29663952D01*
X124340547Y-29616333D01*
X124245309Y-29568714D01*
X124150071Y-29568714D01*
X123673880Y-30235380D02*
X123769119Y-30187761D01*
X123816738Y-30140142D01*
X123864357Y-30044904D01*
X123864357Y-29759190D01*
X123816738Y-29663952D01*
X123769119Y-29616333D01*
X123673880Y-29568714D01*
X123531023Y-29568714D01*
X123435785Y-29616333D01*
X123388166Y-29663952D01*
X123340547Y-29759190D01*
X123340547Y-30044904D01*
X123388166Y-30140142D01*
X123435785Y-30187761D01*
X123531023Y-30235380D01*
X123673880Y-30235380D01*
X122911976Y-29568714D02*
X122911976Y-30425857D01*
X122959595Y-30521095D01*
X123054833Y-30568714D01*
X123102452Y-30568714D01*
X122911976Y-29235380D02*
X122959595Y-29283000D01*
X122911976Y-29330619D01*
X122864357Y-29283000D01*
X122911976Y-29235380D01*
X122911976Y-29330619D01*
X122054833Y-30187761D02*
X122150071Y-30235380D01*
X122340547Y-30235380D01*
X122435785Y-30187761D01*
X122483404Y-30092523D01*
X122483404Y-29711571D01*
X122435785Y-29616333D01*
X122340547Y-29568714D01*
X122150071Y-29568714D01*
X122054833Y-29616333D01*
X122007214Y-29711571D01*
X122007214Y-29806809D01*
X122483404Y-29902047D01*
X121150071Y-30187761D02*
X121245309Y-30235380D01*
X121435785Y-30235380D01*
X121531023Y-30187761D01*
X121578642Y-30140142D01*
X121626261Y-30044904D01*
X121626261Y-29759190D01*
X121578642Y-29663952D01*
X121531023Y-29616333D01*
X121435785Y-29568714D01*
X121245309Y-29568714D01*
X121150071Y-29616333D01*
X120864357Y-29568714D02*
X120483404Y-29568714D01*
X120721500Y-29235380D02*
X120721500Y-30092523D01*
X120673880Y-30187761D01*
X120578642Y-30235380D01*
X120483404Y-30235380D01*
X119435785Y-30187761D02*
X119292928Y-30235380D01*
X119054833Y-30235380D01*
X118959595Y-30187761D01*
X118911976Y-30140142D01*
X118864357Y-30044904D01*
X118864357Y-29949666D01*
X118911976Y-29854428D01*
X118959595Y-29806809D01*
X119054833Y-29759190D01*
X119245309Y-29711571D01*
X119340547Y-29663952D01*
X119388166Y-29616333D01*
X119435785Y-29521095D01*
X119435785Y-29425857D01*
X119388166Y-29330619D01*
X119340547Y-29283000D01*
X119245309Y-29235380D01*
X119007214Y-29235380D01*
X118864357Y-29283000D01*
X118483404Y-29949666D02*
X118007214Y-29949666D01*
X118578642Y-30235380D02*
X118245309Y-29235380D01*
X117911976Y-30235380D01*
X116911976Y-30330619D02*
X117007214Y-30283000D01*
X117102452Y-30187761D01*
X117245309Y-30044904D01*
X117340547Y-29997285D01*
X117435785Y-29997285D01*
X117388166Y-30235380D02*
X117483404Y-30187761D01*
X117578642Y-30092523D01*
X117626261Y-29902047D01*
X117626261Y-29568714D01*
X117578642Y-29378238D01*
X117483404Y-29283000D01*
X117388166Y-29235380D01*
X117197690Y-29235380D01*
X117102452Y-29283000D01*
X117007214Y-29378238D01*
X116959595Y-29568714D01*
X116959595Y-29902047D01*
X117007214Y-30092523D01*
X117102452Y-30187761D01*
X117197690Y-30235380D01*
X117388166Y-30235380D01*
X123888166Y-31885380D02*
X124364357Y-31885380D01*
X124364357Y-30885380D01*
X123554833Y-31885380D02*
X123554833Y-30885380D01*
X123221500Y-31599666D01*
X122888166Y-30885380D01*
X122888166Y-31885380D01*
X122411976Y-31885380D02*
X122411976Y-30885380D01*
X122031023Y-30885380D01*
X121935785Y-30933000D01*
X121888166Y-30980619D01*
X121840547Y-31075857D01*
X121840547Y-31218714D01*
X121888166Y-31313952D01*
X121935785Y-31361571D01*
X122031023Y-31409190D01*
X122411976Y-31409190D01*
X121507214Y-30885380D02*
X120840547Y-30885380D01*
X121269119Y-31885380D01*
X120554833Y-30885380D02*
X119888166Y-30885380D01*
X120316738Y-31885380D01*
X119554833Y-30980619D02*
X119507214Y-30933000D01*
X119411976Y-30885380D01*
X119173880Y-30885380D01*
X119078642Y-30933000D01*
X119031023Y-30980619D01*
X118983404Y-31075857D01*
X118983404Y-31171095D01*
X119031023Y-31313952D01*
X119602452Y-31885380D01*
X118983404Y-31885380D01*
X118031023Y-31885380D02*
X118602452Y-31885380D01*
X118316738Y-31885380D02*
X118316738Y-30885380D01*
X118411976Y-31028238D01*
X118507214Y-31123476D01*
X118602452Y-31171095D01*
X125840547Y-33011571D02*
X126173880Y-33011571D01*
X126173880Y-33535380D02*
X126173880Y-32535380D01*
X125697690Y-32535380D01*
X124935785Y-33487761D02*
X125031023Y-33535380D01*
X125221500Y-33535380D01*
X125316738Y-33487761D01*
X125364357Y-33392523D01*
X125364357Y-33011571D01*
X125316738Y-32916333D01*
X125221500Y-32868714D01*
X125031023Y-32868714D01*
X124935785Y-32916333D01*
X124888166Y-33011571D01*
X124888166Y-33106809D01*
X125364357Y-33202047D01*
X124459595Y-33535380D02*
X124459595Y-32535380D01*
X124459595Y-32916333D02*
X124364357Y-32868714D01*
X124173880Y-32868714D01*
X124078642Y-32916333D01*
X124031023Y-32963952D01*
X123983404Y-33059190D01*
X123983404Y-33344904D01*
X124031023Y-33440142D01*
X124078642Y-33487761D01*
X124173880Y-33535380D01*
X124364357Y-33535380D01*
X124459595Y-33487761D01*
X122364357Y-32868714D02*
X122364357Y-33535380D01*
X122602452Y-32487761D02*
X122840547Y-33202047D01*
X122221500Y-33202047D01*
X121983404Y-32868714D02*
X121602452Y-32868714D01*
X121840547Y-32535380D02*
X121840547Y-33392523D01*
X121792928Y-33487761D01*
X121697690Y-33535380D01*
X121602452Y-33535380D01*
X121269119Y-33535380D02*
X121269119Y-32535380D01*
X120840547Y-33535380D02*
X120840547Y-33011571D01*
X120888166Y-32916333D01*
X120983404Y-32868714D01*
X121126261Y-32868714D01*
X121221500Y-32916333D01*
X121269119Y-32963952D01*
X119650071Y-32630619D02*
X119602452Y-32583000D01*
X119507214Y-32535380D01*
X119269119Y-32535380D01*
X119173880Y-32583000D01*
X119126261Y-32630619D01*
X119078642Y-32725857D01*
X119078642Y-32821095D01*
X119126261Y-32963952D01*
X119697690Y-33535380D01*
X119078642Y-33535380D01*
X118459595Y-32535380D02*
X118364357Y-32535380D01*
X118269119Y-32583000D01*
X118221500Y-32630619D01*
X118173880Y-32725857D01*
X118126261Y-32916333D01*
X118126261Y-33154428D01*
X118173880Y-33344904D01*
X118221500Y-33440142D01*
X118269119Y-33487761D01*
X118364357Y-33535380D01*
X118459595Y-33535380D01*
X118554833Y-33487761D01*
X118602452Y-33440142D01*
X118650071Y-33344904D01*
X118697690Y-33154428D01*
X118697690Y-32916333D01*
X118650071Y-32725857D01*
X118602452Y-32630619D01*
X118554833Y-32583000D01*
X118459595Y-32535380D01*
X117745309Y-32630619D02*
X117697690Y-32583000D01*
X117602452Y-32535380D01*
X117364357Y-32535380D01*
X117269119Y-32583000D01*
X117221500Y-32630619D01*
X117173880Y-32725857D01*
X117173880Y-32821095D01*
X117221500Y-32963952D01*
X117792928Y-33535380D01*
X117173880Y-33535380D01*
X116792928Y-32630619D02*
X116745309Y-32583000D01*
X116650071Y-32535380D01*
X116411976Y-32535380D01*
X116316738Y-32583000D01*
X116269119Y-32630619D01*
X116221500Y-32725857D01*
X116221500Y-32821095D01*
X116269119Y-32963952D01*
X116840547Y-33535380D01*
X116221500Y-33535380D01*
X127245309Y-34899666D02*
X126769119Y-34899666D01*
X127340547Y-35185380D02*
X127007214Y-34185380D01*
X126673880Y-35185380D01*
X125911976Y-34518714D02*
X125911976Y-35185380D01*
X126340547Y-34518714D02*
X126340547Y-35042523D01*
X126292928Y-35137761D01*
X126197690Y-35185380D01*
X126054833Y-35185380D01*
X125959595Y-35137761D01*
X125911976Y-35090142D01*
X125483404Y-35137761D02*
X125388166Y-35185380D01*
X125197690Y-35185380D01*
X125102452Y-35137761D01*
X125054833Y-35042523D01*
X125054833Y-34994904D01*
X125102452Y-34899666D01*
X125197690Y-34852047D01*
X125340547Y-34852047D01*
X125435785Y-34804428D01*
X125483404Y-34709190D01*
X125483404Y-34661571D01*
X125435785Y-34566333D01*
X125340547Y-34518714D01*
X125197690Y-34518714D01*
X125102452Y-34566333D01*
X124769119Y-34518714D02*
X124388166Y-34518714D01*
X124626261Y-34185380D02*
X124626261Y-35042523D01*
X124578642Y-35137761D01*
X124483404Y-35185380D01*
X124388166Y-35185380D01*
X124054833Y-35185380D02*
X124054833Y-34518714D01*
X124054833Y-34185380D02*
X124102452Y-34233000D01*
X124054833Y-34280619D01*
X124007214Y-34233000D01*
X124054833Y-34185380D01*
X124054833Y-34280619D01*
X123578642Y-34518714D02*
X123578642Y-35185380D01*
X123578642Y-34613952D02*
X123531023Y-34566333D01*
X123435785Y-34518714D01*
X123292928Y-34518714D01*
X123197690Y-34566333D01*
X123150071Y-34661571D01*
X123150071Y-35185380D01*
X121911976Y-35185380D02*
X121911976Y-34185380D01*
X121578642Y-34899666D01*
X121245309Y-34185380D01*
X121245309Y-35185380D01*
X120340547Y-35137761D02*
X120435785Y-35185380D01*
X120626261Y-35185380D01*
X120721500Y-35137761D01*
X120769119Y-35090142D01*
X120816738Y-34994904D01*
X120816738Y-34709190D01*
X120769119Y-34613952D01*
X120721500Y-34566333D01*
X120626261Y-34518714D01*
X120435785Y-34518714D01*
X120340547Y-34566333D01*
X119911976Y-35185380D02*
X119911976Y-34185380D01*
X119673880Y-34185380D01*
X119531023Y-34233000D01*
X119435785Y-34328238D01*
X119388166Y-34423476D01*
X119340547Y-34613952D01*
X119340547Y-34756809D01*
X119388166Y-34947285D01*
X119435785Y-35042523D01*
X119531023Y-35137761D01*
X119673880Y-35185380D01*
X119911976Y-35185380D01*
X118769119Y-35185380D02*
X118864357Y-35137761D01*
X118911976Y-35090142D01*
X118959595Y-34994904D01*
X118959595Y-34709190D01*
X118911976Y-34613952D01*
X118864357Y-34566333D01*
X118769119Y-34518714D01*
X118626261Y-34518714D01*
X118531023Y-34566333D01*
X118483404Y-34613952D01*
X118435785Y-34709190D01*
X118435785Y-34994904D01*
X118483404Y-35090142D01*
X118531023Y-35137761D01*
X118626261Y-35185380D01*
X118769119Y-35185380D01*
X118007214Y-34518714D02*
X118007214Y-35185380D01*
X118007214Y-34613952D02*
X117959595Y-34566333D01*
X117864357Y-34518714D01*
X117721500Y-34518714D01*
X117626261Y-34566333D01*
X117578642Y-34661571D01*
X117578642Y-35185380D01*
X116673880Y-35185380D02*
X116673880Y-34661571D01*
X116721500Y-34566333D01*
X116816738Y-34518714D01*
X117007214Y-34518714D01*
X117102452Y-34566333D01*
X116673880Y-35137761D02*
X116769119Y-35185380D01*
X117007214Y-35185380D01*
X117102452Y-35137761D01*
X117150071Y-35042523D01*
X117150071Y-34947285D01*
X117102452Y-34852047D01*
X117007214Y-34804428D01*
X116769119Y-34804428D01*
X116673880Y-34756809D01*
X116054833Y-35185380D02*
X116150071Y-35137761D01*
X116197690Y-35042523D01*
X116197690Y-34185380D01*
X115245309Y-35185380D02*
X115245309Y-34185380D01*
X115245309Y-35137761D02*
X115340547Y-35185380D01*
X115531023Y-35185380D01*
X115626261Y-35137761D01*
X115673880Y-35090142D01*
X115721500Y-34994904D01*
X115721500Y-34709190D01*
X115673880Y-34613952D01*
X115626261Y-34566333D01*
X115531023Y-34518714D01*
X115340547Y-34518714D01*
X115245309Y-34566333D01*
D11*
%TO.C,U5*%
X164592000Y-44440000D02*
X161142000Y-44440000D01*
X164592000Y-44440000D02*
X166542000Y-44440000D01*
X164592000Y-35570000D02*
X162642000Y-35570000D01*
X164592000Y-35570000D02*
X166542000Y-35570000D01*
%TO.C,C15*%
X148806248Y-28342000D02*
X150228752Y-28342000D01*
X148806248Y-26522000D02*
X150228752Y-26522000D01*
%TO.C,C13*%
X139674252Y-31919500D02*
X138251748Y-31919500D01*
X139674252Y-33739500D02*
X138251748Y-33739500D01*
%TO.C,C12*%
X145821748Y-24024000D02*
X147244252Y-24024000D01*
X145821748Y-22204000D02*
X147244252Y-22204000D01*
%TO.C,C11*%
X167809500Y-46405748D02*
X167809500Y-47828252D01*
X169629500Y-46405748D02*
X169629500Y-47828252D01*
%TO.C,X1*%
X168834000Y-54478000D02*
X165684000Y-54478000D01*
X165684000Y-54478000D02*
X165684000Y-50678000D01*
%TO.C,R18*%
X165644500Y-32501064D02*
X165644500Y-32046936D01*
X164174500Y-32501064D02*
X164174500Y-32046936D01*
%TO.C,R17*%
X151426936Y-33056500D02*
X151881064Y-33056500D01*
X151426936Y-31586500D02*
X151881064Y-31586500D01*
%TO.C,R15*%
X156618000Y-22061436D02*
X156618000Y-22515564D01*
X158088000Y-22061436D02*
X158088000Y-22515564D01*
%TO.C,C9*%
X167111000Y-56946748D02*
X167111000Y-58369252D01*
X168931000Y-56946748D02*
X168931000Y-58369252D01*
%TO.C,C8*%
X154469752Y-35094500D02*
X153047248Y-35094500D01*
X154469752Y-36914500D02*
X153047248Y-36914500D01*
%TO.C,U5*%
D10*
X163067904Y-44918380D02*
X163067904Y-45727904D01*
X163020285Y-45823142D01*
X162972666Y-45870761D01*
X162877428Y-45918380D01*
X162686952Y-45918380D01*
X162591714Y-45870761D01*
X162544095Y-45823142D01*
X162496476Y-45727904D01*
X162496476Y-44918380D01*
X161544095Y-44918380D02*
X162020285Y-44918380D01*
X162067904Y-45394571D01*
X162020285Y-45346952D01*
X161925047Y-45299333D01*
X161686952Y-45299333D01*
X161591714Y-45346952D01*
X161544095Y-45394571D01*
X161496476Y-45489809D01*
X161496476Y-45727904D01*
X161544095Y-45823142D01*
X161591714Y-45870761D01*
X161686952Y-45918380D01*
X161925047Y-45918380D01*
X162020285Y-45870761D01*
X162067904Y-45823142D01*
%TO.C,C15*%
X151391857Y-26201642D02*
X151439476Y-26249261D01*
X151582333Y-26296880D01*
X151677571Y-26296880D01*
X151820428Y-26249261D01*
X151915666Y-26154023D01*
X151963285Y-26058785D01*
X152010904Y-25868309D01*
X152010904Y-25725452D01*
X151963285Y-25534976D01*
X151915666Y-25439738D01*
X151820428Y-25344500D01*
X151677571Y-25296880D01*
X151582333Y-25296880D01*
X151439476Y-25344500D01*
X151391857Y-25392119D01*
X150439476Y-26296880D02*
X151010904Y-26296880D01*
X150725190Y-26296880D02*
X150725190Y-25296880D01*
X150820428Y-25439738D01*
X150915666Y-25534976D01*
X151010904Y-25582595D01*
X149534714Y-25296880D02*
X150010904Y-25296880D01*
X150058523Y-25773071D01*
X150010904Y-25725452D01*
X149915666Y-25677833D01*
X149677571Y-25677833D01*
X149582333Y-25725452D01*
X149534714Y-25773071D01*
X149487095Y-25868309D01*
X149487095Y-26106404D01*
X149534714Y-26201642D01*
X149582333Y-26249261D01*
X149677571Y-26296880D01*
X149915666Y-26296880D01*
X150010904Y-26249261D01*
X150058523Y-26201642D01*
%TO.C,C13*%
X140240857Y-31336642D02*
X140288476Y-31384261D01*
X140431333Y-31431880D01*
X140526571Y-31431880D01*
X140669428Y-31384261D01*
X140764666Y-31289023D01*
X140812285Y-31193785D01*
X140859904Y-31003309D01*
X140859904Y-30860452D01*
X140812285Y-30669976D01*
X140764666Y-30574738D01*
X140669428Y-30479500D01*
X140526571Y-30431880D01*
X140431333Y-30431880D01*
X140288476Y-30479500D01*
X140240857Y-30527119D01*
X139288476Y-31431880D02*
X139859904Y-31431880D01*
X139574190Y-31431880D02*
X139574190Y-30431880D01*
X139669428Y-30574738D01*
X139764666Y-30669976D01*
X139859904Y-30717595D01*
X138955142Y-30431880D02*
X138336095Y-30431880D01*
X138669428Y-30812833D01*
X138526571Y-30812833D01*
X138431333Y-30860452D01*
X138383714Y-30908071D01*
X138336095Y-31003309D01*
X138336095Y-31241404D01*
X138383714Y-31336642D01*
X138431333Y-31384261D01*
X138526571Y-31431880D01*
X138812285Y-31431880D01*
X138907523Y-31384261D01*
X138955142Y-31336642D01*
%TO.C,C12*%
X147175857Y-25321142D02*
X147223476Y-25368761D01*
X147366333Y-25416380D01*
X147461571Y-25416380D01*
X147604428Y-25368761D01*
X147699666Y-25273523D01*
X147747285Y-25178285D01*
X147794904Y-24987809D01*
X147794904Y-24844952D01*
X147747285Y-24654476D01*
X147699666Y-24559238D01*
X147604428Y-24464000D01*
X147461571Y-24416380D01*
X147366333Y-24416380D01*
X147223476Y-24464000D01*
X147175857Y-24511619D01*
X146223476Y-25416380D02*
X146794904Y-25416380D01*
X146509190Y-25416380D02*
X146509190Y-24416380D01*
X146604428Y-24559238D01*
X146699666Y-24654476D01*
X146794904Y-24702095D01*
X145842523Y-24511619D02*
X145794904Y-24464000D01*
X145699666Y-24416380D01*
X145461571Y-24416380D01*
X145366333Y-24464000D01*
X145318714Y-24511619D01*
X145271095Y-24606857D01*
X145271095Y-24702095D01*
X145318714Y-24844952D01*
X145890142Y-25416380D01*
X145271095Y-25416380D01*
%TO.C,C11*%
X167012857Y-45886642D02*
X167060476Y-45934261D01*
X167203333Y-45981880D01*
X167298571Y-45981880D01*
X167441428Y-45934261D01*
X167536666Y-45839023D01*
X167584285Y-45743785D01*
X167631904Y-45553309D01*
X167631904Y-45410452D01*
X167584285Y-45219976D01*
X167536666Y-45124738D01*
X167441428Y-45029500D01*
X167298571Y-44981880D01*
X167203333Y-44981880D01*
X167060476Y-45029500D01*
X167012857Y-45077119D01*
X166060476Y-45981880D02*
X166631904Y-45981880D01*
X166346190Y-45981880D02*
X166346190Y-44981880D01*
X166441428Y-45124738D01*
X166536666Y-45219976D01*
X166631904Y-45267595D01*
X165108095Y-45981880D02*
X165679523Y-45981880D01*
X165393809Y-45981880D02*
X165393809Y-44981880D01*
X165489047Y-45124738D01*
X165584285Y-45219976D01*
X165679523Y-45267595D01*
%TO.C,X1*%
X164425380Y-53165476D02*
X165425380Y-53832142D01*
X164425380Y-53832142D02*
X165425380Y-53165476D01*
X165425380Y-54736904D02*
X165425380Y-54165476D01*
X165425380Y-54451190D02*
X164425380Y-54451190D01*
X164568238Y-54355952D01*
X164663476Y-54260714D01*
X164711095Y-54165476D01*
%TO.C,R18*%
X166885880Y-32012142D02*
X166409690Y-31678809D01*
X166885880Y-31440714D02*
X165885880Y-31440714D01*
X165885880Y-31821666D01*
X165933500Y-31916904D01*
X165981119Y-31964523D01*
X166076357Y-32012142D01*
X166219214Y-32012142D01*
X166314452Y-31964523D01*
X166362071Y-31916904D01*
X166409690Y-31821666D01*
X166409690Y-31440714D01*
X166885880Y-32964523D02*
X166885880Y-32393095D01*
X166885880Y-32678809D02*
X165885880Y-32678809D01*
X166028738Y-32583571D01*
X166123976Y-32488333D01*
X166171595Y-32393095D01*
X166314452Y-33535952D02*
X166266833Y-33440714D01*
X166219214Y-33393095D01*
X166123976Y-33345476D01*
X166076357Y-33345476D01*
X165981119Y-33393095D01*
X165933500Y-33440714D01*
X165885880Y-33535952D01*
X165885880Y-33726428D01*
X165933500Y-33821666D01*
X165981119Y-33869285D01*
X166076357Y-33916904D01*
X166123976Y-33916904D01*
X166219214Y-33869285D01*
X166266833Y-33821666D01*
X166314452Y-33726428D01*
X166314452Y-33535952D01*
X166362071Y-33440714D01*
X166409690Y-33393095D01*
X166504928Y-33345476D01*
X166695404Y-33345476D01*
X166790642Y-33393095D01*
X166838261Y-33440714D01*
X166885880Y-33535952D01*
X166885880Y-33726428D01*
X166838261Y-33821666D01*
X166790642Y-33869285D01*
X166695404Y-33916904D01*
X166504928Y-33916904D01*
X166409690Y-33869285D01*
X166362071Y-33821666D01*
X166314452Y-33726428D01*
%TO.C,R17*%
X152661857Y-31440380D02*
X152995190Y-30964190D01*
X153233285Y-31440380D02*
X153233285Y-30440380D01*
X152852333Y-30440380D01*
X152757095Y-30488000D01*
X152709476Y-30535619D01*
X152661857Y-30630857D01*
X152661857Y-30773714D01*
X152709476Y-30868952D01*
X152757095Y-30916571D01*
X152852333Y-30964190D01*
X153233285Y-30964190D01*
X151709476Y-31440380D02*
X152280904Y-31440380D01*
X151995190Y-31440380D02*
X151995190Y-30440380D01*
X152090428Y-30583238D01*
X152185666Y-30678476D01*
X152280904Y-30726095D01*
X151376142Y-30440380D02*
X150709476Y-30440380D01*
X151138047Y-31440380D01*
%TO.C,R15*%
X157741857Y-20264380D02*
X158075190Y-19788190D01*
X158313285Y-20264380D02*
X158313285Y-19264380D01*
X157932333Y-19264380D01*
X157837095Y-19312000D01*
X157789476Y-19359619D01*
X157741857Y-19454857D01*
X157741857Y-19597714D01*
X157789476Y-19692952D01*
X157837095Y-19740571D01*
X157932333Y-19788190D01*
X158313285Y-19788190D01*
X156789476Y-20264380D02*
X157360904Y-20264380D01*
X157075190Y-20264380D02*
X157075190Y-19264380D01*
X157170428Y-19407238D01*
X157265666Y-19502476D01*
X157360904Y-19550095D01*
X155884714Y-19264380D02*
X156360904Y-19264380D01*
X156408523Y-19740571D01*
X156360904Y-19692952D01*
X156265666Y-19645333D01*
X156027571Y-19645333D01*
X155932333Y-19692952D01*
X155884714Y-19740571D01*
X155837095Y-19835809D01*
X155837095Y-20073904D01*
X155884714Y-20169142D01*
X155932333Y-20216761D01*
X156027571Y-20264380D01*
X156265666Y-20264380D01*
X156360904Y-20216761D01*
X156408523Y-20169142D01*
%TO.C,C9*%
X166155666Y-56999142D02*
X166203285Y-57046761D01*
X166346142Y-57094380D01*
X166441380Y-57094380D01*
X166584238Y-57046761D01*
X166679476Y-56951523D01*
X166727095Y-56856285D01*
X166774714Y-56665809D01*
X166774714Y-56522952D01*
X166727095Y-56332476D01*
X166679476Y-56237238D01*
X166584238Y-56142000D01*
X166441380Y-56094380D01*
X166346142Y-56094380D01*
X166203285Y-56142000D01*
X166155666Y-56189619D01*
X165679476Y-57094380D02*
X165489000Y-57094380D01*
X165393761Y-57046761D01*
X165346142Y-56999142D01*
X165250904Y-56856285D01*
X165203285Y-56665809D01*
X165203285Y-56284857D01*
X165250904Y-56189619D01*
X165298523Y-56142000D01*
X165393761Y-56094380D01*
X165584238Y-56094380D01*
X165679476Y-56142000D01*
X165727095Y-56189619D01*
X165774714Y-56284857D01*
X165774714Y-56522952D01*
X165727095Y-56618190D01*
X165679476Y-56665809D01*
X165584238Y-56713428D01*
X165393761Y-56713428D01*
X165298523Y-56665809D01*
X165250904Y-56618190D01*
X165203285Y-56522952D01*
%TO.C,C8*%
X155322166Y-34511642D02*
X155369785Y-34559261D01*
X155512642Y-34606880D01*
X155607880Y-34606880D01*
X155750738Y-34559261D01*
X155845976Y-34464023D01*
X155893595Y-34368785D01*
X155941214Y-34178309D01*
X155941214Y-34035452D01*
X155893595Y-33844976D01*
X155845976Y-33749738D01*
X155750738Y-33654500D01*
X155607880Y-33606880D01*
X155512642Y-33606880D01*
X155369785Y-33654500D01*
X155322166Y-33702119D01*
X154750738Y-34035452D02*
X154845976Y-33987833D01*
X154893595Y-33940214D01*
X154941214Y-33844976D01*
X154941214Y-33797357D01*
X154893595Y-33702119D01*
X154845976Y-33654500D01*
X154750738Y-33606880D01*
X154560261Y-33606880D01*
X154465023Y-33654500D01*
X154417404Y-33702119D01*
X154369785Y-33797357D01*
X154369785Y-33844976D01*
X154417404Y-33940214D01*
X154465023Y-33987833D01*
X154560261Y-34035452D01*
X154750738Y-34035452D01*
X154845976Y-34083071D01*
X154893595Y-34130690D01*
X154941214Y-34225928D01*
X154941214Y-34416404D01*
X154893595Y-34511642D01*
X154845976Y-34559261D01*
X154750738Y-34606880D01*
X154560261Y-34606880D01*
X154465023Y-34559261D01*
X154417404Y-34511642D01*
X154369785Y-34416404D01*
X154369785Y-34225928D01*
X154417404Y-34130690D01*
X154465023Y-34083071D01*
X154560261Y-34035452D01*
%TD*%
M02*
