%TF.GenerationSoftware,KiCad,Pcbnew,(5.1.8-0-10_14)*%
%TF.CreationDate,2022-02-24T11:51:05-06:00*%
%TF.ProjectId,SAQ_KiCad_alpha,5341515f-4b69-4436-9164-5f616c706861,rev?*%
%TF.SameCoordinates,Original*%
%TF.FileFunction,Copper,L1,Top*%
%TF.FilePolarity,Positive*%
%FSLAX46Y46*%
G04 Gerber Fmt 4.6, Leading zero omitted, Abs format (unit mm)*
G04 Created by KiCad (PCBNEW (5.1.8-0-10_14)) date 2022-02-24 11:51:05*
%MOMM*%
%LPD*%
G01*
G04 APERTURE LIST*
%TA.AperFunction,ComponentPad*%
%ADD10R,1.000000X1.000000*%
%TD*%
%TA.AperFunction,ComponentPad*%
%ADD11C,2.250000*%
%TD*%
%TA.AperFunction,ComponentPad*%
%ADD12C,2.050000*%
%TD*%
%TA.AperFunction,SMDPad,CuDef*%
%ADD13R,2.000000X1.500000*%
%TD*%
%TA.AperFunction,SMDPad,CuDef*%
%ADD14R,2.000000X3.800000*%
%TD*%
%TA.AperFunction,ComponentPad*%
%ADD15O,3.500000X2.200000*%
%TD*%
%TA.AperFunction,ComponentPad*%
%ADD16O,2.500000X1.500000*%
%TD*%
%TA.AperFunction,ComponentPad*%
%ADD17R,2.500000X1.500000*%
%TD*%
%TA.AperFunction,SMDPad,CuDef*%
%ADD18R,1.300000X1.600000*%
%TD*%
%TA.AperFunction,SMDPad,CuDef*%
%ADD19R,2.000000X1.600000*%
%TD*%
%TA.AperFunction,SMDPad,CuDef*%
%ADD20R,0.800000X0.900000*%
%TD*%
%TA.AperFunction,SMDPad,CuDef*%
%ADD21R,0.900000X0.800000*%
%TD*%
%TA.AperFunction,ComponentPad*%
%ADD22C,2.500000*%
%TD*%
%TA.AperFunction,ComponentPad*%
%ADD23R,2.500000X2.500000*%
%TD*%
%TA.AperFunction,ComponentPad*%
%ADD24C,2.800000*%
%TD*%
%TA.AperFunction,ComponentPad*%
%ADD25R,2.800000X2.800000*%
%TD*%
%TA.AperFunction,ComponentPad*%
%ADD26O,2.200000X2.200000*%
%TD*%
%TA.AperFunction,ComponentPad*%
%ADD27R,2.200000X2.200000*%
%TD*%
%TA.AperFunction,ViaPad*%
%ADD28C,0.800000*%
%TD*%
%TA.AperFunction,Conductor*%
%ADD29C,0.250000*%
%TD*%
%TA.AperFunction,Conductor*%
%ADD30C,0.500000*%
%TD*%
G04 APERTURE END LIST*
D10*
%TO.P,TP5,1*%
%TO.N,CLK*%
X164719000Y-47815500D03*
%TD*%
D11*
%TO.P,J4,2*%
%TO.N,GND*%
X162369500Y-29527500D03*
X162369500Y-24447500D03*
X167449500Y-24447500D03*
X167449500Y-29527500D03*
D12*
%TO.P,J4,1*%
%TO.N,Net-(J4-Pad1)*%
X164909500Y-26987500D03*
%TD*%
D11*
%TO.P,J3,2*%
%TO.N,GND*%
X115189000Y-24003000D03*
X115189000Y-18923000D03*
X120269000Y-18923000D03*
X120269000Y-24003000D03*
D12*
%TO.P,J3,1*%
%TO.N,Net-(J3-Pad1)*%
X117729000Y-21463000D03*
%TD*%
%TO.P,U4,8*%
%TO.N,GND*%
%TA.AperFunction,SMDPad,CuDef*%
G36*
G01*
X143726000Y-33949500D02*
X143726000Y-34249500D01*
G75*
G02*
X143576000Y-34399500I-150000J0D01*
G01*
X141926000Y-34399500D01*
G75*
G02*
X141776000Y-34249500I0J150000D01*
G01*
X141776000Y-33949500D01*
G75*
G02*
X141926000Y-33799500I150000J0D01*
G01*
X143576000Y-33799500D01*
G75*
G02*
X143726000Y-33949500I0J-150000D01*
G01*
G37*
%TD.AperFunction*%
%TO.P,U4,7*%
%TO.N,+3V3*%
%TA.AperFunction,SMDPad,CuDef*%
G36*
G01*
X143726000Y-32679500D02*
X143726000Y-32979500D01*
G75*
G02*
X143576000Y-33129500I-150000J0D01*
G01*
X141926000Y-33129500D01*
G75*
G02*
X141776000Y-32979500I0J150000D01*
G01*
X141776000Y-32679500D01*
G75*
G02*
X141926000Y-32529500I150000J0D01*
G01*
X143576000Y-32529500D01*
G75*
G02*
X143726000Y-32679500I0J-150000D01*
G01*
G37*
%TD.AperFunction*%
%TO.P,U4,6*%
%TO.N,Net-(R16-Pad2)*%
%TA.AperFunction,SMDPad,CuDef*%
G36*
G01*
X143726000Y-31409500D02*
X143726000Y-31709500D01*
G75*
G02*
X143576000Y-31859500I-150000J0D01*
G01*
X141926000Y-31859500D01*
G75*
G02*
X141776000Y-31709500I0J150000D01*
G01*
X141776000Y-31409500D01*
G75*
G02*
X141926000Y-31259500I150000J0D01*
G01*
X143576000Y-31259500D01*
G75*
G02*
X143726000Y-31409500I0J-150000D01*
G01*
G37*
%TD.AperFunction*%
%TO.P,U4,5*%
%TO.N,N/C*%
%TA.AperFunction,SMDPad,CuDef*%
G36*
G01*
X143726000Y-30139500D02*
X143726000Y-30439500D01*
G75*
G02*
X143576000Y-30589500I-150000J0D01*
G01*
X141926000Y-30589500D01*
G75*
G02*
X141776000Y-30439500I0J150000D01*
G01*
X141776000Y-30139500D01*
G75*
G02*
X141926000Y-29989500I150000J0D01*
G01*
X143576000Y-29989500D01*
G75*
G02*
X143726000Y-30139500I0J-150000D01*
G01*
G37*
%TD.AperFunction*%
%TO.P,U4,4*%
%TO.N,GND*%
%TA.AperFunction,SMDPad,CuDef*%
G36*
G01*
X148676000Y-30139500D02*
X148676000Y-30439500D01*
G75*
G02*
X148526000Y-30589500I-150000J0D01*
G01*
X146876000Y-30589500D01*
G75*
G02*
X146726000Y-30439500I0J150000D01*
G01*
X146726000Y-30139500D01*
G75*
G02*
X146876000Y-29989500I150000J0D01*
G01*
X148526000Y-29989500D01*
G75*
G02*
X148676000Y-30139500I0J-150000D01*
G01*
G37*
%TD.AperFunction*%
%TO.P,U4,3*%
%TO.N,Net-(R13-Pad2)*%
%TA.AperFunction,SMDPad,CuDef*%
G36*
G01*
X148676000Y-31409500D02*
X148676000Y-31709500D01*
G75*
G02*
X148526000Y-31859500I-150000J0D01*
G01*
X146876000Y-31859500D01*
G75*
G02*
X146726000Y-31709500I0J150000D01*
G01*
X146726000Y-31409500D01*
G75*
G02*
X146876000Y-31259500I150000J0D01*
G01*
X148526000Y-31259500D01*
G75*
G02*
X148676000Y-31409500I0J-150000D01*
G01*
G37*
%TD.AperFunction*%
%TO.P,U4,2*%
%TO.N,VDD*%
%TA.AperFunction,SMDPad,CuDef*%
G36*
G01*
X148676000Y-32679500D02*
X148676000Y-32979500D01*
G75*
G02*
X148526000Y-33129500I-150000J0D01*
G01*
X146876000Y-33129500D01*
G75*
G02*
X146726000Y-32979500I0J150000D01*
G01*
X146726000Y-32679500D01*
G75*
G02*
X146876000Y-32529500I150000J0D01*
G01*
X148526000Y-32529500D01*
G75*
G02*
X148676000Y-32679500I0J-150000D01*
G01*
G37*
%TD.AperFunction*%
%TO.P,U4,1*%
%TO.N,N/C*%
%TA.AperFunction,SMDPad,CuDef*%
G36*
G01*
X148676000Y-33949500D02*
X148676000Y-34249500D01*
G75*
G02*
X148526000Y-34399500I-150000J0D01*
G01*
X146876000Y-34399500D01*
G75*
G02*
X146726000Y-34249500I0J150000D01*
G01*
X146726000Y-33949500D01*
G75*
G02*
X146876000Y-33799500I150000J0D01*
G01*
X148526000Y-33799500D01*
G75*
G02*
X148676000Y-33949500I0J-150000D01*
G01*
G37*
%TD.AperFunction*%
%TD*%
D10*
%TO.P,TP9,1*%
%TO.N,VEE*%
X127635000Y-35941000D03*
%TD*%
%TO.P,TP8,1*%
%TO.N,VDD*%
X145224500Y-39941500D03*
%TD*%
%TO.P,TP7,1*%
%TO.N,-3V3*%
X141414500Y-56451500D03*
%TD*%
%TO.P,TP6,1*%
%TO.N,+3V3*%
X141795500Y-39941500D03*
%TD*%
%TO.P,TP4,1*%
%TO.N,Net-(R15-Pad2)*%
X157289500Y-27178000D03*
%TD*%
%TO.P,TP3,1*%
%TO.N,Net-(C8-Pad1)*%
X155384500Y-32321500D03*
%TD*%
%TO.P,TP2,1*%
%TO.N,Net-(R13-Pad2)*%
X152844500Y-22479000D03*
%TD*%
%TO.P,TP1,1*%
%TO.N,Net-(C7-Pad1)*%
X141859000Y-18224500D03*
%TD*%
%TO.P,U3,8*%
%TO.N,Net-(C7-Pad1)*%
%TA.AperFunction,SMDPad,CuDef*%
G36*
G01*
X142390000Y-24155500D02*
X142090000Y-24155500D01*
G75*
G02*
X141940000Y-24005500I0J150000D01*
G01*
X141940000Y-22355500D01*
G75*
G02*
X142090000Y-22205500I150000J0D01*
G01*
X142390000Y-22205500D01*
G75*
G02*
X142540000Y-22355500I0J-150000D01*
G01*
X142540000Y-24005500D01*
G75*
G02*
X142390000Y-24155500I-150000J0D01*
G01*
G37*
%TD.AperFunction*%
%TO.P,U3,7*%
%TO.N,N/C*%
%TA.AperFunction,SMDPad,CuDef*%
G36*
G01*
X143660000Y-24155500D02*
X143360000Y-24155500D01*
G75*
G02*
X143210000Y-24005500I0J150000D01*
G01*
X143210000Y-22355500D01*
G75*
G02*
X143360000Y-22205500I150000J0D01*
G01*
X143660000Y-22205500D01*
G75*
G02*
X143810000Y-22355500I0J-150000D01*
G01*
X143810000Y-24005500D01*
G75*
G02*
X143660000Y-24155500I-150000J0D01*
G01*
G37*
%TD.AperFunction*%
%TO.P,U3,6*%
%TO.N,+3V3*%
%TA.AperFunction,SMDPad,CuDef*%
G36*
G01*
X144930000Y-24155500D02*
X144630000Y-24155500D01*
G75*
G02*
X144480000Y-24005500I0J150000D01*
G01*
X144480000Y-22355500D01*
G75*
G02*
X144630000Y-22205500I150000J0D01*
G01*
X144930000Y-22205500D01*
G75*
G02*
X145080000Y-22355500I0J-150000D01*
G01*
X145080000Y-24005500D01*
G75*
G02*
X144930000Y-24155500I-150000J0D01*
G01*
G37*
%TD.AperFunction*%
%TO.P,U3,5*%
%TO.N,N/C*%
%TA.AperFunction,SMDPad,CuDef*%
G36*
G01*
X146200000Y-24155500D02*
X145900000Y-24155500D01*
G75*
G02*
X145750000Y-24005500I0J150000D01*
G01*
X145750000Y-22355500D01*
G75*
G02*
X145900000Y-22205500I150000J0D01*
G01*
X146200000Y-22205500D01*
G75*
G02*
X146350000Y-22355500I0J-150000D01*
G01*
X146350000Y-24005500D01*
G75*
G02*
X146200000Y-24155500I-150000J0D01*
G01*
G37*
%TD.AperFunction*%
%TO.P,U3,4*%
%TO.N,Net-(C7-Pad2)*%
%TA.AperFunction,SMDPad,CuDef*%
G36*
G01*
X146200000Y-29105500D02*
X145900000Y-29105500D01*
G75*
G02*
X145750000Y-28955500I0J150000D01*
G01*
X145750000Y-27305500D01*
G75*
G02*
X145900000Y-27155500I150000J0D01*
G01*
X146200000Y-27155500D01*
G75*
G02*
X146350000Y-27305500I0J-150000D01*
G01*
X146350000Y-28955500D01*
G75*
G02*
X146200000Y-29105500I-150000J0D01*
G01*
G37*
%TD.AperFunction*%
%TO.P,U3,3*%
%TO.N,-3V3*%
%TA.AperFunction,SMDPad,CuDef*%
G36*
G01*
X144930000Y-29105500D02*
X144630000Y-29105500D01*
G75*
G02*
X144480000Y-28955500I0J150000D01*
G01*
X144480000Y-27305500D01*
G75*
G02*
X144630000Y-27155500I150000J0D01*
G01*
X144930000Y-27155500D01*
G75*
G02*
X145080000Y-27305500I0J-150000D01*
G01*
X145080000Y-28955500D01*
G75*
G02*
X144930000Y-29105500I-150000J0D01*
G01*
G37*
%TD.AperFunction*%
%TO.P,U3,2*%
%TO.N,N/C*%
%TA.AperFunction,SMDPad,CuDef*%
G36*
G01*
X143660000Y-29105500D02*
X143360000Y-29105500D01*
G75*
G02*
X143210000Y-28955500I0J150000D01*
G01*
X143210000Y-27305500D01*
G75*
G02*
X143360000Y-27155500I150000J0D01*
G01*
X143660000Y-27155500D01*
G75*
G02*
X143810000Y-27305500I0J-150000D01*
G01*
X143810000Y-28955500D01*
G75*
G02*
X143660000Y-29105500I-150000J0D01*
G01*
G37*
%TD.AperFunction*%
%TO.P,U3,1*%
%TO.N,Net-(R12-Pad2)*%
%TA.AperFunction,SMDPad,CuDef*%
G36*
G01*
X142390000Y-29105500D02*
X142090000Y-29105500D01*
G75*
G02*
X141940000Y-28955500I0J150000D01*
G01*
X141940000Y-27305500D01*
G75*
G02*
X142090000Y-27155500I150000J0D01*
G01*
X142390000Y-27155500D01*
G75*
G02*
X142540000Y-27305500I0J-150000D01*
G01*
X142540000Y-28955500D01*
G75*
G02*
X142390000Y-29105500I-150000J0D01*
G01*
G37*
%TD.AperFunction*%
%TD*%
D13*
%TO.P,U2,1*%
%TO.N,Net-(C2-Pad2)*%
X126580500Y-56183500D03*
%TO.P,U2,3*%
%TO.N,-3V3*%
X126580500Y-60783500D03*
%TO.P,U2,2*%
%TO.N,Net-(D2-Pad2)*%
X126580500Y-58483500D03*
D14*
X132880500Y-58483500D03*
%TD*%
D13*
%TO.P,U1,1*%
%TO.N,Net-(C1-Pad1)*%
X126841720Y-44761120D03*
%TO.P,U1,3*%
%TO.N,Net-(D1-Pad1)*%
X126841720Y-49361120D03*
%TO.P,U1,2*%
%TO.N,+3V3*%
X126841720Y-47061120D03*
D14*
X133141720Y-47061120D03*
%TD*%
D15*
%TO.P,SW2,*%
%TO.N,*%
X162115500Y-51145000D03*
X162115500Y-59345000D03*
D16*
%TO.P,SW2,3*%
%TO.N,+3V3*%
X162115500Y-53245000D03*
%TO.P,SW2,2*%
%TO.N,Net-(SW2-Pad2)*%
X162115500Y-55245000D03*
D17*
%TO.P,SW2,1*%
%TO.N,GND*%
X162115500Y-57245000D03*
%TD*%
D15*
%TO.P,SW1,*%
%TO.N,*%
X129286000Y-22665500D03*
X129286000Y-30865500D03*
D16*
%TO.P,SW1,3*%
%TO.N,Net-(J3-Pad1)*%
X129286000Y-24765500D03*
%TO.P,SW1,2*%
%TO.N,Net-(Q5-Pad2)*%
X129286000Y-26765500D03*
D17*
%TO.P,SW1,1*%
%TO.N,Net-(Q3-Pad3)*%
X129286000Y-28765500D03*
%TD*%
D18*
%TO.P,RV1,3*%
%TO.N,VDD*%
X151086500Y-39888500D03*
D19*
%TO.P,RV1,2*%
%TO.N,GND*%
X152336500Y-42788500D03*
D18*
%TO.P,RV1,1*%
X153586500Y-39888500D03*
%TD*%
%TO.P,R16,2*%
%TO.N,Net-(R16-Pad2)*%
%TA.AperFunction,SMDPad,CuDef*%
G36*
G01*
X151317500Y-29394999D02*
X151317500Y-30295001D01*
G75*
G02*
X151067501Y-30545000I-249999J0D01*
G01*
X150367499Y-30545000D01*
G75*
G02*
X150117500Y-30295001I0J249999D01*
G01*
X150117500Y-29394999D01*
G75*
G02*
X150367499Y-29145000I249999J0D01*
G01*
X151067501Y-29145000D01*
G75*
G02*
X151317500Y-29394999I0J-249999D01*
G01*
G37*
%TD.AperFunction*%
%TO.P,R16,1*%
%TO.N,Net-(R13-Pad2)*%
%TA.AperFunction,SMDPad,CuDef*%
G36*
G01*
X153317500Y-29394999D02*
X153317500Y-30295001D01*
G75*
G02*
X153067501Y-30545000I-249999J0D01*
G01*
X152367499Y-30545000D01*
G75*
G02*
X152117500Y-30295001I0J249999D01*
G01*
X152117500Y-29394999D01*
G75*
G02*
X152367499Y-29145000I249999J0D01*
G01*
X153067501Y-29145000D01*
G75*
G02*
X153317500Y-29394999I0J-249999D01*
G01*
G37*
%TD.AperFunction*%
%TD*%
%TO.P,R14,2*%
%TO.N,Net-(Q7-Pad2)*%
%TA.AperFunction,SMDPad,CuDef*%
G36*
G01*
X149603000Y-18155499D02*
X149603000Y-19055501D01*
G75*
G02*
X149353001Y-19305500I-249999J0D01*
G01*
X148652999Y-19305500D01*
G75*
G02*
X148403000Y-19055501I0J249999D01*
G01*
X148403000Y-18155499D01*
G75*
G02*
X148652999Y-17905500I249999J0D01*
G01*
X149353001Y-17905500D01*
G75*
G02*
X149603000Y-18155499I0J-249999D01*
G01*
G37*
%TD.AperFunction*%
%TO.P,R14,1*%
%TO.N,GND*%
%TA.AperFunction,SMDPad,CuDef*%
G36*
G01*
X151603000Y-18155499D02*
X151603000Y-19055501D01*
G75*
G02*
X151353001Y-19305500I-249999J0D01*
G01*
X150652999Y-19305500D01*
G75*
G02*
X150403000Y-19055501I0J249999D01*
G01*
X150403000Y-18155499D01*
G75*
G02*
X150652999Y-17905500I249999J0D01*
G01*
X151353001Y-17905500D01*
G75*
G02*
X151603000Y-18155499I0J-249999D01*
G01*
G37*
%TD.AperFunction*%
%TD*%
%TO.P,R13,2*%
%TO.N,Net-(R13-Pad2)*%
%TA.AperFunction,SMDPad,CuDef*%
G36*
G01*
X149863000Y-25913501D02*
X149863000Y-25013499D01*
G75*
G02*
X150112999Y-24763500I249999J0D01*
G01*
X150813001Y-24763500D01*
G75*
G02*
X151063000Y-25013499I0J-249999D01*
G01*
X151063000Y-25913501D01*
G75*
G02*
X150813001Y-26163500I-249999J0D01*
G01*
X150112999Y-26163500D01*
G75*
G02*
X149863000Y-25913501I0J249999D01*
G01*
G37*
%TD.AperFunction*%
%TO.P,R13,1*%
%TO.N,Net-(C7-Pad2)*%
%TA.AperFunction,SMDPad,CuDef*%
G36*
G01*
X147863000Y-25913501D02*
X147863000Y-25013499D01*
G75*
G02*
X148112999Y-24763500I249999J0D01*
G01*
X148813001Y-24763500D01*
G75*
G02*
X149063000Y-25013499I0J-249999D01*
G01*
X149063000Y-25913501D01*
G75*
G02*
X148813001Y-26163500I-249999J0D01*
G01*
X148112999Y-26163500D01*
G75*
G02*
X147863000Y-25913501I0J249999D01*
G01*
G37*
%TD.AperFunction*%
%TD*%
%TO.P,R12,2*%
%TO.N,Net-(R12-Pad2)*%
%TA.AperFunction,SMDPad,CuDef*%
G36*
G01*
X139093400Y-29162161D02*
X139093400Y-28262159D01*
G75*
G02*
X139343399Y-28012160I249999J0D01*
G01*
X140043401Y-28012160D01*
G75*
G02*
X140293400Y-28262159I0J-249999D01*
G01*
X140293400Y-29162161D01*
G75*
G02*
X140043401Y-29412160I-249999J0D01*
G01*
X139343399Y-29412160D01*
G75*
G02*
X139093400Y-29162161I0J249999D01*
G01*
G37*
%TD.AperFunction*%
%TO.P,R12,1*%
%TO.N,GND*%
%TA.AperFunction,SMDPad,CuDef*%
G36*
G01*
X137093400Y-29162161D02*
X137093400Y-28262159D01*
G75*
G02*
X137343399Y-28012160I249999J0D01*
G01*
X138043401Y-28012160D01*
G75*
G02*
X138293400Y-28262159I0J-249999D01*
G01*
X138293400Y-29162161D01*
G75*
G02*
X138043401Y-29412160I-249999J0D01*
G01*
X137343399Y-29412160D01*
G75*
G02*
X137093400Y-29162161I0J249999D01*
G01*
G37*
%TD.AperFunction*%
%TD*%
%TO.P,R11,2*%
%TO.N,Net-(C7-Pad1)*%
%TA.AperFunction,SMDPad,CuDef*%
G36*
G01*
X139093400Y-25484241D02*
X139093400Y-24584239D01*
G75*
G02*
X139343399Y-24334240I249999J0D01*
G01*
X140043401Y-24334240D01*
G75*
G02*
X140293400Y-24584239I0J-249999D01*
G01*
X140293400Y-25484241D01*
G75*
G02*
X140043401Y-25734240I-249999J0D01*
G01*
X139343399Y-25734240D01*
G75*
G02*
X139093400Y-25484241I0J249999D01*
G01*
G37*
%TD.AperFunction*%
%TO.P,R11,1*%
%TO.N,Net-(Q5-Pad2)*%
%TA.AperFunction,SMDPad,CuDef*%
G36*
G01*
X137093400Y-25484241D02*
X137093400Y-24584239D01*
G75*
G02*
X137343399Y-24334240I249999J0D01*
G01*
X138043401Y-24334240D01*
G75*
G02*
X138293400Y-24584239I0J-249999D01*
G01*
X138293400Y-25484241D01*
G75*
G02*
X138043401Y-25734240I-249999J0D01*
G01*
X137343399Y-25734240D01*
G75*
G02*
X137093400Y-25484241I0J249999D01*
G01*
G37*
%TD.AperFunction*%
%TD*%
%TO.P,R10,2*%
%TO.N,Net-(Q5-Pad2)*%
%TA.AperFunction,SMDPad,CuDef*%
G36*
G01*
X135324001Y-27302000D02*
X134423999Y-27302000D01*
G75*
G02*
X134174000Y-27052001I0J249999D01*
G01*
X134174000Y-26351999D01*
G75*
G02*
X134423999Y-26102000I249999J0D01*
G01*
X135324001Y-26102000D01*
G75*
G02*
X135574000Y-26351999I0J-249999D01*
G01*
X135574000Y-27052001D01*
G75*
G02*
X135324001Y-27302000I-249999J0D01*
G01*
G37*
%TD.AperFunction*%
%TO.P,R10,1*%
%TO.N,GND*%
%TA.AperFunction,SMDPad,CuDef*%
G36*
G01*
X135324001Y-29302000D02*
X134423999Y-29302000D01*
G75*
G02*
X134174000Y-29052001I0J249999D01*
G01*
X134174000Y-28351999D01*
G75*
G02*
X134423999Y-28102000I249999J0D01*
G01*
X135324001Y-28102000D01*
G75*
G02*
X135574000Y-28351999I0J-249999D01*
G01*
X135574000Y-29052001D01*
G75*
G02*
X135324001Y-29302000I-249999J0D01*
G01*
G37*
%TD.AperFunction*%
%TD*%
%TO.P,R9,2*%
%TO.N,VEE*%
%TA.AperFunction,SMDPad,CuDef*%
G36*
G01*
X155873500Y-56890499D02*
X155873500Y-57790501D01*
G75*
G02*
X155623501Y-58040500I-249999J0D01*
G01*
X154923499Y-58040500D01*
G75*
G02*
X154673500Y-57790501I0J249999D01*
G01*
X154673500Y-56890499D01*
G75*
G02*
X154923499Y-56640500I249999J0D01*
G01*
X155623501Y-56640500D01*
G75*
G02*
X155873500Y-56890499I0J-249999D01*
G01*
G37*
%TD.AperFunction*%
%TO.P,R9,1*%
%TO.N,GND*%
%TA.AperFunction,SMDPad,CuDef*%
G36*
G01*
X157873500Y-56890499D02*
X157873500Y-57790501D01*
G75*
G02*
X157623501Y-58040500I-249999J0D01*
G01*
X156923499Y-58040500D01*
G75*
G02*
X156673500Y-57790501I0J249999D01*
G01*
X156673500Y-56890499D01*
G75*
G02*
X156923499Y-56640500I249999J0D01*
G01*
X157623501Y-56640500D01*
G75*
G02*
X157873500Y-56890499I0J-249999D01*
G01*
G37*
%TD.AperFunction*%
%TD*%
%TO.P,R8,2*%
%TO.N,Net-(R6-Pad1)*%
%TA.AperFunction,SMDPad,CuDef*%
G36*
G01*
X150412500Y-56890499D02*
X150412500Y-57790501D01*
G75*
G02*
X150162501Y-58040500I-249999J0D01*
G01*
X149462499Y-58040500D01*
G75*
G02*
X149212500Y-57790501I0J249999D01*
G01*
X149212500Y-56890499D01*
G75*
G02*
X149462499Y-56640500I249999J0D01*
G01*
X150162501Y-56640500D01*
G75*
G02*
X150412500Y-56890499I0J-249999D01*
G01*
G37*
%TD.AperFunction*%
%TO.P,R8,1*%
%TO.N,VEE*%
%TA.AperFunction,SMDPad,CuDef*%
G36*
G01*
X152412500Y-56890499D02*
X152412500Y-57790501D01*
G75*
G02*
X152162501Y-58040500I-249999J0D01*
G01*
X151462499Y-58040500D01*
G75*
G02*
X151212500Y-57790501I0J249999D01*
G01*
X151212500Y-56890499D01*
G75*
G02*
X151462499Y-56640500I249999J0D01*
G01*
X152162501Y-56640500D01*
G75*
G02*
X152412500Y-56890499I0J-249999D01*
G01*
G37*
%TD.AperFunction*%
%TD*%
%TO.P,R7,2*%
%TO.N,+3V3*%
%TA.AperFunction,SMDPad,CuDef*%
G36*
G01*
X147568499Y-41357500D02*
X148468501Y-41357500D01*
G75*
G02*
X148718500Y-41607499I0J-249999D01*
G01*
X148718500Y-42307501D01*
G75*
G02*
X148468501Y-42557500I-249999J0D01*
G01*
X147568499Y-42557500D01*
G75*
G02*
X147318500Y-42307501I0J249999D01*
G01*
X147318500Y-41607499D01*
G75*
G02*
X147568499Y-41357500I249999J0D01*
G01*
G37*
%TD.AperFunction*%
%TO.P,R7,1*%
%TO.N,VDD*%
%TA.AperFunction,SMDPad,CuDef*%
G36*
G01*
X147568499Y-39357500D02*
X148468501Y-39357500D01*
G75*
G02*
X148718500Y-39607499I0J-249999D01*
G01*
X148718500Y-40307501D01*
G75*
G02*
X148468501Y-40557500I-249999J0D01*
G01*
X147568499Y-40557500D01*
G75*
G02*
X147318500Y-40307501I0J249999D01*
G01*
X147318500Y-39607499D01*
G75*
G02*
X147568499Y-39357500I249999J0D01*
G01*
G37*
%TD.AperFunction*%
%TD*%
%TO.P,R6,2*%
%TO.N,-3V3*%
%TA.AperFunction,SMDPad,CuDef*%
G36*
G01*
X145697500Y-56763499D02*
X145697500Y-57663501D01*
G75*
G02*
X145447501Y-57913500I-249999J0D01*
G01*
X144747499Y-57913500D01*
G75*
G02*
X144497500Y-57663501I0J249999D01*
G01*
X144497500Y-56763499D01*
G75*
G02*
X144747499Y-56513500I249999J0D01*
G01*
X145447501Y-56513500D01*
G75*
G02*
X145697500Y-56763499I0J-249999D01*
G01*
G37*
%TD.AperFunction*%
%TO.P,R6,1*%
%TO.N,Net-(R6-Pad1)*%
%TA.AperFunction,SMDPad,CuDef*%
G36*
G01*
X147697500Y-56763499D02*
X147697500Y-57663501D01*
G75*
G02*
X147447501Y-57913500I-249999J0D01*
G01*
X146747499Y-57913500D01*
G75*
G02*
X146497500Y-57663501I0J249999D01*
G01*
X146497500Y-56763499D01*
G75*
G02*
X146747499Y-56513500I249999J0D01*
G01*
X147447501Y-56513500D01*
G75*
G02*
X147697500Y-56763499I0J-249999D01*
G01*
G37*
%TD.AperFunction*%
%TD*%
%TO.P,R5,2*%
%TO.N,-3V3*%
%TA.AperFunction,SMDPad,CuDef*%
G36*
G01*
X122780500Y-62235501D02*
X122780500Y-61335499D01*
G75*
G02*
X123030499Y-61085500I249999J0D01*
G01*
X123730501Y-61085500D01*
G75*
G02*
X123980500Y-61335499I0J-249999D01*
G01*
X123980500Y-62235501D01*
G75*
G02*
X123730501Y-62485500I-249999J0D01*
G01*
X123030499Y-62485500D01*
G75*
G02*
X122780500Y-62235501I0J249999D01*
G01*
G37*
%TD.AperFunction*%
%TO.P,R5,1*%
%TO.N,Net-(C2-Pad2)*%
%TA.AperFunction,SMDPad,CuDef*%
G36*
G01*
X120780500Y-62235501D02*
X120780500Y-61335499D01*
G75*
G02*
X121030499Y-61085500I249999J0D01*
G01*
X121730501Y-61085500D01*
G75*
G02*
X121980500Y-61335499I0J-249999D01*
G01*
X121980500Y-62235501D01*
G75*
G02*
X121730501Y-62485500I-249999J0D01*
G01*
X121030499Y-62485500D01*
G75*
G02*
X120780500Y-62235501I0J249999D01*
G01*
G37*
%TD.AperFunction*%
%TD*%
%TO.P,R4,2*%
%TO.N,Net-(C1-Pad1)*%
%TA.AperFunction,SMDPad,CuDef*%
G36*
G01*
X121837500Y-50159499D02*
X121837500Y-51059501D01*
G75*
G02*
X121587501Y-51309500I-249999J0D01*
G01*
X120887499Y-51309500D01*
G75*
G02*
X120637500Y-51059501I0J249999D01*
G01*
X120637500Y-50159499D01*
G75*
G02*
X120887499Y-49909500I249999J0D01*
G01*
X121587501Y-49909500D01*
G75*
G02*
X121837500Y-50159499I0J-249999D01*
G01*
G37*
%TD.AperFunction*%
%TO.P,R4,1*%
%TO.N,+3V3*%
%TA.AperFunction,SMDPad,CuDef*%
G36*
G01*
X123837500Y-50159499D02*
X123837500Y-51059501D01*
G75*
G02*
X123587501Y-51309500I-249999J0D01*
G01*
X122887499Y-51309500D01*
G75*
G02*
X122637500Y-51059501I0J249999D01*
G01*
X122637500Y-50159499D01*
G75*
G02*
X122887499Y-49909500I249999J0D01*
G01*
X123587501Y-49909500D01*
G75*
G02*
X123837500Y-50159499I0J-249999D01*
G01*
G37*
%TD.AperFunction*%
%TD*%
%TO.P,R3,2*%
%TO.N,Net-(C2-Pad2)*%
%TA.AperFunction,SMDPad,CuDef*%
G36*
G01*
X118192500Y-62235501D02*
X118192500Y-61335499D01*
G75*
G02*
X118442499Y-61085500I249999J0D01*
G01*
X119142501Y-61085500D01*
G75*
G02*
X119392500Y-61335499I0J-249999D01*
G01*
X119392500Y-62235501D01*
G75*
G02*
X119142501Y-62485500I-249999J0D01*
G01*
X118442499Y-62485500D01*
G75*
G02*
X118192500Y-62235501I0J249999D01*
G01*
G37*
%TD.AperFunction*%
%TO.P,R3,1*%
%TO.N,GND*%
%TA.AperFunction,SMDPad,CuDef*%
G36*
G01*
X116192500Y-62235501D02*
X116192500Y-61335499D01*
G75*
G02*
X116442499Y-61085500I249999J0D01*
G01*
X117142501Y-61085500D01*
G75*
G02*
X117392500Y-61335499I0J-249999D01*
G01*
X117392500Y-62235501D01*
G75*
G02*
X117142501Y-62485500I-249999J0D01*
G01*
X116442499Y-62485500D01*
G75*
G02*
X116192500Y-62235501I0J249999D01*
G01*
G37*
%TD.AperFunction*%
%TD*%
%TO.P,R2,2*%
%TO.N,GND*%
%TA.AperFunction,SMDPad,CuDef*%
G36*
G01*
X116757500Y-50143499D02*
X116757500Y-51043501D01*
G75*
G02*
X116507501Y-51293500I-249999J0D01*
G01*
X115807499Y-51293500D01*
G75*
G02*
X115557500Y-51043501I0J249999D01*
G01*
X115557500Y-50143499D01*
G75*
G02*
X115807499Y-49893500I249999J0D01*
G01*
X116507501Y-49893500D01*
G75*
G02*
X116757500Y-50143499I0J-249999D01*
G01*
G37*
%TD.AperFunction*%
%TO.P,R2,1*%
%TO.N,Net-(C1-Pad1)*%
%TA.AperFunction,SMDPad,CuDef*%
G36*
G01*
X118757500Y-50143499D02*
X118757500Y-51043501D01*
G75*
G02*
X118507501Y-51293500I-249999J0D01*
G01*
X117807499Y-51293500D01*
G75*
G02*
X117557500Y-51043501I0J249999D01*
G01*
X117557500Y-50143499D01*
G75*
G02*
X117807499Y-49893500I249999J0D01*
G01*
X118507501Y-49893500D01*
G75*
G02*
X118757500Y-50143499I0J-249999D01*
G01*
G37*
%TD.AperFunction*%
%TD*%
%TO.P,R1,2*%
%TO.N,Net-(J1-Pad1)*%
%TA.AperFunction,SMDPad,CuDef*%
G36*
G01*
X114725500Y-28442499D02*
X114725500Y-29342501D01*
G75*
G02*
X114475501Y-29592500I-249999J0D01*
G01*
X113775499Y-29592500D01*
G75*
G02*
X113525500Y-29342501I0J249999D01*
G01*
X113525500Y-28442499D01*
G75*
G02*
X113775499Y-28192500I249999J0D01*
G01*
X114475501Y-28192500D01*
G75*
G02*
X114725500Y-28442499I0J-249999D01*
G01*
G37*
%TD.AperFunction*%
%TO.P,R1,1*%
%TO.N,Net-(Q1-Pad1)*%
%TA.AperFunction,SMDPad,CuDef*%
G36*
G01*
X116725500Y-28442499D02*
X116725500Y-29342501D01*
G75*
G02*
X116475501Y-29592500I-249999J0D01*
G01*
X115775499Y-29592500D01*
G75*
G02*
X115525500Y-29342501I0J249999D01*
G01*
X115525500Y-28442499D01*
G75*
G02*
X115775499Y-28192500I249999J0D01*
G01*
X116475501Y-28192500D01*
G75*
G02*
X116725500Y-28442499I0J-249999D01*
G01*
G37*
%TD.AperFunction*%
%TD*%
D20*
%TO.P,Q7,3*%
%TO.N,Net-(Q7-Pad3)*%
X145177000Y-16528500D03*
%TO.P,Q7,2*%
%TO.N,Net-(Q7-Pad2)*%
X146127000Y-18528500D03*
%TO.P,Q7,1*%
%TO.N,Net-(C7-Pad1)*%
X144227000Y-18528500D03*
%TD*%
D21*
%TO.P,Q6,3*%
%TO.N,Net-(Q5-Pad1)*%
X134985000Y-20637500D03*
%TO.P,Q6,2*%
%TO.N,GND*%
X132985000Y-21587500D03*
%TO.P,Q6,1*%
%TO.N,Net-(Q5-Pad1)*%
X132985000Y-19687500D03*
%TD*%
%TO.P,Q5,3*%
%TO.N,Net-(Q5-Pad1)*%
X138858500Y-20637500D03*
%TO.P,Q5,2*%
%TO.N,Net-(Q5-Pad2)*%
X136858500Y-21587500D03*
%TO.P,Q5,1*%
%TO.N,Net-(Q5-Pad1)*%
X136858500Y-19687500D03*
%TD*%
%TO.P,Q4,3*%
%TO.N,Net-(Q2-Pad1)*%
X124550680Y-34925000D03*
%TO.P,Q4,2*%
%TO.N,VEE*%
X122550680Y-35875000D03*
%TO.P,Q4,1*%
%TO.N,Net-(Q2-Pad1)*%
X122550680Y-33975000D03*
%TD*%
%TO.P,Q3,3*%
%TO.N,Net-(Q3-Pad3)*%
X124550680Y-29667200D03*
%TO.P,Q3,2*%
%TO.N,Net-(Q2-Pad1)*%
X122550680Y-30617200D03*
%TO.P,Q3,1*%
%TO.N,Net-(Q1-Pad1)*%
X122550680Y-28717200D03*
%TD*%
%TO.P,Q2,3*%
%TO.N,Net-(Q1-Pad2)*%
X120151400Y-34891980D03*
%TO.P,Q2,2*%
%TO.N,VEE*%
X118151400Y-35841980D03*
%TO.P,Q2,1*%
%TO.N,Net-(Q2-Pad1)*%
X118151400Y-33941980D03*
%TD*%
%TO.P,Q1,3*%
%TO.N,Net-(Q1-Pad1)*%
X120151400Y-29667200D03*
%TO.P,Q1,2*%
%TO.N,Net-(Q1-Pad2)*%
X118151400Y-30617200D03*
%TO.P,Q1,1*%
%TO.N,Net-(Q1-Pad1)*%
X118151400Y-28717200D03*
%TD*%
D22*
%TO.P,J2,3*%
%TO.N,Net-(D2-Pad2)*%
X109156500Y-58102500D03*
%TO.P,J2,2*%
%TO.N,GND*%
X109156500Y-53102500D03*
D23*
%TO.P,J2,1*%
%TO.N,Net-(D1-Pad1)*%
X109156500Y-48102500D03*
%TD*%
D24*
%TO.P,J1,2*%
%TO.N,Net-(J1-Pad1)*%
X111696500Y-34560500D03*
D25*
%TO.P,J1,1*%
X111696500Y-39560500D03*
%TD*%
D26*
%TO.P,D4,2*%
%TO.N,-3V3*%
X132270500Y-66357500D03*
D27*
%TO.P,D4,1*%
%TO.N,GND*%
X122110500Y-66357500D03*
%TD*%
D26*
%TO.P,D3,2*%
%TO.N,GND*%
X122999500Y-39687500D03*
D27*
%TO.P,D3,1*%
%TO.N,+3V3*%
X133159500Y-39687500D03*
%TD*%
D26*
%TO.P,D2,2*%
%TO.N,Net-(D2-Pad2)*%
X137350500Y-56197500D03*
D27*
%TO.P,D2,1*%
%TO.N,-3V3*%
X137350500Y-66357500D03*
%TD*%
D26*
%TO.P,D1,2*%
%TO.N,+3V3*%
X138239500Y-39687500D03*
D27*
%TO.P,D1,1*%
%TO.N,Net-(D1-Pad1)*%
X138239500Y-49847500D03*
%TD*%
%TO.P,C7,2*%
%TO.N,Net-(C7-Pad2)*%
%TA.AperFunction,SMDPad,CuDef*%
G36*
G01*
X146061000Y-21249003D02*
X146061000Y-19948997D01*
G75*
G02*
X146310997Y-19699000I249997J0D01*
G01*
X147136003Y-19699000D01*
G75*
G02*
X147386000Y-19948997I0J-249997D01*
G01*
X147386000Y-21249003D01*
G75*
G02*
X147136003Y-21499000I-249997J0D01*
G01*
X146310997Y-21499000D01*
G75*
G02*
X146061000Y-21249003I0J249997D01*
G01*
G37*
%TD.AperFunction*%
%TO.P,C7,1*%
%TO.N,Net-(C7-Pad1)*%
%TA.AperFunction,SMDPad,CuDef*%
G36*
G01*
X142936000Y-21249003D02*
X142936000Y-19948997D01*
G75*
G02*
X143185997Y-19699000I249997J0D01*
G01*
X144011003Y-19699000D01*
G75*
G02*
X144261000Y-19948997I0J-249997D01*
G01*
X144261000Y-21249003D01*
G75*
G02*
X144011003Y-21499000I-249997J0D01*
G01*
X143185997Y-21499000D01*
G75*
G02*
X142936000Y-21249003I0J249997D01*
G01*
G37*
%TD.AperFunction*%
%TD*%
%TO.P,C6,2*%
%TO.N,VEE*%
%TA.AperFunction,SMDPad,CuDef*%
G36*
G01*
X154791500Y-63203500D02*
X153691500Y-63203500D01*
G75*
G02*
X153441500Y-62953500I0J250000D01*
G01*
X153441500Y-60453500D01*
G75*
G02*
X153691500Y-60203500I250000J0D01*
G01*
X154791500Y-60203500D01*
G75*
G02*
X155041500Y-60453500I0J-250000D01*
G01*
X155041500Y-62953500D01*
G75*
G02*
X154791500Y-63203500I-250000J0D01*
G01*
G37*
%TD.AperFunction*%
%TO.P,C6,1*%
%TO.N,GND*%
%TA.AperFunction,SMDPad,CuDef*%
G36*
G01*
X154791500Y-67603500D02*
X153691500Y-67603500D01*
G75*
G02*
X153441500Y-67353500I0J250000D01*
G01*
X153441500Y-64853500D01*
G75*
G02*
X153691500Y-64603500I250000J0D01*
G01*
X154791500Y-64603500D01*
G75*
G02*
X155041500Y-64853500I0J-250000D01*
G01*
X155041500Y-67353500D01*
G75*
G02*
X154791500Y-67603500I-250000J0D01*
G01*
G37*
%TD.AperFunction*%
%TD*%
%TO.P,C5,2*%
%TO.N,GND*%
%TA.AperFunction,SMDPad,CuDef*%
G36*
G01*
X151532500Y-48937500D02*
X152632500Y-48937500D01*
G75*
G02*
X152882500Y-49187500I0J-250000D01*
G01*
X152882500Y-51687500D01*
G75*
G02*
X152632500Y-51937500I-250000J0D01*
G01*
X151532500Y-51937500D01*
G75*
G02*
X151282500Y-51687500I0J250000D01*
G01*
X151282500Y-49187500D01*
G75*
G02*
X151532500Y-48937500I250000J0D01*
G01*
G37*
%TD.AperFunction*%
%TO.P,C5,1*%
%TO.N,VDD*%
%TA.AperFunction,SMDPad,CuDef*%
G36*
G01*
X151532500Y-44537500D02*
X152632500Y-44537500D01*
G75*
G02*
X152882500Y-44787500I0J-250000D01*
G01*
X152882500Y-47287500D01*
G75*
G02*
X152632500Y-47537500I-250000J0D01*
G01*
X151532500Y-47537500D01*
G75*
G02*
X151282500Y-47287500I0J250000D01*
G01*
X151282500Y-44787500D01*
G75*
G02*
X151532500Y-44537500I250000J0D01*
G01*
G37*
%TD.AperFunction*%
%TD*%
%TO.P,C4,2*%
%TO.N,-3V3*%
%TA.AperFunction,SMDPad,CuDef*%
G36*
G01*
X145901500Y-62990500D02*
X144801500Y-62990500D01*
G75*
G02*
X144551500Y-62740500I0J250000D01*
G01*
X144551500Y-60240500D01*
G75*
G02*
X144801500Y-59990500I250000J0D01*
G01*
X145901500Y-59990500D01*
G75*
G02*
X146151500Y-60240500I0J-250000D01*
G01*
X146151500Y-62740500D01*
G75*
G02*
X145901500Y-62990500I-250000J0D01*
G01*
G37*
%TD.AperFunction*%
%TO.P,C4,1*%
%TO.N,GND*%
%TA.AperFunction,SMDPad,CuDef*%
G36*
G01*
X145901500Y-67390500D02*
X144801500Y-67390500D01*
G75*
G02*
X144551500Y-67140500I0J250000D01*
G01*
X144551500Y-64640500D01*
G75*
G02*
X144801500Y-64390500I250000J0D01*
G01*
X145901500Y-64390500D01*
G75*
G02*
X146151500Y-64640500I0J-250000D01*
G01*
X146151500Y-67140500D01*
G75*
G02*
X145901500Y-67390500I-250000J0D01*
G01*
G37*
%TD.AperFunction*%
%TD*%
%TO.P,C3,2*%
%TO.N,GND*%
%TA.AperFunction,SMDPad,CuDef*%
G36*
G01*
X143023500Y-48855500D02*
X144123500Y-48855500D01*
G75*
G02*
X144373500Y-49105500I0J-250000D01*
G01*
X144373500Y-51605500D01*
G75*
G02*
X144123500Y-51855500I-250000J0D01*
G01*
X143023500Y-51855500D01*
G75*
G02*
X142773500Y-51605500I0J250000D01*
G01*
X142773500Y-49105500D01*
G75*
G02*
X143023500Y-48855500I250000J0D01*
G01*
G37*
%TD.AperFunction*%
%TO.P,C3,1*%
%TO.N,+3V3*%
%TA.AperFunction,SMDPad,CuDef*%
G36*
G01*
X143023500Y-44455500D02*
X144123500Y-44455500D01*
G75*
G02*
X144373500Y-44705500I0J-250000D01*
G01*
X144373500Y-47205500D01*
G75*
G02*
X144123500Y-47455500I-250000J0D01*
G01*
X143023500Y-47455500D01*
G75*
G02*
X142773500Y-47205500I0J250000D01*
G01*
X142773500Y-44705500D01*
G75*
G02*
X143023500Y-44455500I250000J0D01*
G01*
G37*
%TD.AperFunction*%
%TD*%
%TO.P,C2,2*%
%TO.N,Net-(C2-Pad2)*%
%TA.AperFunction,SMDPad,CuDef*%
G36*
G01*
X120864500Y-57001500D02*
X120864500Y-55901500D01*
G75*
G02*
X121114500Y-55651500I250000J0D01*
G01*
X123614500Y-55651500D01*
G75*
G02*
X123864500Y-55901500I0J-250000D01*
G01*
X123864500Y-57001500D01*
G75*
G02*
X123614500Y-57251500I-250000J0D01*
G01*
X121114500Y-57251500D01*
G75*
G02*
X120864500Y-57001500I0J250000D01*
G01*
G37*
%TD.AperFunction*%
%TO.P,C2,1*%
%TO.N,GND*%
%TA.AperFunction,SMDPad,CuDef*%
G36*
G01*
X116464500Y-57001500D02*
X116464500Y-55901500D01*
G75*
G02*
X116714500Y-55651500I250000J0D01*
G01*
X119214500Y-55651500D01*
G75*
G02*
X119464500Y-55901500I0J-250000D01*
G01*
X119464500Y-57001500D01*
G75*
G02*
X119214500Y-57251500I-250000J0D01*
G01*
X116714500Y-57251500D01*
G75*
G02*
X116464500Y-57001500I0J250000D01*
G01*
G37*
%TD.AperFunction*%
%TD*%
%TO.P,C1,2*%
%TO.N,GND*%
%TA.AperFunction,SMDPad,CuDef*%
G36*
G01*
X119505500Y-44217500D02*
X119505500Y-45317500D01*
G75*
G02*
X119255500Y-45567500I-250000J0D01*
G01*
X116755500Y-45567500D01*
G75*
G02*
X116505500Y-45317500I0J250000D01*
G01*
X116505500Y-44217500D01*
G75*
G02*
X116755500Y-43967500I250000J0D01*
G01*
X119255500Y-43967500D01*
G75*
G02*
X119505500Y-44217500I0J-250000D01*
G01*
G37*
%TD.AperFunction*%
%TO.P,C1,1*%
%TO.N,Net-(C1-Pad1)*%
%TA.AperFunction,SMDPad,CuDef*%
G36*
G01*
X123905500Y-44217500D02*
X123905500Y-45317500D01*
G75*
G02*
X123655500Y-45567500I-250000J0D01*
G01*
X121155500Y-45567500D01*
G75*
G02*
X120905500Y-45317500I0J250000D01*
G01*
X120905500Y-44217500D01*
G75*
G02*
X121155500Y-43967500I250000J0D01*
G01*
X123655500Y-43967500D01*
G75*
G02*
X123905500Y-44217500I0J-250000D01*
G01*
G37*
%TD.AperFunction*%
%TD*%
D28*
%TO.N,GND*%
X118491000Y-56324500D03*
X117284500Y-56324500D03*
X150876000Y-27305000D03*
X148209000Y-30289500D03*
X152146000Y-49657000D03*
X143510000Y-49403000D03*
X157353000Y-57213500D03*
X116840000Y-61785500D03*
X145288000Y-66611500D03*
X145415000Y-65151000D03*
X154368500Y-66675000D03*
X154368500Y-65468500D03*
X134874000Y-28702000D03*
X137604500Y-28765500D03*
X143192500Y-34099500D03*
X151066500Y-18859500D03*
X132905500Y-21653500D03*
X118173500Y-44767500D03*
X116141500Y-50673000D03*
X143573500Y-50546000D03*
X152146000Y-50673000D03*
X152209500Y-43434000D03*
X153797000Y-39814500D03*
X157734000Y-67437000D03*
X160083500Y-67500500D03*
%TO.N,+3V3*%
X169481500Y-53657500D03*
X160337500Y-39941500D03*
X168783000Y-43815000D03*
X168719500Y-38735000D03*
X168084500Y-56070500D03*
X160401000Y-43878500D03*
X168783000Y-42545000D03*
X143573500Y-46609000D03*
X142748000Y-32829500D03*
X143573500Y-45275500D03*
X144780000Y-23241000D03*
%TO.N,-3V3*%
X144843500Y-29527500D03*
X145224500Y-35496500D03*
%TO.N,VDD*%
X147701000Y-32893000D03*
%TO.N,VEE*%
X135953500Y-42608500D03*
X136620250Y-43275250D03*
X137160000Y-43815000D03*
%TO.N,Net-(C7-Pad1)*%
X142240000Y-24765000D03*
X139954000Y-24701500D03*
X143637000Y-20637500D03*
%TO.N,Net-(D1-Pad1)*%
X136398000Y-49847500D03*
X134493000Y-49847500D03*
X133223000Y-49847500D03*
X131826000Y-49847500D03*
X130619500Y-49847500D03*
X128968500Y-49847500D03*
X127100550Y-49619950D03*
%TO.N,Net-(D2-Pad2)*%
X133032500Y-59753500D03*
X132715000Y-57277000D03*
X126580500Y-58483500D03*
X128143000Y-58483500D03*
X129476500Y-58483500D03*
X130873500Y-58483500D03*
X131699000Y-58483500D03*
X132924750Y-58439250D03*
%TO.N,Net-(Q2-Pad1)*%
X118173500Y-33909000D03*
X122550680Y-33975000D03*
%TO.N,Net-(Q7-Pad3)*%
X145224500Y-16446500D03*
%TO.N,Net-(R12-Pad2)*%
X142240000Y-26543000D03*
X139955780Y-28449780D03*
%TO.N,Net-(R15-Pad2)*%
X168783000Y-41275000D03*
X160422250Y-38015250D03*
%TO.N,Net-(R16-Pad2)*%
X150622000Y-29908500D03*
X150622000Y-32448500D03*
X142751000Y-31559500D03*
%TD*%
D29*
%TO.N,*%
X143510000Y-29083000D02*
X143510000Y-22352000D01*
X143510000Y-22205500D02*
X143510000Y-23180500D01*
X143510000Y-28130500D02*
X143510000Y-29273500D01*
X143446500Y-29527500D02*
X141414500Y-29527500D01*
X140970000Y-29083000D02*
X140970000Y-22352000D01*
X140970000Y-22352000D02*
X141441510Y-21880490D01*
X141441510Y-21880490D02*
X143184990Y-21880490D01*
X143184990Y-21880490D02*
X143510000Y-22205500D01*
X141414500Y-29527500D02*
X140970000Y-29083000D01*
X143510000Y-29273500D02*
X143446500Y-29337000D01*
X143446500Y-29337000D02*
X143446500Y-29527500D01*
%TO.N,GND*%
X160020000Y-67437000D02*
X160083500Y-67500500D01*
X157734000Y-67437000D02*
X160020000Y-67437000D01*
D30*
%TO.N,Net-(C1-Pad1)*%
X121221500Y-50593500D02*
X121237500Y-50609500D01*
X118157500Y-50593500D02*
X121221500Y-50593500D01*
X126835340Y-44767500D02*
X126841720Y-44761120D01*
X122405500Y-44767500D02*
X126835340Y-44767500D01*
X121237500Y-45935500D02*
X122405500Y-44767500D01*
X121237500Y-50609500D02*
X121237500Y-45935500D01*
%TO.N,Net-(C2-Pad2)*%
X121380500Y-61785500D02*
X118792500Y-61785500D01*
X121380500Y-57435500D02*
X122364500Y-56451500D01*
X121380500Y-61785500D02*
X121380500Y-57435500D01*
X126312500Y-56451500D02*
X126580500Y-56183500D01*
X122364500Y-56451500D02*
X126312500Y-56451500D01*
%TO.N,+3V3*%
X147571500Y-41957500D02*
X148018500Y-41957500D01*
X143573500Y-45955500D02*
X147571500Y-41957500D01*
X143573500Y-41719500D02*
X141795500Y-39941500D01*
X143573500Y-45955500D02*
X143573500Y-45275500D01*
X126841720Y-47061120D02*
X133141720Y-47061120D01*
X133159500Y-47043340D02*
X133141720Y-47061120D01*
X133159500Y-39687500D02*
X133159500Y-47043340D01*
X133159500Y-39687500D02*
X138239500Y-39687500D01*
X141541500Y-39687500D02*
X141795500Y-39941500D01*
X138239500Y-39687500D02*
X141541500Y-39687500D01*
X125341720Y-47061120D02*
X123237500Y-49165340D01*
X123237500Y-49165340D02*
X123237500Y-50609500D01*
X126841720Y-47061120D02*
X125341720Y-47061120D01*
X138239500Y-36772315D02*
X138239500Y-39687500D01*
X142748000Y-32829500D02*
X142182315Y-32829500D01*
X143573500Y-45275500D02*
X143573500Y-41719500D01*
X143573500Y-46609000D02*
X150304500Y-53340000D01*
X142748000Y-32829500D02*
X141351000Y-32829500D01*
X138239500Y-35941000D02*
X138239500Y-36772315D01*
X141351000Y-32829500D02*
X138239500Y-35941000D01*
X169633001Y-42964999D02*
X168783000Y-43815000D01*
X168719500Y-38735000D02*
X169633001Y-39648501D01*
X168783000Y-42545000D02*
X169481500Y-42545000D01*
X169481500Y-42545000D02*
X169633001Y-42393499D01*
X169633001Y-42393499D02*
X169633001Y-42964999D01*
X169633001Y-39648501D02*
X169633001Y-42393499D01*
X168719500Y-43878500D02*
X168783000Y-43815000D01*
X160401000Y-43878500D02*
X168719500Y-43878500D01*
X160337500Y-43815000D02*
X160401000Y-43878500D01*
X160337500Y-39941500D02*
X160337500Y-43815000D01*
X162115500Y-53245000D02*
X158019500Y-53245000D01*
X158019500Y-53245000D02*
X157924500Y-53340000D01*
X157924500Y-53340000D02*
X158178500Y-53340000D01*
X150304500Y-53340000D02*
X157924500Y-53340000D01*
X165259000Y-53245000D02*
X168084500Y-56070500D01*
X162115500Y-53245000D02*
X165259000Y-53245000D01*
X169069000Y-53245000D02*
X169481500Y-53657500D01*
X165259000Y-53245000D02*
X169069000Y-53245000D01*
X157924500Y-46355000D02*
X160401000Y-43878500D01*
X157924500Y-53340000D02*
X157924500Y-46355000D01*
%TO.N,-3V3*%
X125578500Y-61785500D02*
X126580500Y-60783500D01*
X123380500Y-61785500D02*
X125578500Y-61785500D01*
X126696500Y-60783500D02*
X132270500Y-66357500D01*
X126580500Y-60783500D02*
X126696500Y-60783500D01*
X132270500Y-66357500D02*
X137350500Y-66357500D01*
X142217500Y-61490500D02*
X137350500Y-66357500D01*
X145351500Y-61490500D02*
X142217500Y-61490500D01*
X145097500Y-61236500D02*
X145351500Y-61490500D01*
X145097500Y-57213500D02*
X145097500Y-61236500D01*
X142176500Y-57213500D02*
X141414500Y-56451500D01*
X145097500Y-57213500D02*
X142176500Y-57213500D01*
X144780000Y-28130500D02*
X144780000Y-29527500D01*
X145224500Y-29908500D02*
X144843500Y-29527500D01*
X145224500Y-35496500D02*
X145224500Y-29908500D01*
%TO.N,VDD*%
X145240500Y-39957500D02*
X145224500Y-39941500D01*
X148018500Y-39957500D02*
X145240500Y-39957500D01*
X151017500Y-39957500D02*
X151086500Y-39888500D01*
X148018500Y-39957500D02*
X151017500Y-39957500D01*
X150886499Y-44841499D02*
X150632499Y-44841499D01*
X152082500Y-46037500D02*
X150886499Y-44841499D01*
X150632499Y-40342501D02*
X151086500Y-39888500D01*
X150632499Y-44841499D02*
X150632499Y-40342501D01*
X148318044Y-32893000D02*
X149923500Y-34498456D01*
X147701000Y-32893000D02*
X148318044Y-32893000D01*
X149923500Y-38725500D02*
X151086500Y-39888500D01*
X149923500Y-34498456D02*
X149923500Y-38725500D01*
D29*
%TO.N,VEE*%
X122517660Y-35841980D02*
X122550680Y-35875000D01*
X118151400Y-35841980D02*
X122517660Y-35841980D01*
X127569000Y-35875000D02*
X127635000Y-35941000D01*
X122550680Y-35875000D02*
X127569000Y-35875000D01*
D30*
X154241500Y-58372500D02*
X155273500Y-57340500D01*
X154241500Y-61703500D02*
X154241500Y-58372500D01*
X153209500Y-57340500D02*
X154241500Y-58372500D01*
X151812500Y-57340500D02*
X153209500Y-57340500D01*
X151812500Y-57340500D02*
X151812500Y-56054500D01*
X151812500Y-56054500D02*
X150558500Y-54800500D01*
X150558500Y-54800500D02*
X143256000Y-54800500D01*
X143256000Y-54800500D02*
X141224000Y-52768500D01*
X141224000Y-52768500D02*
X141033500Y-52578000D01*
X141033500Y-52578000D02*
X141033500Y-47688500D01*
X141033500Y-47688500D02*
X137160000Y-43815000D01*
X135953500Y-42608500D02*
X135890000Y-42545000D01*
D29*
%TO.N,Net-(C7-Pad2)*%
X146723500Y-20599000D02*
X146470610Y-20851890D01*
X148463000Y-22338500D02*
X146723500Y-20599000D01*
X148463000Y-25463500D02*
X148463000Y-22338500D01*
X148463000Y-25717500D02*
X146050000Y-28130500D01*
X148463000Y-25463500D02*
X148463000Y-25717500D01*
%TO.N,Net-(C7-Pad1)*%
X142163000Y-18528500D02*
X141859000Y-18224500D01*
X144227000Y-18528500D02*
X142163000Y-18528500D01*
X144120630Y-21121130D02*
X143637000Y-20637500D01*
X144227000Y-19970500D02*
X143598500Y-20599000D01*
X144227000Y-18528500D02*
X144227000Y-19970500D01*
X139693400Y-25034240D02*
X139748260Y-25034240D01*
X143637000Y-20637500D02*
X143598500Y-20599000D01*
X142240000Y-24765000D02*
X142240000Y-23180500D01*
D30*
%TO.N,Net-(D1-Pad1)*%
X138239500Y-49847500D02*
X136398000Y-49847500D01*
X136398000Y-49847500D02*
X134493000Y-49847500D01*
X134493000Y-49847500D02*
X133223000Y-49847500D01*
X133223000Y-49847500D02*
X131826000Y-49847500D01*
X131826000Y-49847500D02*
X130619500Y-49847500D01*
X130619500Y-49847500D02*
X128968500Y-49847500D01*
X127100550Y-49619950D02*
X126841720Y-49361120D01*
%TO.N,Net-(D2-Pad2)*%
X126840502Y-58483500D02*
X128143000Y-58483500D01*
X126580500Y-58483500D02*
X126580500Y-58483500D01*
X126580500Y-58483500D02*
X126840502Y-58483500D01*
X128143000Y-58483500D02*
X129476500Y-58483500D01*
X129476500Y-58483500D02*
X130873500Y-58483500D01*
X130873500Y-58483500D02*
X131699000Y-58483500D01*
X131699000Y-58483500D02*
X132880500Y-58483500D01*
X132924750Y-58439250D02*
X132880500Y-58483500D01*
D29*
%TO.N,Net-(J1-Pad1)*%
X111696500Y-39560500D02*
X111696500Y-34560500D01*
X111696500Y-31321500D02*
X114125500Y-28892500D01*
X111696500Y-34560500D02*
X111696500Y-31321500D01*
%TO.N,Net-(J3-Pad1)*%
X129286000Y-24765500D02*
X125159000Y-24765500D01*
X121856500Y-21463000D02*
X117729000Y-21463000D01*
X125159000Y-24765500D02*
X121856500Y-21463000D01*
%TO.N,Net-(Q1-Pad1)*%
X117976100Y-28892500D02*
X118151400Y-28717200D01*
X116125500Y-28892500D02*
X117976100Y-28892500D01*
X121600680Y-29667200D02*
X122550680Y-28717200D01*
X120151400Y-29667200D02*
X121600680Y-29667200D01*
X119201400Y-28717200D02*
X120151400Y-29667200D01*
X118151400Y-28717200D02*
X119201400Y-28717200D01*
%TO.N,Net-(Q1-Pad2)*%
X120151400Y-32617200D02*
X120151400Y-34891980D01*
X118151400Y-30617200D02*
X120151400Y-32617200D01*
%TO.N,Net-(Q2-Pad1)*%
X122550680Y-30617200D02*
X122550680Y-33975000D01*
X122550680Y-33975000D02*
X122550680Y-33975000D01*
X123500680Y-34925000D02*
X122550680Y-33975000D01*
X124550680Y-34925000D02*
X123500680Y-34925000D01*
%TO.N,Net-(Q3-Pad3)*%
X125452380Y-28765500D02*
X129286000Y-28765500D01*
X124550680Y-29667200D02*
X125452380Y-28765500D01*
%TO.N,Net-(Q5-Pad1)*%
X137808500Y-20637500D02*
X136858500Y-19687500D01*
X138858500Y-20637500D02*
X137808500Y-20637500D01*
X135935000Y-19687500D02*
X134985000Y-20637500D01*
X136858500Y-19687500D02*
X135935000Y-19687500D01*
X134035000Y-19687500D02*
X134985000Y-20637500D01*
X132985000Y-19687500D02*
X134035000Y-19687500D01*
%TO.N,Net-(Q5-Pad2)*%
X134810500Y-26765500D02*
X134874000Y-26702000D01*
X129286000Y-26765500D02*
X134810500Y-26765500D01*
X136025640Y-26702000D02*
X137693400Y-25034240D01*
X134874000Y-26702000D02*
X136025640Y-26702000D01*
X136858500Y-24199340D02*
X137693400Y-25034240D01*
X136858500Y-21587500D02*
X136858500Y-24199340D01*
%TO.N,Net-(Q7-Pad2)*%
X148926000Y-18528500D02*
X149003000Y-18605500D01*
X146127000Y-18528500D02*
X148926000Y-18528500D01*
D30*
%TO.N,Net-(R6-Pad1)*%
X149685500Y-57213500D02*
X149812500Y-57340500D01*
X147097500Y-57213500D02*
X149685500Y-57213500D01*
D29*
%TO.N,Net-(R12-Pad2)*%
X139955780Y-28449780D02*
X139693400Y-28712160D01*
X142240000Y-26543000D02*
X142240000Y-28130500D01*
%TO.N,Net-(R13-Pad2)*%
X152765000Y-29797500D02*
X152717500Y-29845000D01*
X151003000Y-31559500D02*
X152717500Y-29845000D01*
X147701000Y-31559500D02*
X151003000Y-31559500D01*
X150463000Y-24860500D02*
X152844500Y-22479000D01*
X150463000Y-25463500D02*
X150463000Y-24860500D01*
X152717500Y-27718000D02*
X150463000Y-25463500D01*
X152717500Y-29845000D02*
X152717500Y-27718000D01*
%TO.N,Net-(R15-Pad2)*%
X163682000Y-41275000D02*
X160422250Y-38015250D01*
X168783000Y-41275000D02*
X163682000Y-41275000D01*
%TO.N,Net-(R16-Pad2)*%
X143726000Y-31559500D02*
X142751000Y-31559500D01*
X142751000Y-31559500D02*
X142751000Y-31559500D01*
%TD*%
M02*
