M48
; DRILL file {KiCad (5.1.8-0-10_14)} date Wednesday, April 27, 2022 at 02:31:29 PM
; FORMAT={-:-/ absolute / inch / decimal}
; #@! TF.CreationDate,2022-04-27T14:31:29-05:00
; #@! TF.GenerationSoftware,Kicad,Pcbnew,(5.1.8-0-10_14)
FMAT,2
INCH
T1C0.0157
T2C0.0866
T3C0.1260
%
G90
G05
T1
X1.965Y-2.519
X1.971Y-3.526
X2.447Y-2.717
X2.451Y-3.288
X3.002Y-3.427
X3.165Y-2.945
X3.167Y-2.451
X3.537Y-3.047
X3.546Y-2.556
X3.551Y-3.414
X3.707Y-2.556
X3.707Y-3.046
X3.708Y-3.412
X3.892Y-2.571
X3.892Y-3.451
X3.905Y-3.06
X4.179Y-2.571
X4.181Y-3.555
X4.183Y-3.061
X4.385Y-3.049
X4.387Y-2.55
X4.39Y-3.536
T2
X1.952Y-3.0205
X4.583Y-2.8343
X4.583Y-3.1287
X4.583Y-2.54
X4.583Y-3.423
X2.206Y-2.872
X2.206Y-3.169
T3
X1.8648Y-3.7649
X4.7388Y-2.2688
X4.7388Y-3.7649
X1.8648Y-2.2688
T0
M30
