%TF.GenerationSoftware,KiCad,Pcbnew,(5.1.8-0-10_14)*%
%TF.CreationDate,2022-04-27T14:31:31-05:00*%
%TF.ProjectId,PowerBoard,506f7765-7242-46f6-9172-642e6b696361,rev?*%
%TF.SameCoordinates,Original*%
%TF.FileFunction,Legend,Top*%
%TF.FilePolarity,Positive*%
%FSLAX46Y46*%
G04 Gerber Fmt 4.6, Leading zero omitted, Abs format (unit mm)*
G04 Created by KiCad (PCBNEW (5.1.8-0-10_14)) date 2022-04-27 14:31:31*
%MOMM*%
%LPD*%
G01*
G04 APERTURE LIST*
%ADD10C,0.300000*%
%ADD11C,0.120000*%
%ADD12C,0.150000*%
G04 APERTURE END LIST*
D10*
X64298657Y-97812942D02*
X64512942Y-97884371D01*
X64870085Y-97884371D01*
X65012942Y-97812942D01*
X65084371Y-97741514D01*
X65155800Y-97598657D01*
X65155800Y-97455800D01*
X65084371Y-97312942D01*
X65012942Y-97241514D01*
X64870085Y-97170085D01*
X64584371Y-97098657D01*
X64441514Y-97027228D01*
X64370085Y-96955800D01*
X64298657Y-96812942D01*
X64298657Y-96670085D01*
X64370085Y-96527228D01*
X64441514Y-96455800D01*
X64584371Y-96384371D01*
X64941514Y-96384371D01*
X65155800Y-96455800D01*
X65727228Y-97455800D02*
X66441514Y-97455800D01*
X65584371Y-97884371D02*
X66084371Y-96384371D01*
X66584371Y-97884371D01*
X68084371Y-98027228D02*
X67941514Y-97955800D01*
X67798657Y-97812942D01*
X67584371Y-97598657D01*
X67441514Y-97527228D01*
X67298657Y-97527228D01*
X67370085Y-97884371D02*
X67227228Y-97812942D01*
X67084371Y-97670085D01*
X67012942Y-97384371D01*
X67012942Y-96884371D01*
X67084371Y-96598657D01*
X67227228Y-96455800D01*
X67370085Y-96384371D01*
X67655800Y-96384371D01*
X67798657Y-96455800D01*
X67941514Y-96598657D01*
X68012942Y-96884371D01*
X68012942Y-97384371D01*
X67941514Y-97670085D01*
X67798657Y-97812942D01*
X67655800Y-97884371D01*
X67370085Y-97884371D01*
X69798657Y-97884371D02*
X69798657Y-96884371D01*
X69798657Y-97170085D02*
X69870085Y-97027228D01*
X69941514Y-96955800D01*
X70084371Y-96884371D01*
X70227228Y-96884371D01*
X71298657Y-97812942D02*
X71155800Y-97884371D01*
X70870085Y-97884371D01*
X70727228Y-97812942D01*
X70655800Y-97670085D01*
X70655800Y-97098657D01*
X70727228Y-96955800D01*
X70870085Y-96884371D01*
X71155800Y-96884371D01*
X71298657Y-96955800D01*
X71370085Y-97098657D01*
X71370085Y-97241514D01*
X70655800Y-97384371D01*
X72012942Y-97884371D02*
X72012942Y-96884371D01*
X72012942Y-97027228D02*
X72084371Y-96955800D01*
X72227228Y-96884371D01*
X72441514Y-96884371D01*
X72584371Y-96955800D01*
X72655800Y-97098657D01*
X72655800Y-97884371D01*
X72655800Y-97098657D02*
X72727228Y-96955800D01*
X72870085Y-96884371D01*
X73084371Y-96884371D01*
X73227228Y-96955800D01*
X73298657Y-97098657D01*
X73298657Y-97884371D01*
X74227228Y-97884371D02*
X74084371Y-97812942D01*
X74012942Y-97741514D01*
X73941514Y-97598657D01*
X73941514Y-97170085D01*
X74012942Y-97027228D01*
X74084371Y-96955800D01*
X74227228Y-96884371D01*
X74441514Y-96884371D01*
X74584371Y-96955800D01*
X74655800Y-97027228D01*
X74727228Y-97170085D01*
X74727228Y-97598657D01*
X74655800Y-97741514D01*
X74584371Y-97812942D01*
X74441514Y-97884371D01*
X74227228Y-97884371D01*
X75155800Y-96884371D02*
X75727228Y-96884371D01*
X75370085Y-96384371D02*
X75370085Y-97670085D01*
X75441514Y-97812942D01*
X75584371Y-97884371D01*
X75727228Y-97884371D01*
X76798657Y-97812942D02*
X76655800Y-97884371D01*
X76370085Y-97884371D01*
X76227228Y-97812942D01*
X76155800Y-97670085D01*
X76155800Y-97098657D01*
X76227228Y-96955800D01*
X76370085Y-96884371D01*
X76655800Y-96884371D01*
X76798657Y-96955800D01*
X76870085Y-97098657D01*
X76870085Y-97241514D01*
X76155800Y-97384371D01*
X78655800Y-96884371D02*
X78655800Y-98384371D01*
X78655800Y-96955800D02*
X78798657Y-96884371D01*
X79084371Y-96884371D01*
X79227228Y-96955800D01*
X79298657Y-97027228D01*
X79370085Y-97170085D01*
X79370085Y-97598657D01*
X79298657Y-97741514D01*
X79227228Y-97812942D01*
X79084371Y-97884371D01*
X78798657Y-97884371D01*
X78655800Y-97812942D01*
X80227228Y-97884371D02*
X80084371Y-97812942D01*
X80012942Y-97741514D01*
X79941514Y-97598657D01*
X79941514Y-97170085D01*
X80012942Y-97027228D01*
X80084371Y-96955800D01*
X80227228Y-96884371D01*
X80441514Y-96884371D01*
X80584371Y-96955800D01*
X80655800Y-97027228D01*
X80727228Y-97170085D01*
X80727228Y-97598657D01*
X80655800Y-97741514D01*
X80584371Y-97812942D01*
X80441514Y-97884371D01*
X80227228Y-97884371D01*
X81227228Y-96884371D02*
X81512942Y-97884371D01*
X81798657Y-97170085D01*
X82084371Y-97884371D01*
X82370085Y-96884371D01*
X83512942Y-97812942D02*
X83370085Y-97884371D01*
X83084371Y-97884371D01*
X82941514Y-97812942D01*
X82870085Y-97670085D01*
X82870085Y-97098657D01*
X82941514Y-96955800D01*
X83084371Y-96884371D01*
X83370085Y-96884371D01*
X83512942Y-96955800D01*
X83584371Y-97098657D01*
X83584371Y-97241514D01*
X82870085Y-97384371D01*
X84227228Y-97884371D02*
X84227228Y-96884371D01*
X84227228Y-97170085D02*
X84298657Y-97027228D01*
X84370085Y-96955800D01*
X84512942Y-96884371D01*
X84655800Y-96884371D01*
X86298657Y-97884371D02*
X86298657Y-96384371D01*
X86298657Y-96955800D02*
X86441514Y-96884371D01*
X86727228Y-96884371D01*
X86870085Y-96955800D01*
X86941514Y-97027228D01*
X87012942Y-97170085D01*
X87012942Y-97598657D01*
X86941514Y-97741514D01*
X86870085Y-97812942D01*
X86727228Y-97884371D01*
X86441514Y-97884371D01*
X86298657Y-97812942D01*
X87870085Y-97884371D02*
X87727228Y-97812942D01*
X87655800Y-97741514D01*
X87584371Y-97598657D01*
X87584371Y-97170085D01*
X87655800Y-97027228D01*
X87727228Y-96955800D01*
X87870085Y-96884371D01*
X88084371Y-96884371D01*
X88227228Y-96955800D01*
X88298657Y-97027228D01*
X88370085Y-97170085D01*
X88370085Y-97598657D01*
X88298657Y-97741514D01*
X88227228Y-97812942D01*
X88084371Y-97884371D01*
X87870085Y-97884371D01*
X89655800Y-97884371D02*
X89655800Y-97098657D01*
X89584371Y-96955800D01*
X89441514Y-96884371D01*
X89155800Y-96884371D01*
X89012942Y-96955800D01*
X89655800Y-97812942D02*
X89512942Y-97884371D01*
X89155800Y-97884371D01*
X89012942Y-97812942D01*
X88941514Y-97670085D01*
X88941514Y-97527228D01*
X89012942Y-97384371D01*
X89155800Y-97312942D01*
X89512942Y-97312942D01*
X89655800Y-97241514D01*
X90370085Y-97884371D02*
X90370085Y-96884371D01*
X90370085Y-97170085D02*
X90441514Y-97027228D01*
X90512942Y-96955800D01*
X90655800Y-96884371D01*
X90798657Y-96884371D01*
X91941514Y-97884371D02*
X91941514Y-96384371D01*
X91941514Y-97812942D02*
X91798657Y-97884371D01*
X91512942Y-97884371D01*
X91370085Y-97812942D01*
X91298657Y-97741514D01*
X91227228Y-97598657D01*
X91227228Y-97170085D01*
X91298657Y-97027228D01*
X91370085Y-96955800D01*
X91512942Y-96884371D01*
X91798657Y-96884371D01*
X91941514Y-96955800D01*
D11*
%TO.C,L5*%
X59881200Y-88571400D02*
X59881200Y-86841400D01*
X59881200Y-86841400D02*
X61611200Y-86841400D01*
X60261200Y-87221400D02*
X66201200Y-87221400D01*
X66201200Y-87221400D02*
X66201200Y-88791400D01*
X66201200Y-91091400D02*
X66201200Y-92661400D01*
X60261200Y-92661400D02*
X66201200Y-92661400D01*
X60261200Y-87221400D02*
X60261200Y-88791400D01*
X60261200Y-91091400D02*
X60261200Y-92661400D01*
%TO.C,L4*%
X59906600Y-62485600D02*
X59906600Y-60755600D01*
X59906600Y-60755600D02*
X61636600Y-60755600D01*
X60286600Y-61135600D02*
X66226600Y-61135600D01*
X66226600Y-61135600D02*
X66226600Y-62705600D01*
X66226600Y-65005600D02*
X66226600Y-66575600D01*
X60286600Y-66575600D02*
X66226600Y-66575600D01*
X60286600Y-61135600D02*
X60286600Y-62705600D01*
X60286600Y-65005600D02*
X60286600Y-66575600D01*
%TO.C,U3*%
X79522600Y-60853400D02*
X78022600Y-60853400D01*
X78022600Y-60853400D02*
X78022600Y-61123400D01*
X78022600Y-61123400D02*
X75192600Y-61123400D01*
X79522600Y-67753400D02*
X78022600Y-67753400D01*
X78022600Y-67753400D02*
X78022600Y-67483400D01*
X78022600Y-67483400D02*
X76922600Y-67483400D01*
%TO.C,U2*%
X79522600Y-85840400D02*
X78022600Y-85840400D01*
X78022600Y-85840400D02*
X78022600Y-86110400D01*
X78022600Y-86110400D02*
X75192600Y-86110400D01*
X79522600Y-92740400D02*
X78022600Y-92740400D01*
X78022600Y-92740400D02*
X78022600Y-92470400D01*
X78022600Y-92470400D02*
X76922600Y-92470400D01*
%TO.C,U1*%
X79522600Y-73346900D02*
X78022600Y-73346900D01*
X78022600Y-73346900D02*
X78022600Y-73616900D01*
X78022600Y-73616900D02*
X75192600Y-73616900D01*
X79522600Y-80246900D02*
X78022600Y-80246900D01*
X78022600Y-80246900D02*
X78022600Y-79976900D01*
X78022600Y-79976900D02*
X76922600Y-79976900D01*
%TO.C,L3*%
X107289000Y-60802600D02*
X97689000Y-60802600D01*
X107289000Y-61802600D02*
X107289000Y-60802600D01*
X107289000Y-67202600D02*
X107289000Y-66202600D01*
X97689000Y-67202600D02*
X107289000Y-67202600D01*
X97689000Y-66202600D02*
X97689000Y-67202600D01*
X97689000Y-63602600D02*
X97689000Y-64402600D01*
X107289000Y-63602600D02*
X107289000Y-64402600D01*
%TO.C,L2*%
X107289000Y-85789600D02*
X97689000Y-85789600D01*
X107289000Y-86789600D02*
X107289000Y-85789600D01*
X107289000Y-92189600D02*
X107289000Y-91189600D01*
X97689000Y-92189600D02*
X107289000Y-92189600D01*
X97689000Y-91189600D02*
X97689000Y-92189600D01*
X97689000Y-88589600D02*
X97689000Y-89389600D01*
X107289000Y-88589600D02*
X107289000Y-89389600D01*
%TO.C,L1*%
X107289000Y-73296100D02*
X97689000Y-73296100D01*
X107289000Y-74296100D02*
X107289000Y-73296100D01*
X107289000Y-79696100D02*
X107289000Y-78696100D01*
X97689000Y-79696100D02*
X107289000Y-79696100D01*
X97689000Y-78696100D02*
X97689000Y-79696100D01*
X97689000Y-76096100D02*
X97689000Y-76896100D01*
X107289000Y-76096100D02*
X107289000Y-76896100D01*
%TO.C,D3*%
X72566800Y-60903400D02*
X69266800Y-60903400D01*
X69266800Y-60903400D02*
X69266800Y-67803400D01*
X72566800Y-60903400D02*
X72566800Y-67803400D01*
%TO.C,D2*%
X69317600Y-92690400D02*
X72617600Y-92690400D01*
X72617600Y-92690400D02*
X72617600Y-85790400D01*
X69317600Y-92690400D02*
X69317600Y-85790400D01*
%TO.C,D1*%
X72490600Y-72396900D02*
X69190600Y-72396900D01*
X69190600Y-72396900D02*
X69190600Y-79296900D01*
X72490600Y-72396900D02*
X72490600Y-79296900D01*
%TO.C,C13*%
X112365200Y-62521348D02*
X112365200Y-63943852D01*
X110545200Y-62521348D02*
X110545200Y-63943852D01*
%TO.C,C12*%
X94966200Y-62572148D02*
X94966200Y-63994652D01*
X93146200Y-62572148D02*
X93146200Y-63994652D01*
%TO.C,C11*%
X91080000Y-62572148D02*
X91080000Y-63994652D01*
X89260000Y-62572148D02*
X89260000Y-63994652D01*
%TO.C,C10*%
X112365200Y-87508348D02*
X112365200Y-88930852D01*
X110545200Y-87508348D02*
X110545200Y-88930852D01*
%TO.C,C9*%
X112365200Y-75014848D02*
X112365200Y-76437352D01*
X110545200Y-75014848D02*
X110545200Y-76437352D01*
%TO.C,C8*%
X94966200Y-87559148D02*
X94966200Y-88981652D01*
X93146200Y-87559148D02*
X93146200Y-88981652D01*
%TO.C,C7*%
X91029200Y-75065648D02*
X91029200Y-76488152D01*
X89209200Y-75065648D02*
X89209200Y-76488152D01*
%TO.C,C6*%
X91105400Y-87559148D02*
X91105400Y-88981652D01*
X89285400Y-87559148D02*
X89285400Y-88981652D01*
%TO.C,C5*%
X94966200Y-75065648D02*
X94966200Y-76488152D01*
X93146200Y-75065648D02*
X93146200Y-76488152D01*
%TO.C,C4*%
X63182848Y-82630600D02*
X64605352Y-82630600D01*
X63182848Y-84450600D02*
X64605352Y-84450600D01*
%TO.C,C3*%
X64439852Y-69820200D02*
X63017348Y-69820200D01*
X64439852Y-68000200D02*
X63017348Y-68000200D01*
%TO.C,C2*%
X56445200Y-92970400D02*
X56445200Y-90620400D01*
X56445200Y-86150400D02*
X56445200Y-88500400D01*
X50689637Y-86150400D02*
X56445200Y-86150400D01*
X50689637Y-92970400D02*
X56445200Y-92970400D01*
X49625200Y-91905963D02*
X49625200Y-90620400D01*
X49625200Y-87214837D02*
X49625200Y-88500400D01*
X49625200Y-87214837D02*
X50689637Y-86150400D01*
X49625200Y-91905963D02*
X50689637Y-92970400D01*
X48597700Y-87712900D02*
X49385200Y-87712900D01*
X48991450Y-87319150D02*
X48991450Y-88106650D01*
%TO.C,C1*%
X49625200Y-60674200D02*
X49625200Y-63024200D01*
X49625200Y-67494200D02*
X49625200Y-65144200D01*
X55380763Y-67494200D02*
X49625200Y-67494200D01*
X55380763Y-60674200D02*
X49625200Y-60674200D01*
X56445200Y-61738637D02*
X56445200Y-63024200D01*
X56445200Y-66429763D02*
X56445200Y-65144200D01*
X56445200Y-66429763D02*
X55380763Y-67494200D01*
X56445200Y-61738637D02*
X55380763Y-60674200D01*
X57472700Y-65931700D02*
X56685200Y-65931700D01*
X57078950Y-66325450D02*
X57078950Y-65537950D01*
%TO.C,+15*%
D12*
X118732466Y-72012694D02*
X119494371Y-72012694D01*
X119113419Y-72393646D02*
X119113419Y-71631742D01*
X120494371Y-72393646D02*
X119922942Y-72393646D01*
X120208657Y-72393646D02*
X120208657Y-71393646D01*
X120113419Y-71536504D01*
X120018180Y-71631742D01*
X119922942Y-71679361D01*
X121399133Y-71393646D02*
X120922942Y-71393646D01*
X120875323Y-71869837D01*
X120922942Y-71822218D01*
X121018180Y-71774599D01*
X121256276Y-71774599D01*
X121351514Y-71822218D01*
X121399133Y-71869837D01*
X121446752Y-71965075D01*
X121446752Y-72203170D01*
X121399133Y-72298408D01*
X121351514Y-72346027D01*
X121256276Y-72393646D01*
X121018180Y-72393646D01*
X120922942Y-72346027D01*
X120875323Y-72298408D01*
%TO.C,GNDA*%
X119484923Y-78993532D02*
X119389685Y-78945912D01*
X119246828Y-78945912D01*
X119103971Y-78993532D01*
X119008733Y-79088770D01*
X118961114Y-79184008D01*
X118913495Y-79374484D01*
X118913495Y-79517341D01*
X118961114Y-79707817D01*
X119008733Y-79803055D01*
X119103971Y-79898293D01*
X119246828Y-79945912D01*
X119342066Y-79945912D01*
X119484923Y-79898293D01*
X119532542Y-79850674D01*
X119532542Y-79517341D01*
X119342066Y-79517341D01*
X119961114Y-79945912D02*
X119961114Y-78945912D01*
X120532542Y-79945912D01*
X120532542Y-78945912D01*
X121008733Y-79945912D02*
X121008733Y-78945912D01*
X121246828Y-78945912D01*
X121389685Y-78993532D01*
X121484923Y-79088770D01*
X121532542Y-79184008D01*
X121580161Y-79374484D01*
X121580161Y-79517341D01*
X121532542Y-79707817D01*
X121484923Y-79803055D01*
X121389685Y-79898293D01*
X121246828Y-79945912D01*
X121008733Y-79945912D01*
X121961114Y-79660198D02*
X122437304Y-79660198D01*
X121865876Y-79945912D02*
X122199209Y-78945912D01*
X122532542Y-79945912D01*
%TO.C,GND*%
X48818895Y-73320700D02*
X48723657Y-73273080D01*
X48580800Y-73273080D01*
X48437942Y-73320700D01*
X48342704Y-73415938D01*
X48295085Y-73511176D01*
X48247466Y-73701652D01*
X48247466Y-73844509D01*
X48295085Y-74034985D01*
X48342704Y-74130223D01*
X48437942Y-74225461D01*
X48580800Y-74273080D01*
X48676038Y-74273080D01*
X48818895Y-74225461D01*
X48866514Y-74177842D01*
X48866514Y-73844509D01*
X48676038Y-73844509D01*
X49295085Y-74273080D02*
X49295085Y-73273080D01*
X49866514Y-74273080D01*
X49866514Y-73273080D01*
X50342704Y-74273080D02*
X50342704Y-73273080D01*
X50580800Y-73273080D01*
X50723657Y-73320700D01*
X50818895Y-73415938D01*
X50866514Y-73511176D01*
X50914133Y-73701652D01*
X50914133Y-73844509D01*
X50866514Y-74034985D01*
X50818895Y-74130223D01*
X50723657Y-74225461D01*
X50580800Y-74273080D01*
X50342704Y-74273080D01*
%TO.C,-17*%
X58255066Y-80411628D02*
X59016971Y-80411628D01*
X60016971Y-80792580D02*
X59445542Y-80792580D01*
X59731257Y-80792580D02*
X59731257Y-79792580D01*
X59636019Y-79935438D01*
X59540780Y-80030676D01*
X59445542Y-80078295D01*
X60350304Y-79792580D02*
X61016971Y-79792580D01*
X60588400Y-80792580D01*
%TO.C,-15*%
X118656266Y-86888628D02*
X119418171Y-86888628D01*
X120418171Y-87269580D02*
X119846742Y-87269580D01*
X120132457Y-87269580D02*
X120132457Y-86269580D01*
X120037219Y-86412438D01*
X119941980Y-86507676D01*
X119846742Y-86555295D01*
X121322933Y-86269580D02*
X120846742Y-86269580D01*
X120799123Y-86745771D01*
X120846742Y-86698152D01*
X120941980Y-86650533D01*
X121180076Y-86650533D01*
X121275314Y-86698152D01*
X121322933Y-86745771D01*
X121370552Y-86841009D01*
X121370552Y-87079104D01*
X121322933Y-87174342D01*
X121275314Y-87221961D01*
X121180076Y-87269580D01*
X120941980Y-87269580D01*
X120846742Y-87221961D01*
X120799123Y-87174342D01*
%TO.C,+17*%
X58686866Y-73223428D02*
X59448771Y-73223428D01*
X59067819Y-73604380D02*
X59067819Y-72842476D01*
X60448771Y-73604380D02*
X59877342Y-73604380D01*
X60163057Y-73604380D02*
X60163057Y-72604380D01*
X60067819Y-72747238D01*
X59972580Y-72842476D01*
X59877342Y-72890095D01*
X60782104Y-72604380D02*
X61448771Y-72604380D01*
X61020200Y-73604380D01*
%TO.C,+9*%
X119005457Y-64460428D02*
X119767361Y-64460428D01*
X119386409Y-64841380D02*
X119386409Y-64079476D01*
X120291171Y-64841380D02*
X120481647Y-64841380D01*
X120576885Y-64793761D01*
X120624504Y-64746142D01*
X120719742Y-64603285D01*
X120767361Y-64412809D01*
X120767361Y-64031857D01*
X120719742Y-63936619D01*
X120672123Y-63889000D01*
X120576885Y-63841380D01*
X120386409Y-63841380D01*
X120291171Y-63889000D01*
X120243552Y-63936619D01*
X120195933Y-64031857D01*
X120195933Y-64269952D01*
X120243552Y-64365190D01*
X120291171Y-64412809D01*
X120386409Y-64460428D01*
X120576885Y-64460428D01*
X120672123Y-64412809D01*
X120719742Y-64365190D01*
X120767361Y-64269952D01*
%TO.C,L5*%
X62714533Y-86593780D02*
X62238342Y-86593780D01*
X62238342Y-85593780D01*
X63524057Y-85593780D02*
X63047866Y-85593780D01*
X63000247Y-86069971D01*
X63047866Y-86022352D01*
X63143104Y-85974733D01*
X63381200Y-85974733D01*
X63476438Y-86022352D01*
X63524057Y-86069971D01*
X63571676Y-86165209D01*
X63571676Y-86403304D01*
X63524057Y-86498542D01*
X63476438Y-86546161D01*
X63381200Y-86593780D01*
X63143104Y-86593780D01*
X63047866Y-86546161D01*
X63000247Y-86498542D01*
%TO.C,L4*%
X62739933Y-60507980D02*
X62263742Y-60507980D01*
X62263742Y-59507980D01*
X63501838Y-59841314D02*
X63501838Y-60507980D01*
X63263742Y-59460361D02*
X63025647Y-60174647D01*
X63644695Y-60174647D01*
%TO.C,U3*%
X79730695Y-59255780D02*
X79730695Y-60065304D01*
X79778314Y-60160542D01*
X79825933Y-60208161D01*
X79921171Y-60255780D01*
X80111647Y-60255780D01*
X80206885Y-60208161D01*
X80254504Y-60160542D01*
X80302123Y-60065304D01*
X80302123Y-59255780D01*
X80683076Y-59255780D02*
X81302123Y-59255780D01*
X80968790Y-59636733D01*
X81111647Y-59636733D01*
X81206885Y-59684352D01*
X81254504Y-59731971D01*
X81302123Y-59827209D01*
X81302123Y-60065304D01*
X81254504Y-60160542D01*
X81206885Y-60208161D01*
X81111647Y-60255780D01*
X80825933Y-60255780D01*
X80730695Y-60208161D01*
X80683076Y-60160542D01*
%TO.C,U2*%
X79730695Y-84242780D02*
X79730695Y-85052304D01*
X79778314Y-85147542D01*
X79825933Y-85195161D01*
X79921171Y-85242780D01*
X80111647Y-85242780D01*
X80206885Y-85195161D01*
X80254504Y-85147542D01*
X80302123Y-85052304D01*
X80302123Y-84242780D01*
X80730695Y-84338019D02*
X80778314Y-84290400D01*
X80873552Y-84242780D01*
X81111647Y-84242780D01*
X81206885Y-84290400D01*
X81254504Y-84338019D01*
X81302123Y-84433257D01*
X81302123Y-84528495D01*
X81254504Y-84671352D01*
X80683076Y-85242780D01*
X81302123Y-85242780D01*
%TO.C,U1*%
X79730695Y-71749280D02*
X79730695Y-72558804D01*
X79778314Y-72654042D01*
X79825933Y-72701661D01*
X79921171Y-72749280D01*
X80111647Y-72749280D01*
X80206885Y-72701661D01*
X80254504Y-72654042D01*
X80302123Y-72558804D01*
X80302123Y-71749280D01*
X81302123Y-72749280D02*
X80730695Y-72749280D01*
X81016409Y-72749280D02*
X81016409Y-71749280D01*
X80921171Y-71892138D01*
X80825933Y-71987376D01*
X80730695Y-72034995D01*
%TO.C,L3*%
X102322333Y-60454980D02*
X101846142Y-60454980D01*
X101846142Y-59454980D01*
X102560428Y-59454980D02*
X103179476Y-59454980D01*
X102846142Y-59835933D01*
X102989000Y-59835933D01*
X103084238Y-59883552D01*
X103131857Y-59931171D01*
X103179476Y-60026409D01*
X103179476Y-60264504D01*
X103131857Y-60359742D01*
X103084238Y-60407361D01*
X102989000Y-60454980D01*
X102703285Y-60454980D01*
X102608047Y-60407361D01*
X102560428Y-60359742D01*
%TO.C,L2*%
X102322333Y-85441980D02*
X101846142Y-85441980D01*
X101846142Y-84441980D01*
X102608047Y-84537219D02*
X102655666Y-84489600D01*
X102750904Y-84441980D01*
X102989000Y-84441980D01*
X103084238Y-84489600D01*
X103131857Y-84537219D01*
X103179476Y-84632457D01*
X103179476Y-84727695D01*
X103131857Y-84870552D01*
X102560428Y-85441980D01*
X103179476Y-85441980D01*
%TO.C,L1*%
X102322333Y-72948480D02*
X101846142Y-72948480D01*
X101846142Y-71948480D01*
X103179476Y-72948480D02*
X102608047Y-72948480D01*
X102893761Y-72948480D02*
X102893761Y-71948480D01*
X102798523Y-72091338D01*
X102703285Y-72186576D01*
X102608047Y-72234195D01*
%TO.C,D3*%
X73869180Y-66041495D02*
X72869180Y-66041495D01*
X72869180Y-65803400D01*
X72916800Y-65660542D01*
X73012038Y-65565304D01*
X73107276Y-65517685D01*
X73297752Y-65470066D01*
X73440609Y-65470066D01*
X73631085Y-65517685D01*
X73726323Y-65565304D01*
X73821561Y-65660542D01*
X73869180Y-65803400D01*
X73869180Y-66041495D01*
X72869180Y-65136733D02*
X72869180Y-64517685D01*
X73250133Y-64851019D01*
X73250133Y-64708161D01*
X73297752Y-64612923D01*
X73345371Y-64565304D01*
X73440609Y-64517685D01*
X73678704Y-64517685D01*
X73773942Y-64565304D01*
X73821561Y-64612923D01*
X73869180Y-64708161D01*
X73869180Y-64993876D01*
X73821561Y-65089114D01*
X73773942Y-65136733D01*
%TO.C,D2*%
X68919980Y-89028495D02*
X67919980Y-89028495D01*
X67919980Y-88790400D01*
X67967600Y-88647542D01*
X68062838Y-88552304D01*
X68158076Y-88504685D01*
X68348552Y-88457066D01*
X68491409Y-88457066D01*
X68681885Y-88504685D01*
X68777123Y-88552304D01*
X68872361Y-88647542D01*
X68919980Y-88790400D01*
X68919980Y-89028495D01*
X68015219Y-88076114D02*
X67967600Y-88028495D01*
X67919980Y-87933257D01*
X67919980Y-87695161D01*
X67967600Y-87599923D01*
X68015219Y-87552304D01*
X68110457Y-87504685D01*
X68205695Y-87504685D01*
X68348552Y-87552304D01*
X68919980Y-88123733D01*
X68919980Y-87504685D01*
%TO.C,D1*%
X73792980Y-77534995D02*
X72792980Y-77534995D01*
X72792980Y-77296900D01*
X72840600Y-77154042D01*
X72935838Y-77058804D01*
X73031076Y-77011185D01*
X73221552Y-76963566D01*
X73364409Y-76963566D01*
X73554885Y-77011185D01*
X73650123Y-77058804D01*
X73745361Y-77154042D01*
X73792980Y-77296900D01*
X73792980Y-77534995D01*
X73792980Y-76011185D02*
X73792980Y-76582614D01*
X73792980Y-76296900D02*
X72792980Y-76296900D01*
X72935838Y-76392138D01*
X73031076Y-76487376D01*
X73078695Y-76582614D01*
%TO.C,C13*%
X111358042Y-60211542D02*
X111310423Y-60259161D01*
X111167566Y-60306780D01*
X111072328Y-60306780D01*
X110929471Y-60259161D01*
X110834233Y-60163923D01*
X110786614Y-60068685D01*
X110738995Y-59878209D01*
X110738995Y-59735352D01*
X110786614Y-59544876D01*
X110834233Y-59449638D01*
X110929471Y-59354400D01*
X111072328Y-59306780D01*
X111167566Y-59306780D01*
X111310423Y-59354400D01*
X111358042Y-59402019D01*
X112310423Y-60306780D02*
X111738995Y-60306780D01*
X112024709Y-60306780D02*
X112024709Y-59306780D01*
X111929471Y-59449638D01*
X111834233Y-59544876D01*
X111738995Y-59592495D01*
X112643757Y-59306780D02*
X113262804Y-59306780D01*
X112929471Y-59687733D01*
X113072328Y-59687733D01*
X113167566Y-59735352D01*
X113215185Y-59782971D01*
X113262804Y-59878209D01*
X113262804Y-60116304D01*
X113215185Y-60211542D01*
X113167566Y-60259161D01*
X113072328Y-60306780D01*
X112786614Y-60306780D01*
X112691376Y-60259161D01*
X112643757Y-60211542D01*
%TO.C,C12*%
X93591142Y-60236942D02*
X93543523Y-60284561D01*
X93400666Y-60332180D01*
X93305428Y-60332180D01*
X93162571Y-60284561D01*
X93067333Y-60189323D01*
X93019714Y-60094085D01*
X92972095Y-59903609D01*
X92972095Y-59760752D01*
X93019714Y-59570276D01*
X93067333Y-59475038D01*
X93162571Y-59379800D01*
X93305428Y-59332180D01*
X93400666Y-59332180D01*
X93543523Y-59379800D01*
X93591142Y-59427419D01*
X94543523Y-60332180D02*
X93972095Y-60332180D01*
X94257809Y-60332180D02*
X94257809Y-59332180D01*
X94162571Y-59475038D01*
X94067333Y-59570276D01*
X93972095Y-59617895D01*
X94924476Y-59427419D02*
X94972095Y-59379800D01*
X95067333Y-59332180D01*
X95305428Y-59332180D01*
X95400666Y-59379800D01*
X95448285Y-59427419D01*
X95495904Y-59522657D01*
X95495904Y-59617895D01*
X95448285Y-59760752D01*
X94876857Y-60332180D01*
X95495904Y-60332180D01*
%TO.C,C11*%
X89628742Y-60389342D02*
X89581123Y-60436961D01*
X89438266Y-60484580D01*
X89343028Y-60484580D01*
X89200171Y-60436961D01*
X89104933Y-60341723D01*
X89057314Y-60246485D01*
X89009695Y-60056009D01*
X89009695Y-59913152D01*
X89057314Y-59722676D01*
X89104933Y-59627438D01*
X89200171Y-59532200D01*
X89343028Y-59484580D01*
X89438266Y-59484580D01*
X89581123Y-59532200D01*
X89628742Y-59579819D01*
X90581123Y-60484580D02*
X90009695Y-60484580D01*
X90295409Y-60484580D02*
X90295409Y-59484580D01*
X90200171Y-59627438D01*
X90104933Y-59722676D01*
X90009695Y-59770295D01*
X91533504Y-60484580D02*
X90962076Y-60484580D01*
X91247790Y-60484580D02*
X91247790Y-59484580D01*
X91152552Y-59627438D01*
X91057314Y-59722676D01*
X90962076Y-59770295D01*
%TO.C,C10*%
X110952442Y-85147742D02*
X110904823Y-85195361D01*
X110761966Y-85242980D01*
X110666728Y-85242980D01*
X110523871Y-85195361D01*
X110428633Y-85100123D01*
X110381014Y-85004885D01*
X110333395Y-84814409D01*
X110333395Y-84671552D01*
X110381014Y-84481076D01*
X110428633Y-84385838D01*
X110523871Y-84290600D01*
X110666728Y-84242980D01*
X110761966Y-84242980D01*
X110904823Y-84290600D01*
X110952442Y-84338219D01*
X111904823Y-85242980D02*
X111333395Y-85242980D01*
X111619109Y-85242980D02*
X111619109Y-84242980D01*
X111523871Y-84385838D01*
X111428633Y-84481076D01*
X111333395Y-84528695D01*
X112523871Y-84242980D02*
X112619109Y-84242980D01*
X112714347Y-84290600D01*
X112761966Y-84338219D01*
X112809585Y-84433457D01*
X112857204Y-84623933D01*
X112857204Y-84862028D01*
X112809585Y-85052504D01*
X112761966Y-85147742D01*
X112714347Y-85195361D01*
X112619109Y-85242980D01*
X112523871Y-85242980D01*
X112428633Y-85195361D01*
X112381014Y-85147742D01*
X112333395Y-85052504D01*
X112285776Y-84862028D01*
X112285776Y-84623933D01*
X112333395Y-84433457D01*
X112381014Y-84338219D01*
X112428633Y-84290600D01*
X112523871Y-84242980D01*
%TO.C,C9*%
X111123033Y-72959042D02*
X111075414Y-73006661D01*
X110932557Y-73054280D01*
X110837319Y-73054280D01*
X110694461Y-73006661D01*
X110599223Y-72911423D01*
X110551604Y-72816185D01*
X110503985Y-72625709D01*
X110503985Y-72482852D01*
X110551604Y-72292376D01*
X110599223Y-72197138D01*
X110694461Y-72101900D01*
X110837319Y-72054280D01*
X110932557Y-72054280D01*
X111075414Y-72101900D01*
X111123033Y-72149519D01*
X111599223Y-73054280D02*
X111789700Y-73054280D01*
X111884938Y-73006661D01*
X111932557Y-72959042D01*
X112027795Y-72816185D01*
X112075414Y-72625709D01*
X112075414Y-72244757D01*
X112027795Y-72149519D01*
X111980176Y-72101900D01*
X111884938Y-72054280D01*
X111694461Y-72054280D01*
X111599223Y-72101900D01*
X111551604Y-72149519D01*
X111503985Y-72244757D01*
X111503985Y-72482852D01*
X111551604Y-72578090D01*
X111599223Y-72625709D01*
X111694461Y-72673328D01*
X111884938Y-72673328D01*
X111980176Y-72625709D01*
X112027795Y-72578090D01*
X112075414Y-72482852D01*
%TO.C,C8*%
X93635533Y-85376342D02*
X93587914Y-85423961D01*
X93445057Y-85471580D01*
X93349819Y-85471580D01*
X93206961Y-85423961D01*
X93111723Y-85328723D01*
X93064104Y-85233485D01*
X93016485Y-85043009D01*
X93016485Y-84900152D01*
X93064104Y-84709676D01*
X93111723Y-84614438D01*
X93206961Y-84519200D01*
X93349819Y-84471580D01*
X93445057Y-84471580D01*
X93587914Y-84519200D01*
X93635533Y-84566819D01*
X94206961Y-84900152D02*
X94111723Y-84852533D01*
X94064104Y-84804914D01*
X94016485Y-84709676D01*
X94016485Y-84662057D01*
X94064104Y-84566819D01*
X94111723Y-84519200D01*
X94206961Y-84471580D01*
X94397438Y-84471580D01*
X94492676Y-84519200D01*
X94540295Y-84566819D01*
X94587914Y-84662057D01*
X94587914Y-84709676D01*
X94540295Y-84804914D01*
X94492676Y-84852533D01*
X94397438Y-84900152D01*
X94206961Y-84900152D01*
X94111723Y-84947771D01*
X94064104Y-84995390D01*
X94016485Y-85090628D01*
X94016485Y-85281104D01*
X94064104Y-85376342D01*
X94111723Y-85423961D01*
X94206961Y-85471580D01*
X94397438Y-85471580D01*
X94492676Y-85423961D01*
X94540295Y-85376342D01*
X94587914Y-85281104D01*
X94587914Y-85090628D01*
X94540295Y-84995390D01*
X94492676Y-84947771D01*
X94397438Y-84900152D01*
%TO.C,C7*%
X89869333Y-72996842D02*
X89821714Y-73044461D01*
X89678857Y-73092080D01*
X89583619Y-73092080D01*
X89440761Y-73044461D01*
X89345523Y-72949223D01*
X89297904Y-72853985D01*
X89250285Y-72663509D01*
X89250285Y-72520652D01*
X89297904Y-72330176D01*
X89345523Y-72234938D01*
X89440761Y-72139700D01*
X89583619Y-72092080D01*
X89678857Y-72092080D01*
X89821714Y-72139700D01*
X89869333Y-72187319D01*
X90202666Y-72092080D02*
X90869333Y-72092080D01*
X90440761Y-73092080D01*
%TO.C,C6*%
X90003333Y-85452542D02*
X89955714Y-85500161D01*
X89812857Y-85547780D01*
X89717619Y-85547780D01*
X89574761Y-85500161D01*
X89479523Y-85404923D01*
X89431904Y-85309685D01*
X89384285Y-85119209D01*
X89384285Y-84976352D01*
X89431904Y-84785876D01*
X89479523Y-84690638D01*
X89574761Y-84595400D01*
X89717619Y-84547780D01*
X89812857Y-84547780D01*
X89955714Y-84595400D01*
X90003333Y-84643019D01*
X90860476Y-84547780D02*
X90670000Y-84547780D01*
X90574761Y-84595400D01*
X90527142Y-84643019D01*
X90431904Y-84785876D01*
X90384285Y-84976352D01*
X90384285Y-85357304D01*
X90431904Y-85452542D01*
X90479523Y-85500161D01*
X90574761Y-85547780D01*
X90765238Y-85547780D01*
X90860476Y-85500161D01*
X90908095Y-85452542D01*
X90955714Y-85357304D01*
X90955714Y-85119209D01*
X90908095Y-85023971D01*
X90860476Y-84976352D01*
X90765238Y-84928733D01*
X90574761Y-84928733D01*
X90479523Y-84976352D01*
X90431904Y-85023971D01*
X90384285Y-85119209D01*
%TO.C,C5*%
X93952633Y-72933642D02*
X93905014Y-72981261D01*
X93762157Y-73028880D01*
X93666919Y-73028880D01*
X93524061Y-72981261D01*
X93428823Y-72886023D01*
X93381204Y-72790785D01*
X93333585Y-72600309D01*
X93333585Y-72457452D01*
X93381204Y-72266976D01*
X93428823Y-72171738D01*
X93524061Y-72076500D01*
X93666919Y-72028880D01*
X93762157Y-72028880D01*
X93905014Y-72076500D01*
X93952633Y-72124119D01*
X94857395Y-72028880D02*
X94381204Y-72028880D01*
X94333585Y-72505071D01*
X94381204Y-72457452D01*
X94476442Y-72409833D01*
X94714538Y-72409833D01*
X94809776Y-72457452D01*
X94857395Y-72505071D01*
X94905014Y-72600309D01*
X94905014Y-72838404D01*
X94857395Y-72933642D01*
X94809776Y-72981261D01*
X94714538Y-73028880D01*
X94476442Y-73028880D01*
X94381204Y-72981261D01*
X94333585Y-72933642D01*
%TO.C,C4*%
X63727433Y-82047742D02*
X63679814Y-82095361D01*
X63536957Y-82142980D01*
X63441719Y-82142980D01*
X63298861Y-82095361D01*
X63203623Y-82000123D01*
X63156004Y-81904885D01*
X63108385Y-81714409D01*
X63108385Y-81571552D01*
X63156004Y-81381076D01*
X63203623Y-81285838D01*
X63298861Y-81190600D01*
X63441719Y-81142980D01*
X63536957Y-81142980D01*
X63679814Y-81190600D01*
X63727433Y-81238219D01*
X64584576Y-81476314D02*
X64584576Y-82142980D01*
X64346480Y-81095361D02*
X64108385Y-81809647D01*
X64727433Y-81809647D01*
%TO.C,C3*%
X63561933Y-71117342D02*
X63514314Y-71164961D01*
X63371457Y-71212580D01*
X63276219Y-71212580D01*
X63133361Y-71164961D01*
X63038123Y-71069723D01*
X62990504Y-70974485D01*
X62942885Y-70784009D01*
X62942885Y-70641152D01*
X62990504Y-70450676D01*
X63038123Y-70355438D01*
X63133361Y-70260200D01*
X63276219Y-70212580D01*
X63371457Y-70212580D01*
X63514314Y-70260200D01*
X63561933Y-70307819D01*
X63895266Y-70212580D02*
X64514314Y-70212580D01*
X64180980Y-70593533D01*
X64323838Y-70593533D01*
X64419076Y-70641152D01*
X64466695Y-70688771D01*
X64514314Y-70784009D01*
X64514314Y-71022104D01*
X64466695Y-71117342D01*
X64419076Y-71164961D01*
X64323838Y-71212580D01*
X64038123Y-71212580D01*
X63942885Y-71164961D01*
X63895266Y-71117342D01*
%TO.C,C2*%
X52868533Y-85567542D02*
X52820914Y-85615161D01*
X52678057Y-85662780D01*
X52582819Y-85662780D01*
X52439961Y-85615161D01*
X52344723Y-85519923D01*
X52297104Y-85424685D01*
X52249485Y-85234209D01*
X52249485Y-85091352D01*
X52297104Y-84900876D01*
X52344723Y-84805638D01*
X52439961Y-84710400D01*
X52582819Y-84662780D01*
X52678057Y-84662780D01*
X52820914Y-84710400D01*
X52868533Y-84758019D01*
X53249485Y-84758019D02*
X53297104Y-84710400D01*
X53392342Y-84662780D01*
X53630438Y-84662780D01*
X53725676Y-84710400D01*
X53773295Y-84758019D01*
X53820914Y-84853257D01*
X53820914Y-84948495D01*
X53773295Y-85091352D01*
X53201866Y-85662780D01*
X53820914Y-85662780D01*
%TO.C,C1*%
X52868533Y-68791342D02*
X52820914Y-68838961D01*
X52678057Y-68886580D01*
X52582819Y-68886580D01*
X52439961Y-68838961D01*
X52344723Y-68743723D01*
X52297104Y-68648485D01*
X52249485Y-68458009D01*
X52249485Y-68315152D01*
X52297104Y-68124676D01*
X52344723Y-68029438D01*
X52439961Y-67934200D01*
X52582819Y-67886580D01*
X52678057Y-67886580D01*
X52820914Y-67934200D01*
X52868533Y-67981819D01*
X53820914Y-68886580D02*
X53249485Y-68886580D01*
X53535200Y-68886580D02*
X53535200Y-67886580D01*
X53439961Y-68029438D01*
X53344723Y-68124676D01*
X53249485Y-68172295D01*
%TD*%
M02*
