%TF.GenerationSoftware,KiCad,Pcbnew,(5.1.8-0-10_14)*%
%TF.CreationDate,2022-04-27T14:31:31-05:00*%
%TF.ProjectId,PowerBoard,506f7765-7242-46f6-9172-642e6b696361,rev?*%
%TF.SameCoordinates,Original*%
%TF.FileFunction,Soldermask,Top*%
%TF.FilePolarity,Negative*%
%FSLAX46Y46*%
G04 Gerber Fmt 4.6, Leading zero omitted, Abs format (unit mm)*
G04 Created by KiCad (PCBNEW (5.1.8-0-10_14)) date 2022-04-27 14:31:31*
%MOMM*%
%LPD*%
G01*
G04 APERTURE LIST*
%ADD10C,3.800000*%
%ADD11C,3.200000*%
%ADD12R,6.400000X5.800000*%
%ADD13R,2.200000X1.200000*%
%ADD14R,2.000000X1.200000*%
%ADD15R,1.800000X3.500000*%
G04 APERTURE END LIST*
D10*
%TO.C,+15*%
X116408200Y-71992066D03*
%TD*%
D11*
%TO.C,H4*%
X47365800Y-95627400D03*
%TD*%
%TO.C,H3*%
X120365800Y-57627400D03*
%TD*%
%TO.C,H2*%
X120365800Y-95627400D03*
%TD*%
%TO.C,H1*%
X47365800Y-57627400D03*
%TD*%
D10*
%TO.C,GNDA*%
X116408200Y-79468132D03*
%TD*%
%TO.C,GND*%
X49580800Y-76720700D03*
%TD*%
%TO.C,-17*%
X56032400Y-80492600D03*
%TD*%
%TO.C,-15*%
X116408200Y-86944200D03*
%TD*%
%TO.C,+17*%
X56032400Y-72948800D03*
%TD*%
%TO.C,+9*%
X116408200Y-64516000D03*
%TD*%
%TO.C,L5*%
G36*
G01*
X64481200Y-90391400D02*
X64481200Y-89491400D01*
G75*
G02*
X64931200Y-89041400I450000J0D01*
G01*
X66031200Y-89041400D01*
G75*
G02*
X66481200Y-89491400I0J-450000D01*
G01*
X66481200Y-90391400D01*
G75*
G02*
X66031200Y-90841400I-450000J0D01*
G01*
X64931200Y-90841400D01*
G75*
G02*
X64481200Y-90391400I0J450000D01*
G01*
G37*
G36*
G01*
X59981200Y-90391400D02*
X59981200Y-89491400D01*
G75*
G02*
X60431200Y-89041400I450000J0D01*
G01*
X61531200Y-89041400D01*
G75*
G02*
X61981200Y-89491400I0J-450000D01*
G01*
X61981200Y-90391400D01*
G75*
G02*
X61531200Y-90841400I-450000J0D01*
G01*
X60431200Y-90841400D01*
G75*
G02*
X59981200Y-90391400I0J450000D01*
G01*
G37*
%TD*%
%TO.C,L4*%
G36*
G01*
X64506600Y-64305600D02*
X64506600Y-63405600D01*
G75*
G02*
X64956600Y-62955600I450000J0D01*
G01*
X66056600Y-62955600D01*
G75*
G02*
X66506600Y-63405600I0J-450000D01*
G01*
X66506600Y-64305600D01*
G75*
G02*
X66056600Y-64755600I-450000J0D01*
G01*
X64956600Y-64755600D01*
G75*
G02*
X64506600Y-64305600I0J450000D01*
G01*
G37*
G36*
G01*
X60006600Y-64305600D02*
X60006600Y-63405600D01*
G75*
G02*
X60456600Y-62955600I450000J0D01*
G01*
X61556600Y-62955600D01*
G75*
G02*
X62006600Y-63405600I0J-450000D01*
G01*
X62006600Y-64305600D01*
G75*
G02*
X61556600Y-64755600I-450000J0D01*
G01*
X60456600Y-64755600D01*
G75*
G02*
X60006600Y-64305600I0J450000D01*
G01*
G37*
%TD*%
D12*
%TO.C,U3*%
X82592600Y-64303400D03*
D13*
X76292600Y-66583400D03*
X76292600Y-62023400D03*
%TD*%
D12*
%TO.C,U2*%
X82592600Y-89290400D03*
D13*
X76292600Y-91570400D03*
X76292600Y-87010400D03*
%TD*%
D12*
%TO.C,U1*%
X82592600Y-76796900D03*
D13*
X76292600Y-79076900D03*
X76292600Y-74516900D03*
%TD*%
D14*
%TO.C,L3*%
X106239000Y-62732600D03*
X106239000Y-65272600D03*
X98739000Y-65272600D03*
X98739000Y-62732600D03*
%TD*%
%TO.C,L2*%
X106239000Y-87719600D03*
X106239000Y-90259600D03*
X98739000Y-90259600D03*
X98739000Y-87719600D03*
%TD*%
%TO.C,L1*%
X106239000Y-75226100D03*
X106239000Y-77766100D03*
X98739000Y-77766100D03*
X98739000Y-75226100D03*
%TD*%
D15*
%TO.C,D3*%
X70916800Y-67803400D03*
X70916800Y-62803400D03*
%TD*%
%TO.C,D2*%
X70967600Y-85790400D03*
X70967600Y-90790400D03*
%TD*%
%TO.C,D1*%
X70840600Y-79296900D03*
X70840600Y-74296900D03*
%TD*%
%TO.C,C13*%
G36*
G01*
X110805199Y-64132600D02*
X112105201Y-64132600D01*
G75*
G02*
X112355200Y-64382599I0J-249999D01*
G01*
X112355200Y-65207601D01*
G75*
G02*
X112105201Y-65457600I-249999J0D01*
G01*
X110805199Y-65457600D01*
G75*
G02*
X110555200Y-65207601I0J249999D01*
G01*
X110555200Y-64382599D01*
G75*
G02*
X110805199Y-64132600I249999J0D01*
G01*
G37*
G36*
G01*
X110805199Y-61007600D02*
X112105201Y-61007600D01*
G75*
G02*
X112355200Y-61257599I0J-249999D01*
G01*
X112355200Y-62082601D01*
G75*
G02*
X112105201Y-62332600I-249999J0D01*
G01*
X110805199Y-62332600D01*
G75*
G02*
X110555200Y-62082601I0J249999D01*
G01*
X110555200Y-61257599D01*
G75*
G02*
X110805199Y-61007600I249999J0D01*
G01*
G37*
%TD*%
%TO.C,C12*%
G36*
G01*
X93406199Y-64183400D02*
X94706201Y-64183400D01*
G75*
G02*
X94956200Y-64433399I0J-249999D01*
G01*
X94956200Y-65258401D01*
G75*
G02*
X94706201Y-65508400I-249999J0D01*
G01*
X93406199Y-65508400D01*
G75*
G02*
X93156200Y-65258401I0J249999D01*
G01*
X93156200Y-64433399D01*
G75*
G02*
X93406199Y-64183400I249999J0D01*
G01*
G37*
G36*
G01*
X93406199Y-61058400D02*
X94706201Y-61058400D01*
G75*
G02*
X94956200Y-61308399I0J-249999D01*
G01*
X94956200Y-62133401D01*
G75*
G02*
X94706201Y-62383400I-249999J0D01*
G01*
X93406199Y-62383400D01*
G75*
G02*
X93156200Y-62133401I0J249999D01*
G01*
X93156200Y-61308399D01*
G75*
G02*
X93406199Y-61058400I249999J0D01*
G01*
G37*
%TD*%
%TO.C,C11*%
G36*
G01*
X89519999Y-64183400D02*
X90820001Y-64183400D01*
G75*
G02*
X91070000Y-64433399I0J-249999D01*
G01*
X91070000Y-65258401D01*
G75*
G02*
X90820001Y-65508400I-249999J0D01*
G01*
X89519999Y-65508400D01*
G75*
G02*
X89270000Y-65258401I0J249999D01*
G01*
X89270000Y-64433399D01*
G75*
G02*
X89519999Y-64183400I249999J0D01*
G01*
G37*
G36*
G01*
X89519999Y-61058400D02*
X90820001Y-61058400D01*
G75*
G02*
X91070000Y-61308399I0J-249999D01*
G01*
X91070000Y-62133401D01*
G75*
G02*
X90820001Y-62383400I-249999J0D01*
G01*
X89519999Y-62383400D01*
G75*
G02*
X89270000Y-62133401I0J249999D01*
G01*
X89270000Y-61308399D01*
G75*
G02*
X89519999Y-61058400I249999J0D01*
G01*
G37*
%TD*%
%TO.C,C10*%
G36*
G01*
X110805199Y-89119600D02*
X112105201Y-89119600D01*
G75*
G02*
X112355200Y-89369599I0J-249999D01*
G01*
X112355200Y-90194601D01*
G75*
G02*
X112105201Y-90444600I-249999J0D01*
G01*
X110805199Y-90444600D01*
G75*
G02*
X110555200Y-90194601I0J249999D01*
G01*
X110555200Y-89369599D01*
G75*
G02*
X110805199Y-89119600I249999J0D01*
G01*
G37*
G36*
G01*
X110805199Y-85994600D02*
X112105201Y-85994600D01*
G75*
G02*
X112355200Y-86244599I0J-249999D01*
G01*
X112355200Y-87069601D01*
G75*
G02*
X112105201Y-87319600I-249999J0D01*
G01*
X110805199Y-87319600D01*
G75*
G02*
X110555200Y-87069601I0J249999D01*
G01*
X110555200Y-86244599D01*
G75*
G02*
X110805199Y-85994600I249999J0D01*
G01*
G37*
%TD*%
%TO.C,C9*%
G36*
G01*
X110805199Y-76626100D02*
X112105201Y-76626100D01*
G75*
G02*
X112355200Y-76876099I0J-249999D01*
G01*
X112355200Y-77701101D01*
G75*
G02*
X112105201Y-77951100I-249999J0D01*
G01*
X110805199Y-77951100D01*
G75*
G02*
X110555200Y-77701101I0J249999D01*
G01*
X110555200Y-76876099D01*
G75*
G02*
X110805199Y-76626100I249999J0D01*
G01*
G37*
G36*
G01*
X110805199Y-73501100D02*
X112105201Y-73501100D01*
G75*
G02*
X112355200Y-73751099I0J-249999D01*
G01*
X112355200Y-74576101D01*
G75*
G02*
X112105201Y-74826100I-249999J0D01*
G01*
X110805199Y-74826100D01*
G75*
G02*
X110555200Y-74576101I0J249999D01*
G01*
X110555200Y-73751099D01*
G75*
G02*
X110805199Y-73501100I249999J0D01*
G01*
G37*
%TD*%
%TO.C,C8*%
G36*
G01*
X93406199Y-89170400D02*
X94706201Y-89170400D01*
G75*
G02*
X94956200Y-89420399I0J-249999D01*
G01*
X94956200Y-90245401D01*
G75*
G02*
X94706201Y-90495400I-249999J0D01*
G01*
X93406199Y-90495400D01*
G75*
G02*
X93156200Y-90245401I0J249999D01*
G01*
X93156200Y-89420399D01*
G75*
G02*
X93406199Y-89170400I249999J0D01*
G01*
G37*
G36*
G01*
X93406199Y-86045400D02*
X94706201Y-86045400D01*
G75*
G02*
X94956200Y-86295399I0J-249999D01*
G01*
X94956200Y-87120401D01*
G75*
G02*
X94706201Y-87370400I-249999J0D01*
G01*
X93406199Y-87370400D01*
G75*
G02*
X93156200Y-87120401I0J249999D01*
G01*
X93156200Y-86295399D01*
G75*
G02*
X93406199Y-86045400I249999J0D01*
G01*
G37*
%TD*%
%TO.C,C7*%
G36*
G01*
X89469199Y-76676900D02*
X90769201Y-76676900D01*
G75*
G02*
X91019200Y-76926899I0J-249999D01*
G01*
X91019200Y-77751901D01*
G75*
G02*
X90769201Y-78001900I-249999J0D01*
G01*
X89469199Y-78001900D01*
G75*
G02*
X89219200Y-77751901I0J249999D01*
G01*
X89219200Y-76926899D01*
G75*
G02*
X89469199Y-76676900I249999J0D01*
G01*
G37*
G36*
G01*
X89469199Y-73551900D02*
X90769201Y-73551900D01*
G75*
G02*
X91019200Y-73801899I0J-249999D01*
G01*
X91019200Y-74626901D01*
G75*
G02*
X90769201Y-74876900I-249999J0D01*
G01*
X89469199Y-74876900D01*
G75*
G02*
X89219200Y-74626901I0J249999D01*
G01*
X89219200Y-73801899D01*
G75*
G02*
X89469199Y-73551900I249999J0D01*
G01*
G37*
%TD*%
%TO.C,C6*%
G36*
G01*
X89545399Y-89170400D02*
X90845401Y-89170400D01*
G75*
G02*
X91095400Y-89420399I0J-249999D01*
G01*
X91095400Y-90245401D01*
G75*
G02*
X90845401Y-90495400I-249999J0D01*
G01*
X89545399Y-90495400D01*
G75*
G02*
X89295400Y-90245401I0J249999D01*
G01*
X89295400Y-89420399D01*
G75*
G02*
X89545399Y-89170400I249999J0D01*
G01*
G37*
G36*
G01*
X89545399Y-86045400D02*
X90845401Y-86045400D01*
G75*
G02*
X91095400Y-86295399I0J-249999D01*
G01*
X91095400Y-87120401D01*
G75*
G02*
X90845401Y-87370400I-249999J0D01*
G01*
X89545399Y-87370400D01*
G75*
G02*
X89295400Y-87120401I0J249999D01*
G01*
X89295400Y-86295399D01*
G75*
G02*
X89545399Y-86045400I249999J0D01*
G01*
G37*
%TD*%
%TO.C,C5*%
G36*
G01*
X93406199Y-76676900D02*
X94706201Y-76676900D01*
G75*
G02*
X94956200Y-76926899I0J-249999D01*
G01*
X94956200Y-77751901D01*
G75*
G02*
X94706201Y-78001900I-249999J0D01*
G01*
X93406199Y-78001900D01*
G75*
G02*
X93156200Y-77751901I0J249999D01*
G01*
X93156200Y-76926899D01*
G75*
G02*
X93406199Y-76676900I249999J0D01*
G01*
G37*
G36*
G01*
X93406199Y-73551900D02*
X94706201Y-73551900D01*
G75*
G02*
X94956200Y-73801899I0J-249999D01*
G01*
X94956200Y-74626901D01*
G75*
G02*
X94706201Y-74876900I-249999J0D01*
G01*
X93406199Y-74876900D01*
G75*
G02*
X93156200Y-74626901I0J249999D01*
G01*
X93156200Y-73801899D01*
G75*
G02*
X93406199Y-73551900I249999J0D01*
G01*
G37*
%TD*%
%TO.C,C4*%
G36*
G01*
X64794100Y-84190601D02*
X64794100Y-82890599D01*
G75*
G02*
X65044099Y-82640600I249999J0D01*
G01*
X65869101Y-82640600D01*
G75*
G02*
X66119100Y-82890599I0J-249999D01*
G01*
X66119100Y-84190601D01*
G75*
G02*
X65869101Y-84440600I-249999J0D01*
G01*
X65044099Y-84440600D01*
G75*
G02*
X64794100Y-84190601I0J249999D01*
G01*
G37*
G36*
G01*
X61669100Y-84190601D02*
X61669100Y-82890599D01*
G75*
G02*
X61919099Y-82640600I249999J0D01*
G01*
X62744101Y-82640600D01*
G75*
G02*
X62994100Y-82890599I0J-249999D01*
G01*
X62994100Y-84190601D01*
G75*
G02*
X62744101Y-84440600I-249999J0D01*
G01*
X61919099Y-84440600D01*
G75*
G02*
X61669100Y-84190601I0J249999D01*
G01*
G37*
%TD*%
%TO.C,C3*%
G36*
G01*
X62828600Y-68260199D02*
X62828600Y-69560201D01*
G75*
G02*
X62578601Y-69810200I-249999J0D01*
G01*
X61753599Y-69810200D01*
G75*
G02*
X61503600Y-69560201I0J249999D01*
G01*
X61503600Y-68260199D01*
G75*
G02*
X61753599Y-68010200I249999J0D01*
G01*
X62578601Y-68010200D01*
G75*
G02*
X62828600Y-68260199I0J-249999D01*
G01*
G37*
G36*
G01*
X65953600Y-68260199D02*
X65953600Y-69560201D01*
G75*
G02*
X65703601Y-69810200I-249999J0D01*
G01*
X64878599Y-69810200D01*
G75*
G02*
X64628600Y-69560201I0J249999D01*
G01*
X64628600Y-68260199D01*
G75*
G02*
X64878599Y-68010200I249999J0D01*
G01*
X65703601Y-68010200D01*
G75*
G02*
X65953600Y-68260199I0J-249999D01*
G01*
G37*
%TD*%
%TO.C,C2*%
G36*
G01*
X54085200Y-90110400D02*
X54085200Y-89010400D01*
G75*
G02*
X54335200Y-88760400I250000J0D01*
G01*
X57335200Y-88760400D01*
G75*
G02*
X57585200Y-89010400I0J-250000D01*
G01*
X57585200Y-90110400D01*
G75*
G02*
X57335200Y-90360400I-250000J0D01*
G01*
X54335200Y-90360400D01*
G75*
G02*
X54085200Y-90110400I0J250000D01*
G01*
G37*
G36*
G01*
X48485200Y-90110400D02*
X48485200Y-89010400D01*
G75*
G02*
X48735200Y-88760400I250000J0D01*
G01*
X51735200Y-88760400D01*
G75*
G02*
X51985200Y-89010400I0J-250000D01*
G01*
X51985200Y-90110400D01*
G75*
G02*
X51735200Y-90360400I-250000J0D01*
G01*
X48735200Y-90360400D01*
G75*
G02*
X48485200Y-90110400I0J250000D01*
G01*
G37*
%TD*%
%TO.C,C1*%
G36*
G01*
X51985200Y-63534200D02*
X51985200Y-64634200D01*
G75*
G02*
X51735200Y-64884200I-250000J0D01*
G01*
X48735200Y-64884200D01*
G75*
G02*
X48485200Y-64634200I0J250000D01*
G01*
X48485200Y-63534200D01*
G75*
G02*
X48735200Y-63284200I250000J0D01*
G01*
X51735200Y-63284200D01*
G75*
G02*
X51985200Y-63534200I0J-250000D01*
G01*
G37*
G36*
G01*
X57585200Y-63534200D02*
X57585200Y-64634200D01*
G75*
G02*
X57335200Y-64884200I-250000J0D01*
G01*
X54335200Y-64884200D01*
G75*
G02*
X54085200Y-64634200I0J250000D01*
G01*
X54085200Y-63534200D01*
G75*
G02*
X54335200Y-63284200I250000J0D01*
G01*
X57335200Y-63284200D01*
G75*
G02*
X57585200Y-63534200I0J-250000D01*
G01*
G37*
%TD*%
M02*
