%TF.GenerationSoftware,KiCad,Pcbnew,(5.1.8-0-10_14)*%
%TF.CreationDate,2022-04-27T14:31:31-05:00*%
%TF.ProjectId,PowerBoard,506f7765-7242-46f6-9172-642e6b696361,rev?*%
%TF.SameCoordinates,Original*%
%TF.FileFunction,Copper,L2,Bot*%
%TF.FilePolarity,Positive*%
%FSLAX46Y46*%
G04 Gerber Fmt 4.6, Leading zero omitted, Abs format (unit mm)*
G04 Created by KiCad (PCBNEW (5.1.8-0-10_14)) date 2022-04-27 14:31:31*
%MOMM*%
%LPD*%
G01*
G04 APERTURE LIST*
%TA.AperFunction,ComponentPad*%
%ADD10C,3.800000*%
%TD*%
%TA.AperFunction,ViaPad*%
%ADD11C,0.800000*%
%TD*%
%TA.AperFunction,Conductor*%
%ADD12C,0.254000*%
%TD*%
%TA.AperFunction,Conductor*%
%ADD13C,0.100000*%
%TD*%
G04 APERTURE END LIST*
D10*
%TO.P,+15,1*%
%TO.N,+15V*%
X116408200Y-71992066D03*
%TD*%
%TO.P,GNDA,1*%
%TO.N,GNDA*%
X116408200Y-79468132D03*
%TD*%
%TO.P,GND,1*%
%TO.N,GND*%
X49580800Y-76720700D03*
%TD*%
%TO.P,-17,1*%
%TO.N,Net-(-17-Pad1)*%
X56032400Y-80492600D03*
%TD*%
%TO.P,-15,1*%
%TO.N,-15V*%
X116408200Y-86944200D03*
%TD*%
%TO.P,+17,1*%
%TO.N,Net-(+17-Pad1)*%
X56032400Y-72948800D03*
%TD*%
%TO.P,+9,1*%
%TO.N,+9V*%
X116408200Y-64516000D03*
%TD*%
D11*
%TO.N,GNDA*%
X111506000Y-89814400D03*
X106197400Y-90297000D03*
X106248200Y-77749400D03*
X111379000Y-77444600D03*
%TO.N,GND*%
X98856800Y-87655400D03*
X89839800Y-77393800D03*
X99187000Y-77724000D03*
X94157800Y-77368400D03*
X94183200Y-86664800D03*
X90195400Y-86715600D03*
X80391000Y-74803000D03*
X76250800Y-87045800D03*
X62255400Y-83515200D03*
X50063400Y-89560400D03*
X49911000Y-63982600D03*
X62153800Y-69011800D03*
X80441800Y-62255400D03*
X90068400Y-64922400D03*
X94157800Y-64922400D03*
X98856800Y-65303400D03*
%TO.N,GNDA*%
X106146600Y-65303400D03*
X111429800Y-64770000D03*
%TD*%
D12*
%TO.N,GND*%
X100303262Y-97975400D02*
X48760240Y-97975400D01*
X49104161Y-97745599D01*
X49483999Y-97365761D01*
X49782436Y-96919119D01*
X49988003Y-96422837D01*
X50092800Y-95895986D01*
X50092800Y-95358814D01*
X49988003Y-94831963D01*
X49782436Y-94335681D01*
X49483999Y-93889039D01*
X49104161Y-93509201D01*
X48657519Y-93210764D01*
X48161237Y-93005197D01*
X47634386Y-92900400D01*
X47097214Y-92900400D01*
X46570363Y-93005197D01*
X46074081Y-93210764D01*
X45627439Y-93509201D01*
X45247601Y-93889039D01*
X45017800Y-94232960D01*
X45017800Y-80194467D01*
X53005400Y-80194467D01*
X53005400Y-80790733D01*
X53121726Y-81375543D01*
X53349908Y-81926422D01*
X53681176Y-82422200D01*
X54102800Y-82843824D01*
X54598578Y-83175092D01*
X55149457Y-83403274D01*
X55734267Y-83519600D01*
X56330533Y-83519600D01*
X56915343Y-83403274D01*
X57466222Y-83175092D01*
X57962000Y-82843824D01*
X58383624Y-82422200D01*
X58714892Y-81926422D01*
X58943074Y-81375543D01*
X59059400Y-80790733D01*
X59059400Y-80194467D01*
X58943074Y-79609657D01*
X58714892Y-79058778D01*
X58383624Y-78563000D01*
X57962000Y-78141376D01*
X57466222Y-77810108D01*
X56915343Y-77581926D01*
X56330533Y-77465600D01*
X55734267Y-77465600D01*
X55149457Y-77581926D01*
X54598578Y-77810108D01*
X54102800Y-78141376D01*
X53681176Y-78563000D01*
X53349908Y-79058778D01*
X53121726Y-79609657D01*
X53005400Y-80194467D01*
X45017800Y-80194467D01*
X45017800Y-78497049D01*
X47984056Y-78497049D01*
X48188162Y-78853567D01*
X48631023Y-79084275D01*
X49110383Y-79224152D01*
X49607821Y-79267823D01*
X50104222Y-79213609D01*
X50580507Y-79063594D01*
X50973438Y-78853567D01*
X51177544Y-78497049D01*
X49580800Y-76900305D01*
X47984056Y-78497049D01*
X45017800Y-78497049D01*
X45017800Y-76747721D01*
X47033677Y-76747721D01*
X47087891Y-77244122D01*
X47237906Y-77720407D01*
X47447933Y-78113338D01*
X47804451Y-78317444D01*
X49401195Y-76720700D01*
X49760405Y-76720700D01*
X51357149Y-78317444D01*
X51713667Y-78113338D01*
X51944375Y-77670477D01*
X52084252Y-77191117D01*
X52127923Y-76693679D01*
X52073709Y-76197278D01*
X51923694Y-75720993D01*
X51713667Y-75328062D01*
X51357149Y-75123956D01*
X49760405Y-76720700D01*
X49401195Y-76720700D01*
X47804451Y-75123956D01*
X47447933Y-75328062D01*
X47217225Y-75770923D01*
X47077348Y-76250283D01*
X47033677Y-76747721D01*
X45017800Y-76747721D01*
X45017800Y-74944351D01*
X47984056Y-74944351D01*
X49580800Y-76541095D01*
X51177544Y-74944351D01*
X50973438Y-74587833D01*
X50530577Y-74357125D01*
X50051217Y-74217248D01*
X49553779Y-74173577D01*
X49057378Y-74227791D01*
X48581093Y-74377806D01*
X48188162Y-74587833D01*
X47984056Y-74944351D01*
X45017800Y-74944351D01*
X45017800Y-72650667D01*
X53005400Y-72650667D01*
X53005400Y-73246933D01*
X53121726Y-73831743D01*
X53349908Y-74382622D01*
X53681176Y-74878400D01*
X54102800Y-75300024D01*
X54598578Y-75631292D01*
X55149457Y-75859474D01*
X55734267Y-75975800D01*
X56330533Y-75975800D01*
X56915343Y-75859474D01*
X57466222Y-75631292D01*
X57962000Y-75300024D01*
X58383624Y-74878400D01*
X58714892Y-74382622D01*
X58943074Y-73831743D01*
X59059400Y-73246933D01*
X59059400Y-72650667D01*
X58943074Y-72065857D01*
X58714892Y-71514978D01*
X58383624Y-71019200D01*
X57962000Y-70597576D01*
X57466222Y-70266308D01*
X56915343Y-70038126D01*
X56330533Y-69921800D01*
X55734267Y-69921800D01*
X55149457Y-70038126D01*
X54598578Y-70266308D01*
X54102800Y-70597576D01*
X53681176Y-71019200D01*
X53349908Y-71514978D01*
X53121726Y-72065857D01*
X53005400Y-72650667D01*
X45017800Y-72650667D01*
X45017800Y-59021840D01*
X45247601Y-59365761D01*
X45627439Y-59745599D01*
X46074081Y-60044036D01*
X46570363Y-60249603D01*
X47097214Y-60354400D01*
X47634386Y-60354400D01*
X48161237Y-60249603D01*
X48657519Y-60044036D01*
X49104161Y-59745599D01*
X49483999Y-59365761D01*
X49782436Y-58919119D01*
X49988003Y-58422837D01*
X50092800Y-57895986D01*
X50092800Y-57358814D01*
X49988003Y-56831963D01*
X49782436Y-56335681D01*
X49483999Y-55889039D01*
X49104161Y-55509201D01*
X48760240Y-55279400D01*
X100255128Y-55279400D01*
X100303262Y-97975400D01*
%TA.AperFunction,Conductor*%
D13*
G36*
X100303262Y-97975400D02*
G01*
X48760240Y-97975400D01*
X49104161Y-97745599D01*
X49483999Y-97365761D01*
X49782436Y-96919119D01*
X49988003Y-96422837D01*
X50092800Y-95895986D01*
X50092800Y-95358814D01*
X49988003Y-94831963D01*
X49782436Y-94335681D01*
X49483999Y-93889039D01*
X49104161Y-93509201D01*
X48657519Y-93210764D01*
X48161237Y-93005197D01*
X47634386Y-92900400D01*
X47097214Y-92900400D01*
X46570363Y-93005197D01*
X46074081Y-93210764D01*
X45627439Y-93509201D01*
X45247601Y-93889039D01*
X45017800Y-94232960D01*
X45017800Y-80194467D01*
X53005400Y-80194467D01*
X53005400Y-80790733D01*
X53121726Y-81375543D01*
X53349908Y-81926422D01*
X53681176Y-82422200D01*
X54102800Y-82843824D01*
X54598578Y-83175092D01*
X55149457Y-83403274D01*
X55734267Y-83519600D01*
X56330533Y-83519600D01*
X56915343Y-83403274D01*
X57466222Y-83175092D01*
X57962000Y-82843824D01*
X58383624Y-82422200D01*
X58714892Y-81926422D01*
X58943074Y-81375543D01*
X59059400Y-80790733D01*
X59059400Y-80194467D01*
X58943074Y-79609657D01*
X58714892Y-79058778D01*
X58383624Y-78563000D01*
X57962000Y-78141376D01*
X57466222Y-77810108D01*
X56915343Y-77581926D01*
X56330533Y-77465600D01*
X55734267Y-77465600D01*
X55149457Y-77581926D01*
X54598578Y-77810108D01*
X54102800Y-78141376D01*
X53681176Y-78563000D01*
X53349908Y-79058778D01*
X53121726Y-79609657D01*
X53005400Y-80194467D01*
X45017800Y-80194467D01*
X45017800Y-78497049D01*
X47984056Y-78497049D01*
X48188162Y-78853567D01*
X48631023Y-79084275D01*
X49110383Y-79224152D01*
X49607821Y-79267823D01*
X50104222Y-79213609D01*
X50580507Y-79063594D01*
X50973438Y-78853567D01*
X51177544Y-78497049D01*
X49580800Y-76900305D01*
X47984056Y-78497049D01*
X45017800Y-78497049D01*
X45017800Y-76747721D01*
X47033677Y-76747721D01*
X47087891Y-77244122D01*
X47237906Y-77720407D01*
X47447933Y-78113338D01*
X47804451Y-78317444D01*
X49401195Y-76720700D01*
X49760405Y-76720700D01*
X51357149Y-78317444D01*
X51713667Y-78113338D01*
X51944375Y-77670477D01*
X52084252Y-77191117D01*
X52127923Y-76693679D01*
X52073709Y-76197278D01*
X51923694Y-75720993D01*
X51713667Y-75328062D01*
X51357149Y-75123956D01*
X49760405Y-76720700D01*
X49401195Y-76720700D01*
X47804451Y-75123956D01*
X47447933Y-75328062D01*
X47217225Y-75770923D01*
X47077348Y-76250283D01*
X47033677Y-76747721D01*
X45017800Y-76747721D01*
X45017800Y-74944351D01*
X47984056Y-74944351D01*
X49580800Y-76541095D01*
X51177544Y-74944351D01*
X50973438Y-74587833D01*
X50530577Y-74357125D01*
X50051217Y-74217248D01*
X49553779Y-74173577D01*
X49057378Y-74227791D01*
X48581093Y-74377806D01*
X48188162Y-74587833D01*
X47984056Y-74944351D01*
X45017800Y-74944351D01*
X45017800Y-72650667D01*
X53005400Y-72650667D01*
X53005400Y-73246933D01*
X53121726Y-73831743D01*
X53349908Y-74382622D01*
X53681176Y-74878400D01*
X54102800Y-75300024D01*
X54598578Y-75631292D01*
X55149457Y-75859474D01*
X55734267Y-75975800D01*
X56330533Y-75975800D01*
X56915343Y-75859474D01*
X57466222Y-75631292D01*
X57962000Y-75300024D01*
X58383624Y-74878400D01*
X58714892Y-74382622D01*
X58943074Y-73831743D01*
X59059400Y-73246933D01*
X59059400Y-72650667D01*
X58943074Y-72065857D01*
X58714892Y-71514978D01*
X58383624Y-71019200D01*
X57962000Y-70597576D01*
X57466222Y-70266308D01*
X56915343Y-70038126D01*
X56330533Y-69921800D01*
X55734267Y-69921800D01*
X55149457Y-70038126D01*
X54598578Y-70266308D01*
X54102800Y-70597576D01*
X53681176Y-71019200D01*
X53349908Y-71514978D01*
X53121726Y-72065857D01*
X53005400Y-72650667D01*
X45017800Y-72650667D01*
X45017800Y-59021840D01*
X45247601Y-59365761D01*
X45627439Y-59745599D01*
X46074081Y-60044036D01*
X46570363Y-60249603D01*
X47097214Y-60354400D01*
X47634386Y-60354400D01*
X48161237Y-60249603D01*
X48657519Y-60044036D01*
X49104161Y-59745599D01*
X49483999Y-59365761D01*
X49782436Y-58919119D01*
X49988003Y-58422837D01*
X50092800Y-57895986D01*
X50092800Y-57358814D01*
X49988003Y-56831963D01*
X49782436Y-56335681D01*
X49483999Y-55889039D01*
X49104161Y-55509201D01*
X48760240Y-55279400D01*
X100255128Y-55279400D01*
X100303262Y-97975400D01*
G37*
%TD.AperFunction*%
%TD*%
D12*
%TO.N,GNDA*%
X118627439Y-55509201D02*
X118247601Y-55889039D01*
X117949164Y-56335681D01*
X117743597Y-56831963D01*
X117638800Y-57358814D01*
X117638800Y-57895986D01*
X117743597Y-58422837D01*
X117949164Y-58919119D01*
X118247601Y-59365761D01*
X118627439Y-59745599D01*
X119074081Y-60044036D01*
X119570363Y-60249603D01*
X120097214Y-60354400D01*
X120634386Y-60354400D01*
X121161237Y-60249603D01*
X121657519Y-60044036D01*
X122104161Y-59745599D01*
X122483999Y-59365761D01*
X122713800Y-59021840D01*
X122713801Y-94232961D01*
X122483999Y-93889039D01*
X122104161Y-93509201D01*
X121657519Y-93210764D01*
X121161237Y-93005197D01*
X120634386Y-92900400D01*
X120097214Y-92900400D01*
X119570363Y-93005197D01*
X119074081Y-93210764D01*
X118627439Y-93509201D01*
X118247601Y-93889039D01*
X117949164Y-94335681D01*
X117743597Y-94831963D01*
X117638800Y-95358814D01*
X117638800Y-95895986D01*
X117743597Y-96422837D01*
X117949164Y-96919119D01*
X118247601Y-97365761D01*
X118627439Y-97745599D01*
X118971360Y-97975400D01*
X102947565Y-97975400D01*
X102960330Y-86646067D01*
X113381200Y-86646067D01*
X113381200Y-87242333D01*
X113497526Y-87827143D01*
X113725708Y-88378022D01*
X114056976Y-88873800D01*
X114478600Y-89295424D01*
X114974378Y-89626692D01*
X115525257Y-89854874D01*
X116110067Y-89971200D01*
X116706333Y-89971200D01*
X117291143Y-89854874D01*
X117842022Y-89626692D01*
X118337800Y-89295424D01*
X118759424Y-88873800D01*
X119090692Y-88378022D01*
X119318874Y-87827143D01*
X119435200Y-87242333D01*
X119435200Y-86646067D01*
X119318874Y-86061257D01*
X119090692Y-85510378D01*
X118759424Y-85014600D01*
X118337800Y-84592976D01*
X117842022Y-84261708D01*
X117291143Y-84033526D01*
X116706333Y-83917200D01*
X116110067Y-83917200D01*
X115525257Y-84033526D01*
X114974378Y-84261708D01*
X114478600Y-84592976D01*
X114056976Y-85014600D01*
X113725708Y-85510378D01*
X113497526Y-86061257D01*
X113381200Y-86646067D01*
X102960330Y-86646067D01*
X102966416Y-81244481D01*
X114811456Y-81244481D01*
X115015562Y-81600999D01*
X115458423Y-81831707D01*
X115937783Y-81971584D01*
X116435221Y-82015255D01*
X116931622Y-81961041D01*
X117407907Y-81811026D01*
X117800838Y-81600999D01*
X118004944Y-81244481D01*
X116408200Y-79647737D01*
X114811456Y-81244481D01*
X102966416Y-81244481D01*
X102968387Y-79495153D01*
X113861077Y-79495153D01*
X113915291Y-79991554D01*
X114065306Y-80467839D01*
X114275333Y-80860770D01*
X114631851Y-81064876D01*
X116228595Y-79468132D01*
X116587805Y-79468132D01*
X118184549Y-81064876D01*
X118541067Y-80860770D01*
X118771775Y-80417909D01*
X118911652Y-79938549D01*
X118955323Y-79441111D01*
X118901109Y-78944710D01*
X118751094Y-78468425D01*
X118541067Y-78075494D01*
X118184549Y-77871388D01*
X116587805Y-79468132D01*
X116228595Y-79468132D01*
X114631851Y-77871388D01*
X114275333Y-78075494D01*
X114044625Y-78518355D01*
X113904748Y-78997715D01*
X113861077Y-79495153D01*
X102968387Y-79495153D01*
X102970418Y-77691783D01*
X114811456Y-77691783D01*
X116408200Y-79288527D01*
X118004944Y-77691783D01*
X117800838Y-77335265D01*
X117357977Y-77104557D01*
X116878617Y-76964680D01*
X116381179Y-76921009D01*
X115884778Y-76975223D01*
X115408493Y-77125238D01*
X115015562Y-77335265D01*
X114811456Y-77691783D01*
X102970418Y-77691783D01*
X102977177Y-71693933D01*
X113381200Y-71693933D01*
X113381200Y-72290199D01*
X113497526Y-72875009D01*
X113725708Y-73425888D01*
X114056976Y-73921666D01*
X114478600Y-74343290D01*
X114974378Y-74674558D01*
X115525257Y-74902740D01*
X116110067Y-75019066D01*
X116706333Y-75019066D01*
X117291143Y-74902740D01*
X117842022Y-74674558D01*
X118337800Y-74343290D01*
X118759424Y-73921666D01*
X119090692Y-73425888D01*
X119318874Y-72875009D01*
X119435200Y-72290199D01*
X119435200Y-71693933D01*
X119318874Y-71109123D01*
X119090692Y-70558244D01*
X118759424Y-70062466D01*
X118337800Y-69640842D01*
X117842022Y-69309574D01*
X117291143Y-69081392D01*
X116706333Y-68965066D01*
X116110067Y-68965066D01*
X115525257Y-69081392D01*
X114974378Y-69309574D01*
X114478600Y-69640842D01*
X114056976Y-70062466D01*
X113725708Y-70558244D01*
X113497526Y-71109123D01*
X113381200Y-71693933D01*
X102977177Y-71693933D01*
X102985601Y-64217867D01*
X113381200Y-64217867D01*
X113381200Y-64814133D01*
X113497526Y-65398943D01*
X113725708Y-65949822D01*
X114056976Y-66445600D01*
X114478600Y-66867224D01*
X114974378Y-67198492D01*
X115525257Y-67426674D01*
X116110067Y-67543000D01*
X116706333Y-67543000D01*
X117291143Y-67426674D01*
X117842022Y-67198492D01*
X118337800Y-66867224D01*
X118759424Y-66445600D01*
X119090692Y-65949822D01*
X119318874Y-65398943D01*
X119435200Y-64814133D01*
X119435200Y-64217867D01*
X119318874Y-63633057D01*
X119090692Y-63082178D01*
X118759424Y-62586400D01*
X118337800Y-62164776D01*
X117842022Y-61833508D01*
X117291143Y-61605326D01*
X116706333Y-61489000D01*
X116110067Y-61489000D01*
X115525257Y-61605326D01*
X114974378Y-61833508D01*
X114478600Y-62164776D01*
X114056976Y-62586400D01*
X113725708Y-63082178D01*
X113497526Y-63633057D01*
X113381200Y-64217867D01*
X102985601Y-64217867D01*
X102995673Y-55279400D01*
X118971360Y-55279400D01*
X118627439Y-55509201D01*
%TA.AperFunction,Conductor*%
D13*
G36*
X118627439Y-55509201D02*
G01*
X118247601Y-55889039D01*
X117949164Y-56335681D01*
X117743597Y-56831963D01*
X117638800Y-57358814D01*
X117638800Y-57895986D01*
X117743597Y-58422837D01*
X117949164Y-58919119D01*
X118247601Y-59365761D01*
X118627439Y-59745599D01*
X119074081Y-60044036D01*
X119570363Y-60249603D01*
X120097214Y-60354400D01*
X120634386Y-60354400D01*
X121161237Y-60249603D01*
X121657519Y-60044036D01*
X122104161Y-59745599D01*
X122483999Y-59365761D01*
X122713800Y-59021840D01*
X122713801Y-94232961D01*
X122483999Y-93889039D01*
X122104161Y-93509201D01*
X121657519Y-93210764D01*
X121161237Y-93005197D01*
X120634386Y-92900400D01*
X120097214Y-92900400D01*
X119570363Y-93005197D01*
X119074081Y-93210764D01*
X118627439Y-93509201D01*
X118247601Y-93889039D01*
X117949164Y-94335681D01*
X117743597Y-94831963D01*
X117638800Y-95358814D01*
X117638800Y-95895986D01*
X117743597Y-96422837D01*
X117949164Y-96919119D01*
X118247601Y-97365761D01*
X118627439Y-97745599D01*
X118971360Y-97975400D01*
X102947565Y-97975400D01*
X102960330Y-86646067D01*
X113381200Y-86646067D01*
X113381200Y-87242333D01*
X113497526Y-87827143D01*
X113725708Y-88378022D01*
X114056976Y-88873800D01*
X114478600Y-89295424D01*
X114974378Y-89626692D01*
X115525257Y-89854874D01*
X116110067Y-89971200D01*
X116706333Y-89971200D01*
X117291143Y-89854874D01*
X117842022Y-89626692D01*
X118337800Y-89295424D01*
X118759424Y-88873800D01*
X119090692Y-88378022D01*
X119318874Y-87827143D01*
X119435200Y-87242333D01*
X119435200Y-86646067D01*
X119318874Y-86061257D01*
X119090692Y-85510378D01*
X118759424Y-85014600D01*
X118337800Y-84592976D01*
X117842022Y-84261708D01*
X117291143Y-84033526D01*
X116706333Y-83917200D01*
X116110067Y-83917200D01*
X115525257Y-84033526D01*
X114974378Y-84261708D01*
X114478600Y-84592976D01*
X114056976Y-85014600D01*
X113725708Y-85510378D01*
X113497526Y-86061257D01*
X113381200Y-86646067D01*
X102960330Y-86646067D01*
X102966416Y-81244481D01*
X114811456Y-81244481D01*
X115015562Y-81600999D01*
X115458423Y-81831707D01*
X115937783Y-81971584D01*
X116435221Y-82015255D01*
X116931622Y-81961041D01*
X117407907Y-81811026D01*
X117800838Y-81600999D01*
X118004944Y-81244481D01*
X116408200Y-79647737D01*
X114811456Y-81244481D01*
X102966416Y-81244481D01*
X102968387Y-79495153D01*
X113861077Y-79495153D01*
X113915291Y-79991554D01*
X114065306Y-80467839D01*
X114275333Y-80860770D01*
X114631851Y-81064876D01*
X116228595Y-79468132D01*
X116587805Y-79468132D01*
X118184549Y-81064876D01*
X118541067Y-80860770D01*
X118771775Y-80417909D01*
X118911652Y-79938549D01*
X118955323Y-79441111D01*
X118901109Y-78944710D01*
X118751094Y-78468425D01*
X118541067Y-78075494D01*
X118184549Y-77871388D01*
X116587805Y-79468132D01*
X116228595Y-79468132D01*
X114631851Y-77871388D01*
X114275333Y-78075494D01*
X114044625Y-78518355D01*
X113904748Y-78997715D01*
X113861077Y-79495153D01*
X102968387Y-79495153D01*
X102970418Y-77691783D01*
X114811456Y-77691783D01*
X116408200Y-79288527D01*
X118004944Y-77691783D01*
X117800838Y-77335265D01*
X117357977Y-77104557D01*
X116878617Y-76964680D01*
X116381179Y-76921009D01*
X115884778Y-76975223D01*
X115408493Y-77125238D01*
X115015562Y-77335265D01*
X114811456Y-77691783D01*
X102970418Y-77691783D01*
X102977177Y-71693933D01*
X113381200Y-71693933D01*
X113381200Y-72290199D01*
X113497526Y-72875009D01*
X113725708Y-73425888D01*
X114056976Y-73921666D01*
X114478600Y-74343290D01*
X114974378Y-74674558D01*
X115525257Y-74902740D01*
X116110067Y-75019066D01*
X116706333Y-75019066D01*
X117291143Y-74902740D01*
X117842022Y-74674558D01*
X118337800Y-74343290D01*
X118759424Y-73921666D01*
X119090692Y-73425888D01*
X119318874Y-72875009D01*
X119435200Y-72290199D01*
X119435200Y-71693933D01*
X119318874Y-71109123D01*
X119090692Y-70558244D01*
X118759424Y-70062466D01*
X118337800Y-69640842D01*
X117842022Y-69309574D01*
X117291143Y-69081392D01*
X116706333Y-68965066D01*
X116110067Y-68965066D01*
X115525257Y-69081392D01*
X114974378Y-69309574D01*
X114478600Y-69640842D01*
X114056976Y-70062466D01*
X113725708Y-70558244D01*
X113497526Y-71109123D01*
X113381200Y-71693933D01*
X102977177Y-71693933D01*
X102985601Y-64217867D01*
X113381200Y-64217867D01*
X113381200Y-64814133D01*
X113497526Y-65398943D01*
X113725708Y-65949822D01*
X114056976Y-66445600D01*
X114478600Y-66867224D01*
X114974378Y-67198492D01*
X115525257Y-67426674D01*
X116110067Y-67543000D01*
X116706333Y-67543000D01*
X117291143Y-67426674D01*
X117842022Y-67198492D01*
X118337800Y-66867224D01*
X118759424Y-66445600D01*
X119090692Y-65949822D01*
X119318874Y-65398943D01*
X119435200Y-64814133D01*
X119435200Y-64217867D01*
X119318874Y-63633057D01*
X119090692Y-63082178D01*
X118759424Y-62586400D01*
X118337800Y-62164776D01*
X117842022Y-61833508D01*
X117291143Y-61605326D01*
X116706333Y-61489000D01*
X116110067Y-61489000D01*
X115525257Y-61605326D01*
X114974378Y-61833508D01*
X114478600Y-62164776D01*
X114056976Y-62586400D01*
X113725708Y-63082178D01*
X113497526Y-63633057D01*
X113381200Y-64217867D01*
X102985601Y-64217867D01*
X102995673Y-55279400D01*
X118971360Y-55279400D01*
X118627439Y-55509201D01*
G37*
%TD.AperFunction*%
%TD*%
M02*
